<?xml version="1.0" encoding="utf-8"?>
<!-- Generator: Adobe Illustrator 26.4.1, SVG Export Plug-In . SVG Version: 6.00 Build 0)  -->
<svg version="1.1" id="Layer_1" xmlns="http://www.w3.org/2000/svg" xmlns:xlink="http://www.w3.org/1999/xlink" x="0px" y="0px"
	 viewBox="0 0 200 200" style="enable-background:new 0 0 200 200;" xml:space="preserve">
<style type="text/css">
	.st0{fill:#0067FB;}
</style>
<g>
	<g>
		<path class="st0" d="M100,172.7c-40.1,0-72.7-32.6-72.7-72.7S59.9,27.3,100,27.3s72.7,32.6,72.7,72.7S140.1,172.7,100,172.7z
			 M100,31.3c-37.9,0-68.7,30.8-68.7,68.7c0,37.9,30.8,68.7,68.7,68.7c37.9,0,68.7-30.8,68.7-68.7C168.7,62.1,137.9,31.3,100,31.3z"
			/>
	</g>
	<g>
		<g>
			<path class="st0" d="M118.1,87.2H80.2c-0.7,0-1.2-0.6-1.2-1.2V74.3c0-0.7,0.6-1.2,1.2-1.2h37.8c0.7,0,1.2,0.6,1.2,1.2V86
				C119.3,86.7,118.8,87.2,118.1,87.2z M81.5,84.7h35.3v-9.2H81.5V84.7z"/>
		</g>
		<g>
			<path class="st0" d="M118.1,107.9H80.2c-0.7,0-1.2-0.6-1.2-1.2V95c0-0.7,0.6-1.2,1.2-1.2h37.8c0.7,0,1.2,0.6,1.2,1.2v11.7
				C119.3,107.4,118.8,107.9,118.1,107.9z M81.5,105.4h35.3v-9.2H81.5V105.4z"/>
		</g>
		<g>
			<path class="st0" d="M118.1,128.6H80.2c-0.7,0-1.2-0.6-1.2-1.2v-11.7c0-0.7,0.6-1.2,1.2-1.2h37.8c0.7,0,1.2,0.6,1.2,1.2v11.7
				C119.3,128.1,118.8,128.6,118.1,128.6z M81.5,126.1h35.3v-9.2H81.5V126.1z"/>
		</g>
		<g>
			<g>
				<path class="st0" d="M128.1,107c-0.3,0-0.6-0.1-0.9-0.4l-4.8-4.8c-0.2-0.2-0.4-0.6-0.4-0.9c0-0.3,0.1-0.6,0.4-0.9l4.9-4.9
					c0.5-0.5,1.3-0.5,1.8,0s0.5,1.3,0,1.8l-4.1,4.1l3.9,3.9c0.5,0.5,0.5,1.3,0,1.8C128.8,106.9,128.5,107,128.1,107z"/>
			</g>
			<g>
				<path class="st0" d="M134.6,102.1h-11.3c-0.7,0-1.2-0.6-1.2-1.2s0.6-1.2,1.2-1.2h10V82h-9.6c-0.7,0-1.2-0.6-1.2-1.2
					s0.6-1.2,1.2-1.2h10.8c0.7,0,1.2,0.6,1.2,1.2v20.1C135.8,101.5,135.3,102.1,134.6,102.1z"/>
			</g>
		</g>
		<g>
			<g>
				<path class="st0" d="M70,127.1c-0.3,0-0.6-0.1-0.9-0.4c-0.5-0.5-0.5-1.3,0-1.8l3.9-3.9L69,117c-0.5-0.5-0.5-1.3,0-1.8
					s1.3-0.5,1.8,0l4.9,4.9c0.5,0.5,0.5,1.3,0,1.8l-4.8,4.8C70.7,127,70.4,127.1,70,127.1z"/>
			</g>
			<g>
				<path class="st0" d="M74.9,122.2H63.6c-0.7,0-1.2-0.6-1.2-1.2v-20.1c0-0.7,0.6-1.2,1.2-1.2h10.8c0.7,0,1.2,0.6,1.2,1.2
					s-0.6,1.2-1.2,1.2h-9.6v17.6h10c0.7,0,1.2,0.6,1.2,1.2S75.6,122.2,74.9,122.2z"/>
			</g>
		</g>
		<g>
			<path class="st0" d="M99.2,102.1H86.3c-0.7,0-1.2-0.6-1.2-1.2s0.6-1.2,1.2-1.2h12.9c0.7,0,1.2,0.6,1.2,1.2S99.9,102.1,99.2,102.1
				z"/>
		</g>
		<g>
			<path class="st0" d="M112,81.4H99.2c-0.7,0-1.2-0.6-1.2-1.2s0.6-1.2,1.2-1.2H112c0.7,0,1.2,0.6,1.2,1.2S112.7,81.4,112,81.4z"/>
		</g>
		<g>
			<path class="st0" d="M112,102.1h-7.4c-0.7,0-1.2-0.6-1.2-1.2s0.6-1.2,1.2-1.2h7.4c0.7,0,1.2,0.6,1.2,1.2S112.7,102.1,112,102.1z"
				/>
		</g>
		<g>
			<path class="st0" d="M99.2,122.8H86.3c-0.7,0-1.2-0.6-1.2-1.2s0.6-1.2,1.2-1.2h12.9c0.7,0,1.2,0.6,1.2,1.2S99.9,122.8,99.2,122.8
				z"/>
		</g>
		<g>
			<path class="st0" d="M112,122.8h-7.4c-0.7,0-1.2-0.6-1.2-1.2s0.6-1.2,1.2-1.2h7.4c0.7,0,1.2,0.6,1.2,1.2S112.7,122.8,112,122.8z"
				/>
		</g>
		<g>
			<path class="st0" d="M87.9,82.8c-0.3,0-0.6-0.1-0.9-0.4l-1.6-1.6c-0.5-0.5-0.5-1.3,0-1.8s1.3-0.5,1.8,0l0.7,0.7l2.2-2.2
				c0.5-0.5,1.3-0.5,1.8,0s0.5,1.3,0,1.8l-3.1,3.1C88.5,82.7,88.2,82.8,87.9,82.8z"/>
		</g>
	</g>
</g>
</svg>
