<?xml version="1.0" encoding="utf-8"?>
<!-- Generator: Adobe Illustrator 26.0.3, SVG Export Plug-In . SVG Version: 6.00 Build 0)  -->
<svg version="1.1" id="Layer_1" xmlns="http://www.w3.org/2000/svg" xmlns:xlink="http://www.w3.org/1999/xlink" x="0px" y="0px"
	 viewBox="0 0 200 200" style="enable-background:new 0 0 200 200;" xml:space="preserve">
<style type="text/css">
	.st0{clip-path:url(#SVGID_00000054252465545745209670000002703328414298187158_);}
	.st1{fill:#52cf52;}
</style>
<g id="Layer_2_00000068654798212148707660000009056155503967521967_">
	<g id="Layer_1-2">
		<g>
			<defs>
				<rect id="SVGID_1_" x="0" y="0" width="200" height="200"/>
			</defs>
			<clipPath id="SVGID_00000001633480150056312710000012035731712776007821_">
				<use xlink:href="#SVGID_1_"  style="overflow:visible;"/>
			</clipPath>
			<g style="clip-path:url(#SVGID_00000001633480150056312710000012035731712776007821_);">
				<g id="Group_80">
					<path id="Path_56" class="st1" d="M100,172.7c-40.2,0-72.7-32.5-72.7-72.7S59.8,27.3,100,27.3s72.7,32.5,72.7,72.7
						S140.2,172.7,100,172.7L100,172.7z M100,31.3c-37.9,0-68.7,30.8-68.7,68.7s30.8,68.7,68.7,68.7s68.7-30.8,68.7-68.7
						S137.9,31.3,100,31.3C100,31.3,100,31.3,100,31.3z"/>
				</g>
				<polygon class="st1" points="82.7,61.1 62.8,80.9 82.7,80.9 				"/>
				<path class="st1" d="M104.5,116.1c0-9.8,8-17.8,17.8-17.8c0,0,0,0,0,0V61.1h-38v21.4H62.8V139h59.5v-5.1
					C112.5,133.9,104.5,125.9,104.5,116.1C104.5,116.1,104.5,116.1,104.5,116.1z M112.2,97.5H74.1c-0.6,0-1.1-0.5-1.1-1.1
					c0-0.6,0.5-1.1,1.1-1.1h38.1c0.6,0,1.1,0.5,1.1,1.1C113.3,97,112.8,97.5,112.2,97.5z M73.6,113.9c-0.4,0-0.8-0.5-0.8-1.1
					s0.3-1.1,0.8-1.1h26.1c0.4,0,0.8,0.5,0.8,1.1s-0.3,1.1-0.8,1.1H73.6z M99.4,121c0,0.6-0.2,1.1-0.5,1.1h-11
					c-0.3,0-0.5-0.5-0.5-1.1s0.2-1.1,0.5-1.1h11C99.2,119.9,99.4,120.4,99.4,121z M85.8,121c0,0.6-0.5,1.1-1.1,1.1h-2.4
					c-0.6,0-1.1-0.5-1.1-1.1s0.5-1.1,1.1-1.1h2.4C85.3,119.9,85.8,120.4,85.8,121L85.8,121z M79.5,121c0,0.6-0.5,1.1-1.1,1.1h-4.3
					c-0.6,0-1.1-0.5-1.1-1.1s0.5-1.1,1.1-1.1h4.3C79,119.9,79.5,120.4,79.5,121C79.5,121,79.5,121,79.5,121z M73,104.6
					c0-0.6,0.5-1.1,1.1-1.1h20.3c0.6,0,1.1,0.5,1.1,1.1c0,0.6-0.5,1.1-1.1,1.1l0,0H74.1C73.5,105.7,73,105.2,73,104.6z M103.9,88.1
					c0-0.6,0.5-1.1,1.1-1.1h7c0.6-0.1,1.2,0.4,1.2,1c0.1,0.6-0.4,1.2-1,1.2c-0.1,0-0.1,0-0.2,0h-7C104.4,89.2,103.9,88.7,103.9,88.1
					L103.9,88.1z M88.6,78.9H112c0.6-0.1,1.2,0.4,1.2,1s-0.4,1.2-1,1.2c-0.1,0-0.1,0-0.2,0H88.6c-0.6,0.1-1.2-0.4-1.2-1
					c-0.1-0.6,0.4-1.2,1-1.2C88.5,78.8,88.6,78.8,88.6,78.9z M73.2,87.3c0.2-0.2,0.6-0.3,0.9-0.3h26.6c0.6-0.1,1.2,0.4,1.2,1
					c0.1,0.6-0.4,1.2-1,1.2c-0.1,0-0.1,0-0.2,0H74.1c-0.6,0.2-1.2-0.2-1.3-0.7C72.6,88,72.8,87.6,73.2,87.3z M102.6,130.3h-29
					c-0.6-0.2-1-0.8-0.8-1.4c0.1-0.4,0.4-0.7,0.8-0.8h29c0.4,0.1,0.7,0.4,0.8,0.8C103.6,129.5,103.3,130.1,102.6,130.3
					C102.6,130.3,102.6,130.3,102.6,130.3z"/>
				<path class="st1" d="M122.3,101.2c-8.2,0-14.8,6.6-14.8,14.9s6.6,14.8,14.9,14.8s14.8-6.6,14.8-14.9
					C137.2,107.8,130.5,101.2,122.3,101.2C122.3,101.1,122.3,101.1,122.3,101.2z M119.8,123.5l-6.4-6.4l3.5-3.5
					c0.9,0.9,1.9,2,2.9,3.1l8.1-8.2l3.4,3.4L119.8,123.5z"/>
			</g>
		</g>
	</g>
</g>
</svg>
