<?xml version="1.0" encoding="utf-8"?>
<!-- Generator: Adobe Illustrator 26.4.1, SVG Export Plug-In . SVG Version: 6.00 Build 0)  -->
<svg version="1.1" id="Layer_1" xmlns="http://www.w3.org/2000/svg" xmlns:xlink="http://www.w3.org/1999/xlink" x="0px" y="0px"
	 viewBox="0 0 200 200" style="enable-background:new 0 0 200 200;" xml:space="preserve">
<style type="text/css">
	.st0{fill:#0067FB;}
</style>
<g>
	<g>
		<path class="st0" d="M100.1,172.7c-1,0-2,0-2.9-0.1c-40.1-1.6-71.4-35.5-69.8-75.5c0.8-19.4,9-37.4,23.3-50.5
			c14.3-13.2,32.8-20,52.2-19.2c40.1,1.6,71.4,35.5,69.8,75.5c-0.8,19.4-9,37.4-23.3,50.5C135.8,165.9,118.4,172.7,100.1,172.7z
			 M99.9,31.3c-17.3,0-33.8,6.4-46.6,18.2C39.9,62,32.1,78.9,31.3,97.3c-1.5,37.9,28.1,69.9,65.9,71.4c18.3,0.7,35.9-5.7,49.3-18.2
			c13.5-12.5,21.3-29.4,22-47.8c1.5-37.9-28.1-69.9-65.9-71.4C101.8,31.3,100.9,31.3,99.9,31.3z"/>
	</g>
	<g>
		<g>
			<g>
				<path class="st0" d="M116.5,130.7H66.8c-3.3,0-5.9-2.7-5.9-5.9v-23.8c0-0.8,0.7-1.5,1.5-1.5s1.5,0.7,1.5,1.5v23.8
					c0,1.6,1.3,2.9,2.9,2.9h49.7c0.8,0,1.5,0.7,1.5,1.5S117.4,130.7,116.5,130.7z"/>
			</g>
			<g>
				<path class="st0" d="M130.1,130.7h-14.3c-0.8,0-1.5-0.7-1.5-1.5s0.7-1.5,1.5-1.5h14.3c1.6,0,2.9-1.3,2.9-2.9v-23.8
					c0-0.8,0.7-1.5,1.5-1.5s1.5,0.7,1.5,1.5v23.8C136,128.1,133.3,130.7,130.1,130.7z"/>
			</g>
			<g>
				<path class="st0" d="M85.4,102c-0.1,0-0.2,0-0.4,0l-19.8-5c-2.5-0.6-4.3-2.9-4.3-5.5v-9c0-3.3,2.7-5.9,5.9-5.9h63.6
					c3.3,0,5.9,2.7,5.9,5.9v9c0,2.6-1.8,4.9-4.3,5.5l-18,4.5c-0.8,0.2-1.6-0.3-1.8-1.1c-0.2-0.8,0.3-1.6,1.1-1.8l18-4.5
					c1.2-0.3,2-1.4,2-2.6v-9c0-1.6-1.3-2.9-2.9-2.9H66.8c-1.6,0-2.9,1.3-2.9,2.9v9c0,1.2,0.8,2.3,2,2.6l19.8,5
					c0.8,0.2,1.3,1,1.1,1.8C86.6,101.5,86,102,85.4,102z"/>
			</g>
		</g>
		<g>
			<path class="st0" d="M110.3,74c-0.8,0-1.5-0.7-1.5-1.5v-2c0-1.2-1-2.2-2.2-2.2H89.4c-1.2,0-2.2,1-2.2,2.2v2
				c0,0.8-0.7,1.5-1.5,1.5s-1.5-0.7-1.5-1.5v-2c0-2.8,2.3-5.2,5.2-5.2h17.2c2.8,0,5.2,2.3,5.2,5.2v2C111.8,73.3,111.1,74,110.3,74z"
				/>
		</g>
		<g>
			<g>
				<path class="st0" d="M108.5,93.5h-3.5c-0.4,0-0.8-0.3-0.8-0.8s0.3-0.8,0.8-0.8h2.8v-2.7c0-0.4,0.3-0.8,0.8-0.8s0.8,0.3,0.8,0.8
					v3.5C109.2,93.2,108.9,93.5,108.5,93.5z"/>
			</g>
			<g>
				<path class="st0" d="M91.6,118.3c-0.4,0-0.8-0.3-0.8-0.8V114c0-0.4,0.3-0.8,0.8-0.8h3.5c0.4,0,0.8,0.3,0.8,0.8s-0.3,0.8-0.8,0.8
					h-2.8v2.7C92.4,117.9,92,118.3,91.6,118.3z"/>
			</g>
			<g>
				<g>
					<path class="st0" d="M100,108.1c-2.6,0-4.7-2.1-4.7-4.7c0-2.6,2.1-4.7,4.7-4.7c2.6,0,4.7,2.1,4.7,4.7
						C104.7,106,102.6,108.1,100,108.1z M100,100.3c-1.7,0-3.2,1.4-3.2,3.2s1.4,3.2,3.2,3.2c1.7,0,3.2-1.4,3.2-3.2
						S101.7,100.3,100,100.3z"/>
				</g>
				<g>
					<path class="st0" d="M99.3,113.5c-0.9,0-1.5-0.6-1.5-1.5c0-0.4-0.2-0.8-0.4-1c-0.3-0.2-0.6-0.4-1-0.4c-0.3,0-0.6,0.1-0.9,0.4
						c-0.7,0.7-1.5,0.7-2.2,0l-0.9-0.9c-0.7-0.7-0.7-1.5,0-2.2c0.3-0.4,0.5-0.9,0.3-1.3c-0.1-0.5-0.5-0.8-1-0.9c-0.1,0-0.3,0-0.4,0
						c-0.8,0-1.4-0.6-1.4-1.4c0-0.5,0-1,0-1.4c0-0.9,0.6-1.5,1.5-1.5c0.8,0,1.4-0.6,1.4-1.4c0-0.4-0.1-0.7-0.4-0.9
						c-0.7-0.7-0.6-1.5,0-2.2l0.2-0.3c0.2-0.2,0.5-0.5,0.7-0.7c0.2-0.2,0.3-0.2,0.5-0.3l0.1-0.1c0.2-0.1,0.3-0.1,0.5-0.1
						c0.5,0.1,0.7,0.3,1,0.5c0.4,0.3,0.9,0.5,1.3,0.3c0.5-0.1,0.8-0.5,0.9-1c0-0.1,0-0.3,0-0.4c0-0.8,0.6-1.4,1.4-1.4
						c0.4,0,0.8,0,1.2,0l0.2,0c0.9,0,1.5,0.6,1.5,1.5c0,0.4,0.2,0.7,0.4,1c0.3,0.2,0.6,0.4,1,0.4c0.4,0,0.7-0.1,0.9-0.4
						c0.7-0.7,1.5-0.6,2.2,0l0.9,0.9c0.6,0.6,0.6,1.4,0,2.1c-0.4,0.5-0.5,0.9-0.3,1.5c0.2,0.6,0.6,0.8,1.3,0.8
						c0.8,0,1.4,0.6,1.4,1.5c0,0.5,0,0.9,0,1.4c0,0.9-0.6,1.5-1.4,1.5c-0.6,0-1.1,0.3-1.3,0.8c-0.2,0.6-0.1,1,0.3,1.5
						c0.6,0.6,0.6,1.5,0,2.1c-0.3,0.3-0.6,0.6-1,1c-0.6,0.6-1.4,0.6-2.1,0c-0.5-0.5-0.9-0.5-1.5-0.3c-0.6,0.2-0.8,0.6-0.8,1.3
						c0,0.9-0.6,1.5-1.5,1.5L99.3,113.5z M99.3,112l1.4,0c0.1-1.3,0.7-2.2,1.8-2.6c1.1-0.5,2.2-0.2,3.1,0.6c0,0,0,0,0,0
						c0.4-0.3,0.7-0.6,1-1c0,0,0,0,0,0c-0.9-1-1.1-2.1-0.6-3.1c0.5-1.1,1.4-1.7,2.6-1.8c0-0.5,0-0.9,0-1.4c-1.2,0-2.2-0.6-2.6-1.7
						c-0.5-1.1-0.2-2.2,0.6-3.1c0,0,0,0,0,0l-0.9-0.9c0,0,0,0-0.1,0c0,0,0,0,0,0c-0.5,0.5-1.2,0.8-1.9,0.8c-0.8,0-1.5-0.3-2-0.8
						c-0.6-0.5-0.9-1.3-0.9-2c0,0,0,0,0,0c0,0,0,0,0,0l-0.2,0c-0.4,0-0.8,0-1.1,0c0,0.2,0,0.4,0,0.7c-0.3,1-1,1.8-2,2
						c-1,0.3-2,0-2.8-0.7c0,0,0,0,0,0c0,0,0,0,0,0c-0.2,0.2-0.4,0.4-0.7,0.6l-0.3,0.3c0,0,0,0,0,0.1c0,0,0,0,0,0
						c0.5,0.5,0.8,1.2,0.8,1.9c0,1.6-1.2,2.9-2.8,2.9c0,0.5,0,1,0,1.4c0.2,0,0.4,0,0.7,0c1,0.3,1.8,1,2,2c0.3,1,0,2-0.7,2.8
						c0,0,0,0,0,0c0,0,0,0,0,0l0.9,0.9c0,0,0,0,0,0c0,0,0,0,0,0c0.5-0.5,1.2-0.8,1.9-0.8c0.8,0,1.5,0.3,2.1,0.8
						C99,110.5,99.3,111.2,99.3,112C99.3,112,99.3,112,99.3,112z M94.4,110L94.4,110L94.4,110z"/>
				</g>
			</g>
			<g>
				<path class="st0" d="M88.7,112c-0.2,0-0.5-0.1-0.6-0.3c-1.7-2.4-2.5-5.2-2.5-8.2c0-8,6.5-14.4,14.4-14.4c3.1,0,6.1,1,8.5,2.8
					c0.3,0.2,0.4,0.7,0.2,1c-0.2,0.3-0.7,0.4-1,0.2c-2.2-1.6-4.9-2.5-7.7-2.5c-7.1,0-12.9,5.8-12.9,12.9c0,2.6,0.8,5.2,2.3,7.3
					c0.2,0.3,0.1,0.8-0.2,1C89,111.9,88.9,112,88.7,112z"/>
			</g>
			<g>
				<path class="st0" d="M100,117.9c-3,0-5.8-0.9-8.3-2.6c-0.3-0.2-0.4-0.7-0.2-1c0.2-0.3,0.7-0.4,1-0.2c2.2,1.5,4.7,2.3,7.4,2.3
					c7.1,0,12.9-5.8,12.9-12.9c0-2.2-0.6-4.4-1.6-6.3c-0.2-0.4-0.1-0.8,0.3-1c0.4-0.2,0.8-0.1,1,0.3c1.2,2.1,1.8,4.6,1.8,7
					C114.4,111.4,108,117.9,100,117.9z"/>
			</g>
		</g>
	</g>
</g>
</svg>
