<?xml version="1.0" encoding="utf-8"?>
<!-- Generator: Adobe Illustrator 26.4.1, SVG Export Plug-In . SVG Version: 6.00 Build 0)  -->
<svg version="1.1" id="Layer_1" xmlns="http://www.w3.org/2000/svg" xmlns:xlink="http://www.w3.org/1999/xlink" x="0px" y="0px"
	 viewBox="0 0 200 200" style="enable-background:new 0 0 200 200;" xml:space="preserve">
<style type="text/css">
	.st0{fill:#0067FB;}
	.st1{fill:none;stroke:#0067FB;stroke-width:4;stroke-linecap:round;stroke-linejoin:round;stroke-miterlimit:10;}
</style>
<g>
	<g>
		<path class="st0" d="M100,172.7c-1,0-1.9,0-2.9-0.1c-40.1-1.6-71.4-35.5-69.8-75.5c0.8-19.4,9-37.4,23.3-50.5
			c14.3-13.2,32.8-20,52.2-19.2c19.4,0.8,37.4,9,50.5,23.3s20,32.8,19.2,52.2l0,0C171.1,142,138.8,172.7,100,172.7z M99.9,31.3
			c-17.3,0-33.8,6.4-46.6,18.2C39.9,62,32.1,78.9,31.3,97.3c-0.7,18.3,5.7,35.9,18.2,49.3c12.5,13.5,29.4,21.3,47.8,22
			c37.8,1.5,69.9-28.1,71.4-65.9l2,0.1l-2-0.1c0.7-18.3-5.7-35.9-18.2-49.3c-12.5-13.5-29.4-21.3-47.8-22
			C101.8,31.3,100.9,31.3,99.9,31.3z"/>
	</g>
	<g>
		<path class="st1" d="M128.1,80"/>
	</g>
	<g>
		<path class="st0" d="M66.2,136c-0.5,0-1-0.2-1.4-0.6c-0.8-0.8-0.8-2,0-2.8l14.8-14.8c0.8-0.8,2-0.8,2.8,0s0.8,2,0,2.8l-14.8,14.8
			C67.3,135.8,66.8,136,66.2,136z"/>
	</g>
	<g>
		<path class="st0" d="M118.3,83.9c-0.5,0-1-0.2-1.4-0.6c-0.8-0.8-0.8-2,0-2.8l14.7-14.7c0.8-0.8,2-0.8,2.8,0c0.8,0.8,0.8,2,0,2.8
			l-14.7,14.7C119.3,83.7,118.8,83.9,118.3,83.9z"/>
	</g>
	<g>
		<path class="st0" d="M133,86.4c-1.1,0-2-0.9-2-2V69.2h-14.7c-1.1,0-2-0.9-2-2s0.9-2,2-2H133c1.1,0,2,0.9,2,2v17.1
			C135,85.5,134.1,86.4,133,86.4z"/>
	</g>
	<g>
		<g>
			<path class="st0" d="M100,122.2c-12.3,0-22.2-10-22.2-22.2s10-22.2,22.2-22.2s22.2,10,22.2,22.2S112.3,122.2,100,122.2z
				 M100,80.3c-10.9,0-19.7,8.8-19.7,19.7c0,10.9,8.8,19.7,19.7,19.7c10.9,0,19.7-8.8,19.7-19.7C119.7,89.1,110.9,80.3,100,80.3z"/>
		</g>
		<g>
			<path class="st0" d="M121,101.2H79c-0.7,0-1.2-0.6-1.2-1.2s0.6-1.2,1.2-1.2H121c0.7,0,1.2,0.6,1.2,1.2S121.7,101.2,121,101.2z"/>
		</g>
		<g>
			<path class="st0" d="M118.2,91.9c-0.2,0-0.3,0-0.5-0.1c-18.3-7.1-35.9-0.1-36,0c-0.6,0.3-1.4,0-1.6-0.7c-0.3-0.6,0-1.4,0.7-1.6
				c0.8-0.3,18.6-7.5,37.9,0c0.6,0.2,1,1,0.7,1.6C119.2,91.6,118.7,91.9,118.2,91.9z"/>
		</g>
		<g>
			<path class="st0" d="M99.5,114.3c-10.8,0-17.9-2.8-18.3-2.9c-0.6-0.3-1-1-0.7-1.6c0.3-0.6,1-1,1.6-0.7c0.2,0.1,15.9,6.1,35.7,0
				c0.7-0.2,1.4,0.2,1.6,0.8c0.2,0.7-0.2,1.4-0.8,1.6C111.5,113.5,105,114.3,99.5,114.3z"/>
		</g>
		<g>
			<path class="st0" d="M106.3,121c-0.3,0-0.6-0.1-0.8-0.3c-0.5-0.5-0.6-1.2-0.1-1.8l0,0c0.5-0.6,13.1-15.6-0.1-37.9
				c-0.4-0.6-0.2-1.4,0.4-1.7s1.4-0.2,1.7,0.4c14.2,23.9,0,40.7-0.1,40.8C107,120.9,106.7,121,106.3,121z"/>
		</g>
		<g>
			<path class="st0" d="M93.7,121c-0.4,0-0.8-0.2-1.1-0.6c-14.2-23.9,0-40.7,0.1-40.8c0.5-0.5,1.2-0.6,1.8-0.1
				c0.5,0.5,0.6,1.2,0.1,1.8l0,0c-0.5,0.6-13.1,15.6,0.1,37.9c0.4,0.6,0.2,1.4-0.4,1.7C94.1,120.9,93.9,121,93.7,121z"/>
		</g>
		<g>
			<path class="st0" d="M99.9,122.2c-0.7,0-1.2-0.6-1.2-1.2V79c0-0.7,0.6-1.2,1.2-1.2s1.3,0.6,1.3,1.2V121
				C101.2,121.7,100.6,122.2,99.9,122.2z"/>
		</g>
	</g>
</g>
</svg>
