<?xml version="1.0" encoding="utf-8"?>
<!-- Generator: Adobe Illustrator 26.4.1, SVG Export Plug-In . SVG Version: 6.00 Build 0)  -->
<svg version="1.1" id="Layer_1" xmlns="http://www.w3.org/2000/svg" xmlns:xlink="http://www.w3.org/1999/xlink" x="0px" y="0px"
	 viewBox="0 0 200 200" style="enable-background:new 0 0 200 200;" xml:space="preserve">
<style type="text/css">
	.st0{fill:#0067FB;}
</style>
<g>
	<g>
		<path class="st0" d="M100,172.7c-40.1,0-72.7-32.6-72.7-72.7S59.9,27.3,100,27.3s72.7,32.6,72.7,72.7S140.1,172.7,100,172.7z
			 M100,31.3c-37.9,0-68.7,30.8-68.7,68.7c0,37.9,30.8,68.7,68.7,68.7c37.9,0,68.7-30.8,68.7-68.7C168.7,62.1,137.9,31.3,100,31.3z"
			/>
	</g>
	<g>
		<g>
			<g>
				<path class="st0" d="M100.1,140.3c-0.2,0-0.4-0.1-0.6-0.2l-27.4-15.6c-0.4-0.2-0.7-0.7-0.6-1.2c0-0.5,0.3-0.9,0.8-1.1l8.3-3.5
					c0.6-0.3,1.4,0,1.6,0.7c0.3,0.6,0,1.4-0.7,1.6l-6,2.5l24.6,14l25.2-14l-6.1-2.5c-0.6-0.3-0.9-1-0.7-1.6c0.3-0.6,1-0.9,1.6-0.7
					l8.4,3.5c0.4,0.2,0.7,0.6,0.8,1.1c0,0.5-0.2,0.9-0.6,1.2l-28.1,15.6C100.5,140.2,100.3,140.3,100.1,140.3z"/>
			</g>
			<g>
				<path class="st0" d="M100.1,132.1c-0.2,0-0.4-0.1-0.6-0.2l-27.4-15.6c-0.4-0.2-0.7-0.7-0.6-1.2c0-0.5,0.3-0.9,0.8-1.1l8.1-3.4
					c0.6-0.3,1.4,0,1.6,0.7c0.3,0.6,0,1.4-0.7,1.6l-5.8,2.4l24.6,14l25.2-14l-5.9-2.5c-0.6-0.3-0.9-1-0.7-1.6c0.3-0.6,1-0.9,1.6-0.7
					l8.3,3.5c0.4,0.2,0.7,0.6,0.8,1.1c0,0.5-0.2,0.9-0.6,1.2l-28.1,15.6C100.5,132,100.3,132.1,100.1,132.1z"/>
			</g>
			<g>
				<path class="st0" d="M100.1,124c-0.2,0-0.4-0.1-0.6-0.2l-27.4-15.6c-0.4-0.2-0.7-0.7-0.6-1.2c0-0.5,0.3-0.9,0.8-1.1l8.3-3.5
					c0.6-0.3,1.4,0,1.6,0.7c0.3,0.6,0,1.4-0.7,1.6l-6,2.5l24.6,14l25.2-14l-6.1-2.5c-0.6-0.3-0.9-1-0.7-1.6c0.3-0.6,1-0.9,1.6-0.7
					l8.4,3.5c0.4,0.2,0.7,0.6,0.8,1.1c0,0.5-0.2,0.9-0.6,1.2l-28.1,15.6C100.5,124,100.3,124,100.1,124z"/>
			</g>
			<g>
				<path class="st0" d="M100.1,115.8c-0.2,0-0.4-0.1-0.6-0.2l-24.9-14.1c-0.6-0.3-0.8-1.1-0.5-1.7c0.3-0.6,1.1-0.8,1.7-0.5
					l24.3,13.8l24.3-13.5c0.6-0.3,1.4-0.1,1.7,0.5c0.3,0.6,0.1,1.4-0.5,1.7l-25,13.8C100.5,115.8,100.3,115.8,100.1,115.8z"/>
			</g>
		</g>
		<g>
			<g>
				<path class="st0" d="M133.9,98.6c-0.5,0-1-0.1-1.5-0.3l-20.6-7.3c-0.8-0.3-1.6-0.1-2.3,0.4c-2.8,2.3-6.5,2.9-9.9,1.7
					c-3.4-1.2-5.9-4.1-6.6-7.6c-0.1-0.3,0-0.6,0.3-0.8c0.2-0.2,0.6-0.3,0.8-0.2l6.2,2.2c0.7,0.3,1.5-0.1,1.8-0.9l1.7-4.9
					c0.3-0.7-0.1-1.5-0.9-1.8l-6.2-2.2c-0.3-0.1-0.5-0.4-0.6-0.7c-0.1-0.3,0.1-0.6,0.3-0.8c2.8-2.3,6.6-3,10-1.8l0,0
					c3.4,1.2,5.9,4,6.6,7.5c0.2,0.8,0.8,1.5,1.5,1.8l20.7,7.3c1.1,0.4,1.9,1.2,2.4,2.2s0.5,2.2,0.1,3.2
					C137.2,97.6,135.6,98.6,133.9,98.6z M111.1,89.3c0.5,0,0.9,0.1,1.3,0.2l20.6,7.3c1.3,0.5,2.8-0.2,3.3-1.4
					c0.2-0.6,0.2-1.3-0.1-1.9c-0.3-0.6-0.8-1.1-1.4-1.3l-20.7-7.3c-1.3-0.5-2.3-1.6-2.6-3c-0.6-2.9-2.7-5.3-5.5-6.3l0,0
					c-2.4-0.8-4.9-0.6-7,0.6l4.6,1.6c1.6,0.6,2.5,2.3,1.9,4l-1.7,4.9c-0.6,1.6-2.3,2.5-4,1.9l-4.6-1.6c0.9,2.3,2.7,4,5.1,4.8
					c2.8,1,5.9,0.5,8.2-1.4C109.3,89.6,110.2,89.3,111.1,89.3z"/>
			</g>
			<g>
				<g>
					<path class="st0" d="M95.7,105.6c-0.4,0-0.9-0.1-1.4-0.3c-0.9-0.3-1.9-0.7-2.8-1c-1.8-0.6-2.5-2.1-1.9-3.9
						c0.4-1.4,0.1-2.8-0.8-3.8c-0.9-1-2.3-1.5-3.6-1.2c-0.3,0.1-0.7,0.2-1.1,0.4c-1.5,0.6-3.1,0.1-3.8-1.4c-0.5-1-1-2-1.5-3.1
						c-0.8-1.6-0.2-3.2,1.4-4c2-1,2.8-3.3,1.8-5.2c-0.5-0.9-1.1-1.5-2.1-1.9c-1.9-0.7-2.5-2.1-1.8-4l0.3-0.8
						c0.3-0.7,0.5-1.5,0.8-2.2c0.2-0.4,0.4-0.8,0.7-1.1c0.1-0.1,0.1-0.2,0.2-0.3c0.2-0.2,0.4-0.4,0.7-0.5c0.9-0.3,1.7-0.1,2.3,0.1
						c1.3,0.4,2.7,0.1,3.8-0.8c1-0.9,1.5-2.3,1.2-3.6c-0.1-0.3-0.2-0.7-0.4-1.1c-0.6-1.5-0.1-3,1.4-3.8c0.8-0.4,1.5-0.7,2.3-1.1
						l0.7-0.3c1.7-0.8,3.2-0.3,4.1,1.4c0.5,1,1.3,1.7,2.3,2c1,0.3,2,0.2,2.9-0.2c0.9-0.5,1.5-1.1,1.9-2.1c0.7-1.9,2.1-2.5,4-1.8
						l0.9,0.3c0.7,0.2,1.4,0.5,2.1,0.7c1.7,0.6,2.4,2,1.8,3.8c-0.5,1.7-0.2,3.1,1,4.2c1.3,1.1,2.7,1.3,4.3,0.6
						c1.6-0.7,3.1-0.1,3.9,1.4c0.5,1,1,2,1.5,3.1c0.7,1.6,0.2,3.1-1.3,3.9c-1.6,0.8-2.3,2-2.2,3.7c0,0.7-0.5,1.2-1.2,1.3
						c-0.7,0-1.2-0.5-1.3-1.2c-0.1-2.6,1.1-4.7,3.6-6c0.4-0.2,0.4-0.3,0.3-0.7c-0.5-1-1-2-1.4-3c-0.2-0.4-0.3-0.4-0.7-0.3
						c-2.5,1.1-4.9,0.8-6.9-1c-2-1.8-2.6-4.1-1.7-6.7c0.2-0.5,0.1-0.6-0.4-0.7c-0.7-0.2-1.4-0.5-2-0.7l-0.9-0.3
						c-0.7-0.2-0.7-0.2-1,0.4c-0.6,1.5-1.6,2.6-3,3.4c-1.5,0.8-3.2,0.9-4.8,0.4c-1.6-0.5-2.9-1.7-3.7-3.2c-0.3-0.5-0.4-0.5-0.9-0.3
						l-0.7,0.3c-0.8,0.4-1.5,0.7-2.3,1.1c-0.2,0.1-0.4,0.3-0.2,0.6c0.2,0.5,0.4,1,0.5,1.5c0.4,2.2-0.3,4.4-2,5.9
						c-1.7,1.5-4,2-6.1,1.3c-0.2-0.1-0.4-0.1-0.6-0.1c-0.1,0.2-0.3,0.3-0.3,0.4c-0.3,0.7-0.5,1.4-0.8,2.1L80.5,77
						c-0.2,0.7-0.2,0.7,0.4,1c1.5,0.6,2.7,1.6,3.4,3.1c1.6,3.1,0.3,6.8-2.9,8.4c-0.4,0.2-0.5,0.4-0.3,0.8c0.5,1.1,1,2.1,1.5,3.1
						c0.1,0.2,0.3,0.4,0.7,0.2c0.4-0.2,1-0.4,1.5-0.5c2.2-0.4,4.4,0.3,5.9,2c1.5,1.7,2,4,1.3,6.2c-0.2,0.6-0.2,0.7,0.4,0.9
						c0.9,0.3,1.9,0.7,2.8,1c0.7,0.2,0.7,0.2,1-0.4c0.6-1.5,1.6-2.6,3-3.3c1.5-0.8,3.2-0.9,4.8-0.4c1.6,0.5,2.9,1.7,3.7,3.3
						c0.2,0.4,0.3,0.5,0.8,0.3c1-0.5,2-0.9,2.9-1.4c0.4-0.2,0.5-0.3,0.3-0.8c-1.1-2.5-0.8-4.9,1-6.9c0.4-0.5,1.2-0.5,1.7-0.1
						c0.5,0.4,0.5,1.2,0.1,1.7c-1.1,1.3-1.3,2.7-0.6,4.3c0.7,1.6,0.1,3.2-1.5,3.9c-1,0.5-2,0.9-3,1.4c-1.6,0.8-3.2,0.2-4-1.4
						c-0.5-1-1.3-1.7-2.3-2c-1-0.3-2-0.2-3,0.3c-0.9,0.4-1.5,1.1-1.8,2.1C97.8,104.8,96.9,105.6,95.7,105.6z"/>
				</g>
			</g>
			<g>
				
					<rect x="96.7" y="80.3" transform="matrix(0.9428 0.3333 -0.3333 0.9428 33.1467 -28.2337)" class="st0" width="4.4" height="4.4"/>
			</g>
		</g>
	</g>
</g>
</svg>
