<?xml version="1.0" encoding="utf-8"?>
<!-- Generator: Adobe Illustrator 26.4.1, SVG Export Plug-In . SVG Version: 6.00 Build 0)  -->
<svg version="1.1" id="Layer_1" xmlns="http://www.w3.org/2000/svg" xmlns:xlink="http://www.w3.org/1999/xlink" x="0px" y="0px"
	 viewBox="0 0 200 200" style="enable-background:new 0 0 200 200;" xml:space="preserve">
<style type="text/css">
	.st0{fill:#0067FB;}
</style>
<g>
	<g>
		<path class="st0" d="M100,172.7c-40.1,0-72.7-32.6-72.7-72.7S59.9,27.3,100,27.3s72.7,32.6,72.7,72.7S140.1,172.7,100,172.7z
			 M100,31.3c-37.9,0-68.7,30.8-68.7,68.7c0,37.9,30.8,68.7,68.7,68.7c37.9,0,68.7-30.8,68.7-68.7C168.7,62.1,137.9,31.3,100,31.3z"
			/>
	</g>
	<g>
		<g>
			<g>
				<path class="st0" d="M100,121.5c-11.9,0-21.5-9.7-21.5-21.5s9.7-21.5,21.5-21.5s21.5,9.7,21.5,21.5S111.9,121.5,100,121.5z
					 M100,81c-10.5,0-19,8.5-19,19s8.5,19,19,19s19-8.5,19-19S110.5,81,100,81z"/>
			</g>
		</g>
		<g>
			<path class="st0" d="M97.4,106.7C97.4,106.7,97.4,106.6,97.4,106.7c-0.4,0-0.7-0.2-0.9-0.4l-4.1-4.7c-0.5-0.5-0.4-1.3,0.1-1.8
				c0.5-0.5,1.3-0.4,1.8,0.1l3.3,3.7L109,93.1c0.5-0.5,1.3-0.4,1.8,0.1c0.5,0.5,0.4,1.3-0.1,1.8l-12.4,11.4
				C98,106.5,97.7,106.7,97.4,106.7z"/>
		</g>
	</g>
	<g>
		<g>
			<g>
				<path class="st0" d="M132.7,141.8c-8.2,0-14.9-6.7-14.9-14.8s6.7-14.8,14.9-14.8s14.8,6.7,14.8,14.8S140.9,141.8,132.7,141.8z
					 M132.7,114.7c-6.8,0-12.4,5.5-12.4,12.3s5.5,12.3,12.4,12.3c6.8,0,12.3-5.5,12.3-12.3S139.5,114.7,132.7,114.7z"/>
			</g>
		</g>
	</g>
	<g>
		<path class="st0" d="M100,143.5c-24,0-43.5-19.5-43.5-43.5c0-24,19.5-43.5,43.5-43.5c24,0,43.5,19.5,43.5,43.5
			c0,5.2-0.9,10.2-2.7,15c-0.2,0.6-1,1-1.6,0.7c-0.6-0.2-1-1-0.7-1.6c1.7-4.5,2.5-9.3,2.5-14.2c0-22.6-18.4-41-41-41s-41,18.4-41,41
			s18.4,41,41,41c7.3,0,14.5-2,20.9-5.7c0.6-0.3,1.4-0.1,1.7,0.4s0.2,1.4-0.4,1.7C115.4,141.4,107.7,143.5,100,143.5z"/>
	</g>
	<g>
		<g>
			<path class="st0" d="M135.9,132c-0.3,0-0.6-0.1-0.9-0.4l-7.5-7.5c-0.5-0.5-0.5-1.3,0-1.8s1.3-0.5,1.8,0l7.5,7.5
				c0.5,0.5,0.5,1.3,0,1.8C136.5,131.8,136.2,132,135.9,132z"/>
		</g>
		<g>
			<path class="st0" d="M128.5,132c-0.3,0-0.6-0.1-0.9-0.4c-0.5-0.5-0.5-1.3,0-1.8l7.4-7.5c0.5-0.5,1.3-0.5,1.8,0
				c0.5,0.5,0.5,1.3,0,1.8l-7.4,7.5C129.1,131.9,128.8,132,128.5,132z"/>
		</g>
	</g>
</g>
</svg>
