<?xml version="1.0" encoding="utf-8"?>
<!-- Generator: Adobe Illustrator 26.0.3, SVG Export Plug-In . SVG Version: 6.00 Build 0)  -->
<svg version="1.1" id="Layer_1" xmlns="http://www.w3.org/2000/svg" xmlns:xlink="http://www.w3.org/1999/xlink" x="0px" y="0px"
	 viewBox="0 0 200 200" style="enable-background:new 0 0 200 200;" xml:space="preserve">
<style type="text/css">
	.st0{clip-path:url(#SVGID_00000085933541927785851180000011097458290654635684_);}
	.st1{fill:#ff7271;}
</style>
<g id="Layer_2_00000126322218341237688070000010541088332428037306_">
	<g id="Layer_1-2">
		<g>
			<defs>
				<rect id="SVGID_1_" x="0" y="0" width="200" height="200"/>
			</defs>
			<clipPath id="SVGID_00000072263803212204631020000000351186331792236674_">
				<use xlink:href="#SVGID_1_"  style="overflow:visible;"/>
			</clipPath>
			<g style="clip-path:url(#SVGID_00000072263803212204631020000000351186331792236674_);">
				<g id="Group_80">
					<path id="Path_56" class="st1" d="M100,172.7c-40.2,0-72.7-32.5-72.7-72.7S59.8,27.3,100,27.3s72.7,32.5,72.7,72.7
						S140.2,172.7,100,172.7L100,172.7z M100,31.3c-37.9,0-68.7,30.8-68.7,68.7s30.8,68.7,68.7,68.7s68.7-30.8,68.7-68.7
						S137.9,31.3,100,31.3C100,31.3,100,31.3,100,31.3z"/>
				</g>
				<path class="st1" d="M104.1,113.8c2.6-1.2,5.3-1.9,8.1-2.3c1.4-0.2,2.8-0.3,4.3-0.5c0.2,0,0.3-0.1,0.7-0.1
					c-2.2-0.9-4-2.4-5.2-4.5c-2.6-4.5-3.2-9.2-1.1-14.1c0.4-0.8,0.6-1.6,0.6-2.5c0-9.7,0-19.4,0-29.1H60.8v73.3h37.5v-0.8
					c0-3.4,0.1-6.9,0-10.3C98.1,118.5,100.3,115.6,104.1,113.8z M90,125.7H68.3c-0.3,0-0.6,0-0.9-0.1c-0.6-0.1-1.1-0.7-1-1.4
					c0-0.6,0.5-1.1,1.2-1.2c0.2,0,0.5,0,0.7,0h10.7c3.7,0,7.3,0,11,0c0.7-0.1,1.4,0.4,1.5,1.2c0,0,0,0.1,0,0.1
					C91.4,125.1,90.8,125.7,90,125.7C90,125.7,90,125.7,90,125.7z M90.4,118c-0.3,0-0.6,0-0.8,0H68.3c-0.3,0-0.6,0-0.8,0
					c-0.6-0.1-1.1-0.7-1.1-1.3c0-0.6,0.5-1.2,1.1-1.2c0.3,0,0.6,0,0.8,0h21c0.3,0,0.6,0,0.8,0c0.6,0.1,1.1,0.6,1.1,1.2
					C91.4,117.3,91,117.9,90.4,118L90.4,118z M67.4,107.8c0.3-0.1,0.6-0.1,0.9-0.1c7.1,0,14.2,0,21.4,0c0.3,0,0.6,0,0.8,0.1
					c0.7,0.2,1.1,0.8,1,1.5c-0.1,0.5-0.6,0.9-1.1,1c-0.4,0-0.8,0-1.2,0H68.4c-0.3,0-0.6,0-0.9,0c-0.7-0.1-1.2-0.8-1-1.5
					C66.5,108.3,66.9,107.9,67.4,107.8L67.4,107.8z M94.1,78c-1.7,0-3.3-0.1-5,0c-1.7,0.2-3.2,1.2-4.1,2.6c-1,1.4-1.9,2.9-2.8,4.3
					c-0.1,0.2-0.1,0.5,0,0.7c1,1.6,2,3.2,3.1,4.7c1.1,1.6,2.9,2.4,4.8,2.3c1.3,0,2.6,0,4,0l0.2-0.2c-0.7-0.6-1.3-1.2-2-1.8
					c-0.7-0.6-0.8-1.4-0.2-2c0.6-0.6,1.3-0.5,2.1,0.2c1.3,1.3,2.7,2.7,4,4.1c0.6,0.4,0.7,1.3,0.3,1.9c-0.1,0.1-0.2,0.2-0.3,0.3
					c-1.3,1.4-2.7,2.8-4.1,4.1c-0.7,0.7-1.4,0.8-2,0.2s-0.5-1.3,0.2-2s1.2-1.2,1.7-1.7l0.1-0.2c-0.2,0-0.4-0.1-0.6-0.1
					c-1.1,0-2.2,0-3.4,0c-2.7,0.1-5.4-1.1-7-3.3c-0.8-1.1-1.5-2.2-2.3-3.3l-0.6-0.8c-0.6,0.9-1.1,1.8-1.7,2.6
					c-0.6,0.9-1.3,1.7-2,2.5c-1.4,1.6-3.5,2.4-5.6,2.4H68c-1,0-1.6-0.5-1.6-1.3s0.6-1.4,1.6-1.4c1,0,1.9,0,2.9,0
					c1.8,0.1,3.5-0.7,4.5-2.1c1.2-1.6,2.2-3.3,3.3-5c0.1-0.2,0.1-0.4,0-0.5c-1.2-1.7-2.3-3.5-3.5-5.2c-1-1.3-2.6-2-4.2-1.8
					c-1,0-2.1,0-3.1,0s-1.5-0.5-1.5-1.3c0-0.7,0.5-1.3,1.2-1.3c0.1,0,0.1,0,0.2,0c1.5-0.1,3,0,4.5,0.1c2.4,0.4,4.4,1.7,5.7,3.8
					c0.8,1.2,1.6,2.4,2.4,3.6c0.6-0.9,1.1-1.9,1.7-2.7c0.7-1,1.5-1.9,2.3-2.8c1.4-1.3,3.3-2.1,5.2-2c1.4,0,2.9,0,4.5,0
					c-0.2-0.2-0.3-0.4-0.4-0.5c-0.6-0.6-1.2-1.2-1.8-1.8c-0.5-0.5-0.4-1.3,0.1-1.7c0.5-0.5,1.2-0.5,1.7-0.1c1.6,1.5,3.1,3.1,4.7,4.7
					c0.5,0.5,0.4,1.3-0.1,1.7c0,0,0,0,0,0C97,79,95.5,80.5,94,82c-0.5,0.5-1.3,0.5-1.8,0c-0.5-0.5-0.5-1.3,0-1.8
					c0.7-0.7,1.4-1.4,2.1-2L94.1,78z"/>
				<path class="st1" d="M133.8,115.6c-0.4-0.2-0.9-0.3-1.4-0.5c-7.1-2-14.6-2.2-21.8-0.7c-2.5,0.4-4.8,1.2-6.9,2.6
					c-1.8,1.2-2.9,3.2-2.8,5.3c0.1,5.3,0,10.7,0,16v0.8h6.7v-12.3c0-0.3,0-0.6,0.1-0.9c0.2-0.7,0.8-1.1,1.5-1c0.5,0.1,0.9,0.5,1,1
					c0,0.3,0.1,0.6,0.1,0.9v12.3h19.7v-0.9c0-3.9,0-7.7,0-11.6c0-0.3,0-0.6,0.1-0.9c0.2-0.7,0.9-1.1,1.6-0.8c0.5,0.1,0.8,0.6,0.9,1
					c0,0.3,0,0.6,0,0.8v12.3h6.7V121C138.5,118.1,136.4,116.6,133.8,115.6z"/>
				<path class="st1" d="M125.8,105.4c1.5-2.2,2.2-4.9,2.2-7.6c0-0.3,0-0.8-0.1-1.3c-0.1-3.2-2.4-5.9-5.6-6.5
					c-1.1-0.2-2.1-0.3-3.2-0.2c-3.2,0-5.9,2.2-6.6,5.3c-1,3.6-0.2,7.5,2,10.6C117.6,110,122.8,109.8,125.8,105.4z"/>
			</g>
		</g>
	</g>
</g>
</svg>
