<?xml version="1.0" encoding="utf-8"?>
<!-- Generator: Adobe Illustrator 26.0.3, SVG Export Plug-In . SVG Version: 6.00 Build 0)  -->
<svg version="1.1" id="Layer_1" xmlns="http://www.w3.org/2000/svg" xmlns:xlink="http://www.w3.org/1999/xlink" x="0px" y="0px"
	 viewBox="0 0 200 200" style="enable-background:new 0 0 200 200;" xml:space="preserve">
<style type="text/css">
	.st0{clip-path:url(#SVGID_00000062909738567043607010000015080685768714253747_);}
	.st1{fill:#0067FB;}
</style>
<g id="Layer_2_00000074418316746899974380000005980010846583490962_">
	<g id="Layer_1-2">
		<g>
			<defs>
				<rect id="SVGID_1_" x="0" y="0" width="200" height="200"/>
			</defs>
			<clipPath id="SVGID_00000046311081318205156460000004088650238145531019_">
				<use xlink:href="#SVGID_1_"  style="overflow:visible;"/>
			</clipPath>
			<g style="clip-path:url(#SVGID_00000046311081318205156460000004088650238145531019_);">
				<g id="Group_80">
					<path id="Path_56" class="st1" d="M100,172.7c-40.2,0-72.7-32.5-72.7-72.7S59.8,27.3,100,27.3s72.7,32.5,72.7,72.7
						S140.2,172.7,100,172.7L100,172.7z M100,31.3c-37.9,0-68.7,30.8-68.7,68.7s30.8,68.7,68.7,68.7s68.7-30.8,68.7-68.7
						S137.9,31.3,100,31.3C100,31.3,100,31.3,100,31.3z"/>
				</g>
				<path class="st1" d="M126,97.4c0-9.9,0-19.8,0-29.7c0-4.1-2.2-6.3-6.2-6.3c-12.1,0-24.2,0-36.3,0c-1.2-0.1-2.3,0.4-3.1,1.3
					c-3.3,3.4-6.7,6.8-10.2,10.1c-1,0.9-1.5,2.1-1.4,3.4c0.1,7.1,0.2,14.2,0.2,21.3c0,3.3-0.2,6.6-0.2,9.8c0,8.3,0,16.5,0,24.8
					c0,4.2,2.2,6.4,6.4,6.4h22.2c7.5,0,15,0,22.5,0c2.3,0,4.2-0.7,5.3-2.8c0.6-1.1,0.8-2.4,0.8-3.6C126,120.6,126,109,126,97.4z
					 M72.4,75.8c-0.7,0-1.4-0.2-1.3-1c0.3-0.5,0.7-0.9,1.3-0.9c2.1-0.1,4.2,0,6.3,0c2.1,0,2.5-0.4,2.5-2.6s0-4.1,0-6.2
					c0-0.8,0.1-1.5,1-1.4c0.4,0.1,0.9,0.9,0.9,1.3c0.1,2.3,0.1,4.7,0,7c0.1,2-1.5,3.7-3.5,3.7c-0.1,0-0.2,0-0.4,0
					c-1.1,0-2.3,0-3.4,0L72.4,75.8z M91.1,119.8H79.4c-1,0-1.8-0.8-1.8-1.8c0-1,0.8-1.8,1.8-1.8c0,0,0,0,0,0h11.8
					c1,0,1.8,0.8,1.8,1.8C92.9,119,92.1,119.7,91.1,119.8z M101.4,109c0,1-0.8,1.8-1.8,1.8l0,0H79.4c-1,0-1.8-0.8-1.8-1.8l0,0
					c0-1,0.8-1.8,1.8-1.8h20.2C100.5,107.2,101.3,108,101.4,109z M116.8,120.9c0,2.2,0,4.3,0,6.4c0.1,2.7-2,5-4.7,5.1
					c0,0-0.1,0-0.1,0c-2.7,0-4.8-2.2-4.8-4.9c0-0.1,0-0.1,0-0.2c0-4.1,0-8.3,0-12.4c-0.2-1.7,1.1-3.2,2.8-3.3
					c1.7-0.2,3.2,1.1,3.3,2.8c0,0.2,0,0.3,0,0.5c0,3.4,0,6.8,0,10.3c0,0.2,0,0.3,0,0.5v0.2c0,0.6-0.4,1-1,1l0,0c-0.6,0-1-0.4-1-1
					V123c0-0.3,0-0.6,0-0.9c0,0,0,0,0-0.1v-6.4c0-0.3,0-0.5,0-0.8v-0.4c0.1-0.6-0.4-1.2-1-1.2c-0.6-0.1-1.2,0.4-1.2,1
					c0,0.1,0,0.1,0,0.2v5.2c0,2.8,0,5.6,0,8.4c0.1,1.4,1.4,2.5,2.8,2.5c1.5,0,2.7-1.1,2.8-2.6c0.1-4.7,0.1-9.4,0-14.1
					c-0.2-2.4-2.3-4.2-4.7-4c0,0-0.1,0-0.1,0c-2.4,0.1-4.3,2.1-4.3,4.5c-0.1,3.5,0,6.9,0,10.4c0,0.4,0.1,0.8,0,1.1s-0.6,0.9-1,0.9
					c-0.4-0.1-0.8-0.5-0.9-0.9c0-4.1-0.2-8.2,0.1-12.3c0.2-3.4,3.5-5.8,7-5.6c3.3,0.3,5.9,3,6,6.3
					C116.9,116.4,116.8,118.6,116.8,120.9L116.8,120.9z M115.4,101.5H79.4c-1-0.1-1.7-0.9-1.7-1.9c0.1-0.9,0.8-1.6,1.7-1.7h36.1
					c1,0.1,1.7,0.9,1.7,1.9C117,100.7,116.3,101.4,115.4,101.5z M115.4,92.2H79.4c-1-0.1-1.7-0.9-1.7-1.9c0.1-0.9,0.8-1.6,1.7-1.7
					h36.1c1,0.1,1.7,0.9,1.7,1.9C117,91.4,116.3,92.1,115.4,92.2z M115.4,82.9H79.4c-1-0.1-1.7-0.9-1.7-1.9c0.1-0.9,0.8-1.6,1.7-1.7
					h36.1c1,0.1,1.7,0.9,1.7,1.9C117,82.1,116.3,82.8,115.4,82.9z"/>
			</g>
		</g>
	</g>
</g>
</svg>
