<svg xmlns="http://www.w3.org/2000/svg" xmlns:xlink="http://www.w3.org/1999/xlink" viewBox="0 0 247.02 234.66"><defs><style>.cls-1{fill:none;}.cls-2{clip-path:url(#clip-path);}.cls-3{fill:#e0eaff;}.cls-4{fill:#325899;}.cls-5{fill:#244885;}.cls-6{fill:#3a67b3;}.cls-7{fill:#295399;}.cls-8{fill:#507cc7;}.cls-9{fill:#1f4380;}.cls-10{fill:#0067fc;}.cls-11{fill:#fff;}.cls-12{fill:#d94559;}.cls-13{fill:#dde4f0;}</style><clipPath id="clip-path" transform="translate(-1.49 -7.67)"><rect class="cls-1" width="250" height="250"/></clipPath></defs><g id="Layer_2" data-name="Layer 2"><g id="Layer_1-2" data-name="Layer 1"><g class="cls-2"><path class="cls-3" d="M225.32,98c-5.9-2.51-12.84-.83-16.56,3.71a11.42,11.42,0,0,0-1.31,1.92l-11.31,21.09c-1.71,3.21-7.1,2.12-7.1-1.44V33.92a11.35,11.35,0,0,0-3.92-8.46A14.16,14.16,0,0,0,175.65,22c-7.4,0-13.39,5.37-13.39,12V97.78a3.91,3.91,0,0,1-4.11,3.67h0A3.91,3.91,0,0,1,154,97.78V19.64c0-6.61-6-12-13.39-12s-13.4,5.36-13.4,12V97.78a4.13,4.13,0,0,1-8.21,0V28.62c0-6.59-5.77-12.24-13.14-12.36-7.52-.12-13.65,5.28-13.65,12V97.78a4.13,4.13,0,0,1-8.21,0V45c0-6.59-5.77-12.24-13.15-12.36s-13.64,5.28-13.64,12v56.86h0v39.24c0,37.32,34.17,68.77,75.94,68.68,32.2-.07,59.67-18.09,70.56-43.45L231.61,114a11,11,0,0,0,1.32-5.17A11.94,11.94,0,0,0,225.32,98Z" transform="translate(-1.49 -7.67)"/><path class="cls-4" d="M50.79,228.94c-1.34-.3-2.71-.66-4.07-1.07a.27.27,0,0,1-.17-.32.23.23,0,0,1,.28-.18c1.35.4,2.71.76,4.05,1.06a.24.24,0,0,1,.17.3.24.24,0,0,1-.22.22Zm8.56,1.23c-1.38-.06-2.79-.18-4.21-.34a.29.29,0,0,1-.22-.29.23.23,0,0,1,.24-.23c1.4.16,2.81.28,4.18.34a.28.28,0,0,1,.23.27.24.24,0,0,1-.18.25Zm9.93.44c-1.37.07-2.79.09-4.22.07a.28.28,0,0,1-.25-.27.22.22,0,0,1,.21-.25c1.42,0,2.83,0,4.2-.07a.25.25,0,0,1,.25.25.23.23,0,0,1-.15.26Zm9-.87c-1.36.21-2.77.38-4.19.5a.27.27,0,0,1-.27-.24.21.21,0,0,1,.17-.27c1.42-.12,2.82-.29,4.17-.5a.27.27,0,0,1,.28.22.23.23,0,0,1-.12.28Zm8.5-2c-1.3.44-2.66.85-4,1.2a.28.28,0,0,1-.31-.18.22.22,0,0,1,.13-.3c1.37-.36,2.72-.76,4-1.2a.28.28,0,0,1,.32.17.22.22,0,0,1-.07.29ZM42.7,226.52c-1.31-.5-2.64-1-3.93-1.62a.27.27,0,0,1-.13-.34.21.21,0,0,1,.29-.15c1.28.58,2.6,1.12,3.91,1.61a.28.28,0,0,1,.15.33.23.23,0,0,1-.22.18ZM34.91,223c-1.27-.68-2.54-1.4-3.75-2.14a.29.29,0,0,1-.1-.35.21.21,0,0,1,.31-.11c1.2.74,2.46,1.45,3.73,2.12a.29.29,0,0,1,.11.35A.24.24,0,0,1,35,223Zm-7.39-4.55c-1.2-.86-2.38-1.76-3.48-2.68a.29.29,0,0,1-.06-.36.22.22,0,0,1,.32-.07c1.09.92,2.26,1.81,3.46,2.67a.28.28,0,0,1,.07.36.21.21,0,0,1-.19.12A.19.19,0,0,1,27.52,218.47Zm-6.79-5.67c-1.09-1.08-2.12-2.2-3.06-3.32a.29.29,0,0,1,0-.37.2.2,0,0,1,.31,0c.93,1.12,2,2.22,3,3.29a.29.29,0,0,1,0,.37.22.22,0,0,1-.17.09A.24.24,0,0,1,20.73,212.8Zm-5.79-7a31.62,31.62,0,0,1-2.28-4.11.28.28,0,0,1,.09-.35.21.21,0,0,1,.3.1,33.77,33.77,0,0,0,2.24,4,.29.29,0,0,1,0,.37.24.24,0,0,1-.14,0A.22.22,0,0,1,14.94,205.78ZM11,197.16a23.78,23.78,0,0,1-.75-4.82.26.26,0,0,1,.22-.28c.12,0,.22.1.23.25a23.4,23.4,0,0,0,.73,4.7.26.26,0,0,1-.15.32h-.06A.23.23,0,0,1,11,197.16Zm-.27-9.41a.26.26,0,0,1-.17-.31,23.1,23.1,0,0,1,1.32-4.65.22.22,0,0,1,.3-.13.29.29,0,0,1,.11.35A22.67,22.67,0,0,0,11,187.55a.24.24,0,0,1-.22.2Zm3.33-8.82a.29.29,0,0,1-.05-.36c.26-.42.53-.83.81-1.24a22,22,0,0,1,1.93-2.44.21.21,0,0,1,.32,0,.3.3,0,0,1,0,.37,23,23,0,0,0-1.89,2.39c-.28.4-.54.81-.79,1.22a.21.21,0,0,1-.32.06ZM20,172.2a.29.29,0,0,1,.06-.36,37.47,37.47,0,0,1,3.57-2.53.2.2,0,0,1,.3.11.27.27,0,0,1-.09.35,37.91,37.91,0,0,0-3.53,2.5.19.19,0,0,1-.12,0A.21.21,0,0,1,20,172.2Zm7.28-4.65a.28.28,0,0,1,.12-.35c1.21-.61,2.52-1.21,3.88-1.79a.22.22,0,0,1,.29.16.28.28,0,0,1-.14.34c-1.35.56-2.65,1.16-3.86,1.77a.12.12,0,0,1-.08,0A.24.24,0,0,1,27.25,167.55Zm7.82-3.34a.27.27,0,0,1,.15-.33c1.28-.46,2.63-.9,4-1.33a.24.24,0,0,1,.28.19.27.27,0,0,1-.16.32c-1.38.42-2.73.87-4,1.32h-.07A.23.23,0,0,1,35.07,164.21Zm8-2.51a.26.26,0,0,1,.17-.31c1.31-.35,2.69-.69,4.08-1a.22.22,0,0,1,.26.21.24.24,0,0,1-.17.3c-1.39.33-2.76.67-4.07,1h0A.23.23,0,0,1,43.12,161.7Zm8.17-1.93a.26.26,0,0,1,.18-.3c1.32-.28,2.7-.55,4.11-.81a.24.24,0,0,1,.26.22.26.26,0,0,1-.19.3c-1.4.26-2.78.53-4.1.8h0A.24.24,0,0,1,51.29,159.77Zm8.23-1.53a.26.26,0,0,1,.19-.3c1.34-.22,2.73-.43,4.13-.64a.23.23,0,0,1,.25.22.26.26,0,0,1-.19.3c-1.4.2-2.79.42-4.13.64h0A.23.23,0,0,1,59.52,158.24ZM67.78,157a.26.26,0,0,1,.2-.29l4.15-.53a.26.26,0,0,1,0,.52l-4.14.53h0A.25.25,0,0,1,67.78,157Zm8.29-1a.25.25,0,0,1,.21-.28l4.15-.43a.24.24,0,0,1,.24.24.25.25,0,0,1-.2.28l-4.15.43h0A.24.24,0,0,1,76.07,156Zm8.31-.82a.26.26,0,0,1,.2-.29l4.16-.35a.24.24,0,0,1,.24.24.25.25,0,0,1-.21.28c-1.39.11-2.78.23-4.15.36h0A.24.24,0,0,1,84.38,155.18Zm8.31-.7a.25.25,0,0,1,.21-.27l4.16-.31a.25.25,0,0,1,.24.25.27.27,0,0,1-.21.28c-1.4.09-2.78.19-4.16.3h0A.25.25,0,0,1,92.69,154.48Zm8.32-.58a.26.26,0,0,1,.21-.28l4.16-.26a.25.25,0,0,1,.24.25.26.26,0,0,1-.22.28l-4.16.26h0A.24.24,0,0,1,101,153.9Zm8.32-.51a.25.25,0,0,1,.21-.27l4.16-.23c.13,0,.23.11.24.25s-.09.27-.21.27l-4.17.23h0A.24.24,0,0,1,109.33,153.39Zm8.31-.44a.26.26,0,0,1,.22-.28l4.16-.2a.23.23,0,0,1,.23.25.25.25,0,0,1-.21.27l-4.16.21h0A.25.25,0,0,1,117.64,153Zm8.34-.41a.24.24,0,0,1,.21-.27l4.17-.2c.12,0,.22.11.23.25a.25.25,0,0,1-.22.27l-4.16.2h0A.24.24,0,0,1,126,152.54Zm8.32-.39a.25.25,0,0,1,.22-.27l4.16-.2a.24.24,0,0,1,.23.25.25.25,0,0,1-.21.28l-4.16.19h0A.25.25,0,0,1,134.3,152.15Zm8.33-.39c0-.14.09-.27.21-.27l4.17-.2c.13,0,.23.11.23.25a.24.24,0,0,1-.21.27l-4.17.2h0A.24.24,0,0,1,142.63,151.76Zm8.33-.4a.25.25,0,0,1,.21-.28l4.16-.21a.25.25,0,0,1,.24.25.25.25,0,0,1-.22.27l-4.16.22h0A.24.24,0,0,1,151,151.36Zm8.32-.44a.25.25,0,0,1,.21-.28c1.4-.07,2.78-.15,4.16-.24a.25.25,0,0,1,.24.25.24.24,0,0,1-.21.27l-4.16.25h0A.25.25,0,0,1,159.28,150.92Zm8.32-.5a.27.27,0,0,1,.21-.28l4.16-.27a.24.24,0,0,1,.24.24.25.25,0,0,1-.21.28l-4.16.28h0A.25.25,0,0,1,167.6,150.42Zm8.32-.58a.26.26,0,0,1,.21-.28c1.4-.1,2.78-.21,4.16-.33a.24.24,0,0,1,.24.24.25.25,0,0,1-.21.28c-1.38.12-2.76.23-4.16.33h0A.24.24,0,0,1,175.92,149.84Zm8.32-.69a.24.24,0,0,1,.2-.28l4.15-.41a.24.24,0,0,1,.24.24.25.25,0,0,1-.2.28l-4.15.41h0A.23.23,0,0,1,184.24,149.15Zm8.3-.85a.27.27,0,0,1,.2-.29c1.41-.16,2.81-.33,4.14-.5a.26.26,0,0,1,.05.52c-1.34.18-2.73.34-4.15.5h0A.25.25,0,0,1,192.54,148.3Zm8.28-1.05a.27.27,0,0,1,.2-.3c1.41-.2,2.8-.41,4.13-.63a.23.23,0,0,1,.25.23.25.25,0,0,1-.19.29c-1.33.22-2.72.43-4.14.63h0A.25.25,0,0,1,200.82,147.25Zm8.26-1.34a.25.25,0,0,1,.18-.3c1.41-.26,2.79-.54,4.11-.82a.23.23,0,0,1,.26.21.27.27,0,0,1-.18.31c-1.33.28-2.71.55-4.12.81h0A.24.24,0,0,1,209.08,145.91Zm8.2-1.74a.25.25,0,0,1,.17-.31c1.4-.35,2.77-.72,4.05-1.09a.23.23,0,0,1,.27.19.27.27,0,0,1-.16.32c-1.29.37-2.66.74-4.07,1.09h0A.23.23,0,0,1,217.28,144.17Zm8.08-2.35a.27.27,0,0,1,.15-.32c1.39-.48,2.71-1,3.94-1.51a.22.22,0,0,1,.29.15.28.28,0,0,1-.14.34c-1.23.52-2.57,1-4,1.52h-.06A.23.23,0,0,1,225.36,141.82Zm7.81-3.31a.29.29,0,0,1,.11-.35,32.7,32.7,0,0,0,3.63-2.25.21.21,0,0,1,.31.08.3.3,0,0,1-.07.36,32.14,32.14,0,0,1-3.68,2.28.19.19,0,0,1-.1,0A.23.23,0,0,1,233.17,138.51Zm7-5.06a.3.3,0,0,1,0-.37,16.41,16.41,0,0,0,2.59-3.55.21.21,0,0,1,.31-.09.29.29,0,0,1,.07.36,16.66,16.66,0,0,1-2.67,3.67.19.19,0,0,1-.15.07A.22.22,0,0,1,240.16,133.45Zm4.3-8a.27.27,0,0,1-.16-.32,30.53,30.53,0,0,0,.71-4.73.24.24,0,0,1,.25-.24.25.25,0,0,1,.2.28,31.65,31.65,0,0,1-.73,4.83.22.22,0,0,1-.21.19Zm.55-9.85a33.65,33.65,0,0,0-.71-4.72.27.27,0,0,1,.16-.32.22.22,0,0,1,.27.19,33.06,33.06,0,0,1,.72,4.81.25.25,0,0,1-.2.28h0A.23.23,0,0,1,245,115.6Zm-2-9.27a38.19,38.19,0,0,0-1.87-4.29.3.3,0,0,1,.08-.36.21.21,0,0,1,.31.09,41.33,41.33,0,0,1,1.89,4.36.27.27,0,0,1-.12.34l-.08,0A.23.23,0,0,1,243,106.33ZM238.79,98c-.8-1.25-1.69-2.5-2.64-3.71a.3.3,0,0,1,0-.37.2.2,0,0,1,.32,0c1,1.22,1.86,2.48,2.67,3.75a.27.27,0,0,1,0,.36.2.2,0,0,1-.14.06A.24.24,0,0,1,238.79,98Zm-5.56-7.13c-1-1.07-2-2.13-3.14-3.15a.29.29,0,0,1,0-.37.21.21,0,0,1,.32,0c1.1,1,2.17,2.1,3.16,3.17a.3.3,0,0,1,0,.37.22.22,0,0,1-.17.09A.23.23,0,0,1,233.23,90.9Zm-6.47-6.05c-1.11-.9-2.27-1.79-3.47-2.65a.29.29,0,0,1-.07-.36.21.21,0,0,1,.31-.09c1.2.87,2.37,1.76,3.49,2.67a.3.3,0,0,1,.06.37.24.24,0,0,1-.19.11A.24.24,0,0,1,226.76,84.85Zm-7.06-5.07c-1.19-.76-2.44-1.51-3.69-2.22a.28.28,0,0,1-.11-.34.22.22,0,0,1,.3-.13c1.26.71,2.51,1.46,3.72,2.23a.3.3,0,0,1,.09.35.23.23,0,0,1-.2.14A.23.23,0,0,1,219.7,79.78Zm-7.47-4.22c-1.25-.63-2.55-1.24-3.85-1.82a.29.29,0,0,1-.13-.34.22.22,0,0,1,.29-.15c1.31.58,2.61,1.19,3.87,1.83a.27.27,0,0,1,.11.34.21.21,0,0,1-.2.16Zm-7.76-3.46c-1.29-.51-2.63-1-4-1.46a.27.27,0,0,1-.15-.32.23.23,0,0,1,.28-.18c1.34.46,2.67,1,4,1.47a.27.27,0,0,1,.15.33.24.24,0,0,1-.22.18Zm-8-2.75c-1.33-.4-2.69-.78-4-1.13a.26.26,0,0,1-.17-.31.23.23,0,0,1,.27-.2c1.35.35,2.72.73,4.05,1.14a.25.25,0,0,1,.16.31.24.24,0,0,1-.22.2Zm-8.11-2.11c-1.35-.29-2.73-.57-4.1-.82a.26.26,0,0,1-.18-.3.23.23,0,0,1,.25-.22c1.38.25,2.76.53,4.11.83a.27.27,0,0,1,.18.31.23.23,0,0,1-.22.21Zm-8.21-1.5c-1.36-.2-2.75-.38-4.13-.54a.25.25,0,0,1-.2-.28.24.24,0,0,1,.24-.24c1.39.16,2.78.34,4.15.54a.25.25,0,0,1,.19.29.23.23,0,0,1-.22.23Zm-8.27-.93c-1.37-.11-2.76-.2-4.15-.27a.26.26,0,0,1,0-.52c1.39.07,2.79.16,4.16.27a.25.25,0,0,1,.21.27.25.25,0,0,1-.22.25Z" transform="translate(-1.49 -7.67)"/><path class="cls-4" d="M163.57,64.41a.25.25,0,0,0,.23-.26.25.25,0,0,0-.23-.26l-2.09,0a.25.25,0,0,0-.22.27.25.25,0,0,0,.22.26Z" transform="translate(-1.49 -7.67)"/><polygon class="cls-5" points="163.01 56.89 156.13 57.41 158.19 53.33 163.01 56.89"/><polygon class="cls-6" points="156.67 58.69 147.69 55.64 158.81 55.01 156.67 58.69"/><polygon class="cls-6" points="147.68 55.63 161.48 48.1 159.52 51.84 147.68 55.63"/><polygon class="cls-7" points="147.69 55.64 158.83 55.05 163.01 56.89 159.52 51.78 147.69 55.64"/><path class="cls-8" d="M207.53,204.31a2.85,2.85,0,0,0,1.13-2.74,4.33,4.33,0,0,0-1.57-2.62,9.34,9.34,0,0,0-2.74-1.49,11.92,11.92,0,0,0-5.06-.88,49.52,49.52,0,0,1,5.43-5.31l.53-.43,3.18,4.38a9.47,9.47,0,0,0,2.46,2.62,3.26,3.26,0,0,0,3.42.18,2.86,2.86,0,0,0,1.13-2.75,4.33,4.33,0,0,0-1.57-2.62,9.39,9.39,0,0,0-2.73-1.48,11.67,11.67,0,0,0-5.23-.87,50.65,50.65,0,0,1,7-4.64l3.39,4.32a9.58,9.58,0,0,0,2.56,2.52,3.24,3.24,0,0,0,3.42.05,2.86,2.86,0,0,0,1-2.79,4.37,4.37,0,0,0-1.67-2.56,9.18,9.18,0,0,0-2.79-1.37,11.9,11.9,0,0,0-4.93-.71,51.41,51.41,0,0,1,5.58-2.47l1.71-.59,3.64,4.33a9.72,9.72,0,0,0,2.64,2.44,3.24,3.24,0,0,0,3.42-.07,2.82,2.82,0,0,0,.93-2.81,4.28,4.28,0,0,0-1.75-2.51,9.3,9.3,0,0,0-2.83-1.28,12.57,12.57,0,0,0-4.42-.6,49.21,49.21,0,0,1,6-1.31l5.13,2a9.67,9.67,0,0,0,3.48.89,3.25,3.25,0,0,0,3-1.69,2.81,2.81,0,0,0-.52-2.91,4.26,4.26,0,0,0-2.73-1.37,9.3,9.3,0,0,0-3.11.21,11.28,11.28,0,0,0-5.2,2.35h0a49.08,49.08,0,0,0-6.36,1.41,12.36,12.36,0,0,0,3.07-3.52,9.69,9.69,0,0,0,1.26-2.85,4.3,4.3,0,0,0-.37-3,2.83,2.83,0,0,0-2.56-1.48,3.24,3.24,0,0,0-2.6,2.23,9.55,9.55,0,0,0-.35,3.58c.06,1.83.11,3.67.17,5.5a50.08,50.08,0,0,0-7.37,3.08,12,12,0,0,0,2.27-4.36,9.5,9.5,0,0,0,.51-3.07,4.31,4.31,0,0,0-1.11-2.85,2.81,2.81,0,0,0-2.85-.79,3.21,3.21,0,0,0-2,2.8,9.23,9.23,0,0,0,.55,3.55q.75,2.64,1.52,5.29l-.22.12a50.57,50.57,0,0,0-6.85,4.55,11.4,11.4,0,0,0,1.63-5.22,9.22,9.22,0,0,0-.12-3.1,4.32,4.32,0,0,0-1.66-2.57,2.83,2.83,0,0,0-3-.2,3.23,3.23,0,0,0-1.35,3.14,9.59,9.59,0,0,0,1.26,3.36l2.65,5-.09.07-.05,0,0,0a49.7,49.7,0,0,0-5.79,5.54,12.3,12.3,0,0,0-.25-4.94,9.42,9.42,0,0,0-1.11-3,4.41,4.41,0,0,0-2.43-1.95,2.9,2.9,0,0,0-2.92.75,3.3,3.3,0,0,0-.3,3.48,9.7,9.7,0,0,0,2.3,2.85l3.77,3.62.1.13a47.55,47.55,0,0,0-5.05,7.23c-.15.27.24.56.39.29a47.3,47.3,0,0,1,4.95-7.11c1,1.38,2,2.77,3,4.16a9.57,9.57,0,0,0,2.46,2.61A3.23,3.23,0,0,0,207.53,204.31Z" transform="translate(-1.49 -7.67)"/><path class="cls-8" d="M60.89,207.17a2.86,2.86,0,0,1-1.21-2.7,4.27,4.27,0,0,1,1.49-2.67,9.13,9.13,0,0,1,2.68-1.57,11.79,11.79,0,0,1,5-1,49.41,49.41,0,0,0-5.58-5.14l-.55-.42-3,4.48a9.65,9.65,0,0,1-2.38,2.7,3.23,3.23,0,0,1-3.41.28,2.85,2.85,0,0,1-1.22-2.7,4.31,4.31,0,0,1,1.49-2.67,9.05,9.05,0,0,1,2.69-1.57,11.56,11.56,0,0,1,5.19-1,50.89,50.89,0,0,0-7.18-4.42l-3.25,4.42a9.61,9.61,0,0,1-2.48,2.6,3.23,3.23,0,0,1-3.42.16,2.84,2.84,0,0,1-1.11-2.75,4.29,4.29,0,0,1,1.58-2.61A9.23,9.23,0,0,1,49,189.05a11.83,11.83,0,0,1,4.9-.86,51.51,51.51,0,0,0-5.66-2.29c-.57-.19-1.14-.36-1.72-.53L43,189.81a9.69,9.69,0,0,1-2.56,2.51,3.26,3.26,0,0,1-3.43.05,2.85,2.85,0,0,1-1-2.79A4.28,4.28,0,0,1,37.65,187a9.42,9.42,0,0,1,2.79-1.37,12.49,12.49,0,0,1,4.39-.73,47.28,47.28,0,0,0-6-1.13L33.75,186a9.67,9.67,0,0,1-3.46,1,3.25,3.25,0,0,1-3-1.59,2.85,2.85,0,0,1,.43-2.93A4.34,4.34,0,0,1,30.38,181a9.3,9.3,0,0,1,3.11.12,11.19,11.19,0,0,1,5.27,2.19h0a48.23,48.23,0,0,1,6.41,1.2A12.09,12.09,0,0,1,42,181.08a9.06,9.06,0,0,1-1.35-2.8,4.33,4.33,0,0,1,.27-3.05,2.83,2.83,0,0,1,2.52-1.56,3.23,3.23,0,0,1,2.66,2.15,9.49,9.49,0,0,1,.46,3.56c0,1.84,0,3.68,0,5.51A49.8,49.8,0,0,1,54,187.73a11.81,11.81,0,0,1-2.4-4.28,9.2,9.2,0,0,1-.61-3,4.33,4.33,0,0,1,1-2.88,2.86,2.86,0,0,1,2.83-.89,3.24,3.24,0,0,1,2.05,2.74,9.46,9.46,0,0,1-.44,3.57q-.67,2.66-1.36,5.33l.23.11a51.88,51.88,0,0,1,7,4.34,11.44,11.44,0,0,1-1.8-5.16,9.27,9.27,0,0,1,0-3.11,4.28,4.28,0,0,1,1.57-2.62,2.89,2.89,0,0,1,3-.3,3.26,3.26,0,0,1,1.45,3.1,9.54,9.54,0,0,1-1.16,3.4l-2.49,5.11.1.07,0,0,0,0a50.37,50.37,0,0,1,6,5.35,12.1,12.1,0,0,1,.09-4.94,9.19,9.19,0,0,1,1-3,4.37,4.37,0,0,1,2.37-2,2.9,2.9,0,0,1,2.94.66,3.29,3.29,0,0,1,.41,3.46,9.64,9.64,0,0,1-2.21,2.92l-3.66,3.74-.09.13a47.75,47.75,0,0,1,5.27,7.07c.17.27-.22.57-.38.31a47.56,47.56,0,0,0-5.17-7l-2.89,4.25a9.46,9.46,0,0,1-2.37,2.7A3.25,3.25,0,0,1,60.89,207.17Z" transform="translate(-1.49 -7.67)"/><path class="cls-9" d="M152.87,73.26H114.76A25.88,25.88,0,0,0,88.88,99.14V153.5h12.36V100.68a15.05,15.05,0,0,1,15.05-15.06h35a15,15,0,0,1,15,15.06V153.5h12.37V99.14A25.88,25.88,0,0,0,152.87,73.26Z" transform="translate(-1.49 -7.67)"/><path class="cls-10" d="M60.8,149.45v19.86a73,73,0,0,0,73,73h0a73,73,0,0,0,73-73V149.45A21.49,21.49,0,0,0,185.34,128H82.28A21.49,21.49,0,0,0,60.8,149.45Z" transform="translate(-1.49 -7.67)"/><circle class="cls-11" cx="134.77" cy="174.29" r="30.46"/><circle class="cls-10" cx="136.26" cy="181.96" r="26.52" transform="translate(-60.75 58.32) rotate(-22.5)"/><path class="cls-11" d="M145.09,173.06a8.83,8.83,0,1,0-13.39,7.55l-1.6,20.2a1.42,1.42,0,0,0,1.42,1.54H141a1.42,1.42,0,0,0,1.42-1.54l-1.6-20.2A8.84,8.84,0,0,0,145.09,173.06Z" transform="translate(-1.49 -7.67)"/><path class="cls-12" d="M226.76,238.57l-30.13-52.19a2.47,2.47,0,0,0-4.27,0l-30.13,52.19a2.46,2.46,0,0,0,2.13,3.69h60.27A2.46,2.46,0,0,0,226.76,238.57Z" transform="translate(-1.49 -7.67)"/><path class="cls-11" d="M222,236.84l-26.27-45.5a1.46,1.46,0,0,0-2.53,0L167,236.84a1.46,1.46,0,0,0,1.26,2.19h52.55A1.46,1.46,0,0,0,222,236.84Z" transform="translate(-1.49 -7.67)"/><path class="cls-13" d="M222,236.84l-26.27-45.5a1.46,1.46,0,0,0-2.53,0l-.14.24,25.26,43.75a1.46,1.46,0,0,1-1.26,2.19H166.76a1.47,1.47,0,0,0,1.46,1.51h52.55A1.46,1.46,0,0,0,222,236.84Z" transform="translate(-1.49 -7.67)"/><path class="cls-13" d="M194.5,227.39a2.64,2.64,0,0,1-2.62-2.4l-1.66-19.62a2.67,2.67,0,0,1,.68-2,2.63,2.63,0,0,1,1.94-.84h3.31a2.63,2.63,0,0,1,1.94.84,2.67,2.67,0,0,1,.68,2L197.11,225A2.64,2.64,0,0,1,194.5,227.39Z" transform="translate(-1.49 -7.67)"/><path class="cls-12" d="M196.15,203.38h-3.31a1.77,1.77,0,0,0-1.77,1.92l1.66,19.61a1.77,1.77,0,0,0,3.53,0l1.66-19.61A1.77,1.77,0,0,0,196.15,203.38Z" transform="translate(-1.49 -7.67)"/><circle class="cls-13" cx="194.5" cy="231.33" r="2.97" transform="translate(-49.44 43.2) rotate(-13.28)"/><path class="cls-12" d="M192.37,231.33a2.13,2.13,0,1,1,2.13,2.12A2.13,2.13,0,0,1,192.37,231.33Z" transform="translate(-1.49 -7.67)"/><path class="cls-12" d="M83.26,116.16a44.8,44.8,0,0,1-14-6.38l-12.64,0-12.64,0a44.84,44.84,0,0,1-14,6.43,32.73,32.73,0,0,1,3.66,18.35A31.83,31.83,0,0,1,30,146.44a27.25,27.25,0,0,0,7.84,18.83,26.65,26.65,0,0,0,37.69-.07,27.25,27.25,0,0,0,7.77-18.86,31.88,31.88,0,0,1-3.65-11.82A32.68,32.68,0,0,1,83.26,116.16Z" transform="translate(-1.49 -7.67)"/><path class="cls-11" d="M56.71,169.93a23.37,23.37,0,0,1-16.66-6.86,24.25,24.25,0,0,1-6.91-15.9,35,35,0,0,0,3.58-12.26,35.19,35.19,0,0,0-2.43-16.69,52.79,52.79,0,0,0,10.59-5.29l23.46,0a53.36,53.36,0,0,0,10.6,5.25,35.29,35.29,0,0,0-2.36,16.7,34.92,34.92,0,0,0,3.62,12.24A24.2,24.2,0,0,1,73.35,163a23.41,23.41,0,0,1-16.64,6.92Z" transform="translate(-1.49 -7.67)"/><path class="cls-11" d="M56.71,167.39a21.06,21.06,0,0,1-15-6.19,21.82,21.82,0,0,1-6.21-14,34.63,34.63,0,0,0,3.39-11.85A34.58,34.58,0,0,0,36.94,120a54.13,54.13,0,0,0,8.84-4.53l21.67,0a54.26,54.26,0,0,0,8.85,4.49,34.54,34.54,0,0,0,1.56,27.17,21.83,21.83,0,0,1-6.16,14,21.1,21.1,0,0,1-15,6.25Z" transform="translate(-1.49 -7.67)"/><polygon class="cls-12" points="46.08 129.25 41.55 136.11 53.34 143 68.79 126.26 61.89 121.04 53.06 135.29 46.08 129.25"/><path class="cls-10" d="M200.88,94.6a.86.86,0,0,1,.1.63.83.83,0,0,1-.57.59l-2.77.81a.83.83,0,0,1-1-1l.68-2.8a.81.81,0,0,1,.57-.59.83.83,0,0,1,.81.19l2.08,2A1.09,1.09,0,0,1,200.88,94.6Zm-3.62,1.33,0,0a.16.16,0,0,0,.17,0l2.76-.8a.2.2,0,0,0,.13-.13.22.22,0,0,0,0-.17l-2.08-2a.17.17,0,0,0-.29.09l-.69,2.79A.2.2,0,0,0,197.26,95.93Z" transform="translate(-1.49 -7.67)"/><path class="cls-10" d="M5.79,149.55a.81.81,0,0,1,.09.63.79.79,0,0,1-.57.59l-2.76.81a.81.81,0,0,1-.8-.2.81.81,0,0,1-.24-.79l.69-2.8a.79.79,0,0,1,.57-.59.81.81,0,0,1,.8.19l2.08,2A1.15,1.15,0,0,1,5.79,149.55Zm-3.62,1.33,0,0a.16.16,0,0,0,.17,0l2.76-.8a.18.18,0,0,0,.12-.13.16.16,0,0,0,0-.17l-2.08-2a.17.17,0,0,0-.17,0,.17.17,0,0,0-.12.13l-.68,2.79A.16.16,0,0,0,2.17,150.88Z" transform="translate(-1.49 -7.67)"/><path class="cls-10" d="M52.4,216.68l1-1a.59.59,0,0,0-.84-.83l-1,1-1-1a.59.59,0,1,0-.84.83l1,1-1,1a.6.6,0,0,0,0,.84.58.58,0,0,0,.41.17.59.59,0,0,0,.42-.17l1-1,1,1a.6.6,0,0,0,.84,0,.6.6,0,0,0,0-.84Z" transform="translate(-1.49 -7.67)"/><path class="cls-10" d="M232.64,212.42l1-1a.59.59,0,0,0-.84-.84l-1,1-1-1a.59.59,0,0,0-.84.84l1,1-1,1a.6.6,0,0,0,0,.84.6.6,0,0,0,.84,0l1-1,1,1a.61.61,0,0,0,.42.17.59.59,0,0,0,.41-1Z" transform="translate(-1.49 -7.67)"/><path class="cls-10" d="M48.8,98.33A2.32,2.32,0,1,1,51.13,96,2.32,2.32,0,0,1,48.8,98.33Zm0-3.92A1.6,1.6,0,1,0,50.4,96,1.6,1.6,0,0,0,48.8,94.41Z" transform="translate(-1.49 -7.67)"/><path class="cls-10" d="M246.19,161a2.32,2.32,0,1,1,2.32-2.32A2.33,2.33,0,0,1,246.19,161Zm0-3.92a1.6,1.6,0,1,0,1.59,1.6A1.6,1.6,0,0,0,246.19,157.06Z" transform="translate(-1.49 -7.67)"/></g></g></g></svg>