<?xml version="1.0" encoding="utf-8"?>
<!-- Generator: Adobe Illustrator 26.3.1, SVG Export Plug-In . SVG Version: 6.00 Build 0)  -->
<svg version="1.1" id="Layer_1" xmlns="http://www.w3.org/2000/svg" xmlns:xlink="http://www.w3.org/1999/xlink" x="0px" y="0px"
	 viewBox="0 0 200 200" style="enable-background:new 0 0 200 200;" xml:space="preserve">
<style type="text/css">
	.st0{fill:#0067FC;}
</style>
<g>
	<g>
		<path class="st0" d="M100,172.7c-1,0-1.9,0-2.9-0.1c-40.1-1.6-71.4-35.5-69.8-75.5c0.8-19.4,9-37.4,23.3-50.5
			c14.3-13.2,32.8-20,52.2-19.2c19.4,0.8,37.4,9,50.5,23.3s20,32.8,19.2,52.2l0,0C171.1,142,138.8,172.7,100,172.7z M99.9,31.3
			c-17.3,0-33.8,6.4-46.6,18.2C39.9,62,32.1,78.9,31.3,97.3c-0.7,18.3,5.7,35.9,18.2,49.3c12.5,13.5,29.4,21.3,47.8,22
			c37.8,1.5,69.9-28.1,71.4-65.9l2,0.1l-2-0.1c0.7-18.3-5.7-35.9-18.2-49.3c-12.5-13.5-29.4-21.3-47.8-22
			C101.8,31.3,100.9,31.3,99.9,31.3z"/>
	</g>
	<g>
		<g>
			<g id="Group_263_00000010303835447590671390000011893589744447033747_" transform="translate(-598.5 -520.001)">
				<g id="Group_259_00000104698336769319671850000001747245549111810238_" transform="translate(549.903 487.744)">
					<g id="Ellipse_9_00000080170920069823717520000000528672078566045056_">
						<path class="st0" d="M179.2,136.8c-3.5,0-6.3-2.8-6.3-6.3c0-3.5,2.8-6.3,6.3-6.3s6.3,2.8,6.3,6.3
							C185.5,134,182.7,136.8,179.2,136.8z M179.2,126.7c-2.1,0-3.8,1.7-3.8,3.8s1.7,3.8,3.8,3.8c2.1,0,3.8-1.7,3.8-3.8
							S181.3,126.7,179.2,126.7z"/>
					</g>
					<g id="Path_16_00000127760230353026943010000008543102027549183143_">
						<path class="st0" d="M187.5,146.4c-0.7,0-1.2-0.6-1.2-1.2c0-3.9-3.1-7-7-7s-7,3.1-7,7c0,0.7-0.6,1.2-1.2,1.2s-1.2-0.6-1.2-1.2
							c0-5.2,4.3-9.5,9.5-9.5c5.2,0,9.5,4.3,9.5,9.5C188.7,145.9,188.1,146.4,187.5,146.4z"/>
					</g>
				</g>
			</g>
		</g>
		<g>
			<g>
				<path class="st0" d="M118.1,143.3h-42c-3,0-5.5-2.5-5.5-5.5V90c0-0.7,0.6-1.2,1.2-1.2s1.2,0.6,1.2,1.2v47.7c0,1.7,1.3,3,3,3
					h41.5l11.4-12.8v-7c0-0.7,0.6-1.2,1.2-1.2s1.2,0.6,1.2,1.2v7.4c0,0.3-0.1,0.6-0.3,0.8l-12.1,13.5
					C118.8,143.1,118.5,143.3,118.1,143.3z"/>
			</g>
			<g>
				<path class="st0" d="M71.8,94.4c-0.7,0-1.2-0.6-1.2-1.2v-31c0-3,2.5-5.5,5.5-5.5h49.8c3,0,5.5,2.5,5.5,5.5v22.6
					c0,0.7-0.6,1.2-1.2,1.2s-1.2-0.6-1.2-1.2V62.2c0-1.7-1.3-3-3-3H76.1c-1.7,0-3,1.3-3,3v31C73.1,93.9,72.5,94.4,71.8,94.4z"/>
			</g>
			<g>
				<path class="st0" d="M117.1,142.8c-0.7,0-1.2-0.6-1.2-1.2v-8.8c0-3,2.5-5.5,5.5-5.5h8.8c0.7,0,1.2,0.6,1.2,1.2s-0.6,1.2-1.2,1.2
					h-8.8c-1.7,0-3,1.3-3,3v8.8C118.4,142.3,117.8,142.8,117.1,142.8z"/>
			</g>
			<g>
				<path class="st0" d="M109.4,78.9H79.8c-0.6,0-1.2-0.5-1.2-1.2s0.5-1.2,1.2-1.2h29.6c0.6,0,1.2,0.5,1.2,1.2S110,78.9,109.4,78.9z
					"/>
			</g>
			<g>
				<path class="st0" d="M109.4,71.9H79.8c-0.6,0-1.2-0.5-1.2-1.2s0.5-1.2,1.2-1.2h29.6c0.6,0,1.2,0.5,1.2,1.2S110,71.9,109.4,71.9z
					"/>
			</g>
			<g>
				<path class="st0" d="M107.6,86H79.8c-0.6,0-1.2-0.5-1.2-1.2s0.5-1.2,1.2-1.2h27.8c0.6,0,1.2,0.5,1.2,1.2S108.3,86,107.6,86z"/>
			</g>
			<g>
				<path class="st0" d="M105.9,93H79.8c-0.6,0-1.2-0.5-1.2-1.2s0.5-1.2,1.2-1.2h26.1c0.6,0,1.2,0.5,1.2,1.2S106.5,93,105.9,93z"/>
			</g>
			<g>
				<path class="st0" d="M102.3,100.1H79.8c-0.6,0-1.2-0.5-1.2-1.2s0.5-1.2,1.2-1.2h22.5c0.6,0,1.2,0.5,1.2,1.2
					S103,100.1,102.3,100.1z"/>
			</g>
			<g>
				<path class="st0" d="M96.2,107.2H79.8c-0.6,0-1.2-0.5-1.2-1.2s0.5-1.2,1.2-1.2h16.4c0.6,0,1.2,0.5,1.2,1.2
					S96.8,107.2,96.2,107.2z"/>
			</g>
		</g>
		<g>
			<path class="st0" d="M130.2,121.6c-10,0-18.2-8.2-18.2-18.2c0-10,8.2-18.2,18.2-18.2s18.2,8.2,18.2,18.2
				C148.4,113.5,140.2,121.6,130.2,121.6z M130.2,87.6c-8.7,0-15.9,7.1-15.9,15.9s7.1,15.9,15.9,15.9s15.9-7.1,15.9-15.9
				S138.9,87.6,130.2,87.6z"/>
		</g>
	</g>
	<g>
		<path class="st0" d="M101.8,135.1c-0.3,0-0.6-0.1-0.7-0.4c-0.8-1.1-8.1-10.8-8.1-15.3c0-4.9,4-8.9,8.9-8.9c4.9,0,8.9,4,8.9,8.9
			c0,4.6-7.3,14.2-8.1,15.3C102.4,135,102.1,135.1,101.8,135.1z M101.8,112.4c-3.9,0-7,3.1-7,7c0,3,4.5,9.8,7,13.2
			c2.5-3.4,7-10.2,7-13.2C108.8,115.6,105.7,112.4,101.8,112.4z"/>
	</g>
	<g>
		<path class="st0" d="M101.8,123.2c-2.4,0-4.4-2-4.4-4.4s2-4.4,4.4-4.4s4.4,2,4.4,4.4S104.2,123.2,101.8,123.2z M101.8,116.3
			c-1.4,0-2.5,1.1-2.5,2.5s1.1,2.5,2.5,2.5s2.5-1.1,2.5-2.5S103.2,116.3,101.8,116.3z"/>
	</g>
</g>
</svg>
