<?xml version="1.0" encoding="utf-8"?>
<!-- Generator: Adobe Illustrator 26.3.1, SVG Export Plug-In . SVG Version: 6.00 Build 0)  -->
<svg version="1.1" id="Layer_1" xmlns="http://www.w3.org/2000/svg" xmlns:xlink="http://www.w3.org/1999/xlink" x="0px" y="0px"
	 viewBox="0 0 200 200" style="enable-background:new 0 0 200 200;" xml:space="preserve">
<style type="text/css">
	.st0{fill:#0067FC;}
</style>
<g>
	<g>
		<g>
			<path class="st0" d="M117.1,143.3h-42c-3,0-5.5-2.5-5.5-5.5V62.2c0-3,2.5-5.5,5.5-5.5h49.8c3,0,5.5,2.5,5.5,5.5v66.3
				c0,0.3-0.1,0.6-0.3,0.8L118,142.9C117.8,143.1,117.5,143.3,117.1,143.3z M72.1,93.2v44.6c0,1.7,1.3,3,3,3h41.5l11.4-12.8V62.2
				c0-1.7-1.3-3-3-3H75.1c-1.7,0-3,1.3-3,3V93.2z"/>
		</g>
		<g>
			<path class="st0" d="M116.1,142.8c-0.7,0-1.2-0.6-1.2-1.2v-8.8c0-3,2.5-5.5,5.5-5.5h8.8c0.7,0,1.2,0.6,1.2,1.2s-0.6,1.2-1.2,1.2
				h-8.8c-1.7,0-3,1.3-3,3v8.8C117.4,142.3,116.8,142.8,116.1,142.8z"/>
		</g>
	</g>
	<g>
		<g>
			<path class="st0" d="M117.7,119.5h-27c-0.7,0-1.2-0.6-1.2-1.2s0.6-1.2,1.2-1.2h27c0.7,0,1.2,0.6,1.2,1.2S118.4,119.5,117.7,119.5
				z"/>
		</g>
		<g>
			<path class="st0" d="M117.7,126.5h-27c-0.7,0-1.2-0.6-1.2-1.2s0.6-1.2,1.2-1.2h27c0.7,0,1.2,0.6,1.2,1.2S118.4,126.5,117.7,126.5
				z"/>
		</g>
		<g>
			<path class="st0" d="M107.7,133.6h-17c-0.7,0-1.2-0.6-1.2-1.2s0.6-1.2,1.2-1.2h17c0.7,0,1.2,0.6,1.2,1.2S108.4,133.6,107.7,133.6
				z"/>
		</g>
		<g>
			<path class="st0" d="M83.7,120.9c-0.3,0-0.6-0.1-0.9-0.4l-1.4-1.4c-0.5-0.5-0.5-1.3,0-1.8c0.5-0.5,1.3-0.5,1.8,0l0.5,0.5l1.9-1.9
				c0.5-0.5,1.3-0.5,1.8,0s0.5,1.3,0,1.8l-2.8,2.8C84.4,120.8,84,120.9,83.7,120.9z"/>
		</g>
		<g>
			<path class="st0" d="M83.7,127.9c-0.3,0-0.6-0.1-0.9-0.4l-1.4-1.4c-0.5-0.5-0.5-1.3,0-1.8s1.3-0.5,1.8,0l0.5,0.5l1.9-1.9
				c0.5-0.5,1.3-0.5,1.8,0s0.5,1.3,0,1.8l-2.8,2.8C84.4,127.8,84.1,127.9,83.7,127.9z"/>
		</g>
		<g>
			<path class="st0" d="M83.7,134.4c-0.3,0-0.6-0.1-0.9-0.4l-1.4-1.4c-0.5-0.5-0.5-1.3,0-1.8c0.5-0.5,1.3-0.5,1.8,0l0.5,0.5l1.9-1.9
				c0.5-0.5,1.3-0.5,1.8,0s0.5,1.3,0,1.8l-2.8,2.8C84.4,134.3,84,134.4,83.7,134.4z"/>
		</g>
	</g>
	<g>
		<g>
			<path class="st0" d="M119.8,111.5H80.2c-0.7,0-1.2-0.6-1.2-1.2v-8.9c0-0.7,0.6-1.2,1.2-1.2h39.6c0.7,0,1.2,0.6,1.2,1.2v8.9
				C121,110.9,120.5,111.5,119.8,111.5z M81.5,109h37.1v-6.4H81.5V109z"/>
		</g>
		<g>
			<path class="st0" d="M99.6,107H84.1c-0.7,0-1.2-0.6-1.2-1.2s0.6-1.2,1.2-1.2h15.4c0.7,0,1.2,0.6,1.2,1.2S100.3,107,99.6,107z"/>
		</g>
	</g>
	<g>
		<path class="st0" d="M100,172.7c-40.1,0-72.7-32.6-72.7-72.7S59.9,27.3,100,27.3s72.7,32.6,72.7,72.7S140.1,172.7,100,172.7z
			 M100,31.3c-37.9,0-68.7,30.8-68.7,68.7c0,37.9,30.8,68.7,68.7,68.7c37.9,0,68.7-30.8,68.7-68.7C168.7,62.1,137.9,31.3,100,31.3z"
			/>
	</g>
	<g>
		<g>
			<g>
				<path class="st0" d="M110.3,85.4c-3.3,0-6-2.7-6-6s2.7-6,6-6s6,2.7,6,6S113.7,85.4,110.3,85.4z M110.3,74.9
					c-2.4,0-4.4,2-4.4,4.4s2,4.4,4.4,4.4s4.4-2,4.4-4.4S112.8,74.9,110.3,74.9z"/>
			</g>
			<g>
				<path class="st0" d="M110.3,92.6c-0.3,0-0.6,0-0.9,0c-1.1,0-1.8-0.7-1.8-1.8c0-1-0.4-1.6-1.3-1.9c-0.8-0.3-1.5-0.2-2.2,0.5
					c-0.8,0.7-1.8,0.7-2.5,0c-0.4-0.4-0.9-0.9-1.3-1.3c-0.8-0.8-0.8-1.7,0-2.5c0.7-0.7,0.8-1.4,0.4-2.2c-0.3-0.8-1-1.2-1.9-1.2
					c-1,0-1.7-0.8-1.8-1.8c0-0.6,0-1.3,0-1.9c0-1,0.7-1.7,1.7-1.8c1,0,1.6-0.4,1.9-1.3c0.3-0.8,0.2-1.5-0.5-2.2
					c-0.7-0.8-0.7-1.8,0-2.5c0.3-0.3,0.6-0.6,0.9-0.9l0.4-0.4c0.8-0.8,1.8-0.9,2.7,0c0.4,0.4,0.8,0.6,1.4,0.6c0.5,0,1-0.2,1.4-0.6
					c0.4-0.4,0.6-0.9,0.6-1.5c0-1.1,0.7-1.8,1.9-1.8l0.4,0c0.5,0,1,0,1.5,0c1,0,1.7,0.7,1.7,1.7c0,0.2,0,0.4,0.1,0.6
					c0.2,0.7,0.7,1.2,1.4,1.4c0.7,0.2,1.4,0,2-0.5c0.3-0.3,0.6-0.5,1.2-0.6c0.2,0,0.4,0,0.5,0.1c0.1,0,0.1,0.1,0.2,0.1
					c0.2,0.1,0.4,0.2,0.6,0.4c0.3,0.3,0.6,0.6,1,0.9l0.3,0.3c0.8,0.8,0.9,1.8,0,2.7c-0.4,0.4-0.6,0.8-0.6,1.4c0,1.1,0.9,2,2,2
					c1.1,0,1.8,0.7,1.8,1.8v0.2c0,0.6,0,1.2,0,1.7c0,1-0.7,1.7-1.7,1.7c-0.2,0-0.4,0-0.6,0.1c-0.7,0.2-1.2,0.7-1.4,1.4
					c-0.2,0.7,0,1.4,0.5,2c0.8,0.8,0.8,1.8,0,2.6l-1.2,1.2c-0.9,0.8-1.8,0.9-2.7,0c-0.4-0.4-0.8-0.6-1.3-0.6c-0.5,0-1.1,0.2-1.5,0.5
					c-0.4,0.4-0.6,0.9-0.6,1.5c0,1.1-0.7,1.8-1.8,1.8C110.9,92.6,110.6,92.6,110.3,92.6z M109.2,91c0,0,0,0,0.2,0c0.6,0,1.2,0,1.8,0
					c0.1,0,0.2,0,0.2,0c0,0,0-0.1,0-0.2c0-1,0.4-2,1.1-2.6c0.7-0.7,1.7-1,2.6-1c0.9,0,1.7,0.4,2.4,1c0.1,0.1,0.2,0.1,0.2,0.2
					c0,0,0.1-0.1,0.2-0.2l1.2-1.2c0.1-0.1,0.1-0.2,0.1-0.2c0,0,0-0.1-0.1-0.2c-0.9-1-1.2-2.3-0.9-3.6c0.4-1.2,1.3-2.2,2.6-2.5
					c0.3-0.1,0.7-0.1,0.9-0.1c0.1,0,0.1,0,0.1-0.1c0-0.6,0-1.1,0-1.7l0-0.2c0-0.1,0-0.1,0-0.2c0,0,0,0-0.2,0c-2.1,0-3.7-1.7-3.6-3.7
					c0-0.9,0.4-1.8,1-2.5c0.1-0.1,0.1-0.2,0.2-0.2c0,0-0.1-0.1-0.2-0.2l-0.3-0.3c-0.3-0.3-0.6-0.6-0.9-0.9c0,0-0.1-0.1-0.2-0.1
					c0,0-0.1,0.1-0.2,0.1c-1,0.9-2.3,1.2-3.5,0.9c-1.2-0.4-2.2-1.3-2.5-2.6c-0.1-0.3-0.1-0.7-0.1-0.9c0-0.1,0-0.1-0.1-0.1
					c-0.5,0-1,0-1.4,0l-0.4,0c-0.1,0-0.2,0-0.2,0c0,0,0,0.1,0,0.2c0,1-0.4,1.9-1.1,2.6c-0.7,0.7-1.6,1-2.6,1c-0.9,0-1.7-0.4-2.4-1
					c-0.1-0.1-0.2-0.1-0.2-0.2c0,0-0.1,0.1-0.2,0.2l-0.4,0.4c-0.3,0.3-0.6,0.6-0.9,0.9c-0.1,0.1-0.1,0.1-0.1,0.1c0,0,0,0.1,0.1,0.1
					c1.1,1.2,1.4,2.5,0.8,4c-0.6,1.4-1.8,2.2-3.4,2.3c-0.1,0-0.1,0-0.1,0c0,0,0,0,0,0.1c0,0.6,0,1.3,0,1.9c0,0.1,0,0.1,0,0.2
					c0,0,0.1,0,0.1,0c1.6,0,2.8,0.8,3.4,2.2c0.6,1.4,0.3,2.8-0.8,4c-0.1,0.1-0.1,0.2-0.1,0.2c0,0,0,0.1,0.1,0.1
					c0.4,0.4,0.9,0.9,1.3,1.3c0.1,0.1,0.1,0.1,0.1,0.1c0,0,0.1,0,0.1-0.1c1.2-1.1,2.5-1.4,4-0.8c1.4,0.6,2.2,1.8,2.2,3.4
					C109.2,90.9,109.2,91,109.2,91L109.2,91z"/>
			</g>
		</g>
		<g>
			<g>
				<path class="st0" d="M87.8,89.9c-2.9,0-5.3-2.4-5.3-5.3s2.4-5.3,5.3-5.3c2.9,0,5.3,2.4,5.3,5.3S90.7,89.9,87.8,89.9z M87.8,80.9
					c-2,0-3.6,1.6-3.6,3.6s1.6,3.6,3.6,3.6c2,0,3.6-1.6,3.6-3.6S89.8,80.9,87.8,80.9z"/>
			</g>
			<g>
				<path class="st0" d="M87.8,96c-0.3,0-0.5,0-0.8,0c-1,0-1.6-0.7-1.7-1.6c0-0.8-0.3-1.2-1-1.5c-0.6-0.3-1.2-0.2-1.8,0.4
					c-0.7,0.7-1.6,0.7-2.3,0c-0.4-0.4-0.7-0.7-1.1-1.1c-0.7-0.7-0.7-1.6,0-2.3c0.5-0.6,0.6-1.1,0.4-1.8c-0.3-0.7-0.8-1-1.5-1
					c-1,0-1.6-0.7-1.6-1.6c0-0.5,0-1.1,0-1.6c0-0.9,0.7-1.6,1.6-1.6c0.8,0,1.3-0.3,1.5-1c0.3-0.6,0.2-1.2-0.4-1.8
					c-0.7-0.7-0.7-1.6,0-2.3l1.1-1.1c0.8-0.8,1.6-0.8,2.4,0c0.3,0.3,0.7,0.4,1.1,0.5c0.4,0,0.8-0.1,1.1-0.4c0.3-0.3,0.5-0.7,0.5-1.2
					c0-1,0.7-1.7,1.7-1.7l0.4,0c0.4,0,0.8,0,1.2,0c0.9,0,1.6,0.6,1.6,1.6c0,0.2,0,0.4,0.1,0.5c0.1,0.6,0.6,1,1.1,1.1
					c0.6,0.2,1.1,0,1.6-0.4c0.3-0.2,0.6-0.5,1.1-0.6c0.2,0,0.4,0,0.5,0.1l0.1,0.1c0.2,0.1,0.4,0.2,0.6,0.4c0.3,0.3,0.6,0.5,0.8,0.8
					l0.3,0.3c0.8,0.8,0.8,1.6,0,2.4c-0.3,0.3-0.4,0.7-0.4,1.1c0,0.9,0.7,1.6,1.6,1.6c1,0,1.6,0.7,1.6,1.6c0,0.6,0,1.1,0,1.6
					c0,0.9-0.7,1.6-1.6,1.6c-0.2,0-0.4,0-0.5,0.1c-0.6,0.1-1,0.5-1.1,1.1c-0.2,0.6,0,1.1,0.4,1.6c0.7,0.8,0.7,1.7,0,2.4l-1,1
					c-0.8,0.8-1.7,0.8-2.4,0c-0.3-0.3-0.7-0.4-1.1-0.4c-0.4,0-0.9,0.1-1.2,0.4c-0.3,0.3-0.5,0.7-0.5,1.2c0,1-0.7,1.6-1.7,1.6
					C88.3,96,88.1,96,87.8,96z M83.7,91.1c0.4,0,0.8,0.1,1.3,0.3c1.2,0.5,1.9,1.6,2,3c0.6,0,1.1,0,1.6,0c0,0,0,0,0,0c0,0,0,0,0,0
					c0-0.9,0.4-1.7,1-2.3c0.6-0.6,1.5-0.9,2.3-0.9c0.8,0,1.5,0.3,2.1,0.9c0,0,0.1,0.1,0.1,0.1c0,0,0.1,0,0.1-0.1l1-1
					c0,0,0,0,0.1-0.1c0,0,0,0-0.1-0.1c-0.8-0.9-1.1-2-0.8-3.1c0.3-1.1,1.2-1.9,2.3-2.2c0.3-0.1,0.5-0.1,0.8-0.1c0-0.5,0-1,0-1.5
					l0-0.2c-1.9,0-3.3-1.4-3.3-3.2c0-0.8,0.3-1.6,0.9-2.2c0,0,0.1-0.1,0.1-0.1c0,0,0-0.1-0.1-0.1L95,77.8c-0.2-0.3-0.5-0.5-0.8-0.7
					c0,0,0,0,0,0c0,0,0,0-0.1,0.1c-0.8,0.8-2,1.1-3.1,0.8c-1.1-0.3-1.9-1.2-2.2-2.3c-0.1-0.3-0.1-0.6-0.1-0.8c-0.4,0-0.8,0-1.2,0
					l-0.4,0c0,0-0.1,0-0.1,0c0,0,0,0,0,0.1c0,0.9-0.4,1.7-1,2.3c-0.6,0.6-1.4,0.9-2.3,0.9c-0.8,0-1.5-0.3-2.1-0.9
					c0,0-0.1-0.1-0.1-0.1c0,0-0.1,0-0.1,0.1l-1,1c1,1.1,1.2,2.3,0.7,3.6c-0.5,1.2-1.6,2-3,2c0,0.6,0,1.1,0,1.6c1.4,0.1,2.5,0.8,3,2
					c0.5,1.2,0.3,2.5-0.7,3.5c0,0,0,0,0,0.1c0,0,0,0,0,0c0.4,0.4,0.7,0.7,1.1,1.1c0,0.1,0,0,0.1,0C82.2,91.4,82.9,91.1,83.7,91.1z
					 M94.2,92.1L94.2,92.1L94.2,92.1z M95.4,78.2L95.4,78.2L95.4,78.2z"/>
			</g>
		</g>
	</g>
</g>
</svg>
