<?xml version="1.0" encoding="utf-8"?>
<!-- Generator: Adobe Illustrator 26.3.1, SVG Export Plug-In . SVG Version: 6.00 Build 0)  -->
<svg version="1.1" id="Layer_1" xmlns="http://www.w3.org/2000/svg" xmlns:xlink="http://www.w3.org/1999/xlink" x="0px" y="0px"
	 viewBox="0 0 200 200" style="enable-background:new 0 0 200 200;" xml:space="preserve">
<style type="text/css">
	.st0{fill:#0067FC;}
</style>
<g>
	<g>
		<path class="st0" d="M100,172.7c-1,0-1.9,0-2.9-0.1c-40.1-1.6-71.4-35.5-69.8-75.5c0.8-19.4,9-37.4,23.3-50.5
			c14.3-13.2,32.8-20,52.2-19.2c19.4,0.8,37.4,9,50.5,23.3s20,32.8,19.2,52.2l0,0C171.1,142,138.8,172.7,100,172.7z M99.9,31.3
			c-17.3,0-33.8,6.4-46.6,18.2C39.9,62,32.1,78.9,31.3,97.3c-0.7,18.3,5.7,35.9,18.2,49.3c12.5,13.5,29.4,21.3,47.8,22
			c37.8,1.5,69.9-28.1,71.4-65.9l2,0.1l-2-0.1c0.7-18.3-5.7-35.9-18.2-49.3c-12.5-13.5-29.4-21.3-47.8-22
			C101.8,31.3,100.9,31.3,99.9,31.3z"/>
	</g>
	<g>
		<g id="Group_263_00000025417788661569940940000007198905186385586344_" transform="translate(-598.5 -520.001)">
			<g id="Group_259_00000083056358764864436770000016603868421857188271_" transform="translate(549.903 487.744)">
				<g id="Ellipse_9_00000114036771665184081930000007465102064194328711_">
					<path class="st0" d="M174.4,136.8c-3.5,0-6.3-2.8-6.3-6.3s2.8-6.3,6.3-6.3s6.3,2.8,6.3,6.3S177.9,136.8,174.4,136.8z
						 M174.4,126.7c-2.1,0-3.8,1.7-3.8,3.8s1.7,3.8,3.8,3.8s3.8-1.7,3.8-3.8S176.5,126.7,174.4,126.7z"/>
				</g>
				<g id="Path_16_00000044159412359862842060000006685869908305697455_">
					<path class="st0" d="M182.6,146.4c-0.7,0-1.2-0.6-1.2-1.2c0-3.9-3.1-7-7-7s-7,3.1-7,7c0,0.7-0.6,1.2-1.2,1.2s-1.2-0.6-1.2-1.2
						c0-5.2,4.3-9.5,9.5-9.5s9.5,4.3,9.5,9.5C183.9,145.9,183.3,146.4,182.6,146.4z"/>
				</g>
			</g>
		</g>
	</g>
	<g>
		<path class="st0" d="M113.3,143.2h-42c-3,0-5.5-2.5-5.5-5.5V90c0-0.7,0.6-1.2,1.2-1.2s1.2,0.6,1.2,1.2v47.7c0,1.7,1.3,3,3,3h41.5
			l11.4-12.8v-7c0-0.7,0.6-1.2,1.2-1.2s1.2,0.6,1.2,1.2v7.5c0,0.3-0.1,0.6-0.3,0.8l-12.1,13.5C114,143.1,113.7,143.2,113.3,143.2z"
			/>
	</g>
	<g>
		<path class="st0" d="M67,94.4c-0.7,0-1.2-0.6-1.2-1.2v-31c0-3,2.5-5.5,5.5-5.5h49.8c3,0,5.5,2.5,5.5,5.5v22.6
			c0,0.7-0.6,1.2-1.2,1.2s-1.2-0.6-1.2-1.2V62.2c0-1.7-1.3-3-3-3H71.3c-1.7,0-3,1.3-3,3v31C68.3,93.9,67.7,94.4,67,94.4z"/>
	</g>
	<g>
		<path class="st0" d="M112.3,142.8c-0.7,0-1.2-0.6-1.2-1.2v-8.8c0-3,2.5-5.5,5.5-5.5h8.8c0.7,0,1.2,0.6,1.2,1.2s-0.6,1.2-1.2,1.2
			h-8.8c-1.7,0-3,1.3-3,3v8.8C113.6,142.2,113,142.8,112.3,142.8z"/>
	</g>
	<g>
		<g>
			<path class="st0" d="M103.8,108H76c-0.6,0-1.2-0.5-1.2-1.2s0.5-1.2,1.2-1.2h27.8c0.6,0,1.2,0.5,1.2,1.2S104.4,108,103.8,108z"/>
		</g>
		<g>
			<path class="st0" d="M102,115.1H76c-0.6,0-1.2-0.5-1.2-1.2s0.5-1.2,1.2-1.2H102c0.6,0,1.2,0.5,1.2,1.2S102.7,115.1,102,115.1z"/>
		</g>
		<g>
			<path class="st0" d="M98.5,122.1H76c-0.6,0-1.2-0.5-1.2-1.2s0.5-1.2,1.2-1.2h22.5c0.6,0,1.2,0.5,1.2,1.2S99.2,122.1,98.5,122.1z"
				/>
		</g>
		<g>
			<path class="st0" d="M92.3,129.2H76c-0.6,0-1.2-0.5-1.2-1.2s0.5-1.2,1.2-1.2h16.4c0.6,0,1.2,0.5,1.2,1.2S93,129.2,92.3,129.2z"/>
		</g>
	</g>
	<g>
		<path class="st0" d="M125.4,121.6c-10,0-18.2-8.2-18.2-18.2s8.2-18.2,18.2-18.2s18.2,8.2,18.2,18.2S135.4,121.6,125.4,121.6z
			 M125.4,87.5c-8.7,0-15.9,7.1-15.9,15.9c0,8.7,7.1,15.9,15.9,15.9s15.9-7.1,15.9-15.9C141.2,94.7,134.1,87.5,125.4,87.5z"/>
	</g>
	<g>
		<g>
			<path class="st0" d="M102,94.2L102,94.2c-0.3,0-0.6-0.1-0.8-0.4c-0.9-1.2-9.1-12-9.1-17.1c0-5.5,4.4-9.9,9.9-9.9s9.9,4.4,9.9,9.9
				c0,5.1-8.2,15.9-9.1,17.1C102.7,94.1,102.4,94.2,102,94.2z M102,68.8c-4.3,0-7.9,3.5-7.9,7.9c0,3.4,5.1,11,7.9,14.8
				c2.8-3.8,7.9-11.4,7.9-14.8C109.9,72.3,106.4,68.8,102,68.8z"/>
		</g>
		<g>
			<path class="st0" d="M102,80.9c-2.7,0-4.9-2.2-4.9-4.9s2.2-4.9,4.9-4.9c2.7,0,4.9,2.2,4.9,4.9S104.7,80.9,102,80.9z M102,73.2
				c-1.6,0-2.8,1.3-2.8,2.8c0,1.6,1.3,2.8,2.8,2.8s2.8-1.3,2.8-2.8C104.9,74.5,103.6,73.2,102,73.2z"/>
		</g>
	</g>
	<g>
		<g>
			<path class="st0" d="M85.8,94.8c-0.2,0-0.4-0.1-0.5-0.3c-0.6-0.8-5.9-7.9-5.9-11.2c0-3.6,2.9-6.5,6.5-6.5s6.5,2.9,6.5,6.5
				c0,3.3-5.3,10.4-5.9,11.2C86.3,94.7,86.1,94.8,85.8,94.8z M85.8,78.2c-2.8,0-5.1,2.3-5.1,5.1c0,2.2,3.3,7.2,5.1,9.7
				c1.8-2.5,5.1-7.5,5.1-9.7C91,80.5,88.7,78.2,85.8,78.2z"/>
		</g>
		<g>
			<path class="st0" d="M85.8,86.1c-1.8,0-3.2-1.4-3.2-3.2c0-1.8,1.4-3.2,3.2-3.2c1.8,0,3.2,1.4,3.2,3.2
				C89,84.7,87.6,86.1,85.8,86.1z M85.8,81.1c-1,0-1.8,0.8-1.8,1.8s0.8,1.9,1.8,1.9s1.9-0.8,1.9-1.9S86.9,81.1,85.8,81.1z"/>
		</g>
	</g>
</g>
</svg>
