<?xml version="1.0" encoding="utf-8"?>
<!-- Generator: Adobe Illustrator 26.3.1, SVG Export Plug-In . SVG Version: 6.00 Build 0)  -->
<svg version="1.1" id="Layer_1" xmlns="http://www.w3.org/2000/svg" xmlns:xlink="http://www.w3.org/1999/xlink" x="0px" y="0px"
	 viewBox="0 0 200 200" style="enable-background:new 0 0 200 200;" xml:space="preserve">
<style type="text/css">
	.st0{fill:#0067FC;}
</style>
<g>
	<g>
		<g>
			<path class="st0" d="M136.2,79.8H109c-0.7,0-1.2-0.6-1.2-1.2v-8.4c0-0.7,0.6-1.2,1.2-1.2h27.2c0.7,0,1.2,0.6,1.2,1.2v8.4
				C137.4,79.2,136.9,79.8,136.2,79.8z M110.2,77.3h24.7v-5.9h-24.7V77.3z"/>
		</g>
		<g>
			<path class="st0" d="M136.2,94.7H109c-0.7,0-1.2-0.6-1.2-1.2V85c0-0.7,0.6-1.2,1.2-1.2h27.2c0.7,0,1.2,0.6,1.2,1.2v8.4
				C137.4,94.1,136.9,94.7,136.2,94.7z M110.2,92.2h24.7v-5.9h-24.7V92.2z"/>
		</g>
		<g>
			<path class="st0" d="M136.2,109.6H109c-0.7,0-1.2-0.6-1.2-1.2v-8.4c0-0.7,0.6-1.2,1.2-1.2h27.2c0.7,0,1.2,0.6,1.2,1.2v8.4
				C137.4,109,136.9,109.6,136.2,109.6z M110.2,107.1h24.7v-5.9h-24.7V107.1z"/>
		</g>
		<g>
			<path class="st0" d="M91,103.1H63.8c-0.7,0-1.2-0.6-1.2-1.2v-8.4c0-0.7,0.6-1.2,1.2-1.2H91c0.7,0,1.2,0.6,1.2,1.2v8.4
				C92.3,102.5,91.7,103.1,91,103.1z M65.1,100.6h24.7v-5.9H65.1V100.6z"/>
		</g>
		<g>
			<path class="st0" d="M91,118H63.8c-0.7,0-1.2-0.6-1.2-1.2v-8.4c0-0.7,0.6-1.2,1.2-1.2H91c0.7,0,1.2,0.6,1.2,1.2v8.4
				C92.3,117.4,91.7,118,91,118z M65.1,115.5h24.7v-5.9H65.1V115.5z"/>
		</g>
		<g>
			<path class="st0" d="M91,132.9H63.8c-0.7,0-1.2-0.6-1.2-1.2v-8.4c0-0.7,0.6-1.2,1.2-1.2H91c0.7,0,1.2,0.6,1.2,1.2v8.4
				C92.3,132.3,91.7,132.9,91,132.9z M65.1,130.4h24.7v-5.9H65.1V130.4z"/>
		</g>
		<g>
			<path class="st0" d="M108.3,134.9c-0.3,0-0.6-0.1-0.9-0.4l-6.2-6.2c-0.2-0.2-0.4-0.6-0.4-0.9s0.1-0.6,0.4-0.9l6.3-6.3
				c0.5-0.5,1.3-0.5,1.8,0s0.5,1.3,0,1.8l-5.4,5.4l5.3,5.3c0.5,0.5,0.5,1.3,0,1.8C108.9,134.7,108.6,134.9,108.3,134.9z"/>
		</g>
		<g>
			<path class="st0" d="M125.5,128.7h-23.4c-0.7,0-1.2-0.6-1.2-1.2s0.6-1.2,1.2-1.2h22.1v-12.6c0-0.7,0.6-1.2,1.2-1.2
				s1.2,0.6,1.2,1.2v13.8C126.7,128.1,126.1,128.7,125.5,128.7z"/>
		</g>
		<g>
			<path class="st0" d="M85.6,80.2c-0.3,0-0.6-0.1-0.9-0.4c-0.5-0.5-0.5-1.3,0-1.8l5.4-5.4l-5.3-5.3c-0.5-0.5-0.5-1.3,0-1.8
				c0.5-0.5,1.3-0.5,1.8,0l6.2,6.2c0.5,0.5,0.5,1.3,0,1.8l-6.3,6.3C86.2,80,85.9,80.2,85.6,80.2z"/>
		</g>
		<g>
			<path class="st0" d="M68.6,87.7c-0.7,0-1.2-0.6-1.2-1.2V72.6c0-0.7,0.6-1.2,1.2-1.2h23.4c0.7,0,1.2,0.6,1.2,1.2s-0.6,1.2-1.2,1.2
				H69.8v12.6C69.8,87.1,69.3,87.7,68.6,87.7z"/>
		</g>
		<g>
			<path class="st0" d="M77.4,98.9h-9.2c-0.7,0-1.2-0.6-1.2-1.2s0.6-1.2,1.2-1.2h9.2c0.7,0,1.2,0.6,1.2,1.2S78.1,98.9,77.4,98.9z"/>
		</g>
		<g>
			<path class="st0" d="M86.7,98.9h-5.3c-0.7,0-1.2-0.6-1.2-1.2s0.6-1.2,1.2-1.2h5.3c0.7,0,1.2,0.6,1.2,1.2S87.4,98.9,86.7,98.9z"/>
		</g>
		<g>
			<path class="st0" d="M77.4,113.8h-9.2c-0.7,0-1.2-0.6-1.2-1.2s0.6-1.2,1.2-1.2h9.2c0.7,0,1.2,0.6,1.2,1.2S78.1,113.8,77.4,113.8z
				"/>
		</g>
		<g>
			<path class="st0" d="M86.7,113.8h-5.3c-0.7,0-1.2-0.6-1.2-1.2s0.6-1.2,1.2-1.2h5.3c0.7,0,1.2,0.6,1.2,1.2S87.4,113.8,86.7,113.8z
				"/>
		</g>
		<g>
			<path class="st0" d="M77.4,128.7h-9.2c-0.7,0-1.2-0.6-1.2-1.2s0.6-1.2,1.2-1.2h9.2c0.7,0,1.2,0.6,1.2,1.2S78.1,128.7,77.4,128.7z
				"/>
		</g>
		<g>
			<path class="st0" d="M86.7,128.7h-5.3c-0.7,0-1.2-0.6-1.2-1.2s0.6-1.2,1.2-1.2h5.3c0.7,0,1.2,0.6,1.2,1.2S87.4,128.7,86.7,128.7z
				"/>
		</g>
		<g>
			<path class="st0" d="M131.8,75.6h-9.2c-0.7,0-1.2-0.6-1.2-1.2s0.6-1.2,1.2-1.2h9.2c0.7,0,1.2,0.6,1.2,1.2S132.5,75.6,131.8,75.6z
				"/>
		</g>
		<g>
			<path class="st0" d="M118.7,75.6h-5.3c-0.7,0-1.2-0.6-1.2-1.2s0.6-1.2,1.2-1.2h5.3c0.7,0,1.2,0.6,1.2,1.2S119.3,75.6,118.7,75.6z
				"/>
		</g>
		<g>
			<path class="st0" d="M131.8,90.5h-9.2c-0.7,0-1.2-0.6-1.2-1.2s0.6-1.2,1.2-1.2h9.2c0.7,0,1.2,0.6,1.2,1.2S132.5,90.5,131.8,90.5z
				"/>
		</g>
		<g>
			<path class="st0" d="M118.7,90.5h-5.3c-0.7,0-1.2-0.6-1.2-1.2s0.6-1.2,1.2-1.2h5.3c0.7,0,1.2,0.6,1.2,1.2S119.3,90.5,118.7,90.5z
				"/>
		</g>
		<g>
			<path class="st0" d="M131.8,105.4h-9.2c-0.7,0-1.2-0.6-1.2-1.2s0.6-1.2,1.2-1.2h9.2c0.7,0,1.2,0.6,1.2,1.2
				S132.5,105.4,131.8,105.4z"/>
		</g>
		<g>
			<path class="st0" d="M118.7,105.4h-5.3c-0.7,0-1.2-0.6-1.2-1.2s0.6-1.2,1.2-1.2h5.3c0.7,0,1.2,0.6,1.2,1.2
				S119.3,105.4,118.7,105.4z"/>
		</g>
	</g>
	<g>
		<path class="st0" d="M100,172.7c-40.1,0-72.7-32.6-72.7-72.7S59.9,27.3,100,27.3s72.7,32.6,72.7,72.7S140.1,172.7,100,172.7z
			 M100,31.3c-37.9,0-68.7,30.8-68.7,68.7c0,37.9,30.8,68.7,68.7,68.7c37.9,0,68.7-30.8,68.7-68.7C168.7,62.1,137.9,31.3,100,31.3z"
			/>
	</g>
</g>
</svg>
