<?xml version="1.0" encoding="utf-8"?>
<!-- Generator: Adobe Illustrator 26.3.1, SVG Export Plug-In . SVG Version: 6.00 Build 0)  -->
<svg version="1.1" id="Layer_1" xmlns="http://www.w3.org/2000/svg" xmlns:xlink="http://www.w3.org/1999/xlink" x="0px" y="0px"
	 viewBox="0 0 200 200" style="enable-background:new 0 0 200 200;" xml:space="preserve">
<style type="text/css">
	.st0{fill:#0067FC;}
</style>
<g>
	<g>
		<path class="st0" d="M100,172.7c-1,0-1.9,0-2.9-0.1c-40.1-1.6-71.4-35.5-69.8-75.5c0.8-19.4,9-37.4,23.3-50.5
			c14.3-13.2,32.8-20,52.2-19.2c19.4,0.8,37.4,9,50.5,23.3s20,32.8,19.2,52.2l0,0C171.1,142,138.8,172.7,100,172.7z M99.9,31.3
			c-17.3,0-33.8,6.4-46.6,18.2C39.9,62,32.1,78.9,31.3,97.3c-0.7,18.3,5.7,35.9,18.2,49.3c12.5,13.5,29.4,21.3,47.8,22
			c37.8,1.5,69.9-28.1,71.4-65.9l2,0.1l-2-0.1c0.7-18.3-5.7-35.9-18.2-49.3c-12.5-13.5-29.4-21.3-47.8-22
			C101.8,31.3,100.9,31.3,99.9,31.3z"/>
	</g>
	<g>
		<g>
			<path class="st0" d="M138.5,78.5h-28.9c-0.7,0-1.2-0.6-1.2-1.2v-8.9c0-0.7,0.6-1.2,1.2-1.2h28.9c0.7,0,1.2,0.6,1.2,1.2v8.9
				C139.7,77.9,139.1,78.5,138.5,78.5z M110.8,76h26.4v-6.4h-26.4V76z"/>
		</g>
		<g>
			<path class="st0" d="M138.5,94.3h-28.9c-0.7,0-1.2-0.6-1.2-1.2v-8.9c0-0.7,0.6-1.2,1.2-1.2h28.9c0.7,0,1.2,0.6,1.2,1.2V93
				C139.7,93.7,139.1,94.3,138.5,94.3z M110.8,91.8h26.4v-6.4h-26.4V91.8z"/>
		</g>
		<g>
			<path class="st0" d="M138.5,110.1h-28.9c-0.7,0-1.2-0.6-1.2-1.2v-8.9c0-0.7,0.6-1.2,1.2-1.2h28.9c0.7,0,1.2,0.6,1.2,1.2v8.9
				C139.7,109.5,139.1,110.1,138.5,110.1z M110.8,107.6h26.4v-6.4h-26.4V107.6z"/>
		</g>
		<g>
			<path class="st0" d="M90.5,103.2H61.5c-0.7,0-1.2-0.6-1.2-1.2V93c0-0.7,0.6-1.2,1.2-1.2h28.9c0.7,0,1.2,0.6,1.2,1.2v8.9
				C91.7,102.7,91.1,103.2,90.5,103.2z M62.8,100.7h26.4v-6.4H62.8V100.7z"/>
		</g>
		<g>
			<path class="st0" d="M90.5,119H61.5c-0.7,0-1.2-0.6-1.2-1.2v-8.9c0-0.7,0.6-1.2,1.2-1.2h28.9c0.7,0,1.2,0.6,1.2,1.2v8.9
				C91.7,118.5,91.1,119,90.5,119z M62.8,116.5h26.4v-6.4H62.8V116.5z"/>
		</g>
		<g>
			<path class="st0" d="M90.5,134.9H61.5c-0.7,0-1.2-0.6-1.2-1.2v-8.9c0-0.7,0.6-1.2,1.2-1.2h28.9c0.7,0,1.2,0.6,1.2,1.2v8.9
				C91.7,134.3,91.1,134.9,90.5,134.9z M62.8,132.4h26.4v-6.4H62.8V132.4z"/>
		</g>
		<g>
			<path class="st0" d="M108.8,137c-0.3,0-0.6-0.1-0.9-0.4l-6.6-6.6c-0.5-0.5-0.5-1.3,0-1.8l6.7-6.7c0.5-0.5,1.3-0.5,1.8,0
				s0.5,1.3,0,1.8l-5.8,5.8l5.7,5.7c0.5,0.5,0.5,1.3,0,1.8C109.4,136.8,109.1,137,108.8,137z"/>
		</g>
		<g>
			<path class="st0" d="M127.1,130.4h-24.8c-0.7,0-1.2-0.6-1.2-1.2s0.6-1.2,1.2-1.2h23.6v-13.5c0-0.7,0.6-1.2,1.2-1.2
				s1.2,0.6,1.2,1.2v14.7C128.3,129.8,127.7,130.4,127.1,130.4z"/>
		</g>
		<g>
			<path class="st0" d="M84.7,78.8c-0.3,0-0.6-0.1-0.9-0.4c-0.5-0.5-0.5-1.3,0-1.8l5.8-5.8l-5.7-5.7c-0.5-0.5-0.5-1.3,0-1.8
				c0.5-0.5,1.3-0.5,1.8,0l6.6,6.6c0.5,0.5,0.5,1.3,0,1.8l-6.7,6.7C85.3,78.7,85,78.8,84.7,78.8z"/>
		</g>
		<g>
			<path class="st0" d="M66.6,86.8c-0.7,0-1.2-0.6-1.2-1.2V70.9c0-0.7,0.6-1.2,1.2-1.2h24.8c0.7,0,1.2,0.6,1.2,1.2s-0.6,1.2-1.2,1.2
				H67.8v13.5C67.8,86.3,67.3,86.8,66.6,86.8z"/>
		</g>
		<g>
			<path class="st0" d="M76,98.7h-9.8c-0.7,0-1.2-0.6-1.2-1.2s0.6-1.2,1.2-1.2H76c0.7,0,1.2,0.6,1.2,1.2S76.7,98.7,76,98.7z"/>
		</g>
		<g>
			<path class="st0" d="M85.8,98.7h-5.7c-0.7,0-1.2-0.6-1.2-1.2s0.6-1.2,1.2-1.2h5.7c0.7,0,1.2,0.6,1.2,1.2S86.5,98.7,85.8,98.7z"/>
		</g>
		<g>
			<path class="st0" d="M76,114.6h-9.8c-0.7,0-1.2-0.6-1.2-1.2s0.6-1.2,1.2-1.2H76c0.7,0,1.2,0.6,1.2,1.2S76.7,114.6,76,114.6z"/>
		</g>
		<g>
			<path class="st0" d="M85.8,114.6h-5.7c-0.7,0-1.2-0.6-1.2-1.2s0.6-1.2,1.2-1.2h5.7c0.7,0,1.2,0.6,1.2,1.2S86.5,114.6,85.8,114.6z
				"/>
		</g>
		<g>
			<path class="st0" d="M76,130.4h-9.8c-0.7,0-1.2-0.6-1.2-1.2s0.6-1.2,1.2-1.2H76c0.7,0,1.2,0.6,1.2,1.2S76.7,130.4,76,130.4z"/>
		</g>
		<g>
			<path class="st0" d="M85.8,130.4h-5.7c-0.7,0-1.2-0.6-1.2-1.2s0.6-1.2,1.2-1.2h5.7c0.7,0,1.2,0.6,1.2,1.2S86.5,130.4,85.8,130.4z
				"/>
		</g>
		<g>
			<path class="st0" d="M133.8,74H124c-0.7,0-1.2-0.6-1.2-1.2s0.6-1.2,1.2-1.2h9.8c0.7,0,1.2,0.6,1.2,1.2S134.5,74,133.8,74z"/>
		</g>
		<g>
			<path class="st0" d="M119.8,74h-5.7c-0.7,0-1.2-0.6-1.2-1.2s0.6-1.2,1.2-1.2h5.7c0.7,0,1.2,0.6,1.2,1.2S120.5,74,119.8,74z"/>
		</g>
		<g>
			<path class="st0" d="M133.8,89.8H124c-0.7,0-1.2-0.6-1.2-1.2s0.6-1.2,1.2-1.2h9.8c0.7,0,1.2,0.6,1.2,1.2S134.5,89.8,133.8,89.8z"
				/>
		</g>
		<g>
			<path class="st0" d="M119.8,89.8h-5.7c-0.7,0-1.2-0.6-1.2-1.2s0.6-1.2,1.2-1.2h5.7c0.7,0,1.2,0.6,1.2,1.2S120.5,89.8,119.8,89.8z
				"/>
		</g>
		<g>
			<path class="st0" d="M133.8,105.6H124c-0.7,0-1.2-0.6-1.2-1.2s0.6-1.2,1.2-1.2h9.8c0.7,0,1.2,0.6,1.2,1.2
				S134.5,105.6,133.8,105.6z"/>
		</g>
		<g>
			<path class="st0" d="M119.8,105.6h-5.7c-0.7,0-1.2-0.6-1.2-1.2s0.6-1.2,1.2-1.2h5.7c0.7,0,1.2,0.6,1.2,1.2
				S120.5,105.6,119.8,105.6z"/>
		</g>
	</g>
</g>
</svg>
