<?xml version="1.0" encoding="utf-8"?>
<!-- Generator: Adobe Illustrator 26.3.1, SVG Export Plug-In . SVG Version: 6.00 Build 0)  -->
<svg version="1.1" id="Layer_1" xmlns="http://www.w3.org/2000/svg" xmlns:xlink="http://www.w3.org/1999/xlink" x="0px" y="0px"
	 viewBox="0 0 200 200" style="enable-background:new 0 0 200 200;" xml:space="preserve">
<style type="text/css">
	.st0{fill:#0067FC;}
</style>
<g>
	<g>
		<path class="st0" d="M100,172.7c-40.1,0-72.7-32.6-72.7-72.7S59.9,27.3,100,27.3s72.7,32.6,72.7,72.7S140.1,172.7,100,172.7z
			 M100,31.3c-37.9,0-68.7,30.8-68.7,68.7c0,37.9,30.8,68.7,68.7,68.7c37.9,0,68.7-30.8,68.7-68.7C168.7,62.1,137.9,31.3,100,31.3z"
			/>
	</g>
	<g>
		<path class="st0" d="M122.1,133.1H77.9c-4,0-7.2-3.2-7.2-7.2V74.1c0-4,3.2-7.2,7.2-7.2h44.3c4,0,7.2,3.2,7.2,7.2v51.7
			C129.3,129.8,126.1,133.1,122.1,133.1z M77.9,69.4c-2.6,0-4.7,2.1-4.7,4.7v51.7c0,2.6,2.1,4.7,4.7,4.7h44.3c2.6,0,4.7-2.1,4.7-4.7
			V74.1c0-2.6-2.1-4.7-4.7-4.7H77.9z"/>
	</g>
	<g>
		<g>
			<g>
				<path class="st0" d="M104.3,95.5c-3.8,0-6.8-3.1-6.8-6.8s3.1-6.8,6.8-6.8c3.8,0,6.8,3.1,6.8,6.8S108,95.5,104.3,95.5z
					 M104.3,84.3c-2.4,0-4.3,2-4.3,4.3s2,4.3,4.3,4.3c2.4,0,4.3-2,4.3-4.3S106.7,84.3,104.3,84.3z"/>
			</g>
			<g>
				<path class="st0" d="M104.3,103.3c-0.3,0-0.7,0-1,0c-1.4,0-2.3-0.9-2.3-2.3c0-0.5-0.2-1-0.6-1.3c-0.3-0.3-0.8-0.5-1.3-0.5
					c-0.5,0-0.8,0.2-1.2,0.5c-1.1,1-2.3,1-3.4-0.1l-1.3-1.3c-1-1-1-2.3,0-3.3c0.5-0.5,0.6-1.1,0.4-1.8c-0.2-0.6-0.6-1.1-1.3-1.2
					c-0.1,0-0.4,0-0.6-0.1c-1.2-0.1-2.2-1-2.2-2.2c0-0.7,0-1.3,0-2c0-1.4,0.9-2.4,2.3-2.4c1,0,1.8-0.8,1.8-1.8
					c0-0.5-0.2-0.9-0.5-1.2c-1-1.1-1-2.3,0.1-3.4l0.4-0.4c0.3-0.3,0.7-0.7,1-1c0.3-0.2,0.5-0.4,0.7-0.5c0.1,0,0.1-0.1,0.2-0.1
					c0.3-0.1,0.5-0.2,0.8-0.1c0.7,0.1,1.1,0.5,1.5,0.8c0.5,0.4,1.1,0.6,1.7,0.4c0.6-0.2,1.1-0.6,1.2-1.3c0-0.2,0-0.4,0.1-0.6
					c0.1-1.2,1-2.2,2.2-2.2c0.5,0,1,0,1.6,0l0.4,0c1.4,0,2.3,0.9,2.4,2.3c0,0.5,0.2,1,0.6,1.3c0.3,0.3,0.8,0.5,1.3,0.5
					c0.5,0,0.8-0.2,1.2-0.5c1.1-1,2.3-1,3.4,0.1l0.4,0.4c0.3,0.3,0.6,0.6,0.9,0.9c0.9,0.9,1,2.2,0,3.2c-0.6,0.6-0.7,1.2-0.4,2
					c0.3,0.7,0.8,1.1,1.7,1.1c1.3,0,2.2,1,2.2,2.3c0,0.7,0,1.4,0,2c0,1.3-0.9,2.3-2.2,2.3c-0.9,0-1.4,0.4-1.7,1.1
					c-0.3,0.7-0.2,1.3,0.4,2c0.9,1,0.9,2.3,0,3.2c-0.5,0.5-0.9,0.9-1.4,1.4c-1,0.9-2.2,1-3.2,0c-0.6-0.6-1.2-0.7-2-0.4
					c-0.7,0.3-1.1,0.8-1.1,1.7c0,1.3-1,2.2-2.3,2.3C104.9,103.3,104.6,103.3,104.3,103.3z M103.4,100.8c0.6,0,1.1,0,1.6,0
					c0.1-1.8,1.1-3.1,2.6-3.8c1.6-0.7,3.2-0.4,4.5,0.8c0.4-0.4,0.8-0.8,1.2-1.1c-1.2-1.4-1.4-3-0.8-4.6c0.7-1.6,2-2.5,3.7-2.6
					c0-0.6,0-1.1,0-1.6c-1.8-0.1-3.1-1-3.8-2.6c-0.7-1.6-0.4-3.2,0.8-4.5c-0.3-0.3-0.5-0.5-0.8-0.8l-0.4-0.4
					c-0.8,0.7-1.7,1.1-2.8,1.1c-1.1,0-2.2-0.4-3.1-1.2c-0.8-0.8-1.3-1.8-1.3-2.9l-0.3,0c-0.4,0-0.9,0-1.3,0c0,0.3,0,0.6-0.1,0.9
					c-0.4,1.5-1.5,2.6-2.9,3.1c-1.4,0.4-3,0.1-4.1-1c-0.3,0.3-0.6,0.5-0.8,0.8l-0.3,0.3c0.7,0.8,1.1,1.8,1.1,2.8
					c0,2.3-1.8,4.2-4.1,4.3c0,0.5,0,1.1,0,1.6c0.3,0,0.6,0,0.9,0.1c1.5,0.4,2.6,1.5,3,2.9c0.4,1.4,0.1,3-1,4.1l1.1,1.1
					c0.8-0.7,1.7-1.1,2.8-1.1c1.2,0,2.3,0.4,3.1,1.2C102.9,98.6,103.4,99.6,103.4,100.8z M92.2,87.6l-1.3,0l1.2,0.1
					C92.1,87.7,92.2,87.7,92.2,87.6z M105.3,76.6L105.3,76.6L105.3,76.6z"/>
			</g>
		</g>
		<g>
			<g>
				<path class="st0" d="M90.3,116.2c-3.1,0-5.6-2.5-5.6-5.6s2.5-5.6,5.6-5.6s5.6,2.5,5.6,5.6S93.3,116.2,90.3,116.2z M90.3,107.6
					c-1.7,0-3.1,1.4-3.1,3.1s1.4,3.1,3.1,3.1c1.7,0,3.1-1.4,3.1-3.1S91.9,107.6,90.3,107.6z"/>
			</g>
			<g>
				<path class="st0" d="M89.5,122.2c-1.2,0-2.1-0.8-2.1-2c0-0.3-0.1-0.6-0.3-0.8c-0.1-0.1-0.4-0.3-0.8-0.3c-0.3,0-0.5,0.1-0.7,0.3
					c-0.9,0.9-2.1,0.9-3,0l-1-1c-0.9-0.9-0.9-2,0-3c0.4-0.4,0.3-0.9,0.3-1.1c-0.1-0.2-0.2-0.6-0.8-0.7c-0.1,0-0.3,0-0.4,0
					c-1.1-0.1-1.9-0.9-2-2c0-0.5,0-1,0-1.5c0-1.3,0.8-2.1,2-2.2c0.6,0,1.1-0.5,1.1-1.1c0-0.3-0.1-0.5-0.3-0.7
					c-0.9-0.9-0.9-2.1,0.1-3l0.3-0.3c0.3-0.3,0.5-0.5,0.8-0.8c0.2-0.2,0.5-0.3,0.6-0.4l0.1-0.1c0.3-0.1,0.6-0.2,0.8-0.1
					c0.6,0.1,1,0.4,1.3,0.7c0.4,0.4,0.9,0.3,1,0.3c0.2-0.1,0.6-0.2,0.7-0.8c0-0.1,0-0.3,0-0.4c0.1-1.1,0.9-1.9,2-1.9
					c0.4,0,0.8,0,1.1,0l0.4,0c1.3,0,2.1,0.8,2.1,2.1c0,0.3,0.1,0.6,0.3,0.8c0.2,0.2,0.5,0.3,0.8,0.3c0.3,0,0.5-0.1,0.7-0.3
					c1-0.9,2.1-0.9,3,0.1l1,1c0.8,0.8,0.9,2,0,2.9c-0.4,0.5-0.4,0.8-0.3,1.2c0.2,0.4,0.4,0.7,1.1,0.7c1.1,0,2,0.9,2,2
					c0,0.5,0,1,0,1.6c0,1.2-0.8,2-2,2.1c-0.6,0-0.9,0.3-1.1,0.7c-0.2,0.4-0.2,0.7,0.3,1.2c0.8,0.9,0.8,2,0,2.9
					c-0.4,0.4-0.7,0.7-1.1,1.1c-0.8,0.8-2,0.8-2.9,0c-0.5-0.4-0.8-0.4-1.2-0.3c-0.4,0.2-0.7,0.4-0.7,1c0,1.2-0.9,2-2.1,2H89.5z
					 M89.9,119.7h0.7c0.2-1.3,0.9-2.3,2.2-2.9c1.3-0.5,2.5-0.4,3.6,0.5c0.2-0.2,0.3-0.3,0.5-0.5c-0.8-1.1-1-2.3-0.5-3.6
					c0.5-1.2,1.5-2,2.9-2.2c0-0.2,0-0.5,0-0.7c-1.3-0.2-2.3-0.9-2.9-2.2c-0.5-1.3-0.3-2.5,0.5-3.6l-0.5-0.5
					c-0.6,0.5-1.4,0.7-2.1,0.8c-1,0-1.9-0.3-2.6-1c-0.6-0.6-1-1.3-1.1-2.2h0c-0.2,0-0.5,0-0.7,0c0,0.1,0,0.3-0.1,0.5
					c-0.3,1.2-1.2,2.2-2.5,2.6c-1.1,0.3-2.3,0.1-3.2-0.6c-0.1,0.1-0.3,0.3-0.4,0.4l-0.1,0.1c0.5,0.6,0.8,1.4,0.8,2.2
					c0,1.9-1.3,3.4-3.1,3.6c0,0.3,0,0.5,0,0.7c0.1,0,0.3,0,0.5,0.1c1.2,0.3,2.2,1.2,2.5,2.5c0.3,1.1,0.1,2.3-0.6,3.2l0.5,0.5
					c0.6-0.5,1.3-0.7,2.1-0.8c1,0,1.9,0.3,2.6,1C89.4,118.1,89.8,118.8,89.9,119.7z"/>
			</g>
		</g>
		<g>
			<g>
				<path class="st0" d="M111.3,120.8c-2.7,0-4.9-2.2-4.9-4.9s2.2-4.9,4.9-4.9s4.9,2.2,4.9,4.9S114,120.8,111.3,120.8z M111.3,113.5
					c-1.3,0-2.4,1.1-2.4,2.4c0,1.3,1.1,2.4,2.4,2.4c1.3,0,2.4-1.1,2.4-2.4C113.7,114.6,112.6,113.5,111.3,113.5z"/>
			</g>
			<g>
				<path class="st0" d="M110.6,125.9c-1.1,0-1.9-0.8-2-1.9c0-0.2-0.1-0.4-0.2-0.6c-0.1-0.1-0.3-0.2-0.5-0.2c-0.2,0-0.3,0.1-0.5,0.2
					c-0.9,0.8-2,0.8-2.8,0l-0.8-0.8c-0.8-0.8-0.8-1.9,0-2.8c0.3-0.3,0.2-0.6,0.2-0.7c0-0.1-0.2-0.4-0.5-0.5c-0.1,0-0.2,0-0.3,0
					c-1.1-0.1-1.8-0.8-1.8-1.9c0-0.5,0-0.9,0-1.4c0-1.1,0.8-1.9,1.9-1.9c0.4,0,0.8-0.3,0.8-0.7c0-0.2-0.1-0.4-0.2-0.5
					c-0.8-0.9-0.8-2,0-2.8l0.2-0.2c0.2-0.2,0.5-0.5,0.7-0.7c0.2-0.2,0.4-0.3,0.6-0.4c0.3-0.1,0.6-0.2,0.9-0.2
					c0.6,0.1,0.9,0.4,1.2,0.6c0.3,0.3,0.6,0.2,0.7,0.2c0.1,0,0.4-0.2,0.5-0.5c0-0.1,0-0.2,0-0.3c0.1-1.1,0.8-1.8,1.9-1.8
					c0.4,0,0.8,0,1.1,0h0.2c1.2,0,2,0.8,2,1.9c0,0.2,0.1,0.4,0.2,0.5c0.1,0.1,0.3,0.2,0.5,0.2c0.2,0,0.3-0.1,0.5-0.2
					c0.9-0.8,2-0.8,2.8,0.1l0.9,0.9c0.8,0.8,0.8,1.9,0,2.7c-0.3,0.3-0.3,0.6-0.2,0.8c0.1,0.3,0.3,0.4,0.7,0.5c1.1,0,1.9,0.8,1.9,1.9
					c0,0.4,0,0.9,0,1.3c0,1.1-0.8,1.9-1.9,1.9c-0.5,0-0.6,0.2-0.7,0.5c-0.1,0.3-0.1,0.5,0.2,0.8c0.8,0.8,0.8,1.9,0,2.7
					c-0.3,0.3-0.6,0.6-0.9,0.9c-0.8,0.8-1.9,0.8-2.7,0c-0.3-0.3-0.6-0.3-0.8-0.2c-0.3,0.1-0.4,0.3-0.5,0.7c0,1.1-0.8,1.9-1.9,1.9
					H110.6z M111.1,123.4h0.3c0.2-1.1,0.9-2,1.9-2.4c1.1-0.5,2.2-0.3,3.1,0.3c0.1-0.1,0.1-0.1,0.2-0.2c-0.7-0.9-0.8-2-0.3-3.1
					c0.5-1.1,1.3-1.7,2.4-1.9c0-0.1,0-0.2,0-0.3c-1.1-0.2-2-0.9-2.4-1.9c-0.5-1.1-0.3-2.2,0.3-3.1l-0.2-0.2
					c-0.5,0.4-1.1,0.6-1.8,0.6c-0.9,0-1.7-0.3-2.3-0.9c-0.5-0.5-0.8-1.1-1-1.8c-0.1,0-0.2,0-0.3,0c0,0.1,0,0.2-0.1,0.2
					c-0.3,1.1-1.1,2-2.2,2.3c-1,0.3-2,0.1-2.8-0.5c-0.1,0.1-0.1,0.1-0.2,0.2c0.4,0.5,0.6,1.2,0.6,1.8c0,1.6-1.1,3-2.7,3.2
					c0,0.1,0,0.2,0,0.3c0.1,0,0.2,0,0.2,0.1c1.1,0.3,2,1.1,2.3,2.2c0.3,1,0.1,2-0.5,2.8l0.2,0.2c0.5-0.4,1.1-0.6,1.8-0.6
					c0.9,0,1.7,0.3,2.3,0.9C110.7,122.1,111,122.7,111.1,123.4z"/>
			</g>
		</g>
	</g>
</g>
</svg>
