<?xml version="1.0" encoding="utf-8"?>
<!-- Generator: Adobe Illustrator 26.3.1, SVG Export Plug-In . SVG Version: 6.00 Build 0)  -->
<svg version="1.1" id="Layer_1" xmlns="http://www.w3.org/2000/svg" xmlns:xlink="http://www.w3.org/1999/xlink" x="0px" y="0px"
	 viewBox="0 0 200 200" style="enable-background:new 0 0 200 200;" xml:space="preserve">
<style type="text/css">
	.st0{fill:#0067FC;}
</style>
<g>
	<g>
		<path class="st0" d="M100,98.8c-9.6,0-17.3-7.8-17.3-17.3s7.8-17.3,17.3-17.3s17.3,7.8,17.3,17.3S109.6,98.8,100,98.8z M100,66.7
			c-8.2,0-14.8,6.6-14.8,14.8s6.6,14.8,14.8,14.8c8.2,0,14.8-6.6,14.8-14.8S108.2,66.7,100,66.7z"/>
	</g>
	<g>
		<g>
			<path class="st0" d="M117.3,143.3h-42c-3,0-5.5-2.5-5.5-5.5V90c0-0.7,0.6-1.2,1.2-1.2s1.2,0.6,1.2,1.2v47.7c0,1.7,1.3,3,3,3h41.5
				l11.4-12.8v-7c0-0.7,0.6-1.2,1.2-1.2s1.2,0.6,1.2,1.2v7.4c0,0.3-0.1,0.6-0.3,0.8l-12.1,13.5C118,143.1,117.6,143.3,117.3,143.3z"
				/>
		</g>
		<g>
			<path class="st0" d="M71,94.4c-0.7,0-1.2-0.6-1.2-1.2v-31c0-3,2.5-5.5,5.5-5.5h49.8c3,0,5.5,2.5,5.5,5.5v22.6
				c0,0.7-0.6,1.2-1.2,1.2s-1.2-0.6-1.2-1.2V62.2c0-1.7-1.3-3-3-3H75.2c-1.7,0-3,1.3-3,3v31C72.2,93.9,71.7,94.4,71,94.4z"/>
		</g>
		<g>
			<path class="st0" d="M116.3,142.8c-0.7,0-1.2-0.6-1.2-1.2v-8.8c0-3,2.5-5.5,5.5-5.5h8.8c0.7,0,1.2,0.6,1.2,1.2s-0.6,1.2-1.2,1.2
				h-8.8c-1.7,0-3,1.3-3,3v8.8C117.5,142.3,117,142.8,116.3,142.8z"/>
		</g>
		<g>
			<path class="st0" d="M129.3,121.6c-10,0-18.2-8.2-18.2-18.2c0-10,8.2-18.2,18.2-18.2s18.2,8.2,18.2,18.2
				C147.5,113.5,139.4,121.6,129.3,121.6z M129.3,87.6c-8.7,0-15.9,7.1-15.9,15.9s7.1,15.9,15.9,15.9s15.9-7.1,15.9-15.9
				S138.1,87.6,129.3,87.6z"/>
		</g>
		<g>
			<path class="st0" d="M127.5,109C127.5,109,127.5,109,127.5,109c-0.4,0-0.7-0.2-0.9-0.4l-3.2-3.7c-0.4-0.5-0.4-1.2,0.1-1.7
				s1.2-0.4,1.7,0.1l2.4,2.8l8.8-8.1c0.5-0.4,1.2-0.4,1.7,0.1c0.4,0.5,0.4,1.2-0.1,1.7l-9.7,8.9C128.1,108.9,127.8,109,127.5,109z"
				/>
		</g>
	</g>
	<g>
		<g id="Group_263_00000103243434136512672780000013671351902894235826_" transform="translate(-598.5 -520.001)">
			<g id="Group_259_00000042008955758764418710000000335992551271812788_" transform="translate(549.903 487.744)">
				<g id="Ellipse_9_00000134931490702168486140000015917897320972477062_">
					<path class="st0" d="M148.6,115.3c-3.3,0-5.9-2.7-5.9-5.9s2.7-5.9,5.9-5.9c3.3,0,5.9,2.7,5.9,5.9S151.9,115.3,148.6,115.3z
						 M148.6,105.9c-1.9,0-3.4,1.5-3.4,3.4s1.5,3.4,3.4,3.4s3.4-1.5,3.4-3.4S150.5,105.9,148.6,105.9z"/>
				</g>
				<g id="Path_16_00000147212027867005691030000012236886336333983677_">
					<path class="st0" d="M156.2,124.2c-0.7,0-1.2-0.6-1.2-1.2c0-3.5-2.9-6.4-6.4-6.4s-6.4,2.9-6.4,6.4c0,0.7-0.6,1.2-1.2,1.2
						s-1.2-0.6-1.2-1.2c0-4.9,4-8.9,8.9-8.9s8.9,4,8.9,8.9C157.5,123.6,156.9,124.2,156.2,124.2z"/>
				</g>
			</g>
		</g>
	</g>
	<g>
		<g>
			<g>
				<path class="st0" d="M98.3,118.2c-0.2,0-0.5,0-0.7,0c-2.9-0.4-4.9-3-4.5-5.9c0.4-2.9,3-4.9,5.9-4.5c2.9,0.4,4.9,3,4.5,5.9
					c-0.2,1.4-0.9,2.6-2,3.5C100.6,117.8,99.5,118.2,98.3,118.2z M98.3,109.7c-1.6,0-3,1.2-3.2,2.8c-0.2,1.8,1,3.4,2.8,3.7
					c0.9,0.1,1.7-0.1,2.4-0.6c0.7-0.5,1.1-1.3,1.2-2.2c0,0,0,0,0,0c0.1-0.9-0.1-1.7-0.6-2.4c-0.5-0.7-1.3-1.1-2.2-1.2
					C98.6,109.7,98.4,109.7,98.3,109.7z"/>
			</g>
			<g>
				<path class="st0" d="M97.9,124.1c-0.1,0-0.2,0-0.3,0c-0.5-0.1-1-0.1-1.5-0.2c-1.1-0.1-1.7-1-1.6-2c0-0.4-0.1-0.7-0.3-1
					c-0.2-0.3-0.5-0.4-0.9-0.5c-0.3,0-0.6,0-0.9,0.3c-0.9,0.7-1.9,0.5-2.6-0.4l-0.8-1.1c-0.7-0.9-0.6-1.9,0.3-2.6
					c0.4-0.3,0.6-0.8,0.5-1.2c-0.1-0.5-0.4-0.8-0.8-1c-0.1,0-0.3-0.1-0.4-0.1c-1-0.2-1.6-1-1.5-2c0.1-0.5,0.1-1,0.2-1.6
					c0.1-1,0.9-1.7,2-1.5c0.8,0.1,1.4-0.4,1.5-1.1c0-0.3,0-0.6-0.2-0.9c-0.7-0.9-0.5-1.9,0.4-2.6l0.3-0.2c0.3-0.2,0.6-0.4,0.9-0.7
					c0.2-0.2,0.5-0.2,0.6-0.3l0.1,0c0.2-0.1,0.5-0.1,0.7,0c0.5,0.2,0.8,0.5,1.1,0.8c0.3,0.4,0.7,0.5,1.2,0.5c0.5-0.1,0.8-0.4,1-0.8
					c0-0.1,0.1-0.3,0.1-0.4c0.2-1,1-1.6,2-1.4c0.4,0,0.8,0.1,1.1,0.1l0.4,0.1c1.1,0.1,1.7,0.9,1.6,2c0,0.4,0.1,0.7,0.3,1
					c0.2,0.3,0.5,0.4,0.9,0.5c0.3,0,0.6,0,0.9-0.2c0.9-0.7,1.9-0.5,2.6,0.4l0.9,1.1c0.6,0.8,0.5,1.8-0.3,2.5
					c-0.5,0.4-0.6,0.8-0.5,1.4c0.2,0.6,0.5,0.9,1.1,1c1,0.2,1.6,1,1.5,2c-0.1,0.5-0.1,1-0.2,1.5c-0.1,1-1,1.7-2,1.5
					c-0.6-0.1-1,0.1-1.3,0.6c-0.3,0.5-0.3,0.9,0.1,1.5c0.6,0.9,0.5,1.9-0.4,2.5c-0.4,0.3-0.8,0.6-1.2,0.9c-0.8,0.6-1.8,0.5-2.5-0.3
					c-0.4-0.5-0.8-0.6-1.4-0.5c-0.6,0.2-0.9,0.5-1,1.1C99.4,123.5,98.8,124.1,97.9,124.1z M96.5,121.9c0.4,0.1,0.8,0.1,1.1,0.2
					c0.3-1.3,1.1-2.2,2.4-2.6c1.3-0.3,2.5,0,3.4,1c0.3-0.2,0.6-0.5,0.9-0.7c-0.7-1.2-0.8-2.4-0.1-3.5c0.7-1.1,1.8-1.7,3.1-1.6
					c0.1-0.4,0.1-0.8,0.2-1.1c-1.3-0.3-2.2-1.1-2.6-2.4c-0.3-1.3,0-2.5,1-3.3l-0.7-0.9c-0.7,0.4-1.4,0.6-2.2,0.5
					c-0.9-0.1-1.7-0.5-2.2-1.2c-0.5-0.7-0.8-1.5-0.7-2.3l-0.2,0c-0.3,0-0.6-0.1-0.9-0.1c0,0.2-0.1,0.4-0.2,0.6
					c-0.4,1.1-1.4,1.9-2.6,2c-1.1,0.2-2.2-0.2-3-1.1c-0.2,0.2-0.4,0.3-0.7,0.5l-0.2,0.2c0.5,0.7,0.6,1.4,0.5,2.2
					c-0.2,1.8-1.8,3-3.5,2.9c-0.1,0.4-0.1,0.8-0.2,1.1c0.2,0,0.4,0.1,0.6,0.2c1.1,0.4,1.9,1.4,2,2.6c0.2,1.1-0.2,2.2-1.1,3l0.7,0.9
					c0.7-0.4,1.4-0.6,2.2-0.6c0.9,0.1,1.7,0.5,2.2,1.2C96.3,120.2,96.6,121,96.5,121.9z"/>
			</g>
		</g>
		<g>
			<g>
				<path class="st0" d="M86.3,132.8c-0.2,0-0.4,0-0.6,0c-1.1-0.2-2.1-0.7-2.8-1.6s-1-2-0.8-3.2c0.2-1.1,0.7-2.1,1.6-2.8
					c0.9-0.7,2-1,3.2-0.8c1.1,0.2,2.1,0.7,2.8,1.6s1,2,0.8,3.2l0,0c-0.2,1.1-0.7,2.1-1.6,2.8C88.1,132.5,87.2,132.8,86.3,132.8z
					 M86.2,126.2c-0.5,0-1,0.2-1.4,0.5c-0.5,0.4-0.8,0.9-0.9,1.5c-0.1,0.6,0.1,1.2,0.4,1.7c0.4,0.5,0.9,0.8,1.5,0.9
					c0.6,0.1,1.2-0.1,1.7-0.4s0.8-0.9,0.9-1.5l0,0c0.1-0.6-0.1-1.2-0.4-1.7c-0.4-0.5-0.9-0.8-1.5-0.9
					C86.4,126.2,86.3,126.2,86.2,126.2z"/>
			</g>
			<g>
				<path class="st0" d="M85.9,137.3c-0.1,0-0.2,0-0.2,0l-1.1-0.2c-0.9-0.1-1.5-0.9-1.4-1.8c0-0.2,0-0.4-0.2-0.6
					c-0.1-0.1-0.3-0.2-0.5-0.3c-0.2,0-0.4,0-0.5,0.1c-0.8,0.6-1.7,0.5-2.3-0.3l-0.6-0.8c-0.6-0.8-0.5-1.7,0.3-2.3
					c0.3-0.3,0.3-0.6,0.3-0.7c0-0.1-0.1-0.4-0.5-0.6c-0.1,0-0.2,0-0.3-0.1c-0.9-0.2-1.4-0.9-1.3-1.8c0-0.4,0.1-0.8,0.2-1.2
					c0.1-0.9,0.9-1.5,1.8-1.4c0.5,0,0.8-0.2,0.9-0.7c0-0.2,0-0.4-0.1-0.6c-0.6-0.8-0.5-1.7,0.4-2.3l0.2-0.2c0.2-0.2,0.5-0.4,0.7-0.5
					c0.2-0.1,0.4-0.2,0.5-0.3c0.2-0.1,0.5-0.1,0.8-0.1c0.5,0.1,0.7,0.4,0.9,0.7c0.3,0.3,0.6,0.3,0.7,0.3c0.1,0,0.4-0.1,0.6-0.5
					c0-0.1,0-0.2,0.1-0.3c0.2-0.9,0.9-1.4,1.8-1.3c0.3,0,0.6,0.1,0.9,0.1l0.3,0c1,0.1,1.5,0.9,1.4,1.8c0,0.2,0,0.4,0.2,0.6
					c0.1,0.2,0.3,0.3,0.5,0.3c0.2,0,0.4,0,0.5-0.1c0.8-0.6,1.7-0.5,2.3,0.4l0.7,0.9c0.6,0.7,0.4,1.7-0.3,2.2
					c-0.4,0.3-0.4,0.5-0.3,0.8c0.1,0.3,0.2,0.5,0.7,0.6c0.9,0.1,1.5,0.9,1.3,1.8c0,0.4-0.1,0.8-0.2,1.2c-0.1,0.9-0.9,1.5-1.8,1.4
					c-0.5,0-0.7,0.1-0.8,0.4c-0.2,0.3-0.2,0.5,0.1,0.9c0.5,0.8,0.4,1.7-0.3,2.2c-0.3,0.2-0.6,0.5-0.9,0.7c-0.7,0.6-1.6,0.4-2.2-0.3
					c-0.3-0.4-0.5-0.4-0.8-0.3c-0.3,0.1-0.5,0.2-0.6,0.7C87.3,136.8,86.7,137.3,85.9,137.3z M85.1,135.2l0.5,0.1c0.3-1,1-1.7,2-1.9
					c1-0.3,1.9,0,2.7,0.7c0.1-0.1,0.2-0.2,0.4-0.3c-0.5-0.9-0.5-1.9,0-2.8c0.5-0.9,1.4-1.4,2.4-1.4c0-0.2,0-0.3,0.1-0.5
					c-1-0.3-1.7-1-1.9-2c-0.3-1,0-1.9,0.7-2.7l-0.3-0.4c-0.5,0.3-1.1,0.4-1.7,0.3c-0.7-0.1-1.4-0.4-1.9-1c-0.4-0.5-0.6-1.1-0.6-1.7
					l-0.5-0.1c0,0.1-0.1,0.2-0.1,0.3c-0.4,0.9-1.2,1.6-2.2,1.7c-0.9,0.1-1.7-0.2-2.4-0.8c-0.1,0.1-0.2,0.2-0.3,0.3l0,0
					c0.3,0.5,0.4,1.1,0.3,1.7c-0.2,1.4-1.3,2.4-2.7,2.4c0,0.2,0,0.3-0.1,0.5c0.1,0,0.2,0.1,0.3,0.1c0.9,0.4,1.6,1.2,1.7,2.1
					c0.1,0.9-0.2,1.7-0.8,2.4l0.3,0.4c0.5-0.3,1.1-0.4,1.6-0.4c0.7,0.1,1.4,0.4,1.9,1C84.9,134,85.1,134.6,85.1,135.2z"/>
			</g>
		</g>
	</g>
	<g>
		<path class="st0" d="M100,172.7c-40.1,0-72.7-32.6-72.7-72.7S59.9,27.3,100,27.3s72.7,32.6,72.7,72.7S140.1,172.7,100,172.7z
			 M100,31.3c-37.9,0-68.7,30.8-68.7,68.7c0,37.9,30.8,68.7,68.7,68.7c37.9,0,68.7-30.8,68.7-68.7C168.7,62.1,137.9,31.3,100,31.3z"
			/>
	</g>
</g>
</svg>
