<?xml version="1.0" encoding="utf-8"?>
<!-- Generator: Adobe Illustrator 26.3.1, SVG Export Plug-In . SVG Version: 6.00 Build 0)  -->
<svg version="1.1" id="Layer_1" xmlns="http://www.w3.org/2000/svg" xmlns:xlink="http://www.w3.org/1999/xlink" x="0px" y="0px"
	 viewBox="0 0 200 200" style="enable-background:new 0 0 200 200;" xml:space="preserve">
<style type="text/css">
	.st0{fill:#0067FC;}
</style>
<g>
	<g>
		<g id="Group_263_00000174562873491867777320000007035775050329065603_" transform="translate(-598.5 -520.001)">
			<g id="Group_259_00000170987216928427752280000003900406580526076832_" transform="translate(549.903 487.744)">
				<g id="Ellipse_9_00000098921481188813151430000005205120237522007194_">
					<path class="st0" d="M147.8,119c-4.7,0-8.6-3.8-8.6-8.6s3.8-8.6,8.6-8.6s8.6,3.8,8.6,8.6S152.5,119,147.8,119z M147.8,104.5
						c-3.3,0-6,2.7-6,6c0,3.3,2.7,6,6,6s6-2.7,6-6C153.7,107.1,151.1,104.5,147.8,104.5z"/>
				</g>
				<g id="Path_16_00000125596272545370580900000007987813537182369945_">
					<path class="st0" d="M159.6,132.8c-0.7,0-1.3-0.6-1.3-1.3c0-5.8-4.7-10.5-10.5-10.5s-10.5,4.7-10.5,10.5c0,0.7-0.6,1.3-1.3,1.3
						s-1.3-0.6-1.3-1.3c0-7.2,5.9-13.1,13.1-13.1s13.1,5.9,13.1,13.1C160.9,132.2,160.3,132.8,159.6,132.8z"/>
				</g>
			</g>
		</g>
		<g id="Group_263_00000132772962902317493680000013625277318061509816_" transform="translate(-598.5 -520.001)">
			<g id="Group_259_00000144320209918387963460000000023331091628102804_" transform="translate(549.903 487.744)">
				<g id="Ellipse_9_00000030456286164184670350000009125927201264076972_">
					<path class="st0" d="M167.4,148.9c-4.7,0-8.6-3.8-8.6-8.6c0-4.7,3.8-8.6,8.6-8.6s8.6,3.8,8.6,8.6
						C175.9,145,172.1,148.9,167.4,148.9z M167.4,134.3c-3.3,0-6,2.7-6,6s2.7,6,6,6s6-2.7,6-6S170.7,134.3,167.4,134.3z"/>
				</g>
				<g id="Path_16_00000145738066483795926000000009401588006623028906_">
					<path class="st0" d="M179.2,162.6c-0.7,0-1.3-0.6-1.3-1.3c0-5.8-4.7-10.5-10.5-10.5c-5.8,0-10.5,4.7-10.5,10.5
						c0,0.7-0.6,1.3-1.3,1.3s-1.3-0.6-1.3-1.3c0-7.2,5.9-13.1,13.1-13.1c7.2,0,13.1,5.9,13.1,13.1
						C180.5,162.1,179.9,162.6,179.2,162.6z"/>
				</g>
			</g>
		</g>
		<g id="Group_263_00000079452951760813755700000010478292271679060896_" transform="translate(-598.5 -520.001)">
			<g id="Group_259_00000097489016950103331650000001507476157619889577_" transform="translate(549.903 487.744)">
				<g id="Ellipse_9_00000161589330665656318250000000505567177077428117_">
					<path class="st0" d="M129.8,148.7c-4.7,0-8.6-3.8-8.6-8.6c0-4.7,3.8-8.6,8.6-8.6s8.6,3.8,8.6,8.6
						C138.4,144.9,134.5,148.7,129.8,148.7z M129.8,134.2c-3.3,0-6,2.7-6,6s2.7,6,6,6c3.3,0,6-2.7,6-6S133.1,134.2,129.8,134.2z"/>
				</g>
				<g id="Path_16_00000013161439106132169110000005015154382060410543_">
					<path class="st0" d="M141.7,162.5c-0.7,0-1.3-0.6-1.3-1.3c0-5.8-4.7-10.5-10.5-10.5s-10.5,4.7-10.5,10.5c0,0.7-0.6,1.3-1.3,1.3
						s-1.3-0.6-1.3-1.3c0-7.2,5.9-13.1,13.1-13.1s13.1,5.9,13.1,13.1C142.9,161.9,142.4,162.5,141.7,162.5z"/>
				</g>
			</g>
		</g>
		<g>
			<path class="st0" d="M99.4,117.1c-2.2,0-4.4-0.4-6.5-1.1c-0.7-0.2-1-1-0.8-1.6s1-1,1.6-0.8c3.5,1.2,7.4,1.3,10.9,0.1
				c0.7-0.2,1.4,0.2,1.6,0.8c0.2,0.7-0.2,1.4-0.8,1.6C103.5,116.8,101.4,117.1,99.4,117.1z"/>
		</g>
		<g>
			<path class="st0" d="M123.9,96.9c-0.7,0-1.3-0.6-1.3-1.3c0-6.2-3.1-11.9-8.3-15.3c-0.6-0.4-0.8-1.2-0.4-1.8
				c0.4-0.6,1.2-0.8,1.8-0.4c5.9,3.9,9.5,10.4,9.5,17.5C125.2,96.3,124.6,96.9,123.9,96.9z"/>
		</g>
		<g>
			<path class="st0" d="M73.3,98.7c-0.7,0-1.3-0.6-1.3-1.3c0-0.9,0-1.9,0.2-2.8c0.9-7,5.2-13.1,11.6-16.2c0.6-0.3,1.4,0,1.7,0.6
				s0,1.4-0.6,1.7c-5.6,2.7-9.4,8-10.1,14.2c-0.1,0.8-0.2,1.7-0.1,2.5C74.6,98.1,74,98.7,73.3,98.7C73.3,98.7,73.3,98.7,73.3,98.7z"
				/>
		</g>
		<g>
			<path class="st0" d="M123.9,97.9c-0.3,0-0.7-0.1-0.9-0.4l-2.1-2.1c-0.5-0.5-0.5-1.3,0-1.8c0.5-0.5,1.3-0.5,1.8,0l1.2,1.2l1.2-1.2
				c0.5-0.5,1.3-0.5,1.8,0c0.5,0.5,0.5,1.3,0,1.8l-2.1,2.1C124.6,97.8,124.3,97.9,123.9,97.9z"/>
		</g>
		<g>
			<path class="st0" d="M114.1,82.2c-0.5,0-1-0.3-1.2-0.9l-0.9-2.8c-0.2-0.7,0.1-1.4,0.8-1.6l2.9-0.9c0.7-0.2,1.4,0.1,1.6,0.8
				c0.2,0.7-0.1,1.4-0.8,1.6l-1.7,0.5l0.5,1.6c0.2,0.7-0.1,1.4-0.8,1.6C114.3,82.2,114.2,82.2,114.1,82.2z"/>
		</g>
		<g>
			<path class="st0" d="M105.6,118.1c-0.2,0-0.4,0-0.6-0.1c-0.6-0.3-0.9-1.1-0.6-1.7l0.8-1.6l-1.5-0.8c-0.6-0.3-0.9-1.1-0.6-1.7
				c0.3-0.6,1.1-0.9,1.7-0.6l2.6,1.3c0.3,0.2,0.5,0.4,0.6,0.7c0.1,0.3,0.1,0.7-0.1,1l-1.4,2.7C106.5,117.8,106,118.1,105.6,118.1z"
				/>
		</g>
		<g>
			<path class="st0" d="M92.2,118c-0.5,0-1-0.3-1.2-0.9l-0.9-2.8c-0.1-0.3-0.1-0.7,0.1-1c0.2-0.3,0.4-0.5,0.7-0.6l2.9-0.9
				c0.7-0.2,1.4,0.1,1.6,0.8c0.2,0.7-0.1,1.4-0.8,1.6l-1.7,0.5l0.5,1.6c0.2,0.7-0.1,1.4-0.8,1.6C92.4,117.9,92.3,118,92.2,118z"/>
		</g>
		<g>
			<path class="st0" d="M84.8,82.9c-0.1,0-0.3,0-0.4-0.1c-0.7-0.2-1-0.9-0.8-1.6l0.5-1.7L82.5,79c-0.7-0.2-1-0.9-0.8-1.6
				c0.2-0.7,0.9-1,1.6-0.8l2.8,0.9c0.7,0.2,1,0.9,0.8,1.6L86,82C85.8,82.5,85.3,82.9,84.8,82.9z"/>
		</g>
		<g>
			<path class="st0" d="M73.3,100.7c-0.3,0-0.6-0.1-0.9-0.3l-2.2-2.1c-0.5-0.5-0.6-1.3-0.1-1.8c0.5-0.5,1.3-0.6,1.8-0.1l1.3,1.2
				l1.1-1.2c0.5-0.5,1.3-0.6,1.8-0.1c0.5,0.5,0.6,1.3,0.1,1.8l-2,2.2C74,100.5,73.7,100.7,73.3,100.7z"/>
		</g>
	</g>
	<g>
		<path class="st0" d="M100,172.7c-40.1,0-72.7-32.6-72.7-72.7S59.9,27.3,100,27.3s72.7,32.6,72.7,72.7S140.1,172.7,100,172.7z
			 M100,31.3c-37.9,0-68.7,30.8-68.7,68.7c0,37.9,30.8,68.7,68.7,68.7c37.9,0,68.7-30.8,68.7-68.7C168.7,62.1,137.9,31.3,100,31.3z"
			/>
	</g>
</g>
</svg>
