<?xml version="1.0" encoding="utf-8"?>
<!-- Generator: Adobe Illustrator 19.0.0, SVG Export Plug-In . SVG Version: 6.00 Build 0)  -->
<svg version="1.1" id="Layer_1" xmlns="http://www.w3.org/2000/svg" xmlns:xlink="http://www.w3.org/1999/xlink" x="0px" y="0px"
	 viewBox="85 85 30 30" style="enable-background:new 85 85 30 30;" xml:space="preserve">
<style type="text/css">
	.st0{fill:#FFFFFF;}
	.st1{fill:#0067FC;}
</style>
<g id="XMLID_17_">
	<g id="XMLID_3_">
		<path id="XMLID_2_" class="st0" d="M102.8,111.2h-8.5c0,0,0,0,0,0c-0.3,0-6.7-1.2-7.5-5.4c0-0.2-1.1-5.5,1-8.2
			c0.8-1,1.9-1.6,3.3-1.6h0h1.1l8.6-6.4c0.2-0.2,1-0.9,1.6-0.6c0.5,0.2,0.7,1,0.6,2.3v0c0,0.1-0.3,1.8-3,3.9h11.1
			c1.2,0,2.2,1,2.2,2.2s-1,2.2-2.2,2.2h-3.3c0.4,0.4,0.7,1,0.7,1.6c0,1.2-1,2.2-2.2,2.2h-0.6c0.4,0.4,0.7,1,0.7,1.6
			c0,1.2-0.9,2.2-2.1,2.2c0.4,0.4,0.6,1,0.6,1.6C105,110.2,104,111.2,102.8,111.2z M94.3,110.6h8.4c0.9,0,1.6-0.7,1.6-1.6
			c0-0.9-0.8-1.6-1-1.6h-4.5c-0.2,0-0.3-0.1-0.3-0.3c0-0.2,0.1-0.3,0.3-0.3h5.4c0.9,0,1.6-0.7,1.6-1.6c0-0.9-0.7-1.6-1.6-1.6h-5.4
			c-0.2,0-0.3-0.1-0.3-0.3c0-0.2,0.1-0.3,0.3-0.3h7.5c0.9,0,1.6-0.7,1.6-1.6s-0.7-1.6-1.6-1.6h-7.5c-0.2,0-0.3-0.1-0.3-0.3
			s0.1-0.3,0.3-0.3h12.4c0.9,0,1.6-0.7,1.6-1.6c0-0.9-0.7-1.6-1.6-1.6h-12c-0.1,0-0.3-0.1-0.3-0.2c0-0.1,0-0.3,0.1-0.3
			c3-2.2,3.4-3.9,3.4-4.1c0.1-1.4-0.2-1.6-0.3-1.7c-0.2-0.1-0.7,0.2-1,0.5c0,0,0,0,0,0l-8.7,6.5c0,0-0.1,0.1-0.2,0.1h-1.2
			c-1.2,0.1-2.2,0.5-2.8,1.4c-1.9,2.5-0.9,7.7-0.9,7.7C88.1,109.3,93.9,110.5,94.3,110.6z"/>
	</g>
	<path id="XMLID_4_" class="st1" d="M94.3,110.6h8.4c0.9,0,1.6-0.7,1.6-1.6c0-0.9-0.8-1.6-1-1.6h-4.5c-0.2,0-0.3-0.1-0.3-0.3
		c0-0.2,0.1-0.3,0.3-0.3h5.4c0.9,0,1.6-0.7,1.6-1.6c0-0.9-0.7-1.6-1.6-1.6h-5.4c-0.2,0-0.3-0.1-0.3-0.3c0-0.2,0.1-0.3,0.3-0.3h7.5
		c0.9,0,1.6-0.7,1.6-1.6s-0.7-1.6-1.6-1.6h-7.5c-0.2,0-0.3-0.1-0.3-0.3s0.1-0.3,0.3-0.3h12.4c0.9,0,1.6-0.7,1.6-1.6
		c0-0.9-0.7-1.6-1.6-1.6h-12c-0.1,0-0.3-0.1-0.3-0.2c0-0.1,0-0.3,0.1-0.3c3-2.2,3.4-3.9,3.4-4.1c0.1-1.4-0.2-1.6-0.3-1.7
		c-0.2-0.1-0.7,0.2-1,0.5c0,0,0,0,0,0l-8.7,6.5c0,0-0.1,0.1-0.2,0.1h-1.2c-1.2,0.1-2.2,0.5-2.8,1.4c-1.9,2.5-0.9,7.7-0.9,7.7
		C88.1,109.3,93.9,110.5,94.3,110.6z"/>
</g>
</svg>
