<?xml version="1.0" encoding="utf-8"?>
<!-- Generator: Adobe Illustrator 26.3.1, SVG Export Plug-In . SVG Version: 6.00 Build 0)  -->
<svg version="1.1" id="Layer_1" xmlns="http://www.w3.org/2000/svg" xmlns:xlink="http://www.w3.org/1999/xlink" x="0px" y="0px"
	 viewBox="0 0 200 200" style="enable-background:new 0 0 200 200;" xml:space="preserve">
<style type="text/css">
	.st0{fill:#0067FC;}
</style>
<g>
	<g>
		<path class="st0" d="M108.8,77.1c-0.1,0-0.3,0-0.4-0.1c-0.7-0.2-1-0.9-0.8-1.6l0.7-2.1l-2-0.7c-0.7-0.2-1-0.9-0.8-1.6
			c0.2-0.7,0.9-1,1.6-0.8l3.2,1c0.3,0.1,0.6,0.3,0.7,0.6c0.2,0.3,0.2,0.6,0.1,1l-1.1,3.3C109.9,76.7,109.4,77.1,108.8,77.1z"/>
	</g>
	<g>
		<g id="Group_263_00000034786533294981295240000001864680509550851757_" transform="translate(-598.5 -520.001)">
			<g id="Group_259_00000093879611789554733580000009145371918651062408_" transform="translate(549.903 487.744)">
				<g id="Ellipse_9_00000073692647676682517000000014738058078545774765_">
					<path class="st0" d="M178.6,136.8c-3.5,0-6.3-2.8-6.3-6.3c0-3.5,2.8-6.3,6.3-6.3s6.3,2.8,6.3,6.3
						C184.9,134,182.1,136.8,178.6,136.8z M178.6,126.7c-2.1,0-3.8,1.7-3.8,3.8s1.7,3.8,3.8,3.8s3.8-1.7,3.8-3.8
						S180.7,126.7,178.6,126.7z"/>
				</g>
				<g id="Path_16_00000123431496205623370750000014093567060046271163_">
					<path class="st0" d="M186.9,146.4c-0.7,0-1.2-0.6-1.2-1.2c0-3.9-3.1-7-7-7s-7,3.1-7,7c0,0.7-0.6,1.2-1.2,1.2s-1.2-0.6-1.2-1.2
						c0-5.2,4.3-9.5,9.5-9.5s9.5,4.3,9.5,9.5C188.1,145.9,187.6,146.4,186.9,146.4z"/>
				</g>
			</g>
		</g>
	</g>
	<g>
		<path class="st0" d="M117.6,143.3h-42c-3,0-5.5-2.5-5.5-5.5V90c0-0.7,0.6-1.2,1.2-1.2s1.2,0.6,1.2,1.2v47.7c0,1.7,1.3,3,3,3H117
			l11.4-12.8v-7c0-0.7,0.6-1.2,1.2-1.2s1.2,0.6,1.2,1.2v7.4c0,0.3-0.1,0.6-0.3,0.8l-12.1,13.5C118.3,143.1,117.9,143.3,117.6,143.3z
			"/>
	</g>
	<g>
		<path class="st0" d="M71.3,94.4c-0.7,0-1.2-0.6-1.2-1.2v-31c0-3,2.5-5.5,5.5-5.5h49.8c3,0,5.5,2.5,5.5,5.5v22.6
			c0,0.7-0.6,1.2-1.2,1.2s-1.2-0.6-1.2-1.2V62.2c0-1.7-1.3-3-3-3H75.5c-1.7,0-3,1.3-3,3v31C72.5,93.9,72,94.4,71.3,94.4z"/>
	</g>
	<g>
		<path class="st0" d="M116.6,142.8c-0.7,0-1.2-0.6-1.2-1.2v-8.8c0-3,2.5-5.5,5.5-5.5h8.8c0.7,0,1.2,0.6,1.2,1.2s-0.6,1.2-1.2,1.2
			h-8.8c-1.7,0-3,1.3-3,3v8.8C117.8,142.3,117.2,142.8,116.6,142.8z"/>
	</g>
	<g>
		<g>
			<path class="st0" d="M108,108H80.2c-0.6,0-1.2-0.5-1.2-1.2s0.5-1.2,1.2-1.2H108c0.6,0,1.2,0.5,1.2,1.2S108.7,108,108,108z"/>
		</g>
		<g>
			<path class="st0" d="M106.3,115.1H80.2c-0.6,0-1.2-0.5-1.2-1.2s0.5-1.2,1.2-1.2h26.1c0.6,0,1.2,0.5,1.2,1.2
				S106.9,115.1,106.3,115.1z"/>
		</g>
		<g>
			<path class="st0" d="M102.8,122.1H80.2c-0.6,0-1.2-0.5-1.2-1.2s0.5-1.2,1.2-1.2h22.5c0.6,0,1.2,0.5,1.2,1.2
				S103.4,122.1,102.8,122.1z"/>
		</g>
		<g>
			<path class="st0" d="M96.6,129.2H80.2c-0.6,0-1.2-0.5-1.2-1.2s0.5-1.2,1.2-1.2h16.4c0.6,0,1.2,0.5,1.2,1.2S97.2,129.2,96.6,129.2
				z"/>
		</g>
	</g>
	<g>
		<g>
			<path class="st0" d="M108.4,98.2c-0.7,0-1.2-0.6-1.2-1.2V80.1c0-0.7,0.6-1.2,1.2-1.2s1.2,0.6,1.2,1.2v16.8
				C109.6,97.6,109,98.2,108.4,98.2z"/>
		</g>
		<g>
			<path class="st0" d="M100.5,98.2c-0.7,0-1.2-0.6-1.2-1.2V83.1c0-0.7,0.6-1.2,1.2-1.2s1.2,0.6,1.2,1.2v13.8
				C101.8,97.6,101.2,98.2,100.5,98.2z"/>
		</g>
		<g>
			<path class="st0" d="M92.7,98.2c-0.7,0-1.2-0.6-1.2-1.2V85c0-0.7,0.6-1.2,1.2-1.2s1.2,0.6,1.2,1.2v12
				C93.9,97.6,93.4,98.2,92.7,98.2z"/>
		</g>
		<g>
			<path class="st0" d="M84.8,98.2c-0.7,0-1.2-0.6-1.2-1.2v-6.3c0-0.7,0.6-1.2,1.2-1.2s1.2,0.6,1.2,1.2v6.3
				C86.1,97.6,85.5,98.2,84.8,98.2z"/>
		</g>
	</g>
	<g>
		<path class="st0" d="M129.6,121.6c-10,0-18.2-8.2-18.2-18.2c0-10,8.2-18.2,18.2-18.2s18.2,8.2,18.2,18.2
			C147.8,113.5,139.6,121.6,129.6,121.6z M129.6,87.6c-8.7,0-15.9,7.1-15.9,15.9s7.1,15.9,15.9,15.9s15.9-7.1,15.9-15.9
			S138.4,87.6,129.6,87.6z"/>
	</g>
	<g>
		<path class="st0" d="M100,172.7c-1,0-1.9,0-2.9-0.1c-40.1-1.6-71.4-35.5-69.8-75.5c0.8-19.4,9-37.4,23.3-50.5
			c14.3-13.2,32.8-20,52.2-19.2c19.4,0.8,37.4,9,50.5,23.3s20,32.8,19.2,52.2l0,0C171.1,142,138.8,172.7,100,172.7z M99.9,31.3
			c-17.3,0-33.8,6.4-46.6,18.2C39.9,62,32.1,78.9,31.3,97.3c-0.7,18.3,5.7,35.9,18.2,49.3c12.5,13.5,29.4,21.3,47.8,22
			c37.8,1.5,69.9-28.1,71.4-65.9l2,0.1l-2-0.1c0.7-18.3-5.7-35.9-18.2-49.3c-12.5-13.5-29.4-21.3-47.8-22
			C101.8,31.3,100.9,31.3,99.9,31.3z"/>
	</g>
	<g>
		<path class="st0" d="M83.9,88.2c-0.3,0-0.6-0.1-0.9-0.4c-0.5-0.5-0.5-1.3,0-1.8l7.7-7.7c0.2-0.2,0.4-0.3,0.7-0.4l7.8-1l9-4.8
			c0.6-0.3,1.4-0.1,1.7,0.5s0.1,1.4-0.5,1.7l-9.2,4.9c-0.1,0.1-0.3,0.1-0.4,0.1l-7.6,1l-7.4,7.4C84.5,88.1,84.2,88.2,83.9,88.2z"/>
	</g>
</g>
</svg>
