<?xml version="1.0" encoding="utf-8"?>
<!-- Generator: Adobe Illustrator 26.3.1, SVG Export Plug-In . SVG Version: 6.00 Build 0)  -->
<svg version="1.1" id="Layer_1" xmlns="http://www.w3.org/2000/svg" xmlns:xlink="http://www.w3.org/1999/xlink" x="0px" y="0px"
	 viewBox="0 0 200 200" style="enable-background:new 0 0 200 200;" xml:space="preserve">
<style type="text/css">
	.st0{fill:#0067FC;}
</style>
<g>
	<g>
		<g>
			<g>
				<path class="st0" d="M117.1,143.3h-42c-3,0-5.5-2.5-5.5-5.5V62.2c0-3,2.5-5.5,5.5-5.5h49.8c3,0,5.5,2.5,5.5,5.5v66.3
					c0,0.3-0.1,0.6-0.3,0.8L118,142.9C117.8,143.1,117.5,143.3,117.1,143.3z M72.1,93.2v44.6c0,1.7,1.3,3,3,3h41.5l11.4-12.8V62.2
					c0-1.7-1.3-3-3-3H75.1c-1.7,0-3,1.3-3,3V93.2z"/>
			</g>
			<g>
				<path class="st0" d="M116.1,142.8c-0.7,0-1.2-0.6-1.2-1.2v-8.8c0-3,2.5-5.5,5.5-5.5h8.8c0.7,0,1.2,0.6,1.2,1.2s-0.6,1.2-1.2,1.2
					h-8.8c-1.7,0-3,1.3-3,3v8.8C117.4,142.3,116.8,142.8,116.1,142.8z"/>
			</g>
		</g>
		<g>
			<g>
				<path class="st0" d="M117.2,114.9h-27c-0.7,0-1.2-0.6-1.2-1.2s0.6-1.2,1.2-1.2h27c0.7,0,1.2,0.6,1.2,1.2
					S117.9,114.9,117.2,114.9z"/>
			</g>
			<g>
				<path class="st0" d="M117.2,122h-27c-0.7,0-1.2-0.6-1.2-1.2s0.6-1.2,1.2-1.2h27c0.7,0,1.2,0.6,1.2,1.2S117.9,122,117.2,122z"/>
			</g>
			<g>
				<path class="st0" d="M107.2,129h-17c-0.7,0-1.2-0.6-1.2-1.2s0.6-1.2,1.2-1.2h17c0.7,0,1.2,0.6,1.2,1.2S107.9,129,107.2,129z"/>
			</g>
			<g>
				<path class="st0" d="M83.2,116.3L83.2,116.3c-0.3,0-0.6-0.1-0.9-0.4l-1.4-1.4c-0.5-0.5-0.5-1.3,0-1.8s1.3-0.5,1.8,0l0.5,0.5
					l1.9-1.9c0.5-0.5,1.3-0.5,1.8,0s0.5,1.3,0,1.8l-2.8,2.8C83.9,116.2,83.6,116.3,83.2,116.3z"/>
			</g>
			<g>
				<path class="st0" d="M83.2,123.4L83.2,123.4c-0.3,0-0.6-0.1-0.9-0.4l-1.4-1.4c-0.5-0.5-0.5-1.3,0-1.8s1.3-0.5,1.8,0l0.5,0.5
					l1.9-1.9c0.5-0.5,1.3-0.5,1.8,0s0.5,1.3,0,1.8l-2.8,2.8C83.9,123.2,83.6,123.4,83.2,123.4z"/>
			</g>
			<g>
				<path class="st0" d="M83.2,129.8L83.2,129.8c-0.3,0-0.6-0.1-0.9-0.4l-1.4-1.4c-0.5-0.5-0.5-1.3,0-1.8s1.3-0.5,1.8,0l0.5,0.5
					l1.9-1.9c0.5-0.5,1.3-0.5,1.8,0s0.5,1.3,0,1.8l-2.8,2.8C83.9,129.7,83.6,129.8,83.2,129.8z"/>
			</g>
		</g>
	</g>
	<g>
		<path class="st0" d="M100,172.7c-40.1,0-72.7-32.6-72.7-72.7S59.9,27.3,100,27.3s72.7,32.6,72.7,72.7S140.1,172.7,100,172.7z
			 M100,31.3c-37.9,0-68.7,30.8-68.7,68.7c0,37.9,30.8,68.7,68.7,68.7c37.9,0,68.7-30.8,68.7-68.7C168.7,62.1,137.9,31.3,100,31.3z"
			/>
	</g>
	<g>
		<g>
			<g>
				<path class="st0" d="M91.5,84.3c-1.1,0-2.3-0.3-3.3-0.9c-1.4-0.9-2.4-2.2-2.7-3.9c-0.4-1.6-0.1-3.3,0.8-4.7
					c0.9-1.4,2.2-2.4,3.9-2.7c1.6-0.4,3.3-0.1,4.7,0.8c1.4,0.9,2.4,2.2,2.7,3.9c0.8,3.3-1.3,6.6-4.6,7.4
					C92.4,84.2,92,84.3,91.5,84.3z M91.5,74.2c-0.3,0-0.6,0-0.9,0.1c-2.1,0.5-3.4,2.5-2.9,4.6s2.5,3.4,4.6,2.9
					c2.1-0.5,3.4-2.5,2.9-4.6c-0.2-1-0.8-1.8-1.7-2.4C92.9,74.4,92.2,74.2,91.5,74.2z"/>
			</g>
			<g>
				<path class="st0" d="M93,91.1c-1,0-1.7-0.6-2-1.6c-0.2-0.7-0.6-1.1-1.3-1.2c-0.7-0.1-1.2,0.1-1.6,0.7c-0.7,1-1.9,1.3-2.9,0.6
					c-0.5-0.3-1-0.6-1.5-0.9c-1.1-0.7-1.3-1.8-0.7-2.9c0.4-0.7,0.4-1.2,0-1.7c-0.4-0.6-0.9-0.7-1.7-0.6c-1.2,0.2-2.2-0.4-2.5-1.6
					c-0.1-0.6-0.3-1.2-0.4-1.8c-0.3-1.2,0.4-2.2,1.5-2.5c0.7-0.2,1.1-0.6,1.2-1.3c0.1-0.7-0.1-1.2-0.7-1.6c-1-0.7-1.3-1.9-0.6-2.9
					c0.2-0.3,0.4-0.7,0.6-1l0.3-0.4c0.7-1.1,1.8-1.4,3-0.7c0.4,0.2,0.7,0.3,1.1,0.2c0.4-0.1,0.7-0.3,1-0.7c0.2-0.4,0.3-0.8,0.2-1.2
					c-0.3-1.3,0.4-2.3,1.6-2.6l0.4-0.1c0.4-0.1,0.9-0.2,1.3-0.3c1.1-0.2,2.1,0.4,2.5,1.5c0,0.2,0.1,0.4,0.2,0.5
					c0.3,0.5,0.7,0.8,1.3,0.8c0.5,0,1.1-0.2,1.4-0.7c0.2-0.4,0.6-0.8,1.2-1c0.3-0.1,0.5-0.1,0.8,0l0.2,0c0.2,0,0.5,0.1,0.8,0.3
					c0.4,0.2,0.7,0.4,1.1,0.7l0.4,0.2c1.1,0.7,1.4,1.8,0.7,3c-0.2,0.4-0.3,0.7-0.2,1.1c0.2,0.8,1,1.4,1.9,1.2
					c1.2-0.3,2.2,0.4,2.5,1.6c0.1,0.6,0.3,1.2,0.4,1.8c0.2,1.1-0.4,2.1-1.5,2.5c-0.2,0-0.4,0.1-0.5,0.2c-0.5,0.3-0.8,0.7-0.8,1.3
					c0,0.6,0.2,1.1,0.7,1.4c1.1,0.7,1.3,1.9,0.6,3l-0.9,1.4c-0.7,1.1-1.8,1.4-3,0.7c-0.4-0.2-0.7-0.3-1.1-0.2
					c-0.4,0.1-0.8,0.3-1,0.7c-0.2,0.4-0.3,0.8-0.2,1.2c0.3,1.2-0.4,2.2-1.6,2.5c-0.6,0.1-1.1,0.3-1.7,0.4
					C93.4,91.1,93.2,91.1,93,91.1z M89.5,85.9c0.2,0,0.5,0,0.7,0.1c1.5,0.3,2.6,1.2,3.1,2.7c0.5-0.1,0.9-0.2,1.3-0.3
					c-0.2-1,0.1-2,0.6-2.8c0.6-0.9,1.5-1.5,2.5-1.7c0.9-0.2,1.8,0,2.6,0.4l0.7-1.1c-1.1-0.8-1.7-2.1-1.6-3.4
					c0.1-1.4,0.9-2.6,2.1-3.2c0.2-0.1,0.5-0.2,0.7-0.3c-0.1-0.4-0.2-0.9-0.3-1.3c-2.1,0.3-4-1-4.5-3c-0.2-0.9-0.1-1.9,0.4-2.7
					l-0.3-0.2c-0.3-0.2-0.5-0.4-0.8-0.5c-0.8,1.1-2,1.7-3.4,1.6c-1.4-0.1-2.6-0.9-3.2-2.1c-0.1-0.2-0.2-0.5-0.3-0.7
					c-0.4,0.1-0.7,0.2-1.1,0.2l-0.3,0.1c0.2,1-0.1,2-0.6,2.8c-0.6,0.9-1.4,1.5-2.5,1.7c-0.9,0.2-1.8,0-2.6-0.4l-0.2,0.3
					c-0.2,0.3-0.3,0.5-0.5,0.8c1.3,1,1.8,2.3,1.6,3.8c-0.3,1.5-1.2,2.6-2.7,3.1c0.1,0.4,0.2,0.9,0.3,1.3c1.6-0.2,2.9,0.3,3.8,1.6
					c0.9,1.3,1,2.7,0.3,4.1c0.4,0.3,0.8,0.5,1.1,0.7C87.2,86.5,88.2,85.9,89.5,85.9z"/>
			</g>
		</g>
		<g>
			<g>
				<path class="st0" d="M108.5,102.6c-2.8,0-5.4-1.9-6-4.8c-0.8-3.3,1.3-6.6,4.6-7.4c3.3-0.8,6.6,1.3,7.4,4.6
					c0.4,1.6,0.1,3.3-0.8,4.7c-0.9,1.4-2.2,2.4-3.9,2.7C109.4,102.5,109,102.6,108.5,102.6z M108.5,92.6c-0.3,0-0.6,0-0.9,0.1
					c-2.1,0.5-3.4,2.5-2.9,4.6c0.5,2.1,2.5,3.4,4.6,2.9c1-0.2,1.8-0.8,2.4-1.7c0.5-0.9,0.7-1.9,0.5-2.9
					C111.8,93.8,110.2,92.6,108.5,92.6z"/>
			</g>
			<g>
				<path class="st0" d="M110,109.4c-1,0-1.7-0.6-2-1.6c-0.2-0.7-0.6-1.1-1.3-1.2c-0.7-0.1-1.2,0.1-1.6,0.7c-0.7,1-1.8,1.3-2.9,0.6
					c-0.5-0.3-1-0.6-1.5-0.9c-1.1-0.7-1.3-1.8-0.7-2.9c0.4-0.7,0.4-1.2,0-1.7c-0.4-0.6-0.9-0.7-1.6-0.6c-1.2,0.2-2.2-0.4-2.5-1.6
					c-0.1-0.6-0.3-1.2-0.4-1.8c-0.3-1.2,0.4-2.2,1.5-2.5c0.7-0.2,1.1-0.6,1.2-1.3c0.1-0.7-0.1-1.2-0.7-1.6c-1-0.7-1.3-1.9-0.6-2.9
					c0.2-0.3,0.4-0.7,0.6-1l0.3-0.4c0.7-1.1,1.8-1.4,3-0.7c0.4,0.2,0.7,0.3,1.1,0.2c0.4-0.1,0.7-0.3,1-0.7c0.2-0.4,0.3-0.8,0.2-1.2
					c-0.3-1.3,0.4-2.3,1.6-2.6l0.5-0.1c0.4-0.1,0.8-0.2,1.3-0.3c1.1-0.2,2.1,0.4,2.5,1.5c0,0.2,0.1,0.4,0.2,0.5
					c0.3,0.5,0.7,0.8,1.3,0.8c0.6,0,1.1-0.2,1.4-0.7c0.2-0.4,0.6-0.8,1.2-1c0.3-0.1,0.5-0.1,0.8,0l0.2,0c0.2,0,0.5,0.1,0.8,0.3
					c0.4,0.2,0.7,0.4,1.1,0.7l0.4,0.2c1.1,0.7,1.4,1.8,0.7,3c-0.2,0.4-0.3,0.7-0.2,1.1c0.2,0.8,1,1.4,1.9,1.2
					c1.2-0.3,2.2,0.4,2.5,1.6l0.1,0.3c0.1,0.5,0.2,1,0.3,1.5c0.2,1.1-0.4,2.1-1.5,2.4c-0.2,0-0.4,0.1-0.5,0.2
					c-0.5,0.3-0.8,0.7-0.8,1.3c0,0.6,0.2,1.1,0.7,1.4c1.1,0.7,1.3,1.9,0.6,3l-0.9,1.4c-0.7,1.1-1.8,1.4-3,0.7
					c-0.4-0.2-0.7-0.3-1.1-0.2c-0.4,0.1-0.8,0.3-1,0.7c-0.2,0.4-0.3,0.8-0.2,1.2c0.3,1.2-0.4,2.2-1.6,2.5c-0.6,0.1-1.1,0.3-1.7,0.4
					C110.4,109.4,110.2,109.4,110,109.4z M106.5,104.2c0.2,0,0.5,0,0.7,0.1c1.5,0.3,2.6,1.2,3.1,2.7c0.5-0.1,0.9-0.2,1.3-0.3
					c-0.2-1,0-2,0.6-2.8c0.6-0.9,1.5-1.5,2.5-1.7c0.9-0.2,1.8,0,2.6,0.4l0.7-1.1c-1.1-0.8-1.7-2.1-1.6-3.4c0.1-1.4,0.9-2.6,2.1-3.2
					c0.2-0.1,0.5-0.2,0.7-0.3c-0.1-0.4-0.2-0.8-0.3-1.2l0-0.1c-2.1,0.3-4-1-4.5-3c-0.2-0.9-0.1-1.9,0.4-2.7l-0.3-0.2
					c-0.3-0.2-0.5-0.4-0.8-0.5c-0.8,1.1-2,1.7-3.4,1.6c-1.4-0.1-2.6-0.9-3.2-2.1c-0.1-0.2-0.2-0.5-0.3-0.7c-0.3,0.1-0.7,0.2-1,0.2
					l-0.3,0.1c0.2,1-0.1,2-0.6,2.8c-0.6,0.9-1.4,1.5-2.5,1.7c-0.9,0.2-1.8,0-2.6-0.4l-0.2,0.4c-0.2,0.3-0.3,0.5-0.5,0.8
					c1.3,1,1.8,2.3,1.6,3.8c-0.3,1.5-1.2,2.6-2.7,3.1c0.1,0.4,0.2,0.9,0.3,1.3c1.6-0.2,2.9,0.3,3.8,1.6c0.9,1.3,1,2.7,0.3,4.1
					c0.4,0.3,0.8,0.5,1.1,0.7C104.2,104.8,105.2,104.2,106.5,104.2z M117.5,102.8L117.5,102.8L117.5,102.8z"/>
			</g>
		</g>
	</g>
</g>
</svg>
