<?xml version="1.0" encoding="utf-8"?>
<!-- Generator: Adobe Illustrator 26.3.1, SVG Export Plug-In . SVG Version: 6.00 Build 0)  -->
<svg version="1.1" id="Layer_1" xmlns="http://www.w3.org/2000/svg" xmlns:xlink="http://www.w3.org/1999/xlink" x="0px" y="0px"
	 viewBox="0 0 200 200" style="enable-background:new 0 0 200 200;" xml:space="preserve">
<style type="text/css">
	.st0{fill:#0067FC;}
</style>
<g>
	<g>
		<path class="st0" d="M100,172.7c-1,0-1.9,0-2.9-0.1c-40.1-1.6-71.4-35.5-69.8-75.5c0.8-19.4,9-37.4,23.3-50.5
			c14.3-13.2,32.8-20,52.2-19.2c19.4,0.8,37.4,9,50.5,23.3s20,32.8,19.2,52.2l0,0C171.1,142,138.8,172.7,100,172.7z M99.9,31.3
			c-17.3,0-33.8,6.4-46.6,18.2C39.9,62,32.1,78.9,31.3,97.3c-0.7,18.3,5.7,35.9,18.2,49.3c12.5,13.5,29.4,21.3,47.8,22
			c37.8,1.5,69.9-28.1,71.4-65.9l2,0.1l-2-0.1c0.7-18.3-5.7-35.9-18.2-49.3c-12.5-13.5-29.4-21.3-47.8-22
			C101.8,31.3,100.9,31.3,99.9,31.3z"/>
	</g>
	<g>
		<g>
			<g>
				<path class="st0" d="M117.1,143.3h-42c-3,0-5.5-2.5-5.5-5.5V62.2c0-3,2.5-5.5,5.5-5.5h49.8c3,0,5.5,2.5,5.5,5.5v66.3
					c0,0.3-0.1,0.6-0.3,0.8L118,142.9C117.8,143.1,117.5,143.3,117.1,143.3z M72.1,93.2v44.6c0,1.7,1.3,3,3,3h41.5l11.4-12.8V62.2
					c0-1.7-1.3-3-3-3H75.1c-1.7,0-3,1.3-3,3V93.2z"/>
			</g>
			<g>
				<path class="st0" d="M116.1,142.8c-0.7,0-1.2-0.6-1.2-1.2v-8.8c0-3,2.5-5.5,5.5-5.5h8.8c0.7,0,1.2,0.6,1.2,1.2s-0.6,1.2-1.2,1.2
					h-8.8c-1.7,0-3,1.3-3,3v8.8C117.4,142.3,116.8,142.8,116.1,142.8z"/>
			</g>
		</g>
		<g>
			<path class="st0" d="M112.4,100h-9.5c-0.7,0-1.2-0.6-1.2-1.2s0.6-1.2,1.2-1.2h8.3v-8.1c0-0.7,0.6-1.2,1.2-1.2s1.2,0.6,1.2,1.2
				v9.3C113.7,99.4,113.1,100,112.4,100z"/>
		</g>
		<g>
			<g>
				<path class="st0" d="M111.2,69.5H83.3c-0.6,0-1.2-0.5-1.2-1.2s0.5-1.2,1.2-1.2h27.8c0.6,0,1.2,0.5,1.2,1.2
					S111.8,69.5,111.2,69.5z"/>
			</g>
			<g>
				<path class="st0" d="M105.9,77.1H83.3c-0.6,0-1.2-0.5-1.2-1.2s0.5-1.2,1.2-1.2h22.5c0.6,0,1.2,0.5,1.2,1.2
					S106.5,77.1,105.9,77.1z"/>
			</g>
			<g>
				<path class="st0" d="M99.7,84.7H83.3c-0.6,0-1.2-0.5-1.2-1.2s0.5-1.2,1.2-1.2h16.4c0.6,0,1.2,0.5,1.2,1.2S100.4,84.7,99.7,84.7z
					"/>
			</g>
		</g>
		<g>
			<path class="st0" d="M99.7,126.2c-9.7,0-17.6-7.9-17.6-17.6C82.1,98.9,90,91,99.7,91c4.7,0,9.1,1.8,12.5,5.2
				c0.5,0.5,0.5,1.3,0,1.8s-1.3,0.5-1.8,0c-2.9-2.9-6.7-4.4-10.7-4.4c-8.4,0-15.1,6.8-15.1,15.1c0,8.4,6.8,15.1,15.1,15.1
				c6.5,0,12.3-4.2,14.4-10.4c0.2-0.7,0.9-1,1.6-0.8c0.7,0.2,1,0.9,0.8,1.6C114.1,121.4,107.4,126.2,99.7,126.2z"/>
		</g>
		<g>
			<path class="st0" d="M104.7,113.7h-5c-0.7,0-1.2-0.6-1.2-1.2v-9.8c0-0.7,0.6-1.2,1.2-1.2s1.2,0.6,1.2,1.2v8.5h3.7
				c0.7,0,1.2,0.6,1.2,1.2S105.4,113.7,104.7,113.7z"/>
		</g>
	</g>
</g>
</svg>
