<?xml version="1.0" encoding="utf-8"?>
<!-- Generator: Adobe Illustrator 26.3.1, SVG Export Plug-In . SVG Version: 6.00 Build 0)  -->
<svg version="1.1" id="Layer_1" xmlns="http://www.w3.org/2000/svg" xmlns:xlink="http://www.w3.org/1999/xlink" x="0px" y="0px"
	 viewBox="0 0 200 200" style="enable-background:new 0 0 200 200;" xml:space="preserve">
<style type="text/css">
	.st0{fill:none;stroke:#0067FC;stroke-width:2.5;stroke-linecap:round;stroke-linejoin:round;stroke-miterlimit:10;}
	.st1{fill:#0067FC;}
</style>
<g>
	<g>
		<path class="st0" d="M101.8,53.6"/>
	</g>
	<g>
		<g>
			<path class="st1" d="M80.8,88.3c-0.3,0-0.6-0.1-0.7-0.4C79.3,86.9,72,77.2,72,72.6c0-4.9,4-8.9,8.9-8.9s8.9,4,8.9,8.9
				c0,4.6-7.3,14.2-8.1,15.3C81.4,88.2,81.1,88.3,80.8,88.3z M80.8,65.6c-3.9,0-7,3.1-7,7c0,3,4.5,9.8,7,13.2c2.5-3.4,7-10.2,7-13.2
				C87.9,68.8,84.7,65.6,80.8,65.6z"/>
		</g>
		<g>
			<path class="st1" d="M80.8,76.4c-2.4,0-4.4-2-4.4-4.4s2-4.4,4.4-4.4s4.4,2,4.4,4.4S83.2,76.4,80.8,76.4z M80.8,69.5
				c-1.4,0-2.5,1.1-2.5,2.5c0,1.4,1.1,2.5,2.5,2.5c1.4,0,2.5-1.1,2.5-2.5C83.4,70.7,82.2,69.5,80.8,69.5z"/>
		</g>
	</g>
	<g>
		<g>
			<path class="st1" d="M110.4,71.2c-0.3,0-0.6-0.1-0.7-0.4c-0.8-1.1-8.1-10.8-8.1-15.3c0-4.9,4-8.9,8.9-8.9s8.9,4,8.9,8.9
				c0,4.6-7.3,14.2-8.1,15.3C110.9,71.1,110.6,71.2,110.4,71.2z M110.4,48.5c-3.9,0-7,3.1-7,7c0,3,4.5,9.8,7,13.2
				c2.5-3.4,7-10.2,7-13.2C117.4,51.6,114.2,48.5,110.4,48.5z"/>
		</g>
		<g>
			<path class="st1" d="M110.4,59.3c-2.4,0-4.4-2-4.4-4.4s2-4.4,4.4-4.4s4.4,2,4.4,4.4S112.8,59.3,110.4,59.3z M110.4,52.4
				c-1.4,0-2.5,1.1-2.5,2.5s1.1,2.5,2.5,2.5c1.4,0,2.5-1.1,2.5-2.5S111.7,52.4,110.4,52.4z"/>
		</g>
	</g>
	<g>
		<path class="st1" d="M100,172.7c-1,0-1.9,0-2.9-0.1c-40.1-1.6-71.4-35.5-69.8-75.5c0.8-19.4,9-37.4,23.3-50.5
			c14.3-13.2,32.8-20,52.2-19.2c19.4,0.8,37.4,9,50.5,23.3s20,32.8,19.2,52.2l0,0C171.1,142,138.8,172.7,100,172.7z M99.9,31.3
			c-17.3,0-33.8,6.4-46.6,18.2C39.9,62,32.1,78.9,31.3,97.3c-0.7,18.3,5.7,35.9,18.2,49.3c12.5,13.5,29.4,21.3,47.8,22
			c37.8,1.5,69.9-28.1,71.4-65.9l2,0.1l-2-0.1c0.7-18.3-5.7-35.9-18.2-49.3c-12.5-13.5-29.4-21.3-47.8-22
			C101.8,31.3,100.9,31.3,99.9,31.3z"/>
	</g>
	<g>
		<g>
			<path class="st1" d="M138.7,87.1c-0.8,0-1.6-0.5-1.9-1.4l-2.3-7.2l-7,2.2c-1,0.3-2.2-0.3-2.5-1.3c-0.3-1.1,0.3-2.2,1.3-2.5
				l8.9-2.8c1-0.3,2.2,0.3,2.5,1.3l2.9,9.1c0.3,1.1-0.3,2.2-1.3,2.5C139.1,87.1,138.9,87.1,138.7,87.1z"/>
		</g>
		<g>
			<path class="st1" d="M135.1,138.5H65c-1.1,0-2-0.9-2-2s0.9-2,2-2h70.2c1.1,0,2,0.9,2,2S136.2,138.5,135.1,138.5z"/>
		</g>
		<g>
			<path class="st1" d="M123.3,131c-1.1,0-2-0.9-2-2v-23.4c0-1.1,0.9-2,2-2s2,0.9,2,2V129C125.3,130.1,124.4,131,123.3,131z"/>
		</g>
		<g>
			<path class="st1" d="M110.4,131c-1.1,0-2-0.9-2-2V89.7c0-1.1,0.9-2,2-2s2,0.9,2,2V129C112.4,130.1,111.5,131,110.4,131z"/>
		</g>
		<g>
			<path class="st1" d="M97.4,131c-1.1,0-2-0.9-2-2V96.9c0-1.1,0.9-2,2-2s2,0.9,2,2V129C99.4,130.1,98.5,131,97.4,131z"/>
		</g>
		<g>
			<path class="st1" d="M71.5,131c-1.1,0-2-0.9-2-2v-24.1c0-1.1,0.9-2,2-2s2,0.9,2,2V129C73.5,130.1,72.6,131,71.5,131z"/>
		</g>
		<g>
			<path class="st1" d="M84.5,131c-1.1,0-2-0.9-2-2v-16c0-1.1,0.9-2,2-2s2,0.9,2,2v16C86.5,130.1,85.6,131,84.5,131z"/>
		</g>
		<g>
			<path class="st1" d="M82.6,104.5c-0.4,0-0.8-0.1-1.1-0.4l-11.1-7.8c-0.9-0.6-1.1-1.9-0.5-2.8c0.6-0.9,1.9-1.1,2.8-0.5l9.7,6.8
				l12.1-11.5L109,75.7c0.4-0.4,1-0.6,1.6-0.5c0.6,0.1,1.1,0.4,1.4,0.9l11.1,18.1l7.2-13.1c0.5-1,1.7-1.3,2.7-0.8
				c1,0.5,1.3,1.7,0.8,2.7L125,99.2c-0.3,0.6-1,1-1.7,1c-0.7,0-1.4-0.3-1.8-1l-11.7-19L97.2,91.4L84,104
				C83.6,104.3,83.1,104.5,82.6,104.5z"/>
		</g>
	</g>
</g>
</svg>
