<?xml version="1.0" encoding="utf-8"?>
<!-- Generator: Adobe Illustrator 26.3.1, SVG Export Plug-In . SVG Version: 6.00 Build 0)  -->
<svg version="1.1" id="Layer_1" xmlns="http://www.w3.org/2000/svg" xmlns:xlink="http://www.w3.org/1999/xlink" x="0px" y="0px"
	 viewBox="0 0 200 200" style="enable-background:new 0 0 200 200;" xml:space="preserve">
<style type="text/css">
	.st0{fill:#0067FC;}
</style>
<g>
	<g>
		<g>
			<g>
				<path class="st0" d="M75.7,138.9c-9.7,0-17.5-7.9-17.5-17.5s7.9-17.5,17.5-17.5s17.5,7.9,17.5,17.5S85.4,138.9,75.7,138.9z
					 M75.7,107.1c-7.8,0-14.2,6.4-14.2,14.2c0,7.8,6.4,14.2,14.2,14.2s14.2-6.4,14.2-14.2C89.9,113.5,83.5,107.1,75.7,107.1z"/>
			</g>
		</g>
		<g>
			<path class="st0" d="M119,73.3c-1,0-1.9-0.8-1.9-1.9V60.8c0-1,0.8-1.9,1.9-1.9s1.9,0.8,1.9,1.9v10.6
				C120.9,72.5,120.1,73.3,119,73.3z"/>
		</g>
		<g>
			<path class="st0" d="M74.8,73.3c-1,0-1.9-0.8-1.9-1.9V60.8c0-1,0.8-1.9,1.9-1.9s1.9,0.8,1.9,1.9v10.6
				C76.7,72.5,75.8,73.3,74.8,73.3z"/>
		</g>
		<g>
			<path class="st0" d="M134.2,135.4H86.5c-1,0-1.9-0.8-1.9-1.9s0.8-1.9,1.9-1.9h45.8V73.3h-67V111c0,1-0.8,1.9-1.9,1.9
				s-1.9-0.8-1.9-1.9V71.4c0-1,0.8-1.9,1.9-1.9h70.7c1,0,1.9,0.8,1.9,1.9v62.1C136.1,134.6,135.2,135.4,134.2,135.4z"/>
		</g>
		<g>
			
				<rect x="115.6" y="82.7" transform="matrix(-1 -4.485136e-11 4.485136e-11 -1 240.7323 174.9223)" class="st0" width="9.6" height="9.6"/>
		</g>
		<g>
			
				<rect x="102.4" y="82.7" transform="matrix(-1 -4.504143e-11 4.504143e-11 -1 214.4217 174.9223)" class="st0" width="9.6" height="9.6"/>
		</g>
		<g>
			
				<rect x="89.6" y="82.7" transform="matrix(-1 -4.504143e-11 4.504143e-11 -1 188.7645 174.9223)" class="st0" width="9.6" height="9.6"/>
		</g>
		<g>
			
				<rect x="76.4" y="82.7" transform="matrix(-1 -4.504143e-11 4.504143e-11 -1 162.4539 174.9223)" class="st0" width="9.6" height="9.6"/>
		</g>
		<g>
			
				<rect x="115.6" y="97.7" transform="matrix(-1 -4.371093e-11 4.371093e-11 -1 240.7323 204.9481)" class="st0" width="9.6" height="9.6"/>
		</g>
		<g>
			
				<rect x="102.4" y="97.7" transform="matrix(-1 -4.485136e-11 4.485136e-11 -1 214.4217 204.9481)" class="st0" width="9.6" height="9.6"/>
		</g>
		<g>
			
				<rect x="89.6" y="97.7" transform="matrix(-1 -4.485136e-11 4.485136e-11 -1 188.7645 204.9481)" class="st0" width="9.6" height="9.6"/>
		</g>
		<g>
			
				<rect x="115.6" y="111" transform="matrix(-1 -4.485136e-11 4.485136e-11 -1 240.7323 231.5236)" class="st0" width="9.6" height="9.6"/>
		</g>
		<g>
			
				<rect x="102.4" y="111" transform="matrix(-1 -4.485136e-11 4.485136e-11 -1 214.4217 231.5236)" class="st0" width="9.6" height="9.6"/>
		</g>
		<g>
			<path class="st0" d="M71.2,127.5c0,0-0.1,0-0.1,0c-0.5,0-1-0.3-1.3-0.7l-3.2-3.7c-0.7-0.8-0.6-2,0.2-2.6c0.8-0.7,2-0.6,2.6,0.2
				l1.9,2.2l8.3-7.6c0.8-0.7,1.9-0.6,2.6,0.1c0.7,0.8,0.7,1.9-0.1,2.6l-9.7,8.9C72.1,127.3,71.7,127.5,71.2,127.5z"/>
		</g>
	</g>
	<g>
		<path class="st0" d="M100,172.7c-40.1,0-72.7-32.6-72.7-72.7S59.9,27.3,100,27.3s72.7,32.6,72.7,72.7S140.1,172.7,100,172.7z
			 M100,31.3c-37.9,0-68.7,30.8-68.7,68.7c0,37.9,30.8,68.7,68.7,68.7c37.9,0,68.7-30.8,68.7-68.7C168.7,62.1,137.9,31.3,100,31.3z"
			/>
	</g>
</g>
</svg>
