<?xml version="1.0" encoding="utf-8"?>
<!-- Generator: Adobe Illustrator 26.3.1, SVG Export Plug-In . SVG Version: 6.00 Build 0)  -->
<svg version="1.1" id="Layer_1" xmlns="http://www.w3.org/2000/svg" xmlns:xlink="http://www.w3.org/1999/xlink" x="0px" y="0px"
	 viewBox="0 0 200 200" style="enable-background:new 0 0 200 200;" xml:space="preserve">
<style type="text/css">
	.st0{fill:none;stroke:#0067FC;stroke-width:2.5;stroke-linecap:round;stroke-linejoin:round;stroke-miterlimit:10;}
	.st1{fill:#0067FC;}
</style>
<g>
	<g>
		<path class="st0" d="M97.2,110.1"/>
	</g>
	<g>
		<g>
			<g id="Group_263_00000095339978152599840080000012185631218111815825_" transform="translate(-598.5 -520.001)">
				<g id="Group_259_00000018946956382955737130000000892868843757786557_" transform="translate(549.903 487.744)">
					<g id="Ellipse_9_00000155117359340463002350000001666357082476195214_">
						<path class="st1" d="M121.2,136.8c-5.9,0-10.7-4.8-10.7-10.7s4.8-10.7,10.7-10.7c5.9,0,10.7,4.8,10.7,10.7
							S127.1,136.8,121.2,136.8z M121.2,117.9c-4.5,0-8.2,3.7-8.2,8.2s3.7,8.2,8.2,8.2c4.5,0,8.2-3.7,8.2-8.2
							S125.8,117.9,121.2,117.9z"/>
					</g>
					<g id="Path_16_00000023995879452652712940000014320940270138135479_">
						<path class="st1" d="M136.6,154.7c-0.7,0-1.2-0.6-1.2-1.2c0-7.8-6.3-14.1-14.1-14.1s-14.1,6.3-14.1,14.1
							c0,0.7-0.6,1.2-1.2,1.2s-1.2-0.6-1.2-1.2c0-9.2,7.5-16.6,16.6-16.6c9.2,0,16.6,7.5,16.6,16.6
							C137.9,154.1,137.3,154.7,136.6,154.7z"/>
					</g>
				</g>
			</g>
		</g>
		<g>
			<g id="Group_263_00000094603396282552133660000018351100085928417177_" transform="translate(-598.5 -520.001)">
				<g id="Group_259_00000127020683476021908100000010516671430997680516_" transform="translate(549.903 487.744)">
					<g id="Ellipse_9_00000044866736391540551860000012807070979029826723_">
						<path class="st1" d="M175.9,136.8c-5.9,0-10.7-4.8-10.7-10.7s4.8-10.7,10.7-10.7s10.7,4.8,10.7,10.7S181.8,136.8,175.9,136.8z
							 M175.9,117.9c-4.5,0-8.2,3.7-8.2,8.2s3.7,8.2,8.2,8.2s8.2-3.7,8.2-8.2S180.5,117.9,175.9,117.9z"/>
					</g>
					<g id="Path_16_00000009553473325261833690000013784908315509025715_">
						<path class="st1" d="M191.3,154.7c-0.7,0-1.2-0.6-1.2-1.2c0-7.8-6.3-14.1-14.1-14.1c-7.8,0-14.1,6.3-14.1,14.1
							c0,0.7-0.6,1.2-1.2,1.2s-1.2-0.6-1.2-1.2c0-9.2,7.5-16.6,16.6-16.6s16.6,7.5,16.6,16.6C192.6,154.1,192,154.7,191.3,154.7z"/>
					</g>
				</g>
			</g>
		</g>
		<g>
			<g>
				<path class="st1" d="M131.5,78.8c-0.7,0-1.2-0.6-1.2-1.2c0-8.1-6.6-14.7-14.7-14.7H88.3c-8.1,0-14.7,6.6-14.7,14.7
					c0,0.7-0.6,1.2-1.2,1.2s-1.2-0.6-1.2-1.2c0-9.5,7.7-17.2,17.2-17.2h27.3c9.5,0,17.2,7.7,17.2,17.2
					C132.7,78.2,132.2,78.8,131.5,78.8z"/>
			</g>
			<g>
				<path class="st1" d="M72.4,81.3c-0.3,0-0.6-0.1-0.9-0.4l-3.9-3.9c-0.5-0.5-0.5-1.3,0-1.8c0.5-0.5,1.3-0.5,1.8,0l3,3l2.9-2.9
					c0.5-0.5,1.3-0.5,1.8,0s0.5,1.3,0,1.8l-3.8,3.8C73,81.2,72.7,81.3,72.4,81.3z"/>
			</g>
		</g>
		<g>
			<g>
				<path class="st1" d="M111.7,139.7H84.5c-9.5,0-17.2-7.7-17.2-17.2c0-0.7,0.6-1.2,1.2-1.2s1.2,0.6,1.2,1.2
					c0,8.1,6.6,14.7,14.7,14.7h27.3c8.1,0,14.7-6.6,14.7-14.7c0-0.7,0.6-1.2,1.2-1.2s1.2,0.6,1.2,1.2
					C128.9,132,121.2,139.7,111.7,139.7z"/>
			</g>
			<g>
				<path class="st1" d="M131.5,125c-0.3,0-0.6-0.1-0.9-0.4l-3-3l-2.9,2.9c-0.5,0.5-1.3,0.5-1.8,0s-0.5-1.3,0-1.8l3.8-3.8
					c0.5-0.5,1.3-0.5,1.8,0l3.9,3.9c0.5,0.5,0.5,1.3,0,1.8C132.1,124.9,131.8,125,131.5,125z"/>
			</g>
		</g>
	</g>
	<g>
		<path class="st1" d="M100,172.7c-40.1,0-72.7-32.6-72.7-72.7S59.9,27.3,100,27.3s72.7,32.6,72.7,72.7S140.1,172.7,100,172.7z
			 M100,31.3c-37.9,0-68.7,30.8-68.7,68.7c0,37.9,30.8,68.7,68.7,68.7c37.9,0,68.7-30.8,68.7-68.7C168.7,62.1,137.9,31.3,100,31.3z"
			/>
	</g>
</g>
</svg>
