<?xml version="1.0" encoding="utf-8"?>
<!-- Generator: Adobe Illustrator 26.3.1, SVG Export Plug-In . SVG Version: 6.00 Build 0)  -->
<svg version="1.1" id="Layer_1" xmlns="http://www.w3.org/2000/svg" xmlns:xlink="http://www.w3.org/1999/xlink" x="0px" y="0px"
	 viewBox="0 0 200 200" style="enable-background:new 0 0 200 200;" xml:space="preserve">
<style type="text/css">
	.st0{fill:#0067FC;}
</style>
<g>
	<g>
		<g>
			<g id="Group_263_00000147940569349048668060000003197062333154288314_" transform="translate(-598.5 -520.001)">
				<g id="Group_259_00000077284868160593168000000002228615542094804378_" transform="translate(549.903 487.744)">
					<g id="Ellipse_9_00000098920849030407681110000015662474317502345651_">
						<path class="st0" d="M148.6,154c-5.5,0-10-4.5-10-10c0-5.5,4.5-10,10-10c5.5,0,10,4.5,10,10C158.5,149.5,154.1,154,148.6,154z
							 M148.6,137.3c-3.7,0-6.7,3-6.7,6.7s3,6.7,6.7,6.7c3.7,0,6.7-3,6.7-6.7S152.3,137.3,148.6,137.3z"/>
					</g>
					<g id="Path_16_00000106114155058793977330000006161483744480605358_">
						<path class="st0" d="M162.1,169.8c-0.9,0-1.6-0.7-1.6-1.6c0-6.6-5.4-11.9-11.9-11.9c-6.6,0-11.9,5.4-11.9,11.9
							c0,0.9-0.7,1.6-1.6,1.6s-1.6-0.7-1.6-1.6c0-8.4,6.8-15.2,15.2-15.2s15.2,6.8,15.2,15.2C163.8,169,163,169.8,162.1,169.8z"/>
					</g>
				</g>
			</g>
		</g>
		<g>
			<g id="Group_263_00000074436515753695294090000008887485635930245524_" transform="translate(-598.5 -520.001)">
				<g id="Group_259_00000126319701041569932620000004389447088006297789_" transform="translate(549.903 487.744)">
					<g id="Ellipse_9_00000054945080324507278510000012336788054603520956_">
						<path class="st0" d="M169.9,152.2c-4,0-7.3-3.3-7.3-7.3s3.3-7.3,7.3-7.3s7.3,3.3,7.3,7.3S173.9,152.2,169.9,152.2z
							 M169.9,140.9c-2.2,0-4,1.8-4,4c0,2.2,1.8,4,4,4c2.2,0,4-1.8,4-4C174,142.7,172.2,140.9,169.9,140.9z"/>
					</g>
					<g id="Path_16_00000162348180427307870510000014042461428612896160_">
						<path class="st0" d="M179.1,162.9c-0.9,0-1.6-0.7-1.6-1.6c0-4.2-3.4-7.6-7.6-7.6s-7.6,3.4-7.6,7.6c0,0.9-0.7,1.6-1.6,1.6
							s-1.6-0.7-1.6-1.6c0-6,4.9-10.8,10.8-10.8s10.8,4.9,10.8,10.8C180.8,162.2,180,162.9,179.1,162.9z"/>
					</g>
				</g>
			</g>
		</g>
		<g>
			<g id="Group_263_00000012429975165613308230000014401917463149495962_" transform="translate(-598.5 -520.001)">
				<g id="Group_259_00000018234660369025545700000002967048416316985219_" transform="translate(549.903 487.744)">
					<g id="Ellipse_9_00000078046794345514466020000009654291864261934494_">
						<path class="st0" d="M127.3,152.2c-4,0-7.3-3.3-7.3-7.3s3.3-7.3,7.3-7.3s7.3,3.3,7.3,7.3S131.3,152.2,127.3,152.2z
							 M127.3,140.9c-2.2,0-4,1.8-4,4c0,2.2,1.8,4,4,4c2.2,0,4-1.8,4-4C131.3,142.7,129.5,140.9,127.3,140.9z"/>
					</g>
					<g id="Path_16_00000160909697620741087300000000522410937050506891_">
						<path class="st0" d="M136.5,162.9c-0.9,0-1.6-0.7-1.6-1.6c0-4.2-3.4-7.6-7.6-7.6s-7.6,3.4-7.6,7.6c0,0.9-0.7,1.6-1.6,1.6
							s-1.6-0.7-1.6-1.6c0-6,4.9-10.8,10.8-10.8s10.8,4.9,10.8,10.8C138.1,162.2,137.4,162.9,136.5,162.9z"/>
					</g>
				</g>
			</g>
		</g>
	</g>
	<g>
		<path class="st0" d="M100,172.7c-40.1,0-72.7-32.6-72.7-72.7S59.9,27.3,100,27.3s72.7,32.6,72.7,72.7S140.1,172.7,100,172.7z
			 M100,31.3c-37.9,0-68.7,30.8-68.7,68.7c0,37.9,30.8,68.7,68.7,68.7c37.9,0,68.7-30.8,68.7-68.7C168.7,62.1,137.9,31.3,100,31.3z"
			/>
	</g>
	<g>
		<g>
			<path class="st0" d="M115.9,82.3H87.9c-0.7,0-1.2-0.6-1.2-1.2v-8.9c0-0.7,0.6-1.2,1.2-1.2h28.1c0.7,0,1.2,0.6,1.2,1.2V81
				C117.2,81.7,116.6,82.3,115.9,82.3z M89.1,79.8h25.6v-6.4H89.1V79.8z"/>
		</g>
		<g>
			<path class="st0" d="M107.2,77.8H91.8c-0.7,0-1.2-0.6-1.2-1.2s0.6-1.2,1.2-1.2h15.4c0.7,0,1.2,0.6,1.2,1.2S107.9,77.8,107.2,77.8
				z"/>
		</g>
	</g>
	<g>
		<polygon class="st0" points="100.1,85.5 96.6,81.8 102.4,81.8 		"/>
	</g>
	<g>
		<g>
			<path class="st0" d="M139,101.3H111c-0.7,0-1.2-0.6-1.2-1.2v-8.9c0-0.7,0.6-1.2,1.2-1.2H139c0.7,0,1.2,0.6,1.2,1.2v8.9
				C140.3,100.7,139.7,101.3,139,101.3z M112.2,98.8h25.6v-6.4h-25.6V98.8z"/>
		</g>
		<g>
			<path class="st0" d="M130.3,96.8h-15.4c-0.7,0-1.2-0.6-1.2-1.2s0.6-1.2,1.2-1.2h15.4c0.7,0,1.2,0.6,1.2,1.2S131,96.8,130.3,96.8z
				"/>
		</g>
	</g>
	<g>
		<polygon class="st0" points="117.2,104.5 120.7,100.8 114.9,100.8 		"/>
	</g>
	<g>
		<g>
			<path class="st0" d="M88.1,101.3H60.1c-0.7,0-1.2-0.6-1.2-1.2v-8.9c0-0.7,0.6-1.2,1.2-1.2h28.1c0.7,0,1.2,0.6,1.2,1.2v8.9
				C89.4,100.7,88.8,101.3,88.1,101.3z M61.3,98.8h25.6v-6.4H61.3V98.8z"/>
		</g>
		<g>
			<path class="st0" d="M79.4,96.8H64c-0.7,0-1.2-0.6-1.2-1.2s0.6-1.2,1.2-1.2h15.4c0.7,0,1.2,0.6,1.2,1.2S80.1,96.8,79.4,96.8z"/>
		</g>
	</g>
	<g>
		<polygon class="st0" points="82.9,104.5 79.4,100.8 85.2,100.8 		"/>
	</g>
</g>
</svg>
