<?xml version="1.0" encoding="utf-8"?>
<!-- Generator: Adobe Illustrator 26.3.1, SVG Export Plug-In . SVG Version: 6.00 Build 0)  -->
<svg version="1.1" id="Layer_1" xmlns="http://www.w3.org/2000/svg" xmlns:xlink="http://www.w3.org/1999/xlink" x="0px" y="0px"
	 viewBox="0 0 200 200" style="enable-background:new 0 0 200 200;" xml:space="preserve">
<style type="text/css">
	.st0{fill:#0067FC;}
</style>
<g>
	<g>
		<g>
			<path class="st0" d="M123.2,140.7c-9.7,0-17.5-7.9-17.5-17.5s7.9-17.5,17.5-17.5s17.5,7.9,17.5,17.5S132.8,140.7,123.2,140.7z
				 M123.2,108.9c-7.8,0-14.2,6.4-14.2,14.2c0,7.8,6.4,14.2,14.2,14.2c7.8,0,14.2-6.4,14.2-14.2C137.4,115.3,131,108.9,123.2,108.9z
				"/>
		</g>
	</g>
	<g>
		<path class="st0" d="M79.8,75.1c-1,0-1.9-0.8-1.9-1.9V62.6c0-1,0.8-1.9,1.9-1.9s1.9,0.8,1.9,1.9v10.6
			C81.7,74.3,80.8,75.1,79.8,75.1z"/>
	</g>
	<g>
		<path class="st0" d="M124,75.1c-1,0-1.9-0.8-1.9-1.9V62.6c0-1,0.8-1.9,1.9-1.9s1.9,0.8,1.9,1.9v10.6
			C125.9,74.3,125.1,75.1,124,75.1z"/>
	</g>
	<g>
		<path class="st0" d="M100,172.7c-1,0-1.9,0-2.9-0.1c-40.1-1.6-71.4-35.5-69.8-75.5c0.8-19.4,9-37.4,23.3-50.5
			c14.3-13.2,32.8-20,52.2-19.2c19.4,0.8,37.4,9,50.5,23.3s20,32.8,19.2,52.2l0,0C171.1,142,138.8,172.7,100,172.7z M99.9,31.3
			c-17.3,0-33.8,6.4-46.6,18.2C39.9,62,32.1,78.9,31.3,97.3c-0.7,18.3,5.7,35.9,18.2,49.3c12.5,13.5,29.4,21.3,47.8,22
			c37.8,1.5,69.9-28.1,71.4-65.9l2,0.1l-2-0.1c0.7-18.3-5.7-35.9-18.2-49.3c-12.5-13.5-29.4-21.3-47.8-22
			C101.8,31.3,100.9,31.3,99.9,31.3z"/>
	</g>
	<g>
		<path class="st0" d="M112.3,137.2H64.6c-1,0-1.9-0.8-1.9-1.9V73.3c0-1,0.8-1.9,1.9-1.9h70.7c1,0,1.9,0.8,1.9,1.9v39.5
			c0,1-0.8,1.9-1.9,1.9s-1.9-0.8-1.9-1.9V75.1h-67v58.3h45.8c1,0,1.9,0.8,1.9,1.9S113.3,137.2,112.3,137.2z"/>
	</g>
	<g>
		<rect x="73.7" y="84.5" class="st0" width="9.6" height="9.6"/>
	</g>
	<g>
		<rect x="86.8" y="84.5" class="st0" width="9.6" height="9.6"/>
	</g>
	<g>
		<rect x="99.7" y="84.5" class="st0" width="9.6" height="9.6"/>
	</g>
	<g>
		<rect x="112.8" y="84.5" class="st0" width="9.6" height="9.6"/>
	</g>
	<g>
		<rect x="73.7" y="99.5" class="st0" width="9.6" height="9.6"/>
	</g>
	<g>
		<rect x="86.8" y="99.5" class="st0" width="9.6" height="9.6"/>
	</g>
	<g>
		<rect x="99.7" y="99.5" class="st0" width="9.6" height="9.6"/>
	</g>
	<g>
		<rect x="73.7" y="112.8" class="st0" width="9.6" height="9.6"/>
	</g>
	<g>
		<rect x="86.8" y="112.8" class="st0" width="9.6" height="9.6"/>
	</g>
	<g>
		<path class="st0" d="M121.1,129.3c0,0-0.1,0-0.1,0c-0.5,0-1-0.3-1.3-0.7l-3.2-3.7c-0.7-0.8-0.6-2,0.2-2.6c0.8-0.7,2-0.6,2.6,0.2
			l1.9,2.2l8.3-7.6c0.8-0.7,1.9-0.7,2.6,0.1c0.7,0.8,0.7,1.9-0.1,2.6l-9.7,8.9C122,129.1,121.6,129.3,121.1,129.3z"/>
	</g>
</g>
</svg>
