<?xml version="1.0" encoding="utf-8"?>
<!-- Generator: Adobe Illustrator 26.3.1, SVG Export Plug-In . SVG Version: 6.00 Build 0)  -->
<svg version="1.1" id="Layer_1" xmlns="http://www.w3.org/2000/svg" xmlns:xlink="http://www.w3.org/1999/xlink" x="0px" y="0px"
	 viewBox="0 0 200 200" style="enable-background:new 0 0 200 200;" xml:space="preserve">
<style type="text/css">
	.st0{fill:#0067FC;}
</style>
<g>
	<g>
		<g>
			<path class="st0" d="M117.1,143.3h-42c-3,0-5.5-2.5-5.5-5.5V62.2c0-3,2.5-5.5,5.5-5.5h49.8c3,0,5.5,2.5,5.5,5.5v66.3
				c0,0.3-0.1,0.6-0.3,0.8L118,142.9C117.8,143.1,117.5,143.3,117.1,143.3z M72.1,93.2v44.6c0,1.7,1.3,3,3,3h41.5l11.4-12.8V62.2
				c0-1.7-1.3-3-3-3H75.1c-1.7,0-3,1.3-3,3V93.2z"/>
		</g>
		<g>
			<path class="st0" d="M116.1,142.8c-0.7,0-1.2-0.6-1.2-1.2v-8.8c0-3,2.5-5.5,5.5-5.5h8.8c0.7,0,1.2,0.6,1.2,1.2s-0.6,1.2-1.2,1.2
				h-8.8c-1.7,0-3,1.3-3,3v8.8C117.4,142.3,116.8,142.8,116.1,142.8z"/>
		</g>
	</g>
	<g>
		<g>
			<path class="st0" d="M119.8,81.1H80.2c-0.7,0-1.2-0.6-1.2-1.2v-8.9c0-0.7,0.6-1.2,1.2-1.2h39.6c0.7,0,1.2,0.6,1.2,1.2v8.9
				C121,80.6,120.5,81.1,119.8,81.1z M81.5,78.6h37.1v-6.4H81.5V78.6z"/>
		</g>
		<g>
			<path class="st0" d="M99.6,76.7H84.1c-0.7,0-1.2-0.6-1.2-1.2s0.6-1.2,1.2-1.2h15.4c0.7,0,1.2,0.6,1.2,1.2S100.3,76.7,99.6,76.7z"
				/>
		</g>
	</g>
	<g>
		<path class="st0" d="M100,172.7c-40.1,0-72.7-32.6-72.7-72.7S59.9,27.3,100,27.3s72.7,32.6,72.7,72.7S140.1,172.7,100,172.7z
			 M100,31.3c-37.9,0-68.7,30.8-68.7,68.7c0,37.9,30.8,68.7,68.7,68.7c37.9,0,68.7-30.8,68.7-68.7C168.7,62.1,137.9,31.3,100,31.3z"
			/>
	</g>
	<g>
		<g>
			<g>
				<path class="st0" d="M90.9,105.4c-3.4,0-6.2-2.8-6.2-6.2c0-3.4,2.8-6.2,6.2-6.2s6.2,2.8,6.2,6.2
					C97.1,102.6,94.3,105.4,90.9,105.4z M90.9,95.3c-2.1,0-3.8,1.7-3.8,3.8s1.7,3.8,3.8,3.8s3.8-1.7,3.8-3.8S93,95.3,90.9,95.3z"/>
			</g>
			<g>
				<path class="st0" d="M90.9,112.3c-0.3,0-0.6,0-0.9,0c-1.2,0-2.1-0.8-2.1-2.1c0-0.8-0.3-1.2-1-1.5c-0.6-0.3-1.2-0.2-1.7,0.4
					c-0.9,0.8-2.1,0.8-3,0c-0.4-0.4-0.8-0.8-1.2-1.2c-0.9-0.9-0.9-2.1,0-3c0.5-0.6,0.6-1.1,0.4-1.7c-0.3-0.6-0.7-0.9-1.5-1
					c-1.2,0-2.1-0.9-2.1-2.1c0-0.6,0-1.2,0-1.8c0-1.2,0.9-2.1,2-2.1c0.8,0,1.2-0.3,1.5-1c0.3-0.6,0.2-1.2-0.4-1.7
					c-0.8-0.9-0.8-2.1,0-3c0.3-0.3,0.6-0.6,0.9-0.9l0.3-0.3c1-1,2.1-1,3.1-0.1c0.3,0.3,0.6,0.4,1,0.4c0.4,0,0.8-0.1,1.1-0.4
					c0.3-0.3,0.5-0.7,0.5-1.1c0-1.3,0.9-2.1,2.2-2.1l0.5,0c0.4,0,0.9,0,1.3,0c1.1,0,2,0.8,2.1,2c0,0.2,0,0.4,0.1,0.5
					c0.1,0.5,0.5,0.9,1.1,1.1c0.5,0.2,1.1,0,1.5-0.4c0.3-0.3,0.7-0.6,1.4-0.7c0.3,0,0.5,0,0.8,0.1l0.1,0.1c0.2,0.1,0.4,0.2,0.7,0.4
					c0.3,0.3,0.6,0.6,0.9,0.9l0.3,0.3c1,1,1,2.1,0.1,3.1c-0.3,0.3-0.4,0.6-0.4,1.1c0,0.9,0.7,1.5,1.6,1.6c1.2,0,2.1,0.9,2.1,2.1
					c0,0.6,0,1.2,0,1.9c0,1.1-0.9,2-2,2.1c-0.2,0-0.4,0-0.5,0.1c-0.5,0.1-0.9,0.5-1.1,1.1c-0.2,0.5,0,1.1,0.4,1.5
					c0.9,1,0.9,2.1,0,3.1l-1.1,1.1c-1,1-2.1,1-3.1,0c-0.3-0.3-0.6-0.4-1-0.4c-0.4,0-0.8,0.1-1.1,0.4c-0.3,0.3-0.5,0.7-0.5,1.1
					c0,1.3-0.9,2.1-2.1,2.1C91.5,112.3,91.2,112.3,90.9,112.3z M90.2,109.9c0.5,0,0.9,0,1.4,0c0.1-1,0.5-1.9,1.2-2.6
					c0.8-0.7,1.7-1.1,2.8-1.1c0.9,0,1.8,0.4,2.5,1l1-1c-0.9-1-1.2-2.4-0.8-3.7c0.4-1.3,1.4-2.3,2.8-2.7c0.3-0.1,0.5-0.1,0.7-0.1
					c0-0.5,0-0.9,0-1.4c-2.1-0.2-3.7-1.8-3.7-3.9c0-0.9,0.4-1.8,1-2.5l-0.3-0.3c-0.2-0.2-0.5-0.5-0.7-0.7c-1,0.9-2.4,1.2-3.7,0.8
					c-1.3-0.4-2.3-1.4-2.7-2.8c-0.1-0.3-0.1-0.5-0.1-0.7c-0.4,0-0.7,0-1.1,0l-0.3,0c-0.1,1-0.5,1.9-1.2,2.6
					c-0.8,0.7-1.7,1.1-2.8,1.1c-0.9,0-1.8-0.4-2.5-1l-0.2,0.2c-0.2,0.2-0.5,0.5-0.7,0.7c1,1.2,1.3,2.6,0.7,4.1
					c-0.6,1.4-1.8,2.3-3.4,2.4c0,0.5,0,0.9,0,1.4c1.6,0.1,2.8,1,3.4,2.4c0.6,1.4,0.4,2.9-0.7,4.1c0.3,0.3,0.6,0.6,1,1
					c1.2-1,2.7-1.3,4.1-0.7C89.3,107.2,90.1,108.4,90.2,109.9z M98.2,107.4L98.2,107.4L98.2,107.4z"/>
			</g>
		</g>
		<g>
			<g>
				<path class="st0" d="M103.4,127c-3.4,0-6.2-2.8-6.2-6.2s2.8-6.2,6.2-6.2c3.4,0,6.2,2.8,6.2,6.2S106.8,127,103.4,127z M103.4,117
					c-2.1,0-3.8,1.7-3.8,3.8c0,2.1,1.7,3.8,3.8,3.8s3.8-1.7,3.8-3.8C107.2,118.7,105.5,117,103.4,117z"/>
			</g>
			<g>
				<path class="st0" d="M103.4,134c-0.3,0-0.6,0-0.9,0c-1.2,0-2.1-0.8-2.1-2.1c0-0.8-0.3-1.2-1-1.5c-0.6-0.3-1.2-0.2-1.7,0.4
					c-0.9,0.8-2.1,0.8-3,0c-0.4-0.4-0.8-0.8-1.2-1.2c-0.9-0.9-0.9-2.1,0-3c0.5-0.6,0.6-1.1,0.4-1.7c-0.3-0.6-0.7-0.9-1.5-1
					c-1.2,0-2.1-0.9-2.1-2.1c0-0.6,0-1.2,0-1.8c0-1.2,0.9-2.1,2-2.1c0.8,0,1.2-0.3,1.5-1c0.3-0.6,0.2-1.2-0.4-1.7
					c-0.8-0.9-0.8-2.1,0-3c0.3-0.3,0.6-0.6,0.9-0.9l0.3-0.3c1-1,2.1-1,3.1-0.1c0.3,0.3,0.6,0.4,1,0.4c0.4,0,0.8-0.1,1.1-0.4
					c0.3-0.3,0.5-0.7,0.5-1.1c0-1.3,0.9-2.1,2.2-2.1l0.4,0c0.5,0,1,0,1.4,0c1.1,0,2,0.9,2.1,2c0,0.2,0,0.4,0.1,0.5
					c0.1,0.5,0.5,0.9,1.1,1.1c0.5,0.2,1.1,0,1.5-0.4c0.3-0.3,0.7-0.6,1.4-0.7c0.3,0,0.5,0,0.8,0.1l0.1,0.1c0.2,0.1,0.4,0.2,0.7,0.4
					c0.3,0.3,0.6,0.6,0.9,0.9l0.3,0.3c1,1,1,2.1,0.1,3.1c-0.3,0.3-0.4,0.6-0.4,1.1c0,0.9,0.7,1.5,1.6,1.6c1.2,0,2.1,0.9,2.1,2.1
					c0,0.6,0,1.2,0,1.9c0,1.1-0.9,2-2,2.1c-0.2,0-0.4,0-0.5,0.1c-0.5,0.1-0.9,0.5-1.1,1.1c-0.2,0.5,0,1.1,0.4,1.5
					c0.9,1,0.9,2.1,0,3.1l-1.1,1.1c-1,1-2.1,1-3.1,0c-0.3-0.3-0.6-0.4-1-0.4c-0.4,0-0.8,0.1-1.1,0.4c-0.3,0.3-0.5,0.7-0.5,1.1
					c0,1.3-0.9,2.1-2.1,2.1C104,134,103.7,134,103.4,134z M102.7,131.6c0.5,0,0.9,0,1.4,0c0.1-1,0.5-1.9,1.2-2.6
					c0.8-0.7,1.8-1.1,2.8-1.1c0.9,0,1.8,0.4,2.5,1l1-1c-0.9-1-1.2-2.4-0.8-3.7c0.4-1.3,1.4-2.3,2.8-2.7c0.3-0.1,0.5-0.1,0.7-0.1
					c0-0.5,0-0.9,0-1.4c-2.1-0.2-3.7-1.8-3.7-3.9c0-0.9,0.4-1.8,1-2.5l-0.3-0.3c-0.2-0.2-0.5-0.5-0.7-0.7c-1,0.9-2.4,1.2-3.7,0.8
					c-1.3-0.4-2.3-1.4-2.7-2.8c-0.1-0.3-0.1-0.5-0.1-0.7c-0.4,0-0.8,0-1.2,0l-0.2,0c-0.1,1-0.5,1.9-1.2,2.6
					c-0.8,0.7-1.7,1.1-2.8,1.1c-0.9,0-1.8-0.4-2.5-1L96,113c-0.2,0.2-0.5,0.5-0.7,0.7c1,1.2,1.3,2.6,0.7,4.1
					c-0.6,1.4-1.8,2.3-3.4,2.4c0,0.5,0,0.9,0,1.4c1.6,0.1,2.8,1,3.4,2.4c0.6,1.4,0.4,2.9-0.7,4.1c0.3,0.3,0.6,0.6,1,1
					c1.2-1,2.7-1.3,4.1-0.7C101.7,128.9,102.6,130,102.7,131.6z"/>
			</g>
		</g>
	</g>
</g>
</svg>
