<?xml version="1.0" encoding="utf-8"?>
<!-- Generator: Adobe Illustrator 26.3.1, SVG Export Plug-In . SVG Version: 6.00 Build 0)  -->
<svg version="1.1" id="Layer_1" xmlns="http://www.w3.org/2000/svg" xmlns:xlink="http://www.w3.org/1999/xlink" x="0px" y="0px"
	 viewBox="0 0 200 200" style="enable-background:new 0 0 200 200;" xml:space="preserve">
<style type="text/css">
	.st0{fill:#0067FC;}
</style>
<g>
	<g>
		<g>
			<g>
				<path class="st0" d="M83.1,125.2c-3,0-6-1.1-8.3-3.4c-4.6-4.6-4.6-12,0-16.6l0,0c4.6-4.6,12-4.6,16.6,0c2.2,2.2,3.4,5.2,3.4,8.3
					c0,3.1-1.2,6.1-3.4,8.3C89.2,124.1,86.2,125.2,83.1,125.2z M76.6,107c-3.6,3.6-3.6,9.5,0,13.1c3.6,3.6,9.5,3.6,13.1,0
					c1.7-1.7,2.7-4.1,2.7-6.5c0-2.5-1-4.8-2.7-6.5C86.1,103.4,80.2,103.4,76.6,107L76.6,107z"/>
			</g>
			<g>
				<path class="st0" d="M82.8,139.7c-0.5,0-1,0-1.6,0c-0.5,0-0.9-0.2-1.3-0.3c-0.1,0-0.3-0.1-0.4-0.1c-0.3-0.1-0.5-0.2-0.7-0.5
					c-0.6-0.9-0.7-1.7-0.7-2.4c-0.1-1.6-0.9-3-2.3-3.8c-1.4-0.8-3-0.7-4.4,0.1c-0.3,0.2-0.7,0.5-1,0.8c-1.3,1.2-3.1,1.2-4.3-0.1
					c-0.7-0.7-1.4-1.4-2-2l-0.6-0.6c-1.5-1.5-1.5-3.2,0-4.7c0.8-0.9,1.3-2,1.3-3.2c0-1.2-0.5-2.3-1.4-3.1c-0.8-0.8-1.8-1.2-3-1.2
					c-2.2-0.1-3.3-1.3-3.3-3.5l0-1.1c0-0.8,0-1.6,0-2.4c0-1.9,1.2-3.2,3.2-3.2c2.1-0.1,3.4-1,4.1-2.7c0.7-1.8,0.4-3.4-1-4.9
					c-1.3-1.3-1.3-3.1,0-4.5c0.9-0.9,1.8-1.8,2.7-2.7c1.3-1.3,3.1-1.4,4.5-0.1c1.5,1.4,3.1,1.7,4.9,1c1.8-0.7,2.7-2.1,2.8-4.1
					c0.1-2,1.3-3.2,3.3-3.2c1.2,0,2.5,0,3.7,0c1.9,0,3.2,1.2,3.2,3.2c0.1,2.1,1,3.4,2.8,4.1c1.8,0.7,3.4,0.4,4.9-1
					c1.4-1.3,3.2-1.3,4.5,0.1c0.9,0.9,1.7,1.7,2.6,2.6c1.4,1.4,1.4,3.2,0,4.6c-0.9,0.9-1.3,2.1-1.3,3.3c0,1.2,0.5,2.3,1.4,3.1
					c0.8,0.8,1.8,1.1,2.9,1.2c2.2,0.1,3.3,1.3,3.3,3.5c0,1.1,0,2.2,0,3.4c0,2.1-1.2,3.3-3.3,3.4c-1.6,0.1-3.1,0.9-3.8,2.3
					c-0.8,1.4-0.7,3,0.1,4.4c0.2,0.3,0.5,0.7,0.8,1c1.2,1.3,1.2,3.1,0,4.3c-0.9,0.9-1.7,1.7-2.6,2.6l-0.1,0.1
					c-1.4,1.4-3.1,1.4-4.5,0c-1.8-1.8-4.6-1.8-6.3,0c-0.8,0.8-1.2,1.8-1.3,3c-0.1,2.2-1.3,3.3-3.5,3.3l-1,0
					C83.5,139.7,83.1,139.7,82.8,139.7z M80.6,137c0.3,0.1,0.5,0.2,0.7,0.2c0.8,0,1.6,0,2.5,0l1,0c0.9,0,0.9-0.1,1-0.9
					c0.1-1.8,0.7-3.4,2-4.7c2.7-2.8,7-2.8,9.9-0.1c0.5,0.4,0.7,0.4,1.1,0l0.1-0.1c0.9-0.9,1.7-1.7,2.6-2.6c0.2-0.2,0.4-0.5,0-0.9
					c-0.3-0.4-0.8-0.9-1.1-1.4c-1.3-2.1-1.3-4.7-0.1-6.9c1.2-2.2,3.4-3.5,6-3.6c0.8,0,0.9-0.1,0.9-0.9c0-1.1,0-2.2,0-3.4
					c0-0.9-0.1-0.9-0.9-1c-1.8,0-3.3-0.7-4.6-1.9c-1.4-1.3-2.2-3-2.2-4.9c0-1.9,0.7-3.7,2-5.1c0.4-0.4,0.4-0.7,0-1.1
					c-0.9-0.9-1.7-1.7-2.6-2.6c-0.4-0.4-0.6-0.4-1.1,0c-2.2,2.1-4.8,2.6-7.5,1.5c-2.7-1.1-4.2-3.3-4.3-6.4c0-0.6-0.2-0.8-0.8-0.8
					c-1.2,0-2.4,0-3.6,0c-0.6,0-0.8,0.1-0.8,0.8c-0.1,3.1-1.6,5.2-4.3,6.3c-2.7,1.1-5.3,0.6-7.5-1.5c-0.4-0.4-0.6-0.4-1,0
					c-0.9,0.9-1.8,1.8-2.7,2.7c-0.4,0.4-0.4,0.6,0,1c2.1,2.2,2.6,4.9,1.5,7.6c-1.1,2.7-3.3,4.2-6.4,4.3c-0.6,0-0.8,0.2-0.8,0.8
					c0,0.8,0,1.6,0,2.4l0,1.1c0,0.9,0.1,0.9,0.9,1c1.8,0.1,3.3,0.7,4.6,1.9c1.3,1.3,2.1,3,2.1,4.8c0,1.9-0.7,3.7-2,5
					c-0.5,0.5-0.5,0.7,0,1.2l0.6,0.6c0.7,0.7,1.3,1.4,2,2c0.2,0.2,0.5,0.4,0.9,0c0.4-0.3,0.9-0.8,1.4-1.1c2.1-1.3,4.7-1.3,6.9-0.1
					c2.2,1.2,3.5,3.4,3.6,5.9C80.6,136.6,80.6,136.8,80.6,137z"/>
			</g>
		</g>
		<g>
			<g>
				<path class="st0" d="M126.2,112.3c-2.4,0-4.8-0.9-6.6-2.7c-3.6-3.6-3.6-9.5,0-13.2l0,0c0,0,0,0,0,0c1.8-1.8,4.1-2.7,6.6-2.7
					s4.8,1,6.6,2.7c3.6,3.6,3.6,9.5,0,13.2C130.9,111.4,128.6,112.3,126.2,112.3z M126.2,96.2c-1.8,0-3.5,0.7-4.8,2l0,0
					c-2.7,2.7-2.7,7,0,9.6c2.7,2.7,7,2.7,9.6,0c2.7-2.7,2.7-7,0-9.6C129.7,96.9,128,96.2,126.2,96.2z M120.5,97.3L120.5,97.3
					L120.5,97.3z"/>
			</g>
			<g>
				<path class="st0" d="M125.9,123.5c-0.4,0-0.8,0-1.2,0c-0.4,0-0.8-0.1-1.1-0.2c-0.1,0-0.2-0.1-0.3-0.1c-0.3-0.1-0.5-0.2-0.7-0.5
					c-0.5-0.7-0.6-1.4-0.6-2c0-1.1-0.6-2.1-1.6-2.7c-1-0.5-2.1-0.5-3.1,0.1c-0.2,0.1-0.5,0.4-0.7,0.6c-1.1,1-2.7,1-3.7-0.1
					c-0.5-0.5-1-1-1.6-1.6l-0.5-0.5c-1.2-1.2-1.3-2.7,0-4c0.6-0.6,0.9-1.4,0.9-2.3c0-0.8-0.4-1.6-1-2.2c-0.6-0.6-1.3-0.8-2.1-0.9
					c-1.8-0.1-2.8-1.1-2.8-2.9l0-0.7c0-0.7,0-1.3,0-2c0-1.6,1.1-2.7,2.7-2.8c1.5-0.1,2.4-0.7,2.9-1.9c0.5-1.3,0.3-2.4-0.7-3.5
					c-1.1-1.1-1.1-2.7,0-3.8c0.7-0.7,1.4-1.4,2.1-2.1c1.1-1.1,2.7-1.1,3.9,0c1.1,1,2.2,1.2,3.4,0.7c1.3-0.5,1.9-1.4,1.9-2.9
					c0.1-1.7,1.1-2.7,2.8-2.7c0.9,0,1.9,0,2.8,0c1.6,0,2.7,1.1,2.8,2.7c0.1,1.5,0.7,2.4,1.9,2.9c1.3,0.5,2.4,0.3,3.4-0.7
					c1.2-1.1,2.7-1.1,3.9,0.1c0.7,0.7,1.3,1.3,2,2c1.2,1.2,1.2,2.7,0,3.9c-0.6,0.6-1,1.5-0.9,2.3c0,0.8,0.4,1.6,1,2.2
					c0.6,0.5,1.2,0.8,2.1,0.8c1.8,0.1,2.8,1.1,2.9,2.9l0,2.6c0,1.8-1,2.8-2.8,2.9c-1.2,0-2.2,0.6-2.7,1.6c-0.5,1-0.5,2.1,0.1,3.1
					c0.1,0.2,0.4,0.5,0.6,0.7c1,1.1,1,2.7,0,3.7c-0.6,0.6-1.3,1.3-1.9,1.9l-0.2,0.2c-1.2,1.2-2.7,1.2-3.9,0c-1.3-1.2-3.2-1.2-4.5,0
					c-0.6,0.6-0.9,1.3-0.9,2.1c-0.1,1.8-1.1,2.8-2.9,2.8l-0.7,0C126.4,123.5,126.1,123.5,125.9,123.5z M124.5,120.9
					c0.1,0,0.2,0.1,0.3,0.1c0.6,0,1.3,0,1.9,0l0.8,0c0.2,0,0.4,0,0.4,0c0,0,0-0.1,0-0.4c0-1.5,0.6-2.7,1.6-3.8
					c2.2-2.2,5.7-2.3,8-0.1c0.1,0.1,0.2,0.2,0.2,0.2c0,0,0.1,0,0.2-0.1l0.2-0.2c0.6-0.6,1.3-1.3,1.9-1.9c0.1-0.1,0.1-0.1,0-0.3
					c-0.3-0.3-0.6-0.7-0.9-1.1c-1-1.7-1.1-3.8-0.1-5.6c1-1.8,2.8-2.9,4.8-2.9c0.2,0,0.3,0,0.4-0.1c0,0,0-0.1,0-0.3l0-2.6
					c0-0.3,0-0.4,0-0.4c0,0-0.1,0-0.4,0c-1.4,0-2.7-0.5-3.7-1.5c-1.1-1-1.7-2.4-1.8-3.9c0-1.5,0.5-3,1.6-4.1
					c0.1-0.1,0.2-0.2,0.2-0.2c0,0,0-0.1-0.2-0.2c-0.7-0.7-1.3-1.3-2-2c-0.1-0.1-0.2-0.2-0.2-0.2c0,0-0.1,0-0.2,0.1
					c-1.8,1.7-3.9,2.1-6.1,1.2c-2.2-0.9-3.4-2.7-3.5-5.1c0-0.2,0-0.3-0.1-0.3h0c0,0-0.1,0-0.2,0c-0.9,0-1.9,0-2.8,0
					c-0.2,0-0.3,0-0.3,0c0,0,0,0.1,0,0.3c-0.1,2.4-1.3,4.3-3.5,5.1c-2.2,0.9-4.3,0.4-6.1-1.2c-0.1-0.1-0.2-0.1-0.2-0.1
					c0,0-0.1,0-0.2,0.1c-0.7,0.7-1.4,1.4-2,2c-0.1,0.1-0.1,0.2-0.1,0.2c0,0,0,0.1,0.1,0.2c1.7,1.8,2.1,3.9,1.2,6.1
					c-0.9,2.2-2.7,3.4-5.2,3.5c-0.2,0-0.3,0-0.3,0.1c0,0,0,0.1,0,0.2c0,0.7,0,1.3,0,2l0,0.7c0,0.3,0,0.4,0,0.4c0,0,0.1,0,0.4,0
					c1.4,0,2.7,0.6,3.7,1.5c1.1,1,1.7,2.4,1.7,3.9c0,1.5-0.5,3-1.6,4.1c-0.1,0.1-0.2,0.2-0.2,0.3c0,0,0.1,0.1,0.2,0.2l0.5,0.5
					c0.5,0.5,1,1,1.5,1.5c0.1,0.1,0.1,0.1,0.3,0c0.3-0.3,0.7-0.6,1.1-0.9c1.7-1,3.8-1.1,5.6-0.1c1.8,1,2.8,2.7,2.9,4.8
					C124.5,120.7,124.5,120.8,124.5,120.9z"/>
			</g>
		</g>
		<g>
			<g>
				<path class="st0" d="M107.4,79.4c-2.1,0-4.2-0.8-5.7-2.4c-3.2-3.2-3.2-8.3,0-11.5c3.2-3.2,8.3-3.2,11.5,0
					c3.2,3.2,3.2,8.3,0,11.5C111.5,78.6,109.5,79.4,107.4,79.4z M107.4,65.6c-1.4,0-2.9,0.5-4,1.6c-2.2,2.2-2.2,5.8,0,7.9
					c2.2,2.2,5.8,2.2,7.9,0c2.2-2.2,2.2-5.8,0-7.9C110.3,66.2,108.8,65.6,107.4,65.6z"/>
			</g>
			<g>
				<path class="st0" d="M107.1,88.9c-0.3,0-0.7,0-1,0c-0.4,0-0.7-0.1-1-0.2c-0.1,0-0.2-0.1-0.2-0.1c-0.3-0.1-0.5-0.2-0.7-0.5
					c-0.5-0.7-0.5-1.3-0.6-1.8c0-0.9-0.5-1.7-1.3-2.1c-0.8-0.4-1.7-0.4-2.4,0c-0.2,0.1-0.4,0.3-0.6,0.5c-1,0.9-2.4,0.9-3.4-0.1
					c-0.4-0.4-0.9-0.9-1.3-1.3l-0.4-0.4c-1.1-1.1-1.1-2.5,0-3.7c0.5-0.5,0.7-1.1,0.7-1.8c0-0.7-0.3-1.3-0.8-1.7
					c-0.5-0.4-1-0.7-1.7-0.7c-1.6-0.1-2.6-1-2.6-2.7l0-0.7c0-0.5,0-1.1,0-1.6c0-1.5,1-2.5,2.5-2.6c1.2,0,1.9-0.5,2.3-1.5
					c0.4-1,0.2-1.9-0.6-2.8c-1-1-1-2.5,0-3.5c0.6-0.6,1.2-1.2,1.8-1.8c1-1,2.5-1.1,3.5,0c0.9,0.8,1.7,1,2.7,0.6
					c1-0.4,1.5-1.1,1.5-2.3c0.1-1.5,1.1-2.5,2.6-2.5c0.8,0,1.6,0,2.4,0c1.5,0,2.5,1,2.5,2.5c0,1.2,0.5,1.9,1.5,2.3
					c1,0.4,1.9,0.2,2.7-0.6c1.1-1,2.5-1,3.6,0.1c0.6,0.6,1.1,1.1,1.7,1.7c1.1,1.1,1.1,2.5,0,3.6c-0.5,0.5-0.8,1.2-0.7,1.8
					c0,0.7,0.3,1.3,0.8,1.7c0.5,0.4,1,0.6,1.6,0.7c1.7,0,2.6,1,2.6,2.7l0,2.2c0,1.6-1,2.6-2.6,2.6c-0.9,0-1.7,0.5-2.2,1.3
					c-0.4,0.8-0.4,1.7,0.1,2.4c0.1,0.2,0.3,0.4,0.5,0.6c0.9,1,0.9,2.5,0,3.4c-0.6,0.6-1.1,1.1-1.7,1.7l-0.1,0.1
					c-1.1,1-2.5,1.1-3.6,0c-1-1-2.6-1-3.5,0c-0.5,0.5-0.7,1-0.7,1.7c-0.1,1.7-1,2.6-2.7,2.6l-0.6,0
					C107.6,88.9,107.4,88.9,107.1,88.9z M106.1,86.3C106.1,86.3,106.2,86.4,106.1,86.3c0.6,0,1.2,0,1.7,0l0.7,0c0.1,0,0.1,0,0.2,0
					c0,0,0-0.1,0-0.2c0-1.3,0.5-2.4,1.4-3.3c1.9-2,5-2,7.1-0.1c0,0,0,0,0,0c0,0,0,0,0,0l0.1-0.1c0.6-0.6,1.1-1.1,1.7-1.7
					c-0.3-0.3-0.6-0.6-0.8-1c-0.9-1.5-0.9-3.4-0.1-4.9c0.9-1.6,2.5-2.5,4.3-2.6c0.1,0,0.1,0,0.1,0c0,0,0-0.1,0-0.1l0-2.2
					c0-0.1,0-0.1,0-0.2c0,0-0.1,0-0.2,0c-1.3,0-2.4-0.5-3.3-1.3c-1-0.9-1.5-2.2-1.6-3.5c0-1.3,0.5-2.6,1.4-3.6c0,0,0,0,0.1-0.1
					c0,0,0,0,0-0.1c-0.6-0.6-1.1-1.1-1.7-1.7c0,0,0,0,0,0c0,0,0,0,0,0c-1.6,1.5-3.5,1.8-5.4,1.1c-1.9-0.8-3-2.4-3.1-4.5
					c0,0,0-0.1,0-0.1c0,0,0,0-0.1,0c-0.8,0-1.6,0-2.4,0c0,0-0.1,0-0.1,0c0,0,0,0.1,0,0.1c-0.1,2.1-1.2,3.8-3.1,4.5
					c-1.9,0.8-3.8,0.4-5.4-1.1c0,0,0,0,0,0c0,0,0,0,0,0c-0.6,0.6-1.2,1.2-1.7,1.7c0,0,0,0,0,0c1.5,1.6,1.9,3.5,1.1,5.5
					c-0.8,1.9-2.4,3-4.6,3.1c0,0-0.1,0-0.1,0c0,0,0,0,0,0.1c0,0.5,0,1,0,1.6l0,0.7c0,0.1,0,0.1,0,0.2c0,0,0.1,0,0.2,0
					c1.3,0,2.4,0.5,3.3,1.4c1,0.9,1.5,2.1,1.5,3.5c0,1.3-0.5,2.6-1.4,3.6c0,0-0.1,0.1-0.1,0.1c0,0,0,0.1,0.1,0.1l0.4,0.4
					c0.4,0.4,0.9,0.9,1.3,1.3c0.3-0.2,0.6-0.6,1-0.8c1.5-0.9,3.4-0.9,4.9-0.1c1.6,0.9,2.5,2.4,2.6,4.2
					C106.1,86.2,106.1,86.3,106.1,86.3z M119,61.5L119,61.5L119,61.5z M119,61.4L119,61.4L119,61.4z"/>
			</g>
		</g>
	</g>
	<g>
		<path class="st0" d="M100,172.7c-40.1,0-72.7-32.6-72.7-72.7S59.9,27.3,100,27.3s72.7,32.6,72.7,72.7S140.1,172.7,100,172.7z
			 M100,31.3c-37.9,0-68.7,30.8-68.7,68.7c0,37.9,30.8,68.7,68.7,68.7c37.9,0,68.7-30.8,68.7-68.7C168.7,62.1,137.9,31.3,100,31.3z"
			/>
	</g>
</g>
</svg>
