<?xml version="1.0" encoding="utf-8"?>
<!-- Generator: Adobe Illustrator 26.3.1, SVG Export Plug-In . SVG Version: 6.00 Build 0)  -->
<svg version="1.1" id="Layer_1" xmlns="http://www.w3.org/2000/svg" xmlns:xlink="http://www.w3.org/1999/xlink" x="0px" y="0px"
	 viewBox="0 0 200 200" style="enable-background:new 0 0 200 200;" xml:space="preserve">
<style type="text/css">
	.st0{fill:#0067FC;}
</style>
<g>
	<g>
		<path class="st0" d="M99.8,172.6c-40.1,0-72.7-32.6-72.7-72.7s32.6-72.7,72.7-72.7s72.7,32.6,72.7,72.7S139.9,172.6,99.8,172.6z
			 M99.8,31.2c-37.9,0-68.7,30.8-68.7,68.7c0,37.9,30.8,68.7,68.7,68.7c37.9,0,68.7-30.8,68.7-68.7C168.5,62,137.7,31.2,99.8,31.2z"
			/>
	</g>
	<g>
		<g id="Group_263_00000158012084806549961380000012594690704473557668_" transform="translate(-598.5 -520.001)">
			<g id="Group_259_00000160149015110614346370000006658360939856662961_" transform="translate(549.903 487.744)">
				<g id="Ellipse_9_00000119089863053058312290000016501702712752071074_">
					<path class="st0" d="M148,109.1c-7.6,0-13.7-6.2-13.7-13.7s6.2-13.7,13.7-13.7c7.6,0,13.7,6.2,13.7,13.7S155.6,109.1,148,109.1
						z M148,84.1c-6.2,0-11.2,5-11.2,11.2s5,11.2,11.2,11.2s11.2-5,11.2-11.2S154.2,84.1,148,84.1z"/>
				</g>
				<g id="Path_16_00000135653356479532397700000007757141111083547289_">
					<path class="st0" d="M168.4,132.7c-0.7,0-1.2-0.6-1.2-1.2c0-10.5-8.6-19.1-19.1-19.1c-10.5,0-19.1,8.6-19.1,19.1
						c0,0.7-0.6,1.2-1.2,1.2s-1.2-0.6-1.2-1.2c0-11.9,9.7-21.6,21.6-21.6s21.6,9.7,21.6,21.6C169.6,132.2,169.1,132.7,168.4,132.7z"
						/>
				</g>
			</g>
		</g>
	</g>
	<g>
		<g>
			<path class="st0" d="M100.8,150.9c-0.3,0-0.6-0.2-0.8-0.4l-5.4-7.5c-0.1-0.2-0.2-0.4-0.2-0.6v-4c0-0.3,0.1-0.6,0.3-0.8l2.5-2.4
				l-2.5-2.3c-0.2-0.2-0.3-0.5-0.3-0.8s0.1-0.6,0.3-0.8l2.5-2.4l-2.5-2.2c-0.2-0.2-0.4-0.5-0.4-0.8c0-0.3,0.1-0.6,0.4-0.8l2.4-2
				l-2.4-2.1c-0.2-0.2-0.4-0.5-0.4-0.8v-5.8c-5.8-2.2-9.6-7.8-9.6-14c0-8.3,6.7-15,15-15s15,6.7,15,15c0,5.5-2.9,10.4-7.7,13.1v28.6
				c0,0.2-0.1,0.4-0.2,0.6l-5.4,7.5C101.5,150.8,101.2,150.9,100.8,150.9z M96.5,142.1l4.3,6l4.3-6v-28.9c0-0.4,0.2-0.7,0.6-0.9
				c4.4-2.2,7.1-6.7,7.1-11.5c0-7.1-5.8-13-13-13c-7.1,0-13,5.8-13,13c0,5.6,3.6,10.6,8.9,12.3c0.4,0.1,0.7,0.5,0.7,1v6.1l3,2.5
				c0.2,0.2,0.4,0.5,0.4,0.8s-0.1,0.6-0.4,0.8l-2.4,2l2.4,2.1c0.2,0.2,0.3,0.5,0.4,0.8s-0.1,0.6-0.3,0.8l-2.5,2.4l2.5,2.3
				c0.2,0.2,0.3,0.5,0.3,0.8s-0.1,0.6-0.3,0.8l-3,2.8V142.1z"/>
		</g>
		<g>
			<path class="st0" d="M99.8,106.1c-3.3,0-5.9-2.7-5.9-5.9s2.7-5.9,5.9-5.9s5.9,2.7,5.9,5.9S103.1,106.1,99.8,106.1z M99.8,96.4
				c-2.1,0-3.8,1.7-3.8,3.8c0,2.1,1.7,3.8,3.8,3.8c2.1,0,3.8-1.7,3.8-3.8C103.7,98.1,101.9,96.4,99.8,96.4z"/>
		</g>
	</g>
</g>
</svg>
