<?xml version="1.0" encoding="utf-8"?>
<!-- Generator: Adobe Illustrator 26.3.1, SVG Export Plug-In . SVG Version: 6.00 Build 0)  -->
<svg version="1.1" id="Layer_1" xmlns="http://www.w3.org/2000/svg" xmlns:xlink="http://www.w3.org/1999/xlink" x="0px" y="0px"
	 viewBox="0 0 200 200" style="enable-background:new 0 0 200 200;" xml:space="preserve">
<style type="text/css">
	.st0{fill:#0067FC;}
</style>
<g>
	<path class="st0" d="M99.8,172.6c-40.1,0-72.7-32.6-72.7-72.7s32.6-72.7,72.7-72.7s72.7,32.6,72.7,72.7S139.9,172.6,99.8,172.6z
		 M99.8,31.2c-37.9,0-68.7,30.8-68.7,68.7c0,37.9,30.8,68.7,68.7,68.7c37.9,0,68.7-30.8,68.7-68.7C168.5,62,137.7,31.2,99.8,31.2z"
		/>
</g>
<g>
	<g>
		<g>
			<g>
				<path class="st0" d="M93.1,86.2c-5.1,0-9.2-4.1-9.2-9.2s4.1-9.2,9.2-9.2s9.2,4.1,9.2,9.2S98.1,86.2,93.1,86.2z M93.1,70.3
					c-3.7,0-6.7,3-6.7,6.7s3,6.7,6.7,6.7s6.7-3,6.7-6.7S96.7,70.3,93.1,70.3z"/>
			</g>
			<g>
				<path class="st0" d="M93.1,97.1c-0.5,0-1,0-1.4,0c-1.7,0-2.7-1.1-2.8-2.7c0-0.9-0.4-1.7-1-2.2c-0.6-0.6-1.4-0.8-2.2-0.8
					c-0.8,0-1.4,0.3-2,0.8c-1.3,1.2-2.8,1.2-4.1-0.1c-0.6-0.6-1.2-1.2-1.8-1.8c-1.2-1.2-1.3-2.7-0.1-4c0.8-0.8,1.1-1.9,0.7-3
					c-0.3-1-1.1-1.8-2.2-2.1c-0.2-0.1-0.5-0.1-0.9-0.1C74,81.1,73,80,73,78.5c0-1,0-1.9,0-2.9c0-1.6,1.1-2.7,2.7-2.7
					c1.7,0,3.1-1.4,3.1-3.1c0-0.8-0.3-1.5-0.8-2.1c-1.2-1.3-1.2-2.8,0.1-4l0.5-0.5c0.5-0.5,0.9-1,1.4-1.4c0.3-0.3,0.7-0.5,0.9-0.6
					c0.1,0,0.2-0.1,0.3-0.1c0.3-0.1,0.5-0.2,0.8-0.1c0.9,0.1,1.4,0.6,1.8,1c0.8,0.8,1.9,1,2.9,0.7c1-0.3,1.8-1.1,2.1-2.2
					c0.1-0.2,0.1-0.5,0.1-0.9c0.1-1.5,1.2-2.6,2.7-2.6c0.7,0,1.4,0,2.1,0l0.7,0c1.7,0,2.8,1.1,2.8,2.8c0,0.8,0.4,1.6,1,2.2
					c0.6,0.6,1.4,0.8,2.2,0.8c0.8,0,1.5-0.3,2-0.9c1.3-1.2,2.8-1.2,4,0.1l0.5,0.5c0.5,0.5,0.9,0.9,1.4,1.4c1.1,1.2,1.2,2.7,0,3.9
					c-1,1-1.2,2.1-0.7,3.3c0.5,1.2,1.4,1.8,2.9,1.9c1.6,0,2.6,1.2,2.7,2.7c0,1,0,1.9,0,2.9c0,1.6-1.1,2.7-2.7,2.7
					c-1.4,0-2.3,0.6-2.9,1.9c-0.5,1.2-0.3,2.3,0.7,3.3c1.1,1.2,1.1,2.7-0.1,3.9c-0.7,0.7-1.3,1.3-2,2c-1.1,1.1-2.7,1.1-3.8,0
					c-1.1-1-2.1-1.2-3.3-0.7c-1.2,0.5-1.8,1.4-1.9,2.9c-0.1,1.6-1.1,2.7-2.8,2.7C94,97.1,93.6,97.1,93.1,97.1z M91.5,94.6
					c0,0,0.1,0,0.2,0c0.9,0,1.8,0,2.8,0c0.2,0,0.2,0,0.2,0c0,0,0-0.1,0-0.2c0.1-2.4,1.3-4.2,3.4-5.1c2.1-0.9,4.3-0.5,6,1.2
					c0.1,0.1,0.2,0.2,0.2,0.2c0,0,0.1,0,0.2-0.1c0.7-0.6,1.3-1.3,1.9-1.9c0.1-0.1,0.2-0.2,0.2-0.2c0,0,0-0.1-0.2-0.2
					c-1.6-1.8-2-3.9-1.1-6c0.9-2.1,2.7-3.3,5.1-3.4c0.1,0,0.2,0,0.2,0c0,0,0-0.1,0-0.2c0-0.9,0-1.9,0-2.8c0-0.1,0-0.2,0-0.2l0,0
					c0,0-0.1,0-0.2,0c-2.4-0.1-4.2-1.3-5.1-3.4c-0.9-2.1-0.5-4.3,1.2-6c0.1-0.1,0.1-0.2,0.1-0.2c0,0,0-0.1-0.1-0.2
					c-0.4-0.5-0.9-0.9-1.3-1.3l-0.5-0.5c-0.2-0.2-0.3-0.2-0.3-0.2c0,0-0.1,0.1-0.3,0.2c-1,1-2.3,1.5-3.7,1.5c-1.5,0-2.9-0.5-3.9-1.5
					c-1.1-1-1.7-2.4-1.7-3.9c0-0.2,0-0.3,0-0.3c0,0-0.1,0-0.3,0l-0.7,0c-0.7,0-1.4,0-2.1,0c-0.1,0-0.2,0-0.2,0.2
					c0,0.4,0,0.9-0.2,1.4c-0.5,1.9-1.9,3.4-3.8,3.9c-1.9,0.6-3.9,0.1-5.4-1.3c-0.1-0.1-0.2-0.2-0.3-0.2c-0.1,0.1-0.2,0.1-0.2,0.1
					c-0.5,0.4-0.9,0.9-1.3,1.3l-0.5,0.5c-0.2,0.2-0.2,0.3-0.2,0.3c0,0,0.1,0.1,0.2,0.3c1,1.1,1.5,2.3,1.5,3.7c0,3.1-2.4,5.5-5.5,5.6
					c-0.2,0-0.2,0-0.3,0c0,0,0,0.1,0,0.2c0,1,0,1.9,0,2.9c0,0.1,0,0.2,0.2,0.2c0.4,0,0.9,0,1.4,0.2c1.9,0.5,3.4,1.9,3.9,3.8
					c0.6,1.9,0.1,3.9-1.3,5.4c-0.1,0.1-0.2,0.2-0.2,0.3c0,0,0.1,0.1,0.2,0.2c0.6,0.6,1.2,1.2,1.8,1.8c0.2,0.2,0.3,0.2,0.3,0.2
					c0,0,0.1-0.1,0.3-0.2c1-1,2.3-1.5,3.6-1.5c1.5,0,2.9,0.5,4,1.5c1.1,1,1.7,2.5,1.7,4C91.4,94.5,91.4,94.6,91.5,94.6
					C91.5,94.6,91.5,94.6,91.5,94.6z"/>
			</g>
		</g>
		<g>
			<g>
				<path class="st0" d="M74.2,114.6c-4,0-7.3-3.3-7.3-7.3s3.3-7.3,7.3-7.3c4,0,7.3,3.3,7.3,7.3S78.2,114.6,74.2,114.6z M74.2,102.4
					c-2.7,0-4.8,2.2-4.8,4.8s2.2,4.8,4.8,4.8c2.7,0,4.8-2.2,4.8-4.8S76.9,102.4,74.2,102.4z"/>
			</g>
			<g>
				<path class="st0" d="M74.2,123c-0.4,0-0.7,0-1.1,0c-1.4,0-2.4-1-2.4-2.4c0-0.6-0.2-1.1-0.6-1.5c-0.4-0.4-0.9-0.5-1.5-0.5
					c-0.5,0-1,0.2-1.3,0.6c-1.1,1.1-2.4,1-3.5-0.1l-1.4-1.4c-1.1-1.1-1.1-2.4,0-3.5c0.5-0.6,0.7-1.3,0.5-2c-0.2-0.7-0.7-1.2-1.5-1.4
					c-0.2,0-0.4-0.1-0.6-0.1c-1.3-0.1-2.2-1-2.3-2.3c0-0.7,0-1.4,0-2.2c0-1.5,1-2.5,2.4-2.5c1.2,0,2.1-0.9,2.1-2.1
					c0-0.5-0.2-1-0.6-1.4c-1.1-1.1-1-2.4,0.1-3.5l0.4-0.4c0.4-0.4,0.7-0.7,1.1-1.1c0.3-0.2,0.6-0.4,0.8-0.5c0.1,0,0.1-0.1,0.2-0.1
					c0.3-0.1,0.5-0.2,0.8-0.1c0.7,0.1,1.2,0.5,1.6,0.8c0.5,0.5,1.3,0.7,2,0.5c0.7-0.2,1.2-0.7,1.4-1.5c0-0.2,0.1-0.4,0.1-0.6
					c0.1-1.3,1-2.2,2.3-2.3c0.6,0,1.1,0,1.7,0l0.5,0c1.5,0,2.4,0.9,2.5,2.4c0,0.6,0.2,1.1,0.6,1.5c0.4,0.4,0.9,0.6,1.5,0.6
					c0.5,0,1-0.2,1.4-0.6c1.1-1.1,2.4-1,3.5,0.1l0.4,0.4c0.3,0.3,0.7,0.7,1,1c1,1,1,2.3,0,3.4c-0.7,0.7-0.8,1.4-0.5,2.3
					c0.4,0.9,1,1.2,2,1.3c1.4,0,2.3,1,2.3,2.4c0,0.7,0,1.5,0,2.2c0,1.4-1,2.3-2.3,2.4c-1,0-1.6,0.4-1.9,1.3
					c-0.4,0.8-0.2,1.5,0.5,2.3c1,1,0.9,2.4,0,3.4c-0.5,0.5-1,1-1.5,1.5c-1,1-2.3,1-3.4,0c-0.7-0.7-1.4-0.8-2.3-0.5
					c-0.8,0.4-1.2,1-1.3,1.9c0,1.4-1,2.3-2.4,2.3C74.9,123,74.6,123,74.2,123z M73.2,120.5c0.7,0,1.3,0,2,0c0.1-2,1.1-3.4,2.8-4.1
					c1.7-0.7,3.5-0.4,4.9,0.9c0.5-0.5,1-0.9,1.4-1.4c-1.3-1.4-1.6-3.2-0.9-4.9c0.7-1.7,2.2-2.7,4.1-2.8c0-0.7,0-1.3,0-2
					c-1.9-0.1-3.4-1.1-4.1-2.8c-0.7-1.7-0.4-3.5,0.9-4.9c-0.3-0.3-0.6-0.7-0.9-1l-0.4-0.4c0,0,0,0,0,0c0,0,0,0,0,0
					c-0.9,0.8-1.9,1.2-3,1.3c-1.2,0-2.4-0.4-3.2-1.2c-0.9-0.8-1.4-2-1.4-3.2l-0.5,0c-0.5,0-1,0-1.5,0c0,0.3,0,0.7-0.1,1
					c-0.4,1.6-1.6,2.8-3.1,3.2c-1.6,0.5-3.2,0.1-4.4-1.1c0,0,0,0,0,0c-0.3,0.3-0.6,0.6-1,0.9l-0.4,0.4c0,0,0,0,0,0c0,0,0,0,0,0
					c0.8,0.9,1.2,1.9,1.3,3.1c0,2.5-1.9,4.5-4.5,4.6c0,0,0,0,0,0c0,0.7,0,1.3,0,2c0.3,0,0.7,0,1,0.1c1.6,0.4,2.8,1.6,3.2,3.1
					c0.5,1.6,0,3.2-1.1,4.4l1.4,1.4c0,0,0,0,0,0c0,0,0,0,0,0c0.8-0.8,1.8-1.2,3-1.3c1.2-0.1,2.4,0.4,3.3,1.2
					C72.7,118.1,73.2,119.3,73.2,120.5z"/>
			</g>
		</g>
		<g>
			<g>
				<path class="st0" d="M102.2,120.9c-3.5,0-6.4-2.9-6.4-6.4s2.9-6.4,6.4-6.4s6.4,2.9,6.4,6.4S105.7,120.9,102.2,120.9z
					 M102.2,110.5c-2.2,0-3.9,1.8-3.9,3.9s1.8,3.9,3.9,3.9c2.2,0,3.9-1.8,3.9-3.9S104.4,110.5,102.2,110.5z"/>
			</g>
			<g>
				<path class="st0" d="M102.2,128.1c-0.3,0-0.6,0-0.9,0c-1.3,0-2.2-0.9-2.2-2.2c0-0.5-0.2-0.9-0.5-1.2c-0.3-0.3-0.7-0.4-1.1-0.4
					c-0.4,0-0.7,0.2-1,0.4c-1,1-2.2,1-3.3-0.1l-1.2-1.2c-1-1-1-2.2,0-3.2c0.4-0.4,0.5-1,0.4-1.5c-0.2-0.5-0.6-0.9-1.1-1.1
					c-0.1,0-0.3,0-0.5-0.1c-1.2-0.1-2.1-1-2.1-2.2c0-0.6,0-1.3,0-1.9c0-1.3,0.9-2.2,2.2-2.2c0.9,0,1.6-0.7,1.6-1.6
					c0-0.4-0.1-0.8-0.4-1.1c-1-1-0.9-2.2,0.1-3.2l0.3-0.3c0.3-0.3,0.6-0.6,1-0.9c0.3-0.2,0.5-0.4,0.7-0.5l0.1-0.1
					c0.3-0.1,0.5-0.2,0.8-0.1c0.7,0.1,1.1,0.5,1.4,0.8c0.4,0.4,1,0.5,1.5,0.4c0.5-0.2,0.9-0.6,1.1-1.1c0-0.1,0-0.3,0.1-0.5
					c0.1-1.2,1-2.1,2.2-2.1c0.5,0,1,0,1.4,0l0.4,0c1.4,0,2.3,0.9,2.3,2.2c0,0.4,0.2,0.8,0.5,1.1c0.3,0.3,0.7,0.5,1.1,0.4
					c0.4,0,0.7-0.2,1.1-0.4c1-1,2.2-0.9,3.2,0.1l0.4,0.4c0.3,0.3,0.6,0.6,0.8,0.8c0.9,0.9,0.9,2.2,0,3.1c-0.5,0.6-0.6,1.1-0.4,1.7
					c0.3,0.7,0.7,0.9,1.5,1c1.3,0,2.1,0.9,2.2,2.2c0,0.6,0,1.3,0,1.9c0,1.3-0.9,2.2-2.2,2.2c-0.8,0-1.2,0.3-1.5,1
					c-0.3,0.6-0.2,1.2,0.4,1.7c0.9,1,0.9,2.2,0,3.1c-0.4,0.4-0.9,0.9-1.3,1.3c-0.9,0.9-2.2,0.9-3.1,0c-0.6-0.5-1.1-0.6-1.7-0.4
					c-0.7,0.3-0.9,0.7-1,1.5c0,1.3-0.9,2.2-2.2,2.2C102.8,128.1,102.5,128.1,102.2,128.1z M101.5,125.6c0.5,0,0.9,0,1.3,0
					c0.1-1.6,1-2.8,2.5-3.5c1.5-0.6,3-0.4,4.2,0.7c0.3-0.3,0.6-0.6,0.9-0.9c-1.1-1.3-1.3-2.8-0.7-4.2c0.6-1.5,1.8-2.3,3.5-2.5
					c0-0.4,0-0.9,0-1.3c-1.6-0.1-2.9-1-3.5-2.5c-0.6-1.5-0.4-3,0.7-4.2c-0.2-0.2-0.4-0.4-0.7-0.7l-0.3-0.3c-0.7,0.6-1.6,1-2.6,1
					c-1.1,0-2.1-0.4-2.9-1.1c-0.7-0.7-1.2-1.6-1.3-2.7l-0.2,0c-0.4,0-0.7,0-1.1,0c0,0.2,0,0.5-0.1,0.7c-0.4,1.4-1.4,2.5-2.8,2.9
					c-1.3,0.4-2.8,0.1-3.8-0.8c-0.2,0.2-0.5,0.5-0.7,0.7l-0.2,0.2c0.6,0.7,1,1.6,1,2.6c0,2.2-1.6,3.9-3.8,4.1c0,0.5,0,0.9,0,1.3
					c0.2,0,0.5,0,0.7,0.1c1.4,0.4,2.5,1.4,2.9,2.8c0.4,1.3,0.1,2.7-0.8,3.8l0.9,0.9c0.7-0.6,1.6-1,2.5-1c1.1,0,2.1,0.4,2.9,1.1
					C101,123.6,101.5,124.5,101.5,125.6z"/>
			</g>
		</g>
	</g>
	<g>
		<g>
			<path class="st0" d="M126.9,142.7c-0.3,0-0.6-0.2-0.8-0.4l-5.4-7.5c-0.1-0.2-0.2-0.4-0.2-0.6v-4c0-0.3,0.1-0.6,0.3-0.8l2.5-2.4
				l-2.5-2.3c-0.2-0.2-0.3-0.5-0.3-0.8c0-0.3,0.1-0.6,0.3-0.8l2.5-2.4l-2.5-2.2c-0.2-0.2-0.4-0.5-0.4-0.8c0-0.3,0.1-0.6,0.4-0.8
				l2.4-2l-2.4-2.1c-0.2-0.2-0.4-0.5-0.4-0.8v-5.8c-5.8-2.2-9.6-7.8-9.6-14c0-8.3,6.7-15,15-15s15,6.7,15,15
				c0,5.5-2.9,10.4-7.7,13.1v28.6c0,0.2-0.1,0.4-0.2,0.6l-5.4,7.5C127.6,142.5,127.3,142.7,126.9,142.7z M122.6,133.8l4.3,6l4.3-6
				V105c0-0.4,0.2-0.7,0.6-0.9c4.4-2.2,7.1-6.7,7.1-11.5c0-7.1-5.8-13-13-13s-13,5.8-13,13c0,5.6,3.6,10.6,8.9,12.3
				c0.4,0.1,0.7,0.5,0.7,1v6.1l3,2.5c0.2,0.2,0.4,0.5,0.4,0.8s-0.1,0.6-0.4,0.8l-2.4,2l2.4,2.1c0.2,0.2,0.3,0.5,0.4,0.8
				s-0.1,0.6-0.3,0.8l-2.5,2.4l2.5,2.3c0.2,0.2,0.3,0.5,0.3,0.8c0,0.3-0.1,0.6-0.3,0.8l-3,2.8V133.8z"/>
		</g>
		<g>
			<path class="st0" d="M125.9,97.9c-3.3,0-5.9-2.7-5.9-5.9c0-3.3,2.7-5.9,5.9-5.9s5.9,2.7,5.9,5.9
				C131.9,95.2,129.2,97.9,125.9,97.9z M125.9,88.1c-2.1,0-3.8,1.7-3.8,3.8c0,2.1,1.7,3.8,3.8,3.8c2.1,0,3.8-1.7,3.8-3.8
				C129.8,89.8,128.1,88.1,125.9,88.1z"/>
		</g>
	</g>
</g>
</svg>
