<?xml version="1.0" encoding="utf-8"?>
<!-- Generator: Adobe Illustrator 26.3.1, SVG Export Plug-In . SVG Version: 6.00 Build 0)  -->
<svg version="1.1" id="Layer_1" xmlns="http://www.w3.org/2000/svg" xmlns:xlink="http://www.w3.org/1999/xlink" x="0px" y="0px"
	 viewBox="0 0 200 200" style="enable-background:new 0 0 200 200;" xml:space="preserve">
<style type="text/css">
	.st0{fill:#0067FC;}
</style>
<g>
	<g>
		<g>
			<path class="st0" d="M117.1,143.3h-42c-3,0-5.5-2.5-5.5-5.5V62.2c0-3,2.5-5.5,5.5-5.5h49.8c3,0,5.5,2.5,5.5,5.5v66.3
				c0,0.3-0.1,0.6-0.3,0.8L118,142.9C117.8,143.1,117.5,143.3,117.1,143.3z M72.1,93.2v44.6c0,1.7,1.3,3,3,3h41.5l11.4-12.8V62.2
				c0-1.7-1.3-3-3-3H75.1c-1.7,0-3,1.3-3,3V93.2z"/>
		</g>
		<g>
			<path class="st0" d="M116.1,142.8c-0.7,0-1.2-0.6-1.2-1.2v-8.8c0-3,2.5-5.5,5.5-5.5h8.8c0.7,0,1.2,0.6,1.2,1.2s-0.6,1.2-1.2,1.2
				h-8.8c-1.7,0-3,1.3-3,3v8.8C117.4,142.3,116.8,142.8,116.1,142.8z"/>
		</g>
	</g>
	<g>
		<path class="st0" d="M114.1,100.6H80.5c-0.7,0-1.2-0.6-1.2-1.2s0.6-1.2,1.2-1.2h33.6c0.7,0,1.2,0.6,1.2,1.2
			S114.8,100.6,114.1,100.6z"/>
	</g>
	<g>
		<path class="st0" d="M112.1,107.6H80.5c-0.7,0-1.2-0.6-1.2-1.2s0.6-1.2,1.2-1.2h31.6c0.7,0,1.2,0.6,1.2,1.2
			S112.8,107.6,112.1,107.6z"/>
	</g>
	<g>
		<path class="st0" d="M110.1,114.7H80.5c-0.7,0-1.2-0.6-1.2-1.2s0.6-1.2,1.2-1.2h29.6c0.7,0,1.2,0.6,1.2,1.2
			S110.8,114.7,110.1,114.7z"/>
	</g>
	<g>
		<path class="st0" d="M106.1,121.7H80.5c-0.7,0-1.2-0.6-1.2-1.2s0.6-1.2,1.2-1.2h25.6c0.7,0,1.2,0.6,1.2,1.2
			S106.8,121.7,106.1,121.7z"/>
	</g>
	<g>
		<path class="st0" d="M99.1,128.8H80.5c-0.7,0-1.2-0.6-1.2-1.2s0.6-1.2,1.2-1.2h18.6c0.7,0,1.2,0.6,1.2,1.2S99.8,128.8,99.1,128.8z
			"/>
	</g>
	<g>
		<path class="st0" d="M116.2,76.4c-0.7,0-1.2-0.6-1.2-1.2v-4.2h-4.1c-0.7,0-1.2-0.6-1.2-1.2s0.6-1.2,1.2-1.2h5.4
			c0.7,0,1.2,0.6,1.2,1.2v5.5C117.5,75.8,116.9,76.4,116.2,76.4z"/>
	</g>
	<g>
		<path class="st0" d="M100,172.7c-1,0-1.9,0-2.9-0.1c-40.1-1.6-71.4-35.5-69.8-75.5c0.8-19.4,9-37.4,23.3-50.5
			c14.3-13.2,32.8-20,52.2-19.2c19.4,0.8,37.4,9,50.5,23.3s20,32.8,19.2,52.2l0,0C171.1,142,138.8,172.7,100,172.7z M99.9,31.3
			c-17.3,0-33.8,6.4-46.6,18.2C39.9,62,32.1,78.9,31.3,97.3c-0.7,18.3,5.7,35.9,18.2,49.3c12.5,13.5,29.4,21.3,47.8,22
			c37.8,1.5,69.9-28.1,71.4-65.9l2,0.1l-2-0.1c0.7-18.3-5.7-35.9-18.2-49.3c-12.5-13.5-29.4-21.3-47.8-22
			C101.8,31.3,100.9,31.3,99.9,31.3z"/>
	</g>
	<g>
		<path class="st0" d="M83,92.1c-0.7,0-1.2-0.6-1.2-1.2v-5.6c0-0.7,0.6-1.2,1.2-1.2s1.2,0.6,1.2,1.2v5.6
			C84.2,91.5,83.7,92.1,83,92.1z"/>
	</g>
	<g>
		<path class="st0" d="M91,91.6c-0.7,0-1.2-0.6-1.2-1.2v-2.2c0-0.7,0.6-1.2,1.2-1.2s1.2,0.6,1.2,1.2v2.2
			C92.3,91.1,91.7,91.6,91,91.6z"/>
	</g>
	<g>
		<path class="st0" d="M98.6,91.6c-0.7,0-1.2-0.6-1.2-1.2v-9.5c0-0.7,0.6-1.2,1.2-1.2s1.2,0.6,1.2,1.2v9.5
			C99.8,91.1,99.3,91.6,98.6,91.6z"/>
	</g>
	<g>
		<path class="st0" d="M107,91.6c-0.7,0-1.2-0.6-1.2-1.2V83c0-0.7,0.6-1.2,1.2-1.2s1.2,0.6,1.2,1.2v7.3
			C108.3,91.1,107.7,91.6,107,91.6z"/>
	</g>
	<g>
		<path class="st0" d="M115.1,91.3c-0.7,0-1.2-0.6-1.2-1.2V79.1c0-0.7,0.6-1.2,1.2-1.2s1.2,0.6,1.2,1.2V90
			C116.3,90.7,115.8,91.3,115.1,91.3z"/>
	</g>
	<g>
		<path class="st0" d="M90.2,84.4c-0.2,0-0.4,0-0.6-0.1l-7.2-3.8c-0.6-0.3-0.8-1.1-0.5-1.7c0.3-0.6,1.1-0.8,1.7-0.5l6.4,3.3l7.8-7.4
			c0.4-0.4,0.9-0.5,1.4-0.2l7.7,3.7l7.4-7.6c0.5-0.5,1.3-0.5,1.8,0c0.5,0.5,0.5,1.3,0,1.8l-8.1,8.2c-0.4,0.4-1,0.5-1.4,0.3l-7.7-3.7
			L91,84C90.8,84.2,90.5,84.4,90.2,84.4z"/>
	</g>
</g>
</svg>
