<?xml version="1.0" encoding="utf-8"?>
<!-- Generator: Adobe Illustrator 26.3.1, SVG Export Plug-In . SVG Version: 6.00 Build 0)  -->
<svg version="1.1" id="Layer_1" xmlns="http://www.w3.org/2000/svg" xmlns:xlink="http://www.w3.org/1999/xlink" x="0px" y="0px"
	 viewBox="0 0 200 200" style="enable-background:new 0 0 200 200;" xml:space="preserve">
<style type="text/css">
	.st0{fill:#0067FC;}
</style>
<g>
	<g>
		<g>
			<g>
				<path class="st0" d="M78.7,139.5c-9.4,0-17.1-7.7-17.1-17.1c0-9.4,7.7-17.1,17.1-17.1s17.1,7.7,17.1,17.1
					C95.8,131.8,88.1,139.5,78.7,139.5z M78.7,107.7c-8.1,0-14.6,6.6-14.6,14.6S70.6,137,78.7,137s14.6-6.6,14.6-14.6
					S86.8,107.7,78.7,107.7z"/>
			</g>
		</g>
		<g>
			<path class="st0" d="M122,73.7c-0.7,0-1.2-0.6-1.2-1.2V61.8c0-0.7,0.6-1.2,1.2-1.2s1.2,0.6,1.2,1.2v10.6
				C123.3,73.1,122.7,73.7,122,73.7z"/>
		</g>
		<g>
			<path class="st0" d="M77.8,73.7c-0.7,0-1.2-0.6-1.2-1.2V61.8c0-0.7,0.6-1.2,1.2-1.2s1.2,0.6,1.2,1.2v10.6
				C79.1,73.1,78.5,73.7,77.8,73.7z"/>
		</g>
		<g>
			<path class="st0" d="M137.2,135.8H89.5c-0.7,0-1.2-0.6-1.2-1.2s0.6-1.2,1.2-1.2h46.4V73.7H67.7V112c0,0.7-0.6,1.2-1.2,1.2
				s-1.2-0.6-1.2-1.2V72.4c0-0.7,0.6-1.2,1.2-1.2h70.7c0.7,0,1.2,0.6,1.2,1.2v62.1C138.4,135.2,137.9,135.8,137.2,135.8z"/>
		</g>
		<g>
			<path class="st0" d="M128.2,94.5h-9.6c-0.7,0-1.2-0.6-1.2-1.2v-9.6c0-0.7,0.6-1.2,1.2-1.2h9.6c0.7,0,1.2,0.6,1.2,1.2v9.6
				C129.4,93.9,128.8,94.5,128.2,94.5z M119.8,92h7.1v-7.1h-7.1V92z"/>
		</g>
		<g>
			<path class="st0" d="M115,94.5h-9.6c-0.7,0-1.2-0.6-1.2-1.2v-9.6c0-0.7,0.6-1.2,1.2-1.2h9.6c0.7,0,1.2,0.6,1.2,1.2v9.6
				C116.2,93.9,115.7,94.5,115,94.5z M106.7,92h7.1v-7.1h-7.1V92z"/>
		</g>
		<g>
			<path class="st0" d="M102.2,94.5h-9.6c-0.7,0-1.2-0.6-1.2-1.2v-9.6c0-0.7,0.6-1.2,1.2-1.2h9.6c0.7,0,1.2,0.6,1.2,1.2v9.6
				C103.4,93.9,102.9,94.5,102.2,94.5z M93.8,92h7.1v-7.1h-7.1V92z"/>
		</g>
		<g>
			<path class="st0" d="M89,94.5h-9.6c-0.7,0-1.2-0.6-1.2-1.2v-9.6c0-0.7,0.6-1.2,1.2-1.2H89c0.7,0,1.2,0.6,1.2,1.2v9.6
				C90.3,93.9,89.7,94.5,89,94.5z M80.7,92h7.1v-7.1h-7.1V92z"/>
		</g>
		<g>
			<path class="st0" d="M128.2,109.5h-9.6c-0.7,0-1.2-0.6-1.2-1.2v-9.6c0-0.7,0.6-1.2,1.2-1.2h9.6c0.7,0,1.2,0.6,1.2,1.2v9.6
				C129.4,109,128.8,109.5,128.2,109.5z M119.8,107h7.1v-7.1h-7.1V107z"/>
		</g>
		<g>
			<path class="st0" d="M115,109.5h-9.6c-0.7,0-1.2-0.6-1.2-1.2v-9.6c0-0.7,0.6-1.2,1.2-1.2h9.6c0.7,0,1.2,0.6,1.2,1.2v9.6
				C116.2,109,115.7,109.5,115,109.5z M106.7,107h7.1v-7.1h-7.1V107z"/>
		</g>
		<g>
			<path class="st0" d="M102.2,109.5h-9.6c-0.7,0-1.2-0.6-1.2-1.2v-9.6c0-0.7,0.6-1.2,1.2-1.2h9.6c0.7,0,1.2,0.6,1.2,1.2v9.6
				C103.4,109,102.9,109.5,102.2,109.5z M93.8,107h7.1v-7.1h-7.1V107z"/>
		</g>
		<g>
			<path class="st0" d="M128.2,122.8h-9.6c-0.7,0-1.2-0.6-1.2-1.2V112c0-0.7,0.6-1.2,1.2-1.2h9.6c0.7,0,1.2,0.6,1.2,1.2v9.6
				C129.4,122.2,128.8,122.8,128.2,122.8z M119.8,120.3h7.1v-7.1h-7.1V120.3z"/>
		</g>
		<g>
			<path class="st0" d="M115,122.8h-9.6c-0.7,0-1.2-0.6-1.2-1.2V112c0-0.7,0.6-1.2,1.2-1.2h9.6c0.7,0,1.2,0.6,1.2,1.2v9.6
				C116.2,122.2,115.7,122.8,115,122.8z M106.7,120.3h7.1v-7.1h-7.1V120.3z"/>
		</g>
		<g>
			<path class="st0" d="M78.7,131.8c-0.7,0-1.2-0.6-1.2-1.2v-16.4c0-0.7,0.6-1.2,1.2-1.2s1.2,0.6,1.2,1.2v16.4
				C79.9,131.2,79.4,131.8,78.7,131.8z"/>
		</g>
		<g>
			<path class="st0" d="M86.9,123.6H70.5c-0.7,0-1.2-0.6-1.2-1.2s0.6-1.2,1.2-1.2h16.4c0.7,0,1.2,0.6,1.2,1.2S87.6,123.6,86.9,123.6
				z"/>
		</g>
	</g>
	<g>
		<path class="st0" d="M100,172.7c-40.1,0-72.7-32.6-72.7-72.7S59.9,27.3,100,27.3s72.7,32.6,72.7,72.7S140.1,172.7,100,172.7z
			 M100,31.3c-37.9,0-68.7,30.8-68.7,68.7c0,37.9,30.8,68.7,68.7,68.7c37.9,0,68.7-30.8,68.7-68.7C168.7,62.1,137.9,31.3,100,31.3z"
			/>
	</g>
</g>
</svg>
