<?xml version="1.0" encoding="utf-8"?>
<!-- Generator: Adobe Illustrator 26.3.1, SVG Export Plug-In . SVG Version: 6.00 Build 0)  -->
<svg version="1.1" id="Layer_1" xmlns="http://www.w3.org/2000/svg" xmlns:xlink="http://www.w3.org/1999/xlink" x="0px" y="0px"
	 viewBox="0 0 200 200" style="enable-background:new 0 0 200 200;" xml:space="preserve">
<style type="text/css">
	.st0{fill:#0067FC;}
</style>
<g>
	<g>
		<path class="st0" d="M100,172.7c-1,0-1.9,0-2.9-0.1c-40.1-1.6-71.4-35.5-69.8-75.5c0.8-19.4,9-37.4,23.3-50.5
			c14.3-13.2,32.8-20,52.2-19.2c19.4,0.8,37.4,9,50.5,23.3s20,32.8,19.2,52.2l0,0C171.1,142,138.8,172.7,100,172.7z M99.9,31.3
			c-17.3,0-33.8,6.4-46.6,18.2C39.9,62,32.1,78.9,31.3,97.3c-0.7,18.3,5.7,35.9,18.2,49.3c12.5,13.5,29.4,21.3,47.8,22
			c37.8,1.5,69.9-28.1,71.4-65.9l2,0.1l-2-0.1c0.7-18.3-5.7-35.9-18.2-49.3c-12.5-13.5-29.4-21.3-47.8-22
			C101.8,31.3,100.9,31.3,99.9,31.3z"/>
	</g>
	<g>
		<path class="st0" d="M127.7,136.6H72.3c-3,0-5.4-2.4-5.4-5.4v-29.1c0-3,2.4-5.4,5.4-5.4h55.4c3,0,5.4,2.4,5.4,5.4v29.1
			C133.1,134.2,130.7,136.6,127.7,136.6z M72.3,99.2c-1.6,0-2.9,1.3-2.9,2.9v29.1c0,1.6,1.3,2.9,2.9,2.9h55.4c1.6,0,2.9-1.3,2.9-2.9
			v-29.1c0-1.6-1.3-2.9-2.9-2.9H72.3z"/>
	</g>
	<g>
		<path class="st0" d="M131.8,114.2H68.2c-0.7,0-1.2-0.6-1.2-1.2v-6.1c0-0.7,0.6-1.2,1.2-1.2h63.6c0.7,0,1.2,0.6,1.2,1.2v6.1
			C133.1,113.6,132.5,114.2,131.8,114.2z M69.4,111.7h61.1v-3.6H69.4V111.7z"/>
	</g>
	<g>
		<path class="st0" d="M86.9,129.6H73.4c-0.7,0-1.2-0.6-1.2-1.2s0.6-1.2,1.2-1.2h13.5c0.7,0,1.2,0.6,1.2,1.2S87.6,129.6,86.9,129.6z
			"/>
	</g>
	<g>
		<path class="st0" d="M110.8,131c-3.1,0-5.6-2.5-5.6-5.6s2.5-5.6,5.6-5.6s5.6,2.5,5.6,5.6S113.9,131,110.8,131z M110.8,122.2
			c-1.7,0-3.1,1.4-3.1,3.1c0,1.7,1.4,3.1,3.1,3.1c1.7,0,3.1-1.4,3.1-3.1C113.9,123.6,112.5,122.2,110.8,122.2z"/>
	</g>
	<g>
		<path class="st0" d="M119.1,131.1c-1,0-1.9-0.2-2.7-0.7c-0.6-0.3-0.8-1.1-0.5-1.7c0.3-0.6,1.1-0.8,1.7-0.5c0.5,0.3,1,0.4,1.5,0.4
			c1.7,0,3.1-1.4,3.1-3.1s-1.4-3.1-3.1-3.1c-0.5,0-1,0.1-1.4,0.3c-0.6,0.3-1.4,0.1-1.7-0.5c-0.3-0.6-0.1-1.4,0.5-1.7
			c0.8-0.4,1.7-0.6,2.6-0.6c3.1,0,5.6,2.5,5.6,5.6S122.2,131.1,119.1,131.1z"/>
	</g>
	<g>
		<g>
			<path class="st0" d="M98.8,92.2c-9.7,0-17.6-7.9-17.6-17.6s7.9-17.6,17.6-17.6s17.6,7.9,17.6,17.6S108.5,92.2,98.8,92.2z
				 M98.8,59.4c-8.4,0-15.1,6.8-15.1,15.1s6.8,15.1,15.1,15.1c8.4,0,15.1-6.8,15.1-15.1S107.1,59.4,98.8,59.4z"/>
		</g>
		<g>
			<path class="st0" d="M95.6,81.8c-0.3,0-0.6-0.1-0.9-0.4l-3.5-3.5c-0.5-0.5-0.5-1.3,0-1.8c0.5-0.5,1.3-0.5,1.8,0l2.6,2.6l8.9-10.8
				c0.4-0.5,1.2-0.6,1.8-0.2c0.5,0.4,0.6,1.2,0.2,1.8l-9.8,11.8C96.4,81.6,96.1,81.7,95.6,81.8C95.7,81.8,95.7,81.8,95.6,81.8z"/>
		</g>
	</g>
</g>
</svg>
