<?xml version="1.0" encoding="utf-8"?>
<!-- Generator: Adobe Illustrator 26.3.1, SVG Export Plug-In . SVG Version: 6.00 Build 0)  -->
<svg version="1.1" id="Layer_1" xmlns="http://www.w3.org/2000/svg" xmlns:xlink="http://www.w3.org/1999/xlink" x="0px" y="0px"
	 viewBox="0 0 200 200" style="enable-background:new 0 0 200 200;" xml:space="preserve">
<style type="text/css">
	.st0{fill:#0067FC;}
</style>
<g>
	<g id="Group_263_00000145028875360636823520000009202381213991844229_" transform="translate(-598.5 -520.001)">
		<g id="Group_259_00000073718687634134806300000008567623224181246143_" transform="translate(549.903 487.744)">
			<g id="Ellipse_9_00000178200205810142135370000008714160033537526959_">
				<path class="st0" d="M149.1,119.7c-2.8,0-5-2.3-5-5c0-2.8,2.3-5,5-5s5,2.3,5,5C154.1,117.4,151.9,119.7,149.1,119.7z
					 M149.1,112.2c-1.4,0-2.5,1.1-2.5,2.5s1.1,2.5,2.5,2.5c1.4,0,2.5-1.1,2.5-2.5S150.5,112.2,149.1,112.2z"/>
			</g>
			<g id="Path_16_00000151544183717726436720000016277989020859155096_">
				<path class="st0" d="M155.2,129.9c-0.7,0-1.2-0.6-1.2-1.2c0-2.7-2.2-4.9-4.9-4.9c-2.7,0-4.9,2.2-4.9,4.9c0,0.7-0.6,1.2-1.2,1.2
					s-1.2-0.6-1.2-1.2c0-4.1,3.3-7.4,7.4-7.4s7.4,3.3,7.4,7.4C156.5,129.4,155.9,129.9,155.2,129.9z"/>
			</g>
		</g>
	</g>
	<g>
		<g>
			<g>
				<path class="st0" d="M117,145.8H75c-3,0-5.5-2.5-5.5-5.5V64.7c0-3,2.5-5.5,5.5-5.5h49.8c3,0,5.5,2.5,5.5,5.5V131
					c0,0.3-0.1,0.6-0.3,0.8L118,145.4C117.7,145.6,117.4,145.8,117,145.8z M72,95.7v44.6c0,1.7,1.3,3,3,3h41.5l11.4-12.8V64.7
					c0-1.7-1.3-3-3-3H75c-1.7,0-3,1.3-3,3V95.7z"/>
			</g>
			<g>
				<path class="st0" d="M116,145.3c-0.7,0-1.2-0.6-1.2-1.2v-8.8c0-3,2.5-5.5,5.5-5.5h8.8c0.7,0,1.2,0.6,1.2,1.2s-0.6,1.2-1.2,1.2
					h-8.8c-1.7,0-3,1.3-3,3v8.8C117.3,144.8,116.7,145.3,116,145.3z"/>
			</g>
		</g>
		<g>
			<g>
				<path class="st0" d="M117.6,115.7h-27c-0.7,0-1.2-0.6-1.2-1.2s0.6-1.2,1.2-1.2h27c0.7,0,1.2,0.6,1.2,1.2
					S118.3,115.7,117.6,115.7z"/>
			</g>
			<g>
				<path class="st0" d="M117.6,122.7h-27c-0.7,0-1.2-0.6-1.2-1.2s0.6-1.2,1.2-1.2h27c0.7,0,1.2,0.6,1.2,1.2
					S118.3,122.7,117.6,122.7z"/>
			</g>
			<g>
				<path class="st0" d="M107.6,129.8h-17c-0.7,0-1.2-0.6-1.2-1.2s0.6-1.2,1.2-1.2h17c0.7,0,1.2,0.6,1.2,1.2
					S108.3,129.8,107.6,129.8z"/>
			</g>
			<g>
				<path class="st0" d="M83.6,117.1L83.6,117.1c-0.3,0-0.6-0.1-0.9-0.4l-1.4-1.4c-0.5-0.5-0.5-1.3,0-1.8s1.3-0.5,1.8,0l0.5,0.5
					l1.9-1.9c0.5-0.5,1.3-0.5,1.8,0s0.5,1.3,0,1.8l-2.8,2.8C84.3,117,84,117.1,83.6,117.1z"/>
			</g>
			<g>
				<path class="st0" d="M83.6,124.1c-0.3,0-0.6-0.1-0.9-0.4l-1.4-1.4c-0.5-0.5-0.5-1.3,0-1.8c0.5-0.5,1.3-0.5,1.8,0l0.5,0.5
					l1.9-1.9c0.5-0.5,1.3-0.5,1.8,0s0.5,1.3,0,1.8l-2.8,2.8C84.3,124,83.9,124.1,83.6,124.1z"/>
			</g>
			<g>
				<path class="st0" d="M83.6,130.6L83.6,130.6c-0.3,0-0.6-0.1-0.9-0.4l-1.4-1.4c-0.5-0.5-0.5-1.3,0-1.8s1.3-0.5,1.8,0l0.5,0.5
					l1.9-1.9c0.5-0.5,1.3-0.5,1.8,0s0.5,1.3,0,1.8l-2.8,2.8C84.3,130.5,84,130.6,83.6,130.6z"/>
			</g>
		</g>
	</g>
	<g>
		<path class="st0" d="M99.9,105.2c-9.7,0-17.6-7.9-17.6-17.6s7.9-17.6,17.6-17.6c9.7,0,17.6,7.9,17.6,17.6S109.6,105.2,99.9,105.2z
			 M99.9,72.4c-8.4,0-15.1,6.8-15.1,15.1s6.8,15.1,15.1,15.1S115,95.9,115,87.5S108.3,72.4,99.9,72.4z"/>
	</g>
	<g>
		<path class="st0" d="M100,172.7c-1,0-1.9,0-2.9-0.1c-40.1-1.6-71.4-35.5-69.8-75.5c0.8-19.4,9-37.4,23.3-50.5
			c14.3-13.2,32.8-20,52.2-19.2c19.4,0.8,37.4,9,50.5,23.3s20,32.8,19.2,52.2l0,0C171.1,142,138.8,172.7,100,172.7z M99.9,31.3
			c-17.3,0-33.8,6.4-46.6,18.2C39.9,62,32.1,78.9,31.3,97.3c-0.7,18.3,5.7,35.9,18.2,49.3c12.5,13.5,29.4,21.3,47.8,22
			c37.8,1.5,69.9-28.1,71.4-65.9l2,0.1l-2-0.1c0.7-18.3-5.7-35.9-18.2-49.3c-12.5-13.5-29.4-21.3-47.8-22
			C101.8,31.3,100.9,31.3,99.9,31.3z"/>
	</g>
</g>
</svg>
