<svg xmlns="http://www.w3.org/2000/svg" xmlns:xlink="http://www.w3.org/1999/xlink" viewBox="0 0 91.98 149.45"><defs><style>.cls-1{fill:none;}.cls-2{clip-path:url(#clip-path);}.cls-3{fill:#1fb35b;}.cls-4{fill:#fff;}</style><clipPath id="clip-path" transform="translate(-29.01 -0.27)"><rect class="cls-1" width="150" height="150"/></clipPath></defs><g id="Layer_2" data-name="Layer 2"><g id="Layer_1-2" data-name="Layer 1"><g class="cls-2"><polygon class="cls-3" points="87.86 139.89 84.37 139.89 84.37 131.3 79.64 131.3 79.64 139.89 76.14 139.89 82 145.75 87.86 139.89"/><polygon class="cls-3" points="84.58 144.3 82 146.88 79.43 144.3 72.03 144.3 72.03 149.45 91.98 149.45 91.98 144.3 84.58 144.3"/><path class="cls-3" d="M94.81.27A23.9,23.9,0,0,1,96.69,2q11.58,13.19,23.16,26.4a4.37,4.37,0,0,1,1.14,3q0,45,0,90c0,3.44-2.06,5.46-5.49,5.46H34.6c-3.64,0-5.55-2-5.55-5.9V10.72c0-1.32.07-2.65,0-4-.2-3.1.88-5.38,3.93-6.49ZM116,33.15H95.08c-2.69,0-3.5-.79-3.5-3.44V5.3H34.11V84.54H116Zm-2.1,56.16c-2.29,0-4.34,0-6.4,0-.68,0-.92.25-1.09.87q-2.94,10.52-5.92,21c-.12.43-.25.87-.39,1.33-2.16-7.82-4.28-15.5-6.4-23.14H86.26c0,.11-.05.16,0,.19q4.65,14.58,9.35,29.15a1.38,1.38,0,0,0,1,.7c2,.07,4,0,5.93,0a1.34,1.34,0,0,0,1.56-1.12c2-6,4-12.09,6.08-18.14C111.38,96.63,112.59,93.05,113.85,89.31ZM82.79,90.46c-3.88-2.18-10.92-2.14-14.56,0C64,93,62.48,98,64.91,101.91c1.39,2.23,3.6,3.43,5.94,4.43,1.47.63,3,1.21,4.38,2A2.83,2.83,0,0,1,77,111.63,2.88,2.88,0,0,1,74.3,114a21,21,0,0,1-5-.1,34.43,34.43,0,0,1-4.6-1.33l-1.35,5.54c5.35,2,10.65,2.67,15.88.15,6-2.92,6.43-11.33,1.09-14.6-1.74-1.06-3.68-1.8-5.52-2.7a22.78,22.78,0,0,1-3-1.52,2.43,2.43,0,0,1,.32-4.38,6.73,6.73,0,0,1,3.22-.57c2,.17,3.93.64,6,1Zm-22.39-.4c-5.94-1.85-11.62-1.92-16.93,1.34s-7,8.17-6.91,14c.11,4.49,1.53,8.5,5.25,11.24,5.36,4,11.37,3.78,17.48,2.17.26-.07.64-.5.61-.71-.25-1.61-.59-3.2-.87-4.65a50.56,50.56,0,0,1-5.06.73c-3.45.13-6.58-.71-8.63-3.78a11.38,11.38,0,0,1-1.54-7.58,8.64,8.64,0,0,1,8.53-8.28,61.65,61.65,0,0,1,6.77.61Z" transform="translate(-29.01 -0.27)"/><path class="cls-4" d="M116,33.15V84.54H34.11V5.3H91.58V29.71c0,2.65.81,3.44,3.5,3.44H116ZM52.54,66.73H98.36V39.47H52.54Z" transform="translate(-29.01 -0.27)"/><path class="cls-4" d="M113.85,89.31c-1.26,3.74-2.47,7.32-3.67,10.9-2,6.05-4.09,12.09-6.08,18.14a1.34,1.34,0,0,1-1.56,1.12c-2-.07-4,0-5.93,0a1.38,1.38,0,0,1-1-.7q-4.72-14.56-9.35-29.15s0-.08,0-.19h7.39c2.12,7.64,4.24,15.32,6.4,23.14.14-.46.27-.9.39-1.33q3-10.51,5.92-21c.17-.62.41-.88,1.09-.87C109.51,89.34,111.56,89.31,113.85,89.31Z" transform="translate(-29.01 -0.27)"/><path class="cls-4" d="M82.79,90.46l-1.39,5c-2.09-.36-4-.83-6-1a6.73,6.73,0,0,0-3.22.57,2.43,2.43,0,0,0-.32,4.38,22.78,22.78,0,0,0,3,1.52c1.84.9,3.78,1.64,5.52,2.7,5.34,3.27,5,11.68-1.09,14.6-5.23,2.52-10.53,1.89-15.88-.15l1.35-5.54a34.43,34.43,0,0,0,4.6,1.33,21,21,0,0,0,5,.1A2.88,2.88,0,0,0,77,111.63a2.83,2.83,0,0,0-1.75-3.32c-1.41-.76-2.91-1.34-4.38-2-2.34-1-4.55-2.2-5.94-4.43C62.48,98,64,93,68.23,90.46,71.87,88.32,78.91,88.28,82.79,90.46Z" transform="translate(-29.01 -0.27)"/><path class="cls-4" d="M60.4,90.06l-1.3,5.11a61.65,61.65,0,0,0-6.77-.61,8.64,8.64,0,0,0-8.53,8.28,11.38,11.38,0,0,0,1.54,7.58c2,3.07,5.18,3.91,8.63,3.78a50.56,50.56,0,0,0,5.06-.73c.28,1.45.62,3,.87,4.65,0,.21-.35.64-.61.71-6.11,1.61-12.12,1.8-17.48-2.17-3.72-2.74-5.14-6.75-5.25-11.24-.14-5.85,1.72-10.85,6.91-14S54.46,88.21,60.4,90.06Z" transform="translate(-29.01 -0.27)"/><path class="cls-3" d="M52.54,66.73V39.47H98.36V66.73Zm25.32-11V66.06h2.92V52.2h4V66.07H88.1V48.54h4V66h5.63V46.7H68.36V66h5.53V55.78ZM67.67,60.16H53.13v6H67.67Zm0-7.43v-6H53.11v6Zm0,6.74v-6H53.12v6ZM68.08,46H82.61V40H68.08Zm15.18,0H97.78V40H83.26Z" transform="translate(-29.01 -0.27)"/><path class="cls-4" d="M77.86,55.78h-4V66H68.36V46.7H97.72V66H92.09V48.54h-4V66.07H84.74V52.2h-4V66.06H77.86Z" transform="translate(-29.01 -0.27)"/><path class="cls-4" d="M67.67,60.16v6H53.13v-6Z" transform="translate(-29.01 -0.27)"/><path class="cls-4" d="M67.64,52.73H53.11v-6H67.64Z" transform="translate(-29.01 -0.27)"/><path class="cls-4" d="M67.63,59.47H53.12v-6H67.63Z" transform="translate(-29.01 -0.27)"/><path class="cls-4" d="M68.08,46V40H82.61v6Z" transform="translate(-29.01 -0.27)"/><path class="cls-4" d="M83.26,46V40H97.78V46Z" transform="translate(-29.01 -0.27)"/></g></g></g></svg>