<?xml version="1.0" encoding="utf-8"?>
<!-- Generator: Adobe Illustrator 26.3.1, SVG Export Plug-In . SVG Version: 6.00 Build 0)  -->
<svg version="1.1" id="Layer_1" xmlns="http://www.w3.org/2000/svg" xmlns:xlink="http://www.w3.org/1999/xlink" x="0px" y="0px"
	 viewBox="0 0 200 200" style="enable-background:new 0 0 200 200;" xml:space="preserve">
<style type="text/css">
	.st0{fill:#0067FC;}
</style>
<g>
	<g>
		<path class="st0" d="M87,90H58.9c-0.7,0-1.2-0.6-1.2-1.2v-8.9c0-0.7,0.6-1.2,1.2-1.2H87c0.7,0,1.2,0.6,1.2,1.2v8.9
			C88.2,89.4,87.7,90,87,90z M60.2,87.5h25.6V81H60.2V87.5z"/>
	</g>
	<g>
		<path class="st0" d="M78.3,85.5H62.9c-0.7,0-1.2-0.6-1.2-1.2s0.6-1.2,1.2-1.2h15.4c0.7,0,1.2,0.6,1.2,1.2S79,85.5,78.3,85.5z"/>
	</g>
	<g>
		<path class="st0" d="M118.8,76.2H90.8c-0.7,0-1.2-0.6-1.2-1.2v-8.9c0-0.7,0.6-1.2,1.2-1.2h28.1c0.7,0,1.2,0.6,1.2,1.2V75
			C120.1,75.7,119.5,76.2,118.8,76.2z M92,73.8h25.6v-6.4H92V73.8z"/>
	</g>
	<g>
		<path class="st0" d="M110.1,71.8H94.7c-0.7,0-1.2-0.6-1.2-1.2s0.6-1.2,1.2-1.2h15.4c0.7,0,1.2,0.6,1.2,1.2S110.8,71.8,110.1,71.8z
			"/>
	</g>
	<g>
		<path class="st0" d="M143.1,90H115c-0.7,0-1.2-0.6-1.2-1.2v-8.9c0-0.7,0.6-1.2,1.2-1.2h28.1c0.7,0,1.2,0.6,1.2,1.2v8.9
			C144.4,89.4,143.8,90,143.1,90z M116.3,87.5h25.6V81h-25.6V87.5z"/>
	</g>
	<g>
		<path class="st0" d="M134.4,85.5H119c-0.7,0-1.2-0.6-1.2-1.2s0.6-1.2,1.2-1.2h15.4c0.7,0,1.2,0.6,1.2,1.2S135.1,85.5,134.4,85.5z"
			/>
	</g>
	<g id="Group_263_00000023991337657920704620000001295979089030759609_" transform="translate(-598.5 -520.001)">
		<g id="Group_259_00000125591559910053016120000010589565525746584728_" transform="translate(549.903 487.744)">
			<g id="Ellipse_9_00000061433472003922546760000005446518761199550394_">
				<path class="st0" d="M126.9,148c-5,0-9.1-4.1-9.1-9.1s4.1-9.1,9.1-9.1c5,0,9.1,4.1,9.1,9.1S131.9,148,126.9,148z M126.9,132.6
					c-3.5,0-6.3,2.8-6.3,6.3s2.8,6.3,6.3,6.3c3.5,0,6.3-2.8,6.3-6.3S130.3,132.6,126.9,132.6z"/>
			</g>
			<g id="Path_16_00000111160673456604992200000004210790593642006152_">
				<path class="st0" d="M139.4,168.9c-0.8,0-1.4-0.6-1.4-1.4c0-6.1-5-11.1-11.1-11.1s-11.1,5-11.1,11.1c0,0.8-0.6,1.4-1.4,1.4
					s-1.4-0.6-1.4-1.4c0-7.7,6.3-13.9,13.9-13.9c7.7,0,13.9,6.3,13.9,13.9C140.8,168.2,140.2,168.9,139.4,168.9z"/>
			</g>
		</g>
	</g>
	<g id="Group_263_00000031168596796949022380000012006033214692556953_" transform="translate(-598.5 -520.001)">
		<g id="Group_259_00000074433108700266507330000015601694469498369969_" transform="translate(549.903 487.744)">
			<g id="Ellipse_9_00000005950286978082387030000006878027314382175364_">
				<path class="st0" d="M149.6,134.1c-5,0-9.1-4.1-9.1-9.1s4.1-9.1,9.1-9.1s9.1,4.1,9.1,9.1S154.6,134.1,149.6,134.1z M149.6,118.8
					c-3.5,0-6.3,2.8-6.3,6.3s2.8,6.3,6.3,6.3s6.3-2.8,6.3-6.3S153,118.8,149.6,118.8z"/>
			</g>
			<g id="Path_16_00000070835512780566587020000016874927266994525600_">
				<path class="st0" d="M162.1,155c-0.8,0-1.4-0.6-1.4-1.4c0-6.1-5-11.1-11.1-11.1c-6.1,0-11.1,5-11.1,11.1c0,0.8-0.6,1.4-1.4,1.4
					s-1.4-0.6-1.4-1.4c0-7.7,6.3-13.9,13.9-13.9c7.7,0,13.9,6.3,13.9,13.9C163.5,154.4,162.9,155,162.1,155z"/>
			</g>
		</g>
	</g>
	<g id="Group_263_00000096779237501127521440000013756399724804750485_" transform="translate(-598.5 -520.001)">
		<g id="Group_259_00000011001213394927822730000012675505635660265625_" transform="translate(549.903 487.744)">
			<g id="Ellipse_9_00000046299698213594266240000007651249490091118507_">
				<path class="st0" d="M171.4,148c-5,0-9.1-4.1-9.1-9.1s4.1-9.1,9.1-9.1s9.1,4.1,9.1,9.1S176.4,148,171.4,148z M171.4,132.6
					c-3.5,0-6.3,2.8-6.3,6.3s2.8,6.3,6.3,6.3s6.3-2.8,6.3-6.3S174.8,132.6,171.4,132.6z"/>
			</g>
			<g id="Path_16_00000125602454151293074510000011303978219537469602_">
				<path class="st0" d="M183.9,168.9c-0.8,0-1.4-0.6-1.4-1.4c0-6.1-5-11.1-11.1-11.1c-6.1,0-11.1,5-11.1,11.1
					c0,0.8-0.6,1.4-1.4,1.4s-1.4-0.6-1.4-1.4c0-7.7,6.3-13.9,13.9-13.9c7.7,0,13.9,6.3,13.9,13.9
					C185.3,168.2,184.7,168.9,183.9,168.9z"/>
			</g>
		</g>
	</g>
	<g>
		<path class="st0" d="M100,172.7c-1,0-1.9,0-2.9-0.1c-40.1-1.6-71.4-35.5-69.8-75.5c0.8-19.4,9-37.4,23.3-50.5
			c14.3-13.2,32.8-20,52.2-19.2c19.4,0.8,37.4,9,50.5,23.3s20,32.8,19.2,52.2l0,0C171.1,142,138.8,172.7,100,172.7z M99.9,31.3
			c-17.3,0-33.8,6.4-46.6,18.2C39.9,62,32.1,78.9,31.3,97.3c-0.7,18.3,5.7,35.9,18.2,49.3c12.5,13.5,29.4,21.3,47.8,22
			c37.8,1.5,69.9-28.1,71.4-65.9l2,0.1l-2-0.1c0.7-18.3-5.7-35.9-18.2-49.3c-12.5-13.5-29.4-21.3-47.8-22
			C101.8,31.3,100.9,31.3,99.9,31.3z"/>
	</g>
	<g>
		<polygon class="st0" points="81.8,92.4 78.3,88.7 84.1,88.7 		"/>
	</g>
	<g>
		<polygon class="st0" points="127.3,93.2 123.8,89.5 129.6,89.5 		"/>
	</g>
	<g>
		<polygon class="st0" points="102.5,79.2 99,75.6 104.8,75.6 		"/>
	</g>
</g>
</svg>
