<?xml version="1.0" encoding="utf-8"?>
<!-- Generator: Adobe Illustrator 26.3.1, SVG Export Plug-In . SVG Version: 6.00 Build 0)  -->
<svg version="1.1" id="Layer_1" xmlns="http://www.w3.org/2000/svg" xmlns:xlink="http://www.w3.org/1999/xlink" x="0px" y="0px"
	 viewBox="0 0 200 200" style="enable-background:new 0 0 200 200;" xml:space="preserve">
<style type="text/css">
	.st0{fill:#0067FC;}
</style>
<g>
	<g>
		<g>
			<path class="st0" d="M101,120.2c-11.2,0-20.3-9.1-20.3-20.3c0-11.2,9.1-20.3,20.3-20.3s20.3,9.1,20.3,20.3
				C121.3,111.1,112.2,120.2,101,120.2z M101,82c-9.8,0-17.8,8-17.8,17.8c0,9.8,8,17.8,17.8,17.8s17.8-8,17.8-17.8
				C118.8,90,110.8,82,101,82z"/>
		</g>
	</g>
	<g>
		<g>
			<path class="st0" d="M125.6,136.3c-6.5,0-11.8-5.3-11.8-11.8s5.3-11.8,11.8-11.8s11.8,5.3,11.8,11.8S132.1,136.3,125.6,136.3z
				 M125.6,115.2c-5.2,0-9.3,4.2-9.3,9.3s4.2,9.3,9.3,9.3s9.3-4.2,9.3-9.3S130.7,115.2,125.6,115.2z"/>
		</g>
	</g>
	<g>
		<g>
			<path class="st0" d="M126,87.7c-6.5,0-11.8-5.3-11.8-11.8S119.4,64,126,64s11.8,5.3,11.8,11.8S132.5,87.7,126,87.7z M126,66.5
				c-5.2,0-9.3,4.2-9.3,9.3s4.2,9.3,9.3,9.3s9.3-4.2,9.3-9.3S131.1,66.5,126,66.5z"/>
		</g>
	</g>
	<g id="Group_263_00000006699586276990191390000011125869371521490589_" transform="translate(-598.5 -520.001)">
		<g id="Group_259_00000109751165033495358200000016701651578264458651_" transform="translate(549.903 487.744)">
			<g id="Ellipse_9_00000075126525035686928600000014436958874537586311_">
				<path class="st0" d="M149.6,131.8c-3.1,0-5.6-2.5-5.6-5.6s2.5-5.6,5.6-5.6s5.6,2.5,5.6,5.6S152.7,131.8,149.6,131.8z M149.6,123
					c-1.7,0-3.1,1.4-3.1,3.1s1.4,3.1,3.1,3.1c1.7,0,3.1-1.4,3.1-3.1S151.3,123,149.6,123z"/>
			</g>
			<g id="Path_16_00000068637755303978044820000007670178388339712691_">
				<path class="st0" d="M156.7,143.7c-0.7,0-1.2-0.6-1.2-1.2c0-3.3-2.7-5.9-5.9-5.9s-5.9,2.7-5.9,5.9c0,0.7-0.6,1.2-1.2,1.2
					s-1.2-0.6-1.2-1.2c0-4.6,3.8-8.4,8.4-8.4c4.6,0,8.4,3.8,8.4,8.4C158,143.2,157.4,143.7,156.7,143.7z"/>
			</g>
		</g>
	</g>
	<g>
		<g>
			<path class="st0" d="M126.2,83c-0.2,0-0.3-0.1-0.4-0.2c-0.5-0.6-4.5-5.9-4.5-8.4c0-2.7,2.2-4.9,4.9-4.9s4.9,2.2,4.9,4.9
				c0,2.5-4,7.8-4.5,8.4C126.5,83,126.4,83,126.2,83z M126.2,70.6c-2.1,0-3.9,1.7-3.9,3.9c0,1.7,2.5,5.4,3.9,7.3
				c1.4-1.9,3.9-5.6,3.9-7.3C130.1,72.3,128.4,70.6,126.2,70.6z"/>
		</g>
		<g>
			<circle class="st0" cx="126.2" cy="74.1" r="1.9"/>
		</g>
	</g>
	<g>
		<g>
			<g>
				<path class="st0" d="M75.2,126.2c-1.6,0-3-1.3-3-3c0-1.6,1.3-3,3-3s3,1.3,3,3C78.2,124.9,76.9,126.2,75.2,126.2z M75.2,121.3
					c-1.1,0-2,0.9-2,2s0.9,2,2,2s2-0.9,2-2S76.3,121.3,75.2,121.3z"/>
			</g>
			<g>
				<path class="st0" d="M75.7,129.6h-0.9c-0.6,0-1-0.4-1-1c0-0.2-0.1-0.5-0.3-0.6c-0.2-0.2-0.4-0.2-0.6-0.2c-0.2,0-0.4,0.1-0.5,0.2
					c-0.5,0.4-1,0.4-1.4,0l-0.6-0.6c-0.4-0.4-0.4-0.9,0-1.4c0.2-0.2,0.3-0.5,0.2-0.8c-0.1-0.3-0.3-0.5-0.6-0.6c-0.1,0-0.2,0-0.3,0
					c-0.5,0-0.9-0.4-0.9-0.9c0-0.3,0-0.5,0-0.8c0-0.7,0.4-1,1-1.1c0.5,0,0.9-0.4,0.8-0.8c0-0.2-0.1-0.4-0.2-0.6
					c-0.4-0.5-0.4-1,0-1.4l0.2-0.2c0.1-0.1,0.3-0.3,0.4-0.4c0.1-0.1,0.2-0.2,0.3-0.2c0.1-0.1,0.3-0.1,0.4-0.1
					c0.3,0.1,0.5,0.2,0.6,0.3c0.2,0.2,0.5,0.3,0.8,0.2c0.3-0.1,0.5-0.3,0.6-0.6c0-0.1,0-0.2,0-0.3c0-0.5,0.4-0.9,0.9-0.9h0.9
					c0.6,0,1,0.4,1,1c0,0.2,0.1,0.4,0.3,0.6c0.2,0.2,0.4,0.2,0.6,0.2c0.2,0,0.4-0.1,0.6-0.2c0.5-0.4,1-0.4,1.4,0l0.6,0.6
					c0.4,0.4,0.4,0.9,0,1.3c-0.3,0.3-0.3,0.6-0.2,0.9c0.1,0.3,0.4,0.5,0.8,0.5c0.5,0,0.9,0.4,0.9,1v0.9c0,0.6-0.4,0.9-0.9,1
					c-0.4,0-0.6,0.2-0.8,0.5c-0.1,0.3-0.1,0.6,0.2,0.9c0.4,0.4,0.4,1,0,1.4c-0.2,0.2-0.4,0.4-0.6,0.6c-0.4,0.4-0.9,0.4-1.3,0
					c-0.3-0.3-0.6-0.3-0.9-0.2c-0.3,0.1-0.5,0.4-0.5,0.8C76.6,129.3,76.2,129.6,75.7,129.6z M73,126.8c0.5,0,0.9,0.2,1.3,0.5
					c0.4,0.3,0.6,0.8,0.6,1.3l0.8,0c0-0.8,0.4-1.4,1.1-1.7c0.7-0.3,1.4-0.2,2,0.4c0.2-0.2,0.4-0.4,0.6-0.6c-0.5-0.6-0.7-1.3-0.4-2
					c0.3-0.7,0.9-1.1,1.7-1.1l0-0.8c-0.8,0-1.4-0.4-1.7-1.1c-0.3-0.7-0.2-1.4,0.4-2l-0.6-0.5c0,0,0,0,0,0c-0.4,0.3-0.8,0.5-1.2,0.5
					c-0.5,0-1-0.2-1.3-0.5c-0.4-0.3-0.6-0.8-0.6-1.3l-0.9,0c0,0.1,0,0.2,0,0.4c-0.2,0.6-0.6,1.1-1.3,1.3c-0.6,0.2-1.3,0-1.8-0.4
					c0,0,0,0,0,0c-0.1,0.1-0.3,0.3-0.4,0.4l-0.2,0.2c0,0,0,0,0,0c0.3,0.4,0.5,0.8,0.5,1.3c0,1-0.8,1.8-1.8,1.9c0,0.3,0,0.6,0,0.9
					c0.1,0,0.3,0,0.4,0c0.6,0.2,1.1,0.6,1.3,1.3c0.2,0.6,0,1.3-0.4,1.8l0.6,0.6c0,0,0,0,0,0C72.1,127,72.5,126.8,73,126.8
					C73,126.8,73,126.8,73,126.8z"/>
			</g>
		</g>
	</g>
	<g>
		<g>
			<path class="st0" d="M125.8,130.7c-0.2,0-0.3-0.1-0.4-0.2l-1-1.4c-0.1-0.1-0.1-0.2-0.1-0.3v-0.7c0-0.1,0.1-0.3,0.2-0.4l0.2-0.2
				l-0.2-0.2c-0.1-0.1-0.2-0.2-0.2-0.4c0-0.1,0.1-0.3,0.2-0.4l0.2-0.2l-0.2-0.2c-0.1-0.1-0.2-0.2-0.2-0.4c0-0.1,0.1-0.3,0.2-0.4
				l0.2-0.1l-0.2-0.1c-0.1-0.1-0.2-0.2-0.2-0.4v-0.9c-1.1-0.5-1.8-1.6-1.8-2.8c0-1.7,1.4-3,3-3s3,1.4,3,3c0,1-0.5,2-1.4,2.6v5
				c0,0.1,0,0.2-0.1,0.3l-1,1.4C126.1,130.7,125.9,130.7,125.8,130.7z M125.3,128.7l0.5,0.7l0.5-0.7v-5.1c0-0.2,0.1-0.4,0.3-0.4
				c0.7-0.4,1.1-1.1,1.1-1.8c0-1.1-0.9-2-2-2s-2,0.9-2,2c0,0.9,0.6,1.7,1.4,1.9c0.2,0.1,0.3,0.3,0.3,0.5v1l0.4,0.4
				c0.1,0.1,0.2,0.2,0.2,0.4c0,0.1-0.1,0.3-0.2,0.4l-0.2,0.1l0.2,0.1c0.1,0.1,0.2,0.2,0.2,0.4c0,0.1-0.1,0.3-0.2,0.4l-0.2,0.2
				l0.2,0.2c0.1,0.1,0.2,0.2,0.2,0.4c0,0.1-0.1,0.3-0.2,0.4l-0.4,0.4V128.7z"/>
		</g>
		<g>
			<circle class="st0" cx="125.6" cy="121.2" r="0.9"/>
		</g>
	</g>
	<g>
		<path class="st0" d="M99.8,172.6c-40.1,0-72.7-32.6-72.7-72.7s32.6-72.7,72.7-72.7s72.7,32.6,72.7,72.7S139.9,172.6,99.8,172.6z
			 M99.8,31.2c-37.9,0-68.7,30.8-68.7,68.7c0,37.9,30.8,68.7,68.7,68.7c37.9,0,68.7-30.8,68.7-68.7C168.5,62,137.7,31.2,99.8,31.2z"
			/>
	</g>
	<g>
		<path class="st0" d="M118.1,118.2c-0.3,0-0.6-0.1-0.9-0.4l-3.6-3.6c-0.5-0.5-0.5-1.3,0-1.8s1.3-0.5,1.8,0l3.6,3.6
			c0.5,0.5,0.5,1.3,0,1.8C118.7,118.1,118.4,118.2,118.1,118.2z"/>
	</g>
	<g>
		<path class="st0" d="M114.4,87.7c-0.3,0-0.6-0.1-0.9-0.4c-0.5-0.5-0.5-1.3,0-1.8l3.2-3.2c0.5-0.5,1.3-0.5,1.8,0s0.5,1.3,0,1.8
			l-3.2,3.2C115.1,87.5,114.8,87.7,114.4,87.7z"/>
	</g>
	<g>
		<g>
			<path class="st0" d="M75.2,135.1c-6.5,0-11.8-5.3-11.8-11.8s5.3-11.8,11.8-11.8s11.8,5.3,11.8,11.8S81.8,135.1,75.2,135.1z
				 M75.2,113.9c-5.2,0-9.3,4.2-9.3,9.3s4.2,9.3,9.3,9.3s9.3-4.2,9.3-9.3S80.4,113.9,75.2,113.9z"/>
		</g>
	</g>
	<g>
		<g>
			<path class="st0" d="M75.4,87.7c-6.5,0-11.8-5.3-11.8-11.8S68.8,64,75.4,64s11.8,5.3,11.8,11.8S81.9,87.7,75.4,87.7z M75.4,66.5
				c-5.2,0-9.3,4.2-9.3,9.3s4.2,9.3,9.3,9.3s9.3-4.2,9.3-9.3S80.5,66.5,75.4,66.5z"/>
		</g>
	</g>
	<g>
		<path class="st0" d="M83.1,117.4c-0.3,0-0.6-0.1-0.9-0.4c-0.5-0.5-0.5-1.3,0-1.8l3.7-3.7c0.5-0.5,1.3-0.5,1.8,0s0.5,1.3,0,1.8
			l-3.7,3.7C83.7,117.3,83.4,117.4,83.1,117.4z"/>
	</g>
	<g>
		<path class="st0" d="M86.7,88.4c-0.3,0-0.6-0.1-0.9-0.4L82,84.2c-0.5-0.5-0.5-1.3,0-1.8s1.3-0.5,1.8,0l3.8,3.8
			c0.5,0.5,0.5,1.3,0,1.8C87.3,88.3,87,88.4,86.7,88.4z"/>
	</g>
	<g>
		<g>
			<path class="st0" d="M75.4,81.8c-3,0-5.4-2.4-5.4-5.4c0-3,2.4-5.4,5.4-5.4c3,0,5.4,2.4,5.4,5.4C80.8,79.3,78.4,81.8,75.4,81.8z
				 M75.4,72C73,72,71,74,71,76.4c0,2.4,1.9,4.3,4.3,4.3c2.4,0,4.3-1.9,4.3-4.3C79.7,74,77.8,72,75.4,72z"/>
		</g>
		<g>
			<path class="st0" d="M75.4,76.9c-0.1,0-0.2,0-0.3-0.1c-0.2-0.2-0.3-0.5-0.1-0.8l2-2.6c0.2-0.2,0.5-0.3,0.8-0.1
				c0.2,0.2,0.3,0.5,0.1,0.8l-2,2.6C75.7,76.8,75.5,76.9,75.4,76.9z"/>
		</g>
		<g>
			<path class="st0" d="M75.4,77.8c-0.8,0-1.5-0.7-1.5-1.5s0.7-1.5,1.5-1.5s1.5,0.7,1.5,1.5S76.3,77.8,75.4,77.8z M75.4,75.9
				c-0.2,0-0.4,0.2-0.4,0.4c0,0.2,0.2,0.4,0.4,0.4c0.2,0,0.4-0.2,0.4-0.4C75.8,76.1,75.7,75.9,75.4,75.9z"/>
		</g>
		<g>
			<path class="st0" d="M80.2,72.7c-0.1,0-0.2,0-0.3-0.1L78,71c-0.2-0.2-0.3-0.5-0.1-0.8c0.2-0.2,0.5-0.3,0.8-0.1l1.9,1.5
				c0.2,0.2,0.3,0.5,0.1,0.8C80.6,72.6,80.4,72.7,80.2,72.7z"/>
		</g>
		<g>
			<path class="st0" d="M70.5,72.7c-0.2,0-0.3-0.1-0.4-0.2c-0.2-0.2-0.2-0.6,0.1-0.8l1.9-1.6c0.2-0.2,0.6-0.2,0.8,0.1
				c0.2,0.2,0.2,0.6-0.1,0.8l-1.9,1.6C70.7,72.7,70.6,72.7,70.5,72.7z"/>
		</g>
		<g>
			<path class="st0" d="M75.4,72c-0.3,0-0.5-0.2-0.5-0.5v-1c0-0.3,0.2-0.5,0.5-0.5s0.5,0.2,0.5,0.5v1C75.9,71.8,75.7,72,75.4,72z"/>
		</g>
	</g>
</g>
</svg>
