<?xml version="1.0" encoding="utf-8"?>
<!-- Generator: Adobe Illustrator 26.3.1, SVG Export Plug-In . SVG Version: 6.00 Build 0)  -->
<svg version="1.1" id="Layer_1" xmlns="http://www.w3.org/2000/svg" xmlns:xlink="http://www.w3.org/1999/xlink" x="0px" y="0px"
	 viewBox="0 0 200 200" style="enable-background:new 0 0 200 200;" xml:space="preserve">
<style type="text/css">
	.st0{fill:#0067FC;}
</style>
<g>
	<g>
		<path class="st0" d="M110.7,78.3c-0.1,0-0.3,0-0.4-0.1c-0.7-0.2-1-0.9-0.8-1.6l0.7-2.1l-2-0.7c-0.7-0.2-1-0.9-0.8-1.6
			c0.2-0.7,0.9-1,1.6-0.8l3.2,1c0.7,0.2,1,0.9,0.8,1.6l-1.1,3.3C111.7,77.9,111.2,78.3,110.7,78.3z"/>
	</g>
	<g>
		<g id="Group_263_00000130646233517628826140000009019037876081950386_" transform="translate(-598.5 -520.001)">
			<g id="Group_259_00000130622332205530074850000006449995310761255304_" transform="translate(549.903 487.744)">
				<g id="Ellipse_9_00000179605744918613962460000001211784520872462223_">
					<path class="st0" d="M180.5,138.1c-3.5,0-6.3-2.8-6.3-6.3s2.8-6.3,6.3-6.3s6.3,2.8,6.3,6.3S184,138.1,180.5,138.1z
						 M180.5,127.9c-2.1,0-3.8,1.7-3.8,3.8c0,2.1,1.7,3.8,3.8,3.8s3.8-1.7,3.8-3.8C184.3,129.6,182.6,127.9,180.5,127.9z"/>
				</g>
				<g id="Path_16_00000147192279331782515140000015784451768364749977_">
					<path class="st0" d="M188.8,147.7c-0.7,0-1.2-0.6-1.2-1.2c0-3.9-3.1-7-7-7s-7,3.1-7,7c0,0.7-0.6,1.2-1.2,1.2s-1.2-0.6-1.2-1.2
						c0-5.2,4.3-9.5,9.5-9.5c5.2,0,9.5,4.3,9.5,9.5C190,147.1,189.4,147.7,188.8,147.7z"/>
				</g>
			</g>
		</g>
	</g>
	<g>
		<path class="st0" d="M119.4,144.5h-42c-3,0-5.5-2.5-5.5-5.5V91.2c0-0.7,0.6-1.2,1.2-1.2s1.2,0.6,1.2,1.2V139c0,1.7,1.3,3,3,3h41.5
			l11.4-12.8v-7c0-0.7,0.6-1.2,1.2-1.2s1.2,0.6,1.2,1.2v7.4c0,0.3-0.1,0.6-0.3,0.8l-12.1,13.5C120.1,144.3,119.8,144.5,119.4,144.5z
			"/>
	</g>
	<g>
		<path class="st0" d="M73.2,95.7c-0.7,0-1.2-0.6-1.2-1.2v-31c0-3,2.5-5.5,5.5-5.5h49.8c3,0,5.5,2.5,5.5,5.5v22.6
			c0,0.7-0.6,1.2-1.2,1.2s-1.2-0.6-1.2-1.2V63.5c0-1.7-1.3-3-3-3H77.4c-1.7,0-3,1.3-3,3v31C74.4,95.1,73.8,95.7,73.2,95.7z"/>
	</g>
	<g>
		<path class="st0" d="M118.4,144c-0.7,0-1.2-0.6-1.2-1.2V134c0-3,2.5-5.5,5.5-5.5h8.8c0.7,0,1.2,0.6,1.2,1.2s-0.6,1.2-1.2,1.2h-8.8
			c-1.7,0-3,1.3-3,3v8.8C119.7,143.5,119.1,144,118.4,144z"/>
	</g>
	<g>
		<g>
			<path class="st0" d="M110.2,99.4c-0.7,0-1.2-0.6-1.2-1.2V81.4c0-0.7,0.6-1.2,1.2-1.2s1.2,0.6,1.2,1.2v16.8
				C111.5,98.9,110.9,99.4,110.2,99.4z"/>
		</g>
		<g>
			<path class="st0" d="M102.4,99.4c-0.7,0-1.2-0.6-1.2-1.2V84.3c0-0.7,0.6-1.2,1.2-1.2s1.2,0.6,1.2,1.2v13.8
				C103.6,98.9,103.1,99.4,102.4,99.4z"/>
		</g>
		<g>
			<path class="st0" d="M94.5,99.4c-0.7,0-1.2-0.6-1.2-1.2v-12c0-0.7,0.6-1.2,1.2-1.2s1.2,0.6,1.2,1.2v12
				C95.8,98.9,95.2,99.4,94.5,99.4z"/>
		</g>
		<g>
			<path class="st0" d="M86.7,99.4c-0.7,0-1.2-0.6-1.2-1.2v-6.3c0-0.7,0.6-1.2,1.2-1.2s1.2,0.6,1.2,1.2v6.3
				C88,98.9,87.4,99.4,86.7,99.4z"/>
		</g>
	</g>
	<g>
		<path class="st0" d="M131.5,122.8c-10,0-18.2-8.2-18.2-18.2s8.2-18.2,18.2-18.2s18.2,8.2,18.2,18.2S141.5,122.8,131.5,122.8z
			 M131.5,88.8c-8.7,0-15.9,7.1-15.9,15.9c0,8.7,7.1,15.9,15.9,15.9s15.9-7.1,15.9-15.9C147.3,95.9,140.2,88.8,131.5,88.8z"/>
	</g>
	<g>
		<path class="st0" d="M85.8,89.5c-0.3,0-0.6-0.1-0.9-0.4c-0.5-0.5-0.5-1.3,0-1.8l7.7-7.7c0.2-0.2,0.4-0.3,0.7-0.4l7.8-1l9-4.8
			c0.6-0.3,1.4-0.1,1.7,0.5s0.1,1.4-0.5,1.7l-9.2,4.9c-0.1,0.1-0.3,0.1-0.4,0.1l-7.6,1l-7.4,7.4C86.4,89.3,86.1,89.5,85.8,89.5z"/>
	</g>
	<g>
		<path class="st0" d="M100,172.7c-1,0-1.9,0-2.9-0.1c-40.1-1.6-71.4-35.5-69.8-75.5c0.8-19.4,9-37.4,23.3-50.5
			c14.3-13.2,32.8-20,52.2-19.2c19.4,0.8,37.4,9,50.5,23.3s20,32.8,19.2,52.2l0,0C171.1,142,138.8,172.7,100,172.7z M99.9,31.3
			c-17.3,0-33.8,6.4-46.6,18.2C39.9,62,32.1,78.9,31.3,97.3c-0.7,18.3,5.7,35.9,18.2,49.3c12.5,13.5,29.4,21.3,47.8,22
			c37.8,1.5,69.9-28.1,71.4-65.9l2,0.1l-2-0.1c0.7-18.3-5.7-35.9-18.2-49.3c-12.5-13.5-29.4-21.3-47.8-22
			C101.8,31.3,100.9,31.3,99.9,31.3z"/>
	</g>
	<g>
		<g>
			<path class="st0" d="M115.9,121.1h-27c-0.7,0-1.2-0.6-1.2-1.2s0.6-1.2,1.2-1.2h27c0.7,0,1.2,0.6,1.2,1.2S116.6,121.1,115.9,121.1
				z"/>
		</g>
		<g>
			<path class="st0" d="M115.9,128.1h-27c-0.7,0-1.2-0.6-1.2-1.2s0.6-1.2,1.2-1.2h27c0.7,0,1.2,0.6,1.2,1.2S116.6,128.1,115.9,128.1
				z"/>
		</g>
		<g>
			<path class="st0" d="M105.9,135.1h-17c-0.7,0-1.2-0.6-1.2-1.2s0.6-1.2,1.2-1.2h17c0.7,0,1.2,0.6,1.2,1.2S106.6,135.1,105.9,135.1
				z"/>
		</g>
		<g>
			<path class="st0" d="M81.9,122.5c-0.3,0-0.6-0.1-0.9-0.4l-1.4-1.4c-0.5-0.5-0.5-1.3,0-1.8s1.3-0.5,1.8,0l0.5,0.5l1.9-1.9
				c0.5-0.5,1.3-0.5,1.8,0s0.5,1.3,0,1.8l-2.8,2.8C82.6,122.4,82.3,122.5,81.9,122.5z"/>
		</g>
		<g>
			<path class="st0" d="M110.2,113.5H88.9c-0.7,0-1.2-0.6-1.2-1.2s0.6-1.2,1.2-1.2h21.3c0.7,0,1.2,0.6,1.2,1.2
				S110.8,113.5,110.2,113.5z"/>
		</g>
		<g>
			<path class="st0" d="M81.9,114.9c-0.3,0-0.6-0.1-0.9-0.4l-1.4-1.4c-0.5-0.5-0.5-1.3,0-1.8s1.3-0.5,1.8,0l0.5,0.5l1.9-1.9
				c0.5-0.5,1.3-0.5,1.8,0s0.5,1.3,0,1.8l-2.8,2.8C82.6,114.8,82.3,114.9,81.9,114.9z"/>
		</g>
		<g>
			<path class="st0" d="M81.9,129.5c-0.3,0-0.6-0.1-0.9-0.4l-1.4-1.4c-0.5-0.5-0.5-1.3,0-1.8c0.5-0.5,1.3-0.5,1.8,0l0.5,0.5l1.9-1.9
				c0.5-0.5,1.3-0.5,1.8,0s0.5,1.3,0,1.8l-2.8,2.8C82.6,129.4,82.3,129.5,81.9,129.5z"/>
		</g>
		<g>
			<path class="st0" d="M81.9,136c-0.3,0-0.6-0.1-0.9-0.4l-1.4-1.4c-0.5-0.5-0.5-1.3,0-1.8s1.3-0.5,1.8,0l0.5,0.5l1.9-1.9
				c0.5-0.5,1.3-0.5,1.8,0s0.5,1.3,0,1.8l-2.8,2.8C82.6,135.9,82.3,136,81.9,136z"/>
		</g>
	</g>
</g>
</svg>
