<?xml version="1.0" encoding="utf-8"?>
<!-- Generator: Adobe Illustrator 26.3.1, SVG Export Plug-In . SVG Version: 6.00 Build 0)  -->
<svg version="1.1" id="Layer_1" xmlns="http://www.w3.org/2000/svg" xmlns:xlink="http://www.w3.org/1999/xlink" x="0px" y="0px"
	 viewBox="0 0 200 200" style="enable-background:new 0 0 200 200;" xml:space="preserve">
<style type="text/css">
	.st0{fill:#0067FC;}
</style>
<g>
	<g>
		<g>
			<g id="Group_263_00000079486343675066010470000015854560873481470373_" transform="translate(-598.5 -520.001)">
				<g id="Group_259_00000103267285537192827590000005348819373637430656_" transform="translate(549.903 487.744)">
					<g id="Ellipse_9_00000170972386634634775530000017018736796409340544_">
						<path class="st0" d="M148.6,137.2c-7.3,0-13.3-6-13.3-13.3s6-13.3,13.3-13.3s13.3,6,13.3,13.3S155.9,137.2,148.6,137.2z
							 M148.6,113.1c-6,0-10.8,4.9-10.8,10.8c0,6,4.9,10.8,10.8,10.8c6,0,10.8-4.9,10.8-10.8C159.4,117.9,154.5,113.1,148.6,113.1z"
							/>
					</g>
					<g id="Path_16_00000046304181930564737620000017080124623814461840_">
						<path class="st0" d="M168.2,160.1c-0.7,0-1.2-0.6-1.2-1.2c0-10.2-8.3-18.4-18.4-18.4s-18.4,8.3-18.4,18.4
							c0,0.7-0.6,1.2-1.2,1.2s-1.2-0.6-1.2-1.2c0-11.5,9.4-20.9,20.9-20.9c11.5,0,20.9,9.4,20.9,20.9
							C169.5,159.6,168.9,160.1,168.2,160.1z"/>
					</g>
				</g>
			</g>
		</g>
		<g>
			<g id="Group_263_00000150818056806865320790000000802456787481377161_" transform="translate(-598.5 -520.001)">
				<g id="Group_259_00000140731229520323404990000014819604321013743770_" transform="translate(549.903 487.744)">
					<g id="Ellipse_9_00000078760215595496843580000009456308764417804449_">
						<path class="st0" d="M179.5,134.7c-5.2,0-9.5-4.2-9.5-9.5s4.2-9.5,9.5-9.5s9.5,4.2,9.5,9.5S184.7,134.7,179.5,134.7z
							 M179.5,118.3c-3.8,0-7,3.1-7,7s3.1,7,7,7s7-3.1,7-7S183.3,118.3,179.5,118.3z"/>
					</g>
					<g id="Path_16_00000101796294265856347220000013789532107349520303_">
						<path class="st0" d="M192.9,150.2c-0.7,0-1.2-0.6-1.2-1.2c0-6.7-5.4-12.1-12.1-12.1s-12.1,5.4-12.1,12.1
							c0,0.7-0.6,1.2-1.2,1.2s-1.2-0.6-1.2-1.2c0-8.1,6.6-14.6,14.6-14.6s14.6,6.6,14.6,14.6C194.1,149.6,193.5,150.2,192.9,150.2z"
							/>
					</g>
				</g>
			</g>
		</g>
		<g>
			<g id="Group_263_00000135680154896350634470000006920047682571585945_" transform="translate(-598.5 -520.001)">
				<g id="Group_259_00000065756036651018940270000016496206680250081211_" transform="translate(549.903 487.744)">
					<g id="Ellipse_9_00000137824301164151002200000016228636533713616801_">
						<path class="st0" d="M117.7,134.7c-5.2,0-9.5-4.2-9.5-9.5s4.2-9.5,9.5-9.5s9.5,4.2,9.5,9.5S122.9,134.7,117.7,134.7z
							 M117.7,118.3c-3.8,0-7,3.1-7,7s3.1,7,7,7s7-3.1,7-7S121.5,118.3,117.7,118.3z"/>
					</g>
					<g id="Path_16_00000093870745486543622570000016715778798147167675_">
						<path class="st0" d="M131,150.2c-0.7,0-1.2-0.6-1.2-1.2c0-6.7-5.4-12.1-12.1-12.1c-6.7,0-12.1,5.4-12.1,12.1
							c0,0.7-0.6,1.2-1.2,1.2s-1.2-0.6-1.2-1.2c0-8.1,6.6-14.6,14.6-14.6s14.6,6.6,14.6,14.6C132.3,149.6,131.7,150.2,131,150.2z"/>
					</g>
				</g>
			</g>
		</g>
	</g>
	<g>
		<path class="st0" d="M100,172.7c-40.1,0-72.7-32.6-72.7-72.7S59.9,27.3,100,27.3s72.7,32.6,72.7,72.7S140.1,172.7,100,172.7z
			 M100,31.3c-37.9,0-68.7,30.8-68.7,68.7c0,37.9,30.8,68.7,68.7,68.7c37.9,0,68.7-30.8,68.7-68.7C168.7,62.1,137.9,31.3,100,31.3z"
			/>
	</g>
</g>
</svg>
