<?xml version="1.0" encoding="utf-8"?>
<!-- Generator: Adobe Illustrator 26.3.1, SVG Export Plug-In . SVG Version: 6.00 Build 0)  -->
<svg version="1.1" id="Layer_1" xmlns="http://www.w3.org/2000/svg" xmlns:xlink="http://www.w3.org/1999/xlink" x="0px" y="0px"
	 viewBox="0 0 200 200" style="enable-background:new 0 0 200 200;" xml:space="preserve">
<style type="text/css">
	.st0{fill:#0067FC;}
</style>
<g>
	<g>
		<path class="st0" d="M100,172.7c-1,0-1.9,0-2.9-0.1c-40.1-1.6-71.4-35.5-69.8-75.5c0.8-19.4,9-37.4,23.3-50.5
			c14.3-13.2,32.8-20,52.2-19.2c19.4,0.8,37.4,9,50.5,23.3s20,32.8,19.2,52.2l0,0C171.1,142,138.8,172.7,100,172.7z M99.9,31.3
			c-17.3,0-33.8,6.4-46.6,18.2C39.9,62,32.1,78.9,31.3,97.3c-0.7,18.3,5.7,35.9,18.2,49.3c12.5,13.5,29.4,21.3,47.8,22
			c37.8,1.5,69.9-28.1,71.4-65.9l2,0.1l-2-0.1c0.7-18.3-5.7-35.9-18.2-49.3c-12.5-13.5-29.4-21.3-47.8-22
			C101.8,31.3,100.9,31.3,99.9,31.3z"/>
	</g>
	<g>
		<g>
			<g id="Group_263_00000123434275221884576330000016556437733135102885_" transform="translate(-598.5 -520.001)">
				<g id="Group_259_00000158713154502457476810000013823973753730035357_" transform="translate(549.903 487.744)">
					<g id="Ellipse_9_00000173161265499502486480000007731391323575856271_">
						<path class="st0" d="M148.6,101.4c-5.4,0-9.9-4.4-9.9-9.9s4.4-9.9,9.9-9.9s9.9,4.4,9.9,9.9S154,101.4,148.6,101.4z
							 M148.6,84.2c-4.1,0-7.4,3.3-7.4,7.4s3.3,7.4,7.4,7.4c4.1,0,7.4-3.3,7.4-7.4S152.7,84.2,148.6,84.2z"/>
					</g>
					<g id="Path_16_00000115517152683048593470000006070365103325372075_">
						<path class="st0" d="M162.6,117.7c-0.7,0-1.2-0.6-1.2-1.2c0-7-5.7-12.8-12.8-12.8s-12.8,5.7-12.8,12.8c0,0.7-0.6,1.2-1.2,1.2
							s-1.2-0.6-1.2-1.2c0-8.4,6.9-15.3,15.3-15.3c8.4,0,15.3,6.9,15.3,15.3C163.9,117.2,163.3,117.7,162.6,117.7z"/>
					</g>
				</g>
			</g>
		</g>
		<g>
			<g id="Group_263_00000067930305911070800500000003906454392198954412_" transform="translate(-598.5 -520.001)">
				<g id="Group_259_00000001629128853845461290000012294544277677213318_" transform="translate(549.903 487.744)">
					<g id="Ellipse_9_00000053533012647659791910000005330652737231359146_">
						<path class="st0" d="M148.6,163.9c-5.4,0-9.9-4.4-9.9-9.9s4.4-9.9,9.9-9.9s9.9,4.4,9.9,9.9S154,163.9,148.6,163.9z
							 M148.6,146.7c-4.1,0-7.4,3.3-7.4,7.4s3.3,7.4,7.4,7.4c4.1,0,7.4-3.3,7.4-7.4S152.7,146.7,148.6,146.7z"/>
					</g>
					<g id="Path_16_00000170981893094998808540000012141430723611571594_">
						<path class="st0" d="M162.6,180.2c-0.7,0-1.2-0.6-1.2-1.2c0-7-5.7-12.8-12.8-12.8s-12.8,5.7-12.8,12.8c0,0.7-0.6,1.2-1.2,1.2
							s-1.2-0.6-1.2-1.2c0-8.4,6.9-15.3,15.3-15.3c8.4,0,15.3,6.9,15.3,15.3C163.9,179.7,163.3,180.2,162.6,180.2z"/>
					</g>
				</g>
			</g>
		</g>
		<g>
			<g id="Group_263_00000141426730287080999850000007280476528533050776_" transform="translate(-598.5 -520.001)">
				<g id="Group_259_00000067207443933604384950000012097185672519646364_" transform="translate(549.903 487.744)">
					<g id="Ellipse_9_00000107562369252293657010000013617245133345518477_">
						<path class="st0" d="M176.6,149.8c-4.5,0-8.2-3.7-8.2-8.2s3.7-8.2,8.2-8.2c4.5,0,8.2,3.7,8.2,8.2S181.2,149.8,176.6,149.8z
							 M176.6,135.9c-3.1,0-5.7,2.6-5.7,5.7s2.6,5.7,5.7,5.7s5.7-2.6,5.7-5.7S179.8,135.9,176.6,135.9z"/>
					</g>
					<g id="Path_16_00000007391076383316229560000005306513764394933901_">
						<path class="st0" d="M187.9,163c-0.7,0-1.2-0.6-1.2-1.2c0-5.5-4.5-10.1-10.1-10.1s-10.1,4.5-10.1,10.1c0,0.7-0.6,1.2-1.2,1.2
							s-1.2-0.6-1.2-1.2c0-6.9,5.6-12.6,12.6-12.6s12.6,5.6,12.6,12.6C189.2,162.4,188.6,163,187.9,163z"/>
					</g>
				</g>
			</g>
		</g>
		<g>
			<g id="Group_263_00000170965101130657517880000005832211894570575016_" transform="translate(-598.5 -520.001)">
				<g id="Group_259_00000104689317458979039270000001232646440430720129_" transform="translate(549.903 487.744)">
					<g id="Ellipse_9_00000086666394651685688000000006167593874312916876_">
						<path class="st0" d="M121.3,149.8c-4.5,0-8.2-3.7-8.2-8.2s3.7-8.2,8.2-8.2s8.2,3.7,8.2,8.2S125.8,149.8,121.3,149.8z
							 M121.3,135.9c-3.1,0-5.7,2.6-5.7,5.7s2.6,5.7,5.7,5.7s5.7-2.6,5.7-5.7S124.5,135.9,121.3,135.9z"/>
					</g>
					<g id="Path_16_00000083796479219343015790000003623358097939651004_">
						<path class="st0" d="M132.6,163c-0.7,0-1.2-0.6-1.2-1.2c0-5.5-4.5-10.1-10.1-10.1s-10.1,4.5-10.1,10.1c0,0.7-0.6,1.2-1.2,1.2
							s-1.2-0.6-1.2-1.2c0-6.9,5.6-12.6,12.6-12.6s12.6,5.6,12.6,12.6C133.9,162.4,133.3,163,132.6,163z"/>
					</g>
				</g>
			</g>
		</g>
		<g>
			<path class="st0" d="M128.6,99.5c-0.7,0-1.2-0.6-1.2-1.2c0-4.2-3.5-7.7-7.7-7.7H80.4c-4.2,0-7.7,3.5-7.7,7.7
				c0,0.7-0.6,1.2-1.2,1.2s-1.2-0.6-1.2-1.2c0-5.6,4.6-10.2,10.2-10.2h39.3c5.6,0,10.2,4.6,10.2,10.2
				C129.8,98.9,129.3,99.5,128.6,99.5z"/>
		</g>
		<g>
			<path class="st0" d="M100,103.7c-0.7,0-1.2-0.6-1.2-1.2V79.7c0-0.7,0.6-1.2,1.2-1.2s1.2,0.6,1.2,1.2v22.7
				C101.2,103.1,100.7,103.7,100,103.7z"/>
		</g>
	</g>
</g>
</svg>
