<?xml version="1.0" encoding="utf-8"?>
<!-- Generator: Adobe Illustrator 26.3.1, SVG Export Plug-In . SVG Version: 6.00 Build 0)  -->
<svg version="1.1" id="Layer_1" xmlns="http://www.w3.org/2000/svg" xmlns:xlink="http://www.w3.org/1999/xlink" x="0px" y="0px"
	 viewBox="0 0 200 200" style="enable-background:new 0 0 200 200;" xml:space="preserve">
<style type="text/css">
	.st0{fill:#0067FC;}
</style>
<g>
	<g>
		<g>
			<g id="Group_263_00000131325393538603268590000010127433780088486553_" transform="translate(-598.5 -520.001)">
				<g id="Group_259_00000138531732770051489940000018106661738442095776_" transform="translate(549.903 487.744)">
					<g id="Ellipse_9_00000133488255500059056760000007881043288444719034_">
						<path class="st0" d="M179.3,130.8c-3.5,0-6.3-2.8-6.3-6.3s2.8-6.3,6.3-6.3s6.3,2.8,6.3,6.3S182.8,130.8,179.3,130.8z
							 M179.3,120.7c-2.1,0-3.8,1.7-3.8,3.8s1.7,3.8,3.8,3.8s3.8-1.7,3.8-3.8S181.4,120.7,179.3,120.7z"/>
					</g>
					<g id="Path_16_00000180356226813752209200000014316425938680072108_">
						<path class="st0" d="M187.5,140.4c-0.7,0-1.2-0.6-1.2-1.2c0-3.9-3.1-7-7-7s-7,3.1-7,7c0,0.7-0.6,1.2-1.2,1.2s-1.2-0.6-1.2-1.2
							c0-5.2,4.3-9.5,9.5-9.5s9.5,4.3,9.5,9.5C188.8,139.9,188.2,140.4,187.5,140.4z"/>
					</g>
				</g>
			</g>
		</g>
		<g>
			<path class="st0" d="M71.9,111.6c-0.7,0-1.2-0.6-1.2-1.2V62.6c0-3,2.5-5.5,5.5-5.5h42c0.4,0,0.7,0.2,0.9,0.4l12.1,13.5
				c0.2,0.2,0.3,0.5,0.3,0.8v7.4c0,0.7-0.6,1.2-1.2,1.2S129,80,129,79.3v-7l-11.4-12.8H76.2c-1.7,0-3,1.3-3,3v47.7
				C73.2,111,72.6,111.6,71.9,111.6z"/>
		</g>
		<g>
			<path class="st0" d="M126,143.6H76.2c-3,0-5.5-2.5-5.5-5.5v-31c0-0.7,0.6-1.2,1.2-1.2s1.2,0.6,1.2,1.2v31c0,1.7,1.3,3,3,3H126
				c1.7,0,3-1.3,3-3v-22.6c0-0.7,0.6-1.2,1.2-1.2s1.2,0.6,1.2,1.2v22.6C131.5,141.2,129.1,143.6,126,143.6z"/>
		</g>
		<g>
			<path class="st0" d="M130.3,73.1h-8.8c-3,0-5.5-2.5-5.5-5.5v-8.8c0-0.7,0.6-1.2,1.2-1.2s1.2,0.6,1.2,1.2v8.8c0,1.7,1.3,3,3,3h8.8
				c0.7,0,1.2,0.6,1.2,1.2S131,73.1,130.3,73.1z"/>
		</g>
		<g>
			<path class="st0" d="M130.3,115.6c-10,0-18.2-8.2-18.2-18.2c0-10,8.2-18.2,18.2-18.2s18.2,8.2,18.2,18.2
				C148.5,107.5,140.3,115.6,130.3,115.6z M130.3,81.6c-8.7,0-15.9,7.1-15.9,15.9c0,8.7,7.1,15.9,15.9,15.9s15.9-7.1,15.9-15.9
				C146.1,88.7,139,81.6,130.3,81.6z"/>
		</g>
	</g>
	<g>
		<g>
			<path class="st0" d="M110.4,110.5H90c-0.7,0-1.2-0.6-1.2-1.2s0.6-1.2,1.2-1.2h20.4c0.7,0,1.2,0.6,1.2,1.2
				S111.1,110.5,110.4,110.5z"/>
		</g>
		<g>
			<path class="st0" d="M110.4,117.6H90c-0.7,0-1.2-0.6-1.2-1.2s0.6-1.2,1.2-1.2h20.4c0.7,0,1.2,0.6,1.2,1.2
				S111.1,117.6,110.4,117.6z"/>
		</g>
		<g>
			<path class="st0" d="M107,124.6H90c-0.7,0-1.2-0.6-1.2-1.2s0.6-1.2,1.2-1.2h17c0.7,0,1.2,0.6,1.2,1.2S107.7,124.6,107,124.6z"/>
		</g>
		<g>
			<path class="st0" d="M83.1,112c-0.3,0-0.6-0.1-0.9-0.4l-1.4-1.4c-0.5-0.5-0.5-1.3,0-1.8c0.5-0.5,1.3-0.5,1.8,0l0.5,0.5L85,107
				c0.5-0.5,1.3-0.5,1.8,0s0.5,1.3,0,1.8l-2.8,2.8C83.7,111.8,83.4,112,83.1,112z"/>
		</g>
		<g>
			<path class="st0" d="M83.1,119L83.1,119c-0.3,0-0.6-0.1-0.9-0.4l-1.4-1.4c-0.5-0.5-0.5-1.3,0-1.8s1.3-0.5,1.8,0l0.5,0.5L85,114
				c0.5-0.5,1.3-0.5,1.8,0s0.5,1.3,0,1.8l-2.8,2.8C83.7,118.9,83.4,119,83.1,119z"/>
		</g>
		<g>
			<path class="st0" d="M83.1,125.5L83.1,125.5c-0.3,0-0.6-0.1-0.9-0.4l-1.4-1.4c-0.5-0.5-0.5-1.3,0-1.8s1.3-0.5,1.8,0l0.5,0.5
				l1.9-1.9c0.5-0.5,1.3-0.5,1.8,0s0.5,1.3,0,1.8l-2.8,2.8C83.7,125.3,83.4,125.5,83.1,125.5z"/>
		</g>
	</g>
	<g>
		<g>
			<path class="st0" d="M110.4,78.9H90c-0.7,0-1.2-0.6-1.2-1.2s0.6-1.2,1.2-1.2h20.4c0.7,0,1.2,0.6,1.2,1.2S111.1,78.9,110.4,78.9z"
				/>
		</g>
		<g>
			<path class="st0" d="M110.4,85.9H90c-0.7,0-1.2-0.6-1.2-1.2s0.6-1.2,1.2-1.2h20.4c0.7,0,1.2,0.6,1.2,1.2S111.1,85.9,110.4,85.9z"
				/>
		</g>
		<g>
			<path class="st0" d="M107,92.9H90c-0.7,0-1.2-0.6-1.2-1.2s0.6-1.2,1.2-1.2h17c0.7,0,1.2,0.6,1.2,1.2S107.7,92.9,107,92.9z"/>
		</g>
		<g>
			<path class="st0" d="M83.1,80.3L83.1,80.3c-0.3,0-0.6-0.1-0.9-0.4l-1.4-1.4c-0.5-0.5-0.5-1.3,0-1.8c0.5-0.5,1.3-0.5,1.8,0
				l0.5,0.5l1.9-1.9c0.5-0.5,1.3-0.5,1.8,0c0.5,0.5,0.5,1.3,0,1.8L84,79.9C83.7,80.1,83.4,80.3,83.1,80.3z"/>
		</g>
		<g>
			<path class="st0" d="M83.1,87.3c-0.3,0-0.6-0.1-0.9-0.4l-1.4-1.4c-0.5-0.5-0.5-1.3,0-1.8s1.3-0.5,1.8,0l0.5,0.5l1.9-1.9
				c0.5-0.5,1.3-0.5,1.8,0s0.5,1.3,0,1.8L84,86.9C83.7,87.2,83.4,87.3,83.1,87.3z"/>
		</g>
		<g>
			<path class="st0" d="M83.1,93.8c-0.3,0-0.6-0.1-0.9-0.4L80.8,92c-0.5-0.5-0.5-1.3,0-1.8s1.3-0.5,1.8,0l0.5,0.5l1.9-1.9
				c0.5-0.5,1.3-0.5,1.8,0s0.5,1.3,0,1.8L84,93.4C83.7,93.6,83.4,93.8,83.1,93.8z"/>
		</g>
	</g>
	<g>
		<path class="st0" d="M100,172.7c-1,0-1.9,0-2.9-0.1c-40.1-1.6-71.4-35.5-69.8-75.5c0.8-19.4,9-37.4,23.3-50.5
			c14.3-13.2,32.8-20,52.2-19.2c19.4,0.8,37.4,9,50.5,23.3s20,32.8,19.2,52.2l0,0C171.1,142,138.8,172.7,100,172.7z M99.9,31.3
			c-17.3,0-33.8,6.4-46.6,18.2C39.9,62,32.1,78.9,31.3,97.3c-0.7,18.3,5.7,35.9,18.2,49.3c12.5,13.5,29.4,21.3,47.8,22
			c37.8,1.5,69.9-28.1,71.4-65.9l2,0.1l-2-0.1c0.7-18.3-5.7-35.9-18.2-49.3c-12.5-13.5-29.4-21.3-47.8-22
			C101.8,31.3,100.9,31.3,99.9,31.3z"/>
	</g>
</g>
</svg>
