<?xml version="1.0" encoding="utf-8"?>
<!-- Generator: Adobe Illustrator 26.3.1, SVG Export Plug-In . SVG Version: 6.00 Build 0)  -->
<svg version="1.1" id="Layer_1" xmlns="http://www.w3.org/2000/svg" xmlns:xlink="http://www.w3.org/1999/xlink" x="0px" y="0px"
	 viewBox="0 0 200 200" style="enable-background:new 0 0 200 200;" xml:space="preserve">
<style type="text/css">
	.st0{fill:#0067FC;}
</style>
<g>
	<g>
		<g>
			<g>
				<path class="st0" d="M104.6,91.6c-5.9,0-10.7-4.8-10.7-10.7c0-5.9,4.8-10.7,10.7-10.7c5.9,0,10.7,4.8,10.7,10.7
					C115.3,86.8,110.5,91.6,104.6,91.6z M104.6,72.2c-4.8,0-8.7,3.9-8.7,8.7s3.9,8.7,8.7,8.7s8.7-3.9,8.7-8.7S109.4,72.2,104.6,72.2
					z"/>
			</g>
			<g>
				<path class="st0" d="M104.6,105.1c-0.6,0-1.1,0-1.7,0c-1.7,0-2.8-1.1-2.9-2.8c0-1.2-0.5-2.3-1.3-3.1c-0.8-0.8-1.9-1.2-3.1-1.2
					c-1.1,0-2,0.4-2.8,1.2c-1.4,1.3-2.8,1.3-4.2-0.1c-0.7-0.7-1.5-1.5-2.2-2.2c-1.3-1.3-1.3-2.8-0.1-4.1c1.1-1.1,1.5-2.7,1-4.2
					c-0.4-1.4-1.6-2.5-3-2.9c-0.4-0.1-0.8-0.1-1.2-0.1c-1.6-0.1-2.7-1.2-2.7-2.7c0-1.1,0-2.3,0-3.4l0-0.2c0-1.7,1.1-2.8,2.8-2.8
					c2.4,0,4.3-1.9,4.3-4.3c0-1.1-0.4-2.1-1.2-2.9c-1.3-1.4-1.3-2.8,0.1-4.2l0.6-0.6c0.6-0.6,1.1-1.2,1.7-1.7c0.3-0.3,0.7-0.5,1-0.7
					c0.1-0.1,0.2-0.1,0.3-0.2c0.2-0.1,0.4-0.2,0.7-0.1c0.9,0.2,1.5,0.6,2,1.1c1.1,1.1,2.7,1.4,4.1,1c1.5-0.4,2.6-1.6,2.9-3
					c0.1-0.4,0.1-0.7,0.1-1.2c0.1-1.5,1.2-2.6,2.7-2.7c0.9,0,1.8,0,2.7,0l0.8,0c1.8,0,2.9,1.1,2.9,2.9c0,1.2,0.5,2.3,1.3,3.1
					c0.8,0.8,1.9,1.2,3,1.2c1.1,0,2-0.4,2.9-1.2c1.4-1.3,2.8-1.3,4.2,0.1l0.7,0.7c0.5,0.5,1,1,1.5,1.6c1.2,1.2,1.2,2.7,0,4
					c-1.3,1.4-1.7,3-0.9,4.7c0.7,1.7,2,2.6,4,2.6c1.6,0,2.7,1.2,2.7,2.8c0,1.2,0,2.3,0,3.5c0,1.7-1.1,2.8-2.8,2.8
					c-2,0.1-3.3,0.9-4,2.6c-0.7,1.7-0.4,3.2,0.9,4.7c1.2,1.3,1.2,2.8-0.1,4c-0.8,0.8-1.6,1.6-2.4,2.4c-1.2,1.2-2.7,1.2-4,0
					c-1.4-1.3-3-1.7-4.7-0.9c-1.7,0.7-2.6,2-2.6,4c-0.1,1.7-1.1,2.8-2.9,2.8C105.8,105.1,105.2,105.1,104.6,105.1z M95.8,95.9
					c1.6,0,3.2,0.6,4.3,1.7c1.2,1.2,1.9,2.8,2,4.5c0,0.7,0.2,0.9,0.9,0.9c1.1,0,2.3,0,3.4,0c0.6,0,0.8-0.2,0.9-0.8
					c0.1-2.8,1.4-4.7,3.9-5.8c2.4-1,4.8-0.6,6.8,1.3c0.5,0.4,0.8,0.4,1.2,0c0.8-0.8,1.6-1.6,2.4-2.4c0.5-0.5,0.5-0.8,0-1.3
					c-1.9-2-2.3-4.4-1.3-6.8c1-2.4,3-3.8,5.8-3.8c0.6,0,0.8-0.3,0.8-0.8c0-1.2,0-2.3,0-3.5c0-0.5-0.2-0.8-0.8-0.8
					c-2.8-0.1-4.8-1.4-5.8-3.9c-1-2.4-0.6-4.8,1.3-6.8c0.4-0.5,0.4-0.8,0-1.2c-0.5-0.5-1-1-1.5-1.5l-0.7-0.7c-0.6-0.6-0.8-0.6-1.4,0
					c-1.2,1.1-2.6,1.7-4.2,1.7c-1.7,0-3.3-0.6-4.5-1.7c-1.2-1.2-1.9-2.8-2-4.5c0-0.7-0.2-0.9-0.9-0.9l-0.8,0c-0.9,0-1.8,0-2.6,0
					c-0.5,0-0.7,0.3-0.8,0.8c0,0.6-0.1,1.1-0.2,1.6c-0.6,2.2-2.2,3.8-4.3,4.5c-2.1,0.6-4.4,0.1-6.1-1.5c-0.2-0.2-0.4-0.4-0.7-0.5
					c0,0,0,0-0.1,0c-0.2,0.1-0.5,0.2-0.6,0.3c-0.6,0.5-1.1,1.1-1.7,1.6l-0.6,0.6c-0.6,0.6-0.6,0.8,0,1.4c1.1,1.2,1.7,2.6,1.7,4.2
					c0.1,3.5-2.7,6.3-6.3,6.3c-0.6,0-0.9,0.2-0.9,0.8l0,0.2c0,1.1,0,2.2,0,3.4c0,0.5,0.3,0.7,0.8,0.7c0.5,0,1.1,0.1,1.6,0.2
					c2.2,0.6,3.8,2.2,4.5,4.3c0.6,2.2,0.1,4.4-1.5,6.1c-0.5,0.6-0.5,0.8,0,1.4c0.7,0.7,1.5,1.5,2.2,2.2c0.6,0.6,0.8,0.6,1.4,0
					c1.2-1.1,2.5-1.7,4.1-1.7C95.6,96,95.7,95.9,95.8,95.9z"/>
			</g>
		</g>
		<g>
			<g>
				<path class="st0" d="M83.3,124.5c-4.7,0-8.5-3.8-8.5-8.5s3.8-8.5,8.5-8.5s8.5,3.8,8.5,8.5S88,124.5,83.3,124.5z M83.3,109.5
					c-3.6,0-6.5,2.9-6.5,6.5c0,3.6,2.9,6.5,6.5,6.5s6.5-2.9,6.5-6.5C89.8,112.4,86.9,109.5,83.3,109.5z"/>
			</g>
			<g>
				<path class="st0" d="M83.3,134.8c-0.4,0-0.9,0-1.3,0c-1.5,0-2.4-1-2.4-2.4c0-0.9-0.4-1.7-1-2.2c-0.6-0.6-1.4-0.8-2.2-0.8
					c-0.8,0-1.4,0.3-2,0.9c-1.2,1.1-2.4,1.1-3.6-0.1l-1.7-1.7c-1.1-1.1-1.1-2.4,0-3.5c0.8-0.8,1.1-1.9,0.7-3c-0.3-1-1.1-1.8-2.2-2.1
					c-0.3-0.1-0.6-0.1-0.9-0.1c-1.3-0.1-2.3-1-2.3-2.3c0-0.9,0-1.8,0-2.8c0-1.4,0.9-2.4,2.4-2.4c1.8,0,3.1-1.4,3.1-3.1
					c0-0.8-0.3-1.5-0.9-2.1c-1.1-1.2-1.1-2.4,0.1-3.6l0.5-0.5c0.4-0.5,0.9-0.9,1.3-1.3c0.3-0.3,0.6-0.4,0.9-0.5
					c0.1,0,0.2-0.1,0.3-0.1c0.2-0.1,0.4-0.2,0.7-0.1c0.8,0.1,1.2,0.5,1.6,0.9c0.8,0.8,1.9,1,3,0.7c1-0.3,1.8-1.1,2.1-2.2
					c0.1-0.3,0.1-0.6,0.1-0.9c0.1-1.3,1-2.2,2.3-2.3c0.7,0,1.3,0,2,0l0.6,0c1.5,0,2.5,0.9,2.5,2.4c0,0.8,0.4,1.6,1,2.2
					c0.6,0.6,1.4,0.9,2.2,0.8c0.8,0,1.5-0.3,2-0.9c1.2-1.1,2.4-1.1,3.6,0.1l0.5,0.5c0.4,0.4,0.8,0.8,1.3,1.3c1,1,1,2.3,0,3.4
					c-1,1-1.2,2.1-0.7,3.4c0.5,1.2,1.5,1.9,2.9,1.9c1.4,0,2.3,1,2.3,2.4c0,0.9,0,1.8,0,2.7c0,1.4-1,2.4-2.3,2.4
					c-1.4,0-2.4,0.7-2.9,1.9c-0.5,1.2-0.3,2.3,0.7,3.4c1,1.1,1,2.4,0,3.4c-0.6,0.6-1.2,1.2-1.9,1.9c-1,1-2.3,1-3.4,0
					c-1-1-2.1-1.2-3.4-0.7c-1.2,0.5-1.8,1.4-1.9,2.9c0,1.4-1,2.4-2.4,2.4C84.2,134.8,83.7,134.8,83.3,134.8z M76.5,127.3
					c1.3,0,2.5,0.5,3.5,1.4c1,0.9,1.6,2.2,1.6,3.7c0,0.4,0.1,0.4,0.4,0.4c0.9,0,1.7,0,2.6,0c0.4,0,0.4-0.1,0.4-0.4
					c0.1-2.2,1.1-3.8,3.1-4.6c2-0.8,3.9-0.5,5.5,1.1c0.3,0.3,0.4,0.2,0.6,0c0.6-0.6,1.2-1.2,1.8-1.8c0.3-0.3,0.3-0.3,0-0.7
					c-1.5-1.6-1.9-3.5-1-5.5s2.4-3,4.7-3.1c0.3,0,0.4-0.1,0.4-0.4c0-0.9,0-1.8,0-2.7c0-0.3-0.1-0.4-0.4-0.4
					c-2.2-0.1-3.9-1.1-4.7-3.1c-0.8-2-0.5-3.9,1.1-5.5c0.3-0.3,0.2-0.4,0-0.6c-0.4-0.4-0.8-0.8-1.2-1.2l-0.5-0.5
					C94.1,103,94,103,94,103c0,0-0.1,0-0.4,0.3c-0.9,0.9-2.1,1.4-3.4,1.4c-1.3,0-2.6-0.5-3.6-1.4c-1-0.9-1.5-2.2-1.6-3.6
					c0-0.4,0-0.5-0.5-0.5l-0.6,0c-0.7,0-1.3,0-2,0c-0.2,0-0.3,0.1-0.4,0.4c0,0.4,0,0.8-0.2,1.3c-0.5,1.8-1.7,3.1-3.5,3.6
					c-1.7,0.5-3.6,0.1-4.9-1.2c-0.1-0.1-0.2-0.2-0.4-0.3c-0.1,0.1-0.3,0.1-0.3,0.2c-0.4,0.4-0.9,0.8-1.3,1.2l-0.5,0.5
					c-0.3,0.3-0.3,0.4-0.3,0.4l0,0c0,0,0,0.1,0.3,0.4c0.9,1,1.4,2.1,1.4,3.4c0,2.8-2.2,5.1-5,5.1c-0.4,0-0.4,0.1-0.4,0.4
					c0,0.9,0,1.8,0,2.7c0,0.2,0,0.3,0.4,0.3c0.4,0,0.9,0,1.3,0.2c1.8,0.5,3.1,1.7,3.6,3.5c0.5,1.7,0.1,3.6-1.2,4.9
					c-0.3,0.4-0.3,0.4,0,0.7l1.7,1.7c0.3,0.3,0.4,0.3,0.4,0.3c0,0,0.1,0,0.4-0.3c0.9-0.9,2.1-1.4,3.3-1.4
					C76.4,127.3,76.4,127.3,76.5,127.3z"/>
			</g>
		</g>
		<g>
			<g>
				<path class="st0" d="M113.8,129.3c-3.4,0-6.2-2.8-6.2-6.2s2.8-6.2,6.2-6.2s6.2,2.8,6.2,6.2S117.2,129.3,113.8,129.3z
					 M113.8,118.9c-2.3,0-4.2,1.9-4.2,4.2s1.9,4.2,4.2,4.2s4.2-1.9,4.2-4.2S116.1,118.9,113.8,118.9z"/>
			</g>
			<g>
				<path class="st0" d="M113.9,136.5c-0.3,0-0.7,0-1,0c-1.2,0-2-0.8-2-2c0-0.5-0.2-1-0.6-1.3c-0.3-0.3-0.8-0.5-1.3-0.5
					c-0.5,0-0.8,0.2-1.2,0.5c-0.9,0.9-2,0.9-2.9,0l-1.2-1.2c-0.9-0.9-0.9-2,0-2.9c0.5-0.5,0.6-1.2,0.4-1.8c-0.2-0.6-0.7-1.1-1.3-1.2
					c-0.2,0-0.4,0-0.6-0.1c-1.1-0.1-1.9-0.9-1.9-1.9c0-0.6,0-1.2,0-1.7l0-0.2c0-1.2,0.8-2,2-2c1,0,1.9-0.8,1.8-1.8
					c0-0.5-0.2-0.9-0.5-1.2c-0.9-0.9-0.9-2,0.1-2.9l0.3-0.3c0.3-0.3,0.6-0.6,1-0.9c0.2-0.2,0.5-0.3,0.7-0.4l0.2-0.1
					c0.2-0.1,0.4-0.2,0.7-0.1c0.6,0.1,1,0.4,1.3,0.7c0.5,0.5,1.1,0.6,1.8,0.4c0.6-0.2,1.1-0.7,1.2-1.3c0-0.2,0.1-0.4,0.1-0.6
					c0.1-1.1,0.8-1.9,1.9-1.9c0.5,0,1,0,1.4,0l0.4,0c1.2,0,2,0.8,2,2c0,0.5,0.2,1,0.6,1.3c0.3,0.3,0.8,0.5,1.3,0.5
					c0.5,0,0.9-0.2,1.2-0.5c0.9-0.9,2-0.9,2.9,0.1l0.3,0.3c0.3,0.3,0.6,0.6,0.9,0.9c0.8,0.8,0.8,1.9,0,2.8c-0.6,0.6-0.7,1.3-0.4,2
					c0.3,0.8,0.9,1.1,1.7,1.1c1.1,0,1.9,0.8,1.9,2c0,0.6,0,1.3,0,1.9c0,1.1-0.8,1.9-1.9,2c-0.9,0-1.4,0.4-1.7,1.1
					c-0.3,0.7-0.2,1.4,0.4,2c0.8,0.9,0.8,2,0,2.8c-0.4,0.4-0.9,0.9-1.3,1.3c-0.8,0.8-1.9,0.8-2.8,0c-0.6-0.6-1.3-0.7-2-0.4
					c-0.8,0.3-1.1,0.8-1.1,1.7c0,1.2-0.8,1.9-2,1.9C114.5,136.5,114.2,136.5,113.9,136.5z M112.9,134.5
					C112.9,134.5,112.9,134.5,112.9,134.5c0.6,0,1.2,0,1.8,0c0.1-1.7,0.9-2.9,2.4-3.5c1.5-0.6,2.9-0.3,4.1,0.8c0,0,0,0,0,0
					c0.5-0.5,0.9-0.9,1.3-1.3c0,0,0,0,0,0c0,0,0,0,0,0c-1.1-1.2-1.4-2.7-0.8-4.1c0.6-1.5,1.9-2.3,3.5-2.3c0-0.6,0-1.2,0-1.8
					c-1.7-0.1-2.9-0.9-3.5-2.4c-0.6-1.5-0.3-2.9,0.8-4.1c0,0,0,0,0,0c-0.3-0.3-0.6-0.6-0.9-0.9l-0.3-0.3c0,0,0,0-0.1-0.1
					c0,0,0,0-0.1,0.1c-0.7,0.7-1.6,1-2.5,1.1c-1,0-2-0.3-2.7-1c-0.7-0.7-1.2-1.7-1.2-2.7c0,0,0,0,0,0c0,0,0,0,0,0l-0.4,0
					c-0.5,0-0.9,0-1.3,0c0,0.3,0,0.6-0.1,0.9c-0.3,1.3-1.3,2.3-2.6,2.7c-1.3,0.4-2.7,0-3.7-0.9c0,0,0,0-0.1-0.1c0,0,0,0,0,0
					c-0.3,0.3-0.6,0.6-0.9,0.9l-0.3,0.3c0,0,0,0-0.1,0.1c0,0,0,0,0.1,0.1c0.7,0.7,1,1.6,1.1,2.6c0,2.1-1.6,3.8-3.8,3.9l0,0.2
					c0,0.5,0,1.1,0,1.6c0.3,0,0.6,0,0.9,0.1c1.3,0.3,2.3,1.3,2.7,2.6c0.4,1.3,0,2.7-0.9,3.7c0,0,0,0,0,0c0,0,0,0,0,0l1.2,1.2
					c0,0,0,0,0.1,0.1c0,0,0,0,0.1-0.1c0.7-0.7,1.6-1,2.5-1.1c1,0,2,0.3,2.8,1C112.5,132.5,112.9,133.4,112.9,134.5
					C112.9,134.5,112.9,134.5,112.9,134.5z"/>
			</g>
		</g>
	</g>
	<g>
		<path class="st0" d="M100,172.7c-40.1,0-72.7-32.6-72.7-72.7S59.9,27.3,100,27.3s72.7,32.6,72.7,72.7S140.1,172.7,100,172.7z
			 M100,31.3c-37.9,0-68.7,30.8-68.7,68.7c0,37.9,30.8,68.7,68.7,68.7c37.9,0,68.7-30.8,68.7-68.7C168.7,62.1,137.9,31.3,100,31.3z"
			/>
	</g>
	<g>
		<path class="st0" d="M100,152c-14.4,0-27.8-5.8-37.7-16.2c-4.8-5.1-8.5-10.9-11-17.5c-0.2-0.6,0.1-1.4,0.7-1.6
			c0.6-0.2,1.4,0.1,1.6,0.7c2.3,6.2,5.9,11.8,10.4,16.6c9.4,9.9,22.2,15.4,35.9,15.4c8.1,0,16.2-2,23.3-5.8c0.6-0.3,1.4-0.1,1.7,0.5
			c0.3,0.6,0.1,1.4-0.5,1.7C117,149.9,108.6,152,100,152z"/>
	</g>
	<g>
		<path class="st0" d="M146.2,122.4c-0.2,0-0.4,0-0.5-0.1c-0.6-0.3-0.9-1-0.6-1.7c3-6.5,4.5-13.4,4.5-20.6c0-6.4-1.2-12.7-3.6-18.6
			c-0.3-0.6,0-1.4,0.7-1.6c0.6-0.3,1.4,0,1.6,0.7c2.5,6.2,3.8,12.8,3.8,19.6c0,7.5-1.6,14.8-4.7,21.6
			C147.1,122.1,146.7,122.4,146.2,122.4z"/>
	</g>
	<g>
		<path class="st0" d="M52.1,84.3c-0.1,0-0.3,0-0.4-0.1c-0.7-0.2-1-0.9-0.8-1.6C54.7,72,62,62.7,71.4,56.5C79.9,50.9,89.8,48,100,48
			c6.6,0,13,1.2,19.1,3.6c0.6,0.3,1,1,0.7,1.6c-0.3,0.6-1,1-1.6,0.7c-5.8-2.3-11.9-3.4-18.2-3.4c-9.7,0-19.1,2.8-27.2,8.1
			c-9,5.9-15.9,14.7-19.5,24.8C53.1,83.9,52.7,84.3,52.1,84.3z"/>
	</g>
</g>
</svg>
