<?xml version="1.0" encoding="utf-8"?>
<!-- Generator: Adobe Illustrator 26.3.1, SVG Export Plug-In . SVG Version: 6.00 Build 0)  -->
<svg version="1.1" id="Layer_1" xmlns="http://www.w3.org/2000/svg" xmlns:xlink="http://www.w3.org/1999/xlink" x="0px" y="0px"
	 viewBox="0 0 200 200" style="enable-background:new 0 0 200 200;" xml:space="preserve">
<style type="text/css">
	.st0{fill:none;stroke:#0067FC;stroke-width:2.5;stroke-linecap:round;stroke-linejoin:round;stroke-miterlimit:10;}
	.st1{fill:none;stroke:#0067FC;stroke-width:2.0796;stroke-linecap:round;stroke-linejoin:round;stroke-miterlimit:10;}
	.st2{fill:#0067FC;}
</style>
<g>
	<g>
		<path class="st0" d="M101.7,125.9"/>
	</g>
	<g>
		<path class="st0" d="M109.4,125.9"/>
	</g>
	<g>
		<path class="st1" d="M95.3,122.7"/>
	</g>
	<g>
		<path class="st1" d="M88.9,122.7"/>
	</g>
	<g>
		<path class="st2" d="M96.7,125.2H85.6c-0.6,0-1-0.5-1-1s0.5-1,1-1h11.1c0.6,0,1,0.5,1,1S97.3,125.2,96.7,125.2z"/>
	</g>
	<g>
		<path class="st2" d="M88.8,129.4c-0.3,0-0.5-0.1-0.7-0.3l-4.2-4.2c-0.4-0.4-0.4-1.1,0-1.5l4.3-4.3c0.4-0.4,1.1-0.4,1.5,0
			c0.4,0.4,0.4,1.1,0,1.5l-3.5,3.5l3.4,3.4c0.4,0.4,0.4,1.1,0,1.5C89.4,129.3,89.1,129.4,88.8,129.4z"/>
	</g>
	<g>
		<path class="st1" d="M104.3,125.6"/>
	</g>
	<g>
		<path class="st1" d="M110.7,125.6"/>
	</g>
	<g>
		<path class="st2" d="M114,125.2h-11.1c-0.6,0-1-0.5-1-1s0.5-1,1-1H114c0.6,0,1,0.5,1,1S114.5,125.2,114,125.2z"/>
	</g>
	<g>
		<path class="st2" d="M110.7,129.4c-0.3,0-0.5-0.1-0.7-0.3c-0.4-0.4-0.4-1.1,0-1.5l3.5-3.5l-3.4-3.4c-0.4-0.4-0.4-1.1,0-1.5
			s1.1-0.4,1.5,0l4.2,4.2c0.4,0.4,0.4,1.1,0,1.5l-4.3,4.3C111.2,129.3,110.9,129.4,110.7,129.4z"/>
	</g>
	<g>
		<g>
			<g id="Group_263_00000177465379329040987360000012584078260962326931_" transform="translate(-598.5 -520.001)">
				<g id="Group_259_00000009592191892385456690000003559800506607149954_" transform="translate(549.903 487.744)">
					<g id="Ellipse_9_00000147940637815299447460000002939125979227356595_">
						<path class="st2" d="M179.3,136.8c-3.5,0-6.3-2.8-6.3-6.3s2.8-6.3,6.3-6.3s6.3,2.8,6.3,6.3S182.8,136.8,179.3,136.8z
							 M179.3,126.7c-2.1,0-3.8,1.7-3.8,3.8s1.7,3.8,3.8,3.8s3.8-1.7,3.8-3.8S181.4,126.7,179.3,126.7z"/>
					</g>
					<g id="Path_16_00000178906660354187054110000008319841725865420210_">
						<path class="st2" d="M187.5,146.4c-0.7,0-1.2-0.6-1.2-1.2c0-3.9-3.1-7-7-7s-7,3.1-7,7c0,0.7-0.6,1.2-1.2,1.2s-1.2-0.6-1.2-1.2
							c0-5.2,4.3-9.5,9.5-9.5s9.5,4.3,9.5,9.5C188.8,145.9,188.2,146.4,187.5,146.4z"/>
					</g>
				</g>
			</g>
		</g>
		<g>
			<g>
				<path class="st2" d="M118.2,143.2h-42c-3,0-5.5-2.5-5.5-5.5V90c0-0.7,0.6-1.2,1.2-1.2s1.2,0.6,1.2,1.2v47.7c0,1.7,1.3,3,3,3
					h41.5L129,128v-7c0-0.7,0.6-1.2,1.2-1.2s1.2,0.6,1.2,1.2v7.5c0,0.3-0.1,0.6-0.3,0.8l-12.1,13.5
					C118.9,143.1,118.6,143.2,118.2,143.2z"/>
			</g>
			<g>
				<path class="st2" d="M71.9,94.4c-0.7,0-1.2-0.6-1.2-1.2v-31c0-3,2.5-5.5,5.5-5.5H126c3,0,5.5,2.5,5.5,5.5v22.6
					c0,0.7-0.6,1.2-1.2,1.2s-1.2-0.6-1.2-1.2V62.2c0-1.7-1.3-3-3-3H76.2c-1.7,0-3,1.3-3,3v31C73.2,93.9,72.6,94.4,71.9,94.4z"/>
			</g>
			<g>
				<path class="st2" d="M117.2,142.8c-0.7,0-1.2-0.6-1.2-1.2v-8.8c0-3,2.5-5.5,5.5-5.5h8.8c0.7,0,1.2,0.6,1.2,1.2s-0.6,1.2-1.2,1.2
					h-8.8c-1.7,0-3,1.3-3,3v8.8C118.5,142.2,117.9,142.8,117.2,142.8z"/>
			</g>
			<g>
				<path class="st2" d="M109.5,78.9H79.9c-0.6,0-1.2-0.5-1.2-1.2s0.5-1.2,1.2-1.2h29.6c0.6,0,1.2,0.5,1.2,1.2
					S110.1,78.9,109.5,78.9z"/>
			</g>
			<g>
				<path class="st2" d="M109.5,71.8H79.9c-0.6,0-1.2-0.5-1.2-1.2s0.5-1.2,1.2-1.2h29.6c0.6,0,1.2,0.5,1.2,1.2
					S110.1,71.8,109.5,71.8z"/>
			</g>
			<g>
				<path class="st2" d="M107.7,86H79.9c-0.6,0-1.2-0.5-1.2-1.2s0.5-1.2,1.2-1.2h27.8c0.6,0,1.2,0.5,1.2,1.2S108.4,86,107.7,86z"/>
			</g>
			<g>
				<path class="st2" d="M106,93H79.9c-0.6,0-1.2-0.5-1.2-1.2s0.5-1.2,1.2-1.2H106c0.6,0,1.2,0.5,1.2,1.2S106.6,93,106,93z"/>
			</g>
			<g>
				<path class="st2" d="M102.4,100.1H79.9c-0.6,0-1.2-0.5-1.2-1.2s0.5-1.2,1.2-1.2h22.5c0.6,0,1.2,0.5,1.2,1.2
					S103.1,100.1,102.4,100.1z"/>
			</g>
			<g>
				<path class="st2" d="M96.3,107.1H79.9c-0.6,0-1.2-0.5-1.2-1.2s0.5-1.2,1.2-1.2h16.4c0.6,0,1.2,0.5,1.2,1.2
					S96.9,107.1,96.3,107.1z"/>
			</g>
		</g>
		<g>
			<path class="st2" d="M130.3,121.6c-10,0-18.2-8.2-18.2-18.2s8.2-18.2,18.2-18.2s18.2,8.2,18.2,18.2S140.3,121.6,130.3,121.6z
				 M130.3,87.5c-8.7,0-15.9,7.1-15.9,15.9c0,8.7,7.1,15.9,15.9,15.9s15.9-7.1,15.9-15.9C146.1,94.7,139,87.5,130.3,87.5z"/>
		</g>
	</g>
	<g>
		<path class="st2" d="M100,172.7c-1,0-1.9,0-2.9-0.1c-40.1-1.6-71.4-35.5-69.8-75.5c0.8-19.4,9-37.4,23.3-50.5
			c14.3-13.2,32.8-20,52.2-19.2c19.4,0.8,37.4,9,50.5,23.3s20,32.8,19.2,52.2l0,0C171.1,142,138.8,172.7,100,172.7z M99.9,31.3
			c-17.3,0-33.8,6.4-46.6,18.2C39.9,62,32.1,78.9,31.3,97.3c-0.7,18.3,5.7,35.9,18.2,49.3c12.5,13.5,29.4,21.3,47.8,22
			c37.8,1.5,69.9-28.1,71.4-65.9l2,0.1l-2-0.1c0.7-18.3-5.7-35.9-18.2-49.3c-12.5-13.5-29.4-21.3-47.8-22
			C101.8,31.3,100.9,31.3,99.9,31.3z"/>
	</g>
</g>
</svg>
