<?xml version="1.0" encoding="UTF-8"?>
<svg id="Layer_2" data-name="Layer 2" xmlns="http://www.w3.org/2000/svg" xmlns:xlink="http://www.w3.org/1999/xlink" viewBox="0 0 150 150">
  <defs>
    <style>
      .cls-1, .cls-2 {
        fill: none;
      }

      .cls-3 {
        fill: #0067fc;
      }

      .cls-2 {
        clip-path: url(#clippath);
      }
    </style>
    <clipPath id="clippath">
      <rect class="cls-1" width="150" height="150"/>
    </clipPath>
  </defs>
  <g id="Layer_1-2" data-name="Layer 1">
    <g class="cls-2">
      <g>
        <path class="cls-3" d="m116.74,128.05c-1.32,0-2.61-.09-3.88-.25v12.05c0,1.09-.89,1.98-1.98,1.98H10.9c-1.09,0-1.98-.89-1.98-1.98V10.16c0-1.09.89-1.98,1.98-1.98h99.98c1.09,0,1.98.89,1.98,1.98v56.29c1.27-.16,2.57-.25,3.88-.25,1.2,0,2.38.08,3.54.21V4.71c0-2.19-1.77-3.96-3.96-3.96H5.45c-2.19,0-3.96,1.77-3.96,3.96v140.57c0,2.19,1.77,3.96,3.96,3.96h110.87c2.19,0,3.96-1.77,3.96-3.96v-17.45c-1.16.13-2.34.21-3.54.21Z"/>
        <path class="cls-3" d="m116.74,65.16c-17.54,0-31.77,14.22-31.77,31.77s14.22,31.77,31.77,31.77,31.77-14.22,31.77-31.77-14.22-31.77-31.77-31.77Zm0,58.08c-14.53,0-26.32-11.78-26.32-26.32s11.78-26.31,26.32-26.31,26.31,11.78,26.31,26.31-11.78,26.32-26.31,26.32Z"/>
        <path class="cls-3" d="m134.46,108.3c-1.05-7.26-6.46-13.11-13.49-14.81,2.48-1.45,4.14-4.14,4.14-7.22,0-4.62-3.75-8.37-8.37-8.37s-8.37,3.75-8.37,8.37c0,3.08,1.67,5.76,4.14,7.22-7.03,1.7-12.44,7.55-13.49,14.81-.2,1.37.87,2.6,2.25,2.6h30.93c1.38,0,2.45-1.23,2.25-2.6Z"/>
        <g>
          <path class="cls-3" d="m96.66,33l-12.68-12.68c-.43-.43-1.18-.13-1.18.49v4.52c0,.18.07.36.2.49l5.67,5.67h-47.23c-.38,0-.69.31-.69.69v2.62c0,.38.31.69.69.69h47.23l-5.67,5.67c-.13.13-.2.3-.2.49v4.52c0,.61.74.92,1.18.49l12.68-12.68c.27-.27.27-.71,0-.98Z"/>
          <path class="cls-3" d="m25.11,63.37l12.68-12.68c.43-.43,1.18-.13,1.18.49v4.52c0,.18-.07.36-.2.49l-5.67,5.67h47.23c.38,0,.69.31.69.69v2.62c0,.38-.31.69-.69.69h-47.23l5.67,5.67c.13.13.2.3.2.49v4.52c0,.61-.74.92-1.18.49l-12.68-12.68c-.27-.27-.27-.71,0-.98Z"/>
        </g>
        <path class="cls-3" d="m21.77,100.16v5.52h56.37c-.41-1.8-.69-3.64-.84-5.52H21.77Z"/>
        <path class="cls-3" d="m86.27,122.16c-1.43-1.72-2.72-3.56-3.84-5.52H21.77v5.52h64.5Z"/>
      </g>
    </g>
  </g>
</svg>