<?xml version="1.0" encoding="utf-8"?>
<!-- Generator: Adobe Illustrator 26.3.1, SVG Export Plug-In . SVG Version: 6.00 Build 0)  -->
<svg version="1.1" id="Layer_1" xmlns="http://www.w3.org/2000/svg" xmlns:xlink="http://www.w3.org/1999/xlink" x="0px" y="0px"
	 viewBox="0 0 200 200" style="enable-background:new 0 0 200 200;" xml:space="preserve">
<style type="text/css">
	.st0{fill:#0067FC;}
</style>
<g>
	<g>
		<g>
			<g id="Group_263_00000029766259558694828030000014659805741057247423_" transform="translate(-598.5 -520.001)">
				<g id="Group_259_00000057850101896297741010000013500033260225728694_" transform="translate(549.903 487.744)">
					<g id="Ellipse_9_00000095332859302425717010000002195085139232703142_">
						<path class="st0" d="M179.3,137.3c-3.5,0-6.3-2.8-6.3-6.3c0-3.5,2.8-6.3,6.3-6.3s6.3,2.8,6.3,6.3
							C185.6,134.5,182.8,137.3,179.3,137.3z M179.3,127.2c-2.1,0-3.8,1.7-3.8,3.8s1.7,3.8,3.8,3.8s3.8-1.7,3.8-3.8
							S181.4,127.2,179.3,127.2z"/>
					</g>
					<g id="Path_16_00000098932140040781888860000006688070375904646540_">
						<path class="st0" d="M187.5,147c-0.7,0-1.2-0.6-1.2-1.2c0-3.9-3.1-7-7-7s-7,3.1-7,7c0,0.7-0.6,1.2-1.2,1.2s-1.2-0.6-1.2-1.2
							c0-5.2,4.3-9.5,9.5-9.5s9.5,4.3,9.5,9.5C188.8,146.4,188.2,147,187.5,147z"/>
					</g>
				</g>
			</g>
		</g>
		<g>
			<path class="st0" d="M118.2,143.8h-42c-3,0-5.5-2.5-5.5-5.5V90.5c0-0.7,0.6-1.2,1.2-1.2s1.2,0.6,1.2,1.2v47.7c0,1.7,1.3,3,3,3
				h41.5l11.4-12.8v-7c0-0.7,0.6-1.2,1.2-1.2s1.2,0.6,1.2,1.2v7.4c0,0.3-0.1,0.6-0.3,0.8l-12.1,13.5
				C118.9,143.6,118.6,143.8,118.2,143.8z"/>
		</g>
		<g>
			<path class="st0" d="M71.9,95c-0.7,0-1.2-0.6-1.2-1.2v-31c0-3,2.5-5.5,5.5-5.5H126c3,0,5.5,2.5,5.5,5.5v22.6
				c0,0.7-0.6,1.2-1.2,1.2s-1.2-0.6-1.2-1.2V62.8c0-1.7-1.3-3-3-3H76.2c-1.7,0-3,1.3-3,3v31C73.2,94.4,72.6,95,71.9,95z"/>
		</g>
		<g>
			<path class="st0" d="M117.2,143.3c-0.7,0-1.2-0.6-1.2-1.2v-8.8c0-3,2.5-5.5,5.5-5.5h8.8c0.7,0,1.2,0.6,1.2,1.2s-0.6,1.2-1.2,1.2
				h-8.8c-1.7,0-3,1.3-3,3v8.8C118.5,142.8,117.9,143.3,117.2,143.3z"/>
		</g>
		<g>
			<path class="st0" d="M130.3,122.1c-10,0-18.2-8.2-18.2-18.2c0-10,8.2-18.2,18.2-18.2s18.2,8.2,18.2,18.2
				C148.5,114,140.3,122.1,130.3,122.1z M130.3,88.1c-8.7,0-15.9,7.1-15.9,15.9c0,8.7,7.1,15.9,15.9,15.9s15.9-7.1,15.9-15.9
				C146.1,95.2,139,88.1,130.3,88.1z"/>
		</g>
		<g>
			<path class="st0" d="M110.4,110.7H90c-0.7,0-1.2-0.6-1.2-1.2s0.6-1.2,1.2-1.2h20.4c0.7,0,1.2,0.6,1.2,1.2
				S111.1,110.7,110.4,110.7z"/>
		</g>
		<g>
			<path class="st0" d="M110.4,117.7H90c-0.7,0-1.2-0.6-1.2-1.2s0.6-1.2,1.2-1.2h20.4c0.7,0,1.2,0.6,1.2,1.2
				S111.1,117.7,110.4,117.7z"/>
		</g>
		<g>
			<path class="st0" d="M107,124.8H90c-0.7,0-1.2-0.6-1.2-1.2s0.6-1.2,1.2-1.2h17c0.7,0,1.2,0.6,1.2,1.2S107.7,124.8,107,124.8z"/>
		</g>
		<g>
			<path class="st0" d="M83.1,112.1L83.1,112.1c-0.3,0-0.6-0.1-0.9-0.4l-1.4-1.4c-0.5-0.5-0.5-1.3,0-1.8s1.3-0.5,1.8,0l0.5,0.5
				l1.9-1.9c0.5-0.5,1.3-0.5,1.8,0s0.5,1.3,0,1.8l-2.8,2.8C83.7,112,83.4,112.1,83.1,112.1z"/>
		</g>
		<g>
			<path class="st0" d="M83.1,119.1L83.1,119.1c-0.3,0-0.6-0.1-0.9-0.4l-1.4-1.4c-0.5-0.5-0.5-1.3,0-1.8s1.3-0.5,1.8,0l0.5,0.5
				l1.9-1.9c0.5-0.5,1.3-0.5,1.8,0s0.5,1.3,0,1.8l-2.8,2.8C83.7,119,83.4,119.1,83.1,119.1z"/>
		</g>
		<g>
			<path class="st0" d="M83.1,125.6c-0.3,0-0.6-0.1-0.9-0.4l-1.4-1.4c-0.5-0.5-0.5-1.3,0-1.8c0.5-0.5,1.3-0.5,1.8,0l0.5,0.5l1.9-1.9
				c0.5-0.5,1.3-0.5,1.8,0s0.5,1.3,0,1.8l-2.8,2.8C83.7,125.5,83.4,125.6,83.1,125.6z"/>
		</g>
		<g>
			<path class="st0" d="M120.9,78.5H81.3c-0.7,0-1.2-0.6-1.2-1.2v-8.9c0-0.7,0.6-1.2,1.2-1.2h39.6c0.7,0,1.2,0.6,1.2,1.2v8.9
				C122.1,77.9,121.6,78.5,120.9,78.5z M82.6,76h37.1v-6.4H82.6V76z"/>
		</g>
		<g>
			<path class="st0" d="M100.7,74H85.2c-0.7,0-1.2-0.6-1.2-1.2s0.6-1.2,1.2-1.2h15.4c0.7,0,1.3,0.6,1.3,1.2S101.4,74,100.7,74z"/>
		</g>
		<g>
			<path class="st0" d="M111.3,93.1H81.3c-0.7,0-1.2-0.6-1.2-1.2v-8.9c0-0.7,0.6-1.2,1.2-1.2h29.9c0.7,0,1.2,0.6,1.2,1.2v8.9
				C112.5,92.6,111.9,93.1,111.3,93.1z M82.6,90.6H110v-6.4H82.6V90.6z"/>
		</g>
		<g>
			<path class="st0" d="M100.7,88.6H85.2c-0.7,0-1.2-0.6-1.2-1.2s0.6-1.2,1.2-1.2h15.4c0.7,0,1.3,0.6,1.3,1.2S101.4,88.6,100.7,88.6
				z"/>
		</g>
	</g>
	<g>
		<path class="st0" d="M100,172.7c-40.1,0-72.7-32.6-72.7-72.7S59.9,27.3,100,27.3s72.7,32.6,72.7,72.7S140.1,172.7,100,172.7z
			 M100,31.3c-37.9,0-68.7,30.8-68.7,68.7c0,37.9,30.8,68.7,68.7,68.7c37.9,0,68.7-30.8,68.7-68.7C168.7,62.1,137.9,31.3,100,31.3z"
			/>
	</g>
</g>
</svg>
