<?xml version="1.0" encoding="utf-8"?>
<!-- Generator: Adobe Illustrator 26.3.1, SVG Export Plug-In . SVG Version: 6.00 Build 0)  -->
<svg version="1.1" id="Layer_1" xmlns="http://www.w3.org/2000/svg" xmlns:xlink="http://www.w3.org/1999/xlink" x="0px" y="0px"
	 viewBox="0 0 200 200" style="enable-background:new 0 0 200 200;" xml:space="preserve">
<style type="text/css">
	.st0{fill:#0067FC;}
</style>
<g>
	<g>
		<g>
			<g>
				<path class="st0" d="M100,102.1c-9.1,0-16.6-7.4-16.6-16.6s7.4-16.6,16.6-16.6c9.1,0,16.6,7.4,16.6,16.6S109.1,102.1,100,102.1z
					 M100,71.4c-7.8,0-14.1,6.3-14.1,14.1s6.3,14.1,14.1,14.1s14.1-6.3,14.1-14.1S107.8,71.4,100,71.4z"/>
			</g>
		</g>
		<g id="Group_263_00000156562298360490758870000001751504762776068783_" transform="translate(-598.5 -520.001)">
			<g id="Group_259_00000157285019538160266600000006749721414963694763_" transform="translate(549.903 487.744)">
				<g id="Ellipse_9_00000151544469948205122280000006896669878054393525_">
					<path class="st0" d="M148.6,117.8c-2.6,0-4.8-2.1-4.8-4.8c0-2.6,2.1-4.8,4.8-4.8c2.6,0,4.8,2.1,4.8,4.8
						C153.4,115.6,151.2,117.8,148.6,117.8z M148.6,110.7c-1.3,0-2.3,1-2.3,2.3c0,1.3,1,2.3,2.3,2.3c1.3,0,2.3-1,2.3-2.3
						C150.9,111.7,149.9,110.7,148.6,110.7z"/>
				</g>
				<g id="Path_16_00000105405992061840422890000003869912523273771193_">
					<path class="st0" d="M154.3,127.4c-0.7,0-1.2-0.6-1.2-1.2c0-2.5-2-4.5-4.5-4.5c-2.5,0-4.5,2-4.5,4.5c0,0.7-0.6,1.2-1.2,1.2
						s-1.2-0.6-1.2-1.2c0-3.9,3.1-7,7-7s7,3.1,7,7C155.6,126.8,155,127.4,154.3,127.4z"/>
				</g>
			</g>
		</g>
	</g>
	<g>
		<g>
			<g>
				<path class="st0" d="M117.1,143.3h-42c-3,0-5.5-2.5-5.5-5.5V62.3c0-3,2.5-5.5,5.5-5.5h49.8c3,0,5.5,2.5,5.5,5.5v66.3
					c0,0.3-0.1,0.6-0.3,0.8L118,142.9C117.8,143.2,117.5,143.3,117.1,143.3z M72.1,93.2v44.6c0,1.7,1.3,3,3,3h41.5l11.4-12.8V62.3
					c0-1.7-1.3-3-3-3H75.1c-1.7,0-3,1.3-3,3V93.2z"/>
			</g>
			<g>
				<path class="st0" d="M116.1,142.9c-0.7,0-1.2-0.6-1.2-1.2v-8.8c0-3,2.5-5.5,5.5-5.5h8.8c0.7,0,1.2,0.6,1.2,1.2s-0.6,1.2-1.2,1.2
					h-8.8c-1.7,0-3,1.3-3,3v8.8C117.4,142.3,116.8,142.9,116.1,142.9z"/>
			</g>
		</g>
		<g>
			<g>
				<path class="st0" d="M117.7,113.2h-27c-0.7,0-1.2-0.6-1.2-1.2s0.6-1.2,1.2-1.2h27c0.7,0,1.2,0.6,1.2,1.2
					S118.4,113.2,117.7,113.2z"/>
			</g>
			<g>
				<path class="st0" d="M117.7,120.3h-27c-0.7,0-1.2-0.6-1.2-1.2s0.6-1.2,1.2-1.2h27c0.7,0,1.2,0.6,1.2,1.2
					S118.4,120.3,117.7,120.3z"/>
			</g>
			<g>
				<path class="st0" d="M107.7,127.3h-17c-0.7,0-1.2-0.6-1.2-1.2s0.6-1.2,1.2-1.2h17c0.7,0,1.2,0.6,1.2,1.2
					S108.4,127.3,107.7,127.3z"/>
			</g>
			<g>
				<path class="st0" d="M83.7,114.6c-0.3,0-0.6-0.1-0.9-0.4l-1.4-1.4c-0.5-0.5-0.5-1.3,0-1.8s1.3-0.5,1.8,0l0.5,0.5l1.9-1.9
					c0.5-0.5,1.3-0.5,1.8,0s0.5,1.3,0,1.8l-2.8,2.8C84.4,114.5,84,114.6,83.7,114.6z"/>
			</g>
			<g>
				<path class="st0" d="M83.7,121.7c-0.3,0-0.6-0.1-0.9-0.4l-1.4-1.4c-0.5-0.5-0.5-1.3,0-1.8c0.5-0.5,1.3-0.5,1.8,0l0.5,0.5
					l1.9-1.9c0.5-0.5,1.3-0.5,1.8,0s0.5,1.3,0,1.8l-2.8,2.8C84.4,121.5,84,121.7,83.7,121.7z"/>
			</g>
			<g>
				<path class="st0" d="M83.7,128.1c-0.3,0-0.6-0.1-0.9-0.4l-1.4-1.4c-0.5-0.5-0.5-1.3,0-1.8c0.5-0.5,1.3-0.5,1.8,0l0.5,0.5
					l1.9-1.9c0.5-0.5,1.3-0.5,1.8,0s0.5,1.3,0,1.8l-2.8,2.8C84.4,128,84,128.1,83.7,128.1z"/>
			</g>
		</g>
	</g>
	<g>
		<path class="st0" d="M100,172.7c-1,0-1.9,0-2.9-0.1c-40.1-1.6-71.4-35.5-69.8-75.5c1.6-40.1,35.5-71.4,75.5-69.8
			c40.1,1.6,71.4,35.5,69.8,75.5C171.1,142,138.8,172.7,100,172.7z M100,31.3c-36.6,0-67.2,29.1-68.6,66
			c-1.5,37.9,28.1,69.9,65.9,71.4c18.4,0.7,35.9-5.7,49.3-18.2c13.5-12.5,21.3-29.4,22-47.8c1.5-37.9-28.1-69.9-65.9-71.4
			C101.8,31.3,100.9,31.3,100,31.3z"/>
	</g>
</g>
</svg>
