<?xml version="1.0" encoding="utf-8"?>
<!-- Generator: Adobe Illustrator 26.3.1, SVG Export Plug-In . SVG Version: 6.00 Build 0)  -->
<svg version="1.1" id="Layer_1" xmlns="http://www.w3.org/2000/svg" xmlns:xlink="http://www.w3.org/1999/xlink" x="0px" y="0px"
	 viewBox="0 0 200 200" style="enable-background:new 0 0 200 200;" xml:space="preserve">
<style type="text/css">
	.st0{fill:none;stroke:#0067FC;stroke-width:4;stroke-linecap:round;stroke-linejoin:round;stroke-miterlimit:10;}
	.st1{fill:#0067FC;}
</style>
<g>
	<g>
		<path class="st0" d="M108.4,88.7"/>
	</g>
	<g>
		<path class="st1" d="M121,85.2H79c-1.1,0-2-0.9-2-2s0.9-2,2-2H121c1.1,0,2,0.9,2,2S122.1,85.2,121,85.2z"/>
	</g>
	<g>
		<path class="st1" d="M108.9,97.3c-0.5,0-1-0.2-1.4-0.6c-0.8-0.8-0.8-2,0-2.8l10.7-10.7l-10.4-10.4c-0.8-0.8-0.8-2,0-2.8
			c0.8-0.8,2-0.8,2.8,0l11.8,11.8c0.4,0.4,0.6,0.9,0.6,1.4s-0.2,1-0.6,1.4l-12.1,12.1C109.9,97.1,109.4,97.3,108.9,97.3z"/>
	</g>
	<g>
		<path class="st0" d="M91.6,111.3"/>
	</g>
	<g>
		<path class="st1" d="M121,118.8H79c-1.1,0-2-0.9-2-2s0.9-2,2-2H121c1.1,0,2,0.9,2,2S122.1,118.8,121,118.8z"/>
	</g>
	<g>
		<path class="st1" d="M90.9,130.7c-0.5,0-1-0.2-1.4-0.6l-11.8-11.8c-0.8-0.8-0.8-2,0-2.8l12.1-12.1c0.8-0.8,2-0.8,2.8,0
			s0.8,2,0,2.8l-10.7,10.7l10.4,10.4c0.8,0.8,0.8,2,0,2.8C91.9,130.5,91.4,130.7,90.9,130.7z"/>
	</g>
</g>
<g>
	<path class="st1" d="M100,172.7c-1,0-1.9,0-2.9-0.1c-40.1-1.6-71.4-35.5-69.8-75.5c0.8-19.4,9-37.4,23.3-50.5
		c14.3-13.2,32.8-20,52.2-19.2c19.4,0.8,37.4,9,50.5,23.3s20,32.8,19.2,52.2l0,0C171.1,142,138.8,172.7,100,172.7z M99.9,31.3
		c-17.3,0-33.8,6.4-46.6,18.2C39.9,62,32.1,78.9,31.3,97.3c-0.7,18.3,5.7,35.9,18.2,49.3c12.5,13.5,29.4,21.3,47.8,22
		c37.8,1.5,69.9-28.1,71.4-65.9l2,0.1l-2-0.1c0.7-18.3-5.7-35.9-18.2-49.3c-12.5-13.5-29.4-21.3-47.8-22
		C101.8,31.3,100.9,31.3,99.9,31.3z"/>
</g>
</svg>
