<?xml version="1.0" encoding="UTF-8"?>
<svg id="Layer_2" data-name="Layer 2" xmlns="http://www.w3.org/2000/svg" viewBox="0 0 150 150">
  <defs>
    <style>
      .cls-1 {
        fill: #0067fc;
      }
    </style>
  </defs>
  <g id="Layer_1-2" data-name="Layer 1">
    <g>
      <g>
        <path class="cls-1" d="m107.73,109.25c-.85,0-1.68-.06-2.51-.16v7.78c0,.71-.57,1.28-1.28,1.28H39.39c-.71,0-1.28-.57-1.28-1.28V33.13c0-.71.57-1.28,1.28-1.28h64.56c.71,0,1.28.57,1.28,1.28v36.34c.82-.1,1.66-.16,2.51-.16.77,0,1.54.05,2.29.13V29.62c0-1.41-1.14-2.56-2.56-2.56H35.88c-1.41,0-2.56,1.14-2.56,2.56v90.76c0,1.41,1.14,2.56,2.56,2.56h71.59c1.41,0,2.56-1.14,2.56-2.56v-11.27c-.75.09-1.51.13-2.29.13Z"/>
        <path class="cls-1" d="m107.73,68.65c-11.33,0-20.51,9.18-20.51,20.51s9.18,20.51,20.51,20.51,20.51-9.18,20.51-20.51-9.18-20.51-20.51-20.51Zm0,37.5c-9.38,0-16.99-7.61-16.99-16.99s7.61-16.99,16.99-16.99,16.99,7.61,16.99,16.99-7.61,16.99-16.99,16.99Z"/>
        <path class="cls-1" d="m119.18,96.5c-.68-4.69-4.17-8.46-8.71-9.56,1.6-.94,2.67-2.67,2.67-4.66,0-2.99-2.42-5.4-5.4-5.4s-5.4,2.42-5.4,5.4c0,1.99,1.08,3.72,2.67,4.66-4.54,1.1-8.03,4.87-8.71,9.56-.13.88.56,1.68,1.46,1.68h19.97c.89,0,1.58-.79,1.46-1.68Z"/>
        <g>
          <path class="cls-1" d="m94.77,47.88l-8.19-8.19c-.28-.28-.76-.08-.76.32v2.92c0,.12.05.23.13.32l3.66,3.66h-30.5c-.25,0-.45.2-.45.45v1.69c0,.25.2.45.45.45h30.5l-3.66,3.66c-.08.08-.13.2-.13.32v2.92c0,.4.48.6.76.32l8.19-8.19c.17-.17.17-.46,0-.63Z"/>
          <path class="cls-1" d="m48.57,67.49l8.19-8.19c.28-.28.76-.08.76.32v2.92c0,.12-.05.23-.13.32l-3.66,3.66h30.5c.25,0,.45.2.45.45v1.69c0,.25-.2.45-.45.45h-30.5l3.66,3.66c.08.08.13.2.13.32v2.92c0,.4-.48.6-.76.32l-8.19-8.19c-.17-.17-.17-.46,0-.63Z"/>
        </g>
        <path class="cls-1" d="m46.42,91.25v3.56h36.4c-.26-1.16-.44-2.35-.54-3.56h-35.86Z"/>
        <path class="cls-1" d="m88.06,105.45c-.92-1.11-1.76-2.3-2.48-3.56h-39.16v3.56h41.64Z"/>
      </g>
      <path class="cls-1" d="m75,0C33.58,0,0,33.58,0,75s33.58,75,75,75,75-33.58,75-75S116.42,0,75,0Zm0,145c-38.66,0-70-31.34-70-70S36.34,5,75,5s70,31.34,70,70-31.34,70-70,70Z"/>
    </g>
  </g>
</svg>