<?xml version="1.0" encoding="utf-8"?>
<!-- Generator: Adobe Illustrator 26.3.1, SVG Export Plug-In . SVG Version: 6.00 Build 0)  -->
<svg version="1.1" id="Layer_1" xmlns="http://www.w3.org/2000/svg" xmlns:xlink="http://www.w3.org/1999/xlink" x="0px" y="0px"
	 viewBox="0 0 200 200" style="enable-background:new 0 0 200 200;" xml:space="preserve">
<style type="text/css">
	.st0{fill:none;stroke:#0067FC;stroke-width:2.5;stroke-linecap:round;stroke-linejoin:round;stroke-miterlimit:10;}
	.st1{fill:#0067FC;}
</style>
<g>
	<g>
		<g>
			<path class="st0" d="M106.6,109.7"/>
		</g>
		<g>
			<path class="st1" d="M116.3,62.9H83.7c-0.7,0-1.2-0.6-1.2-1.2s0.6-1.2,1.2-1.2h32.6c0.7,0,1.2,0.6,1.2,1.2S117,62.9,116.3,62.9z"
				/>
		</g>
		<g>
			<path class="st1" d="M106.9,72.3c-0.3,0-0.6-0.1-0.9-0.4c-0.5-0.5-0.5-1.3,0-1.8l8.5-8.5l-8.3-8.3c-0.5-0.5-0.5-1.3,0-1.8
				c0.5-0.5,1.3-0.5,1.8,0l9.2,9.2c0.5,0.5,0.5,1.3,0,1.8l-9.4,9.4C107.5,72.2,107.2,72.3,106.9,72.3z"/>
		</g>
		<g>
			<path class="st0" d="M93.4,127.3"/>
		</g>
		<g>
			<path class="st1" d="M116.3,132.9H83.7c-0.7,0-1.2-0.6-1.2-1.2s0.6-1.2,1.2-1.2h32.6c0.7,0,1.2,0.6,1.2,1.2
				S117,132.9,116.3,132.9z"/>
		</g>
		<g>
			<path class="st1" d="M92.9,142.1c-0.3,0-0.6-0.1-0.9-0.4l-9.2-9.2c-0.2-0.2-0.4-0.6-0.4-0.9s0.1-0.6,0.4-0.9l9.4-9.4
				c0.5-0.5,1.3-0.5,1.8,0s0.5,1.3,0,1.8l-8.5,8.5l8.3,8.3c0.5,0.5,0.5,1.3,0,1.8C93.5,141.9,93.2,142.1,92.9,142.1z"/>
		</g>
	</g>
	<g>
		<g>
			<g id="Group_263_00000052096502294412141750000001444200154181352882_" transform="translate(-598.5 -520.001)">
				<g id="Group_259_00000129927196534918227800000001029381475749050249_" transform="translate(549.903 487.744)">
					<g id="Ellipse_9_00000163073389120408198130000015632931490750498991_">
						<path class="st1" d="M148.6,134.1c-7,0-12.8-5.7-12.8-12.8c0-7,5.7-12.8,12.8-12.8c7,0,12.8,5.7,12.8,12.8
							C161.3,128.4,155.6,134.1,148.6,134.1z M148.6,111.1c-5.7,0-10.3,4.6-10.3,10.3c0,5.7,4.6,10.3,10.3,10.3s10.3-4.6,10.3-10.3
							C158.8,115.7,154.2,111.1,148.6,111.1z"/>
					</g>
					<g id="Path_16_00000017506718473451339340000010805038828053871007_">
						<path class="st1" d="M167.3,156c-0.7,0-1.2-0.6-1.2-1.2c0-9.7-7.9-17.5-17.5-17.5S131,145,131,154.7c0,0.7-0.6,1.2-1.2,1.2
							s-1.2-0.6-1.2-1.2c0-11,9-20,20-20c11,0,20,9,20,20C168.6,155.4,168,156,167.3,156z"/>
					</g>
				</g>
			</g>
		</g>
		<g>
			<g id="Group_263_00000140010069484404915140000005679643312520360838_" transform="translate(-598.5 -520.001)">
				<g id="Group_259_00000178906333775501536550000004078432603709219204_" transform="translate(549.903 487.744)">
					<g id="Ellipse_9_00000097495467875939843030000005889799671781085081_">
						<path class="st1" d="M178.1,131.7c-5,0-9.1-4.1-9.1-9.1c0-5,4.1-9.1,9.1-9.1s9.1,4.1,9.1,9.1
							C187.2,127.6,183.1,131.7,178.1,131.7z M178.1,116c-3.6,0-6.6,3-6.6,6.6c0,3.6,3,6.6,6.6,6.6c3.6,0,6.6-3,6.6-6.6
							C184.7,119,181.7,116,178.1,116z"/>
					</g>
					<g id="Path_16_00000074438077412239134550000011919971263328724391_">
						<path class="st1" d="M190.8,146.5c-0.7,0-1.2-0.6-1.2-1.2c0-6.3-5.2-11.5-11.5-11.5s-11.5,5.2-11.5,11.5
							c0,0.7-0.6,1.2-1.2,1.2s-1.2-0.6-1.2-1.2c0-7.7,6.3-14,14-14c7.7,0,14,6.3,14,14C192.1,145.9,191.5,146.5,190.8,146.5z"/>
					</g>
				</g>
			</g>
		</g>
		<g>
			<g id="Group_263_00000062900635325247936200000012626734533848660390_" transform="translate(-598.5 -520.001)">
				<g id="Group_259_00000058555719954260578670000018010923556988916628_" transform="translate(549.903 487.744)">
					<g id="Ellipse_9_00000017484435149847469680000006032669696119603887_">
						<path class="st1" d="M119.1,131.7c-5,0-9.1-4.1-9.1-9.1c0-5,4.1-9.1,9.1-9.1s9.1,4.1,9.1,9.1
							C128.2,127.6,124.1,131.7,119.1,131.7z M119.1,116c-3.6,0-6.6,3-6.6,6.6c0,3.6,3,6.6,6.6,6.6s6.6-3,6.6-6.6
							C125.7,119,122.7,116,119.1,116z"/>
					</g>
					<g id="Path_16_00000133504149846978979140000007988316540414992030_">
						<path class="st1" d="M131.8,146.5c-0.7,0-1.2-0.6-1.2-1.2c0-6.3-5.2-11.5-11.5-11.5s-11.5,5.2-11.5,11.5
							c0,0.7-0.6,1.2-1.2,1.2s-1.2-0.6-1.2-1.2c0-7.7,6.3-14,14-14s14,6.3,14,14C133.1,145.9,132.5,146.5,131.8,146.5z"/>
					</g>
				</g>
			</g>
		</g>
	</g>
	<g>
		<path class="st1" d="M100,172.7c-40.1,0-72.7-32.6-72.7-72.7S59.9,27.3,100,27.3s72.7,32.6,72.7,72.7S140.1,172.7,100,172.7z
			 M100,31.3c-37.9,0-68.7,30.8-68.7,68.7c0,37.9,30.8,68.7,68.7,68.7c37.9,0,68.7-30.8,68.7-68.7C168.7,62.1,137.9,31.3,100,31.3z"
			/>
	</g>
</g>
</svg>
