<?xml version="1.0" encoding="utf-8"?>
<!-- Generator: Adobe Illustrator 26.3.1, SVG Export Plug-In . SVG Version: 6.00 Build 0)  -->
<svg version="1.1" id="Layer_1" xmlns="http://www.w3.org/2000/svg" xmlns:xlink="http://www.w3.org/1999/xlink" x="0px" y="0px"
	 viewBox="0 0 200 200" style="enable-background:new 0 0 200 200;" xml:space="preserve">
<style type="text/css">
	.st0{fill:#0067FC;}
</style>
<g>
	<g>
		<path class="st0" d="M100,172.7c-1,0-1.9,0-2.9-0.1c-40.1-1.6-71.4-35.5-69.8-75.5c0.8-19.4,9-37.4,23.3-50.5
			c14.3-13.2,32.8-20,52.2-19.2c19.4,0.8,37.4,9,50.5,23.3s20,32.8,19.2,52.2l0,0C171.1,142,138.8,172.7,100,172.7z M99.9,31.3
			c-17.3,0-33.8,6.4-46.6,18.2C39.9,62,32.1,78.9,31.3,97.3c-0.7,18.3,5.7,35.9,18.2,49.3c12.5,13.5,29.4,21.3,47.8,22
			c37.8,1.5,69.9-28.1,71.4-65.9l2,0.1l-2-0.1c0.7-18.3-5.7-35.9-18.2-49.3c-12.5-13.5-29.4-21.3-47.8-22
			C101.8,31.3,100.9,31.3,99.9,31.3z"/>
	</g>
	<g>
		<path class="st0" d="M135.7,137.7h-71c-1.1,0-2-0.9-2-2v-71c0-1.1,0.9-2,2-2h71c1.1,0,2,0.9,2,2v71
			C137.7,136.8,136.8,137.7,135.7,137.7z M66.6,133.7h67v-67h-67V133.7z"/>
	</g>
	<g>
		<path class="st0" d="M124.8,66.6c-1.1,0-2-0.9-2-2v-7c0-1.1,0.9-2,2-2s2,0.9,2,2v7C126.8,65.7,126,66.6,124.8,66.6z"/>
	</g>
	<g>
		<path class="st0" d="M76.2,66.6c-1.1,0-2-0.9-2-2v-7c0-1.1,0.9-2,2-2s2,0.9,2,2v7C78.2,65.7,77.3,66.6,76.2,66.6z"/>
	</g>
	<g>
		<rect x="74.1" y="88.7" class="st0" width="8.7" height="8.7"/>
	</g>
	<g>
		<rect x="85" y="88.7" class="st0" width="8.7" height="8.7"/>
	</g>
	<g>
		<rect x="96.1" y="88.7" class="st0" width="8.7" height="8.7"/>
	</g>
	<g>
		<rect x="107" y="88.7" class="st0" width="8.7" height="8.7"/>
	</g>
	<g>
		<rect x="117.8" y="88.7" class="st0" width="8.7" height="8.7"/>
	</g>
	<g>
		<rect x="74.1" y="100" class="st0" width="8.7" height="8.7"/>
	</g>
	<g>
		<rect x="85" y="100" class="st0" width="8.7" height="8.7"/>
	</g>
	<g>
		<rect x="96.1" y="100" class="st0" width="8.7" height="8.7"/>
	</g>
	<g>
		<rect x="107" y="100" class="st0" width="8.7" height="8.7"/>
	</g>
	<g>
		<rect x="117.8" y="100" class="st0" width="8.7" height="8.7"/>
	</g>
	<g>
		<rect x="74.1" y="111.3" class="st0" width="8.7" height="8.7"/>
	</g>
	<g>
		<rect x="85" y="111.3" class="st0" width="8.7" height="8.7"/>
	</g>
	<g>
		<rect x="96.1" y="111.3" class="st0" width="8.7" height="8.7"/>
	</g>
	<g>
		<rect x="107" y="111.3" class="st0" width="8.7" height="8.7"/>
	</g>
	<g>
		<rect x="117.8" y="111.3" class="st0" width="8.7" height="8.7"/>
	</g>
	<g>
		<rect x="74.1" y="78" class="st0" width="8.7" height="8.7"/>
	</g>
	<g>
		<rect x="85" y="78" class="st0" width="8.7" height="8.7"/>
	</g>
	<g>
		<rect x="96.1" y="78" class="st0" width="8.7" height="8.7"/>
	</g>
	<g>
		<rect x="107" y="78" class="st0" width="8.7" height="8.7"/>
	</g>
	<g>
		<rect x="117.8" y="78" class="st0" width="8.7" height="8.7"/>
	</g>
</g>
</svg>
