<?xml version="1.0" encoding="utf-8"?>
<!-- Generator: Adobe Illustrator 26.3.1, SVG Export Plug-In . SVG Version: 6.00 Build 0)  -->
<svg version="1.1" id="Layer_1" xmlns="http://www.w3.org/2000/svg" xmlns:xlink="http://www.w3.org/1999/xlink" x="0px" y="0px"
	 viewBox="0 0 200 200" style="enable-background:new 0 0 200 200;" xml:space="preserve">
<style type="text/css">
	.st0{fill:#0067FC;}
	.st1{fill:none;stroke:#0067FC;stroke-width:2.5;stroke-linecap:round;stroke-linejoin:round;stroke-miterlimit:10;}
</style>
<g>
	<g>
		<g>
			<path class="st0" d="M119.2,79c-0.7,0-1.2-0.6-1.2-1.2v-6.1H82.1v6.1c0,0.7-0.6,1.2-1.2,1.2s-1.2-0.6-1.2-1.2v-7.4
				c0-0.7,0.6-1.2,1.2-1.2h38.4c0.7,0,1.2,0.6,1.2,1.2v7.4C120.4,78.4,119.9,79,119.2,79z"/>
		</g>
		<g>
			<path class="st1" d="M101.7,81.9"/>
		</g>
		<g>
			<path class="st0" d="M100,92.5c-0.7,0-1.2-0.6-1.2-1.2V77.9c0-0.7,0.6-1.2,1.2-1.2s1.2,0.6,1.2,1.2v13.4
				C101.2,91.9,100.6,92.5,100,92.5z"/>
		</g>
		<g>
			<path class="st0" d="M106.6,83.9c-0.3,0-0.6-0.1-0.9-0.4l-5.8-5.8l-5.7,5.7c-0.5,0.5-1.3,0.5-1.8,0s-0.5-1.3,0-1.8l6.6-6.6
				c0.5-0.5,1.3-0.5,1.8,0l6.7,6.7c0.5,0.5,0.5,1.3,0,1.8C107.2,83.8,106.9,83.9,106.6,83.9z"/>
		</g>
	</g>
	<g>
		<g>
			<path class="st0" d="M118.2,143.3h-42c-3,0-5.5-2.5-5.5-5.5V90c0-0.7,0.6-1.2,1.2-1.2s1.2,0.6,1.2,1.2v47.7c0,1.7,1.3,3,3,3h41.5
				L129,128v-7c0-0.7,0.6-1.2,1.2-1.2s1.2,0.6,1.2,1.2v7.4c0,0.3-0.1,0.6-0.3,0.8l-12.1,13.5C118.9,143.1,118.6,143.3,118.2,143.3z"
				/>
		</g>
		<g>
			<path class="st0" d="M71.9,94.4c-0.7,0-1.2-0.6-1.2-1.2v-31c0-3,2.5-5.5,5.5-5.5H126c3,0,5.5,2.5,5.5,5.5v22.6
				c0,0.7-0.6,1.2-1.2,1.2s-1.2-0.6-1.2-1.2V62.2c0-1.7-1.3-3-3-3H76.2c-1.7,0-3,1.3-3,3v31C73.2,93.9,72.6,94.4,71.9,94.4z"/>
		</g>
		<g>
			<path class="st0" d="M117.2,142.8c-0.7,0-1.2-0.6-1.2-1.2v-8.8c0-3,2.5-5.5,5.5-5.5h8.8c0.7,0,1.2,0.6,1.2,1.2s-0.6,1.2-1.2,1.2
				h-8.8c-1.7,0-3,1.3-3,3v8.8C118.5,142.3,117.9,142.8,117.2,142.8z"/>
		</g>
		<g>
			<path class="st0" d="M130.3,121.6c-10,0-18.2-8.2-18.2-18.2c0-10,8.2-18.2,18.2-18.2s18.2,8.2,18.2,18.2
				C148.5,113.5,140.3,121.6,130.3,121.6z M130.3,87.6c-8.7,0-15.9,7.1-15.9,15.9s7.1,15.9,15.9,15.9s15.9-7.1,15.9-15.9
				S139,87.6,130.3,87.6z"/>
		</g>
		<g>
			<path class="st0" d="M128.5,109C128.4,109,128.4,109,128.5,109c-0.4,0-0.7-0.2-0.9-0.4l-3.2-3.7c-0.4-0.5-0.4-1.2,0.1-1.7
				c0.5-0.4,1.2-0.4,1.7,0.1l2.4,2.8l8.8-8.1c0.5-0.4,1.2-0.4,1.7,0.1c0.4,0.5,0.4,1.2-0.1,1.7l-9.7,8.9
				C129,108.9,128.8,109,128.5,109z"/>
		</g>
	</g>
	<g>
		<g id="Group_263_00000070089482750561977870000003208119156370985091_" transform="translate(-598.5 -520.001)">
			<g id="Group_259_00000159456822647887953800000015398327778729901233_" transform="translate(549.903 487.744)">
				<g id="Ellipse_9_00000178897074595013158110000000178565043968184247_">
					<path class="st0" d="M148.6,149.9c-5.1,0-9.2-4.1-9.2-9.2s4.1-9.2,9.2-9.2s9.2,4.1,9.2,9.2S153.7,149.9,148.6,149.9z
						 M148.6,134.1c-3.7,0-6.7,3-6.7,6.7c0,3.7,3,6.7,6.7,6.7c3.7,0,6.7-3,6.7-6.7C155.3,137.1,152.3,134.1,148.6,134.1z"/>
				</g>
				<g id="Path_16_00000007409013948104344660000016482118571032687001_">
					<path class="st0" d="M161.5,165c-0.7,0-1.2-0.6-1.2-1.2c0-6.4-5.2-11.7-11.7-11.7s-11.7,5.2-11.7,11.7c0,0.7-0.6,1.2-1.2,1.2
						s-1.2-0.6-1.2-1.2c0-7.8,6.4-14.2,14.2-14.2c7.8,0,14.2,6.4,14.2,14.2C162.8,164.4,162.2,165,161.5,165z"/>
				</g>
			</g>
		</g>
	</g>
	<g>
		<path class="st0" d="M100,172.7c-40.1,0-72.7-32.6-72.7-72.7S59.9,27.3,100,27.3s72.7,32.6,72.7,72.7S140.1,172.7,100,172.7z
			 M100,31.3c-37.9,0-68.7,30.8-68.7,68.7c0,37.9,30.8,68.7,68.7,68.7c37.9,0,68.7-30.8,68.7-68.7C168.7,62.1,137.9,31.3,100,31.3z"
			/>
	</g>
</g>
</svg>
