<?xml version="1.0" encoding="utf-8"?>
<!-- Generator: Adobe Illustrator 26.3.1, SVG Export Plug-In . SVG Version: 6.00 Build 0)  -->
<svg version="1.1" id="Layer_1" xmlns="http://www.w3.org/2000/svg" xmlns:xlink="http://www.w3.org/1999/xlink" x="0px" y="0px"
	 viewBox="0 0 200 200" style="enable-background:new 0 0 200 200;" xml:space="preserve">
<style type="text/css">
	.st0{fill:#0067FC;}
</style>
<g>
	<g>
		<g>
			<g id="Group_263_00000160873205117039938130000007272705848478639290_" transform="translate(-598.5 -520.001)">
				<g id="Group_259_00000013902526587111235020000007290240258909503645_" transform="translate(549.903 487.744)">
					<g id="Ellipse_9_00000016789276532713156460000009510796173512050857_">
						<path class="st0" d="M148.6,134c-5.6,0-10.1-4.5-10.1-10.1s4.5-10.1,10.1-10.1s10.1,4.5,10.1,10.1S154.2,134,148.6,134z
							 M148.6,116.2c-4.2,0-7.6,3.4-7.6,7.6s3.4,7.6,7.6,7.6c4.2,0,7.6-3.4,7.6-7.6S152.8,116.2,148.6,116.2z"/>
					</g>
					<g id="Path_16_00000053530360812685832860000011857841599535226256_">
						<path class="st0" d="M163,150.8c-0.7,0-1.2-0.6-1.2-1.2c0-7.3-5.9-13.2-13.2-13.2s-13.2,5.9-13.2,13.2c0,0.7-0.6,1.2-1.2,1.2
							s-1.2-0.6-1.2-1.2c0-8.7,7-15.7,15.7-15.7c8.7,0,15.7,7,15.7,15.7C164.3,150.2,163.7,150.8,163,150.8z"/>
					</g>
				</g>
			</g>
		</g>
		<g>
			<g id="Group_263_00000157269886201824404090000015004017506566032038_" transform="translate(-598.5 -520.001)">
				<g id="Group_259_00000148618874513221227540000004814180283414657719_" transform="translate(549.903 487.744)">
					<g id="Ellipse_9_00000065075677074738301970000015818323835357443000_">
						<path class="st0" d="M171.3,132.1c-4,0-7.3-3.3-7.3-7.3c0-4,3.3-7.3,7.3-7.3s7.3,3.3,7.3,7.3
							C178.6,128.8,175.3,132.1,171.3,132.1z M171.3,120c-2.6,0-4.8,2.1-4.8,4.8c0,2.6,2.1,4.8,4.8,4.8s4.8-2.1,4.8-4.8
							C176.1,122.2,173.9,120,171.3,120z"/>
					</g>
					<g id="Path_16_00000132771614557419690520000011310473421084229294_">
						<path class="st0" d="M181.1,143.5c-0.7,0-1.2-0.6-1.2-1.2c0-4.7-3.8-8.6-8.6-8.6c-4.7,0-8.6,3.8-8.6,8.6
							c0,0.7-0.6,1.2-1.2,1.2s-1.2-0.6-1.2-1.2c0-6.1,5-11.1,11.1-11.1c6.1,0,11.1,5,11.1,11.1C182.4,142.9,181.8,143.5,181.1,143.5
							z"/>
					</g>
				</g>
			</g>
		</g>
		<g>
			<g id="Group_263_00000090270732712314768960000003963468016241734273_" transform="translate(-598.5 -520.001)">
				<g id="Group_259_00000066509049609023557400000000381765752584564912_" transform="translate(549.903 487.744)">
					<g id="Ellipse_9_00000152982310713816179040000004021239912854121905_">
						<path class="st0" d="M125.9,132.1c-4,0-7.3-3.3-7.3-7.3c0-4,3.3-7.3,7.3-7.3c4,0,7.3,3.3,7.3,7.3
							C133.2,128.8,129.9,132.1,125.9,132.1z M125.9,120c-2.6,0-4.8,2.1-4.8,4.8c0,2.6,2.1,4.8,4.8,4.8c2.6,0,4.8-2.1,4.8-4.8
							C130.7,122.2,128.5,120,125.9,120z"/>
					</g>
					<g id="Path_16_00000114777522570045537530000007737459705634264254_">
						<path class="st0" d="M135.7,143.5c-0.7,0-1.2-0.6-1.2-1.2c0-4.7-3.8-8.6-8.6-8.6s-8.6,3.8-8.6,8.6c0,0.7-0.6,1.2-1.2,1.2
							s-1.2-0.6-1.2-1.2c0-6.1,5-11.1,11.1-11.1s11.1,5,11.1,11.1C137,142.9,136.4,143.5,135.7,143.5z"/>
					</g>
				</g>
			</g>
		</g>
	</g>
	<g>
		<path class="st0" d="M100,172.7c-40.1,0-72.7-32.6-72.7-72.7S59.9,27.3,100,27.3s72.7,32.6,72.7,72.7S140.1,172.7,100,172.7z
			 M100,31.3c-37.9,0-68.7,30.8-68.7,68.7c0,37.9,30.8,68.7,68.7,68.7c37.9,0,68.7-30.8,68.7-68.7C168.7,62.1,137.9,31.3,100,31.3z"
			/>
	</g>
	<g>
		<path class="st0" d="M100,145.9c-25.3,0-45.9-20.6-45.9-45.9S74.7,54.1,100,54.1c11,0,21.7,4,30.1,11.2c0.5,0.5,0.6,1.2,0.1,1.8
			c-0.5,0.5-1.2,0.6-1.8,0.1c-7.9-6.8-18-10.6-28.4-10.6c-23.9,0-43.4,19.5-43.4,43.4c0,23.9,19.5,43.4,43.4,43.4
			c23.9,0,43.4-19.5,43.4-43.4c0-3.6-0.5-7.2-1.3-10.7c-0.5-2.1-1.2-4.1-2-6.1c-0.3-0.6,0-1.4,0.7-1.6c0.6-0.3,1.4,0,1.6,0.7
			c0.9,2.1,1.6,4.2,2.2,6.4c0.9,3.7,1.4,7.5,1.4,11.3C145.9,125.3,125.3,145.9,100,145.9z"/>
	</g>
	<g>
		<path class="st0" d="M130.3,68.9h-9.5c-0.7,0-1.2-0.6-1.2-1.2s0.6-1.2,1.2-1.2h8.3v-8.1c0-0.7,0.6-1.2,1.2-1.2s1.2,0.6,1.2,1.2
			v9.3C131.6,68.4,131,68.9,130.3,68.9z"/>
	</g>
</g>
</svg>
