<?xml version="1.0" encoding="utf-8"?>
<!-- Generator: Adobe Illustrator 26.3.1, SVG Export Plug-In . SVG Version: 6.00 Build 0)  -->
<svg version="1.1" id="Layer_1" xmlns="http://www.w3.org/2000/svg" xmlns:xlink="http://www.w3.org/1999/xlink" x="0px" y="0px"
	 viewBox="0 0 200 200" style="enable-background:new 0 0 200 200;" xml:space="preserve">
<style type="text/css">
	.st0{fill:#0067FC;}
</style>
<g>
	<g>
		<path class="st0" d="M112.9,122.2H85.3c-0.5,0-0.9-0.4-0.9-0.9v-6.9c0-0.5,0.4-0.9,0.9-0.9h27.6c0.5,0,0.9,0.4,0.9,0.9v6.9
			C113.8,121.8,113.4,122.2,112.9,122.2z M86.2,120.4H112v-5.1H86.2V120.4z"/>
	</g>
	<g>
		<path class="st0" d="M98.8,118.8H88c-0.5,0-0.9-0.4-0.9-0.9s0.4-0.9,0.9-0.9h10.8c0.5,0,0.9,0.4,0.9,0.9S99.3,118.8,98.8,118.8z"
			/>
	</g>
	<g>
		<path class="st0" d="M112.9,133.5H85.3c-0.5,0-0.9-0.4-0.9-0.9v-6.9c0-0.5,0.4-0.9,0.9-0.9h27.6c0.5,0,0.9,0.4,0.9,0.9v6.9
			C113.8,133.1,113.4,133.5,112.9,133.5z M86.2,131.7H112v-5.1H86.2V131.7z"/>
	</g>
	<g>
		<path class="st0" d="M98.8,130.1H88c-0.5,0-0.9-0.4-0.9-0.9s0.4-0.9,0.9-0.9h10.8c0.5,0,0.9,0.4,0.9,0.9S99.3,130.1,98.8,130.1z"
			/>
	</g>
	<g>
		<g>
			<g id="Group_263_00000147923388806208752450000015653229477565706913_" transform="translate(-598.5 -520.001)">
				<g id="Group_259_00000104687573900417650540000009115737984681914287_" transform="translate(549.903 487.744)">
					<g id="Ellipse_9_00000116227300920849788190000006952366639100387757_">
						<path class="st0" d="M179.3,136.8c-3.5,0-6.3-2.8-6.3-6.3c0-3.5,2.8-6.3,6.3-6.3s6.3,2.8,6.3,6.3
							C185.6,134,182.8,136.8,179.3,136.8z M179.3,126.7c-2.1,0-3.8,1.7-3.8,3.8s1.7,3.8,3.8,3.8s3.8-1.7,3.8-3.8
							S181.4,126.7,179.3,126.7z"/>
					</g>
					<g id="Path_16_00000070803005735422786910000000426240127290673299_">
						<path class="st0" d="M187.5,146.4c-0.7,0-1.2-0.6-1.2-1.2c0-3.9-3.1-7-7-7s-7,3.1-7,7c0,0.7-0.6,1.2-1.2,1.2s-1.2-0.6-1.2-1.2
							c0-5.2,4.3-9.5,9.5-9.5s9.5,4.3,9.5,9.5C188.8,145.9,188.2,146.4,187.5,146.4z"/>
					</g>
				</g>
			</g>
		</g>
		<g>
			<path class="st0" d="M118.2,143.3h-42c-3,0-5.5-2.5-5.5-5.5V90c0-0.7,0.6-1.2,1.2-1.2s1.2,0.6,1.2,1.2v47.7c0,1.7,1.3,3,3,3h41.5
				L129,128v-7c0-0.7,0.6-1.2,1.2-1.2s1.2,0.6,1.2,1.2v7.4c0,0.3-0.1,0.6-0.3,0.8l-12.1,13.5C118.9,143.1,118.6,143.3,118.2,143.3z"
				/>
		</g>
		<g>
			<path class="st0" d="M71.9,94.4c-0.7,0-1.2-0.6-1.2-1.2v-31c0-3,2.5-5.5,5.5-5.5H126c3,0,5.5,2.5,5.5,5.5v22.6
				c0,0.7-0.6,1.2-1.2,1.2s-1.2-0.6-1.2-1.2V62.2c0-1.7-1.3-3-3-3H76.2c-1.7,0-3,1.3-3,3v31C73.2,93.9,72.6,94.4,71.9,94.4z"/>
		</g>
		<g>
			<path class="st0" d="M117.2,142.8c-0.7,0-1.2-0.6-1.2-1.2v-8.8c0-3,2.5-5.5,5.5-5.5h8.8c0.7,0,1.2,0.6,1.2,1.2s-0.6,1.2-1.2,1.2
				h-8.8c-1.7,0-3,1.3-3,3v8.8C118.5,142.3,117.9,142.8,117.2,142.8z"/>
		</g>
		<g>
			<path class="st0" d="M130.3,121.6c-10,0-18.2-8.2-18.2-18.2c0-10,8.2-18.2,18.2-18.2s18.2,8.2,18.2,18.2
				C148.5,113.5,140.3,121.6,130.3,121.6z M130.3,87.6c-8.7,0-15.9,7.1-15.9,15.9s7.1,15.9,15.9,15.9s15.9-7.1,15.9-15.9
				S139,87.6,130.3,87.6z"/>
		</g>
	</g>
	<g>
		<g>
			<path class="st0" d="M118.8,78.8h-27c-0.7,0-1.2-0.6-1.2-1.2s0.6-1.2,1.2-1.2h27c0.7,0,1.2,0.6,1.2,1.2S119.5,78.8,118.8,78.8z"
				/>
		</g>
		<g>
			<path class="st0" d="M118.8,85.9h-27c-0.7,0-1.2-0.6-1.2-1.2s0.6-1.2,1.2-1.2h27c0.7,0,1.2,0.6,1.2,1.2S119.5,85.9,118.8,85.9z"
				/>
		</g>
		<g>
			<path class="st0" d="M108.8,92.9h-17c-0.7,0-1.2-0.6-1.2-1.2s0.6-1.2,1.2-1.2h17c0.7,0,1.2,0.6,1.2,1.2S109.5,92.9,108.8,92.9z"
				/>
		</g>
		<g>
			<path class="st0" d="M84.8,80.2L84.8,80.2c-0.3,0-0.6-0.1-0.9-0.4l-1.4-1.4c-0.5-0.5-0.5-1.3,0-1.8c0.5-0.5,1.3-0.5,1.8,0
				l0.5,0.5l1.9-1.9c0.5-0.5,1.3-0.5,1.8,0s0.5,1.3,0,1.8l-2.8,2.8C85.5,80.1,85.2,80.2,84.8,80.2z"/>
		</g>
		<g>
			<path class="st0" d="M84.8,87.3c-0.3,0-0.6-0.1-0.9-0.4l-1.4-1.4c-0.5-0.5-0.5-1.3,0-1.8s1.3-0.5,1.8,0l0.5,0.5l1.9-1.9
				c0.5-0.5,1.3-0.5,1.8,0s0.5,1.3,0,1.8l-2.8,2.8C85.5,87.2,85.2,87.3,84.8,87.3z"/>
		</g>
		<g>
			<path class="st0" d="M84.8,93.7c-0.3,0-0.6-0.1-0.9-0.4L82.5,92c-0.5-0.5-0.5-1.3,0-1.8s1.3-0.5,1.8,0l0.5,0.5l1.9-1.9
				c0.5-0.5,1.3-0.5,1.8,0s0.5,1.3,0,1.8l-2.8,2.8C85.5,93.6,85.2,93.7,84.8,93.7z"/>
		</g>
	</g>
	<g>
		<path class="st0" d="M100,172.7c-1,0-1.9,0-2.9-0.1c-40.1-1.6-71.4-35.5-69.8-75.5c0.8-19.4,9-37.4,23.3-50.5
			c14.3-13.2,32.8-20,52.2-19.2c19.4,0.8,37.4,9,50.5,23.3s20,32.8,19.2,52.2l0,0C171.1,142,138.8,172.7,100,172.7z M99.9,31.3
			c-17.3,0-33.8,6.4-46.6,18.2C39.9,62,32.1,78.9,31.3,97.3c-0.7,18.3,5.7,35.9,18.2,49.3c12.5,13.5,29.4,21.3,47.8,22
			c37.8,1.5,69.9-28.1,71.4-65.9l2,0.1l-2-0.1c0.7-18.3-5.7-35.9-18.2-49.3c-12.5-13.5-29.4-21.3-47.8-22
			C101.8,31.3,100.9,31.3,99.9,31.3z"/>
	</g>
</g>
</svg>
