<?xml version="1.0" encoding="utf-8"?>
<!-- Generator: Adobe Illustrator 26.3.1, SVG Export Plug-In . SVG Version: 6.00 Build 0)  -->
<svg version="1.1" id="Layer_1" xmlns="http://www.w3.org/2000/svg" xmlns:xlink="http://www.w3.org/1999/xlink" x="0px" y="0px"
	 viewBox="0 0 200 200" style="enable-background:new 0 0 200 200;" xml:space="preserve">
<style type="text/css">
	.st0{fill:#0067FC;}
	.st1{fill:none;stroke:#0067FC;stroke-width:2.5;stroke-linecap:round;stroke-linejoin:round;stroke-miterlimit:10;}
</style>
<g>
	<g>
		<g>
			<g id="Group_263_00000142163166546429275400000015210997358977670812_" transform="translate(-598.5 -520.001)">
				<g id="Group_259_00000086688169885191848660000012957110126946958521_" transform="translate(549.903 487.744)">
					<g id="Ellipse_9_00000137811769617249809340000013240722059351861941_">
						<path class="st0" d="M119,130.4c-6.8,0-12.3-5.5-12.3-12.3s5.5-12.3,12.3-12.3c6.8,0,12.3,5.5,12.3,12.3
							S125.8,130.4,119,130.4z M119,109.8c-4.6,0-8.3,3.7-8.3,8.3s3.7,8.3,8.3,8.3c4.6,0,8.3-3.7,8.3-8.3S123.6,109.8,119,109.8z"/>
					</g>
					<g id="Path_16_00000081631530518267215280000004284935008679325103_">
						<path class="st0" d="M135.8,149.8c-1.1,0-2-0.9-2-2c0-8.1-6.6-14.7-14.7-14.7c-8.1,0-14.7,6.6-14.7,14.7c0,1.1-0.9,2-2,2
							s-2-0.9-2-2c0-10.3,8.4-18.7,18.7-18.7c10.3,0,18.7,8.4,18.7,18.7C137.8,148.9,136.9,149.8,135.8,149.8z"/>
					</g>
				</g>
			</g>
		</g>
		<g>
			<g id="Group_263_00000109720993990159753690000005503189293137107076_" transform="translate(-598.5 -520.001)">
				<g id="Group_259_00000103959007107260010690000006717457991697435538_" transform="translate(549.903 487.744)">
					<g id="Ellipse_9_00000159453529213263318350000008252291130951279551_">
						<path class="st0" d="M178.5,130.4c-6.8,0-12.3-5.5-12.3-12.3s5.5-12.3,12.3-12.3c6.8,0,12.3,5.5,12.3,12.3
							S185.3,130.4,178.5,130.4z M178.5,109.8c-4.6,0-8.3,3.7-8.3,8.3s3.7,8.3,8.3,8.3s8.3-3.7,8.3-8.3S183.1,109.8,178.5,109.8z"/>
					</g>
					<g id="Path_16_00000102527417603645091710000005027452822415069577_">
						<path class="st0" d="M195.3,149.8c-1.1,0-2-0.9-2-2c0-8.1-6.6-14.7-14.7-14.7s-14.7,6.6-14.7,14.7c0,1.1-0.9,2-2,2s-2-0.9-2-2
							c0-10.3,8.4-18.7,18.7-18.7s18.7,8.4,18.7,18.7C197.3,148.9,196.4,149.8,195.3,149.8z"/>
					</g>
				</g>
			</g>
		</g>
		<g>
			<path class="st1" d="M97.4,99.6"/>
		</g>
		<g>
			<path class="st0" d="M109.9,99H88.7c-0.7,0-1.2-0.6-1.2-1.2s0.6-1.2,1.2-1.2h21.2c0.7,0,1.2,0.6,1.2,1.2S110.6,99,109.9,99z"/>
		</g>
		<g>
			<path class="st0" d="M105.1,105.7c-0.3,0-0.6-0.1-0.9-0.4c-0.5-0.5-0.5-1.3,0-1.8l5.8-5.8l-5.7-5.7c-0.5-0.5-0.5-1.3,0-1.8
				s1.3-0.5,1.8,0l6.6,6.6c0.2,0.2,0.4,0.6,0.4,0.9s-0.1,0.6-0.4,0.9l-6.7,6.7C105.8,105.5,105.4,105.7,105.1,105.7z"/>
		</g>
		<g>
			<path class="st0" d="M93.7,105.7c-0.3,0-0.6-0.1-0.9-0.4l-6.6-6.6c-0.2-0.2-0.4-0.6-0.4-0.9s0.1-0.6,0.4-0.9l6.7-6.7
				c0.5-0.5,1.3-0.5,1.8,0s0.5,1.3,0,1.8l-5.8,5.8l5.7,5.7c0.5,0.5,0.5,1.3,0,1.8C94.4,105.5,94.1,105.7,93.7,105.7z"/>
		</g>
	</g>
	<g>
		<path class="st0" d="M100,172.7c-1,0-1.9,0-2.9-0.1c-40.1-1.6-71.4-35.5-69.8-75.5c0.8-19.4,9-37.4,23.3-50.5
			c14.3-13.2,32.8-20,52.2-19.2c19.4,0.8,37.4,9,50.5,23.3s20,32.8,19.2,52.2l0,0C171.1,142,138.8,172.7,100,172.7z M99.9,31.3
			c-17.3,0-33.8,6.4-46.6,18.2C39.9,62,32.1,78.9,31.3,97.3c-0.7,18.3,5.7,35.9,18.2,49.3c12.5,13.5,29.4,21.3,47.8,22
			c37.8,1.5,69.9-28.1,71.4-65.9l2,0.1l-2-0.1c0.7-18.3-5.7-35.9-18.2-49.3c-12.5-13.5-29.4-21.3-47.8-22
			C101.8,31.3,100.9,31.3,99.9,31.3z"/>
	</g>
</g>
</svg>
