<?xml version="1.0" encoding="utf-8"?>
<!-- Generator: Adobe Illustrator 26.3.1, SVG Export Plug-In . SVG Version: 6.00 Build 0)  -->
<svg version="1.1" id="Layer_1" xmlns="http://www.w3.org/2000/svg" xmlns:xlink="http://www.w3.org/1999/xlink" x="0px" y="0px"
	 viewBox="0 0 200 200" style="enable-background:new 0 0 200 200;" xml:space="preserve">
<style type="text/css">
	.st0{fill:#0067FC;}
</style>
<g>
	<g>
		<g id="Group_263_00000149351716661486179080000007071079227983905207_" transform="translate(-598.5 -520.001)">
			<g id="Group_259_00000098935895402084221890000006406274260082524854_" transform="translate(549.903 487.744)">
				<g id="Ellipse_9_00000106130694539809961070000010950087031630418109_">
					<path class="st0" d="M148.6,123.9c-8.1,0-14.6-6.6-14.6-14.6s6.6-14.6,14.6-14.6c8.1,0,14.6,6.6,14.6,14.6
						S156.7,123.9,148.6,123.9z M148.6,97.7c-6.4,0-11.6,5.2-11.6,11.6s5.2,11.6,11.6,11.6c6.4,0,11.6-5.2,11.6-11.6
						S155,97.7,148.6,97.7z"/>
				</g>
				<g id="Path_16_00000092458599730581685310000001114158763238122117_">
					<path class="st0" d="M170,148.8c-0.8,0-1.5-0.7-1.5-1.5c0-11-8.9-19.9-19.9-19.9c-11,0-19.9,8.9-19.9,19.9
						c0,0.8-0.7,1.5-1.5,1.5s-1.5-0.7-1.5-1.5c0-12.6,10.3-22.9,22.9-22.9c12.6,0,22.9,10.3,22.9,22.9
						C171.5,148.2,170.8,148.8,170,148.8z"/>
				</g>
			</g>
		</g>
	</g>
	<g>
		<g id="Group_263_00000104665295027696618440000005053683009191077296_" transform="translate(-598.5 -520.001)">
			<g id="Group_259_00000069366979924647973340000013972140486794048398_" transform="translate(549.903 487.744)">
				<g id="Ellipse_9_00000017476579367376530090000017439469720056308107_">
					<path class="st0" d="M182.2,121.1c-5.7,0-10.4-4.7-10.4-10.4s4.7-10.4,10.4-10.4c5.7,0,10.4,4.7,10.4,10.4
						S188,121.1,182.2,121.1z M182.2,103.3c-4.1,0-7.4,3.3-7.4,7.4s3.3,7.4,7.4,7.4c4.1,0,7.4-3.3,7.4-7.4S186.3,103.3,182.2,103.3z
						"/>
				</g>
				<g id="Path_16_00000028289105043487220810000013827242852692901252_">
					<path class="st0" d="M196.8,138c-0.8,0-1.5-0.7-1.5-1.5c0-7.2-5.8-13-13-13s-13,5.8-13,13c0,0.8-0.7,1.5-1.5,1.5
						s-1.5-0.7-1.5-1.5c0-8.8,7.2-16,16-16s16,7.2,16,16C198.3,137.4,197.6,138,196.8,138z"/>
				</g>
			</g>
		</g>
	</g>
	<g>
		<g id="Group_263_00000088109991355029405850000016477136683505317297_" transform="translate(-598.5 -520.001)">
			<g id="Group_259_00000159462910192752209720000009896542705220807047_" transform="translate(549.903 487.744)">
				<g id="Ellipse_9_00000156589240110094166430000016120334019077355433_">
					<path class="st0" d="M115,121.1c-5.7,0-10.4-4.7-10.4-10.4s4.7-10.4,10.4-10.4s10.4,4.7,10.4,10.4S120.8,121.1,115,121.1z
						 M115,103.3c-4.1,0-7.4,3.3-7.4,7.4s3.3,7.4,7.4,7.4s7.4-3.3,7.4-7.4S119.1,103.3,115,103.3z"/>
				</g>
				<g id="Path_16_00000141414567669519083790000005460040215609526699_">
					<path class="st0" d="M129.5,138c-0.8,0-1.5-0.7-1.5-1.5c0-7.2-5.8-13-13-13c-7.2,0-13,5.8-13,13c0,0.8-0.7,1.5-1.5,1.5
						s-1.5-0.7-1.5-1.5c0-8.8,7.2-16,16-16s16,7.2,16,16C131,137.4,130.4,138,129.5,138z"/>
				</g>
			</g>
		</g>
	</g>
	<g>
		<path class="st0" d="M100,151.7c-9.7,0-17.6-7.9-17.6-17.6c0-9.7,7.9-17.6,17.6-17.6c9.7,0,17.6,7.9,17.6,17.6
			C117.6,143.8,109.7,151.7,100,151.7z M100,118.9c-8.4,0-15.1,6.8-15.1,15.1s6.8,15.1,15.1,15.1s15.1-6.8,15.1-15.1
			S108.4,118.9,100,118.9z"/>
	</g>
	<g>
		<path class="st0" d="M100,172.7c-1,0-1.9,0-2.9-0.1c-40.1-1.6-71.4-35.5-69.8-75.5c0.8-19.4,9-37.4,23.3-50.5
			c14.3-13.2,32.8-20,52.2-19.2c19.4,0.8,37.4,9,50.5,23.3s20,32.8,19.2,52.2l0,0C171.1,142,138.8,172.7,100,172.7z M99.9,31.3
			c-17.3,0-33.8,6.4-46.6,18.2C39.9,62,32.1,78.9,31.3,97.3c-0.7,18.3,5.7,35.9,18.2,49.3c12.5,13.5,29.4,21.3,47.8,22
			c37.8,1.5,69.9-28.1,71.4-65.9l2,0.1l-2-0.1c0.7-18.3-5.7-35.9-18.2-49.3c-12.5-13.5-29.4-21.3-47.8-22
			C101.8,31.3,100.9,31.3,99.9,31.3z"/>
	</g>
	<g>
		<path class="st0" d="M96.4,140.8c-0.3,0-0.6-0.1-0.8-0.3l-4.6-4.2c-0.5-0.5-0.5-1.3-0.1-1.8c0.5-0.5,1.3-0.5,1.8-0.1l3.7,3.4
			l9.7-10.6c0.5-0.5,1.3-0.5,1.8-0.1s0.5,1.3,0.1,1.8l-10.6,11.5C97.1,140.7,96.8,140.8,96.4,140.8
			C96.4,140.8,96.4,140.8,96.4,140.8z"/>
	</g>
</g>
</svg>
