<?xml version="1.0" encoding="utf-8"?>
<!-- Generator: Adobe Illustrator 26.3.1, SVG Export Plug-In . SVG Version: 6.00 Build 0)  -->
<svg version="1.1" id="Layer_1" xmlns="http://www.w3.org/2000/svg" xmlns:xlink="http://www.w3.org/1999/xlink" x="0px" y="0px"
	 viewBox="0 0 200 200" style="enable-background:new 0 0 200 200;" xml:space="preserve">
<style type="text/css">
	.st0{fill:#0067FC;}
</style>
<g>
	<g>
		<path class="st0" d="M100,172.7c-1,0-1.9,0-2.9-0.1c-40.1-1.6-71.4-35.5-69.8-75.5c0.8-19.4,9-37.4,23.3-50.5
			c14.3-13.2,32.8-20,52.2-19.2c19.4,0.8,37.4,9,50.5,23.3s20,32.8,19.2,52.2l0,0C171.1,142,138.8,172.7,100,172.7z M99.9,31.3
			c-17.3,0-33.8,6.4-46.6,18.2C39.9,62,32.1,78.9,31.3,97.3c-0.7,18.3,5.7,35.9,18.2,49.3c12.5,13.5,29.4,21.3,47.8,22
			c37.8,1.5,69.9-28.1,71.4-65.9l2,0.1l-2-0.1c0.7-18.3-5.7-35.9-18.2-49.3c-12.5-13.5-29.4-21.3-47.8-22
			C101.8,31.3,100.9,31.3,99.9,31.3z"/>
	</g>
	<g>
		<g>
			<g id="Group_263_00000024686983430959221660000015164030090538802051_" transform="translate(-598.5 -520.001)">
				<g id="Group_259_00000024691778530827177790000004801035458409693589_" transform="translate(549.903 487.744)">
					<g id="Ellipse_9_00000007418795425276511210000015729978418467509929_">
						<path class="st0" d="M132.4,134.4c-8.1,0-14.6-6.6-14.6-14.6s6.6-14.6,14.6-14.6s14.6,6.6,14.6,14.6S140.5,134.4,132.4,134.4z
							 M132.4,108.2c-6.4,0-11.6,5.2-11.6,11.6s5.2,11.6,11.6,11.6s11.6-5.2,11.6-11.6S138.8,108.2,132.4,108.2z"/>
					</g>
					<g id="Path_16_00000134946043338867325840000004021648308721384872_">
						<path class="st0" d="M153.8,159.3c-0.8,0-1.5-0.7-1.5-1.5c0-11-8.9-19.9-19.9-19.9s-19.9,8.9-19.9,19.9c0,0.8-0.7,1.5-1.5,1.5
							s-1.5-0.7-1.5-1.5c0-12.6,10.3-22.9,22.9-22.9s22.9,10.3,22.9,22.9C155.3,158.7,154.6,159.3,153.8,159.3z"/>
					</g>
				</g>
			</g>
		</g>
		<g>
			<path d="M116.9,94"/>
		</g>
		<g>
			<g>
				<path class="st0" d="M130.4,123.4c-1.4,0-2.6-0.5-3.6-1.5l-21.7-21.7c-0.3-0.3-0.5-0.8-0.4-1.3l1.9-10.7c0.3-1.7,1.6-3,3.3-3.3
					l10.7-1.9c0.5-0.1,1,0.1,1.3,0.4l21.7,21.7c1,1,1.5,2.2,1.5,3.6s-0.5,2.6-1.5,3.6l-9.6,9.6C133,122.9,131.7,123.4,130.4,123.4z
					 M107.7,98.6l21.2,21.2c0.8,0.8,2.1,0.8,2.9,0l9.6-9.6c0.4-0.4,0.6-0.9,0.6-1.5c0-0.5-0.2-1.1-0.6-1.5l-21.2-21.2l-9.9,1.8
					c-0.4,0.1-0.8,0.4-0.8,0.8L107.7,98.6z"/>
			</g>
			<g>
				<path class="st0" d="M115,97.7c-1.2,0-2.3-0.5-3.1-1.3c-0.8-0.8-1.3-1.9-1.3-3.1s0.5-2.3,1.3-3.1c0.8-0.8,1.9-1.3,3.1-1.3
					s2.3,0.5,3.1,1.3c0,0,0,0,0,0c1.7,1.7,1.7,4.4,0,6.1C117.3,97.3,116.2,97.7,115,97.7z M115,92c-0.4,0-0.7,0.1-1,0.4
					c-0.3,0.3-0.4,0.6-0.4,1s0.1,0.7,0.4,1c0.5,0.5,1.4,0.5,1.9,0c0.5-0.5,0.5-1.4,0-1.9C115.7,92.2,115.4,92,115,92z"/>
			</g>
		</g>
		<g>
			<g>
				<path class="st0" d="M127.1,106.2c1.8,1.8,1.7,3.6,0.6,4.7c-1.1,1.1-2.8,1.1-4.6-0.6c-1.7-1.7-1.7-3.6-0.6-4.7
					C123.8,104.4,125.5,104.5,127.1,106.2z M124,109.4c1.1,1.1,2.3,1.5,3,0.8c0.8-0.8,0.3-1.9-0.8-3c-1-1-2.2-1.6-3-0.8
					C122.5,107.1,123,108.3,124,109.4z M131.2,114.6l-3.8-13.8l0.7-0.7l3.8,13.8L131.2,114.6z M136.2,104.1c1.8,1.8,1.7,3.6,0.7,4.7
					c-1.1,1.1-2.8,1.1-4.6-0.6c-1.7-1.7-1.7-3.6-0.6-4.7C132.9,102.4,134.5,102.5,136.2,104.1z M133.1,107.4c1.1,1.1,2.3,1.5,3,0.8
					c0.8-0.8,0.3-1.9-0.8-3c-1-1-2.2-1.6-3-0.8C131.6,105,132.1,106.3,133.1,107.4z"/>
			</g>
		</g>
	</g>
</g>
</svg>
