<?xml version="1.0" encoding="utf-8"?>
<!-- Generator: Adobe Illustrator 26.3.1, SVG Export Plug-In . SVG Version: 6.00 Build 0)  -->
<svg version="1.1" id="Layer_1" xmlns="http://www.w3.org/2000/svg" xmlns:xlink="http://www.w3.org/1999/xlink" x="0px" y="0px"
	 viewBox="0 0 200 200" style="enable-background:new 0 0 200 200;" xml:space="preserve">
<style type="text/css">
	.st0{fill:#0067FC;}
	.st1{fill:none;stroke:#0067FC;stroke-width:2.5;stroke-linecap:round;stroke-linejoin:round;stroke-miterlimit:10;}
</style>
<g>
	<g>
		<g>
			<path class="st0" d="M117.1,143.3h-42c-3,0-5.5-2.5-5.5-5.5V62.2c0-3,2.5-5.5,5.5-5.5h49.8c3,0,5.5,2.5,5.5,5.5v66.3
				c0,0.3-0.1,0.6-0.3,0.8L118,142.9C117.8,143.1,117.5,143.3,117.1,143.3z M72.1,93.2v44.6c0,1.7,1.3,3,3,3h41.5l11.4-12.8V62.2
				c0-1.7-1.3-3-3-3H75.1c-1.7,0-3,1.3-3,3V93.2z"/>
		</g>
		<g>
			<path class="st0" d="M116.1,142.8c-0.7,0-1.2-0.6-1.2-1.2v-8.8c0-3,2.5-5.5,5.5-5.5h8.8c0.7,0,1.2,0.6,1.2,1.2s-0.6,1.2-1.2,1.2
				h-8.8c-1.7,0-3,1.3-3,3v8.8C117.4,142.3,116.8,142.8,116.1,142.8z"/>
		</g>
	</g>
	<g>
		<path class="st0" d="M116.2,76.4c-0.7,0-1.2-0.6-1.2-1.2v-4.2h-4.1c-0.7,0-1.2-0.6-1.2-1.2s0.6-1.2,1.2-1.2h5.4
			c0.7,0,1.2,0.6,1.2,1.2v5.5C117.5,75.8,116.9,76.4,116.2,76.4z"/>
	</g>
	<g>
		<path class="st0" d="M83,92.1c-0.7,0-1.2-0.6-1.2-1.2v-5.6c0-0.7,0.6-1.2,1.2-1.2s1.2,0.6,1.2,1.2v5.6
			C84.2,91.5,83.7,92.1,83,92.1z"/>
	</g>
	<g>
		<path class="st0" d="M91,91.6c-0.7,0-1.2-0.6-1.2-1.2v-2.2c0-0.7,0.6-1.2,1.2-1.2s1.2,0.6,1.2,1.2v2.2
			C92.3,91.1,91.7,91.6,91,91.6z"/>
	</g>
	<g>
		<path class="st0" d="M98.6,91.6c-0.7,0-1.2-0.6-1.2-1.2v-9.5c0-0.7,0.6-1.2,1.2-1.2s1.2,0.6,1.2,1.2v9.5
			C99.8,91.1,99.3,91.6,98.6,91.6z"/>
	</g>
	<g>
		<path class="st0" d="M107,91.6c-0.7,0-1.2-0.6-1.2-1.2V83c0-0.7,0.6-1.2,1.2-1.2s1.2,0.6,1.2,1.2v7.3
			C108.3,91.1,107.7,91.6,107,91.6z"/>
	</g>
	<g>
		<path class="st0" d="M115.1,91.3c-0.7,0-1.2-0.6-1.2-1.2V79.1c0-0.7,0.6-1.2,1.2-1.2s1.2,0.6,1.2,1.2V90
			C116.3,90.7,115.8,91.3,115.1,91.3z"/>
	</g>
	<g>
		<path class="st0" d="M90.2,84.4c-0.2,0-0.4,0-0.6-0.1l-7.2-3.8c-0.6-0.3-0.8-1.1-0.5-1.7c0.3-0.6,1.1-0.8,1.7-0.5l6.4,3.3l7.8-7.4
			c0.4-0.4,0.9-0.5,1.4-0.2l7.7,3.7l7.4-7.6c0.5-0.5,1.3-0.5,1.8,0c0.5,0.5,0.5,1.3,0,1.8l-8.1,8.2c-0.4,0.4-1,0.5-1.4,0.3l-7.7-3.7
			L91,84C90.8,84.2,90.5,84.4,90.2,84.4z"/>
	</g>
	<g>
		<path class="st0" d="M100,172.7c-1,0-1.9,0-2.9-0.1c-40.1-1.6-71.4-35.5-69.8-75.5c0.8-19.4,9-37.4,23.3-50.5
			c14.3-13.2,32.8-20,52.2-19.2c19.4,0.8,37.4,9,50.5,23.3s20,32.8,19.2,52.2l0,0C171.1,142,138.8,172.7,100,172.7z M99.9,31.3
			c-17.3,0-33.8,6.4-46.6,18.2C39.9,62,32.1,78.9,31.3,97.3c-0.7,18.3,5.7,35.9,18.2,49.3c12.5,13.5,29.4,21.3,47.8,22
			c37.8,1.5,69.9-28.1,71.4-65.9l2,0.1l-2-0.1c0.7-18.3-5.7-35.9-18.2-49.3c-12.5-13.5-29.4-21.3-47.8-22
			C101.8,31.3,100.9,31.3,99.9,31.3z"/>
	</g>
	<g>
		<g>
			<g id="Group_263_00000101065972937191933230000004253134079467124141_" transform="translate(-598.5 -520.001)">
				<g id="Group_259_00000172412314703092522150000017420431955202187651_" transform="translate(549.903 487.744)">
					<g id="Ellipse_9_00000055687147684678736700000010506921660567885188_">
						<path class="st0" d="M138.9,146.7c-4.9,0-8.9-4-8.9-8.9s4-8.9,8.9-8.9s8.9,4,8.9,8.9S143.8,146.7,138.9,146.7z M138.9,131.4
							c-3.5,0-6.4,2.9-6.4,6.4s2.9,6.4,6.4,6.4s6.4-2.9,6.4-6.4S142.4,131.4,138.9,131.4z"/>
					</g>
					<g id="Path_16_00000113319895408515687350000016672090207095675029_">
						<path class="st0" d="M151.3,161.1c-0.7,0-1.2-0.6-1.2-1.2c0-6.2-5-11.2-11.2-11.2s-11.2,5-11.2,11.2c0,0.7-0.6,1.2-1.2,1.2
							s-1.2-0.6-1.2-1.2c0-7.5,6.1-13.7,13.7-13.7s13.7,6.1,13.7,13.7C152.6,160.6,152,161.1,151.3,161.1z"/>
					</g>
				</g>
			</g>
		</g>
		<g>
			<path class="st1" d="M109.5,109.3"/>
		</g>
		<g>
			<g>
				<path class="st0" d="M117.3,126.7c-0.8,0-1.7-0.3-2.3-1l-12.6-12.6c-0.3-0.3-0.4-0.7-0.3-1.1l1.1-6.2c0.2-1.1,1.1-2,2.2-2.2
					l6.2-1.1c0.4-0.1,0.8,0.1,1.1,0.3l12.6,12.6c0.6,0.6,1,1.5,1,2.3s-0.3,1.7-1,2.3l-5.6,5.6C119,126.4,118.2,126.7,117.3,126.7z
					 M104.6,111.8l12.2,12.2c0.3,0.3,0.8,0.3,1.2,0l5.6-5.6c0.2-0.2,0.2-0.4,0.2-0.6c0-0.2-0.1-0.4-0.2-0.6l-12.2-12.2l-5.6,1
					c-0.1,0-0.2,0.1-0.2,0.2L104.6,111.8z"/>
			</g>
			<g>
				<circle class="st0" cx="108.4" cy="108.9" r="1.7"/>
			</g>
		</g>
		<g>
			<g>
				<path class="st0" d="M115.4,116.3c1,1,1,2.1,0.4,2.8c-0.6,0.6-1.6,0.7-2.7-0.3c-1-1-1-2.1-0.3-2.7
					C113.5,115.3,114.5,115.4,115.4,116.3z M113.7,118.2c0.6,0.6,1.3,0.9,1.8,0.5c0.4-0.4,0.2-1.1-0.5-1.8c-0.6-0.6-1.3-0.9-1.7-0.5
					C112.8,116.9,113,117.6,113.7,118.2z M117.8,121.2l-2.2-8l0.4-0.4l2.2,8L117.8,121.2z M120.7,115.2c1,1,1,2.1,0.4,2.7
					c-0.6,0.6-1.6,0.7-2.6-0.3c-1-1-1-2.1-0.4-2.8C118.8,114.1,119.8,114.2,120.7,115.2z M118.9,117c0.6,0.6,1.3,0.9,1.8,0.5
					c0.4-0.4,0.2-1.1-0.5-1.8c-0.6-0.6-1.3-0.9-1.7-0.5C118.1,115.7,118.3,116.4,118.9,117z"/>
			</g>
		</g>
	</g>
</g>
</svg>
