<?xml version="1.0" encoding="utf-8"?>
<!-- Generator: Adobe Illustrator 26.4.0, SVG Export Plug-In . SVG Version: 6.00 Build 0)  -->
<svg version="1.1" id="Layer_1" xmlns="http://www.w3.org/2000/svg" xmlns:xlink="http://www.w3.org/1999/xlink" x="0px" y="0px"
	 viewBox="0 0 200 200" style="enable-background:new 0 0 200 200;" xml:space="preserve">
<style type="text/css">
	.st0{fill:#0067FC;}
</style>
<g>
	<g>
		<g>
			<g>
				<path class="st0" d="M121.3,139.9c-9.7,0-17.5-7.9-17.5-17.5s7.9-17.5,17.5-17.5s17.5,7.9,17.5,17.5S131,139.9,121.3,139.9z
					 M121.3,108.1c-7.8,0-14.2,6.4-14.2,14.2c0,7.8,6.4,14.2,14.2,14.2c7.8,0,14.2-6.4,14.2-14.2
					C135.5,114.5,129.2,108.1,121.3,108.1z"/>
			</g>
		</g>
		<g>
			<path class="st0" d="M78,74.3c-1,0-1.9-0.8-1.9-1.9V61.8c0-1,0.8-1.9,1.9-1.9s1.9,0.8,1.9,1.9v10.6C79.8,73.5,79,74.3,78,74.3z"
				/>
		</g>
		<g>
			<path class="st0" d="M122.2,74.3c-1,0-1.9-0.8-1.9-1.9V61.8c0-1,0.8-1.9,1.9-1.9s1.9,0.8,1.9,1.9v10.6
				C124.1,73.5,123.2,74.3,122.2,74.3z"/>
		</g>
		<g>
			<path class="st0" d="M110.5,136.4H62.8c-1,0-1.9-0.8-1.9-1.9V72.4c0-1,0.8-1.9,1.9-1.9h70.7c1,0,1.9,0.8,1.9,1.9V112
				c0,1-0.8,1.9-1.9,1.9s-1.9-0.8-1.9-1.9V74.3h-67v58.3h45.8c1,0,1.9,0.8,1.9,1.9S111.5,136.4,110.5,136.4z"/>
		</g>
		<g>
			<rect x="71.8" y="83.7" class="st0" width="9.6" height="9.6"/>
		</g>
		<g>
			<rect x="85" y="83.7" class="st0" width="9.6" height="9.6"/>
		</g>
		<g>
			<rect x="97.8" y="83.7" class="st0" width="9.6" height="9.6"/>
		</g>
		<g>
			<rect x="111" y="83.7" class="st0" width="9.6" height="9.6"/>
		</g>
		<g>
			<rect x="71.8" y="98.7" class="st0" width="9.6" height="9.6"/>
		</g>
		<g>
			<rect x="85" y="98.7" class="st0" width="9.6" height="9.6"/>
		</g>
		<g>
			<rect x="97.8" y="98.7" class="st0" width="9.6" height="9.6"/>
		</g>
		<g>
			<rect x="71.8" y="112" class="st0" width="9.6" height="9.6"/>
		</g>
		<g>
			<rect x="85" y="112" class="st0" width="9.6" height="9.6"/>
		</g>
	</g>
	<g>
		<g id="Group_263_00000026148701117140113990000015703512375296431496_" transform="translate(-598.5 -520.001)">
			<g id="Group_259_00000095299531308198785080000017508399502512451764_" transform="translate(549.903 487.744)">
				<g id="Ellipse_9_00000101795412865337645450000015641362053172289958_">
					<path class="st0" d="M170.1,155.7c-3.5,0-6.3-2.8-6.3-6.3s2.8-6.3,6.3-6.3s6.3,2.8,6.3,6.3S173.6,155.7,170.1,155.7z
						 M170.1,146.5c-1.6,0-3,1.3-3,3s1.3,3,3,3c1.6,0,3-1.3,3-3S171.8,146.5,170.1,146.5z"/>
				</g>
				<g id="Path_16_00000025442476890399569560000015865314678409254791_">
					<path class="st0" d="M177.7,164.4c-0.9,0-1.7-0.7-1.7-1.7c0-3.2-2.6-5.9-5.9-5.9s-5.9,2.6-5.9,5.9c0,0.9-0.7,1.7-1.7,1.7
						s-1.7-0.7-1.7-1.7c0-5.1,4.1-9.2,9.2-9.2c5.1,0,9.2,4.1,9.2,9.2C179.3,163.7,178.6,164.4,177.7,164.4z"/>
				</g>
			</g>
		</g>
	</g>
	<g>
		<path class="st0" d="M100,172.7c-40.1,0-72.7-32.6-72.7-72.7S59.9,27.3,100,27.3s72.7,32.6,72.7,72.7S140.1,172.7,100,172.7z
			 M100,31.3c-37.9,0-68.7,30.8-68.7,68.7c0,37.9,30.8,68.7,68.7,68.7c37.9,0,68.7-30.8,68.7-68.7C168.7,62.1,137.9,31.3,100,31.3z"
			/>
	</g>
</g>
</svg>
