<?xml version="1.0" encoding="utf-8"?>
<!-- Generator: Adobe Illustrator 26.3.1, SVG Export Plug-In . SVG Version: 6.00 Build 0)  -->
<svg version="1.1" id="Layer_1" xmlns="http://www.w3.org/2000/svg" xmlns:xlink="http://www.w3.org/1999/xlink" x="0px" y="0px"
	 viewBox="0 0 200 200" style="enable-background:new 0 0 200 200;" xml:space="preserve">
<style type="text/css">
	.st0{fill:#0067FC;}
</style>
<g>
	<g>
		<g>
			<g>
				<path class="st0" d="M130.7,120.1H69.3c-3,0-5.4-2.4-5.4-5.4V72.8c0-3,2.4-5.4,5.4-5.4h61.4c3,0,5.4,2.4,5.4,5.4v41.9
					C136.2,117.7,133.7,120.1,130.7,120.1z M69.3,69.9c-1.6,0-2.9,1.3-2.9,2.9v41.9c0,1.6,1.3,2.9,2.9,2.9h61.4
					c1.6,0,2.9-1.3,2.9-2.9V72.8c0-1.6-1.3-2.9-2.9-2.9H69.3z"/>
			</g>
			<g>
				<path class="st0" d="M134.9,113.5H65.2c-0.7,0-1.3-0.6-1.3-1.3s0.6-1.3,1.3-1.3h69.7c0.7,0,1.3,0.6,1.3,1.3
					S135.6,113.5,134.9,113.5z"/>
			</g>
			<g>
				<path class="st0" d="M110.3,127.5c-0.6,0-1.1-0.4-1.3-1l-1.6-6.4H92.1l-1.6,6.4c-0.2,0.7-0.9,1.1-1.6,0.9
					c-0.7-0.2-1.1-0.9-0.9-1.6l1.8-7.3c0.1-0.6,0.7-1,1.3-1h17.4c0.6,0,1.1,0.4,1.3,1l1.8,7.3c0.2,0.7-0.2,1.4-0.9,1.6
					C110.5,127.5,110.4,127.5,110.3,127.5z"/>
			</g>
			<g>
				<path class="st0" d="M113.2,132.7H86.3c-2.1,0-3.9-1.7-3.9-3.9s1.7-3.9,3.9-3.9h26.9c2.1,0,3.9,1.7,3.9,3.9
					S115.4,132.7,113.2,132.7z M86.3,127.5c-0.7,0-1.3,0.6-1.3,1.3s0.6,1.3,1.3,1.3h26.9c0.7,0,1.3-0.6,1.3-1.3s-0.6-1.3-1.3-1.3
					H86.3z"/>
			</g>
		</g>
		<g>
			<g>
				<g>
					<path class="st0" d="M128.1,92.1c-0.7,0-1.3-0.6-1.3-1.3v-9.9c0-0.7,0.6-1.3,1.3-1.3s1.3,0.6,1.3,1.3v9.9
						C129.4,91.5,128.8,92.1,128.1,92.1z"/>
				</g>
				<g>
					<path class="st0" d="M122.4,92.1c-0.7,0-1.3-0.6-1.3-1.3v-9.3c0-0.7,0.6-1.3,1.3-1.3s1.3,0.6,1.3,1.3v9.3
						C123.7,91.5,123.1,92.1,122.4,92.1z"/>
				</g>
				<g>
					<path class="st0" d="M116.6,92.1c-0.7,0-1.3-0.6-1.3-1.3V82c0-0.7,0.6-1.3,1.3-1.3s1.3,0.6,1.3,1.3v8.7
						C117.9,91.5,117.3,92.1,116.6,92.1z"/>
				</g>
				<g>
					<path class="st0" d="M110.9,92.1c-0.7,0-1.3-0.6-1.3-1.3v-7.5c0-0.7,0.6-1.3,1.3-1.3s1.3,0.6,1.3,1.3v7.5
						C112.2,91.5,111.6,92.1,110.9,92.1z"/>
				</g>
				<g>
					<path class="st0" d="M105.2,92.1c-0.7,0-1.3-0.6-1.3-1.3v-5.5c0-0.7,0.6-1.3,1.3-1.3s1.3,0.6,1.3,1.3v5.5
						C106.5,91.5,105.9,92.1,105.2,92.1z"/>
				</g>
			</g>
		</g>
		<g>
			<g>
				<path class="st0" d="M128.8,97.7h-17.5c-0.7,0-1.2-0.6-1.2-1.2s0.6-1.2,1.2-1.2h17.5c0.7,0,1.2,0.6,1.2,1.2
					S129.5,97.7,128.8,97.7z"/>
			</g>
			<g>
				<path class="st0" d="M128.8,102.3h-17.5c-0.7,0-1.2-0.6-1.2-1.2s0.6-1.2,1.2-1.2h17.5c0.7,0,1.2,0.6,1.2,1.2
					S129.5,102.3,128.8,102.3z"/>
			</g>
			<g>
				<path class="st0" d="M122.3,106.8h-11c-0.7,0-1.2-0.6-1.2-1.2s0.6-1.2,1.2-1.2h11c0.7,0,1.2,0.6,1.2,1.2S123,106.8,122.3,106.8z
					"/>
			</g>
			<g>
				<path class="st0" d="M104.7,98.6C104.7,98.6,104.7,98.6,104.7,98.6c-0.3,0-0.7-0.1-0.9-0.4l-0.9-0.9c-0.5-0.5-0.5-1.3,0-1.8
					c0.5-0.5,1.3-0.5,1.8,0l0,0l0.9-0.9c0.5-0.5,1.3-0.5,1.8,0c0.5,0.5,0.5,1.3,0,1.8l-1.8,1.8C105.4,98.5,105.1,98.6,104.7,98.6z"
					/>
			</g>
			<g>
				<path class="st0" d="M104.7,103.2C104.7,103.2,104.7,103.2,104.7,103.2c-0.3,0-0.7-0.1-0.9-0.4l-0.9-0.9c-0.5-0.5-0.5-1.3,0-1.8
					c0.5-0.5,1.3-0.5,1.8,0l0,0l0.9-0.9c0.5-0.5,1.3-0.5,1.8,0c0.5,0.5,0.5,1.3,0,1.8l-1.8,1.8C105.4,103,105.1,103.2,104.7,103.2z"
					/>
			</g>
			<g>
				<path class="st0" d="M104.7,107.4C104.7,107.4,104.7,107.4,104.7,107.4c-0.3,0-0.7-0.1-0.9-0.4l-0.9-0.9c-0.5-0.5-0.5-1.3,0-1.8
					c0.5-0.5,1.3-0.5,1.8,0l0,0l0.9-0.9c0.5-0.5,1.3-0.5,1.8,0c0.5,0.5,0.5,1.3,0,1.8l-1.8,1.8C105.4,107.2,105.1,107.4,104.7,107.4
					z"/>
			</g>
		</g>
		<g>
			<g>
				<path class="st0" d="M84.7,107.4c-6.9,0-12.5-5.6-12.5-12.5s5.6-12.5,12.5-12.5c0.7,0,1.2,0.6,1.2,1.2v10h10
					c0.7,0,1.2,0.6,1.2,1.2C97.2,101.8,91.6,107.4,84.7,107.4z M83.5,85c-4.9,0.6-8.8,4.8-8.8,9.9c0,5.5,4.5,10,10,10
					c5.1,0,9.3-3.8,9.9-8.8h-9.9c-0.7,0-1.2-0.6-1.2-1.2V85z"/>
			</g>
			<g>
				<path class="st0" d="M87.4,80.7l0,11.3h11.3C98.6,85.7,93.6,80.7,87.4,80.7z"/>
			</g>
		</g>
	</g>
	<g>
		<path class="st0" d="M100,172.7c-40.1,0-72.7-32.6-72.7-72.7S59.9,27.3,100,27.3s72.7,32.6,72.7,72.7S140.1,172.7,100,172.7z
			 M100,31.3c-37.9,0-68.7,30.8-68.7,68.7c0,37.9,30.8,68.7,68.7,68.7c37.9,0,68.7-30.8,68.7-68.7C168.7,62.1,137.9,31.3,100,31.3z"
			/>
	</g>
</g>
</svg>
