<?xml version="1.0" encoding="utf-8"?>
<!-- Generator: Adobe Illustrator 26.3.1, SVG Export Plug-In . SVG Version: 6.00 Build 0)  -->
<svg version="1.1" id="Layer_1" xmlns="http://www.w3.org/2000/svg" xmlns:xlink="http://www.w3.org/1999/xlink" x="0px" y="0px"
	 viewBox="0 0 200 200" style="enable-background:new 0 0 200 200;" xml:space="preserve">
<style type="text/css">
	.st0{fill:#0067FC;}
</style>
<g>
	<g>
		<g>
			<path class="st0" d="M138.9,78.6h-20c-3.2,0-5.7-2.6-5.7-5.7s2.6-5.7,5.7-5.7h20c3.2,0,5.7,2.6,5.7,5.7S142,78.6,138.9,78.6z
				 M118.9,69.7c-1.8,0-3.2,1.4-3.2,3.2s1.4,3.2,3.2,3.2h20c1.8,0,3.2-1.4,3.2-3.2s-1.4-3.2-3.2-3.2H118.9z"/>
		</g>
		<g>
			<path class="st0" d="M138.9,94.5h-20c-3.2,0-5.7-2.6-5.7-5.7s2.6-5.7,5.7-5.7h20c3.2,0,5.7,2.6,5.7,5.7S142,94.5,138.9,94.5z
				 M118.9,85.5c-1.8,0-3.2,1.4-3.2,3.2s1.4,3.2,3.2,3.2h20c1.8,0,3.2-1.4,3.2-3.2s-1.4-3.2-3.2-3.2H118.9z"/>
		</g>
		<g>
			<path class="st0" d="M138.9,110.3h-20c-3.2,0-5.7-2.6-5.7-5.7s2.6-5.7,5.7-5.7h20c3.2,0,5.7,2.6,5.7,5.7S142,110.3,138.9,110.3z
				 M118.9,101.3c-1.8,0-3.2,1.4-3.2,3.2c0,1.8,1.4,3.2,3.2,3.2h20c1.8,0,3.2-1.4,3.2-3.2c0-1.8-1.4-3.2-3.2-3.2H118.9z"/>
		</g>
		<g>
			<path class="st0" d="M90.9,103.4h-20c-3.2,0-5.7-2.6-5.7-5.7c0-3.2,2.6-5.7,5.7-5.7h20c3.2,0,5.7,2.6,5.7,5.7
				C96.6,100.9,94,103.4,90.9,103.4z M70.9,94.5c-1.8,0-3.2,1.4-3.2,3.2s1.4,3.2,3.2,3.2h20c1.8,0,3.2-1.4,3.2-3.2s-1.4-3.2-3.2-3.2
				H70.9z"/>
		</g>
		<g>
			<path class="st0" d="M90.9,119.2h-20c-3.2,0-5.7-2.6-5.7-5.7s2.6-5.7,5.7-5.7h20c3.2,0,5.7,2.6,5.7,5.7S94,119.2,90.9,119.2z
				 M70.9,110.3c-1.8,0-3.2,1.4-3.2,3.2c0,1.8,1.4,3.2,3.2,3.2h20c1.8,0,3.2-1.4,3.2-3.2c0-1.8-1.4-3.2-3.2-3.2H70.9z"/>
		</g>
		<g>
			<path class="st0" d="M90.9,135.1h-20c-3.2,0-5.7-2.6-5.7-5.7s2.6-5.7,5.7-5.7h20c3.2,0,5.7,2.6,5.7,5.7S94,135.1,90.9,135.1z
				 M70.9,126.1c-1.8,0-3.2,1.4-3.2,3.2c0,1.8,1.4,3.2,3.2,3.2h20c1.8,0,3.2-1.4,3.2-3.2c0-1.8-1.4-3.2-3.2-3.2H70.9z"/>
		</g>
		<g>
			<path class="st0" d="M113.7,137.2c-0.3,0-0.6-0.1-0.9-0.4l-6.6-6.6c-0.5-0.5-0.5-1.3,0-1.8l6.7-6.7c0.5-0.5,1.3-0.5,1.8,0
				s0.5,1.3,0,1.8l-5.8,5.8l5.7,5.7c0.5,0.5,0.5,1.3,0,1.8C114.4,137,114,137.2,113.7,137.2z"/>
		</g>
		<g>
			<path class="st0" d="M132,130.6h-24.8c-0.7,0-1.2-0.6-1.2-1.2s0.6-1.2,1.2-1.2h23.6v-13.5c0-0.7,0.6-1.2,1.2-1.2s1.2,0.6,1.2,1.2
				v14.7C133.2,130,132.7,130.6,132,130.6z"/>
		</g>
		<g>
			<path class="st0" d="M89.6,79c-0.3,0-0.6-0.1-0.9-0.4c-0.5-0.5-0.5-1.3,0-1.8l5.8-5.8l-5.7-5.7c-0.5-0.5-0.5-1.3,0-1.8
				s1.3-0.5,1.8,0l6.6,6.6c0.5,0.5,0.5,1.3,0,1.8l-6.7,6.7C90.2,78.9,89.9,79,89.6,79z"/>
		</g>
		<g>
			<path class="st0" d="M71.5,87c-0.7,0-1.2-0.6-1.2-1.2V71.1c0-0.7,0.6-1.2,1.2-1.2h24.8c0.7,0,1.2,0.6,1.2,1.2s-0.6,1.2-1.2,1.2
				H72.7v13.5C72.7,86.5,72.2,87,71.5,87z"/>
		</g>
		<g>
			<path class="st0" d="M80.9,98.9h-9.8c-0.7,0-1.2-0.6-1.2-1.2s0.6-1.2,1.2-1.2h9.8c0.7,0,1.2,0.6,1.2,1.2S81.6,98.9,80.9,98.9z"/>
		</g>
		<g>
			<path class="st0" d="M90.7,98.9h-5.7c-0.7,0-1.2-0.6-1.2-1.2s0.6-1.2,1.2-1.2h5.7c0.7,0,1.2,0.6,1.2,1.2S91.4,98.9,90.7,98.9z"/>
		</g>
		<g>
			<path class="st0" d="M80.9,114.8h-9.8c-0.7,0-1.2-0.6-1.2-1.2s0.6-1.2,1.2-1.2h9.8c0.7,0,1.2,0.6,1.2,1.2S81.6,114.8,80.9,114.8z
				"/>
		</g>
		<g>
			<path class="st0" d="M90.7,114.8h-5.7c-0.7,0-1.2-0.6-1.2-1.2s0.6-1.2,1.2-1.2h5.7c0.7,0,1.2,0.6,1.2,1.2S91.4,114.8,90.7,114.8z
				"/>
		</g>
		<g>
			<path class="st0" d="M80.9,130.6h-9.8c-0.7,0-1.2-0.6-1.2-1.2s0.6-1.2,1.2-1.2h9.8c0.7,0,1.2,0.6,1.2,1.2S81.6,130.6,80.9,130.6z
				"/>
		</g>
		<g>
			<path class="st0" d="M90.7,130.6h-5.7c-0.7,0-1.2-0.6-1.2-1.2s0.6-1.2,1.2-1.2h5.7c0.7,0,1.2,0.6,1.2,1.2S91.4,130.6,90.7,130.6z
				"/>
		</g>
		<g>
			<path class="st0" d="M138.7,74.2h-9.8c-0.7,0-1.2-0.6-1.2-1.2s0.6-1.2,1.2-1.2h9.8c0.7,0,1.2,0.6,1.2,1.2S139.4,74.2,138.7,74.2z
				"/>
		</g>
		<g>
			<path class="st0" d="M124.7,74.2h-5.7c-0.7,0-1.2-0.6-1.2-1.2s0.6-1.2,1.2-1.2h5.7c0.7,0,1.2,0.6,1.2,1.2S125.4,74.2,124.7,74.2z
				"/>
		</g>
		<g>
			<path class="st0" d="M138.7,90h-9.8c-0.7,0-1.2-0.6-1.2-1.2s0.6-1.2,1.2-1.2h9.8c0.7,0,1.2,0.6,1.2,1.2S139.4,90,138.7,90z"/>
		</g>
		<g>
			<path class="st0" d="M124.7,90h-5.7c-0.7,0-1.2-0.6-1.2-1.2s0.6-1.2,1.2-1.2h5.7c0.7,0,1.2,0.6,1.2,1.2S125.4,90,124.7,90z"/>
		</g>
		<g>
			<path class="st0" d="M138.7,105.8h-9.8c-0.7,0-1.2-0.6-1.2-1.2s0.6-1.2,1.2-1.2h9.8c0.7,0,1.2,0.6,1.2,1.2
				S139.4,105.8,138.7,105.8z"/>
		</g>
		<g>
			<path class="st0" d="M124.7,105.8h-5.7c-0.7,0-1.2-0.6-1.2-1.2s0.6-1.2,1.2-1.2h5.7c0.7,0,1.2,0.6,1.2,1.2
				S125.4,105.8,124.7,105.8z"/>
		</g>
	</g>
	<g>
		<path class="st0" d="M100,172.7c-1,0-1.9,0-2.9-0.1c-40.1-1.6-71.4-35.5-69.8-75.5c0.8-19.4,9-37.4,23.3-50.5
			c14.3-13.2,32.8-20,52.2-19.2c19.4,0.8,37.4,9,50.5,23.3s20,32.8,19.2,52.2l0,0C171.1,142,138.8,172.7,100,172.7z M99.9,31.3
			c-17.3,0-33.8,6.4-46.6,18.2C39.9,62,32.1,78.9,31.3,97.3c-0.7,18.3,5.7,35.9,18.2,49.3c12.5,13.5,29.4,21.3,47.8,22
			c37.8,1.5,69.9-28.1,71.4-65.9l2,0.1l-2-0.1c0.7-18.3-5.7-35.9-18.2-49.3c-12.5-13.5-29.4-21.3-47.8-22
			C101.8,31.3,100.9,31.3,99.9,31.3z"/>
	</g>
</g>
</svg>
