<?xml version="1.0" encoding="utf-8"?>
<!-- Generator: Adobe Illustrator 26.3.1, SVG Export Plug-In . SVG Version: 6.00 Build 0)  -->
<svg version="1.1" id="Layer_1" xmlns="http://www.w3.org/2000/svg" xmlns:xlink="http://www.w3.org/1999/xlink" x="0px" y="0px"
	 viewBox="0 0 200 200" style="enable-background:new 0 0 200 200;" xml:space="preserve">
<style type="text/css">
	.st0{fill:#0067FC;}
</style>
<g>
	<g>
		<g id="Group_263_00000079481107703080253250000017229714314331046581_" transform="translate(-598.5 -520.001)">
			<g id="Group_259_00000118398258798606735640000001943823879044492467_" transform="translate(549.903 487.744)">
				<g id="Ellipse_9_00000106828522439275559720000014799241134340434069_">
					<path class="st0" d="M179.3,137.2c-3.5,0-6.3-2.8-6.3-6.3s2.8-6.3,6.3-6.3s6.3,2.8,6.3,6.3S182.8,137.2,179.3,137.2z
						 M179.3,127.1c-2.1,0-3.8,1.7-3.8,3.8s1.7,3.8,3.8,3.8s3.8-1.7,3.8-3.8S181.4,127.1,179.3,127.1z"/>
				</g>
				<g id="Path_16_00000163072385451541653030000002994447398440930222_">
					<path class="st0" d="M187.5,146.8c-0.7,0-1.2-0.6-1.2-1.2c0-3.9-3.1-7-7-7s-7,3.1-7,7c0,0.7-0.6,1.2-1.2,1.2s-1.2-0.6-1.2-1.2
						c0-5.2,4.3-9.5,9.5-9.5s9.5,4.3,9.5,9.5C188.8,146.3,188.2,146.8,187.5,146.8z"/>
				</g>
			</g>
		</g>
	</g>
	<g>
		<path class="st0" d="M118.2,143.6h-42c-3,0-5.5-2.5-5.5-5.5V90.4c0-0.7,0.6-1.2,1.2-1.2s1.2,0.6,1.2,1.2v47.7c0,1.7,1.3,3,3,3
			h41.5l11.4-12.8v-7c0-0.7,0.6-1.2,1.2-1.2s1.2,0.6,1.2,1.2v7.4c0,0.3-0.1,0.6-0.3,0.8l-12.1,13.5
			C118.9,143.5,118.6,143.6,118.2,143.6z"/>
	</g>
	<g>
		<path class="st0" d="M71.9,94.8c-0.7,0-1.2-0.6-1.2-1.2v-31c0-3,2.5-5.5,5.5-5.5H126c3,0,5.5,2.5,5.5,5.5v22.6
			c0,0.7-0.6,1.2-1.2,1.2s-1.2-0.6-1.2-1.2V62.6c0-1.7-1.3-3-3-3H76.2c-1.7,0-3,1.3-3,3v31C73.2,94.3,72.6,94.8,71.9,94.8z"/>
	</g>
	<g>
		<path class="st0" d="M117.2,143.2c-0.7,0-1.2-0.6-1.2-1.2v-8.8c0-3,2.5-5.5,5.5-5.5h8.8c0.7,0,1.2,0.6,1.2,1.2s-0.6,1.2-1.2,1.2
			h-8.8c-1.7,0-3,1.3-3,3v8.8C118.5,142.6,117.9,143.2,117.2,143.2z"/>
	</g>
	<g>
		<path class="st0" d="M130.3,122c-10,0-18.2-8.2-18.2-18.2s8.2-18.2,18.2-18.2s18.2,8.2,18.2,18.2S140.3,122,130.3,122z
			 M130.3,87.9c-8.7,0-15.9,7.1-15.9,15.9c0,8.7,7.1,15.9,15.9,15.9s15.9-7.1,15.9-15.9C146.1,95.1,139,87.9,130.3,87.9z"/>
	</g>
	<g>
		<path class="st0" d="M100,172.7c-1,0-1.9,0-2.9-0.1c-40.1-1.6-71.4-35.5-69.8-75.5c0.8-19.4,9-37.4,23.3-50.5
			c14.3-13.2,32.8-20,52.2-19.2c19.4,0.8,37.4,9,50.5,23.3s20,32.8,19.2,52.2l0,0C171.1,142,138.8,172.7,100,172.7z M99.9,31.3
			c-17.3,0-33.8,6.4-46.6,18.2C39.9,62,32.1,78.9,31.3,97.3c-0.7,18.3,5.7,35.9,18.2,49.3c12.5,13.5,29.4,21.3,47.8,22
			c37.8,1.5,69.9-28.1,71.4-65.9l2,0.1l-2-0.1c0.7-18.3-5.7-35.9-18.2-49.3c-12.5-13.5-29.4-21.3-47.8-22
			C101.8,31.3,100.9,31.3,99.9,31.3z"/>
	</g>
	<g>
		<g>
			<path class="st0" d="M105.7,117h-17c-0.7,0-1.2-0.6-1.2-1.2s0.6-1.2,1.2-1.2h17c0.7,0,1.2,0.6,1.2,1.2S106.4,117,105.7,117z"/>
		</g>
		<g>
			<path class="st0" d="M99.7,124.1h-11c-0.7,0-1.2-0.6-1.2-1.2s0.6-1.2,1.2-1.2h11c0.7,0,1.2,0.6,1.2,1.2S100.4,124.1,99.7,124.1z"
				/>
		</g>
		<g>
			<path class="st0" d="M105.7,131.1h-17c-0.7,0-1.2-0.6-1.2-1.2s0.6-1.2,1.2-1.2h17c0.7,0,1.2,0.6,1.2,1.2S106.4,131.1,105.7,131.1
				z"/>
		</g>
		<g>
			<path class="st0" d="M81.8,118.5L81.8,118.5c-0.3,0-0.6-0.1-0.9-0.4l-1.4-1.4c-0.5-0.5-0.5-1.3,0-1.8s1.3-0.5,1.8,0l0.5,0.5
				l1.9-1.9c0.5-0.5,1.3-0.5,1.8,0s0.5,1.3,0,1.8l-2.8,2.8C82.4,118.3,82.1,118.5,81.8,118.5z"/>
		</g>
		<g>
			<path class="st0" d="M108,109.5H88.7c-0.7,0-1.2-0.6-1.2-1.2s0.6-1.2,1.2-1.2H108c0.7,0,1.2,0.6,1.2,1.2S108.7,109.5,108,109.5z"
				/>
		</g>
		<g>
			<path class="st0" d="M81.8,110.9c-0.3,0-0.6-0.1-0.9-0.4l-1.4-1.4c-0.5-0.5-0.5-1.3,0-1.8c0.5-0.5,1.3-0.5,1.8,0l0.5,0.5l1.9-1.9
				c0.5-0.5,1.3-0.5,1.8,0c0.5,0.5,0.5,1.3,0,1.8l-2.8,2.8C82.4,110.8,82.1,110.9,81.8,110.9z"/>
		</g>
		<g>
			<path class="st0" d="M81.8,125.5L81.8,125.5c-0.3,0-0.6-0.1-0.9-0.4l-1.4-1.4c-0.5-0.5-0.5-1.3,0-1.8s1.3-0.5,1.8,0l0.5,0.5
				l1.9-1.9c0.5-0.5,1.3-0.5,1.8,0s0.5,1.3,0,1.8l-2.8,2.8C82.4,125.4,82.1,125.5,81.8,125.5z"/>
		</g>
		<g>
			<path class="st0" d="M81.8,132c-0.3,0-0.6-0.1-0.9-0.4l-1.4-1.4c-0.5-0.5-0.5-1.3,0-1.8c0.5-0.5,1.3-0.5,1.8,0l0.5,0.5l1.9-1.9
				c0.5-0.5,1.3-0.5,1.8,0c0.5,0.5,0.5,1.3,0,1.8l-2.8,2.8C82.4,131.8,82.1,132,81.8,132z"/>
		</g>
	</g>
	<g>
		<g>
			<path class="st0" d="M115.7,87.1h-27c-0.7,0-1.2-0.6-1.2-1.2s0.6-1.2,1.2-1.2h27c0.7,0,1.2,0.6,1.2,1.2S116.4,87.1,115.7,87.1z"
				/>
		</g>
		<g>
			<path class="st0" d="M106.7,94.1h-18c-0.7,0-1.2-0.6-1.2-1.2s0.6-1.2,1.2-1.2h18c0.7,0,1.2,0.6,1.2,1.2S107.4,94.1,106.7,94.1z"
				/>
		</g>
		<g>
			<path class="st0" d="M105.7,101.2h-17c-0.7,0-1.2-0.6-1.2-1.3s0.6-1.2,1.2-1.2h17c0.7,0,1.2,0.6,1.2,1.2S106.4,101.2,105.7,101.2
				z"/>
		</g>
		<g>
			<path class="st0" d="M81.8,88.5L81.8,88.5c-0.3,0-0.6-0.1-0.9-0.4l-1.4-1.4c-0.5-0.5-0.5-1.3,0-1.8c0.5-0.5,1.3-0.5,1.8,0
				l0.5,0.5l1.9-1.9c0.5-0.5,1.3-0.5,1.8,0s0.5,1.3,0,1.8l-2.8,2.8C82.4,88.4,82.1,88.5,81.8,88.5z"/>
		</g>
		<g>
			<path class="st0" d="M120,79.6H88.7c-0.7,0-1.2-0.6-1.2-1.2s0.6-1.2,1.2-1.2H120c0.7,0,1.2,0.6,1.2,1.2S120.7,79.6,120,79.6z"/>
		</g>
		<g>
			<path class="st0" d="M81.8,81c-0.3,0-0.6-0.1-0.9-0.4l-1.4-1.4c-0.5-0.5-0.5-1.3,0-1.8s1.3-0.5,1.8,0l0.5,0.5l1.9-1.9
				c0.5-0.5,1.3-0.5,1.8,0s0.5,1.3,0,1.8l-2.8,2.8C82.4,80.8,82.1,81,81.8,81z"/>
		</g>
		<g>
			<path class="st0" d="M81.8,95.6c-0.3,0-0.6-0.1-0.9-0.4l-1.4-1.4c-0.5-0.5-0.5-1.3,0-1.8s1.3-0.5,1.8,0l0.5,0.5l1.9-1.9
				c0.5-0.5,1.3-0.5,1.8,0s0.5,1.3,0,1.8l-2.8,2.8C82.4,95.4,82.1,95.6,81.8,95.6z"/>
		</g>
		<g>
			<path class="st0" d="M81.8,102c-0.3,0-0.6-0.1-0.9-0.4l-1.4-1.4c-0.5-0.5-0.5-1.3,0-1.8s1.3-0.5,1.8,0l0.5,0.5l1.9-1.9
				c0.5-0.5,1.3-0.5,1.8,0s0.5,1.3,0,1.8l-2.8,2.8C82.4,101.9,82.1,102,81.8,102z"/>
		</g>
	</g>
</g>
</svg>
