<?xml version="1.0" encoding="utf-8"?>
<!-- Generator: Adobe Illustrator 26.3.1, SVG Export Plug-In . SVG Version: 6.00 Build 0)  -->
<svg version="1.1" id="Layer_1" xmlns="http://www.w3.org/2000/svg" xmlns:xlink="http://www.w3.org/1999/xlink" x="0px" y="0px"
	 viewBox="0 0 200 200" style="enable-background:new 0 0 200 200;" xml:space="preserve">
<style type="text/css">
	.st0{fill:#0067FC;}
</style>
<g>
	<g>
		<g id="Group_263_00000124125395620505715450000011003010672479342013_" transform="translate(-598.5 -520.001)">
			<g id="Group_259_00000090269869257938767460000005975765186905702813_" transform="translate(549.903 487.744)">
				<g id="Ellipse_9_00000047780756716010516520000013425836225525520293_">
					<path class="st0" d="M127.3,156.5c-3.2,0-5.8-2.6-5.8-5.8s2.6-5.8,5.8-5.8c3.2,0,5.8,2.6,5.8,5.8S130.5,156.5,127.3,156.5z
						 M127.3,148.2c-1.4,0-2.5,1.1-2.5,2.5c0,1.4,1.1,2.5,2.5,2.5c1.4,0,2.5-1.1,2.5-2.5C129.7,149.3,128.6,148.2,127.3,148.2z"/>
				</g>
				<g id="Path_16_00000163779844260202522850000001127139299192867471_">
					<path class="st0" d="M134,164.3c-0.9,0-1.7-0.7-1.7-1.7c0-2.8-2.3-5.1-5.1-5.1c-2.8,0-5.1,2.3-5.1,5.1c0,0.9-0.7,1.7-1.7,1.7
						c-0.9,0-1.7-0.7-1.7-1.7c0-4.6,3.8-8.4,8.4-8.4c4.6,0,8.4,3.8,8.4,8.4C135.6,163.5,134.9,164.3,134,164.3z"/>
				</g>
			</g>
		</g>
	</g>
	<g>
		<g>
			<g>
				<path class="st0" d="M78.7,139.9c-9.7,0-17.5-7.9-17.5-17.5s7.9-17.5,17.5-17.5s17.5,7.9,17.5,17.5S88.4,139.9,78.7,139.9z
					 M78.7,108.1c-7.8,0-14.2,6.4-14.2,14.2c0,7.8,6.4,14.2,14.2,14.2s14.2-6.4,14.2-14.2C92.9,114.5,86.5,108.1,78.7,108.1z"/>
			</g>
		</g>
		<g>
			<path class="st0" d="M122,74.3c-1,0-1.9-0.8-1.9-1.9V61.8c0-1,0.8-1.9,1.9-1.9s1.9,0.8,1.9,1.9v10.6
				C123.9,73.5,123.1,74.3,122,74.3z"/>
		</g>
		<g>
			<path class="st0" d="M77.8,74.3c-1,0-1.9-0.8-1.9-1.9V61.8c0-1,0.8-1.9,1.9-1.9s1.9,0.8,1.9,1.9v10.6
				C79.7,73.5,78.8,74.3,77.8,74.3z"/>
		</g>
		<g>
			<path class="st0" d="M137.2,136.4H89.5c-1,0-1.9-0.8-1.9-1.9s0.8-1.9,1.9-1.9h45.8V74.3h-67V112c0,1-0.8,1.9-1.9,1.9
				s-1.9-0.8-1.9-1.9V72.4c0-1,0.8-1.9,1.9-1.9h70.7c1,0,1.9,0.8,1.9,1.9v62.1C139.1,135.6,138.2,136.4,137.2,136.4z"/>
		</g>
		<g>
			
				<rect x="118.6" y="83.7" transform="matrix(-1 -4.494639e-11 4.494639e-11 -1 246.7371 176.9239)" class="st0" width="9.6" height="9.6"/>
		</g>
		<g>
			
				<rect x="105.4" y="83.7" transform="matrix(-1 -4.504143e-11 4.504143e-11 -1 220.4265 176.9239)" class="st0" width="9.6" height="9.6"/>
		</g>
		<g>
			<path class="st0" d="M102.7,93.7H92.1V83.2h10.6V93.7z M93.1,92.7h8.6v-8.6h-8.6V92.7z"/>
		</g>
		<g>
			
				<rect x="79.4" y="83.7" transform="matrix(-1 -4.494639e-11 4.494639e-11 -1 168.4587 176.9239)" class="st0" width="9.6" height="9.6"/>
		</g>
		<g>
			
				<rect x="118.6" y="98.7" transform="matrix(-1 -4.485136e-11 4.485136e-11 -1 246.7371 206.9497)" class="st0" width="9.6" height="9.6"/>
		</g>
		<g>
			<path class="st0" d="M115.5,108.8h-10.6V98.2h10.6V108.8z M105.9,107.8h8.6v-8.6h-8.6V107.8z"/>
		</g>
		<g>
			
				<rect x="92.6" y="98.7" transform="matrix(-1 -4.485136e-11 4.485136e-11 -1 194.7693 206.9497)" class="st0" width="9.6" height="9.6"/>
		</g>
		<g>
			
				<rect x="118.6" y="112" transform="matrix(-1 -4.485136e-11 4.485136e-11 -1 246.7371 233.5252)" class="st0" width="9.6" height="9.6"/>
		</g>
		<g>
			
				<rect x="105.4" y="112" transform="matrix(-1 -4.485136e-11 4.485136e-11 -1 220.4265 233.5252)" class="st0" width="9.6" height="9.6"/>
		</g>
	</g>
	<g>
		<path class="st0" d="M100,172.7c-1,0-1.9,0-2.9-0.1c-40.1-1.6-71.4-35.5-69.8-75.5c0.8-19.4,9-37.4,23.3-50.5
			c14.3-13.2,32.8-20,52.2-19.2c19.4,0.8,37.4,9,50.5,23.3s20,32.8,19.2,52.2l0,0C171.1,142,138.8,172.7,100,172.7z M99.9,31.3
			c-17.3,0-33.8,6.4-46.6,18.2C39.9,62,32.1,78.9,31.3,97.3c-0.7,18.3,5.7,35.9,18.2,49.3c12.5,13.5,29.4,21.3,47.8,22
			c37.8,1.5,69.9-28.1,71.4-65.9l2,0.1l-2-0.1c0.7-18.3-5.7-35.9-18.2-49.3c-12.5-13.5-29.4-21.3-47.8-22
			C101.8,31.3,100.9,31.3,99.9,31.3z"/>
	</g>
</g>
</svg>
