<svg xmlns="http://www.w3.org/2000/svg" viewBox="0 0 100 100"><defs><style>.cls-1{fill:#0067fc;}</style></defs><g id="Layer_2" data-name="Layer 2"><g id="Layer_1-2" data-name="Layer 1"><g id="Group_80" data-name="Group 80"><path id="Path_56" data-name="Path 56" class="cls-1" d="M50,100a50,50,0,1,1,50-50A50,50,0,0,1,50,100ZM50,2.75A47.25,47.25,0,1,0,97.25,50,47.26,47.26,0,0,0,50,2.75Z"/></g><path class="cls-1" d="M28,26c0-.7,0-1.34,0-2a4,4,0,1,1,8,0c0,.62,0,1.25,0,1.92h8c0-.62,0-1.24,0-1.85a4,4,0,1,1,8,0V26h8c0-.69,0-1.39,0-2.09a4,4,0,0,1,7.81-1.06A5.65,5.65,0,0,1,68,24.11c0,.6,0,1.21,0,1.85.21,0,.39,0,.57,0h4.06A5,5,0,0,1,78,31.34V54.28c0,.84,0,1.67,0,2.5S77.58,58,77,58s-1-.46-1-1.21V40.05H20V70.71a3,3,0,0,0,3.3,3.3H50.47c1,0,1.5.31,1.51,1s-.47,1-1.48,1H23.37A5,5,0,0,1,18,70.63V31.37A5,5,0,0,1,23.38,26ZM20,38H76c0-2.42,0-4.79,0-7.17A2.93,2.93,0,0,0,73.05,28c-1.23,0-2.46,0-3.69,0H68c0,.72,0,1.34,0,2a4,4,0,1,1-8,0c0-.64,0-1.28,0-1.94H52v1.78a4,4,0,1,1-8,0c0-.6,0-1.19,0-1.79H36c0,.65,0,1.27,0,1.89a4,4,0,1,1-8,0V28c-1.82,0-3.57-.06-5.31,0A2.86,2.86,0,0,0,20,30.79C20,33.17,20,35.54,20,38Zm14-10.9c0-1,0-2,0-2.94A2,2,0,0,0,32,22a2,2,0,0,0-2,2.1C30,26,30,28,30,29.91a2,2,0,1,0,4,0C34,29,34,28,34,27.06ZM46,27c0,1,0,1.92,0,2.88a2,2,0,1,0,4,0C50,28,50,26,50,24.09a2,2,0,1,0-4,0C46,25.09,46,26.05,46,27Zm16,0c0,1,0,2,0,2.94a2,2,0,1,0,4,0c0-1.94,0-3.88,0-5.81a2,2,0,1,0-4,0C62,25.07,62,26,62,27Z"/><path class="cls-1" d="M78,67A13,13,0,1,1,65.15,54,13,13,0,0,1,78,67ZM65,56a11,11,0,1,0,11,11A11,11,0,0,0,65,56Z"/><path class="cls-1" d="M30,45c.67,0,1.34,0,2,0a2,2,0,0,1,2,2c0,1,0,2.08,0,3.12A2,2,0,0,1,32.05,52c-1.38,0-2.75,0-4.13,0A2,2,0,0,1,26,50.08q0-1.56,0-3.12a2,2,0,0,1,2-2C28.64,45,29.33,45,30,45Zm-2,5H32V47H28Z"/><path class="cls-1" d="M41.93,52H40.05A2,2,0,0,1,38,50c0-1,0-2,0-2.93a2,2,0,0,1,2-2c1.31,0,2.62,0,3.94,0a2,2,0,0,1,2,2c0,1,0,2,0,3a2,2,0,0,1-2,2C43.3,52,42.62,52,41.93,52Zm2-2V47.05H40V50Z"/><path class="cls-1" d="M54,52H52.06A2,2,0,0,1,50,50Q50,48.5,50,47a2,2,0,0,1,2-2q2,0,3.93,0a2,2,0,0,1,2,2.06q0,1.44,0,2.88a2,2,0,0,1-2,2C55.29,52,54.64,52,54,52Zm-2-2h3.92V47H52Z"/><path class="cls-1" d="M66,52c-.66,0-1.33,0-2,0a2,2,0,0,1-2-2c0-1,0-2,0-2.93a2,2,0,0,1,2-2c1.34,0,2.67,0,4,0a2,2,0,0,1,2,2q0,1.5,0,3a2,2,0,0,1-2,2C67.34,52,66.67,52,66,52Zm2-2V47.05H64V50Z"/><path class="cls-1" d="M30,61c-.67,0-1.33,0-2,0a2,2,0,0,1-2-2q0-1.47,0-2.94a2,2,0,0,1,2-2c1.33,0,2.66,0,4,0a2,2,0,0,1,2,2q0,1.5,0,3a2,2,0,0,1-2,2C31.3,61,30.66,61,30,61ZM32,56H28V59H32Z"/><path class="cls-1" d="M42,61c-.67,0-1.33,0-2,0a2,2,0,0,1-2-2q0-1.47,0-2.94a2,2,0,0,1,2-2c1.33,0,2.67,0,4,0a2,2,0,0,1,2,2q0,1.5,0,3a2,2,0,0,1-2,2C43.29,61,42.65,61,42,61Zm1.93-2V56.05H40V59Z"/><path class="cls-1" d="M29.92,70H28a2,2,0,0,1-2-2c0-1,0-2,0-3.06A2,2,0,0,1,28,63c1.35,0,2.71,0,4.06,0A2,2,0,0,1,34,65c0,1,0,2.08,0,3.13A2,2,0,0,1,32.05,70C31.34,70,30.63,70,29.92,70ZM28,68H32V65.05H28Z"/><path class="cls-1" d="M42,63h2a2,2,0,0,1,2,2q0,1.53,0,3.06a2,2,0,0,1-2,2c-1.36,0-2.71,0-4.06,0a2,2,0,0,1-2-2q0-1.53,0-3.06a2,2,0,0,1,2-2Zm2,2H40V68H44Z"/><path class="cls-1" d="M52,56v3l.35.13a.93.93,0,0,1,.58,1.17,1,1,0,0,1-1.09.74A2,2,0,0,1,50,59.13q-.06-1.62,0-3.24A1.93,1.93,0,0,1,51.91,54c1.33,0,2.66,0,4,0a1,1,0,1,1,0,2C54.61,56,53.34,56,52,56Z"/><path class="cls-1" d="M72.58,66.4A1.71,1.71,0,0,0,71.52,66c-2.18,0-4.35,0-6.53,0s-4.35,0-6.53,0a1.71,1.71,0,0,0-1.06.38A1,1,0,0,0,57.86,68a2.54,2.54,0,0,0,.68.06h12.9a2.57,2.57,0,0,0,.68-.06A1,1,0,0,0,72.58,66.4Z"/><path class="cls-1" d="M64.38,59.42A1.65,1.65,0,0,0,64,60.48c0,2.17,0,4.35,0,6.53s0,4.35,0,6.53a1.65,1.65,0,0,0,.37,1.06,1,1,0,0,0,1.55-.46,2.61,2.61,0,0,0,.06-.68v-3h0V63.6h0v-3a2.54,2.54,0,0,0-.06-.68A1,1,0,0,0,64.38,59.42Z"/></g></g></svg>