<?xml version="1.0" encoding="utf-8"?>
<!-- Generator: Adobe Illustrator 26.3.1, SVG Export Plug-In . SVG Version: 6.00 Build 0)  -->
<svg version="1.1" id="Layer_1" xmlns="http://www.w3.org/2000/svg" xmlns:xlink="http://www.w3.org/1999/xlink" x="0px" y="0px"
	 viewBox="0 0 200 200" style="enable-background:new 0 0 200 200;" xml:space="preserve">
<style type="text/css">
	.st0{fill:#0067FC;}
	.st1{fill:none;stroke:#0067FC;stroke-width:2.5;stroke-linecap:round;stroke-linejoin:round;stroke-miterlimit:10;}
</style>
<g>
	<g>
		<g>
			<path class="st0" d="M129.6,83.6c-0.7,0-1.2-0.6-1.2-1.2V67.6H71.7v14.7c0,0.7-0.6,1.2-1.2,1.2s-1.2-0.6-1.2-1.2V66.4
				c0-0.7,0.6-1.2,1.2-1.2h59.2c0.7,0,1.2,0.6,1.2,1.2v15.9C130.8,83,130.3,83.6,129.6,83.6z"/>
		</g>
		<g>
			<g id="Group_263_00000169546836142415530520000014638908892589586858_" transform="translate(-598.5 -520.001)">
				<g id="Group_259_00000022559062447113777940000018199209848440099218_" transform="translate(549.903 487.744)">
					<g id="Ellipse_9_00000010271964182723310240000016549585225332574885_">
						<path class="st0" d="M121.2,141.6c-5.9,0-10.7-4.8-10.7-10.7c0-5.9,4.8-10.7,10.7-10.7c5.9,0,10.7,4.8,10.7,10.7
							C131.9,136.8,127.1,141.6,121.2,141.6z M121.2,122.7c-4.5,0-8.2,3.7-8.2,8.2c0,4.5,3.7,8.2,8.2,8.2c4.5,0,8.2-3.7,8.2-8.2
							C129.4,126.4,125.8,122.7,121.2,122.7z"/>
					</g>
					<g id="Path_16_00000043448800079051106080000011339540007788817035_">
						<path class="st0" d="M136.6,159.5c-0.7,0-1.2-0.6-1.2-1.2c0-7.8-6.3-14.1-14.1-14.1s-14.1,6.3-14.1,14.1
							c0,0.7-0.6,1.2-1.2,1.2s-1.2-0.6-1.2-1.2c0-9.2,7.5-16.6,16.6-16.6c9.2,0,16.6,7.5,16.6,16.6
							C137.9,158.9,137.3,159.5,136.6,159.5z"/>
					</g>
				</g>
			</g>
		</g>
		<g>
			<g id="Group_263_00000176752046983440282650000003053128319033723533_" transform="translate(-598.5 -520.001)">
				<g id="Group_259_00000057827173357051445000000014290277651674860682_" transform="translate(549.903 487.744)">
					<g id="Ellipse_9_00000058574956000683258680000011051286821039672201_">
						<path class="st0" d="M175.9,141.6c-5.9,0-10.7-4.8-10.7-10.7c0-5.9,4.8-10.7,10.7-10.7s10.7,4.8,10.7,10.7
							C186.6,136.8,181.8,141.6,175.9,141.6z M175.9,122.7c-4.5,0-8.2,3.7-8.2,8.2c0,4.5,3.7,8.2,8.2,8.2s8.2-3.7,8.2-8.2
							C184.1,126.4,180.5,122.7,175.9,122.7z"/>
					</g>
					<g id="Path_16_00000181785779713822939990000015785671053870932907_">
						<path class="st0" d="M191.3,159.5c-0.7,0-1.2-0.6-1.2-1.2c0-7.8-6.3-14.1-14.1-14.1c-7.8,0-14.1,6.3-14.1,14.1
							c0,0.7-0.6,1.2-1.2,1.2s-1.2-0.6-1.2-1.2c0-9.2,7.5-16.6,16.6-16.6s16.6,7.5,16.6,16.6C192.6,158.9,192,159.5,191.3,159.5z"/>
					</g>
				</g>
			</g>
		</g>
		<g>
			<path class="st1" d="M97.2,106.3"/>
		</g>
		<g>
			<path class="st0" d="M129.6,86.1c-0.3,0-0.6-0.1-0.9-0.4l-3.9-3.9c-0.5-0.5-0.5-1.3,0-1.8s1.3-0.5,1.8,0l3,3l2.9-2.9
				c0.5-0.5,1.3-0.5,1.8,0s0.5,1.3,0,1.8l-3.8,3.8C130.3,86,129.9,86.1,129.6,86.1z"/>
		</g>
		<g>
			<path class="st0" d="M70.5,86.1c-0.3,0-0.6-0.1-0.9-0.4l-3.9-3.9c-0.5-0.5-0.5-1.3,0-1.8s1.3-0.5,1.8,0l3,3l2.9-2.9
				c0.5-0.5,1.3-0.5,1.8,0s0.5,1.3,0,1.8l-3.8,3.8C71.1,86,70.8,86.1,70.5,86.1z"/>
		</g>
	</g>
	<g>
		<path class="st0" d="M100,172.7c-40.1,0-72.7-32.6-72.7-72.7S59.9,27.3,100,27.3s72.7,32.6,72.7,72.7S140.1,172.7,100,172.7z
			 M100,31.3c-37.9,0-68.7,30.8-68.7,68.7c0,37.9,30.8,68.7,68.7,68.7c37.9,0,68.7-30.8,68.7-68.7C168.7,62.1,137.9,31.3,100,31.3z"
			/>
	</g>
</g>
</svg>
