<?xml version="1.0" encoding="utf-8"?>
<!-- Generator: Adobe Illustrator 26.1.0, SVG Export Plug-In . SVG Version: 6.00 Build 0)  -->
<svg version="1.1" id="Layer_1" xmlns="http://www.w3.org/2000/svg" xmlns:xlink="http://www.w3.org/1999/xlink" x="0px" y="0px"
	 viewBox="0 0 200 200" style="enable-background:new 0 0 200 200;" xml:space="preserve">
<style type="text/css">
	.st0{fill:#0067FC;}
</style>
<g id="Layer_2_00000122711961020507474320000002719813308488350129_">
	<g>
		<g>
			<g>
				<path class="st0" d="M116.1,142.8c-0.7,0-1.3-0.6-1.3-1.3v-8.8c0-3,2.5-5.5,5.5-5.5h8.8c0.7,0,1.3,0.6,1.3,1.3
					c0,0.7-0.6,1.3-1.3,1.3h-8.8c-1.6,0-3,1.3-3,3v8.8C117.4,142.3,116.8,142.8,116.1,142.8z"/>
			</g>
			<g>
				<g>
					<path class="st0" d="M117.1,143.3h-42c-3,0-5.5-2.5-5.5-5.5V62.2c0-3,2.5-5.5,5.5-5.5h49.8c3,0,5.5,2.5,5.5,5.5v66.3
						c0,0.3-0.1,0.6-0.3,0.8L118,142.8C117.8,143.1,117.5,143.3,117.1,143.3z M75.1,59.3c-1.6,0-3,1.3-3,3v75.5c0,1.6,1.3,3,3,3
						h41.5l11.3-12.7V62.2c0-1.6-1.3-3-3-3L75.1,59.3L75.1,59.3z"/>
				</g>
				<g>
					<g>
						<path class="st0" d="M105.9,134.7H94.2c-2.4,0-4.4-1.9-4.4-4.3v-17c0-0.6,0.4-1,1-1s1,0.4,1,1v17c0,1.3,1.1,2.3,2.4,2.3h11.7
							c1.3,0,2.4-1,2.4-2.3v-17c0-0.6,0.4-1,1-1s1,0.4,1,1v17C110.3,132.8,108.3,134.7,105.9,134.7z"/>
					</g>
					<g>
						<path class="st0" d="M109.2,114.4H90.8c-1.5,0-2.7-1.2-2.7-2.7s1.2-2.7,2.7-2.7h18.4c1.5,0,2.7,1.2,2.7,2.7
							S110.7,114.4,109.2,114.4z M90.8,111c-0.4,0-0.7,0.3-0.7,0.7s0.3,0.7,0.7,0.7h18.4c0.4,0,0.7-0.3,0.7-0.7s-0.3-0.7-0.7-0.7
							H90.8z"/>
					</g>
					<g>
						<path class="st0" d="M105,111H95c-0.6,0-1-0.4-1-1v-2.2c0-1.4,1.1-2.5,2.5-2.5h6.9c1.4,0,2.5,1.1,2.5,2.5v2.2
							C106,110.5,105.5,111,105,111z M96,109h8v-1.2c0-0.3-0.2-0.5-0.5-0.5h-6.9c-0.3,0-0.5,0.2-0.5,0.5L96,109L96,109z"/>
					</g>
					<g>
						<path class="st0" d="M104,129.9c-0.6,0-1-0.4-1-1v-12.1c0-0.6,0.4-1,1-1s1,0.4,1,1v12.1C105,129.5,104.6,129.9,104,129.9z"/>
					</g>
					<g>
						<path class="st0" d="M100,129.9c-0.6,0-1-0.4-1-1v-12.1c0-0.6,0.4-1,1-1s1,0.4,1,1v12.1C101,129.5,100.5,129.9,100,129.9z"/>
					</g>
					<g>
						<path class="st0" d="M96,129.9c-0.6,0-1-0.4-1-1v-12.1c0-0.6,0.4-1,1-1s1,0.4,1,1v12.1C97,129.5,96.5,129.9,96,129.9z"/>
					</g>
				</g>
			</g>
		</g>
		<g>
			<path class="st0" d="M100,172.7c-40.1,0-72.7-32.6-72.7-72.7S59.9,27.3,100,27.3s72.7,32.6,72.7,72.7S140.1,172.7,100,172.7z
				 M100,31.3c-37.9,0-68.7,30.8-68.7,68.7s30.8,68.7,68.7,68.7s68.7-30.8,68.7-68.7S137.9,31.3,100,31.3z"/>
		</g>
		<g>
			<path class="st0" d="M87.7,91.5h-8.6c-0.6,0-1-0.4-1-1v-8.1c0-0.6,0.4-1,1-1h8.6c0.6,0,1,0.4,1,1v8.1
				C88.7,91,88.3,91.5,87.7,91.5z M80.1,89.5h6.6v-6.1h-6.6V89.5z"/>
		</g>
		<g>
			<path class="st0" d="M104.7,91.2H96c-0.6,0-1-0.4-1-1v-8.1c0-0.6,0.4-1,1-1h8.6c0.6,0,1,0.4,1,1v8.1
				C105.7,90.7,105.2,91.2,104.7,91.2z M97,89.2h6.6v-6.1H97V89.2z"/>
		</g>
		<g>
			<path class="st0" d="M100,80c-0.6,0-1-0.4-1-1v-2.1H84.5V79c0,0.6-0.4,1-1,1s-1-0.4-1-1v-3.1c0-0.6,0.4-1,1-1H100
				c0.6,0,1,0.4,1,1V79C101,79.6,100.5,80,100,80z"/>
		</g>
		<g>
			<path class="st0" d="M117.8,97.6h-17.5c-0.6,0-1-0.4-1-1v-3.1c0-0.6,0.4-1,1-1s1,0.4,1,1v2.1h15.5v-2.1c0-0.6,0.4-1,1-1
				s1,0.4,1,1v3.1C118.8,97.2,118.4,97.6,117.8,97.6z"/>
		</g>
		<g>
			<path class="st0" d="M121.6,91.2H113c-0.6,0-1-0.4-1-1v-8.1c0-0.6,0.4-1,1-1h8.6c0.6,0,1,0.4,1,1v8.1
				C122.6,90.7,122.2,91.2,121.6,91.2z M114,89.2h6.6v-6.1H114V89.2z"/>
		</g>
	</g>
</g>
</svg>
