<?xml version="1.0" encoding="utf-8"?>
<!-- Generator: Adobe Illustrator 26.3.1, SVG Export Plug-In . SVG Version: 6.00 Build 0)  -->
<svg version="1.1" id="Layer_1" xmlns="http://www.w3.org/2000/svg" xmlns:xlink="http://www.w3.org/1999/xlink" x="0px" y="0px"
	 viewBox="0 0 200 200" style="enable-background:new 0 0 200 200;" xml:space="preserve">
<style type="text/css">
	.st0{fill:#0067FC;}
</style>
<g>
	<g>
		<path class="st0" d="M100,172.7c-40.1,0-72.7-32.6-72.7-72.7S59.9,27.3,100,27.3s72.7,32.6,72.7,72.7S140.1,172.7,100,172.7z
			 M100,31.3c-37.9,0-68.7,30.8-68.7,68.7c0,37.9,30.8,68.7,68.7,68.7c37.9,0,68.7-30.8,68.7-68.7C168.7,62.1,137.9,31.3,100,31.3z"
			/>
	</g>
	<g>
		<g>
			<g>
				<path class="st0" d="M131.7,118.2C131.7,118.2,131.7,118.2,131.7,118.2c-3.2,0-5.7-2.5-5.7-5.7l0,0c0-3.2,2.5-5.8,5.7-5.8
					c1.5,0,3,0.6,4.1,1.7c1.1,1.1,1.7,2.6,1.7,4.1C137.5,115.6,134.9,118.2,131.7,118.2z M131.7,108.3
					C131.7,108.3,131.7,108.3,131.7,108.3c-2.3,0-4.1,1.8-4.1,4.1v0c0,2.3,1.8,4.1,4.1,4.1c0,0,0,0,0,0c2.3,0,4.1-1.8,4.1-4.1
					c0-1.1-0.4-2.1-1.2-2.9C133.8,108.7,132.8,108.3,131.7,108.3z M131.7,115.9c-0.9,0-1.8-0.4-2.5-1c-0.7-0.7-1.1-1.6-1.1-2.5
					c0-0.9,0.4-1.8,1-2.5c0.7-0.7,1.5-1,2.5-1l0,0c0,0,0,0,0,0c0.9,0,1.8,0.4,2.5,1c0.7,0.7,1,1.5,1,2.5
					C135.2,114.3,133.7,115.9,131.7,115.9C131.7,115.9,131.7,115.9,131.7,115.9z M131.7,110.5L131.7,110.5c-0.5,0-1,0.2-1.3,0.5
					c-0.3,0.4-0.5,0.8-0.5,1.3c0,0.5,0.2,1,0.6,1.3c0.4,0.4,0.9,0.5,1.3,0.5c1,0,1.8-0.8,1.8-1.9c0-0.5-0.2-1-0.5-1.3
					C132.7,110.7,132.2,110.5,131.7,110.5C131.7,110.5,131.7,110.5,131.7,110.5z"/>
			</g>
			<g>
				<path class="st0" d="M76.5,118.2C76.5,118.2,76.5,118.2,76.5,118.2c-3.2,0-5.7-2.5-5.7-5.7l0,0c0-3.2,2.5-5.8,5.7-5.8
					c0,0,0,0,0,0c1.5,0,3,0.6,4.1,1.7c1.1,1.1,1.7,2.6,1.7,4.1C82.2,115.6,79.6,118.2,76.5,118.2z M76.5,108.3
					C76.5,108.3,76.5,108.3,76.5,108.3c-2.3,0-4.1,1.8-4.1,4.1c0,2.3,1.8,4.1,4.1,4.1c0,0,0,0,0,0c2.3,0,4.1-1.8,4.1-4.1
					c0-1.1-0.4-2.1-1.2-2.9C78.6,108.7,77.6,108.3,76.5,108.3z M76.5,115.9c-0.9,0-1.8-0.4-2.5-1c-0.7-0.7-1.1-1.6-1.1-2.5
					c0-0.9,0.4-1.8,1-2.5c0.7-0.7,1.5-1,2.5-1h0c0,0,0,0,0,0c0.9,0,1.8,0.4,2.5,1c0.7,0.7,1,1.5,1,2.5
					C80,114.3,78.4,115.9,76.5,115.9C76.5,115.9,76.5,115.9,76.5,115.9z M76.5,110.5L76.5,110.5c-0.5,0-1,0.2-1.3,0.5
					c-0.4,0.4-0.5,0.8-0.5,1.3c0,0.5,0.2,1,0.6,1.3c0.4,0.4,0.8,0.5,1.3,0.5c1,0,1.8-0.8,1.8-1.9c0-0.5-0.2-1-0.5-1.3
					C77.4,110.7,77,110.5,76.5,110.5C76.5,110.5,76.5,110.5,76.5,110.5z"/>
			</g>
			<g>
				<path class="st0" d="M62.4,111.3c-0.4,0-0.9,0-1.3,0c-2.6,0-4.4-1.8-4.4-4.4c0-9,0.9-17.2,2.9-24.9c0.1-0.2,0.1-0.5,0.2-0.7
					c0-0.2,0.1-0.4,0.1-0.6c0.6-2.4,2.3-3.8,4.8-3.8l28.9,0c1.3,0,2.7,0,4,0c2.9,0,5.9,0,8.9,0c7-0.2,13,2.4,17.8,7.7
					c2,2.2,4.2,4.4,6.3,6.6c0.7,0.7,1.4,1.5,2.1,2.2c0.1,0.1,0.5,0.3,0.6,0.3c0.9,0.4,1.8,0.8,2.7,1.1c1.7,0.7,3.5,1.4,5.2,2.2
					c2.8,1.3,4.3,3.6,4.3,6.7l0,0c0,1.5,0,2.9,0,4.4c0,2-1.2,3.2-3.2,3.2c-0.8,0-1.6,0-2.4,0l-0.7,0c-0.2,0-0.4-0.1-0.4-0.1
					l-0.6-0.2l-0.1-0.7c-0.1-2.2-1-3.8-2.6-5.1c-1.2-0.9-2.5-1.3-4.1-1.3c-3.3,0.1-5.4,2.3-6.2,6.5l-0.2,0.8H83l-0.2-0.8
					c-1.4-5.8-4.3-6.5-6.5-6.5c0,0,0,0,0,0c-3.4,0-5.5,2.1-6.5,6.6l-0.2,0.8l-6.3,0C63.1,111.3,62.7,111.3,62.4,111.3z M93.7,78.9
					C93.7,78.9,93.7,78.9,93.7,78.9l-28.9,0c-1.6,0-2.5,0.7-2.9,2.2c0,0.2-0.1,0.4-0.1,0.6c-0.1,0.3-0.1,0.5-0.2,0.8
					c-2,7.6-2.9,15.5-2.9,24.4c0,1.5,0.9,2.4,2.4,2.4c0.8,0,1.5,0,2.3,0l4.7,0c1.3-4.9,4.1-7.3,8.3-7.3c0,0,0,0,0,0
					c4.1,0,6.9,2.4,8.2,7.3h38.9c1.2-4.6,3.9-7.2,7.9-7.3c2,0,3.8,0.5,5.3,1.7c1.9,1.4,3,3.3,3.3,5.7c0.8,0,1.6,0,2.4,0
					c0.9,0,1.2-0.3,1.2-1.2c0-1.5,0-2.9,0-4.4l0,0c0-2.4-1-4-3.1-4.9c-1.7-0.8-3.4-1.5-5.1-2.2c-0.9-0.4-1.8-0.7-2.8-1.1
					c-0.4-0.2-0.9-0.4-1.2-0.8c-0.7-0.7-1.4-1.5-2.1-2.2c-2.1-2.1-4.3-4.4-6.3-6.6c-4.5-4.9-9.7-7.2-16.3-7.1c-3,0.1-6,0.1-9,0
					C96.3,78.9,95,78.9,93.7,78.9z"/>
			</g>
		</g>
	</g>
	<g>
		<g>
			<path class="st0" d="M93.6,104.2c-5.9,0-10.6-4.8-10.6-10.6C83,87.7,87.7,83,93.6,83c5.9,0,10.6,4.8,10.6,10.6
				C104.2,99.5,99.5,104.2,93.6,104.2z M93.6,84.9c-4.8,0-8.7,3.9-8.7,8.7c0,4.8,3.9,8.7,8.7,8.7c4.8,0,8.7-3.9,8.7-8.7
				C102.3,88.8,98.4,84.9,93.6,84.9z"/>
		</g>
	</g>
	<g>
		<path class="st0" d="M90.9,97.2C90.9,97.2,90.8,97.2,90.9,97.2c-0.3,0-0.6-0.1-0.7-0.3l-1.9-2.3c-0.3-0.4-0.3-1,0.1-1.4
			c0.4-0.3,1-0.3,1.4,0.1l1.3,1.5l5.2-4.7c0.4-0.4,1-0.3,1.4,0.1c0.4,0.4,0.3,1-0.1,1.4l-5.9,5.4C91.4,97.1,91.1,97.2,90.9,97.2z"/>
	</g>
	<g>
		<path class="st0" d="M140,102.9c-0.8-1-0.8-1.6-0.8-2.1c0.2-1.5,2-0.3,2.5,0c0.8,0.6,1.2,1.4,1.4,2.1
			C144.2,106.2,140,102.9,140,102.9z"/>
	</g>
	<g>
		<path class="st0" d="M128.1,94.1c-4.3-0.6-8.5-1.3-12.8-1.9c-1.8-0.3-2.5-1-2.8-2.7c-0.3-1.6-0.5-3.3-0.8-4.9
			c-0.2-1.3,0.3-1.8,1.6-1.8c0.3,0,0.6,0,0.9,0c3.1,0.1,5.8,1.1,8,3.4c2.2,2.3,4.3,4.5,6.4,6.8c0.2,0.2,0.3,0.6,0.4,0.9
			C128.8,93.9,128.4,94.2,128.1,94.1z"/>
	</g>
	<g>
		<path class="st0" d="M116.8,96.3h-3c-0.2,0-0.4-0.2-0.4-0.4c0-0.2,0.2-0.4,0.4-0.4h3c0.2,0,0.4,0.2,0.4,0.4
			C117.2,96.1,117,96.3,116.8,96.3z"/>
	</g>
	<g>
		<path class="st0" d="M60,106.2c0,0.3-0.3,0.5-0.5,0.5c-0.3,0-0.5-0.3-0.5-0.5l0.4-5.6c0-0.3,0.3-0.5,0.5-0.5
			c0.3,0,0.5,0.3,0.5,0.5L60,106.2z"/>
	</g>
</g>
</svg>
