<?xml version="1.0" encoding="utf-8"?>
<!-- Generator: Adobe Illustrator 26.3.1, SVG Export Plug-In . SVG Version: 6.00 Build 0)  -->
<svg version="1.1" id="Layer_1" xmlns="http://www.w3.org/2000/svg" xmlns:xlink="http://www.w3.org/1999/xlink" x="0px" y="0px"
	 viewBox="0 0 200 200" style="enable-background:new 0 0 200 200;" xml:space="preserve">
<style type="text/css">
	.st0{fill:#0067FC;}
</style>
<g>
	<g>
		<g id="Group_263_00000149363551911408731980000003180040852435453101_" transform="translate(-598.5 -520.001)">
			<g id="Group_259_00000060015644809478204490000008117903178238449070_" transform="translate(549.903 487.744)">
				<g id="Ellipse_9_00000054244408725405497890000004712672244637097903_">
					<path class="st0" d="M178.5,130.8c-3.5,0-6.3-2.8-6.3-6.3s2.8-6.3,6.3-6.3s6.3,2.8,6.3,6.3S181.9,130.8,178.5,130.8z
						 M178.5,120.7c-2.1,0-3.8,1.7-3.8,3.8s1.7,3.8,3.8,3.8s3.8-1.7,3.8-3.8S180.6,120.7,178.5,120.7z"/>
				</g>
				<g id="Path_16_00000024716853130887349300000003049593556141183116_">
					<path class="st0" d="M186.7,140.4c-0.7,0-1.2-0.6-1.2-1.2c0-3.9-3.1-7-7-7s-7,3.1-7,7c0,0.7-0.6,1.2-1.2,1.2s-1.2-0.6-1.2-1.2
						c0-5.2,4.3-9.5,9.5-9.5c5.2,0,9.5,4.3,9.5,9.5C188,139.9,187.4,140.4,186.7,140.4z"/>
				</g>
			</g>
		</g>
	</g>
	<g>
		<path class="st0" d="M71.1,111.2c-0.7,0-1.2-0.6-1.2-1.2V62.2c0-3,2.5-5.5,5.5-5.5h42c0.4,0,0.7,0.2,0.9,0.4l12.1,13.5
			c0.2,0.2,0.3,0.5,0.3,0.8V79c0,0.7-0.6,1.2-1.2,1.2s-1.2-0.6-1.2-1.2v-7l-11.4-12.8H75.4c-1.7,0-3,1.3-3,3V110
			C72.4,110.7,71.8,111.2,71.1,111.2z"/>
	</g>
	<g>
		<path class="st0" d="M125.2,143.3H75.4c-3,0-5.5-2.5-5.5-5.5v-31c0-0.7,0.6-1.2,1.2-1.2s1.2,0.6,1.2,1.2v31c0,1.7,1.3,3,3,3h49.8
			c1.7,0,3-1.3,3-3v-22.6c0-0.7,0.6-1.2,1.2-1.2s1.2,0.6,1.2,1.2v22.6C130.7,140.8,128.2,143.3,125.2,143.3z"/>
	</g>
	<g>
		<path class="st0" d="M129.4,72.8h-8.8c-3,0-5.5-2.5-5.5-5.5v-8.8c0-0.7,0.6-1.2,1.2-1.2s1.2,0.6,1.2,1.2v8.8c0,1.7,1.3,3,3,3h8.8
			c0.7,0,1.2,0.6,1.2,1.2S130.1,72.8,129.4,72.8z"/>
	</g>
	<g>
		<path class="st0" d="M129.4,115.6c-10,0-18.2-8.2-18.2-18.2c0-10,8.2-18.2,18.2-18.2s18.2,8.2,18.2,18.2
			C147.6,107.4,139.5,115.6,129.4,115.6z M129.4,81.5c-8.7,0-15.9,7.1-15.9,15.9s7.1,15.9,15.9,15.9s15.9-7.1,15.9-15.9
			S138.2,81.5,129.4,81.5z"/>
	</g>
	<g>
		<path class="st0" d="M100,172.7c-40.1,0-72.7-32.6-72.7-72.7S59.9,27.3,100,27.3s72.7,32.6,72.7,72.7S140.1,172.7,100,172.7z
			 M100,31.3c-37.9,0-68.7,30.8-68.7,68.7c0,37.9,30.8,68.7,68.7,68.7c37.9,0,68.7-30.8,68.7-68.7C168.7,62.1,137.9,31.3,100,31.3z"
			/>
	</g>
	<g>
		<g>
			<path class="st0" d="M113.8,117.9h-27c-0.7,0-1.2-0.6-1.2-1.2s0.6-1.2,1.2-1.2h27c0.7,0,1.2,0.6,1.2,1.2S114.5,117.9,113.8,117.9
				z"/>
		</g>
		<g>
			<path class="st0" d="M113.8,124.9h-27c-0.7,0-1.2-0.6-1.2-1.2s0.6-1.2,1.2-1.2h27c0.7,0,1.2,0.6,1.2,1.2S114.5,124.9,113.8,124.9
				z"/>
		</g>
		<g>
			<path class="st0" d="M103.8,132h-17c-0.7,0-1.2-0.6-1.2-1.2s0.6-1.2,1.2-1.2h17c0.7,0,1.2,0.6,1.2,1.2S104.5,132,103.8,132z"/>
		</g>
		<g>
			<path class="st0" d="M79.8,119.3c-0.3,0-0.6-0.1-0.9-0.4l-1.4-1.4c-0.5-0.5-0.5-1.3,0-1.8c0.5-0.5,1.3-0.5,1.8,0l0.5,0.5l1.9-1.9
				c0.5-0.5,1.3-0.5,1.8,0c0.5,0.5,0.5,1.3,0,1.8l-2.8,2.8C80.5,119.2,80.2,119.3,79.8,119.3z"/>
		</g>
		<g>
			<path class="st0" d="M108.1,110.3H86.8c-0.7,0-1.2-0.6-1.2-1.2s0.6-1.2,1.2-1.2h21.3c0.7,0,1.2,0.6,1.2,1.2
				S108.7,110.3,108.1,110.3z"/>
		</g>
		<g>
			<path class="st0" d="M79.8,111.8c-0.3,0-0.6-0.1-0.9-0.4l-1.4-1.4c-0.5-0.5-0.5-1.3,0-1.8c0.5-0.5,1.3-0.5,1.8,0l0.5,0.5l1.9-1.9
				c0.5-0.5,1.3-0.5,1.8,0c0.5,0.5,0.5,1.3,0,1.8l-2.8,2.8C80.5,111.6,80.2,111.8,79.8,111.8z"/>
		</g>
		<g>
			<path class="st0" d="M79.8,126.3L79.8,126.3c-0.3,0-0.6-0.1-0.9-0.4l-1.4-1.4c-0.5-0.5-0.5-1.3,0-1.8s1.3-0.5,1.8,0l0.5,0.5
				l1.9-1.9c0.5-0.5,1.3-0.5,1.8,0s0.5,1.3,0,1.8l-2.8,2.8C80.5,126.2,80.2,126.3,79.8,126.3z"/>
		</g>
		<g>
			<path class="st0" d="M79.8,132.8c-0.3,0-0.6-0.1-0.9-0.4l-1.4-1.4c-0.5-0.5-0.5-1.3,0-1.8c0.5-0.5,1.3-0.5,1.8,0l0.5,0.5l1.9-1.9
				c0.5-0.5,1.3-0.5,1.8,0c0.5,0.5,0.5,1.3,0,1.8l-2.8,2.8C80.5,132.7,80.2,132.8,79.8,132.8z"/>
		</g>
	</g>
	<g>
		<path class="st0" d="M106.4,81.1h-28c-0.7,0-1.2-0.6-1.2-1.2s0.6-1.2,1.2-1.2h28c0.7,0,1.2,0.6,1.2,1.2S107.1,81.1,106.4,81.1z"/>
	</g>
	<g>
		<path class="st0" d="M106.4,87.9h-28c-0.7,0-1.2-0.6-1.2-1.2s0.6-1.2,1.2-1.2h28c0.7,0,1.2,0.6,1.2,1.2S107.1,87.9,106.4,87.9z"/>
	</g>
	<g>
		<path class="st0" d="M99.8,94.7H78.4c-0.7,0-1.2-0.6-1.2-1.2s0.6-1.2,1.2-1.2h21.4c0.7,0,1.2,0.6,1.2,1.2S100.5,94.7,99.8,94.7z"
			/>
	</g>
	<g>
		<path class="st0" d="M93.8,101.5H78.4c-0.7,0-1.2-0.6-1.2-1.2s0.6-1.2,1.2-1.2h15.4c0.7,0,1.2,0.6,1.2,1.2S94.5,101.5,93.8,101.5z
			"/>
	</g>
	<g>
		<path class="st0" d="M105.2,74.3H78.4c-0.7,0-1.2-0.6-1.2-1.2s0.6-1.2,1.2-1.2h26.8c0.7,0,1.2,0.6,1.2,1.2S105.9,74.3,105.2,74.3z
			"/>
	</g>
</g>
</svg>
