<?xml version="1.0" encoding="utf-8"?>
<!-- Generator: Adobe Illustrator 26.3.1, SVG Export Plug-In . SVG Version: 6.00 Build 0)  -->
<svg version="1.1" id="Layer_1" xmlns="http://www.w3.org/2000/svg" xmlns:xlink="http://www.w3.org/1999/xlink" x="0px" y="0px"
	 viewBox="0 0 200 200" style="enable-background:new 0 0 200 200;" xml:space="preserve">
<style type="text/css">
	.st0{fill:#0067FC;}
</style>
<g>
	<g>
		<path class="st0" d="M100,172.7c-40.1,0-72.7-32.6-72.7-72.7S59.9,27.3,100,27.3s72.7,32.6,72.7,72.7S140.1,172.7,100,172.7z
			 M100,31.3c-37.9,0-68.7,30.8-68.7,68.7c0,37.9,30.8,68.7,68.7,68.7c37.9,0,68.7-30.8,68.7-68.7C168.7,62.1,137.9,31.3,100,31.3z"
			/>
	</g>
	<g>
		<path class="st0" d="M110.5,124.5h-30c-0.7,0-1.2-0.6-1.2-1.2s0.6-1.2,1.2-1.2h30c0.7,0,1.2,0.6,1.2,1.2S111.2,124.5,110.5,124.5z
			"/>
	</g>
	<g>
		<path class="st0" d="M108.7,130.2H80.5c-0.7,0-1.2-0.6-1.2-1.2s0.6-1.2,1.2-1.2h28.2c0.7,0,1.2,0.6,1.2,1.2
			S109.4,130.2,108.7,130.2z"/>
	</g>
	<g>
		<path class="st0" d="M106.9,135.9H80.5c-0.7,0-1.2-0.6-1.2-1.2s0.6-1.2,1.2-1.2h26.4c0.7,0,1.2,0.6,1.2,1.2
			S107.6,135.9,106.9,135.9z"/>
	</g>
	<g>
		<path class="st0" d="M116.2,76.4c-0.7,0-1.2-0.6-1.2-1.2v-4.2h-4.1c-0.7,0-1.2-0.6-1.2-1.2s0.6-1.2,1.2-1.2h5.4
			c0.7,0,1.2,0.6,1.2,1.2v5.5C117.5,75.8,116.9,76.4,116.2,76.4z"/>
	</g>
	<g>
		<path class="st0" d="M83,92.1c-0.7,0-1.2-0.6-1.2-1.2v-5.6c0-0.7,0.6-1.2,1.2-1.2s1.2,0.6,1.2,1.2v5.6
			C84.3,91.6,83.7,92.1,83,92.1z"/>
	</g>
	<g>
		<path class="st0" d="M91.1,91.6c-0.7,0-1.2-0.6-1.2-1.2v-2.2c0-0.7,0.6-1.2,1.2-1.2s1.2,0.6,1.2,1.2v2.2
			C92.3,91.1,91.8,91.6,91.1,91.6z"/>
	</g>
	<g>
		<path class="st0" d="M98.6,91.6c-0.7,0-1.2-0.6-1.2-1.2v-9.5c0-0.7,0.6-1.2,1.2-1.2s1.2,0.6,1.2,1.2v9.5
			C99.8,91.1,99.3,91.6,98.6,91.6z"/>
	</g>
	<g>
		<path class="st0" d="M107,91.6c-0.7,0-1.2-0.6-1.2-1.2v-7.3c0-0.7,0.6-1.2,1.2-1.2s1.2,0.6,1.2,1.2v7.3
			C108.3,91.1,107.7,91.6,107,91.6z"/>
	</g>
	<g>
		<path class="st0" d="M115.1,91.3c-0.7,0-1.2-0.6-1.2-1.2V79.2c0-0.7,0.6-1.2,1.2-1.2s1.2,0.6,1.2,1.2V90
			C116.4,90.7,115.8,91.3,115.1,91.3z"/>
	</g>
	<g>
		<path class="st0" d="M90.2,84.4c-0.2,0-0.4,0-0.6-0.1l-7.2-3.8c-0.6-0.3-0.8-1.1-0.5-1.7c0.3-0.6,1.1-0.8,1.7-0.5l6.4,3.3l7.8-7.4
			c0.4-0.4,0.9-0.5,1.4-0.2l7.7,3.7l7.4-7.6c0.5-0.5,1.3-0.5,1.8,0c0.5,0.5,0.5,1.3,0,1.8l-8.1,8.2c-0.4,0.4-1,0.5-1.4,0.3l-7.7-3.7
			L91,84C90.8,84.3,90.5,84.4,90.2,84.4z"/>
	</g>
	<g>
		<g>
			<path class="st0" d="M92.6,118.1c-5.8,0-10.6-4.8-10.6-10.6s4.8-10.6,10.6-10.6c0.7,0,1.2,0.6,1.2,1.2v8.1h8.1
				c0.7,0,1.2,0.6,1.2,1.2C103.2,113.3,98.5,118.1,92.6,118.1z M91.4,99.5c-3.9,0.6-6.9,4-6.9,8c0,4.5,3.6,8.1,8.1,8.1
				c4,0,7.4-3,8-6.9h-8c-0.7,0-1.2-0.6-1.2-1.2V99.5z"/>
		</g>
		<g>
			<path class="st0" d="M94.8,95.7v9.4l9.4,0C104.2,99.9,100,95.7,94.8,95.7z"/>
		</g>
	</g>
	<g>
		<g>
			<path class="st0" d="M118.2,144.1h-42c-3,0-5.5-2.5-5.5-5.5V90.9c0-0.7,0.6-1.2,1.2-1.2s1.2,0.6,1.2,1.2v47.7c0,1.7,1.3,3,3,3
				h41.5l11.4-12.8v-7c0-0.7,0.6-1.2,1.2-1.2s1.2,0.6,1.2,1.2v7.4c0,0.3-0.1,0.6-0.3,0.8l-12.1,13.5
				C118.9,144,118.6,144.1,118.2,144.1z"/>
		</g>
		<g>
			<path class="st0" d="M71.9,95.3c-0.7,0-1.2-0.6-1.2-1.2v-31c0-3,2.5-5.5,5.5-5.5H126c3,0,5.5,2.5,5.5,5.5v22.6
				c0,0.7-0.6,1.2-1.2,1.2s-1.2-0.6-1.2-1.2V63.1c0-1.7-1.3-3-3-3H76.2c-1.7,0-3,1.3-3,3v31C73.2,94.7,72.6,95.3,71.9,95.3z"/>
		</g>
		<g>
			<path class="st0" d="M117.2,143.7c-0.7,0-1.2-0.6-1.2-1.2v-8.8c0-3,2.5-5.5,5.5-5.5h8.8c0.7,0,1.2,0.6,1.2,1.2s-0.6,1.2-1.2,1.2
				h-8.8c-1.7,0-3,1.3-3,3v8.8C118.5,143.1,117.9,143.7,117.2,143.7z"/>
		</g>
		<g>
			<path class="st0" d="M130.3,122.5c-10,0-18.2-8.2-18.2-18.2c0-10,8.2-18.2,18.2-18.2s18.2,8.2,18.2,18.2
				C148.5,114.3,140.3,122.5,130.3,122.5z M130.3,88.4c-8.7,0-15.9,7.1-15.9,15.9c0,8.7,7.1,15.9,15.9,15.9s15.9-7.1,15.9-15.9
				C146.1,95.5,139,88.4,130.3,88.4z"/>
		</g>
	</g>
	<g>
		<path class="st0" d="M128.5,109.9C128.4,109.9,128.4,109.9,128.5,109.9c-0.4,0-0.7-0.2-0.9-0.4l-3.2-3.7c-0.4-0.5-0.4-1.2,0.1-1.7
			c0.5-0.4,1.2-0.4,1.7,0.1l2.4,2.8l8.8-8.1c0.5-0.4,1.2-0.4,1.7,0.1c0.4,0.5,0.4,1.2-0.1,1.7l-9.7,8.9
			C129,109.8,128.8,109.9,128.5,109.9z"/>
	</g>
</g>
</svg>
