<?xml version="1.0" encoding="utf-8"?>
<!-- Generator: Adobe Illustrator 26.3.1, SVG Export Plug-In . SVG Version: 6.00 Build 0)  -->
<svg version="1.1" id="Layer_1" xmlns="http://www.w3.org/2000/svg" xmlns:xlink="http://www.w3.org/1999/xlink" x="0px" y="0px"
	 viewBox="0 0 200 200" style="enable-background:new 0 0 200 200;" xml:space="preserve">
<style type="text/css">
	.st0{fill:#0067FC;}
</style>
<g>
	<g>
		<g>
			<path class="st0" d="M115.2,112.4h-22c-0.7,0-1.2-0.6-1.2-1.2s0.6-1.2,1.2-1.2h22c0.7,0,1.2,0.6,1.2,1.2S115.9,112.4,115.2,112.4
				z"/>
		</g>
		<g>
			<path class="st0" d="M115.2,119.4h-22c-0.7,0-1.2-0.6-1.2-1.2s0.6-1.2,1.2-1.2h22c0.7,0,1.2,0.6,1.2,1.2S115.9,119.4,115.2,119.4
				z"/>
		</g>
		<g>
			<path class="st0" d="M110.2,126.4h-17c-0.7,0-1.2-0.6-1.2-1.2s0.6-1.2,1.2-1.2h17c0.7,0,1.2,0.6,1.2,1.2S110.9,126.4,110.2,126.4
				z"/>
		</g>
		<g>
			<path class="st0" d="M86.2,113.8c-0.3,0-0.6-0.1-0.9-0.4L84,112c-0.5-0.5-0.5-1.3,0-1.8c0.5-0.5,1.3-0.5,1.8,0l0.5,0.5l1.9-1.9
				c0.5-0.5,1.3-0.5,1.8,0s0.5,1.3,0,1.8l-2.8,2.8C86.9,113.6,86.6,113.8,86.2,113.8z"/>
		</g>
		<g>
			<path class="st0" d="M86.2,120.8c-0.3,0-0.6-0.1-0.9-0.4L84,119c-0.5-0.5-0.5-1.3,0-1.8s1.3-0.5,1.8,0l0.5,0.5l1.9-1.9
				c0.5-0.5,1.3-0.5,1.8,0s0.5,1.3,0,1.8l-2.8,2.8C86.9,120.7,86.6,120.8,86.2,120.8z"/>
		</g>
		<g>
			<path class="st0" d="M86.2,127.3c-0.3,0-0.6-0.1-0.9-0.4l-1.4-1.4c-0.5-0.5-0.5-1.3,0-1.8s1.3-0.5,1.8,0l0.5,0.5l1.9-1.9
				c0.5-0.5,1.3-0.5,1.8,0s0.5,1.3,0,1.8l-2.8,2.8C86.9,127.1,86.6,127.3,86.2,127.3z"/>
		</g>
	</g>
	<g>
		<circle class="st0" cx="100" cy="132.3" r="2.1"/>
	</g>
	<g>
		<g>
			<g>
				<path class="st0" d="M116.8,89.8H83.2c-0.7,0-1.2-0.6-1.2-1.2v-8.9c0-0.7,0.6-1.2,1.2-1.2h33.6c0.7,0,1.2,0.6,1.2,1.2v8.9
					C118,89.2,117.5,89.8,116.8,89.8z M84.5,87.3h31.1v-6.4H84.5V87.3z"/>
			</g>
			<g>
				<path class="st0" d="M102.6,85.3H87.2c-0.7,0-1.2-0.6-1.2-1.2s0.6-1.2,1.2-1.2h15.4c0.7,0,1.2,0.6,1.2,1.2
					S103.3,85.3,102.6,85.3z"/>
			</g>
			<g>
				<path class="st0" d="M116.8,104.4H83.2c-0.7,0-1.2-0.6-1.2-1.2v-8.9c0-0.7,0.6-1.2,1.2-1.2h33.6c0.7,0,1.2,0.6,1.2,1.2v8.9
					C118,103.9,117.5,104.4,116.8,104.4z M84.5,101.9h31.1v-6.4H84.5V101.9z"/>
			</g>
			<g>
				<path class="st0" d="M102.6,99.9H87.2c-0.7,0-1.2-0.6-1.2-1.2s0.6-1.2,1.2-1.2h15.4c0.7,0,1.2,0.6,1.2,1.2
					S103.3,99.9,102.6,99.9z"/>
			</g>
		</g>
		<g>
			<path class="st0" d="M100,172.7c-40.1,0-72.7-32.6-72.7-72.7S59.9,27.3,100,27.3s72.7,32.6,72.7,72.7S140.1,172.7,100,172.7z
				 M100,31.3c-37.9,0-68.7,30.8-68.7,68.7c0,37.9,30.8,68.7,68.7,68.7c37.9,0,68.7-30.8,68.7-68.7C168.7,62.1,137.9,31.3,100,31.3z
				"/>
		</g>
		<g>
			<path class="st0" d="M117.4,138.5H82.7c-3.3,0-5.9-2.7-5.9-5.9V67.5c0-3.3,2.7-5.9,5.9-5.9h34.7c3.3,0,5.9,2.7,5.9,5.9v65.1
				C123.3,135.8,120.6,138.5,117.4,138.5z M82.7,63.7c-2.1,0-3.7,1.7-3.7,3.7v65.1c0,2.1,1.7,3.7,3.7,3.7h34.7
				c2.1,0,3.7-1.7,3.7-3.7V67.5c0-2.1-1.7-3.7-3.7-3.7H82.7z"/>
		</g>
		<g>
			<path class="st0" d="M105.7,69.1H94.4c-0.6,0-1.2-0.5-1.2-1.2v0c0-0.6,0.5-1.2,1.2-1.2h11.3c0.6,0,1.2,0.5,1.2,1.2v0
				C106.8,68.6,106.3,69.1,105.7,69.1z"/>
		</g>
	</g>
</g>
</svg>
