<?xml version="1.0" encoding="utf-8"?>
<!-- Generator: Adobe Illustrator 26.3.1, SVG Export Plug-In . SVG Version: 6.00 Build 0)  -->
<svg version="1.1" id="Layer_1" xmlns="http://www.w3.org/2000/svg" xmlns:xlink="http://www.w3.org/1999/xlink" x="0px" y="0px"
	 viewBox="0 0 200 200" style="enable-background:new 0 0 200 200;" xml:space="preserve">
<style type="text/css">
	.st0{fill:#0067FC;}
</style>
<g>
	<g>
		<g>
			<path class="st0" d="M100,115.1c-8.3,0-15.1-6.8-15.1-15.1s6.8-15.1,15.1-15.1s15.1,6.8,15.1,15.1S108.3,115.1,100,115.1z
				 M100,87.1c-7.1,0-12.9,5.8-12.9,12.9s5.8,12.9,12.9,12.9s12.9-5.8,12.9-12.9S107.1,87.1,100,87.1z"/>
		</g>
		<g>
			<path class="st0" d="M97.3,106.1c-0.3,0-0.6-0.1-0.8-0.3l-3-3c-0.4-0.4-0.4-1.1,0-1.5c0.4-0.4,1.1-0.4,1.5,0l2.2,2.2l7.6-9.2
				c0.4-0.5,1-0.5,1.5-0.1c0.5,0.4,0.5,1,0.1,1.5l-8.4,10.1C98,106,97.7,106.1,97.3,106.1C97.4,106.1,97.3,106.1,97.3,106.1z"/>
		</g>
	</g>
	<g>
		<path class="st0" d="M100,172.7c-40.1,0-72.7-32.6-72.7-72.7S59.9,27.3,100,27.3s72.7,32.6,72.7,72.7S140.1,172.7,100,172.7z
			 M100,31.3c-37.9,0-68.7,30.8-68.7,68.7c0,37.9,30.8,68.7,68.7,68.7c37.9,0,68.7-30.8,68.7-68.7C168.7,62.1,137.9,31.3,100,31.3z"
			/>
	</g>
	<g>
		<path class="st0" d="M117.6,137.8H82.9c-3.3,0-5.9-2.7-5.9-5.9V66.7c0-3.3,2.7-5.9,5.9-5.9h34.7c3.3,0,5.9,2.7,5.9,5.9v65.1
			C123.6,135.1,120.9,137.8,117.6,137.8z M82.9,63c-2.1,0-3.7,1.7-3.7,3.7v65.1c0,2.1,1.7,3.7,3.7,3.7h34.7c2.1,0,3.7-1.7,3.7-3.7
			V66.7c0-2.1-1.7-3.7-3.7-3.7H82.9z"/>
	</g>
	<g>
		<circle class="st0" cx="100.3" cy="131.6" r="2.1"/>
	</g>
	<g>
		<path class="st0" d="M105.9,68.4H94.6c-0.6,0-1.2-0.5-1.2-1.2v0c0-0.6,0.5-1.2,1.2-1.2h11.3c0.6,0,1.2,0.5,1.2,1.2v0
			C107.1,67.9,106.6,68.4,105.9,68.4z"/>
	</g>
</g>
</svg>
