<?xml version="1.0" encoding="utf-8"?>
<!-- Generator: Adobe Illustrator 26.3.1, SVG Export Plug-In . SVG Version: 6.00 Build 0)  -->
<svg version="1.1" id="Layer_1" xmlns="http://www.w3.org/2000/svg" xmlns:xlink="http://www.w3.org/1999/xlink" x="0px" y="0px"
	 viewBox="0 0 200 200" style="enable-background:new 0 0 200 200;" xml:space="preserve">
<style type="text/css">
	.st0{fill:#0067FC;}
</style>
<g>
	<g>
		<g id="Group_263_00000141429249715421239450000011270687635665102747_" transform="translate(-598.5 -520.001)">
			<g id="Group_259_00000152963982603952362980000013626547972355391883_" transform="translate(549.903 487.744)">
				<g id="Ellipse_9_00000177455768015217930350000005438429475682835847_">
					<path class="st0" d="M148.6,133.3c-5.1,0-9.2-4.1-9.2-9.2c0-5.1,4.1-9.2,9.2-9.2c5.1,0,9.2,4.1,9.2,9.2
						C157.8,129.1,153.7,133.3,148.6,133.3z M148.6,118.3c-3.2,0-5.8,2.6-5.8,5.8s2.6,5.8,5.8,5.8c3.2,0,5.8-2.6,5.8-5.8
						S151.8,118.3,148.6,118.3z"/>
				</g>
				<g id="Path_16_00000082345162708390432670000008351282460339408299_">
					<path class="st0" d="M160.8,147.5c-1,0-1.7-0.8-1.7-1.7c0-5.8-4.7-10.5-10.5-10.5c-5.8,0-10.5,4.7-10.5,10.5
						c0,1-0.8,1.7-1.7,1.7s-1.7-0.8-1.7-1.7c0-7.7,6.3-14,14-14c7.7,0,14,6.3,14,14C162.6,146.8,161.8,147.5,160.8,147.5z"/>
				</g>
			</g>
		</g>
	</g>
	<g>
		<path class="st0" d="M100,172.7c-40.1,0-72.7-32.6-72.7-72.7S59.9,27.3,100,27.3s72.7,32.6,72.7,72.7S140.1,172.7,100,172.7z
			 M100,31.3c-37.9,0-68.7,30.8-68.7,68.7c0,37.9,30.8,68.7,68.7,68.7c37.9,0,68.7-30.8,68.7-68.7C168.7,62.1,137.9,31.3,100,31.3z"
			/>
	</g>
	<g>
		<path class="st0" d="M100.2,127.6c-15.5,0-28.1-12.6-28.1-28.1s12.6-28.1,28.1-28.1c15.5,0,28.1,12.6,28.1,28.1
			S115.7,127.6,100.2,127.6z M100.2,74.9c-13.6,0-24.7,11.1-24.7,24.7c0,13.6,11.1,24.7,24.7,24.7s24.7-11.1,24.7-24.7
			C124.8,85.9,113.8,74.9,100.2,74.9z"/>
	</g>
	<g>
		<path class="st0" d="M135.6,139.8c-1.2,0-2.4-0.5-3.2-1.3l-14.6-14.6c-1.8-1.8-1.8-4.7,0-6.5l0.8-0.8c1.8-1.8,4.7-1.8,6.5,0
			l14.6,14.6c1.8,1.8,1.8,4.7,0,6.5l-0.8,0.8C137.9,139.3,136.8,139.8,135.6,139.8z M121.7,118.1c-0.4,0-0.9,0.2-1.2,0.5l-0.8,0.8
			c-0.7,0.7-0.7,1.8,0,2.5l14.6,14.6c0.7,0.7,1.8,0.7,2.5,0l0.8-0.8c0.7-0.7,0.7-1.8,0-2.5l-14.6-14.6
			C122.6,118.3,122.2,118.1,121.7,118.1z"/>
	</g>
</g>
</svg>
