<?xml version="1.0" encoding="utf-8"?>
<!-- Generator: Adobe Illustrator 26.3.1, SVG Export Plug-In . SVG Version: 6.00 Build 0)  -->
<svg version="1.1" id="Layer_1" xmlns="http://www.w3.org/2000/svg" xmlns:xlink="http://www.w3.org/1999/xlink" x="0px" y="0px"
	 viewBox="0 0 200 200" style="enable-background:new 0 0 200 200;" xml:space="preserve">
<style type="text/css">
	.st0{fill:#0067FC;}
</style>
<g>
	<g>
		<g>
			<path class="st0" d="M117.1,143.2h-42c-3,0-5.5-2.5-5.5-5.5V62.2c0-3,2.5-5.5,5.5-5.5h49.8c3,0,5.5,2.5,5.5,5.5v66.3
				c0,0.3-0.1,0.6-0.3,0.8L118,142.8C117.8,143.1,117.5,143.2,117.1,143.2z M72.1,93.2v44.6c0,1.7,1.3,3,3,3h41.5l11.4-12.8V62.2
				c0-1.7-1.3-3-3-3H75.1c-1.7,0-3,1.3-3,3V93.2z"/>
		</g>
		<g>
			<path class="st0" d="M116.1,142.8c-0.7,0-1.2-0.6-1.2-1.2v-8.8c0-3,2.5-5.5,5.5-5.5h8.8c0.7,0,1.2,0.6,1.2,1.2s-0.6,1.2-1.2,1.2
				h-8.8c-1.7,0-3,1.3-3,3v8.8C117.3,142.2,116.8,142.8,116.1,142.8z"/>
		</g>
	</g>
	<g>
		<path class="st0" d="M97.9,101.2H81.3c-0.7,0-1.2-0.6-1.2-1.2s0.6-1.2,1.2-1.2h16.6c0.7,0,1.2,0.6,1.2,1.2S98.6,101.2,97.9,101.2z
			"/>
	</g>
	<g>
		<path class="st0" d="M90.9,94.3h-9.6c-0.7,0-1.2-0.6-1.2-1.2s0.6-1.2,1.2-1.2h9.6c0.7,0,1.2,0.6,1.2,1.2S91.6,94.3,90.9,94.3z"/>
	</g>
	<g>
		<path class="st0" d="M114.9,80.4H81.3c-0.7,0-1.2-0.6-1.2-1.2s0.6-1.2,1.2-1.2h33.6c0.7,0,1.2,0.6,1.2,1.2S115.6,80.4,114.9,80.4z
			"/>
	</g>
	<g>
		<path class="st0" d="M114.9,73.5H81.3c-0.7,0-1.2-0.6-1.2-1.2s0.6-1.2,1.2-1.2h33.6c0.7,0,1.2,0.6,1.2,1.2S115.6,73.5,114.9,73.5z
			"/>
	</g>
	<g>
		<path class="st0" d="M104.9,87.4H81.3c-0.7,0-1.2-0.6-1.2-1.2s0.6-1.2,1.2-1.2h23.6c0.7,0,1.2,0.6,1.2,1.2S105.6,87.4,104.9,87.4z
			"/>
	</g>
	<g>
		<path class="st0" d="M100,172.7c-40.1,0-72.7-32.6-72.7-72.7S59.9,27.3,100,27.3s72.7,32.6,72.7,72.7S140.1,172.7,100,172.7z
			 M100,31.3c-37.9,0-68.7,30.8-68.7,68.7c0,37.9,30.8,68.7,68.7,68.7c37.9,0,68.7-30.8,68.7-68.7C168.7,62.1,137.9,31.3,100,31.3z"
			/>
	</g>
	<g>
		<path class="st0" d="M86.1,133.1c-3.1,0-5.6-2.5-5.6-5.6v-14.4c0-0.7,0.6-1.2,1.2-1.2h8.7c0.7,0,1.2,0.6,1.2,1.2v14.4
			C91.7,130.6,89.2,133.1,86.1,133.1z M83,114.3v13.2c0,1.7,1.4,3.1,3.1,3.1s3.1-1.4,3.1-3.1v-13.2H83z"/>
	</g>
	<g>
		<path class="st0" d="M91,114.3h-9.9c-1.8,0-3.2-1.4-3.2-3.2s1.4-3.2,3.2-3.2H91c1.8,0,3.2,1.4,3.2,3.2S92.8,114.3,91,114.3z
			 M81.2,110.4c-0.4,0-0.7,0.3-0.7,0.7s0.3,0.7,0.7,0.7H91c0.4,0,0.7-0.3,0.7-0.7s-0.3-0.7-0.7-0.7H81.2z"/>
	</g>
	<g>
		<path class="st0" d="M99,132.4c-2.2,0-4-1.8-4-4v-10.4c0-0.5,0.4-0.9,0.9-0.9h6.3c0.5,0,0.9,0.4,0.9,0.9v10.4
			C103,130.5,101.2,132.4,99,132.4z M96.7,118.8v9.5c0,1.2,1,2.2,2.2,2.2c1.2,0,2.2-1,2.2-2.2v-9.5H96.7z"/>
	</g>
	<g>
		<path class="st0" d="M102.5,118.8h-7.1c-1.3,0-2.3-1-2.3-2.3s1-2.3,2.3-2.3h7.1c1.3,0,2.3,1,2.3,2.3S103.8,118.8,102.5,118.8z
			 M95.4,115.9c-0.3,0-0.5,0.2-0.5,0.5c0,0.3,0.2,0.5,0.5,0.5h7.1c0.3,0,0.5-0.2,0.5-0.5c0-0.3-0.2-0.5-0.5-0.5H95.4z"/>
	</g>
	<g>
		<g>
			<path class="st0" d="M112.4,91.6c-5.9,0-10.7,4.8-10.7,10.7c0,5.9,4.8,10.7,10.7,10.7s10.7-4.8,10.7-10.7h-10.7V91.6z"/>
		</g>
		<g>
			<path class="st0" d="M114.5,89.4v10.7h10.7C125.2,94.2,120.4,89.4,114.5,89.4z"/>
		</g>
	</g>
</g>
</svg>
