<?xml version="1.0" encoding="utf-8"?>
<!-- Generator: Adobe Illustrator 26.3.1, SVG Export Plug-In . SVG Version: 6.00 Build 0)  -->
<svg version="1.1" id="Layer_1" xmlns="http://www.w3.org/2000/svg" xmlns:xlink="http://www.w3.org/1999/xlink" x="0px" y="0px"
	 viewBox="0 0 200 200" style="enable-background:new 0 0 200 200;" xml:space="preserve">
<style type="text/css">
	.st0{fill:#0067FC;}
</style>
<g>
	<g>
		<g>
			<path class="st0" d="M122.3,111.5L122.3,111.5c-0.4,0-0.8-0.2-1-0.5c-0.6-0.8-15.4-20.2-15.4-28.9c0-9,7.4-16.4,16.4-16.4
				c9,0,16.4,7.4,16.4,16.4c0,8.7-14.8,28.1-15.4,28.9C123,111.4,122.7,111.5,122.3,111.5z M122.3,68.3c-7.7,0-13.9,6.2-13.9,13.9
				c0,6,9.2,19.8,13.9,26.1c4.6-6.3,13.9-20,13.9-26.1C136.2,74.5,129.9,68.3,122.3,68.3z"/>
		</g>
		<g>
			<path class="st0" d="M122.3,88.9c-4.3,0-7.8-3.5-7.8-7.8s3.5-7.8,7.8-7.8s7.8,3.5,7.8,7.8S126.6,88.9,122.3,88.9z M122.3,75.8
				c-2.9,0-5.3,2.4-5.3,5.3s2.4,5.3,5.3,5.3s5.3-2.4,5.3-5.3S125.2,75.8,122.3,75.8z"/>
		</g>
	</g>
	<g>
		<g>
			<path class="st0" d="M75,130.2c-0.4,0-0.8-0.2-1-0.5c-1-1.4-10.2-13.4-10.2-19.2c0-6.1,5-11.1,11.1-11.1s11.1,5,11.1,11.1
				c0,5.7-9.1,17.8-10.2,19.2C75.8,130,75.4,130.2,75,130.2z M75,101.9c-4.8,0-8.6,3.9-8.6,8.6c0,3.7,5.5,12.1,8.6,16.3
				c3.1-4.2,8.6-12.6,8.6-16.3C83.6,105.8,79.8,101.9,75,101.9z"/>
		</g>
		<g>
			<path class="st0" d="M75,115.4c-3.1,0-5.5-2.5-5.5-5.5s2.5-5.5,5.5-5.5s5.5,2.5,5.5,5.5S78.1,115.4,75,115.4z M75,106.8
				c-1.7,0-3,1.4-3,3s1.4,3,3,3s3-1.4,3-3S76.7,106.8,75,106.8z"/>
		</g>
	</g>
	<g>
		<path class="st0" d="M100,172.7c-40.1,0-72.7-32.6-72.7-72.7S59.9,27.3,100,27.3s72.7,32.6,72.7,72.7S140.1,172.7,100,172.7z
			 M100,31.3c-37.9,0-68.7,30.8-68.7,68.7c0,37.9,30.8,68.7,68.7,68.7c37.9,0,68.7-30.8,68.7-68.7C168.7,62.1,137.9,31.3,100,31.3z"
			/>
	</g>
	<g>
		<path class="st0" d="M81.5,132.9c-0.3,0-0.6-0.1-0.9-0.4c-0.5-0.5-0.5-1.3,0-1.8l17.1-16.8c0.5-0.5,1.3-0.5,1.8,0l9.4,9.3l9.4-9
			c0.5-0.5,1.3-0.5,1.8,0c0.5,0.5,0.5,1.3,0,1.8l-10.3,9.8c-0.5,0.5-1.3,0.5-1.7,0l-9.4-9.3l-16.2,15.9
			C82.1,132.8,81.8,132.9,81.5,132.9z"/>
	</g>
</g>
</svg>
