<?xml version="1.0" encoding="utf-8"?>
<!-- Generator: Adobe Illustrator 26.3.1, SVG Export Plug-In . SVG Version: 6.00 Build 0)  -->
<svg version="1.1" id="Layer_1" xmlns="http://www.w3.org/2000/svg" xmlns:xlink="http://www.w3.org/1999/xlink" x="0px" y="0px"
	 viewBox="0 0 200 200" style="enable-background:new 0 0 200 200;" xml:space="preserve">
<style type="text/css">
	.st0{fill:#0067FC;}
</style>
<g>
	<g>
		<path class="st0" d="M100,172.7c-40.1,0-72.7-32.6-72.7-72.7S59.9,27.3,100,27.3s72.7,32.6,72.7,72.7S140.1,172.7,100,172.7z
			 M100,31.3c-37.9,0-68.7,30.8-68.7,68.7c0,37.9,30.8,68.7,68.7,68.7c37.9,0,68.7-30.8,68.7-68.7C168.7,62.1,137.9,31.3,100,31.3z"
			/>
	</g>
	<g>
		<g id="Group_263_00000176033654469997710760000017910002927715265967_" transform="translate(-598.5 -520.001)">
			<g id="Group_259_00000158027290359777851300000010608485713434952087_" transform="translate(549.903 487.744)">
				<g id="Ellipse_9_00000113351997910565170060000006773941020316658065_">
					<path class="st0" d="M179.3,130c-3.5,0-6.3-2.8-6.3-6.3s2.8-6.3,6.3-6.3s6.3,2.8,6.3,6.3S182.7,130,179.3,130z M179.3,119.8
						c-2.1,0-3.8,1.7-3.8,3.8s1.7,3.8,3.8,3.8s3.8-1.7,3.8-3.8S181.4,119.8,179.3,119.8z"/>
				</g>
				<g id="Path_16_00000129903761857726735970000014429639469456680623_">
					<path class="st0" d="M187.5,139.6c-0.7,0-1.2-0.6-1.2-1.2c0-3.9-3.1-7-7-7s-7,3.1-7,7c0,0.7-0.6,1.2-1.2,1.2s-1.2-0.6-1.2-1.2
						c0-5.2,4.3-9.5,9.5-9.5s9.5,4.3,9.5,9.5C188.8,139,188.2,139.6,187.5,139.6z"/>
				</g>
			</g>
		</g>
	</g>
	<g>
		<path class="st0" d="M72.7,111.2c-0.7,0-1.2-0.6-1.2-1.2V62.2c0-3,2.5-5.5,5.5-5.5h42c0.4,0,0.7,0.2,0.9,0.4L132,70.7
			c0.2,0.2,0.3,0.5,0.3,0.8V79c0,0.7-0.6,1.2-1.2,1.2s-1.2-0.6-1.2-1.2v-7l-11.4-12.8H77c-1.7,0-3,1.3-3,3V110
			C74,110.7,73.4,111.2,72.7,111.2z"/>
	</g>
	<g>
		<path class="st0" d="M126.8,143.3H77c-3,0-5.5-2.5-5.5-5.5v-31c0-0.7,0.6-1.2,1.2-1.2s1.2,0.6,1.2,1.2v31c0,1.7,1.3,3,3,3h49.8
			c1.7,0,3-1.3,3-3v-22.6c0-0.7,0.6-1.2,1.2-1.2s1.2,0.6,1.2,1.2v22.6C132.3,140.8,129.9,143.3,126.8,143.3z"/>
	</g>
	<g>
		<path class="st0" d="M131.1,72.8h-8.8c-3,0-5.5-2.5-5.5-5.5v-8.8c0-0.7,0.6-1.2,1.2-1.2s1.2,0.6,1.2,1.2v8.8c0,1.7,1.3,3,3,3h8.8
			c0.7,0,1.2,0.6,1.2,1.2S131.8,72.8,131.1,72.8z"/>
	</g>
	<g>
		<path class="st0" d="M131.1,114.8c-10,0-18.2-8.2-18.2-18.2c0-10,8.2-18.2,18.2-18.2s18.2,8.2,18.2,18.2
			C149.3,106.6,141.1,114.8,131.1,114.8z M131.1,80.7c-8.7,0-15.9,7.1-15.9,15.9s7.1,15.9,15.9,15.9s15.9-7.1,15.9-15.9
			S139.8,80.7,131.1,80.7z"/>
	</g>
	<g>
		<g>
			<path class="st0" d="M116.6,118.4h-27c-0.7,0-1.2-0.6-1.2-1.2s0.6-1.2,1.2-1.2h27c0.7,0,1.2,0.6,1.2,1.2S117.3,118.4,116.6,118.4
				z"/>
		</g>
		<g>
			<path class="st0" d="M116.6,125.5h-27c-0.7,0-1.2-0.6-1.2-1.2s0.6-1.2,1.2-1.2h27c0.7,0,1.2,0.6,1.2,1.2S117.3,125.5,116.6,125.5
				z"/>
		</g>
		<g>
			<path class="st0" d="M106.6,132.5h-17c-0.7,0-1.2-0.6-1.2-1.2s0.6-1.2,1.2-1.2h17c0.7,0,1.2,0.6,1.2,1.2S107.3,132.5,106.6,132.5
				z"/>
		</g>
		<g>
			<path class="st0" d="M82.6,119.8c-0.3,0-0.6-0.1-0.9-0.4l-1.4-1.4c-0.5-0.5-0.5-1.3,0-1.8c0.5-0.5,1.3-0.5,1.8,0l0.5,0.5l1.9-1.9
				c0.5-0.5,1.3-0.5,1.8,0s0.5,1.3,0,1.8l-2.8,2.8C83.3,119.7,82.9,119.8,82.6,119.8z"/>
		</g>
		<g>
			<path class="st0" d="M110.8,110.9H89.6c-0.7,0-1.2-0.6-1.2-1.2s0.6-1.2,1.2-1.2h21.3c0.7,0,1.2,0.6,1.2,1.2
				S111.5,110.9,110.8,110.9z"/>
		</g>
		<g>
			<path class="st0" d="M82.6,112.3c-0.3,0-0.6-0.1-0.9-0.4l-1.4-1.4c-0.5-0.5-0.5-1.3,0-1.8c0.5-0.5,1.3-0.5,1.8,0l0.5,0.5l1.9-1.9
				c0.5-0.5,1.3-0.5,1.8,0s0.5,1.3,0,1.8l-2.8,2.8C83.3,112.1,82.9,112.3,82.6,112.3z"/>
		</g>
		<g>
			<path class="st0" d="M82.6,126.9c-0.3,0-0.6-0.1-0.9-0.4l-1.4-1.4c-0.5-0.5-0.5-1.3,0-1.8s1.3-0.5,1.8,0l0.5,0.5l1.9-1.9
				c0.5-0.5,1.3-0.5,1.8,0s0.5,1.3,0,1.8l-2.8,2.8C83.3,126.7,83,126.9,82.6,126.9z"/>
		</g>
		<g>
			<path class="st0" d="M82.6,133.3c-0.3,0-0.6-0.1-0.9-0.4l-1.4-1.4c-0.5-0.5-0.5-1.3,0-1.8c0.5-0.5,1.3-0.5,1.8,0l0.5,0.5l1.9-1.9
				c0.5-0.5,1.3-0.5,1.8,0s0.5,1.3,0,1.8l-2.8,2.8C83.3,133.2,82.9,133.3,82.6,133.3z"/>
		</g>
	</g>
	<g>
		<g>
			<path class="st0" d="M94.9,100.3c-7,0-12.8-5.7-12.8-12.8s5.7-12.8,12.8-12.8c0.6,0,1.2,0.5,1.2,1.2v10.4h10.4
				c0.6,0,1.2,0.5,1.2,1.2C107.7,94.5,102,100.3,94.9,100.3z M93.7,77.1c-5.2,0.6-9.2,5-9.2,10.4c0,5.7,4.7,10.4,10.4,10.4
				c5.3,0,9.8-4.1,10.4-9.2H94.9c-0.6,0-1.2-0.5-1.2-1.2V77.1z"/>
		</g>
		<g>
			<path class="st0" d="M108.8,85.2H97.2V73.6C103.6,73.6,108.8,78.8,108.8,85.2z"/>
		</g>
	</g>
</g>
</svg>
