<?xml version="1.0" encoding="utf-8"?>
<!-- Generator: Adobe Illustrator 26.3.1, SVG Export Plug-In . SVG Version: 6.00 Build 0)  -->
<svg version="1.1" id="Layer_1" xmlns="http://www.w3.org/2000/svg" xmlns:xlink="http://www.w3.org/1999/xlink" x="0px" y="0px"
	 viewBox="0 0 200 200" style="enable-background:new 0 0 200 200;" xml:space="preserve">
<style type="text/css">
	.st0{fill:#0067FC;}
</style>
<g>
	<g>
		<g>
			<path class="st0" d="M100.8,84.9c-7.9,0-14.3-6.4-14.3-14.3s6.4-14.3,14.3-14.3c7.9,0,14.3,6.4,14.3,14.3S108.7,84.9,100.8,84.9z
				 M100.8,58.9c-6.5,0-11.7,5.3-11.7,11.7s5.3,11.7,11.7,11.7c6.5,0,11.7-5.3,11.7-11.7S107.2,58.9,100.8,58.9z"/>
		</g>
	</g>
	<g id="Group_263_00000126323228359338658230000012482989946552508053_" transform="translate(-598.5 -520.001)">
		<g id="Group_259_00000121264000689349315710000008988473453134443409_" transform="translate(549.903 487.744)">
			<g id="Ellipse_9_00000137113013078473714470000011191721143875600557_">
				<path class="st0" d="M149.4,103.1c-2.4,0-4.3-1.9-4.3-4.3s1.9-4.3,4.3-4.3c2.4,0,4.3,1.9,4.3,4.3S151.7,103.1,149.4,103.1z
					 M149.4,97.1c-0.9,0-1.7,0.8-1.7,1.7c0,0.9,0.8,1.7,1.7,1.7s1.7-0.8,1.7-1.7C151.1,97.9,150.3,97.1,149.4,97.1z"/>
			</g>
			<g id="Path_16_00000048488034810557845650000004781331448601689515_">
				<path class="st0" d="M154.3,111.3c-0.7,0-1.3-0.6-1.3-1.3c0-2-1.6-3.6-3.6-3.6s-3.6,1.6-3.6,3.6c0,0.7-0.6,1.3-1.3,1.3
					s-1.3-0.6-1.3-1.3c0-3.4,2.8-6.2,6.2-6.2s6.2,2.8,6.2,6.2C155.5,110.7,155,111.3,154.3,111.3z"/>
			</g>
		</g>
	</g>
	<g>
		<g>
			<path class="st0" d="M121.4,142.2c-0.4,0-0.8-0.2-1-0.5c-0.7-1-17.9-23.5-17.9-33.5c0-10.4,8.5-18.9,18.9-18.9
				s18.9,8.5,18.9,18.9c0,10.1-17.2,32.6-17.9,33.5C122.2,142,121.8,142.2,121.4,142.2z M121.4,91.8c-9,0-16.3,7.3-16.3,16.3
				c0,7.9,12.6,25.6,16.3,30.6c3.7-5.1,16.3-22.7,16.3-30.6C137.8,99.2,130.4,91.8,121.4,91.8z"/>
		</g>
		<g>
			<path class="st0" d="M121.4,115.9c-4.9,0-8.9-4-8.9-8.9c0-4.9,4-8.9,8.9-8.9s8.9,4,8.9,8.9C130.4,111.8,126.4,115.9,121.4,115.9z
				 M121.4,100.6c-3.5,0-6.4,2.9-6.4,6.4c0,3.5,2.9,6.4,6.4,6.4s6.4-2.9,6.4-6.4C127.8,103.4,124.9,100.6,121.4,100.6z"/>
		</g>
	</g>
	<g>
		<g>
			<path class="st0" d="M70,98.6c-0.3,0-0.6-0.1-0.8-0.4c-0.9-1.2-9.1-12-9.1-17.1c0-5.4,4.4-9.8,9.8-9.8s9.8,4.4,9.8,9.8
				c0,5.1-8.1,15.8-9.1,17.1C70.6,98.5,70.3,98.6,70,98.6z M70,73.3c-4.3,0-7.9,3.5-7.9,7.9c0,3.4,5.1,11,7.9,14.8
				c2.8-3.8,7.9-11.4,7.9-14.8C77.8,76.9,74.3,73.3,70,73.3z"/>
		</g>
		<g>
			<path class="st0" d="M70,85.4c-2.7,0-4.8-2.2-4.8-4.8s2.2-4.8,4.8-4.8s4.8,2.2,4.8,4.8S72.6,85.4,70,85.4z M70,77.7
				c-1.6,0-2.9,1.3-2.9,2.9s1.3,2.9,2.9,2.9s2.9-1.3,2.9-2.9S71.5,77.7,70,77.7z"/>
		</g>
	</g>
	<g>
		<path class="st0" d="M100,172.7c-40.1,0-72.7-32.6-72.7-72.7S59.9,27.3,100,27.3s72.7,32.6,72.7,72.7S140.1,172.7,100,172.7z
			 M100,31.3c-37.9,0-68.7,30.8-68.7,68.7c0,37.9,30.8,68.7,68.7,68.7c37.9,0,68.7-30.8,68.7-68.7C168.7,62.1,137.9,31.3,100,31.3z"
			/>
	</g>
	<g>
		<path class="st0" d="M116.4,143.8c-0.2,0-0.4-0.1-0.6-0.2l-41.3-23.5c-0.4-0.2-0.6-0.7-0.6-1.1s0.2-0.9,0.7-1.1l14.6-8.3
			l-18.3-6.8c-0.7-0.2-1-1-0.8-1.7c0.2-0.7,1-1,1.7-0.8l20.9,7.8c0.5,0.2,0.8,0.6,0.8,1.1c0,0.5-0.2,1-0.6,1.2L77.8,119l39.3,22.4
			c0.6,0.4,0.8,1.1,0.5,1.8C117.3,143.6,116.9,143.8,116.4,143.8z"/>
	</g>
</g>
</svg>
