<svg xmlns="http://www.w3.org/2000/svg" xmlns:xlink="http://www.w3.org/1999/xlink" viewBox="0 0 108.12 150"><defs><style>.cls-1{fill:none;}.cls-2{clip-path:url(#clip-path);}.cls-3,.cls-5{fill:#0067fc;}.cls-4,.cls-6{fill:#fff;}.cls-5{font-size:12px;font-family:Poppins-SemiBold, Poppins;font-weight:600;}.cls-6{stroke:#0067fc;stroke-miterlimit:10;stroke-width:0.5px;}</style><clipPath id="clip-path" transform="translate(-20.82)"><rect class="cls-1" width="150" height="150"/></clipPath></defs><g id="Layer_2" data-name="Layer 2"><g id="Layer_1-2" data-name="Layer 1"><g class="cls-2"><path class="cls-3" d="M91.75,0H35.36a5.68,5.68,0,0,0-5.68,5.68V122.3A5.68,5.68,0,0,0,35.36,128h87.89a5.68,5.68,0,0,0,5.68-5.69V37.18a5.71,5.71,0,0,0-1.66-4L95.77,1.66A5.69,5.69,0,0,0,91.75,0Z" transform="translate(-20.82)"/><rect class="cls-4" x="48.57" y="45.23" width="21.86" height="5.61" rx="2.47"/><rect class="cls-4" x="48.57" y="59.54" width="52.72" height="5.61" rx="2.47"/><rect class="cls-4" x="48.57" y="73.86" width="52.72" height="5.61" rx="2.47"/><rect class="cls-4" x="21.87" y="88.18" width="79.42" height="5.61" rx="2.47"/><rect class="cls-4" x="21.87" y="102.5" width="79.42" height="5.61" rx="2.47"/><rect class="cls-4" x="17.61" y="8.83" width="41.79" height="16.45" rx="3"/><path class="cls-4" d="M95.1,32.8V5.63A1.12,1.12,0,0,0,94,4.5h0a1.12,1.12,0,0,0-1.13,1.13V35.05A1.12,1.12,0,0,0,94,36.18H123.4a1.12,1.12,0,0,0,1.13-1.13h0a1.13,1.13,0,0,0-1.13-1.13H96.23A1.13,1.13,0,0,1,95.1,32.8Z" transform="translate(-20.82)"/><polygon class="cls-3" points="104 140.44 100.5 140.44 100.5 131.85 95.78 131.85 95.78 140.44 92.28 140.44 98.14 146.3 104 140.44"/><polygon class="cls-3" points="100.72 144.85 98.14 147.42 95.56 144.85 88.16 144.85 88.16 150 108.12 150 108.12 144.85 100.72 144.85"/><text class="cls-5" transform="translate(24.42 21.69)">DOC</text><rect class="cls-6" x="0.25" y="38.52" width="41.79" height="40.82" rx="3"/><path class="cls-3" d="M55.88,49.16,50.22,68.71H45.74L42,55.07,38.07,68.71H33.59L28.05,49.16h4.2L36,64.25l4-15.09H44.4l3.72,15,3.53-15Z" transform="translate(-20.82)"/></g></g></g></svg>