<?xml version="1.0" encoding="utf-8"?>
<!-- Generator: Adobe Illustrator 26.3.1, SVG Export Plug-In . SVG Version: 6.00 Build 0)  -->
<svg version="1.1" id="Layer_1" xmlns="http://www.w3.org/2000/svg" xmlns:xlink="http://www.w3.org/1999/xlink" x="0px" y="0px"
	 viewBox="0 0 200 200" style="enable-background:new 0 0 200 200;" xml:space="preserve">
<style type="text/css">
	.st0{fill:#0067FC;}
</style>
<g>
	<g>
		<g id="Group_263_00000109712938729847490350000001589201530602543497_" transform="translate(-598.5 -520.001)">
			<g id="Group_259_00000057854879203240523180000013337464792093715892_" transform="translate(549.903 487.744)">
				<g id="Ellipse_9_00000156582332428455324270000002829527650816930716_">
					<path class="st0" d="M178.4,137c-3.5,0-6.3-2.8-6.3-6.3c0-3.5,2.8-6.3,6.3-6.3s6.3,2.8,6.3,6.3
						C184.7,134.2,181.9,137,178.4,137z M178.4,126.9c-2.1,0-3.8,1.7-3.8,3.8s1.7,3.8,3.8,3.8s3.8-1.7,3.8-3.8
						S180.5,126.9,178.4,126.9z"/>
				</g>
				<g id="Path_16_00000054948938215194362700000001988210715128029869_">
					<path class="st0" d="M186.6,146.7c-0.7,0-1.2-0.6-1.2-1.2c0-3.9-3.1-7-7-7s-7,3.1-7,7c0,0.7-0.6,1.2-1.2,1.2s-1.2-0.6-1.2-1.2
						c0-5.2,4.3-9.5,9.5-9.5s9.5,4.3,9.5,9.5C187.9,146.1,187.3,146.7,186.6,146.7z"/>
				</g>
			</g>
		</g>
	</g>
	<g>
		<path class="st0" d="M117.3,143.5h-42c-3,0-5.5-2.5-5.5-5.5V90.2c0-0.7,0.6-1.2,1.2-1.2s1.2,0.6,1.2,1.2V138c0,1.7,1.3,3,3,3h41.5
			l11.4-12.8v-7c0-0.7,0.6-1.2,1.2-1.2s1.2,0.6,1.2,1.2v7.4c0,0.3-0.1,0.6-0.3,0.8l-12.1,13.5C118,143.3,117.7,143.5,117.3,143.5z"
			/>
	</g>
	<g>
		<path class="st0" d="M71,94.7c-0.7,0-1.2-0.6-1.2-1.2v-31c0-3,2.5-5.5,5.5-5.5h49.8c3,0,5.5,2.5,5.5,5.5v22.6
			c0,0.7-0.6,1.2-1.2,1.2s-1.2-0.6-1.2-1.2V62.5c0-1.7-1.3-3-3-3H75.3c-1.7,0-3,1.3-3,3v31C72.3,94.1,71.7,94.7,71,94.7z"/>
	</g>
	<g>
		<path class="st0" d="M116.3,143c-0.7,0-1.2-0.6-1.2-1.2V133c0-3,2.5-5.5,5.5-5.5h8.8c0.7,0,1.2,0.6,1.2,1.2s-0.6,1.2-1.2,1.2h-8.8
			c-1.7,0-3,1.3-3,3v8.8C117.6,142.5,117,143,116.3,143z"/>
	</g>
	<g>
		<path class="st0" d="M129.4,121.8c-10,0-18.2-8.2-18.2-18.2c0-10,8.2-18.2,18.2-18.2s18.2,8.2,18.2,18.2
			C147.6,113.7,139.4,121.8,129.4,121.8z M129.4,87.8c-8.7,0-15.9,7.1-15.9,15.9c0,8.7,7.1,15.9,15.9,15.9s15.9-7.1,15.9-15.9
			C145.2,94.9,138.1,87.8,129.4,87.8z"/>
	</g>
	<g>
		<path class="st0" d="M100,172.7c-40.1,0-72.7-32.6-72.7-72.7S59.9,27.3,100,27.3s72.7,32.6,72.7,72.7S140.1,172.7,100,172.7z
			 M100,31.3c-37.9,0-68.7,30.8-68.7,68.7c0,37.9,30.8,68.7,68.7,68.7c37.9,0,68.7-30.8,68.7-68.7C168.7,62.1,137.9,31.3,100,31.3z"
			/>
	</g>
	<g>
		<path class="st0" d="M109.6,94.2H80c-0.7,0-1.2-0.6-1.2-1.2s0.6-1.2,1.2-1.2h29.6c0.7,0,1.2,0.6,1.2,1.2S110.3,94.2,109.6,94.2z"
			/>
	</g>
	<g>
		<path class="st0" d="M113.6,87.2H80c-0.7,0-1.2-0.6-1.2-1.2s0.6-1.2,1.2-1.2h33.6c0.7,0,1.2,0.6,1.2,1.2S114.3,87.2,113.6,87.2z"
			/>
	</g>
	<g>
		<path class="st0" d="M113.6,73h-25c-0.7,0-1.2-0.6-1.2-1.2s0.6-1.2,1.2-1.2h25c0.7,0,1.2,0.6,1.2,1.2S114.3,73,113.6,73z"/>
	</g>
	<g>
		<path class="st0" d="M113.6,80.1h-25c-0.7,0-1.2-0.6-1.2-1.2s0.6-1.2,1.2-1.2h25c0.7,0,1.2,0.6,1.2,1.2S114.3,80.1,113.6,80.1z"/>
	</g>
	<g>
		<path class="st0" d="M107.6,101.3H80c-0.7,0-1.2-0.6-1.2-1.3s0.6-1.2,1.2-1.2h27.6c0.7,0,1.2,0.6,1.2,1.2S108.3,101.3,107.6,101.3
			z"/>
	</g>
	<g>
		<path class="st0" d="M109.6,108.3H80c-0.7,0-1.2-0.6-1.2-1.2s0.6-1.2,1.2-1.2h29.6c0.7,0,1.2,0.6,1.2,1.2S110.3,108.3,109.6,108.3
			z"/>
	</g>
	<g>
		<path class="st0" d="M105.6,115.4H80c-0.7,0-1.2-0.6-1.2-1.2s0.6-1.2,1.2-1.2h25.6c0.7,0,1.2,0.6,1.2,1.2S106.3,115.4,105.6,115.4
			z"/>
	</g>
	<g>
		<path class="st0" d="M98.6,122.5H80c-0.7,0-1.2-0.6-1.2-1.2s0.6-1.2,1.2-1.2h18.6c0.7,0,1.2,0.6,1.2,1.2S99.3,122.5,98.6,122.5z"
			/>
	</g>
	<g>
		<path class="st0" d="M82.1,81.6c-0.3,0-0.6-0.1-0.9-0.4l-1-1c-0.5-0.5-0.5-1.3,0-1.8s1.3-0.5,1.8,0l0,0l1.2-1.5
			c0.4-0.6,1.2-0.7,1.8-0.2c0.6,0.4,0.7,1.2,0.2,1.8l-2,2.7C82.9,81.4,82.5,81.6,82.1,81.6C82.1,81.6,82.1,81.6,82.1,81.6z"/>
	</g>
	<g>
		<path class="st0" d="M82.1,74.4c-0.3,0-0.6-0.1-0.9-0.4l-1-1c-0.5-0.5-0.5-1.3,0-1.8c0.5-0.5,1.3-0.5,1.8,0l0,0l1.2-1.5
			c0.4-0.6,1.2-0.7,1.8-0.2s0.7,1.2,0.2,1.8l-2,2.7C82.9,74.2,82.5,74.4,82.1,74.4C82.1,74.4,82.1,74.4,82.1,74.4z"/>
	</g>
</g>
</svg>
