<svg xmlns="http://www.w3.org/2000/svg" xmlns:xlink="http://www.w3.org/1999/xlink" viewBox="0 0 93.57 150"><defs><style>.cls-1{fill:none;}.cls-2{clip-path:url(#clip-path);}.cls-3{fill:#fff;}</style><clipPath id="clip-path" transform="translate(-28.21)"><rect class="cls-1" width="150" height="150"/></clipPath></defs><g id="Layer_2" data-name="Layer 2"><g id="Layer_1-2" data-name="Layer 1"><g class="cls-2"><polygon points="89.46 140.44 85.96 140.44 85.96 131.85 81.23 131.85 81.23 140.44 77.74 140.44 83.6 146.3 89.46 140.44"/><polygon points="86.17 144.85 83.6 147.42 81.02 144.85 73.62 144.85 73.62 150 93.57 150 93.57 144.85 86.17 144.85"/><path d="M95.14,0a27.16,27.16,0,0,1,2,1.86q11.74,13.38,23.48,26.78a4.46,4.46,0,0,1,1.17,3.08q0,45.8,0,91.61c0,3.5-2.1,5.55-5.58,5.55H33.87c-3.56,0-5.64-2-5.64-5.62q0-58.83,0-117.67A5.57,5.57,0,0,1,32.2,0ZM33.38,5.11V85.74h83.24V33.46H95.25c-2.52,0-3.39-.87-3.39-3.41q0-11.76,0-23.53V5.11Zm.42,111.34c3.88.44,7.67.69,11.33-.42a13,13,0,0,0,4.78-2.57c3.29-2.94,3.66-6.9,3-11a8.33,8.33,0,0,0-4.4-6.24c-4.72-2.55-9.71-1.74-14.71-1.32ZM66.3,94.27c-4.6.14-7.88,2-9.74,6.14a13,13,0,0,0-.94,7.37c.55,3.75,2.28,6.81,5.92,8.26,3.82,1.52,7.66,1.29,10.94-1.35,4.06-3.27,4.67-7.78,3.61-12.55A9.59,9.59,0,0,0,66.3,94.27ZM98,94.63c.27.53.45.9.65,1.25,1.56,2.78,3.08,5.58,4.71,8.31a2.08,2.08,0,0,1,0,2.48c-1.76,2.9-3.4,5.87-5.08,8.82-.17.31-.3.63-.5,1.07,1.64,0,3.11,0,4.57,0a1.26,1.26,0,0,0,1.41-.89c1-2.31,2-4.58,3.13-7,.24.46.45.82.63,1.19,1,2,2,4,3,5.95a1.33,1.33,0,0,0,.86.7c1.66.07,3.32,0,5.15,0-.27-.51-.45-.88-.65-1.23-1.74-3-3.46-6-5.25-9a1.62,1.62,0,0,1,0-1.92c1.68-2.8,3.29-5.65,4.92-8.48.21-.37.39-.75.66-1.27a21.34,21.34,0,0,1-3.13,0c-1.86-.29-2.9.38-3.51,2.19s-1.49,3.51-2.34,5.44c-1.12-2.37-2.13-4.55-3.2-6.71-.17-.36-.56-.83-.88-.85C101.45,94.58,99.78,94.63,98,94.63ZM96.24,95c-1.73-.25-3.36-.61-5-.69-6.61-.36-11.58,3.63-12.34,10.07-.5,4.18.58,8,4.23,10.51,3,2.08,6.43,2.21,9.91,1.78A26.36,26.36,0,0,0,96,116l-.8-3.86c-3.79.87-7.49,1.44-9.93-2.21a7.51,7.51,0,0,1,0-8.68c2.46-3.66,6.17-3.18,10-2.15Z" transform="translate(-28.21)"/><path class="cls-3" d="M33.38,5.11H91.86v1.4q0,11.76,0,23.53c0,2.54.87,3.41,3.39,3.41h21.37V85.74H33.38Zm8,22.85v35H55.67V77.17h49.18V42.23H90.55V28Z" transform="translate(-28.21)"/><path class="cls-3" d="M33.8,116.45V94.9c5-.42,10-1.23,14.71,1.32a8.33,8.33,0,0,1,4.4,6.24c.66,4.1.29,8.06-3,11A13,13,0,0,1,45.13,116C41.47,117.14,37.68,116.89,33.8,116.45Zm5-3.73c3.78.55,6.66-.52,8-3,1.54-2.71,1.38-7-.33-9.2-1.6-2-4.78-2.83-7.71-2Z" transform="translate(-28.21)"/><path class="cls-3" d="M66.3,94.27a9.59,9.59,0,0,1,9.79,7.87c1.06,4.77.45,9.28-3.61,12.55-3.28,2.64-7.12,2.87-10.94,1.35-3.64-1.45-5.37-4.51-5.92-8.26a13,13,0,0,1,.94-7.37C58.42,96.31,61.7,94.41,66.3,94.27Zm5.33,11.25a26.83,26.83,0,0,0-1.74-5,4.54,4.54,0,0,0-7.83-.09A10.67,10.67,0,0,0,62,110.7a4.61,4.61,0,0,0,8.06-.18A29.05,29.05,0,0,0,71.63,105.52Z" transform="translate(-28.21)"/><path class="cls-3" d="M98,94.63c1.82,0,3.49,0,5.14,0,.32,0,.71.49.88.85,1.07,2.16,2.08,4.34,3.2,6.71.85-1.93,1.74-3.64,2.34-5.44s1.65-2.48,3.51-2.19a21.34,21.34,0,0,0,3.13,0c-.27.52-.45.9-.66,1.27-1.63,2.83-3.24,5.68-4.92,8.48a1.62,1.62,0,0,0,0,1.92c1.79,3,3.51,6,5.25,9,.2.35.38.72.65,1.23-1.83,0-3.49,0-5.15,0a1.33,1.33,0,0,1-.86-.7c-1-2-2-4-3-5.95-.18-.37-.39-.73-.63-1.19-1.09,2.42-2.15,4.69-3.13,7a1.26,1.26,0,0,1-1.41.89c-1.46,0-2.93,0-4.57,0,.2-.44.33-.76.5-1.07,1.68-2.95,3.32-5.92,5.08-8.82a2.08,2.08,0,0,0,0-2.48c-1.63-2.73-3.15-5.53-4.71-8.31C98.41,95.53,98.23,95.16,98,94.63Z" transform="translate(-28.21)"/><path class="cls-3" d="M96.24,95l-1.06,4.09c-3.78-1-7.49-1.51-10,2.15a7.51,7.51,0,0,0,0,8.68c2.44,3.65,6.14,3.08,9.93,2.21L96,116a26.36,26.36,0,0,1-2.9.68c-3.48.43-6.92.3-9.91-1.78-3.65-2.55-4.73-6.33-4.23-10.51.76-6.44,5.73-10.43,12.34-10.07C92.88,94.39,94.51,94.75,96.24,95Z" transform="translate(-28.21)"/><path d="M41.35,28h49.2V42.23h14.3V77.17H55.67V62.92H41.35ZM58.23,44.83v29.8h44.08V44.83ZM88,30.55H43.9V60.28H55.63v-18H88Z" transform="translate(-28.21)"/><path d="M38.8,112.72V98.6c2.93-.86,6.11,0,7.71,2,1.71,2.16,1.87,6.49.33,9.2C45.46,112.2,42.58,113.27,38.8,112.72Z" transform="translate(-28.21)"/><path d="M71.63,105.52a29.05,29.05,0,0,1-1.59,5,4.61,4.61,0,0,1-8.06.18,10.67,10.67,0,0,1,.08-10.32,4.54,4.54,0,0,1,7.83.09A26.83,26.83,0,0,1,71.63,105.52Z" transform="translate(-28.21)"/><path class="cls-3" d="M58.23,44.83h44.08v29.8H58.23Zm11.53,4.75c-.24.86-.09,1.24.84,1.24q11.9,0,23.78,0c1,0,1.11-.42.82-1.24Zm-.05,7.25H95.26V55.71H69.71ZM95.22,63.4c.41-1.26-.32-1.22-1.1-1.22H70.75c-.32,0-.65,0-1,.07V63.4Zm0,5.11H69.75c-.24.84,0,1.2.86,1.2q11.9,0,23.78,0C95.29,69.71,95.51,69.37,95.22,68.51ZM65.39,54.62a1.64,1.64,0,1,0,0,3.28A1.54,1.54,0,0,0,67,56.32,1.59,1.59,0,0,0,65.39,54.62Zm0,9.85A1.58,1.58,0,0,0,67,62.79a1.56,1.56,0,0,0-1.59-1.61,1.65,1.65,0,1,0,0,3.29ZM67,50.2a1.59,1.59,0,0,0-1.63-1.68A1.65,1.65,0,1,0,67,50.2ZM65.41,67.42A1.64,1.64,0,0,0,63.69,69a1.7,1.7,0,0,0,1.68,1.67,1.64,1.64,0,0,0,0-3.28Z" transform="translate(-28.21)"/><path class="cls-3" d="M88,30.55V42.24H55.63v18H43.9V30.55Z" transform="translate(-28.21)"/><path d="M69.76,49.58H95.2c.29.82.19,1.24-.82,1.24q-11.89,0-23.78,0C69.67,50.82,69.52,50.44,69.76,49.58Z" transform="translate(-28.21)"/><path d="M69.71,56.83V55.71H95.26v1.12Z" transform="translate(-28.21)"/><path d="M95.22,63.4H69.74V62.26c.36,0,.69-.07,1-.07H94.12C94.9,62.18,95.63,62.14,95.22,63.4Z" transform="translate(-28.21)"/><path d="M95.22,68.51c.29.86.07,1.2-.83,1.19q-11.9,0-23.78,0c-.91,0-1.1-.36-.86-1.2Z" transform="translate(-28.21)"/><path d="M65.39,54.62a1.59,1.59,0,0,1,1.6,1.7,1.54,1.54,0,0,1-1.6,1.58,1.64,1.64,0,1,1,0-3.28Z" transform="translate(-28.21)"/><path d="M65.37,64.47a1.65,1.65,0,1,1,0-3.29A1.56,1.56,0,0,1,67,62.79,1.58,1.58,0,0,1,65.37,64.47Z" transform="translate(-28.21)"/><path d="M67,50.2a1.65,1.65,0,1,1-1.63-1.68A1.59,1.59,0,0,1,67,50.2Z" transform="translate(-28.21)"/><path d="M65.41,67.42a1.64,1.64,0,0,1,0,3.28A1.7,1.7,0,0,1,63.69,69,1.64,1.64,0,0,1,65.41,67.42Z" transform="translate(-28.21)"/></g></g></g></svg>