<?xml version="1.0" encoding="utf-8"?>
<!-- Generator: Adobe Illustrator 26.3.1, SVG Export Plug-In . SVG Version: 6.00 Build 0)  -->
<svg version="1.1" id="Layer_1" xmlns="http://www.w3.org/2000/svg" xmlns:xlink="http://www.w3.org/1999/xlink" x="0px" y="0px"
	 viewBox="0 0 200 200" style="enable-background:new 0 0 200 200;" xml:space="preserve">
<style type="text/css">
	.st0{fill:#0067FC;}
</style>
<g>
	<g>
		<g>
			<path class="st0" d="M123.5,143.2H73.7c-3,0-5.5-2.5-5.5-5.5V62.2c0-3,2.5-5.5,5.5-5.5h42c0.4,0,0.7,0.2,0.9,0.4l12.1,13.5
				c0.2,0.2,0.3,0.5,0.3,0.8v66.3C129,140.8,126.5,143.2,123.5,143.2z M70.7,106.8v31c0,1.7,1.3,3,3,3h49.8c1.7,0,3-1.3,3-3V72
				l-11.4-12.8H73.7c-1.7,0-3,1.3-3,3V106.8z"/>
		</g>
		<g>
			<path class="st0" d="M127.7,72.7h-8.8c-3,0-5.5-2.5-5.5-5.5v-8.8c0-0.7,0.6-1.2,1.2-1.2s1.2,0.6,1.2,1.2v8.8c0,1.7,1.3,3,3,3h8.8
				c0.7,0,1.2,0.6,1.2,1.2S128.4,72.7,127.7,72.7z"/>
		</g>
	</g>
	<g>
		<path class="st0" d="M113.3,102.5H79.7c-0.7,0-1.2-0.6-1.2-1.2s0.6-1.2,1.2-1.2h33.6c0.7,0,1.2,0.6,1.2,1.2S114,102.5,113.3,102.5
			z"/>
	</g>
	<g>
		<path class="st0" d="M111.3,109.5H79.7c-0.7,0-1.2-0.6-1.2-1.2s0.6-1.2,1.2-1.2h31.6c0.7,0,1.2,0.6,1.2,1.2S112,109.5,111.3,109.5
			z"/>
	</g>
	<g>
		<path class="st0" d="M104.6,116.6H79.7c-0.7,0-1.2-0.6-1.2-1.2s0.6-1.2,1.2-1.2h24.9c0.7,0,1.2,0.6,1.2,1.2
			S105.3,116.6,104.6,116.6z"/>
	</g>
	<g>
		<path class="st0" d="M92.2,123.7H79.7c-0.7,0-1.2-0.6-1.2-1.2s0.6-1.2,1.2-1.2h12.5c0.7,0,1.2,0.6,1.2,1.2S92.9,123.7,92.2,123.7z
			"/>
	</g>
	<g>
		<path class="st0" d="M84.6,130.7h-4.9c-0.7,0-1.2-0.6-1.2-1.2s0.6-1.2,1.2-1.2h4.9c0.7,0,1.2,0.6,1.2,1.2S85.3,130.7,84.6,130.7z"
			/>
	</g>
	<g>
		<path class="st0" d="M100,172.7c-40.1,0-72.7-32.6-72.7-72.7S59.9,27.3,100,27.3s72.7,32.6,72.7,72.7S140.1,172.7,100,172.7z
			 M100,31.3c-37.9,0-68.7,30.8-68.7,68.7c0,37.9,30.8,68.7,68.7,68.7c37.9,0,68.7-30.8,68.7-68.7C168.7,62.1,137.9,31.3,100,31.3z"
			/>
	</g>
	<g>
		<g>
			<path class="st0" d="M100,95.2c-7.7,0-14-6.3-14-14s6.3-14,14-14c7.7,0,14,6.3,14,14S107.7,95.2,100,95.2z M100,69.6
				c-6.4,0-11.7,5.2-11.7,11.7s5.2,11.7,11.7,11.7s11.7-5.2,11.7-11.7S106.4,69.6,100,69.6z"/>
		</g>
		<g>
			<path class="st0" d="M100,95.2c-0.6,0-1.2-0.5-1.2-1.2V68.4c0-0.6,0.5-1.2,1.2-1.2s1.2,0.5,1.2,1.2V94
				C101.2,94.7,100.6,95.2,100,95.2z"/>
		</g>
		<g>
			<path class="st0" d="M104.3,94.4c-0.2,0-0.4-0.1-0.6-0.2c-0.5-0.3-0.7-1-0.4-1.6c8.3-13.7-0.9-22.8-1.3-23.1
				c-0.5-0.4-0.5-1.2,0-1.6c0.4-0.5,1.2-0.5,1.6,0c0.1,0.1,10.9,10.6,1.6,26C105,94.2,104.7,94.4,104.3,94.4z"/>
		</g>
		<g>
			<path class="st0" d="M94.1,93.2c-0.5,0-1-0.3-1.1-0.8c-5.3-17.9,3.1-24.3,3.5-24.6c0.5-0.4,1.2-0.3,1.6,0.3
				c0.4,0.5,0.3,1.2-0.3,1.6c-0.3,0.2-7.5,5.8-2.7,22c0.2,0.6-0.2,1.3-0.8,1.4C94.4,93.2,94.3,93.2,94.1,93.2z"/>
		</g>
		<g>
			<path class="st0" d="M112.8,82.4H87.2c-0.6,0-1.2-0.5-1.2-1.2s0.5-1.2,1.2-1.2h25.6c0.6,0,1.2,0.5,1.2,1.2S113.4,82.4,112.8,82.4
				z"/>
		</g>
	</g>
	<g>
		<path class="st0" d="M120.4,115.6c-0.6,0-1.1-0.4-1.2-1l-0.4-2.2l-2.1,0.4c-0.7,0.1-1.3-0.3-1.5-1c-0.1-0.7,0.3-1.3,1-1.5l3.3-0.6
			c0.3-0.1,0.7,0,0.9,0.2c0.3,0.2,0.5,0.5,0.5,0.8l0.6,3.4c0.1,0.7-0.3,1.3-1,1.5C120.6,115.6,120.5,115.6,120.4,115.6z"/>
	</g>
	<g>
		<path class="st0" d="M86.8,136.1c-0.3,0-0.7-0.1-0.9-0.4c-0.5-0.5-0.4-1.3,0.1-1.8l16.1-14.9c0.3-0.3,0.8-0.4,1.2-0.3
			c0.4,0.1,0.7,0.5,0.9,0.9l1.3,4.9l12.8-13.1c0.5-0.5,1.3-0.5,1.8,0c0.5,0.5,0.5,1.3,0,1.8l-14.3,14.6c-0.3,0.3-0.8,0.4-1.2,0.3
			c-0.4-0.1-0.8-0.5-0.9-0.9l-1.3-5l-14.6,13.5C87.4,136,87.1,136.1,86.8,136.1z"/>
	</g>
</g>
</svg>
