<?xml version="1.0" encoding="utf-8"?>
<!-- Generator: Adobe Illustrator 26.3.1, SVG Export Plug-In . SVG Version: 6.00 Build 0)  -->
<svg version="1.1" id="Layer_1" xmlns="http://www.w3.org/2000/svg" xmlns:xlink="http://www.w3.org/1999/xlink" x="0px" y="0px"
	 viewBox="0 0 200 200" style="enable-background:new 0 0 200 200;" xml:space="preserve">
<style type="text/css">
	.st0{fill:#0067FC;}
</style>
<g>
	<g>
		<g>
			<path class="st0" d="M137,133.5h-28.1c-2,0-3.7-1.7-3.7-3.7V87.2c0-2,1.7-3.7,3.7-3.7h23.7c0.4,0,0.7,0.2,1,0.4l6.8,7.6
				c0.2,0.2,0.3,0.5,0.3,0.9v37.4C140.7,131.8,139.1,133.5,137,133.5z M107.8,112.3v17.5c0,0.6,0.5,1.1,1.1,1.1H137
				c0.6,0,1.1-0.5,1.1-1.1V92.9L132,86h-23.1c-0.6,0-1.1,0.5-1.1,1.1V112.3z"/>
		</g>
		<g>
			<path class="st0" d="M139.4,93.7h-5c-2,0-3.7-1.7-3.7-3.7v-5c0-0.7,0.6-1.3,1.3-1.3s1.3,0.6,1.3,1.3v5c0,0.6,0.5,1.1,1.1,1.1h5
				c0.7,0,1.3,0.6,1.3,1.3S140.1,93.7,139.4,93.7z"/>
		</g>
	</g>
	<g>
		<g>
			<path class="st0" d="M94.5,114.5H66.4c-2,0-3.7-1.7-3.7-3.7V68.2c0-2,1.7-3.7,3.7-3.7h23.7c0.4,0,0.7,0.2,1,0.4l6.8,7.6
				c0.2,0.2,0.3,0.5,0.3,0.9v37.4C98.2,112.8,96.5,114.5,94.5,114.5z M65.3,93.3v17.5c0,0.6,0.5,1.1,1.1,1.1h28.1
				c0.6,0,1.1-0.5,1.1-1.1V73.9l-6.1-6.8H66.4c-0.6,0-1.1,0.5-1.1,1.1V93.3z"/>
		</g>
		<g>
			<path class="st0" d="M96.9,74.7h-5c-2,0-3.7-1.7-3.7-3.7v-5c0-0.7,0.6-1.3,1.3-1.3s1.3,0.6,1.3,1.3v5c0,0.6,0.5,1.1,1.1,1.1h5
				c0.7,0,1.3,0.6,1.3,1.3S97.6,74.7,96.9,74.7z"/>
		</g>
	</g>
	<g>
		<path class="st0" d="M90,94.2H71c-0.7,0-1.3-0.6-1.3-1.3s0.6-1.3,1.3-1.3h19c0.7,0,1.3,0.6,1.3,1.3S90.7,94.2,90,94.2z"/>
	</g>
	<g>
		<path class="st0" d="M90,99.3H71c-0.7,0-1.3-0.6-1.3-1.3s0.6-1.3,1.3-1.3h19c0.7,0,1.3,0.6,1.3,1.3S90.7,99.3,90,99.3z"/>
	</g>
	<g>
		<path class="st0" d="M90,104.4H71c-0.7,0-1.3-0.6-1.3-1.3s0.6-1.3,1.3-1.3h19c0.7,0,1.3,0.6,1.3,1.3S90.7,104.4,90,104.4z"/>
	</g>
	<g>
		<path class="st0" d="M88.8,89.1H71c-0.7,0-1.3-0.6-1.3-1.3s0.6-1.3,1.3-1.3h17.8c0.7,0,1.3,0.6,1.3,1.3S89.5,89.1,88.8,89.1z"/>
	</g>
	<g>
		<path class="st0" d="M87.7,84H71c-0.7,0-1.3-0.6-1.3-1.3s0.6-1.3,1.3-1.3h16.7c0.7,0,1.3,0.6,1.3,1.3S88.4,84,87.7,84z"/>
	</g>
	<g>
		<path class="st0" d="M100,172.7c-40.1,0-72.7-32.6-72.7-72.7S59.9,27.3,100,27.3s72.7,32.6,72.7,72.7S140.1,172.7,100,172.7z
			 M100,31.3c-37.9,0-68.7,30.8-68.7,68.7c0,37.9,30.8,68.7,68.7,68.7c37.9,0,68.7-30.8,68.7-68.7C168.7,62.1,137.9,31.3,100,31.3z"
			/>
	</g>
	<g>
		<g>
			<path class="st0" d="M135.7,116.8h-18.5c-0.7,0-1.3-0.6-1.3-1.3s0.6-1.3,1.3-1.3h18.5c0.7,0,1.3,0.6,1.3,1.3
				S136.4,116.8,135.7,116.8z"/>
		</g>
		<g>
			<path class="st0" d="M135.7,121.6h-18.5c-0.7,0-1.3-0.6-1.3-1.3s0.6-1.3,1.3-1.3h18.5c0.7,0,1.3,0.6,1.3,1.3
				S136.4,121.6,135.7,121.6z"/>
		</g>
		<g>
			<path class="st0" d="M128.9,126.4h-11.6c-0.7,0-1.3-0.6-1.3-1.3s0.6-1.3,1.3-1.3h11.6c0.7,0,1.3,0.6,1.3,1.3
				S129.6,126.4,128.9,126.4z"/>
		</g>
		<g>
			<path class="st0" d="M112.5,117.7c-0.3,0-0.7-0.1-0.9-0.4l-1-1c-0.5-0.5-0.5-1.3,0-1.8c0.5-0.5,1.3-0.5,1.8,0l0,0.1l1-1
				c0.5-0.5,1.3-0.5,1.8,0c0.5,0.5,0.5,1.3,0,1.8l-1.9,1.9C113.2,117.6,112.8,117.7,112.5,117.7z"/>
		</g>
		<g>
			<path class="st0" d="M131.8,111.6h-14.5c-0.7,0-1.3-0.6-1.3-1.3s0.6-1.3,1.3-1.3h14.5c0.7,0,1.3,0.6,1.3,1.3
				S132.5,111.6,131.8,111.6z"/>
		</g>
		<g>
			<path class="st0" d="M112.5,112.6c-0.3,0-0.7-0.1-0.9-0.4l-1-1c-0.5-0.5-0.5-1.3,0-1.8c0.5-0.5,1.3-0.5,1.8,0l0,0.1l1-1
				c0.5-0.5,1.3-0.5,1.8,0c0.5,0.5,0.5,1.3,0,1.8l-1.9,1.9C113.2,112.4,112.8,112.6,112.5,112.6z"/>
		</g>
		<g>
			<path class="st0" d="M112.5,122.5c-0.3,0-0.7-0.1-0.9-0.4l-1-1c-0.5-0.5-0.5-1.3,0-1.8c0.5-0.5,1.3-0.5,1.8,0l0,0.1l1-1
				c0.5-0.5,1.3-0.5,1.8,0c0.5,0.5,0.5,1.3,0,1.8l-1.9,1.9C113.2,122.4,112.8,122.5,112.5,122.5z"/>
		</g>
		<g>
			<path class="st0" d="M112.5,126.9c-0.3,0-0.7-0.1-0.9-0.4l-1-1c-0.5-0.5-0.5-1.3,0-1.8c0.5-0.5,1.3-0.5,1.8,0l0,0.1l1-1
				c0.5-0.5,1.3-0.5,1.8,0c0.5,0.5,0.5,1.3,0,1.8l-1.9,1.9C113.2,126.8,112.8,126.9,112.5,126.9z"/>
		</g>
	</g>
	<g>
		<path class="st0" d="M117.9,79.4c-0.3,0-0.6-0.1-0.9-0.4l-6.7-6.7c-0.5-0.5-0.5-1.3,0-1.8s1.3-0.5,1.8,0l5.8,5.8l5.7-5.7
			c0.5-0.5,1.3-0.5,1.8,0s0.5,1.3,0,1.8l-6.6,6.6C118.6,79.3,118.3,79.4,117.9,79.4z"/>
	</g>
	<g>
		<path class="st0" d="M117.9,79.4c-0.7,0-1.2-0.6-1.2-1.2V54.6H86.5v6c0,0.7-0.6,1.2-1.2,1.2S84,61.3,84,60.6v-7.2
			c0-0.7,0.6-1.2,1.2-1.2h32.7c0.7,0,1.2,0.6,1.2,1.2v24.8C119.2,78.9,118.6,79.4,117.9,79.4z"/>
	</g>
</g>
</svg>
