<?xml version="1.0" encoding="UTF-8"?>
<svg id="Layer_2" xmlns="http://www.w3.org/2000/svg" viewBox="0 0 145.4 145.4">
  <defs>
    <style>
      .cls-1 {
        fill: #0067fc;
      }
    </style>
  </defs>
  <g id="Layer_1-2" data-name="Layer_1">
    <g>
      <g>
        <path class="cls-1" d="M68.21,91.99c-.38-.28-.96-.6-1.41-1.05-4.1-4.07-8.14-8.18-12.26-12.22-1.33-1.3-1.27-2.32,0-3.63,6.97-7.15,13.92-14.33,20.81-21.56,1.47-1.54,2.53-1.21,3.86.11,3.86,3.83,7.76,7.62,11.72,11.35,1.5,1.41,1.76,2.52.19,4.12-6.98,7.14-13.88,14.37-20.82,21.55-.52.54-1,1.21-2.1,1.32Z"/>
        <path class="cls-1" d="M88.59,40.81c2.18-.02,3.08.62,3.89,1.4,3.12,2.98,6.25,5.96,9.35,8.97,2.24,2.18,2.21,4.46.1,6.7-6.17,6.53-4.57,5.72-10.18.5-3.08-2.86-6-5.9-9.06-8.79-1.33-1.26-1.49-2.36-.09-3.59,2.19-1.92,3.6-4.87,5.99-5.18Z"/>
        <path class="cls-1" d="M41.88,102.48c1.62-6.08,3.22-12.17,4.85-18.24.4-1.49,1.31-1.33,2.18-.47,4.32,4.28,8.62,8.58,12.9,12.9.96.97.74,1.75-.59,2.18-5.67,1.86-11.33,3.75-17.01,5.58-1.66.53-2.25-.31-2.33-1.95Z"/>
      </g>
      <path class="cls-1" d="M72.7,145.4C32.6,145.4,0,112.8,0,72.7S32.6,0,72.7,0s72.7,32.6,72.7,72.7-32.6,72.7-72.7,72.7ZM72.7,4C34.8,4,4,34.8,4,72.7s30.8,68.7,68.7,68.7,68.7-30.8,68.7-68.7S110.6,4,72.7,4Z"/>
    </g>
  </g>
</svg>