<?xml version="1.0" encoding="utf-8"?>
<!-- Generator: Adobe Illustrator 26.3.1, SVG Export Plug-In . SVG Version: 6.00 Build 0)  -->
<svg version="1.1" id="Layer_1" xmlns="http://www.w3.org/2000/svg" xmlns:xlink="http://www.w3.org/1999/xlink" x="0px" y="0px"
	 viewBox="0 0 200 200" style="enable-background:new 0 0 200 200;" xml:space="preserve">
<style type="text/css">
	.st0{fill:none;stroke:#0067FC;stroke-width:2.5;stroke-linecap:round;stroke-linejoin:round;stroke-miterlimit:10;}
	.st1{fill:#0067FC;}
</style>
<g>
	<g>
		<path class="st0" d="M101.7,89"/>
	</g>
	<g>
		<path class="st1" d="M105.7,88.5H92.3c-0.7,0-1.2-0.6-1.2-1.2s0.6-1.2,1.2-1.2h13.4c0.7,0,1.2,0.6,1.2,1.2S106.4,88.5,105.7,88.5z
			"/>
	</g>
	<g>
		<path class="st1" d="M100.9,95.1c-0.3,0-0.6-0.1-0.9-0.4c-0.5-0.5-0.5-1.3,0-1.8l5.8-5.8l-5.7-5.7c-0.5-0.5-0.5-1.3,0-1.8
			c0.5-0.5,1.3-0.5,1.8,0l6.6,6.6c0.2,0.2,0.4,0.6,0.4,0.9s-0.1,0.6-0.4,0.9l-6.7,6.7C101.5,95,101.2,95.1,100.9,95.1z"/>
	</g>
	<g>
		<path class="st1" d="M100,172.7c-40.1,0-72.7-32.6-72.7-72.7S59.9,27.3,100,27.3s72.7,32.6,72.7,72.7S140.1,172.7,100,172.7z
			 M100,31.3c-37.9,0-68.7,30.8-68.7,68.7c0,37.9,30.8,68.7,68.7,68.7c37.9,0,68.7-30.8,68.7-68.7C168.7,62.1,137.9,31.3,100,31.3z"
			/>
	</g>
	<g>
		<path class="st1" d="M133.9,121.2H66.1c-0.8,0-1.4-0.6-1.4-1.4V74.1c0-0.8,0.6-1.4,1.4-1.4h67.8c0.8,0,1.4,0.6,1.4,1.4v45.7
			C135.3,120.6,134.7,121.2,133.9,121.2z M67.5,118.4h65.1V75.5H67.5V118.4z"/>
	</g>
	<g>
		<path class="st1" d="M99.8,105.3c-1.8,0-3.7-0.7-5.2-2.2L66,76.1c-0.6-0.6-0.6-1.5-0.1-2.2s1.5-0.6,2.2-0.1l28.7,27
			c1.8,1.7,4.3,1.7,6.1,0l29-27.1c0.6-0.6,1.6-0.5,2.2,0.1c0.6,0.6,0.5,1.6-0.1,2.2l-29,27.1C103.5,104.6,101.6,105.3,99.8,105.3z"
			/>
	</g>
	<g>
		<path class="st1" d="M133.9,121H66.1c-0.6,0-1-0.4-1.2-0.9c-0.1-0.5,0.1-1.1,0.6-1.4L95.1,101c0.6-0.3,1.3-0.2,1.7,0.4
			s0.2,1.3-0.4,1.7l-25.8,15.5h58.9l-26.1-15.5c-0.6-0.3-0.8-1.1-0.4-1.7c0.3-0.6,1.1-0.8,1.7-0.4l30,17.8c0.5,0.3,0.7,0.8,0.6,1.4
			S134.5,121,133.9,121z"/>
	</g>
</g>
</svg>
