<svg xmlns="http://www.w3.org/2000/svg" xmlns:xlink="http://www.w3.org/1999/xlink" viewBox="0 0 91.81 149.56"><defs><style>.cls-1{fill:none;}.cls-2{clip-path:url(#clip-path);}.cls-3{fill:#fff;}</style><clipPath id="clip-path" transform="translate(-29.1 -0.22)"><rect class="cls-1" width="150" height="150"/></clipPath></defs><g id="Layer_2" data-name="Layer 2"><g id="Layer_1-2" data-name="Layer 1"><g class="cls-2"><polygon points="87.69 140 84.2 140 84.2 131.41 79.47 131.41 79.47 140 75.97 140 81.83 145.86 87.69 140"/><polygon points="84.41 144.41 81.83 146.98 79.26 144.41 71.86 144.41 71.86 149.56 91.81 149.56 91.81 144.41 84.41 144.41"/><path class="cls-3" d="M34.19,5.23H91.55V6.6q0,11.53,0,23.08c0,2.49.85,3.35,3.32,3.35h21V84.31H34.19Zm41,35.19q-10,0-20,0c-3.47,0-5.12,1.66-5.13,5.15v23.7c0,3.6,1.67,5.25,5.31,5.25H94.69c3.64,0,5.31-1.64,5.32-5.25V45.7c0-3.66-1.61-5.28-5.25-5.28Q84.95,40.4,75.14,40.42Z" transform="translate(-29.1 -0.22)"/><path d="M75.14,40.42q9.81,0,19.62,0C98.4,40.42,100,42,100,45.7V69.27c0,3.61-1.68,5.25-5.32,5.25H55.32c-3.64,0-5.3-1.65-5.31-5.25V45.57c0-3.49,1.66-5.15,5.13-5.15Q65.15,40.4,75.14,40.42Zm-21,3.68c.33.29.47.43.63.55Q64.4,51.28,74,57.94a1.21,1.21,0,0,0,1.63-.09q9.65-6.52,19.31-13c.26-.17.48-.38.9-.72ZM95.87,70.82c-.6-.43-.92-.68-1.26-.9-4.56-3.08-9.17-6.11-13.67-9.28-1.18-.82-2-.87-3.07,0s-2.05,1.87-3.08,1.87-2.1-1.13-3.09-1.85a1.26,1.26,0,0,0-1.72,0c-4.64,3.19-9.32,6.33-14,9.49-.24.16-.43.38-.78.68ZM67.62,57.9,53.7,48.32v19Zm28.74-9.65-13.7,9.23,13.7,9.25Z" transform="translate(-29.1 -0.22)"/><path class="cls-3" d="M54.12,44.1H95.87c-.42.34-.64.55-.9.72q-9.66,6.52-19.31,13a1.21,1.21,0,0,1-1.63.09q-9.61-6.67-19.28-13.29C54.59,44.53,54.45,44.39,54.12,44.1Z" transform="translate(-29.1 -0.22)"/><path class="cls-3" d="M95.87,70.82H55.22c.35-.3.54-.52.78-.68,4.66-3.16,9.34-6.3,14-9.49a1.26,1.26,0,0,1,1.72,0c1,.72,2.06,1.86,3.09,1.85s2.14-1.09,3.08-1.87,1.89-.85,3.07,0c4.5,3.17,9.11,6.2,13.67,9.28C95,70.14,95.27,70.39,95.87,70.82Z" transform="translate(-29.1 -0.22)"/><path class="cls-3" d="M67.62,57.9,53.7,67.34v-19Z" transform="translate(-29.1 -0.22)"/><path class="cls-3" d="M96.36,48.25V66.73l-13.7-9.25Z" transform="translate(-29.1 -0.22)"/><path d="M119.34,27.8C112.13,19.62,105,11.39,97.74,3.23a35.83,35.83,0,0,0-3.47-3H33c-3,1.09-3.94,3.29-3.93,6.35q.06,57,0,114.05c0,4.15,1.86,6,6,6H115c3.92,0,5.85-1.92,5.85-5.82q0-44.43,0-88.87A5.93,5.93,0,0,0,119.34,27.8Zm-3.51,56.51H34.19V5.23H91.55V6.6q0,11.53,0,23.08c0,2.49.85,3.35,3.32,3.35h21Z" transform="translate(-29.1 -0.22)"/><path class="cls-3" d="M50.81,99.06v4.6h6.82v4H50.81v5h7.74v4H45.61V95.1H58.55v4Z" transform="translate(-29.1 -0.22)"/><path class="cls-3" d="M87.23,95.16v21.38H82V104.48l-5,12.06H73.19l-5-12.06v12.06H63V95.16h6l6.15,14.74,6.12-14.74Z" transform="translate(-29.1 -0.22)"/><path class="cls-3" d="M97,112.58h6.49v4H91.8V95.16H97Z" transform="translate(-29.1 -0.22)"/></g></g></g></svg>