<?xml version="1.0" encoding="utf-8"?>
<!-- Generator: Adobe Illustrator 26.3.1, SVG Export Plug-In . SVG Version: 6.00 Build 0)  -->
<svg version="1.1" id="Layer_1" xmlns="http://www.w3.org/2000/svg" xmlns:xlink="http://www.w3.org/1999/xlink" x="0px" y="0px"
	 viewBox="0 0 200 200" style="enable-background:new 0 0 200 200;" xml:space="preserve">
<style type="text/css">
	.st0{fill:#0067FC;}
</style>
<g>
	<g>
		<g>
			<path class="st0" d="M110.7,86.4h-27c-0.7,0-1.2-0.6-1.2-1.2s0.6-1.2,1.2-1.2h27c0.7,0,1.2,0.6,1.2,1.2S111.4,86.4,110.7,86.4z"
				/>
		</g>
		<g>
			<path class="st0" d="M110.7,93.4h-27c-0.7,0-1.2-0.6-1.2-1.2s0.6-1.2,1.2-1.2h27c0.7,0,1.2,0.6,1.2,1.2S111.4,93.4,110.7,93.4z"
				/>
		</g>
		<g>
			<path class="st0" d="M100.7,100.4h-17c-0.7,0-1.2-0.6-1.2-1.2s0.6-1.2,1.2-1.2h17c0.7,0,1.2,0.6,1.2,1.2S101.3,100.4,100.7,100.4
				z"/>
		</g>
		<g>
			<path class="st0" d="M76.7,87.8c-0.3,0-0.6-0.1-0.9-0.4L74.4,86c-0.5-0.5-0.5-1.3,0-1.8s1.3-0.5,1.8,0l0.5,0.5l1.9-1.9
				c0.5-0.5,1.3-0.5,1.8,0s0.5,1.3,0,1.8l-2.8,2.8C77.4,87.7,77,87.8,76.7,87.8z"/>
		</g>
		<g>
			<path class="st0" d="M76.7,94.8c-0.3,0-0.6-0.1-0.9-0.4L74.4,93c-0.5-0.5-0.5-1.3,0-1.8s1.3-0.5,1.8,0l0.5,0.5l1.9-1.9
				c0.5-0.5,1.3-0.5,1.8,0s0.5,1.3,0,1.8l-2.8,2.8C77.4,94.7,77,94.8,76.7,94.8z"/>
		</g>
		<g>
			<path class="st0" d="M76.7,101.3C76.7,101.3,76.7,101.3,76.7,101.3c-0.3,0-0.6-0.1-0.9-0.4l-1.4-1.4c-0.5-0.5-0.5-1.3,0-1.8
				c0.5-0.5,1.3-0.5,1.8,0l0.5,0.5l1.9-1.9c0.5-0.5,1.3-0.5,1.8,0c0.5,0.5,0.5,1.3,0,1.8l-2.8,2.8C77.4,101.1,77,101.3,76.7,101.3z"
				/>
		</g>
	</g>
	<g>
		<path class="st0" d="M97.2,116.5H74.4c-0.7,0-1.2-0.6-1.2-1.2v-8.9c0-0.7,0.6-1.2,1.2-1.2h22.7c0.7,0,1.2,0.6,1.2,1.2v8.9
			C98.4,116,97.8,116.5,97.2,116.5z M75.7,114h20.2v-6.4H75.7V114z"/>
	</g>
	<g>
		<path class="st0" d="M127.3,99.4h-11.4c-0.7,0-1.2-0.6-1.2-1.2V82.7c0-0.7,0.6-1.2,1.2-1.2h11.4c0.7,0,1.2,0.6,1.2,1.2v15.5
			C128.6,98.9,128,99.4,127.3,99.4z M117.2,96.9h8.9V84h-8.9V96.9z"/>
	</g>
	<g>
		<path class="st0" d="M97.2,129.9H74.4c-0.7,0-1.2-0.6-1.2-1.2v-8.9c0-0.7,0.6-1.2,1.2-1.2h22.7c0.7,0,1.2,0.6,1.2,1.2v8.9
			C98.4,129.4,97.8,129.9,97.2,129.9z M75.7,127.4h20.2V121H75.7V127.4z"/>
	</g>
	<g>
		<path class="st0" d="M100,172.7c-40.1,0-72.7-32.6-72.7-72.7S59.9,27.3,100,27.3s72.7,32.6,72.7,72.7S140.1,172.7,100,172.7z
			 M100,31.3c-37.9,0-68.7,30.8-68.7,68.7c0,37.9,30.8,68.7,68.7,68.7c37.9,0,68.7-30.8,68.7-68.7C168.7,62.1,137.9,31.3,100,31.3z"
			/>
	</g>
	<g>
		<path class="st0" d="M132.4,136.6H67.6c-2.3,0-4.2-1.9-4.2-4.2V67.6c0-2.3,1.9-4.2,4.2-4.2h64.7c2.3,0,4.2,1.9,4.2,4.2v64.7
			C136.6,134.7,134.7,136.6,132.4,136.6z M67.6,65.9c-1,0-1.8,0.8-1.8,1.8v64.7c0,1,0.8,1.8,1.8,1.8h64.7c1,0,1.8-0.8,1.8-1.8V67.6
			c0-1-0.8-1.8-1.8-1.8H67.6z"/>
	</g>
	<g>
		<path class="st0" d="M135.4,74.5H64.6c-0.7,0-1.2-0.6-1.2-1.2S64,72,64.6,72h70.7c0.7,0,1.2,0.6,1.2,1.2S136,74.5,135.4,74.5z"/>
	</g>
	<g>
		<circle class="st0" cx="71.1" cy="69" r="1.3"/>
	</g>
	<g>
		<circle class="st0" cx="75.4" cy="69" r="1.3"/>
	</g>
	<g>
		<circle class="st0" cx="79.7" cy="69" r="1.3"/>
	</g>
	<g>
		<g>
			<path class="st0" d="M114.9,121.2c-3.5,0-6.3-2.8-6.3-6.3s2.8-6.3,6.3-6.3s6.3,2.8,6.3,6.3S118.4,121.2,114.9,121.2z
				 M114.9,111.2c-2.1,0-3.8,1.7-3.8,3.8s1.7,3.8,3.8,3.8s3.8-1.7,3.8-3.8S117,111.2,114.9,111.2z"/>
		</g>
		<g>
			<path class="st0" d="M114.9,128.2c-0.3,0-0.6,0-0.9,0c-1.3,0-2.2-0.9-2.2-2.2c0-0.4-0.2-0.8-0.5-1.1c-0.3-0.3-0.7-0.4-1.1-0.4
				c-0.4,0-0.7,0.1-1,0.4c-1,1-2.2,0.9-3.2-0.1l-1.1-1.1c-1-1-1-2.2,0-3.2c0.4-0.4,0.5-0.9,0.4-1.5c-0.1-0.5-0.5-0.9-1.1-1
				c-0.1,0-0.3,0-0.5,0c-1.2-0.1-2.1-1-2.1-2.1c0-0.6,0-1.2,0-1.9c0-1.3,0.9-2.2,2.2-2.2c0.9,0,1.5-0.7,1.5-1.5c0-0.4-0.1-0.7-0.4-1
				c-1-1-0.9-2.2,0.1-3.2l0.3-0.3c0.3-0.3,0.6-0.6,0.9-0.9c0.2-0.2,0.5-0.4,0.7-0.5l0.1-0.1c0.3-0.1,0.5-0.2,0.8-0.1
				c0.7,0.1,1.1,0.4,1.4,0.7c0.4,0.4,0.9,0.5,1.4,0.4c0.5-0.1,0.9-0.5,1-1.1c0-0.1,0-0.3,0.1-0.5c0.1-1.2,1-2.1,2.1-2.1
				c0.4,0,0.9,0,1.3,0l0.5,0c1.3,0,2.2,0.9,2.3,2.2c0,0.4,0.2,0.8,0.5,1.1c0.3,0.3,0.6,0.4,1,0.4c0.4,0,0.7-0.1,1-0.4
				c1-1,2.2-0.9,3.2,0.1l0.4,0.4c0.3,0.3,0.5,0.5,0.8,0.8c0.9,0.9,0.9,2.1,0,3.1c-0.5,0.5-0.6,1-0.4,1.6c0.3,0.6,0.7,0.9,1.4,0.9
				c1.2,0,2.1,0.9,2.1,2.2c0,0.6,0,1.2,0,1.8c0,1.3-0.9,2.2-2.1,2.2c-0.7,0-1.2,0.3-1.4,0.9c-0.3,0.6-0.2,1.1,0.3,1.6
				c0.9,1,0.9,2.2,0,3.1c-0.4,0.4-0.8,0.8-1.3,1.3c-0.9,0.9-2.1,0.9-3.1,0c-0.5-0.5-1-0.6-1.6-0.3c-0.6,0.3-0.9,0.7-0.9,1.4
				c0,1.3-0.9,2.1-2.2,2.1C115.5,128.2,115.2,128.2,114.9,128.2z M114.3,125.7c0.4,0,0.8,0,1.2,0c0.1-1.6,1-2.8,2.4-3.4
				c1.4-0.6,2.9-0.4,4.1,0.7c0.3-0.3,0.6-0.6,0.9-0.9c-1-1.2-1.3-2.7-0.6-4.1c0.6-1.4,1.8-2.3,3.4-2.4c0-0.4,0-0.8,0-1.2
				c-1.6-0.1-2.8-1-3.4-2.4c-0.6-1.4-0.4-2.9,0.7-4.1c-0.2-0.2-0.4-0.4-0.6-0.6l-0.2-0.2c-0.7,0.6-1.6,0.9-2.5,1
				c-1.1,0-2.1-0.4-2.8-1.1c-0.7-0.7-1.1-1.6-1.2-2.6l-0.3,0c-0.3,0-0.6,0-0.9,0c0,0.2,0,0.4-0.1,0.7c-0.4,1.4-1.4,2.4-2.7,2.8
				c-1.3,0.4-2.7,0.1-3.7-0.8c-0.2,0.2-0.4,0.4-0.7,0.7l-0.2,0.2c0.6,0.7,1,1.6,1,2.5c0,2.1-1.6,3.8-3.7,4c0,0.4,0,0.8,0,1.2
				c0.2,0,0.4,0,0.7,0.1c1.4,0.4,2.4,1.4,2.8,2.7c0.4,1.3,0.1,2.7-0.8,3.7l0.9,0.9c0.7-0.6,1.6-0.9,2.5-1c1.1,0,2.1,0.3,2.9,1.1
				C113.8,123.8,114.2,124.7,114.3,125.7z"/>
		</g>
	</g>
</g>
</svg>
