<?xml version="1.0" encoding="utf-8"?>
<!-- Generator: Adobe Illustrator 26.3.1, SVG Export Plug-In . SVG Version: 6.00 Build 0)  -->
<svg version="1.1" id="Layer_1" xmlns="http://www.w3.org/2000/svg" xmlns:xlink="http://www.w3.org/1999/xlink" x="0px" y="0px"
	 viewBox="0 0 200 200" style="enable-background:new 0 0 200 200;" xml:space="preserve">
<style type="text/css">
	.st0{fill:#0067FC;}
</style>
<g>
	<g>
		<g>
			<path class="st0" d="M117.1,143.3h-42c-3,0-5.5-2.5-5.5-5.5V62.2c0-3,2.5-5.5,5.5-5.5h49.8c3,0,5.5,2.5,5.5,5.5v66.3
				c0,0.3-0.1,0.6-0.3,0.8L118,142.9C117.8,143.1,117.5,143.3,117.1,143.3z M72.1,93.2v44.6c0,1.7,1.3,3,3,3h41.5l11.4-12.8V62.2
				c0-1.7-1.3-3-3-3H75.1c-1.7,0-3,1.3-3,3V93.2z"/>
		</g>
		<g>
			<path class="st0" d="M116.1,142.8c-0.7,0-1.2-0.6-1.2-1.2v-8.8c0-3,2.5-5.5,5.5-5.5h8.8c0.7,0,1.2,0.6,1.2,1.2s-0.6,1.2-1.2,1.2
				h-8.8c-1.7,0-3,1.3-3,3v8.8C117.4,142.3,116.8,142.8,116.1,142.8z"/>
		</g>
	</g>
	<g>
		<path class="st0" d="M116.9,99.2H93.3c-0.7,0-1.2-0.6-1.2-1.2s0.6-1.2,1.2-1.2h23.6c0.7,0,1.2,0.6,1.2,1.2S117.6,99.2,116.9,99.2z
			"/>
	</g>
	<g>
		<path class="st0" d="M116.9,92.1H93.3c-0.7,0-1.2-0.6-1.2-1.2s0.6-1.2,1.2-1.2h23.6c0.7,0,1.2,0.6,1.2,1.2S117.6,92.1,116.9,92.1z
			"/>
	</g>
	<g>
		<path class="st0" d="M116.9,78H93.3c-0.7,0-1.2-0.6-1.2-1.2s0.6-1.2,1.2-1.2h23.6c0.7,0,1.2,0.6,1.2,1.2S117.6,78,116.9,78z"/>
	</g>
	<g>
		<path class="st0" d="M116.9,85.1H93.3c-0.7,0-1.2-0.6-1.2-1.2s0.6-1.2,1.2-1.2h23.6c0.7,0,1.2,0.6,1.2,1.2S117.6,85.1,116.9,85.1z
			"/>
	</g>
	<g>
		<path class="st0" d="M114.9,106.3H93.3c-0.7,0-1.2-0.6-1.2-1.2s0.6-1.2,1.2-1.2h21.6c0.7,0,1.2,0.6,1.2,1.2
			S115.6,106.3,114.9,106.3z"/>
	</g>
	<g>
		<path class="st0" d="M112.9,113.3H93.3c-0.7,0-1.2-0.6-1.2-1.2s0.6-1.2,1.2-1.2h19.6c0.7,0,1.2,0.6,1.2,1.2
			S113.6,113.3,112.9,113.3z"/>
	</g>
	<g>
		<path class="st0" d="M108.9,120.4H93.3c-0.7,0-1.2-0.6-1.2-1.2s0.6-1.2,1.2-1.2h15.6c0.7,0,1.2,0.6,1.2,1.2
			S109.6,120.4,108.9,120.4z"/>
	</g>
	<g>
		<path class="st0" d="M101.9,127.4h-8.6c-0.7,0-1.2-0.6-1.2-1.2s0.6-1.2,1.2-1.2h8.6c0.7,0,1.2,0.6,1.2,1.2
			S102.6,127.4,101.9,127.4z"/>
	</g>
	<g>
		<path class="st0" d="M100,172.7c-40.1,0-72.7-32.6-72.7-72.7S59.9,27.3,100,27.3s72.7,32.6,72.7,72.7S140.1,172.7,100,172.7z
			 M100,31.3c-37.9,0-68.7,30.8-68.7,68.7c0,37.9,30.8,68.7,68.7,68.7c37.9,0,68.7-30.8,68.7-68.7C168.7,62.1,137.9,31.3,100,31.3z"
			/>
	</g>
	<g>
		<path class="st0" d="M86.6,79.4c-0.3,0-0.6-0.1-0.8-0.3L84.4,78c-0.5-0.4-0.6-1.2-0.2-1.8c0.4-0.5,1.2-0.6,1.8-0.2l0.3,0.2
			l1.3-2.2c0.4-0.6,1.1-0.8,1.7-0.4c0.6,0.4,0.8,1.1,0.4,1.7l-2.1,3.5c-0.2,0.3-0.5,0.5-0.8,0.6C86.8,79.4,86.7,79.4,86.6,79.4z"/>
	</g>
	<g>
		<path class="st0" d="M86.6,86.3c-0.3,0-0.6-0.1-0.8-0.3l-1.4-1.1c-0.5-0.4-0.6-1.2-0.2-1.8c0.4-0.5,1.2-0.6,1.8-0.2l0.3,0.2
			l1.3-2.2c0.4-0.6,1.1-0.8,1.7-0.4s0.8,1.1,0.4,1.7l-2.1,3.5c-0.2,0.3-0.5,0.5-0.8,0.6C86.8,86.3,86.7,86.3,86.6,86.3z"/>
	</g>
	<g>
		<path class="st0" d="M86.6,93.3c-0.3,0-0.6-0.1-0.8-0.3l-1.4-1.1c-0.5-0.4-0.6-1.2-0.2-1.8c0.4-0.5,1.2-0.6,1.8-0.2l0.3,0.2
			l1.3-2.2c0.4-0.6,1.1-0.8,1.7-0.4c0.6,0.4,0.8,1.1,0.4,1.7l-2.1,3.5c-0.2,0.3-0.5,0.5-0.8,0.6C86.8,93.3,86.7,93.3,86.6,93.3z"/>
	</g>
	<g>
		<path class="st0" d="M86.6,100.2c-0.3,0-0.6-0.1-0.8-0.3l-1.4-1.1c-0.5-0.4-0.6-1.2-0.2-1.8c0.4-0.5,1.2-0.6,1.8-0.2l0.3,0.2
			l1.3-2.2c0.4-0.6,1.1-0.8,1.7-0.4s0.8,1.1,0.4,1.7l-2.1,3.5c-0.2,0.3-0.5,0.5-0.8,0.6C86.8,100.2,86.7,100.2,86.6,100.2z"/>
	</g>
	<g>
		<path class="st0" d="M86.6,108.3c-0.3,0-0.6-0.1-0.8-0.3l-1.4-1.1c-0.5-0.4-0.6-1.2-0.2-1.8c0.4-0.5,1.2-0.6,1.8-0.2l0.3,0.2
			l1.3-2.2c0.4-0.6,1.1-0.8,1.7-0.4c0.6,0.4,0.8,1.1,0.4,1.7l-2.1,3.5c-0.2,0.3-0.5,0.5-0.8,0.6C86.8,108.3,86.7,108.3,86.6,108.3z"
			/>
	</g>
	<g>
		<path class="st0" d="M86.6,115.2c-0.3,0-0.6-0.1-0.8-0.3l-1.4-1.1c-0.5-0.4-0.6-1.2-0.2-1.8c0.4-0.5,1.2-0.6,1.8-0.2l0.3,0.2
			l1.3-2.2c0.4-0.6,1.1-0.8,1.7-0.4c0.6,0.4,0.8,1.1,0.4,1.7l-2.1,3.5c-0.2,0.3-0.5,0.5-0.8,0.6C86.8,115.2,86.7,115.2,86.6,115.2z"
			/>
	</g>
	<g>
		<path class="st0" d="M86.6,122.2c-0.3,0-0.6-0.1-0.8-0.3l-1.4-1.1c-0.5-0.4-0.6-1.2-0.2-1.8c0.4-0.5,1.2-0.6,1.8-0.2l0.3,0.2
			l1.3-2.2c0.4-0.6,1.1-0.8,1.7-0.4c0.6,0.4,0.8,1.1,0.4,1.7l-2.1,3.5c-0.2,0.3-0.5,0.5-0.8,0.6C86.8,122.2,86.7,122.2,86.6,122.2z"
			/>
	</g>
	<g>
		<path class="st0" d="M86.6,129.1c-0.3,0-0.6-0.1-0.8-0.3l-1.4-1.1c-0.5-0.4-0.6-1.2-0.2-1.8c0.4-0.5,1.2-0.6,1.8-0.2l0.3,0.2
			l1.3-2.2c0.4-0.6,1.1-0.8,1.7-0.4c0.6,0.4,0.8,1.1,0.4,1.7l-2.1,3.5c-0.2,0.3-0.5,0.5-0.8,0.6C86.8,129.1,86.7,129.1,86.6,129.1z"
			/>
	</g>
</g>
</svg>
