<?xml version="1.0" encoding="utf-8"?>
<!-- Generator: Adobe Illustrator 26.3.1, SVG Export Plug-In . SVG Version: 6.00 Build 0)  -->
<svg version="1.1" id="Layer_1" xmlns="http://www.w3.org/2000/svg" xmlns:xlink="http://www.w3.org/1999/xlink" x="0px" y="0px"
	 viewBox="0 0 200 200" style="enable-background:new 0 0 200 200;" xml:space="preserve">
<style type="text/css">
	.st0{fill:#0067FC;}
</style>
<g>
	<g>
		<g>
			<path class="st0" d="M117.1,143.3h-42c-3,0-5.5-2.5-5.5-5.5V62.2c0-3,2.5-5.5,5.5-5.5h49.8c3,0,5.5,2.5,5.5,5.5v66.3
				c0,0.3-0.1,0.6-0.3,0.8L118,142.9C117.8,143.1,117.5,143.3,117.1,143.3z M72.1,93.2v44.6c0,1.7,1.3,3,3,3h41.5l11.4-12.8V62.2
				c0-1.7-1.3-3-3-3H75.1c-1.7,0-3,1.3-3,3V93.2z"/>
		</g>
		<g>
			<path class="st0" d="M116.1,142.8c-0.7,0-1.2-0.6-1.2-1.2v-8.8c0-3,2.5-5.5,5.5-5.5h8.8c0.7,0,1.2,0.6,1.2,1.2s-0.6,1.2-1.2,1.2
				h-8.8c-1.7,0-3,1.3-3,3v8.8C117.4,142.3,116.8,142.8,116.1,142.8z"/>
		</g>
	</g>
	<g>
		<g>
			<path class="st0" d="M89.1,129c-7.3,0-13.2-5.9-13.2-13.2c0-7.3,5.9-13.2,13.2-13.2s13.2,5.9,13.2,13.2
				C102.4,123.1,96.4,129,89.1,129z M89.1,105c-5.9,0-10.7,4.8-10.7,10.7s4.8,10.7,10.7,10.7s10.7-4.8,10.7-10.7S95.1,105,89.1,105z
				"/>
		</g>
	</g>
	<g id="Group_263_00000028297529792235771140000006054730989138571450_" transform="translate(-598.5 -520.001)">
		<g id="Group_259_00000002364783807956016160000004839161328420157073_" transform="translate(549.903 487.744)">
			<g id="Ellipse_9_00000066497435250813244560000002974400600371430573_">
				<path class="st0" d="M137.7,148.3c-2.2,0-4-1.8-4-4c0-2.2,1.8-4,4-4s4,1.8,4,4C141.8,146.5,139.9,148.3,137.7,148.3z
					 M137.7,142.8c-0.8,0-1.5,0.7-1.5,1.5s0.7,1.5,1.5,1.5s1.5-0.7,1.5-1.5S138.6,142.8,137.7,142.8z"/>
			</g>
			<g id="Path_16_00000054263708912053151530000013136486612943529091_">
				<path class="st0" d="M142.2,155.8c-0.7,0-1.2-0.6-1.2-1.2c0-1.8-1.5-3.3-3.3-3.3s-3.3,1.5-3.3,3.3c0,0.7-0.6,1.2-1.2,1.2
					s-1.2-0.6-1.2-1.2c0-3.2,2.6-5.8,5.8-5.8s5.8,2.6,5.8,5.8C143.5,155.3,142.9,155.8,142.2,155.8z"/>
			</g>
		</g>
	</g>
	<g>
		<path class="st0" d="M123.1,109h-16.8c-0.7,0-1.3-0.6-1.3-1.3s0.6-1.3,1.3-1.3h16.8c0.7,0,1.3,0.6,1.3,1.3S123.8,109,123.1,109z"
			/>
	</g>
	<g>
		<path class="st0" d="M120.8,116.1h-14.5c-0.7,0-1.3-0.6-1.3-1.3s0.6-1.3,1.3-1.3h14.5c0.7,0,1.3,0.6,1.3,1.3
			S121.6,116.1,120.8,116.1z"/>
	</g>
	<g>
		<path class="st0" d="M116.9,123.2h-10.5c-0.7,0-1.3-0.6-1.3-1.3s0.6-1.3,1.3-1.3h10.5c0.7,0,1.3,0.6,1.3,1.3
			S117.6,123.2,116.9,123.2z"/>
	</g>
	<g>
		<path class="st0" d="M100,172.7c-40.1,0-72.7-32.6-72.7-72.7S59.9,27.3,100,27.3s72.7,32.6,72.7,72.7S140.1,172.7,100,172.7z
			 M100,31.3c-37.9,0-68.7,30.8-68.7,68.7c0,37.9,30.8,68.7,68.7,68.7c37.9,0,68.7-30.8,68.7-68.7C168.7,62.1,137.9,31.3,100,31.3z"
			/>
	</g>
	<g>
		<path class="st0" d="M101.5,95.3c-0.5,0-1-0.3-1.2-0.7L92,76.7L88.1,88c-0.2,0.5-0.7,0.9-1.2,0.9H80c-0.7,0-1.3-0.6-1.3-1.3
			s0.6-1.3,1.3-1.3h6l4.6-13.4c0.2-0.5,0.6-0.8,1.1-0.9c0.5,0,1,0.3,1.2,0.7l8.3,17.9l3.6-10.7c0.2-0.5,0.6-0.8,1.1-0.9
			c0.5,0,1,0.3,1.2,0.7l2.6,5.4h12.5c0.7,0,1.3,0.6,1.3,1.3s-0.6,1.3-1.3,1.3H109c-0.5,0-0.9-0.3-1.2-0.7l-1.6-3.3l-3.6,10.7
			C102.5,95,102.1,95.3,101.5,95.3C101.5,95.3,101.5,95.3,101.5,95.3z"/>
	</g>
</g>
</svg>
