<?xml version="1.0" encoding="utf-8"?>
<!-- Generator: Adobe Illustrator 26.3.1, SVG Export Plug-In . SVG Version: 6.00 Build 0)  -->
<svg version="1.1" id="Layer_1" xmlns="http://www.w3.org/2000/svg" xmlns:xlink="http://www.w3.org/1999/xlink" x="0px" y="0px"
	 viewBox="0 0 200 200" style="enable-background:new 0 0 200 200;" xml:space="preserve">
<style type="text/css">
	.st0{fill:#0067FC;}
	.st1{fill:none;stroke:#0067FC;stroke-width:2.5;stroke-linecap:round;stroke-linejoin:round;stroke-miterlimit:10;}
</style>
<g>
	<g>
		<g>
			<path class="st0" d="M118.7,104.1c-0.7,0-1.2-0.6-1.2-1.2v-6.1H81.6v6.1c0,0.7-0.6,1.2-1.2,1.2s-1.2-0.6-1.2-1.2v-7.4
				c0-0.7,0.6-1.2,1.2-1.2h38.4c0.7,0,1.2,0.6,1.2,1.2v7.4C119.9,103.5,119.4,104.1,118.7,104.1z"/>
		</g>
		<g>
			<path class="st1" d="M101.2,107"/>
		</g>
		<g>
			<path class="st0" d="M99.5,117.6c-0.7,0-1.2-0.6-1.2-1.2V103c0-0.7,0.6-1.2,1.2-1.2s1.2,0.6,1.2,1.2v13.4
				C100.7,117,100.2,117.6,99.5,117.6z"/>
		</g>
		<g>
			<path class="st0" d="M106.1,109c-0.3,0-0.6-0.1-0.9-0.4l-5.8-5.8l-5.7,5.7c-0.5,0.5-1.3,0.5-1.8,0s-0.5-1.3,0-1.8l6.6-6.6
				c0.5-0.5,1.3-0.5,1.8,0l6.7,6.7c0.5,0.5,0.5,1.3,0,1.8C106.8,108.9,106.4,109,106.1,109z"/>
		</g>
	</g>
	<g>
		<g>
			<g id="Group_263_00000041995098003172675820000007242818750703107261_" transform="translate(-598.5 -520.001)">
				<g id="Group_259_00000044886648387410357820000000278085147808857272_" transform="translate(549.903 487.744)">
					<g id="Ellipse_9_00000060012098192036329770000016353316829298433170_">
						<path class="st0" d="M148.1,106.2c-6.1,0-11-4.9-11-11c0-6.1,4.9-11,11-11c6.1,0,11,4.9,11,11
							C159.1,101.3,154.2,106.2,148.1,106.2z M148.1,86.7c-4.7,0-8.5,3.8-8.5,8.5c0,4.7,3.8,8.5,8.5,8.5s8.5-3.8,8.5-8.5
							C156.6,90.5,152.8,86.7,148.1,86.7z"/>
					</g>
					<g id="Path_16_00000175298261622424176280000002645937012018686111_">
						<path class="st0" d="M164,124.7c-0.7,0-1.2-0.6-1.2-1.2c0-8.1-6.6-14.7-14.7-14.7s-14.7,6.6-14.7,14.7c0,0.7-0.6,1.2-1.2,1.2
							s-1.2-0.6-1.2-1.2c0-9.5,7.7-17.2,17.2-17.2c9.5,0,17.2,7.7,17.2,17.2C165.3,124.2,164.7,124.7,164,124.7z"/>
					</g>
				</g>
			</g>
		</g>
		<g>
			<g id="Group_263_00000072239461756819084270000012380735774499713720_" transform="translate(-598.5 -520.001)">
				<g id="Group_259_00000046331291035605182260000006507789320766874046_" transform="translate(549.903 487.744)">
					<g id="Ellipse_9_00000054970272763383544540000016882103917261977743_">
						<path class="st0" d="M173.1,104.1c-4.3,0-7.9-3.5-7.9-7.9c0-4.3,3.5-7.9,7.9-7.9c4.3,0,7.9,3.5,7.9,7.9
							C181,100.6,177.5,104.1,173.1,104.1z M173.1,90.9c-3,0-5.4,2.4-5.4,5.4s2.4,5.4,5.4,5.4c3,0,5.4-2.4,5.4-5.4
							S176.1,90.9,173.1,90.9z"/>
					</g>
					<g id="Path_16_00000126285640428715347500000010850563578524075693_">
						<path class="st0" d="M183.9,116.7c-0.7,0-1.2-0.6-1.2-1.2c0-5.3-4.3-9.6-9.6-9.6s-9.6,4.3-9.6,9.6c0,0.7-0.6,1.2-1.2,1.2
							s-1.2-0.6-1.2-1.2c0-6.6,5.4-12.1,12.1-12.1s12.1,5.4,12.1,12.1C185.2,116.2,184.6,116.7,183.9,116.7z"/>
					</g>
				</g>
			</g>
		</g>
		<g>
			<g id="Group_263_00000033330509014016066870000008031565815967642011_" transform="translate(-598.5 -520.001)">
				<g id="Group_259_00000158023873008626741270000013469274252002354341_" transform="translate(549.903 487.744)">
					<g id="Ellipse_9_00000016069534741417555930000008866437316012744880_">
						<path class="st0" d="M123.1,104.1c-4.3,0-7.9-3.5-7.9-7.9c0-4.3,3.5-7.9,7.9-7.9s7.9,3.5,7.9,7.9
							C131,100.6,127.5,104.1,123.1,104.1z M123.1,90.9c-3,0-5.4,2.4-5.4,5.4s2.4,5.4,5.4,5.4s5.4-2.4,5.4-5.4
							S126.1,90.9,123.1,90.9z"/>
					</g>
					<g id="Path_16_00000026132804753367407800000001591806027615964305_">
						<path class="st0" d="M133.9,116.7c-0.7,0-1.2-0.6-1.2-1.2c0-5.3-4.3-9.6-9.6-9.6s-9.6,4.3-9.6,9.6c0,0.7-0.6,1.2-1.2,1.2
							s-1.2-0.6-1.2-1.2c0-6.6,5.4-12.1,12.1-12.1s12.1,5.4,12.1,12.1C135.2,116.2,134.6,116.7,133.9,116.7z"/>
					</g>
				</g>
			</g>
		</g>
	</g>
	<g>
		<path class="st0" d="M100,172.7c-40.1,0-72.7-32.6-72.7-72.7S59.9,27.3,100,27.3s72.7,32.6,72.7,72.7S140.1,172.7,100,172.7z
			 M100,31.3c-37.9,0-68.7,30.8-68.7,68.7c0,37.9,30.8,68.7,68.7,68.7c37.9,0,68.7-30.8,68.7-68.7C168.7,62.1,137.9,31.3,100,31.3z"
			/>
	</g>
	<g>
		<g id="Group_263_00000153697930871397369990000001109131380968197813_" transform="translate(-598.5 -520.001)">
			<g id="Group_259_00000062167246373482599900000011518764380005616300_" transform="translate(549.903 487.744)">
				<g id="Ellipse_9_00000098921351417831519200000017848625215600969373_">
					<path class="st0" d="M148.6,168.3c-4.4,0-7.9-3.6-7.9-7.9s3.6-7.9,7.9-7.9c4.4,0,7.9,3.6,7.9,7.9S153,168.3,148.6,168.3z
						 M148.6,155c-3,0-5.4,2.4-5.4,5.4c0,3,2.4,5.4,5.4,5.4c3,0,5.4-2.4,5.4-5.4C154,157.4,151.6,155,148.6,155z"/>
				</g>
				<g id="Path_16_00000012431459475845321090000001150961307075291573_">
					<path class="st0" d="M159.5,181c-0.7,0-1.2-0.6-1.2-1.2c0-5.3-4.3-9.6-9.6-9.6s-9.6,4.3-9.6,9.6c0,0.7-0.6,1.2-1.2,1.2
						s-1.2-0.6-1.2-1.2c0-6.7,5.4-12.1,12.1-12.1s12.1,5.4,12.1,12.1C160.7,180.4,160.2,181,159.5,181z"/>
				</g>
			</g>
		</g>
	</g>
</g>
</svg>
