<?xml version="1.0" encoding="utf-8"?>
<!-- Generator: Adobe Illustrator 26.3.1, SVG Export Plug-In . SVG Version: 6.00 Build 0)  -->
<svg version="1.1" id="Layer_1" xmlns="http://www.w3.org/2000/svg" xmlns:xlink="http://www.w3.org/1999/xlink" x="0px" y="0px"
	 viewBox="0 0 200 200" style="enable-background:new 0 0 200 200;" xml:space="preserve">
<style type="text/css">
	.st0{fill:#0067FC;}
</style>
<g>
	<g>
		<g id="Group_263_00000095299132607999999440000001414964944100297883_" transform="translate(-598.5 -520.001)">
			<g id="Group_259_00000172410590059618868840000007964183213457594763_" transform="translate(549.903 487.744)">
				<g id="Ellipse_9_00000135656072134164851530000014442706335381769625_">
					<path class="st0" d="M148.4,112.8c-3.5,0-6.4-2.9-6.4-6.4s2.9-6.4,6.4-6.4c3.5,0,6.4,2.9,6.4,6.4S151.9,112.8,148.4,112.8z
						 M148.4,102.5c-2.2,0-3.9,1.8-3.9,3.9s1.8,3.9,3.9,3.9c2.2,0,3.9-1.8,3.9-3.9S150.5,102.5,148.4,102.5z"/>
				</g>
				<g id="Path_16_00000165923632731588411920000017687661052775280828_">
					<path class="st0" d="M156.8,122.6c-0.7,0-1.2-0.6-1.2-1.2c0-3.9-3.2-7.2-7.2-7.2s-7.2,3.2-7.2,7.2c0,0.7-0.6,1.2-1.2,1.2
						s-1.2-0.6-1.2-1.2c0-5.3,4.3-9.7,9.7-9.7c5.3,0,9.7,4.3,9.7,9.7C158,122.1,157.5,122.6,156.8,122.6z"/>
				</g>
			</g>
		</g>
		<g id="Group_263_00000172431627223753488580000018396752554568086204_" transform="translate(-598.5 -520.001)">
			<g id="Group_259_00000127763974638823356970000004643733886023377589_" transform="translate(549.903 487.744)">
				<g id="Ellipse_9_00000106833951140223536480000017235796448151941821_">
					<path class="st0" d="M161.9,137.4c-3.5,0-6.4-2.9-6.4-6.4c0-3.5,2.9-6.4,6.4-6.4c3.5,0,6.4,2.9,6.4,6.4
						C168.4,134.6,165.5,137.4,161.9,137.4z M161.9,127.1c-2.2,0-3.9,1.8-3.9,3.9c0,2.2,1.8,3.9,3.9,3.9s3.9-1.8,3.9-3.9
						C165.9,128.9,164.1,127.1,161.9,127.1z"/>
				</g>
				<g id="Path_16_00000147925482367403642150000008680983161579088822_">
					<path class="st0" d="M170.4,147.2c-0.7,0-1.2-0.6-1.2-1.2c0-3.9-3.2-7.2-7.2-7.2s-7.2,3.2-7.2,7.2c0,0.7-0.6,1.2-1.2,1.2
						s-1.2-0.6-1.2-1.2c0-5.3,4.3-9.7,9.7-9.7s9.7,4.3,9.7,9.7C171.6,146.7,171,147.2,170.4,147.2z"/>
				</g>
			</g>
		</g>
		<g id="Group_263_00000106133608297463954600000016153639075673513396_" transform="translate(-598.5 -520.001)">
			<g id="Group_259_00000026884837185899420800000006333394476215582379_" transform="translate(549.903 487.744)">
				<g id="Ellipse_9_00000027602198492051684340000017294392440519738764_">
					<path class="st0" d="M135.3,137.3c-3.5,0-6.4-2.9-6.4-6.4s2.9-6.4,6.4-6.4s6.4,2.9,6.4,6.4S138.8,137.3,135.3,137.3z
						 M135.3,127c-2.2,0-3.9,1.8-3.9,3.9s1.8,3.9,3.9,3.9s3.9-1.8,3.9-3.9S137.4,127,135.3,127z"/>
				</g>
				<g id="Path_16_00000115476088284591257090000009040757611213565094_">
					<path class="st0" d="M143.7,147.1c-0.7,0-1.2-0.6-1.2-1.2c0-3.9-3.2-7.2-7.2-7.2c-3.9,0-7.2,3.2-7.2,7.2c0,0.7-0.6,1.2-1.2,1.2
						s-1.2-0.6-1.2-1.2c0-5.3,4.3-9.7,9.7-9.7c5.3,0,9.7,4.3,9.7,9.7C144.9,146.6,144.4,147.1,143.7,147.1z"/>
				</g>
			</g>
		</g>
		<g>
			<path class="st0" d="M99.6,105.5c-1.6,0-3.2-0.3-4.7-0.8c-0.7-0.2-1-0.9-0.8-1.6c0.2-0.7,0.9-1,1.6-0.8c2.4,0.8,5.1,0.9,7.5,0.1
				c0.7-0.2,1.4,0.1,1.6,0.8c0.2,0.7-0.1,1.4-0.8,1.6C102.5,105.3,101.1,105.5,99.6,105.5z"/>
		</g>
		<g>
			<path class="st0" d="M117,91.1c-0.7,0-1.2-0.6-1.2-1.2c0-4.3-2.1-8.3-5.7-10.6c-0.6-0.4-0.7-1.2-0.4-1.7c0.4-0.6,1.2-0.7,1.7-0.4
				c4.3,2.8,6.9,7.6,6.9,12.7C118.3,90.6,117.7,91.1,117,91.1z"/>
		</g>
		<g>
			<path class="st0" d="M81,92.4c-0.7,0-1.2-0.5-1.2-1.2c0-0.7,0-1.4,0.1-2.1c0.6-5.1,3.8-9.5,8.4-11.8c0.6-0.3,1.4,0,1.7,0.6
				c0.3,0.6,0,1.4-0.6,1.7c-3.9,1.9-6.5,5.6-7,9.8c-0.1,0.6-0.1,1.2-0.1,1.7C82.3,91.9,81.7,92.4,81,92.4C81,92.4,81,92.4,81,92.4z"
				/>
		</g>
		<g>
			<path class="st0" d="M117,91.9c-0.3,0-0.6-0.1-0.9-0.4l-1.5-1.5c-0.5-0.5-0.5-1.3,0-1.8c0.5-0.5,1.3-0.5,1.8,0l0.6,0.6l0.6-0.6
				c0.5-0.5,1.3-0.5,1.8,0s0.5,1.3,0,1.8l-1.5,1.5C117.7,91.8,117.3,91.9,117,91.9z"/>
		</g>
		<g>
			<path class="st0" d="M110,80.7c-0.5,0-1-0.3-1.2-0.9l-0.7-2c-0.1-0.3-0.1-0.7,0.1-1c0.1-0.3,0.4-0.5,0.7-0.6l2-0.7
				c0.7-0.2,1.4,0.1,1.6,0.8c0.2,0.7-0.1,1.4-0.8,1.6l-0.9,0.3l0.3,0.8c0.2,0.7-0.1,1.4-0.8,1.6C110.3,80.7,110.1,80.7,110,80.7z"/>
		</g>
		<g>
			<path class="st0" d="M104,106.2c-0.2,0-0.4,0-0.6-0.1c-0.6-0.3-0.9-1.1-0.6-1.7l0.4-0.8l-0.8-0.4c-0.6-0.3-0.9-1.1-0.6-1.7
				c0.3-0.6,1.1-0.9,1.7-0.6l1.9,0.9c0.3,0.1,0.5,0.4,0.6,0.7c0.1,0.3,0.1,0.7-0.1,1l-1,1.9C104.9,106,104.4,106.2,104,106.2z"/>
		</g>
		<g>
			<path class="st0" d="M94.4,106.1c-0.5,0-1-0.3-1.2-0.9l-0.7-2c-0.2-0.7,0.1-1.4,0.8-1.6l2-0.7c0.7-0.2,1.4,0.1,1.6,0.8
				c0.2,0.7-0.1,1.4-0.8,1.6l-0.9,0.3l0.3,0.8c0.2,0.7-0.1,1.4-0.8,1.6C94.7,106.1,94.6,106.1,94.4,106.1z"/>
		</g>
		<g>
			<path class="st0" d="M89.2,81.2c-0.1,0-0.3,0-0.4-0.1c-0.7-0.2-1-0.9-0.8-1.6l0.3-0.9l-0.8-0.3c-0.7-0.2-1-0.9-0.8-1.6
				c0.2-0.7,0.9-1,1.6-0.8l2,0.7c0.3,0.1,0.6,0.3,0.7,0.6c0.1,0.3,0.2,0.6,0.1,1l-0.7,2C90.2,80.9,89.7,81.2,89.2,81.2z"/>
		</g>
		<g>
			<path class="st0" d="M81,93.9c-0.3,0-0.6-0.1-0.9-0.3l-1.6-1.5c-0.5-0.5-0.5-1.3-0.1-1.8c0.5-0.5,1.3-0.5,1.8-0.1l0.7,0.6
				l0.6-0.6c0.5-0.5,1.3-0.5,1.8-0.1c0.5,0.5,0.5,1.3,0.1,1.8L82,93.5C81.7,93.7,81.4,93.9,81,93.9z"/>
		</g>
	</g>
	<g>
		<g>
			<path class="st0" d="M104.8,132.5c-0.3,0-0.7-0.1-0.9-0.4l-3.9-3.9l-3.8,3.8c-0.5,0.5-1.3,0.5-1.8,0c-0.5-0.5-0.5-1.3,0-1.8
				l4.7-4.7c0.5-0.5,1.3-0.5,1.8,0l4.8,4.8c0.5,0.5,0.5,1.3,0,1.8C105.5,132.4,105.2,132.5,104.8,132.5z"/>
		</g>
		<g>
			<path class="st0" d="M100,136.3c-0.7,0-1.3-0.6-1.3-1.3v-8.6c0-0.7,0.6-1.3,1.3-1.3s1.3,0.6,1.3,1.3v8.6
				C101.3,135.7,100.7,136.3,100,136.3z"/>
		</g>
	</g>
	<g>
		<path class="st0" d="M116.9,126c-0.7,0-1.2-0.6-1.2-1.2v-2.5H84.3v2.5c0,0.7-0.6,1.2-1.2,1.2s-1.2-0.6-1.2-1.2V121
			c0-0.7,0.6-1.2,1.2-1.2h33.8c0.7,0,1.2,0.6,1.2,1.2v3.8C118.2,125.4,117.6,126,116.9,126z"/>
	</g>
	<g>
		<g>
			<path class="st0" d="M117.1,143.3h-42c-3,0-5.5-2.5-5.5-5.5V62.2c0-3,2.5-5.5,5.5-5.5h49.8c3,0,5.5,2.5,5.5,5.5v66.3
				c0,0.3-0.1,0.6-0.3,0.8l-12.1,13.5C117.8,143.1,117.5,143.3,117.1,143.3z M72.1,93.2v44.6c0,1.7,1.3,3,3,3h41.5l11.4-12.8V62.2
				c0-1.7-1.3-3-3-3H75.1c-1.7,0-3,1.3-3,3V93.2z"/>
		</g>
		<g>
			<path class="st0" d="M116.1,142.8c-0.7,0-1.2-0.6-1.2-1.2v-8.8c0-3,2.5-5.5,5.5-5.5h8.8c0.7,0,1.2,0.6,1.2,1.2s-0.6,1.2-1.2,1.2
				h-8.8c-1.7,0-3,1.3-3,3v8.8C117.4,142.3,116.8,142.8,116.1,142.8z"/>
		</g>
	</g>
	<g>
		<path class="st0" d="M100,172.7c-40.1,0-72.7-32.6-72.7-72.7S59.9,27.3,100,27.3s72.7,32.6,72.7,72.7S140.1,172.7,100,172.7z
			 M100,31.3c-37.9,0-68.7,30.8-68.7,68.7c0,37.9,30.8,68.7,68.7,68.7c37.9,0,68.7-30.8,68.7-68.7C168.7,62.1,137.9,31.3,100,31.3z"
			/>
	</g>
</g>
</svg>
