<?xml version="1.0" encoding="utf-8"?>
<!-- Generator: Adobe Illustrator 26.3.1, SVG Export Plug-In . SVG Version: 6.00 Build 0)  -->
<svg version="1.1" id="Layer_1" xmlns="http://www.w3.org/2000/svg" xmlns:xlink="http://www.w3.org/1999/xlink" x="0px" y="0px"
	 viewBox="0 0 200 200" style="enable-background:new 0 0 200 200;" xml:space="preserve">
<style type="text/css">
	.st0{fill:#0067FC;}
</style>
<g>
	<g>
		<g>
			<g>
				<path class="st0" d="M117.1,143.3h-42c-3,0-5.5-2.5-5.5-5.5V62.2c0-3,2.5-5.5,5.5-5.5h49.8c3,0,5.5,2.5,5.5,5.5v66.3
					c0,0.3-0.1,0.6-0.3,0.8L118,142.9C117.8,143.1,117.5,143.3,117.1,143.3z M72.1,93.2v44.6c0,1.7,1.3,3,3,3h41.5l11.4-12.8V62.2
					c0-1.7-1.3-3-3-3H75.1c-1.7,0-3,1.3-3,3V93.2z"/>
			</g>
			<g>
				<path class="st0" d="M116.1,142.8c-0.7,0-1.2-0.6-1.2-1.2v-8.8c0-3,2.5-5.5,5.5-5.5h8.8c0.7,0,1.2,0.6,1.2,1.2s-0.6,1.2-1.2,1.2
					h-8.8c-1.7,0-3,1.3-3,3v8.8C117.4,142.3,116.8,142.8,116.1,142.8z"/>
			</g>
		</g>
		<g>
			<g>
				<path class="st0" d="M117.7,113.2h-27c-0.7,0-1.2-0.6-1.2-1.2s0.6-1.2,1.2-1.2h27c0.7,0,1.2,0.6,1.2,1.2
					S118.4,113.2,117.7,113.2z"/>
			</g>
			<g>
				<path class="st0" d="M117.7,120.2h-27c-0.7,0-1.2-0.6-1.2-1.2s0.6-1.2,1.2-1.2h27c0.7,0,1.2,0.6,1.2,1.2
					S118.4,120.2,117.7,120.2z"/>
			</g>
			<g>
				<path class="st0" d="M107.7,127.3h-17c-0.7,0-1.2-0.6-1.2-1.2s0.6-1.2,1.2-1.2h17c0.7,0,1.2,0.6,1.2,1.2
					S108.4,127.3,107.7,127.3z"/>
			</g>
			<g>
				<path class="st0" d="M83.7,114.6c-0.3,0-0.6-0.1-0.9-0.4l-1.4-1.4c-0.5-0.5-0.5-1.3,0-1.8s1.3-0.5,1.8,0l0.5,0.5l1.9-1.9
					c0.5-0.5,1.3-0.5,1.8,0s0.5,1.3,0,1.8l-2.8,2.8C84.4,114.5,84.1,114.6,83.7,114.6z"/>
			</g>
			<g>
				<path class="st0" d="M83.7,121.6c-0.3,0-0.6-0.1-0.9-0.4l-1.4-1.4c-0.5-0.5-0.5-1.3,0-1.8s1.3-0.5,1.8,0l0.5,0.5l1.9-1.9
					c0.5-0.5,1.3-0.5,1.8,0s0.5,1.3,0,1.8l-2.8,2.8C84.4,121.5,84.1,121.6,83.7,121.6z"/>
			</g>
			<g>
				<path class="st0" d="M83.7,128.1c-0.3,0-0.6-0.1-0.9-0.4l-1.4-1.4c-0.5-0.5-0.5-1.3,0-1.8c0.5-0.5,1.3-0.5,1.8,0l0.5,0.5
					l1.9-1.9c0.5-0.5,1.3-0.5,1.8,0s0.5,1.3,0,1.8l-2.8,2.8C84.4,128,84,128.1,83.7,128.1z"/>
			</g>
		</g>
	</g>
	<g>
		<g>
			<g id="Group_263_00000042708902571705082220000008897498539216441731_" transform="translate(-598.5 -520.001)">
				<g id="Group_259_00000145030280498693278090000013955016061733696135_" transform="translate(549.903 487.744)">
					<g id="Ellipse_9_00000101815238283058655770000016410803985563284882_">
						<path class="st0" d="M148.6,127.4c-4.2,0-7.7-3.4-7.7-7.7s3.4-7.7,7.7-7.7c4.2,0,7.7,3.4,7.7,7.7S152.8,127.4,148.6,127.4z
							 M148.6,114.6c-2.8,0-5.2,2.3-5.2,5.2s2.3,5.2,5.2,5.2s5.2-2.3,5.2-5.2S151.4,114.6,148.6,114.6z"/>
					</g>
					<g id="Path_16_00000017491114562103238940000004497318942366335665_">
						<path class="st0" d="M159,139.5c-0.7,0-1.2-0.6-1.2-1.2c0-5.1-4.1-9.2-9.2-9.2s-9.2,4.1-9.2,9.2c0,0.7-0.6,1.2-1.2,1.2
							s-1.2-0.6-1.2-1.2c0-6.4,5.2-11.7,11.7-11.7c6.4,0,11.7,5.2,11.7,11.7C160.3,139,159.7,139.5,159,139.5z"/>
					</g>
				</g>
			</g>
		</g>
		<g>
			<g id="Group_263_00000041283786176607957550000013694700564120675773_" transform="translate(-598.5 -520.001)">
				<g id="Group_259_00000065062441365571664260000007079897355228332184_" transform="translate(549.903 487.744)">
					<g id="Ellipse_9_00000174587854774410606550000004919853595177815683_">
						<path class="st0" d="M165,126c-3.1,0-5.6-2.5-5.6-5.6s2.5-5.6,5.6-5.6c3.1,0,5.6,2.5,5.6,5.6S168.1,126,165,126z M165,117.3
							c-1.7,0-3.1,1.4-3.1,3.1s1.4,3.1,3.1,3.1s3.1-1.4,3.1-3.1S166.7,117.3,165,117.3z"/>
					</g>
					<g id="Path_16_00000112604306456235131150000013787973018250811268_">
						<path class="st0" d="M172.1,134.3c-0.7,0-1.2-0.6-1.2-1.2c0-3.2-2.6-5.8-5.8-5.8s-5.8,2.6-5.8,5.8c0,0.7-0.6,1.2-1.2,1.2
							s-1.2-0.6-1.2-1.2c0-4.6,3.7-8.3,8.3-8.3s8.3,3.7,8.3,8.3C173.3,133.7,172.8,134.3,172.1,134.3z"/>
					</g>
				</g>
			</g>
		</g>
		<g>
			<g id="Group_263_00000049203014812632147670000004643362029987675812_" transform="translate(-598.5 -520.001)">
				<g id="Group_259_00000087399691393668022480000002439835417661393792_" transform="translate(549.903 487.744)">
					<g id="Ellipse_9_00000119832486371528438000000013694105963889913501_">
						<path class="st0" d="M132.2,126c-3.1,0-5.6-2.5-5.6-5.6s2.5-5.6,5.6-5.6c3.1,0,5.6,2.5,5.6,5.6S135.3,126,132.2,126z
							 M132.2,117.3c-1.7,0-3.1,1.4-3.1,3.1s1.4,3.1,3.1,3.1c1.7,0,3.1-1.4,3.1-3.1S133.9,117.3,132.2,117.3z"/>
					</g>
					<g id="Path_16_00000069389547873145371040000000136905773466100411_">
						<path class="st0" d="M139.3,134.3c-0.7,0-1.2-0.6-1.2-1.2c0-3.2-2.6-5.8-5.8-5.8c-3.2,0-5.8,2.6-5.8,5.8
							c0,0.7-0.6,1.2-1.2,1.2s-1.2-0.6-1.2-1.2c0-4.6,3.7-8.3,8.3-8.3c4.6,0,8.3,3.7,8.3,8.3C140.5,133.7,140,134.3,139.3,134.3z"/>
					</g>
				</g>
			</g>
		</g>
	</g>
	<g>
		<path class="st0" d="M100,172.7c-40.1,0-72.7-32.6-72.7-72.7S59.9,27.3,100,27.3s72.7,32.6,72.7,72.7S140.1,172.7,100,172.7z
			 M100,31.3c-37.9,0-68.7,30.8-68.7,68.7c0,37.9,30.8,68.7,68.7,68.7c37.9,0,68.7-30.8,68.7-68.7C168.7,62.1,137.9,31.3,100,31.3z"
			/>
	</g>
</g>
</svg>
