<?xml version="1.0" encoding="utf-8"?>
<!-- Generator: Adobe Illustrator 26.3.1, SVG Export Plug-In . SVG Version: 6.00 Build 0)  -->
<svg version="1.1" id="Layer_1" xmlns="http://www.w3.org/2000/svg" xmlns:xlink="http://www.w3.org/1999/xlink" x="0px" y="0px"
	 viewBox="0 0 200 200" style="enable-background:new 0 0 200 200;" xml:space="preserve">
<style type="text/css">
	.st0{fill:#0067FC;}
</style>
<g>
	<g>
		<g>
			<path class="st0" d="M100,113.4c-0.5,0-0.9-0.2-1.2-0.6c-1.3-1.7-13-17.2-13-24.5c0-7.8,6.3-14.1,14.1-14.1
				c7.8,0,14.1,6.3,14.1,14.1c0,7.3-11.7,22.7-13,24.5C100.9,113.2,100.5,113.4,100,113.4z M100,77.2c-6.2,0-11.2,5-11.2,11.2
				c0,4.8,7.3,15.7,11.2,21.1c4-5.4,11.2-16.3,11.2-21.1C111.2,82.2,106.2,77.2,100,77.2z"/>
		</g>
		<g>
			<path class="st0" d="M100,94.5c-3.8,0-7-3.1-7-7s3.1-7,7-7c3.8,0,7,3.1,7,7S103.8,94.5,100,94.5z M100,83.4c-2.2,0-4,1.8-4,4
				s1.8,4,4,4c2.2,0,4-1.8,4-4S102.2,83.4,100,83.4z"/>
		</g>
	</g>
	<g>
		<g>
			<path class="st0" d="M117.1,143.3h-42c-3,0-5.5-2.5-5.5-5.5V62.2c0-3,2.5-5.5,5.5-5.5h49.8c3,0,5.5,2.5,5.5,5.5v66.3
				c0,0.3-0.1,0.6-0.3,0.8L118,142.9C117.8,143.1,117.5,143.3,117.1,143.3z M72.1,93.2v44.6c0,1.7,1.3,3,3,3h41.5l11.4-12.8V62.2
				c0-1.7-1.3-3-3-3H75.1c-1.7,0-3,1.3-3,3V93.2z"/>
		</g>
		<g>
			<path class="st0" d="M116.1,142.8c-0.7,0-1.2-0.6-1.2-1.2v-8.8c0-3,2.5-5.5,5.5-5.5h8.8c0.7,0,1.2,0.6,1.2,1.2s-0.6,1.2-1.2,1.2
				h-8.8c-1.7,0-3,1.3-3,3v8.8C117.4,142.3,116.8,142.8,116.1,142.8z"/>
		</g>
	</g>
	<g>
		<path class="st0" d="M100,172.7c-40.1,0-72.7-32.6-72.7-72.7S59.9,27.3,100,27.3s72.7,32.6,72.7,72.7S140.1,172.7,100,172.7z
			 M100,31.3c-37.9,0-68.7,30.8-68.7,68.7c0,37.9,30.8,68.7,68.7,68.7c37.9,0,68.7-30.8,68.7-68.7C168.7,62.1,137.9,31.3,100,31.3z"
			/>
	</g>
	<g>
		<path class="st0" d="M100,117.7c-6.5,0-13.4-1.8-13.4-5.8c0-0.8,0.7-1.5,1.5-1.5s1.5,0.7,1.5,1.5c0,0.8,3.7,2.9,10.5,2.9
			c6.8,0,10.5-2,10.5-2.9c0-0.8,0.7-1.5,1.5-1.5s1.5,0.7,1.5,1.5C113.4,115.9,106.5,117.7,100,117.7z"/>
	</g>
</g>
</svg>
