<?xml version="1.0" encoding="utf-8"?>
<!-- Generator: Adobe Illustrator 26.3.1, SVG Export Plug-In . SVG Version: 6.00 Build 0)  -->
<svg version="1.1" id="Layer_1" xmlns="http://www.w3.org/2000/svg" xmlns:xlink="http://www.w3.org/1999/xlink" x="0px" y="0px"
	 viewBox="0 0 200 200" style="enable-background:new 0 0 200 200;" xml:space="preserve">
<style type="text/css">
	.st0{fill:#0067FC;}
</style>
<g>
	<g>
		<g>
			<g id="Group_263_00000014631845115785783050000013353699122186464691_" transform="translate(-598.5 -520.001)">
				<g id="Group_259_00000158008622431604894600000008620438573695237305_" transform="translate(549.903 487.744)">
					<g id="Ellipse_9_00000134952463343171208700000013241250361830759076_">
						<path class="st0" d="M148.4,129.7c-5.1,0-9.3-4.2-9.3-9.3s4.2-9.3,9.3-9.3c5.1,0,9.3,4.2,9.3,9.3S153.6,129.7,148.4,129.7z
							 M148.4,113.5c-3.8,0-6.8,3.1-6.8,6.8s3.1,6.8,6.8,6.8s6.8-3.1,6.8-6.8S152.2,113.5,148.4,113.5z"/>
					</g>
					<g id="Path_16_00000174564770296390348640000005689726060493692329_">
						<path class="st0" d="M161.6,145c-0.7,0-1.2-0.6-1.2-1.2c0-6.6-5.3-11.9-11.9-11.9s-11.9,5.3-11.9,11.9c0,0.7-0.6,1.2-1.2,1.2
							s-1.2-0.6-1.2-1.2c0-7.9,6.5-14.4,14.4-14.4c7.9,0,14.4,6.5,14.4,14.4C162.8,144.4,162.3,145,161.6,145z"/>
					</g>
				</g>
			</g>
		</g>
		<g>
			<g id="Group_263_00000013153450519971477950000008151753376792166560_" transform="translate(-598.5 -520.001)">
				<g id="Group_259_00000174574433064495049860000001736840763712377757_" transform="translate(549.903 487.744)">
					<g id="Ellipse_9_00000172429548398265917600000010658835978317676423_">
						<path class="st0" d="M173.3,137.8c-5.1,0-9.3-4.2-9.3-9.3s4.2-9.3,9.3-9.3s9.3,4.2,9.3,9.3S178.4,137.8,173.3,137.8z
							 M173.3,121.6c-3.8,0-6.8,3.1-6.8,6.8s3.1,6.8,6.8,6.8c3.8,0,6.8-3.1,6.8-6.8S177.1,121.6,173.3,121.6z"/>
					</g>
					<g id="Path_16_00000123442541276157306650000003710515079651618443_">
						<path class="st0" d="M186.5,153.1c-0.7,0-1.2-0.6-1.2-1.2c0-6.6-5.3-11.9-11.9-11.9c-6.6,0-11.9,5.3-11.9,11.9
							c0,0.7-0.6,1.2-1.2,1.2s-1.2-0.6-1.2-1.2c0-7.9,6.5-14.4,14.4-14.4s14.4,6.5,14.4,14.4C187.7,152.5,187.2,153.1,186.5,153.1z"
							/>
					</g>
				</g>
			</g>
		</g>
		<g>
			<g id="Group_263_00000043448916679390874820000004173909211847266734_" transform="translate(-598.5 -520.001)">
				<g id="Group_259_00000109714816450442904480000015059592173561122221_" transform="translate(549.903 487.744)">
					<g id="Ellipse_9_00000163041787743754226910000015890715698682678435_">
						<path class="st0" d="M123.9,138.2c-5.1,0-9.3-4.2-9.3-9.3c0-5.1,4.2-9.3,9.3-9.3s9.3,4.2,9.3,9.3
							C133.2,134,129.1,138.2,123.9,138.2z M123.9,122c-3.8,0-6.8,3.1-6.8,6.8s3.1,6.8,6.8,6.8s6.8-3.1,6.8-6.8S127.7,122,123.9,122
							z"/>
					</g>
					<g id="Path_16_00000078751106551458971230000000246172056510568119_">
						<path class="st0" d="M137.1,153.5c-0.7,0-1.2-0.6-1.2-1.2c0-6.6-5.3-11.9-11.9-11.9s-11.9,5.3-11.9,11.9
							c0,0.7-0.6,1.2-1.2,1.2s-1.2-0.6-1.2-1.2c0-7.9,6.5-14.4,14.4-14.4s14.4,6.5,14.4,14.4C138.3,152.9,137.8,153.5,137.1,153.5z"
							/>
					</g>
				</g>
			</g>
		</g>
	</g>
	<g>
		<path class="st0" d="M100,172.7c-40.1,0-72.7-32.6-72.7-72.7S59.9,27.3,100,27.3s72.7,32.6,72.7,72.7S140.1,172.7,100,172.7z
			 M100,31.3c-37.9,0-68.7,30.8-68.7,68.7c0,37.9,30.8,68.7,68.7,68.7c37.9,0,68.7-30.8,68.7-68.7C168.7,62.1,137.9,31.3,100,31.3z"
			/>
	</g>
</g>
</svg>
