<?xml version="1.0" encoding="utf-8"?>
<!-- Generator: Adobe Illustrator 26.3.1, SVG Export Plug-In . SVG Version: 6.00 Build 0)  -->
<svg version="1.1" id="Layer_1" xmlns="http://www.w3.org/2000/svg" xmlns:xlink="http://www.w3.org/1999/xlink" x="0px" y="0px"
	 viewBox="0 0 200 200" style="enable-background:new 0 0 200 200;" xml:space="preserve">
<style type="text/css">
	.st0{fill:#0067FC;}
</style>
<g>
	<g>
		<g id="Group_263_00000054240428017800640570000008093763294259471276_" transform="translate(-598.5 -520.001)">
			<g id="Group_259_00000064350071000426618500000017327778890777266085_" transform="translate(549.903 487.744)">
				<g id="Ellipse_9_00000080187321368867226060000000289025700483861683_">
					<path class="st0" d="M143.7,118.8c-4.9,0-8.8-4-8.8-8.8s4-8.8,8.8-8.8c4.9,0,8.8,4,8.8,8.8S148.6,118.8,143.7,118.8z
						 M143.7,103.7c-3.5,0-6.3,2.8-6.3,6.3s2.8,6.3,6.3,6.3c3.5,0,6.3-2.8,6.3-6.3S147.2,103.7,143.7,103.7z"/>
				</g>
				<g id="Path_16_00000179626747354105134520000002079020592545194413_">
					<path class="st0" d="M156,133.2c-0.7,0-1.2-0.6-1.2-1.2c0-6.1-5-11.1-11.1-11.1c-6.1,0-11.1,5-11.1,11.1c0,0.7-0.6,1.2-1.2,1.2
						s-1.2-0.6-1.2-1.2c0-7.5,6.1-13.6,13.6-13.6s13.6,6.1,13.6,13.6C157.3,132.6,156.7,133.2,156,133.2z"/>
				</g>
			</g>
		</g>
	</g>
	<g>
		<g>
			<g id="Group_263_00000127005595440456509880000010321743589715870879_" transform="translate(-598.5 -520.001)">
				<g id="Group_259_00000170240684864287104650000000491776979879212456_" transform="translate(549.903 487.744)">
					<g id="Ellipse_9_00000045609133046234312130000004275397772974129849_">
						<path class="st0" d="M179.3,136.8c-3.5,0-6.3-2.8-6.3-6.3c0-3.5,2.8-6.3,6.3-6.3s6.3,2.8,6.3,6.3
							C185.6,134,182.8,136.8,179.3,136.8z M179.3,126.7c-2.1,0-3.8,1.7-3.8,3.8s1.7,3.8,3.8,3.8s3.8-1.7,3.8-3.8
							S181.4,126.7,179.3,126.7z"/>
					</g>
					<g id="Path_16_00000060009141297468462310000014118710535736463280_">
						<path class="st0" d="M187.5,146.4c-0.7,0-1.2-0.6-1.2-1.2c0-3.9-3.1-7-7-7s-7,3.1-7,7c0,0.7-0.6,1.2-1.2,1.2s-1.2-0.6-1.2-1.2
							c0-5.2,4.3-9.5,9.5-9.5s9.5,4.3,9.5,9.5C188.8,145.9,188.2,146.4,187.5,146.4z"/>
					</g>
				</g>
			</g>
		</g>
		<g>
			<path class="st0" d="M118.2,143.3h-42c-3,0-5.5-2.5-5.5-5.5V90c0-0.7,0.6-1.2,1.2-1.2s1.2,0.6,1.2,1.2v47.7c0,1.7,1.3,3,3,3h41.5
				L129,128v-7c0-0.7,0.6-1.2,1.2-1.2s1.2,0.6,1.2,1.2v7.4c0,0.3-0.1,0.6-0.3,0.8l-12.1,13.5C118.9,143.1,118.6,143.3,118.2,143.3z"
				/>
		</g>
		<g>
			<path class="st0" d="M71.9,94.4c-0.7,0-1.2-0.6-1.2-1.2v-31c0-3,2.5-5.5,5.5-5.5H126c3,0,5.5,2.5,5.5,5.5v7.9
				c0,0.7-0.6,1.2-1.2,1.2s-1.2-0.6-1.2-1.2v-7.9c0-1.7-1.3-3-3-3H76.2c-1.7,0-3,1.3-3,3v31C73.2,93.9,72.6,94.4,71.9,94.4z"/>
		</g>
		<g>
			<path class="st0" d="M117.2,142.8c-0.7,0-1.2-0.6-1.2-1.2v-8.8c0-3,2.5-5.5,5.5-5.5h8.8c0.7,0,1.2,0.6,1.2,1.2s-0.6,1.2-1.2,1.2
				h-8.8c-1.7,0-3,1.3-3,3v8.8C118.5,142.3,117.9,142.8,117.2,142.8z"/>
		</g>
		<g>
			<path class="st0" d="M130.3,121.6c-10,0-18.2-8.2-18.2-18.2c0-10,8.2-18.2,18.2-18.2s18.2,8.2,18.2,18.2
				C148.5,113.5,140.3,121.6,130.3,121.6z M130.3,87.6c-8.7,0-15.9,7.1-15.9,15.9s7.1,15.9,15.9,15.9s15.9-7.1,15.9-15.9
				S139,87.6,130.3,87.6z"/>
		</g>
	</g>
	<g>
		<path class="st0" d="M100,172.7c-40.1,0-72.7-32.6-72.7-72.7S59.9,27.3,100,27.3s72.7,32.6,72.7,72.7S140.1,172.7,100,172.7z
			 M100,31.3c-37.9,0-68.7,30.8-68.7,68.7c0,37.9,30.8,68.7,68.7,68.7c37.9,0,68.7-30.8,68.7-68.7C168.7,62.1,137.9,31.3,100,31.3z"
			/>
	</g>
	<g>
		<path class="st0" d="M118.1,84.7c-0.3,0-0.6-0.1-0.9-0.4l-6.7-6.7c-0.5-0.5-0.5-1.3,0-1.8l6.6-6.6c0.5-0.5,1.3-0.5,1.8,0
			s0.5,1.3,0,1.8l-5.7,5.7l5.8,5.8c0.5,0.5,0.5,1.3,0,1.8C118.7,84.6,118.4,84.7,118.1,84.7z"/>
	</g>
	<g>
		<path class="st0" d="M136.2,88.6c-0.7,0-1.2-0.6-1.2-1.2V78h-23.6c-0.7,0-1.2-0.6-1.2-1.2s0.6-1.2,1.2-1.2h24.8
			c0.7,0,1.2,0.6,1.2,1.2v10.6C137.4,88,136.9,88.6,136.2,88.6z"/>
	</g>
</g>
</svg>
