<?xml version="1.0" encoding="utf-8"?>
<!-- Generator: Adobe Illustrator 26.3.1, SVG Export Plug-In . SVG Version: 6.00 Build 0)  -->
<svg version="1.1" id="Layer_1" xmlns="http://www.w3.org/2000/svg" xmlns:xlink="http://www.w3.org/1999/xlink" x="0px" y="0px"
	 viewBox="0 0 200 200" style="enable-background:new 0 0 200 200;" xml:space="preserve">
<style type="text/css">
	.st0{fill:#0067FC;}
</style>
<g>
	<g>
		<path class="st0" d="M84.6,125.9h-7.7c-0.6,0-1.2-0.5-1.2-1.2v-11.1c0-0.6,0.5-1.2,1.2-1.2h7.7c0.6,0,1.2,0.5,1.2,1.2v11.1
			C85.7,125.3,85.2,125.9,84.6,125.9z M78,123.5h5.4v-8.8H78V123.5z"/>
	</g>
	<g>
		<path class="st0" d="M97.1,125.9h-7.7c-0.6,0-1.2-0.5-1.2-1.2v-17.1c0-0.6,0.5-1.2,1.2-1.2h7.7c0.6,0,1.2,0.5,1.2,1.2v17.1
			C98.3,125.3,97.8,125.9,97.1,125.9z M90.6,123.5H96v-14.8h-5.4V123.5z"/>
	</g>
	<g>
		<path class="st0" d="M109.2,125.9h-7.7c-0.6,0-1.2-0.5-1.2-1.2v-22c0-0.6,0.5-1.2,1.2-1.2h7.7c0.6,0,1.2,0.5,1.2,1.2v22
			C110.3,125.3,109.8,125.9,109.2,125.9z M102.6,123.5h5.4v-19.7h-5.4V123.5z"/>
	</g>
	<g>
		<path class="st0" d="M121.7,126H114c-0.7,0-1.3-0.6-1.3-1.3V98.1c0-0.7,0.6-1.3,1.3-1.3h7.7c0.7,0,1.3,0.6,1.3,1.3v26.6
			C123,125.4,122.4,126,121.7,126z M115.2,123.4h5.2V99.3h-5.2V123.4z"/>
	</g>
	<g>
		<g>
			<g>
				<path class="st0" d="M117.1,143.3h-42c-3,0-5.5-2.5-5.5-5.5V62.2c0-3,2.5-5.5,5.5-5.5h49.8c3,0,5.5,2.5,5.5,5.5v66.3
					c0,0.3-0.1,0.6-0.3,0.8L118,142.9C117.8,143.1,117.5,143.3,117.1,143.3z M72.1,93.2v44.6c0,1.7,1.3,3,3,3h41.5l11.4-12.8V62.2
					c0-1.7-1.3-3-3-3H75.1c-1.7,0-3,1.3-3,3V93.2z"/>
			</g>
			<g>
				<path class="st0" d="M116.1,142.8c-0.7,0-1.2-0.6-1.2-1.2v-8.8c0-3,2.5-5.5,5.5-5.5h8.8c0.7,0,1.2,0.6,1.2,1.2s-0.6,1.2-1.2,1.2
					h-8.8c-1.7,0-3,1.3-3,3v8.8C117.4,142.3,116.8,142.8,116.1,142.8z"/>
			</g>
		</g>
	</g>
	<g>
		<g>
			<g id="Group_263_00000001664072434672128470000015556137055979917973_" transform="translate(-598.5 -520.001)">
				<g id="Group_259_00000152256531938392540180000018415577733304485548_" transform="translate(549.903 487.744)">
					<g id="Ellipse_9_00000050654858778593420250000000488708919320714890_">
						<path class="st0" d="M148.6,117.7c-4.2,0-7.7-3.4-7.7-7.7s3.4-7.7,7.7-7.7c4.2,0,7.7,3.4,7.7,7.7S152.8,117.7,148.6,117.7z
							 M148.6,104.9c-2.8,0-5.2,2.3-5.2,5.2s2.3,5.2,5.2,5.2s5.2-2.3,5.2-5.2S151.4,104.9,148.6,104.9z"/>
					</g>
					<g id="Path_16_00000016036636961753980300000003436722268955996817_">
						<path class="st0" d="M159,129.8c-0.7,0-1.2-0.6-1.2-1.2c0-5.1-4.1-9.2-9.2-9.2s-9.2,4.1-9.2,9.2c0,0.7-0.6,1.2-1.2,1.2
							s-1.2-0.6-1.2-1.2c0-6.4,5.2-11.7,11.7-11.7c6.4,0,11.7,5.2,11.7,11.7C160.3,129.3,159.7,129.8,159,129.8z"/>
					</g>
				</g>
			</g>
		</g>
		<g>
			<g id="Group_263_00000065758156596576783270000012166930041788261290_" transform="translate(-598.5 -520.001)">
				<g id="Group_259_00000031927387971507020180000001111956413259361943_" transform="translate(549.903 487.744)">
					<g id="Ellipse_9_00000021107189833464369690000013420249230077039015_">
						<path class="st0" d="M165,116.3c-3.1,0-5.6-2.5-5.6-5.6c0-3.1,2.5-5.6,5.6-5.6c3.1,0,5.6,2.5,5.6,5.6
							C170.6,113.8,168.1,116.3,165,116.3z M165,107.6c-1.7,0-3.1,1.4-3.1,3.1c0,1.7,1.4,3.1,3.1,3.1s3.1-1.4,3.1-3.1
							C168.1,109,166.7,107.6,165,107.6z"/>
					</g>
					<g id="Path_16_00000065070962070336016810000012828866106238041226_">
						<path class="st0" d="M172.1,124.6c-0.7,0-1.2-0.6-1.2-1.2c0-3.2-2.6-5.8-5.8-5.8s-5.8,2.6-5.8,5.8c0,0.7-0.6,1.2-1.2,1.2
							s-1.2-0.6-1.2-1.2c0-4.6,3.7-8.3,8.3-8.3s8.3,3.7,8.3,8.3C173.3,124,172.8,124.6,172.1,124.6z"/>
					</g>
				</g>
			</g>
		</g>
		<g>
			<g id="Group_263_00000173134649131666743280000015249324809818490000_" transform="translate(-598.5 -520.001)">
				<g id="Group_259_00000098202493034935431160000013849136354680995723_" transform="translate(549.903 487.744)">
					<g id="Ellipse_9_00000070833453778027367520000009408591035633731476_">
						<path class="st0" d="M132.2,116.3c-3.1,0-5.6-2.5-5.6-5.6c0-3.1,2.5-5.6,5.6-5.6c3.1,0,5.6,2.5,5.6,5.6
							C137.8,113.8,135.3,116.3,132.2,116.3z M132.2,107.6c-1.7,0-3.1,1.4-3.1,3.1c0,1.7,1.4,3.1,3.1,3.1c1.7,0,3.1-1.4,3.1-3.1
							C135.3,109,133.9,107.6,132.2,107.6z"/>
					</g>
					<g id="Path_16_00000049903051664658604790000002324362261116685245_">
						<path class="st0" d="M139.3,124.6c-0.7,0-1.2-0.6-1.2-1.2c0-3.2-2.6-5.8-5.8-5.8c-3.2,0-5.8,2.6-5.8,5.8
							c0,0.7-0.6,1.2-1.2,1.2s-1.2-0.6-1.2-1.2c0-4.6,3.7-8.3,8.3-8.3c4.6,0,8.3,3.7,8.3,8.3C140.5,124,140,124.6,139.3,124.6z"/>
					</g>
				</g>
			</g>
		</g>
	</g>
	<g>
		<path class="st0" d="M100,172.7c-40.1,0-72.7-32.6-72.7-72.7S59.9,27.3,100,27.3s72.7,32.6,72.7,72.7S140.1,172.7,100,172.7z
			 M100,31.3c-37.9,0-68.7,30.8-68.7,68.7c0,37.9,30.8,68.7,68.7,68.7c37.9,0,68.7-30.8,68.7-68.7C168.7,62.1,137.9,31.3,100,31.3z"
			/>
	</g>
</g>
</svg>
