<?xml version="1.0" encoding="utf-8"?>
<!-- Generator: Adobe Illustrator 26.3.1, SVG Export Plug-In . SVG Version: 6.00 Build 0)  -->
<svg version="1.1" id="Layer_1" xmlns="http://www.w3.org/2000/svg" xmlns:xlink="http://www.w3.org/1999/xlink" x="0px" y="0px"
	 viewBox="0 0 200 200" style="enable-background:new 0 0 200 200;" xml:space="preserve">
<style type="text/css">
	.st0{fill:#0067FC;}
</style>
<g>
	<g>
		<g>
			<path class="st0" d="M117.1,143.3h-42c-3,0-5.5-2.5-5.5-5.5V62.2c0-3,2.5-5.5,5.5-5.5h49.8c3,0,5.5,2.5,5.5,5.5v66.3
				c0,0.3-0.1,0.6-0.3,0.8L118,142.9C117.8,143.1,117.5,143.3,117.1,143.3z M72.1,93.2v44.6c0,1.7,1.3,3,3,3h41.5l11.4-12.8V62.2
				c0-1.7-1.3-3-3-3H75.1c-1.7,0-3,1.3-3,3V93.2z"/>
		</g>
		<g>
			<path class="st0" d="M116.1,142.8c-0.7,0-1.2-0.6-1.2-1.2v-8.8c0-3,2.5-5.5,5.5-5.5h8.8c0.7,0,1.2,0.6,1.2,1.2s-0.6,1.2-1.2,1.2
				h-8.8c-1.7,0-3,1.3-3,3v8.8C117.4,142.3,116.8,142.8,116.1,142.8z"/>
		</g>
	</g>
	<g>
		<g>
			<path class="st0" d="M118.4,112h-27c-0.7,0-1.2-0.6-1.2-1.2s0.6-1.2,1.2-1.2h27c0.7,0,1.2,0.6,1.2,1.2S119.1,112,118.4,112z"/>
		</g>
		<g>
			<path class="st0" d="M118.4,119.1h-27c-0.7,0-1.2-0.6-1.2-1.2s0.6-1.2,1.2-1.2h27c0.7,0,1.2,0.6,1.2,1.2S119.1,119.1,118.4,119.1
				z"/>
		</g>
		<g>
			<path class="st0" d="M108.4,126.1h-17c-0.7,0-1.2-0.6-1.2-1.2s0.6-1.2,1.2-1.2h17c0.7,0,1.2,0.6,1.2,1.2S109.1,126.1,108.4,126.1
				z"/>
		</g>
		<g>
			<path class="st0" d="M84.4,113.4L84.4,113.4c-0.3,0-0.6-0.1-0.9-0.4l-1.4-1.4c-0.5-0.5-0.5-1.3,0-1.8s1.3-0.5,1.8,0l0.5,0.5
				l1.9-1.9c0.5-0.5,1.3-0.5,1.8,0s0.5,1.3,0,1.8l-2.8,2.8C85.1,113.3,84.8,113.4,84.4,113.4z"/>
		</g>
		<g>
			<path class="st0" d="M84.4,120.5L84.4,120.5c-0.3,0-0.6-0.1-0.9-0.4l-1.4-1.4c-0.5-0.5-0.5-1.3,0-1.8s1.3-0.5,1.8,0l0.5,0.5
				l1.9-1.9c0.5-0.5,1.3-0.5,1.8,0s0.5,1.3,0,1.8l-2.8,2.8C85.1,120.3,84.8,120.5,84.4,120.5z"/>
		</g>
		<g>
			<path class="st0" d="M84.4,126.9c-0.3,0-0.6-0.1-0.9-0.4l-1.4-1.4c-0.5-0.5-0.5-1.3,0-1.8c0.5-0.5,1.3-0.5,1.8,0l0.5,0.5l1.9-1.9
				c0.5-0.5,1.3-0.5,1.8,0c0.5,0.5,0.5,1.3,0,1.8l-2.8,2.8C85.1,126.8,84.8,126.9,84.4,126.9z"/>
		</g>
	</g>
	<g>
		<g id="Group_263_00000057145534688868095380000000863995776874809490_" transform="translate(-598.5 -520.001)">
			<g id="Group_259_00000047781049785834004220000002334987512287161472_" transform="translate(549.903 487.744)">
				<g id="Ellipse_9_00000178920020831416277220000006435860015783288767_">
					<path class="st0" d="M148.6,121.9c-3.1,0-5.7-2.5-5.7-5.7c0-3.1,2.5-5.7,5.7-5.7s5.7,2.5,5.7,5.7
						C154.3,119.3,151.7,121.9,148.6,121.9z M148.6,113c-1.8,0-3.2,1.4-3.2,3.2s1.4,3.2,3.2,3.2s3.2-1.4,3.2-3.2
						S150.3,113,148.6,113z"/>
				</g>
				<g id="Path_16_00000172426358049148967970000003509005332477773460_">
					<path class="st0" d="M155.8,130.2c-0.7,0-1.2-0.6-1.2-1.2c0-3.3-2.7-6-6-6c-3.3,0-6,2.7-6,6c0,0.7-0.6,1.2-1.2,1.2
						s-1.2-0.6-1.2-1.2c0-4.7,3.8-8.5,8.5-8.5s8.5,3.8,8.5,8.5C157.1,129.7,156.5,130.2,155.8,130.2z"/>
				</g>
			</g>
		</g>
	</g>
	<g>
		<g>
			<path class="st0" d="M115.3,103.9c-0.1,0-0.2-0.1-0.3-0.2c-0.4-0.5-3.6-4.7-3.6-6.8c0-2.2,1.8-3.9,3.9-3.9s3.9,1.8,3.9,3.9
				c0,2-3.2,6.3-3.6,6.8C115.6,103.8,115.5,103.9,115.3,103.9z M115.3,93.9c-1.7,0-3.1,1.4-3.1,3.1c0,1.3,2,4.3,3.1,5.8
				c1.1-1.5,3.1-4.5,3.1-5.8C118.4,95.3,117.1,93.9,115.3,93.9z"/>
		</g>
		<g>
			<path class="st0" d="M115.3,98.7c-1.1,0-1.9-0.9-1.9-1.9s0.9-1.9,1.9-1.9s1.9,0.9,1.9,1.9S116.4,98.7,115.3,98.7z M115.3,95.6
				c-0.6,0-1.1,0.5-1.1,1.1s0.5,1.1,1.1,1.1s1.1-0.5,1.1-1.1S116,95.6,115.3,95.6z"/>
		</g>
	</g>
	<g>
		<g>
			<path class="st0" d="M82.3,100.2L82.3,100.2c-0.1,0-0.2-0.1-0.3-0.1c-0.3-0.4-3.3-4.4-3.3-6.3c0-2,1.6-3.6,3.6-3.6
				s3.6,1.6,3.6,3.6c0,1.9-3,5.8-3.3,6.3C82.6,100.2,82.5,100.2,82.3,100.2z M82.3,90.9c-1.6,0-2.9,1.3-2.9,2.9c0,1.2,1.9,4,2.9,5.4
				c1-1.4,2.9-4.2,2.9-5.4C85.2,92.2,83.9,90.9,82.3,90.9z"/>
		</g>
		<g>
			<path class="st0" d="M82.3,95.4c-1,0-1.8-0.8-1.8-1.8s0.8-1.8,1.8-1.8s1.8,0.8,1.8,1.8S83.3,95.4,82.3,95.4z M82.3,92.5
				c-0.6,0-1,0.5-1,1s0.5,1,1,1s1-0.5,1-1S82.9,92.5,82.3,92.5z"/>
		</g>
	</g>
	<g>
		<path class="st0" d="M100,172.7c-40.1,0-72.7-32.6-72.7-72.7S59.9,27.3,100,27.3s72.7,32.6,72.7,72.7S140.1,172.7,100,172.7z
			 M100,31.3c-37.9,0-68.7,30.8-68.7,68.7c0,37.9,30.8,68.7,68.7,68.7c37.9,0,68.7-30.8,68.7-68.7C168.7,62.1,137.9,31.3,100,31.3z"
			/>
	</g>
	<g>
		<path class="st0" d="M95.6,105.7c-0.1,0-0.3,0-0.4-0.1l-12.5-4.4c-0.7-0.2-1-0.9-0.8-1.6c0.2-0.7,0.9-1,1.6-0.8l11.9,4.2l4.5-3.4
			c0.3-0.2,0.7-0.3,1-0.2l14.3,3.1c0.7,0.1,1.1,0.8,1,1.5c-0.1,0.7-0.8,1.1-1.5,1l-13.7-2.9l-4.5,3.5
			C96.1,105.6,95.8,105.7,95.6,105.7z"/>
	</g>
</g>
</svg>
