<?xml version="1.0" encoding="utf-8"?>
<!-- Generator: Adobe Illustrator 26.3.1, SVG Export Plug-In . SVG Version: 6.00 Build 0)  -->
<svg version="1.1" id="Layer_1" xmlns="http://www.w3.org/2000/svg" xmlns:xlink="http://www.w3.org/1999/xlink" x="0px" y="0px"
	 viewBox="0 0 200 200" style="enable-background:new 0 0 200 200;" xml:space="preserve">
<style type="text/css">
	.st0{fill:#0067FC;}
</style>
<g>
	<g>
		<g>
			<g>
				<path class="st0" d="M118.3,144.5h-42c-3,0-5.5-2.5-5.5-5.5V63.5c0-3,2.5-5.5,5.5-5.5h49.8c3,0,5.5,2.5,5.5,5.5v66.3
					c0,0.3-0.1,0.6-0.3,0.8l-12.1,13.5C119,144.3,118.7,144.5,118.3,144.5z M73.3,94.4V139c0,1.7,1.3,3,3,3h41.5l11.4-12.8V63.5
					c0-1.7-1.3-3-3-3H76.3c-1.7,0-3,1.3-3,3V94.4z"/>
			</g>
			<g>
				<path class="st0" d="M117.3,144c-0.7,0-1.2-0.6-1.2-1.2V134c0-3,2.5-5.5,5.5-5.5h8.8c0.7,0,1.2,0.6,1.2,1.2s-0.6,1.2-1.2,1.2
					h-8.8c-1.7,0-3,1.3-3,3v8.8C118.6,143.5,118,144,117.3,144z"/>
			</g>
		</g>
		<g>
			<g>
				<path class="st0" d="M90.6,93.5c-7.3,0-13.2-5.9-13.2-13.2S83.3,67,90.6,67s13.2,5.9,13.2,13.2S97.9,93.5,90.6,93.5z M90.6,69.5
					c-5.9,0-10.7,4.8-10.7,10.7S84.7,91,90.6,91c5.9,0,10.7-4.8,10.7-10.7S96.5,69.5,90.6,69.5z"/>
			</g>
		</g>
		<g id="Group_263_00000108996717055484945850000004684938539021790087_" transform="translate(-598.5 -520.001)">
			<g id="Group_259_00000064340097245799870530000005719823285656944533_" transform="translate(549.903 487.744)">
				<g id="Ellipse_9_00000112621241210326121110000014796905000733128891_">
					<path class="st0" d="M139.2,112.8c-2.2,0-4-1.8-4-4s1.8-4,4-4s4,1.8,4,4S141.4,112.8,139.2,112.8z M139.2,107.2
						c-0.8,0-1.5,0.7-1.5,1.5s0.7,1.5,1.5,1.5s1.5-0.7,1.5-1.5S140,107.2,139.2,107.2z"/>
				</g>
				<g id="Path_16_00000027604260896298204780000004120269609426716861_">
					<path class="st0" d="M143.7,120.3c-0.7,0-1.2-0.6-1.2-1.2c0-1.8-1.5-3.3-3.3-3.3s-3.3,1.5-3.3,3.3c0,0.7-0.6,1.2-1.2,1.2
						s-1.2-0.6-1.2-1.2c0-3.2,2.6-5.8,5.8-5.8s5.8,2.6,5.8,5.8C144.9,119.7,144.4,120.3,143.7,120.3z"/>
				</g>
			</g>
		</g>
		<g>
			<path class="st0" d="M122.4,116.9H82.8c-0.7,0-1.2-0.6-1.2-1.2v-8.9c0-0.7,0.6-1.2,1.2-1.2h39.6c0.7,0,1.2,0.6,1.2,1.2v8.9
				C123.6,116.3,123.1,116.9,122.4,116.9z M84.1,114.4h37.1v-6.4H84.1V114.4z"/>
		</g>
		<g>
			<path class="st0" d="M102.2,112.4H86.7c-0.7,0-1.2-0.6-1.2-1.2s0.6-1.2,1.2-1.2h15.4c0.7,0,1.2,0.6,1.2,1.2
				S102.8,112.4,102.2,112.4z"/>
		</g>
		<g>
			<path class="st0" d="M113.6,131.4H82.8c-0.6,0-1.1-0.5-1.1-1.1v-8.9c0-0.6,0.5-1.1,1.1-1.1h30.8c0.6,0,1.1,0.5,1.1,1.1v8.9
				C114.7,130.9,114.2,131.4,113.6,131.4z M83.9,129.2h28.6v-6.7H83.9V129.2z"/>
		</g>
		<g>
			<path class="st0" d="M102.2,127H86.7c-0.7,0-1.2-0.6-1.2-1.2s0.6-1.2,1.2-1.2h15.4c0.7,0,1.2,0.6,1.2,1.2S102.8,127,102.2,127z"
				/>
		</g>
		<g>
			<path class="st0" d="M98.3,100.4H82.9c-0.7,0-1.2-0.6-1.2-1.2s0.6-1.2,1.2-1.2h15.4c0.7,0,1.2,0.6,1.2,1.2S99,100.4,98.3,100.4z"
				/>
		</g>
		<g>
			<g>
				<path class="st0" d="M125.2,74.7h-9c-0.7,0-1.2-0.6-1.2-1.2s0.6-1.2,1.2-1.2h9c0.7,0,1.2,0.6,1.2,1.2S125.9,74.7,125.2,74.7z"/>
			</g>
			<g>
				<path class="st0" d="M125.2,81.8h-9c-0.7,0-1.2-0.6-1.2-1.2s0.6-1.2,1.2-1.2h9c0.7,0,1.2,0.6,1.2,1.2S125.9,81.8,125.2,81.8z"/>
			</g>
			<g>
				<path class="st0" d="M122.2,88.8h-6c-0.7,0-1.2-0.6-1.2-1.2s0.6-1.2,1.2-1.2h6c0.7,0,1.2,0.6,1.2,1.2S122.8,88.8,122.2,88.8z"/>
			</g>
			<g>
				<path class="st0" d="M109.2,76.1c-0.3,0-0.6-0.1-0.9-0.4l-1.4-1.4c-0.5-0.5-0.5-1.3,0-1.8s1.3-0.5,1.8,0l0.5,0.5l1.9-1.9
					c0.5-0.5,1.3-0.5,1.8,0c0.5,0.5,0.5,1.3,0,1.8l-2.8,2.8C109.9,76,109.6,76.1,109.2,76.1z"/>
			</g>
			<g>
				<path class="st0" d="M109.2,83.2c-0.3,0-0.6-0.1-0.9-0.4l-1.4-1.4c-0.5-0.5-0.5-1.3,0-1.8s1.3-0.5,1.8,0l0.5,0.5l1.9-1.9
					c0.5-0.5,1.3-0.5,1.8,0c0.5,0.5,0.5,1.3,0,1.8l-2.8,2.8C109.9,83.1,109.5,83.2,109.2,83.2z"/>
			</g>
			<g>
				<path class="st0" d="M109.2,89.6c-0.3,0-0.6-0.1-0.9-0.4l-1.4-1.4c-0.5-0.5-0.5-1.3,0-1.8s1.3-0.5,1.8,0l0.5,0.5l1.9-1.9
					c0.5-0.5,1.3-0.5,1.8,0c0.5,0.5,0.5,1.3,0,1.8l-2.8,2.8C109.9,89.5,109.5,89.6,109.2,89.6z"/>
			</g>
		</g>
	</g>
	<g>
		<path class="st0" d="M100,172.7c-40.1,0-72.7-32.6-72.7-72.7S59.9,27.3,100,27.3s72.7,32.6,72.7,72.7S140.1,172.7,100,172.7z
			 M100,31.3c-37.9,0-68.7,30.8-68.7,68.7c0,37.9,30.8,68.7,68.7,68.7c37.9,0,68.7-30.8,68.7-68.7C168.7,62.1,137.9,31.3,100,31.3z"
			/>
	</g>
</g>
</svg>
