<?xml version="1.0" encoding="utf-8"?>
<!-- Generator: Adobe Illustrator 26.3.1, SVG Export Plug-In . SVG Version: 6.00 Build 0)  -->
<svg version="1.1" id="Layer_1" xmlns="http://www.w3.org/2000/svg" xmlns:xlink="http://www.w3.org/1999/xlink" x="0px" y="0px"
	 viewBox="0 0 200 200" style="enable-background:new 0 0 200 200;" xml:space="preserve">
<style type="text/css">
	.st0{fill:#0067FC;}
</style>
<g>
	<g>
		<g id="Group_263_00000063600182747579145040000007446856981656400792_" transform="translate(-598.5 -520.001)">
			<g id="Group_259_00000070832054473878500460000018335359631906330512_" transform="translate(549.903 487.744)">
				<g id="Ellipse_9_00000062165217487978118950000006228348192511998866_">
					<path class="st0" d="M148.6,133.2c-4.4,0-8-3.6-8-8s3.6-8,8-8c4.4,0,8,3.6,8,8S153,133.2,148.6,133.2z M148.6,119.6
						c-3,0-5.5,2.5-5.5,5.5s2.5,5.5,5.5,5.5c3,0,5.5-2.5,5.5-5.5S151.6,119.6,148.6,119.6z"/>
				</g>
				<g id="Path_16_00000150091393273465833380000009226692053978261130_">
					<path class="st0" d="M159.6,146c-0.7,0-1.2-0.6-1.2-1.2c0-5.4-4.4-9.8-9.8-9.8s-9.8,4.4-9.8,9.8c0,0.7-0.6,1.2-1.2,1.2
						s-1.2-0.6-1.2-1.2c0-6.8,5.5-12.3,12.3-12.3c6.8,0,12.3,5.5,12.3,12.3C160.9,145.5,160.3,146,159.6,146z"/>
				</g>
			</g>
		</g>
	</g>
	<g>
		<g>
			<path class="st0" d="M115.1,119h-22c-0.7,0-1.2-0.6-1.2-1.2s0.6-1.2,1.2-1.2h22c0.7,0,1.2,0.6,1.2,1.2S115.8,119,115.1,119z"/>
		</g>
		<g>
			<path class="st0" d="M110.1,126.1h-17c-0.7,0-1.2-0.6-1.2-1.2s0.6-1.2,1.2-1.2h17c0.7,0,1.2,0.6,1.2,1.2S110.8,126.1,110.1,126.1
				z"/>
		</g>
		<g>
			<path class="st0" d="M86.1,120.4c-0.3,0-0.6-0.1-0.9-0.4l-1.4-1.4c-0.5-0.5-0.5-1.3,0-1.8c0.5-0.5,1.3-0.5,1.8,0l0.5,0.5l1.9-1.9
				c0.5-0.5,1.3-0.5,1.8,0c0.5,0.5,0.5,1.3,0,1.8l-2.8,2.8C86.8,120.3,86.5,120.4,86.1,120.4z"/>
		</g>
		<g>
			<path class="st0" d="M86.1,126.9L86.1,126.9c-0.3,0-0.6-0.1-0.9-0.4l-1.4-1.4c-0.5-0.5-0.5-1.3,0-1.8s1.3-0.5,1.8,0l0.5,0.5
				l1.9-1.9c0.5-0.5,1.3-0.5,1.8,0s0.5,1.3,0,1.8l-2.8,2.8C86.8,126.8,86.5,126.9,86.1,126.9z"/>
		</g>
	</g>
	<g>
		<path class="st0" d="M100,172.7c-40.1,0-72.7-32.6-72.7-72.7S59.9,27.3,100,27.3s72.7,32.6,72.7,72.7S140.1,172.7,100,172.7z
			 M100,31.3c-37.9,0-68.7,30.8-68.7,68.7c0,37.9,30.8,68.7,68.7,68.7c37.9,0,68.7-30.8,68.7-68.7C168.7,62.1,137.9,31.3,100,31.3z"
			/>
	</g>
	<g>
		<path class="st0" d="M117.6,137.8H82.9c-3.3,0-5.9-2.7-5.9-5.9V66.7c0-3.3,2.7-5.9,5.9-5.9h34.7c3.3,0,5.9,2.7,5.9,5.9v65.1
			C123.6,135.1,120.9,137.8,117.6,137.8z M82.9,63c-2.1,0-3.7,1.7-3.7,3.7v65.1c0,2.1,1.7,3.7,3.7,3.7h34.7c2.1,0,3.7-1.7,3.7-3.7
			V66.7c0-2.1-1.7-3.7-3.7-3.7H82.9z"/>
	</g>
	<g>
		<circle class="st0" cx="100.3" cy="131.6" r="2.1"/>
	</g>
	<g>
		<path class="st0" d="M105.9,68.4H94.6c-0.6,0-1.2-0.5-1.2-1.2v0c0-0.6,0.5-1.2,1.2-1.2h11.3c0.6,0,1.2,0.5,1.2,1.2v0
			C107.1,67.9,106.6,68.4,105.9,68.4z"/>
	</g>
	<g>
		<g>
			<g>
				<path class="st0" d="M89.8,86.8c-3.7,0-6.8-3-6.8-6.8c0-3.7,3-6.8,6.8-6.8c3.7,0,6.8,3,6.8,6.8C96.6,83.8,93.5,86.8,89.8,86.8z
					 M89.8,75.4c-2.5,0-4.6,2.1-4.6,4.6s2.1,4.6,4.6,4.6s4.6-2.1,4.6-4.6S92.3,75.4,89.8,75.4z"/>
			</g>
		</g>
		<g>
			<path class="st0" d="M91.7,83.1c-0.3,0-0.6-0.1-0.8-0.3L87.2,79c-0.4-0.4-0.4-1.1,0-1.6c0.4-0.4,1.1-0.4,1.6,0l3.7,3.7
				c0.4,0.4,0.4,1.1,0,1.6C92.3,82.9,92,83.1,91.7,83.1z"/>
		</g>
		<g>
			<path class="st0" d="M87.9,83.1c-0.3,0-0.6-0.1-0.8-0.3c-0.4-0.4-0.4-1.1,0-1.6l3.7-3.7c0.4-0.4,1.1-0.4,1.6,0
				c0.4,0.4,0.4,1.1,0,1.6l-3.7,3.7C88.5,82.9,88.2,83.1,87.9,83.1z"/>
		</g>
	</g>
</g>
</svg>
