<?xml version="1.0" encoding="utf-8"?>
<!-- Generator: Adobe Illustrator 26.3.1, SVG Export Plug-In . SVG Version: 6.00 Build 0)  -->
<svg version="1.1" id="Layer_1" xmlns="http://www.w3.org/2000/svg" xmlns:xlink="http://www.w3.org/1999/xlink" x="0px" y="0px"
	 viewBox="0 0 200 200" style="enable-background:new 0 0 200 200;" xml:space="preserve">
<style type="text/css">
	.st0{fill:#0067FC;}
</style>
<g>
	<g>
		<g id="Group_263_00000134235176746863175640000008948714894245804173_" transform="translate(-598.5 -520.001)">
			<g id="Group_259_00000143611476660642412390000017839167334525444245_" transform="translate(549.903 487.744)">
				<g id="Ellipse_9_00000128459427214837851910000003308199546737313974_">
					<path class="st0" d="M148.6,113.4c-3.2,0-5.8-2.6-5.8-5.8c0-3.2,2.6-5.8,5.8-5.8s5.8,2.6,5.8,5.8
						C154.4,110.8,151.8,113.4,148.6,113.4z M148.6,104.3c-1.8,0-3.3,1.5-3.3,3.3c0,1.8,1.5,3.3,3.3,3.3c1.8,0,3.3-1.5,3.3-3.3
						C151.9,105.8,150.4,104.3,148.6,104.3z"/>
				</g>
				<g id="Path_16_00000166673862921396708930000009693145681819539889_">
					<path class="st0" d="M156,122c-0.7,0-1.2-0.6-1.2-1.2c0-3.4-2.8-6.1-6.1-6.1s-6.1,2.8-6.1,6.1c0,0.7-0.6,1.2-1.2,1.2
						s-1.2-0.6-1.2-1.2c0-4.8,3.9-8.6,8.6-8.6c4.8,0,8.6,3.9,8.6,8.6C157.2,121.5,156.7,122,156,122z"/>
				</g>
			</g>
		</g>
	</g>
	<g>
		<g>
			<path class="st0" d="M118.1,94c-0.7,0-1.2-0.6-1.2-1.2v-4.2h-4.1c-0.7,0-1.2-0.6-1.2-1.2s0.6-1.2,1.2-1.2h5.4
				c0.7,0,1.2,0.6,1.2,1.2v5.5C119.3,93.5,118.8,94,118.1,94z"/>
		</g>
		<g>
			<path class="st0" d="M84.8,109.7c-0.7,0-1.2-0.6-1.2-1.2v-5.6c0-0.7,0.6-1.2,1.2-1.2s1.2,0.6,1.2,1.2v5.6
				C86.1,109.2,85.5,109.7,84.8,109.7z"/>
		</g>
		<g>
			<path class="st0" d="M92.9,109.3c-0.7,0-1.2-0.6-1.2-1.2v-2.2c0-0.7,0.6-1.2,1.2-1.2s1.2,0.6,1.2,1.2v2.2
				C94.1,108.7,93.6,109.3,92.9,109.3z"/>
		</g>
		<g>
			<path class="st0" d="M100.4,109.3c-0.7,0-1.2-0.6-1.2-1.2v-9.5c0-0.7,0.6-1.2,1.2-1.2c0.7,0,1.3,0.6,1.3,1.2v9.5
				C101.7,108.7,101.1,109.3,100.4,109.3z"/>
		</g>
		<g>
			<path class="st0" d="M108.9,109.3c-0.7,0-1.2-0.6-1.2-1.2v-7.3c0-0.7,0.6-1.2,1.2-1.2s1.2,0.6,1.2,1.2v7.3
				C110.1,108.7,109.6,109.3,108.9,109.3z"/>
		</g>
		<g>
			<path class="st0" d="M116.9,108.9c-0.7,0-1.2-0.6-1.2-1.2V96.8c0-0.7,0.6-1.2,1.2-1.2s1.2,0.6,1.2,1.2v10.9
				C118.2,108.4,117.6,108.9,116.9,108.9z"/>
		</g>
		<g>
			<path class="st0" d="M92,102c-0.2,0-0.4,0-0.6-0.1l-7.2-3.8c-0.6-0.3-0.8-1.1-0.5-1.7c0.3-0.6,1.1-0.8,1.7-0.5l6.4,3.3l7.8-7.4
				c0.4-0.4,0.9-0.5,1.4-0.2l7.7,3.7l7.4-7.6c0.5-0.5,1.3-0.5,1.8,0c0.5,0.5,0.5,1.3,0,1.8l-8.1,8.2c-0.4,0.4-1,0.5-1.4,0.3
				l-7.7-3.7l-7.8,7.5C92.6,101.9,92.3,102,92,102z"/>
		</g>
	</g>
	<g>
		<g>
			<path class="st0" d="M118.6,144.3h-42c-3,0-5.5-2.5-5.5-5.5V63.2c0-3,2.5-5.5,5.5-5.5h49.8c3,0,5.5,2.5,5.5,5.5v66.3
				c0,0.3-0.1,0.6-0.3,0.8l-12.1,13.5C119.3,144.1,118.9,144.3,118.6,144.3z M73.5,94.2v44.6c0,1.7,1.3,3,3,3H118l11.4-12.8V63.2
				c0-1.7-1.3-3-3-3H76.5c-1.7,0-3,1.3-3,3V94.2z"/>
		</g>
		<g>
			<path class="st0" d="M117.6,143.8c-0.7,0-1.2-0.6-1.2-1.2v-8.8c0-3,2.5-5.5,5.5-5.5h8.8c0.7,0,1.2,0.6,1.2,1.2s-0.6,1.2-1.2,1.2
				h-8.8c-1.7,0-3,1.3-3,3v8.8C118.8,143.3,118.3,143.8,117.6,143.8z"/>
		</g>
	</g>
	<g>
		<g>
			<path class="st0" d="M119.1,119.3h-27c-0.7,0-1.2-0.6-1.2-1.2s0.6-1.2,1.2-1.2h27c0.7,0,1.2,0.6,1.2,1.2S119.8,119.3,119.1,119.3
				z"/>
		</g>
		<g>
			<path class="st0" d="M119.1,126.3h-27c-0.7,0-1.2-0.6-1.2-1.2s0.6-1.2,1.2-1.2h27c0.7,0,1.2,0.6,1.2,1.2S119.8,126.3,119.1,126.3
				z"/>
		</g>
		<g>
			<path class="st0" d="M109.1,133.4h-17c-0.7,0-1.2-0.6-1.2-1.2s0.6-1.2,1.2-1.2h17c0.7,0,1.2,0.6,1.2,1.2S109.8,133.4,109.1,133.4
				z"/>
		</g>
		<g>
			<path class="st0" d="M85.2,120.7c-0.3,0-0.6-0.1-0.9-0.4l-1.4-1.4c-0.5-0.5-0.5-1.3,0-1.8c0.5-0.5,1.3-0.5,1.8,0l0.5,0.5l1.9-1.9
				c0.5-0.5,1.3-0.5,1.8,0s0.5,1.3,0,1.8l-2.8,2.8C85.8,120.6,85.5,120.7,85.2,120.7z"/>
		</g>
		<g>
			<path class="st0" d="M85.2,127.7c-0.3,0-0.6-0.1-0.9-0.4l-1.4-1.4c-0.5-0.5-0.5-1.3,0-1.8c0.5-0.5,1.3-0.5,1.8,0l0.5,0.5l1.9-1.9
				c0.5-0.5,1.3-0.5,1.8,0s0.5,1.3,0,1.8l-2.8,2.8C85.8,127.6,85.5,127.7,85.2,127.7z"/>
		</g>
		<g>
			<path class="st0" d="M85.2,134.2c-0.3,0-0.6-0.1-0.9-0.4l-1.4-1.4c-0.5-0.5-0.5-1.3,0-1.8s1.3-0.5,1.8,0l0.5,0.5l1.9-1.9
				c0.5-0.5,1.3-0.5,1.8,0s0.5,1.3,0,1.8l-2.8,2.8C85.8,134.1,85.5,134.2,85.2,134.2z"/>
		</g>
	</g>
	<g>
		<path class="st0" d="M100,172.7c-40.1,0-72.7-32.6-72.7-72.7S59.9,27.3,100,27.3s72.7,32.6,72.7,72.7S140.1,172.7,100,172.7z
			 M100,31.3c-37.9,0-68.7,30.8-68.7,68.7c0,37.9,30.8,68.7,68.7,68.7c37.9,0,68.7-30.8,68.7-68.7C168.7,62.1,137.9,31.3,100,31.3z"
			/>
	</g>
</g>
</svg>
