<?xml version="1.0" encoding="utf-8"?>
<!-- Generator: Adobe Illustrator 26.3.1, SVG Export Plug-In . SVG Version: 6.00 Build 0)  -->
<svg version="1.1" id="Layer_1" xmlns="http://www.w3.org/2000/svg" xmlns:xlink="http://www.w3.org/1999/xlink" x="0px" y="0px"
	 viewBox="0 0 200 200" style="enable-background:new 0 0 200 200;" xml:space="preserve">
<style type="text/css">
	.st0{fill:#0067FC;}
</style>
<g>
	<g>
		<g id="Group_263_00000055693651068299532660000007112979409100504960_" transform="translate(-598.5 -520.001)">
			<g id="Group_259_00000150784278496188802010000004058525621734635160_" transform="translate(549.903 487.744)">
				<g id="Ellipse_9_00000075858329865169075370000014767093123689104001_">
					<path class="st0" d="M148.6,116.7c-8.1,0-14.6-6.6-14.6-14.6s6.6-14.6,14.6-14.6c8.1,0,14.6,6.6,14.6,14.6
						S156.7,116.7,148.6,116.7z M148.6,90.4c-6.4,0-11.6,5.2-11.6,11.6s5.2,11.6,11.6,11.6c6.4,0,11.6-5.2,11.6-11.6
						S155,90.4,148.6,90.4z"/>
				</g>
				<g id="Path_16_00000084507336299276005360000004834093589146933125_">
					<path class="st0" d="M170,141.6c-0.8,0-1.5-0.7-1.5-1.5c0-11-8.9-19.9-19.9-19.9c-11,0-19.9,8.9-19.9,19.9
						c0,0.8-0.7,1.5-1.5,1.5s-1.5-0.7-1.5-1.5c0-12.6,10.3-22.9,22.9-22.9c12.6,0,22.9,10.3,22.9,22.9
						C171.5,140.9,170.8,141.6,170,141.6z"/>
				</g>
			</g>
		</g>
	</g>
	<g>
		<g>
			<path class="st0" d="M139.6,112.8c-0.4,0-0.7-0.2-1-0.5c-1.1-1.4-10.7-14.1-10.7-20.1c0-6.4,5.2-11.6,11.6-11.6
				c6.4,0,11.6,5.2,11.6,11.6c0,6-9.6,18.6-10.6,20.1C140.3,112.6,140,112.8,139.6,112.8z M139.6,83c-5.1,0-9.2,4.1-9.2,9.2
				c0,3.9,6,12.9,9.2,17.3c3.2-4.4,9.2-13.4,9.2-17.3C148.8,87.2,144.7,83,139.6,83z"/>
		</g>
		<g>
			<path class="st0" d="M139.6,97.2c-3.2,0-5.7-2.6-5.7-5.7s2.6-5.7,5.7-5.7s5.7,2.6,5.7,5.7S142.8,97.2,139.6,97.2z M139.6,88.2
				c-1.8,0-3.3,1.5-3.3,3.3s1.5,3.3,3.3,3.3s3.3-1.5,3.3-3.3S141.4,88.2,139.6,88.2z"/>
		</g>
	</g>
	<g>
		<g>
			<path class="st0" d="M57.5,114.5c-0.2,0-0.5-0.1-0.6-0.3c-0.7-0.9-7-9.2-7-13.1c0-4.2,3.4-7.6,7.6-7.6s7.6,3.4,7.6,7.6
				c0,3.9-6.3,12.2-7,13.1C58,114.4,57.8,114.5,57.5,114.5z M57.5,95.1c-3.3,0-6,2.7-6,6c0,2.6,3.9,8.4,6,11.3c2.1-2.9,6-8.8,6-11.3
				C63.6,97.8,60.9,95.1,57.5,95.1z"/>
		</g>
		<g>
			<path class="st0" d="M57.5,104.4c-2.1,0-3.7-1.7-3.7-3.7c0-2.1,1.7-3.7,3.7-3.7s3.7,1.7,3.7,3.7
				C61.3,102.7,59.6,104.4,57.5,104.4z M57.5,98.5c-1.2,0-2.2,1-2.2,2.2s1,2.2,2.2,2.2s2.2-1,2.2-2.2S58.7,98.5,57.5,98.5z"/>
		</g>
	</g>
	<g>
		<path class="st0" d="M99.9,127.6c-11.8,0-22.9-1-31.2-2.7c-9.4-2-14-4.6-14-7.9s4.6-6,14-7.9c8.4-1.7,19.4-2.7,31.2-2.7
			s22.9,1,31.2,2.7c9.4,2,14,4.6,14,7.9s-4.6,6-14,7.9C122.8,126.6,111.7,127.6,99.9,127.6z M99.9,109.3c-27.7,0-42.2,4.9-42.2,7.6
			s14.5,7.6,42.2,7.6c27.7,0,42.2-4.9,42.2-7.6S127.6,109.3,99.9,109.3z"/>
	</g>
	<g>
		<path class="st0" d="M100,172.7c-40.1,0-72.7-32.6-72.7-72.7S59.9,27.3,100,27.3s72.7,32.6,72.7,72.7S140.1,172.7,100,172.7z
			 M100,31.3c-37.9,0-68.7,30.8-68.7,68.7c0,37.9,30.8,68.7,68.7,68.7c37.9,0,68.7-30.8,68.7-68.7C168.7,62.1,137.9,31.3,100,31.3z"
			/>
	</g>
</g>
</svg>
