<?xml version="1.0" encoding="utf-8"?>
<!-- Generator: Adobe Illustrator 26.3.1, SVG Export Plug-In . SVG Version: 6.00 Build 0)  -->
<svg version="1.1" id="Layer_1" xmlns="http://www.w3.org/2000/svg" xmlns:xlink="http://www.w3.org/1999/xlink" x="0px" y="0px"
	 viewBox="0 0 200 200" style="enable-background:new 0 0 200 200;" xml:space="preserve">
<style type="text/css">
	.st0{fill:#0067FC;}
	.st1{fill:none;stroke:#0067FC;stroke-width:2.5;stroke-linecap:round;stroke-linejoin:round;stroke-miterlimit:10;}
</style>
<g>
	<g>
		<g>
			<g id="Group_263_00000158715036272515847160000011109420999314176167_" transform="translate(-598.5 -520.001)">
				<g id="Group_259_00000173148766638766482420000013652603530874828734_" transform="translate(549.903 487.744)">
					<g id="Ellipse_9_00000013892156041209101680000017425851038589157286_">
						<path class="st0" d="M132.1,138.7c-6.5,0-11.7-5.3-11.7-11.7s5.3-11.7,11.7-11.7s11.7,5.3,11.7,11.7S138.6,138.7,132.1,138.7z
							 M132.1,117.7c-5.1,0-9.2,4.1-9.2,9.2s4.1,9.2,9.2,9.2s9.2-4.1,9.2-9.2S137.2,117.7,132.1,117.7z"/>
					</g>
					<g id="Path_16_00000116938432700074567510000009997843050995585177_">
						<path class="st1" d="M149.2,157.3"/>
					</g>
					<g id="Path_16_00000082352350072348610840000001184115512730585005_">
						<path class="st0" d="M115,158.5c-0.7,0-1.2-0.6-1.2-1.2c0-10.1,8.2-18.3,18.3-18.3c5,0,9.6,2,13.1,5.5c0.5,0.5,0.5,1.3,0,1.8
							c-0.5,0.5-1.3,0.5-1.8,0c-3-3.1-7-4.8-11.3-4.8c-8.7,0-15.8,7.1-15.8,15.8C116.3,158,115.7,158.5,115,158.5z"/>
					</g>
				</g>
			</g>
		</g>
		<g>
			<g id="Group_263_00000057139245612460404870000012796385196373171117_" transform="translate(-598.5 -520.001)">
				<g id="Group_259_00000028296881022894803400000005482730663415117214_" transform="translate(549.903 487.744)">
					<g id="Ellipse_9_00000135687657332659906920000014359322747206624402_">
						<path class="st0" d="M161.3,134.2c-7.8,0-14.1-6.3-14.1-14.1s6.3-14.1,14.1-14.1s14.1,6.3,14.1,14.1S169,134.2,161.3,134.2z
							 M161.3,108.5c-6.4,0-11.6,5.2-11.6,11.6s5.2,11.6,11.6,11.6s11.6-5.2,11.6-11.6S167.7,108.5,161.3,108.5z"/>
					</g>
					<g id="Path_16_00000049934298230651426750000002878591277516385678_">
						<path class="st0" d="M182.2,158.5c-0.7,0-1.2-0.6-1.2-1.2c0-10.8-8.8-19.7-19.7-19.7s-19.7,8.8-19.7,19.7
							c0,0.7-0.6,1.2-1.2,1.2s-1.2-0.6-1.2-1.2c0-12.2,9.9-22.2,22.2-22.2s22.2,9.9,22.2,22.2C183.4,158,182.9,158.5,182.2,158.5z"
							/>
					</g>
				</g>
			</g>
		</g>
		<g>
			<path class="st1" d="M114,109.7"/>
		</g>
	</g>
	<g>
		<path class="st0" d="M100,172.7c-40.1,0-72.7-32.6-72.7-72.7S59.9,27.3,100,27.3s72.7,32.6,72.7,72.7S140.1,172.7,100,172.7z
			 M100,31.3c-37.9,0-68.7,30.8-68.7,68.7c0,37.9,30.8,68.7,68.7,68.7c37.9,0,68.7-30.8,68.7-68.7C168.7,62.1,137.9,31.3,100,31.3z"
			/>
	</g>
</g>
</svg>
