<?xml version="1.0" encoding="utf-8"?>
<!-- Generator: Adobe Illustrator 26.3.1, SVG Export Plug-In . SVG Version: 6.00 Build 0)  -->
<svg version="1.1" id="Layer_1" xmlns="http://www.w3.org/2000/svg" xmlns:xlink="http://www.w3.org/1999/xlink" x="0px" y="0px"
	 viewBox="0 0 200 200" style="enable-background:new 0 0 200 200;" xml:space="preserve">
<style type="text/css">
	.st0{fill:#0067FC;}
</style>
<g>
	<g>
		<g id="Group_263_00000174582803784058112600000008147860489507626409_" transform="translate(-598.5 -520.001)">
			<g id="Group_259_00000145769783527573735490000001963734462882880397_" transform="translate(549.903 487.744)">
				<g id="Ellipse_9_00000060027476588560372340000006709201656675626640_">
					<path class="st0" d="M135.2,149.7c-3.4,0-6.2-2.8-6.2-6.2s2.8-6.2,6.2-6.2s6.2,2.8,6.2,6.2S138.7,149.7,135.2,149.7z
						 M135.2,139.7c-2.1,0-3.7,1.7-3.7,3.7c0,2.1,1.7,3.7,3.7,3.7s3.7-1.7,3.7-3.7C139,141.4,137.3,139.7,135.2,139.7z"/>
				</g>
				<g id="Path_16_00000027598225278014021650000013701617061775309461_">
					<path class="st0" d="M143.3,159.1c-0.7,0-1.2-0.6-1.2-1.2c0-3.8-3.1-6.9-6.9-6.9s-6.9,3.1-6.9,6.9c0,0.7-0.6,1.2-1.2,1.2
						s-1.2-0.6-1.2-1.2c0-5.2,4.2-9.4,9.4-9.4s9.4,4.2,9.4,9.4C144.6,158.5,144,159.1,143.3,159.1z"/>
				</g>
			</g>
		</g>
	</g>
	<g>
		<g>
			<path class="st0" d="M115.3,82.8H84.7c-3.2,0-5.7-2.6-5.7-5.7s2.6-5.7,5.7-5.7h30.6c3.2,0,5.7,2.6,5.7,5.7S118.4,82.8,115.3,82.8
				z M84.7,73.8c-1.8,0-3.2,1.4-3.2,3.2s1.4,3.2,3.2,3.2h30.6c1.8,0,3.2-1.4,3.2-3.2s-1.4-3.2-3.2-3.2H84.7z"/>
		</g>
		<g>
			<path class="st0" d="M99.5,78.3H84.1c-0.7,0-1.2-0.6-1.2-1.2s0.6-1.2,1.2-1.2h15.4c0.7,0,1.2,0.6,1.2,1.2S100.2,78.3,99.5,78.3z"
				/>
		</g>
		<g>
			<path class="st0" d="M115.3,97.4H84.7c-3.2,0-5.7-2.6-5.7-5.7s2.6-5.7,5.7-5.7h30.6c3.2,0,5.7,2.6,5.7,5.7S118.4,97.4,115.3,97.4
				z M84.7,88.5c-1.8,0-3.2,1.4-3.2,3.2s1.4,3.2,3.2,3.2h30.6c1.8,0,3.2-1.4,3.2-3.2s-1.4-3.2-3.2-3.2H84.7z"/>
		</g>
		<g>
			<path class="st0" d="M99.5,92.9H84.1c-0.7,0-1.2-0.6-1.2-1.2s0.6-1.2,1.2-1.2h15.4c0.7,0,1.2,0.6,1.2,1.2S100.2,92.9,99.5,92.9z"
				/>
		</g>
	</g>
	<g>
		<g>
			<path class="st0" d="M117.1,143.2h-42c-3,0-5.5-2.5-5.5-5.5V62.2c0-3,2.5-5.5,5.5-5.5h49.8c3,0,5.5,2.5,5.5,5.5v66.3
				c0,0.3-0.1,0.6-0.3,0.8L118,142.8C117.8,143.1,117.5,143.2,117.1,143.2z M72.1,93.2v44.6c0,1.7,1.3,3,3,3h41.5l11.4-12.8V62.2
				c0-1.7-1.3-3-3-3H75.1c-1.7,0-3,1.3-3,3V93.2z"/>
		</g>
		<g>
			<path class="st0" d="M116.1,142.8c-0.7,0-1.2-0.6-1.2-1.2v-8.8c0-3,2.5-5.5,5.5-5.5h8.8c0.7,0,1.2,0.6,1.2,1.2s-0.6,1.2-1.2,1.2
				h-8.8c-1.7,0-3,1.3-3,3v8.8C117.3,142.2,116.8,142.8,116.1,142.8z"/>
		</g>
	</g>
	<g>
		<g>
			<path class="st0" d="M119.8,109h-13c-0.7,0-1.2-0.6-1.2-1.2s0.6-1.2,1.2-1.2h13c0.7,0,1.2,0.6,1.2,1.2S120.5,109,119.8,109z"/>
		</g>
		<g>
			<path class="st0" d="M119.8,116h-13c-0.7,0-1.2-0.6-1.2-1.2s0.6-1.2,1.2-1.2h13c0.7,0,1.2,0.6,1.2,1.2S120.5,116,119.8,116z"/>
		</g>
		<g>
			<path class="st0" d="M114.8,123.1h-8c-0.7,0-1.2-0.6-1.2-1.2s0.6-1.2,1.2-1.2h8c0.7,0,1.2,0.6,1.2,1.2S115.4,123.1,114.8,123.1z"
				/>
		</g>
		<g>
			<path class="st0" d="M99.8,110.4L99.8,110.4c-0.3,0-0.6-0.1-0.9-0.4l-1.4-1.4c-0.5-0.5-0.5-1.3,0-1.8s1.3-0.5,1.8,0l0.5,0.5
				l1.9-1.9c0.5-0.5,1.3-0.5,1.8,0s0.5,1.3,0,1.8l-2.8,2.8C100.5,110.3,100.2,110.4,99.8,110.4z"/>
		</g>
		<g>
			<path class="st0" d="M99.8,117.4L99.8,117.4c-0.3,0-0.6-0.1-0.9-0.4l-1.4-1.4c-0.5-0.5-0.5-1.3,0-1.8s1.3-0.5,1.8,0l0.5,0.5
				l1.9-1.9c0.5-0.5,1.3-0.5,1.8,0s0.5,1.3,0,1.8l-2.8,2.8C100.5,117.3,100.2,117.4,99.8,117.4z"/>
		</g>
		<g>
			<path class="st0" d="M99.8,123.9c-0.3,0-0.6-0.1-0.9-0.4l-1.4-1.4c-0.5-0.5-0.5-1.3,0-1.8c0.5-0.5,1.3-0.5,1.8,0l0.5,0.5l1.9-1.9
				c0.5-0.5,1.3-0.5,1.8,0s0.5,1.3,0,1.8l-2.8,2.8C100.5,123.8,100.1,123.9,99.8,123.9z"/>
		</g>
	</g>
	<g>
		<path class="st0" d="M100,172.7c-40.1,0-72.7-32.6-72.7-72.7S59.9,27.3,100,27.3s72.7,32.6,72.7,72.7S140.1,172.7,100,172.7z
			 M100,31.3c-37.9,0-68.7,30.8-68.7,68.7c0,37.9,30.8,68.7,68.7,68.7c37.9,0,68.7-30.8,68.7-68.7C168.7,62.1,137.9,31.3,100,31.3z"
			/>
	</g>
</g>
</svg>
