<?xml version="1.0" encoding="utf-8"?>
<!-- Generator: Adobe Illustrator 26.3.1, SVG Export Plug-In . SVG Version: 6.00 Build 0)  -->
<svg version="1.1" id="Layer_1" xmlns="http://www.w3.org/2000/svg" xmlns:xlink="http://www.w3.org/1999/xlink" x="0px" y="0px"
	 viewBox="0 0 200 200" style="enable-background:new 0 0 200 200;" xml:space="preserve">
<style type="text/css">
	.st0{fill:#0067FC;}
</style>
<g>
	<g>
		<g>
			<path class="st0" d="M117.1,143.3h-42c-3,0-5.5-2.5-5.5-5.5V62.2c0-3,2.5-5.5,5.5-5.5h49.8c3,0,5.5,2.5,5.5,5.5v66.3
				c0,0.3-0.1,0.6-0.3,0.8L118,142.9C117.8,143.1,117.5,143.3,117.1,143.3z M72.1,93.2v44.6c0,1.7,1.3,3,3,3h41.5l11.4-12.8V62.2
				c0-1.7-1.3-3-3-3H75.1c-1.7,0-3,1.3-3,3V93.2z"/>
		</g>
		<g>
			<path class="st0" d="M116.1,142.8c-0.7,0-1.2-0.6-1.2-1.2v-8.8c0-3,2.5-5.5,5.5-5.5h8.8c0.7,0,1.2,0.6,1.2,1.2s-0.6,1.2-1.2,1.2
				h-8.8c-1.7,0-3,1.3-3,3v8.8C117.4,142.3,116.8,142.8,116.1,142.8z"/>
		</g>
	</g>
	<g>
		<g>
			<path class="st0" d="M116.2,109h-27c-0.7,0-1.2-0.6-1.2-1.2s0.6-1.2,1.2-1.2h27c0.7,0,1.2,0.6,1.2,1.2S116.9,109,116.2,109z"/>
		</g>
		<g>
			<path class="st0" d="M116.2,116.1h-27c-0.7,0-1.2-0.6-1.2-1.2s0.6-1.2,1.2-1.2h27c0.7,0,1.2,0.6,1.2,1.2S116.9,116.1,116.2,116.1
				z"/>
		</g>
		<g>
			<path class="st0" d="M106.2,123.1h-17c-0.7,0-1.2-0.6-1.2-1.2s0.6-1.2,1.2-1.2h17c0.7,0,1.2,0.6,1.2,1.2S106.9,123.1,106.2,123.1
				z"/>
		</g>
		<g>
			<path class="st0" d="M82.2,110.4c-0.3,0-0.6-0.1-0.9-0.4l-1.4-1.4c-0.5-0.5-0.5-1.3,0-1.8c0.5-0.5,1.3-0.5,1.8,0l0.5,0.5l1.9-1.9
				c0.5-0.5,1.3-0.5,1.8,0s0.5,1.3,0,1.8l-2.8,2.8C82.9,110.3,82.6,110.4,82.2,110.4z"/>
		</g>
		<g>
			<path class="st0" d="M82.2,117.5c-0.3,0-0.6-0.1-0.9-0.4l-1.4-1.4c-0.5-0.5-0.5-1.3,0-1.8c0.5-0.5,1.3-0.5,1.8,0l0.5,0.5l1.9-1.9
				c0.5-0.5,1.3-0.5,1.8,0s0.5,1.3,0,1.8l-2.8,2.8C82.9,117.3,82.6,117.5,82.2,117.5z"/>
		</g>
		<g>
			<path class="st0" d="M82.2,123.9c-0.3,0-0.6-0.1-0.9-0.4l-1.4-1.4c-0.5-0.5-0.5-1.3,0-1.8s1.3-0.5,1.8,0l0.5,0.5l1.9-1.9
				c0.5-0.5,1.3-0.5,1.8,0s0.5,1.3,0,1.8l-2.8,2.8C82.9,123.8,82.6,123.9,82.2,123.9z"/>
		</g>
	</g>
	<g>
		<path class="st0" d="M100,172.7c-40.1,0-72.7-32.6-72.7-72.7S59.9,27.3,100,27.3s72.7,32.6,72.7,72.7S140.1,172.7,100,172.7z
			 M100,31.3c-37.9,0-68.7,30.8-68.7,68.7c0,37.9,30.8,68.7,68.7,68.7c37.9,0,68.7-30.8,68.7-68.7C168.7,62.1,137.9,31.3,100,31.3z"
			/>
	</g>
	<g>
		<g>
			<g id="Group_263_00000044888851315827065540000017553911350456708753_" transform="translate(-598.5 -520.001)">
				<g id="Group_259_00000059295360645081662230000013447186925525733028_" transform="translate(549.903 487.744)">
					<g id="Ellipse_9_00000028327508212886174950000004683584821404742313_">
						<path class="st0" d="M148.6,120.9c-3.8,0-6.9-3.1-6.9-6.9s3.1-6.9,6.9-6.9c3.8,0,6.9,3.1,6.9,6.9S152.4,120.9,148.6,120.9z
							 M148.6,109.5c-2.4,0-4.4,2-4.4,4.4s2,4.4,4.4,4.4s4.4-2,4.4-4.4S151,109.5,148.6,109.5z"/>
					</g>
					<g id="Path_16_00000170266954956071441910000007026444145712156085_">
						<path class="st0" d="M157.8,131.7c-0.7,0-1.2-0.6-1.2-1.2c0-4.4-3.6-8-8-8c-4.4,0-8,3.6-8,8c0,0.7-0.6,1.2-1.2,1.2
							s-1.2-0.6-1.2-1.2c0-5.8,4.7-10.5,10.5-10.5c5.8,0,10.5,4.7,10.5,10.5C159.1,131.1,158.5,131.7,157.8,131.7z"/>
					</g>
				</g>
			</g>
		</g>
		<g>
			<g id="Group_263_00000123433193944152605830000017007506846203035008_" transform="translate(-598.5 -520.001)">
				<g id="Group_259_00000145047696940784237650000011479681404073523606_" transform="translate(549.903 487.744)">
					<g id="Ellipse_9_00000111901828062522175540000009568925749674602370_">
						<path class="st0" d="M163.1,119.7c-2.8,0-5.1-2.3-5.1-5.1s2.3-5.1,5.1-5.1s5.1,2.3,5.1,5.1S166,119.7,163.1,119.7z M163.1,112
							c-1.4,0-2.6,1.2-2.6,2.6s1.2,2.6,2.6,2.6s2.6-1.2,2.6-2.6S164.6,112,163.1,112z"/>
					</g>
					<g id="Path_16_00000011716596417351390770000018423340822098476980_">
						<path class="st0" d="M169.4,127c-0.7,0-1.2-0.6-1.2-1.2c0-2.8-2.3-5-5-5s-5,2.3-5,5c0,0.7-0.6,1.2-1.2,1.2s-1.2-0.6-1.2-1.2
							c0-4.2,3.4-7.5,7.5-7.5c4.2,0,7.5,3.4,7.5,7.5C170.7,126.5,170.1,127,169.4,127z"/>
					</g>
				</g>
			</g>
		</g>
		<g>
			<g id="Group_263_00000089569657102934254720000011359363339434661254_" transform="translate(-598.5 -520.001)">
				<g id="Group_259_00000175307473499489039690000005654374695420841133_" transform="translate(549.903 487.744)">
					<g id="Ellipse_9_00000009583271513670734860000008293003547321498267_">
						<path class="st0" d="M134.1,119.7c-2.8,0-5.1-2.3-5.1-5.1s2.3-5.1,5.1-5.1s5.1,2.3,5.1,5.1S136.9,119.7,134.1,119.7z
							 M134.1,112c-1.4,0-2.6,1.2-2.6,2.6s1.2,2.6,2.6,2.6s2.6-1.2,2.6-2.6S135.5,112,134.1,112z"/>
					</g>
					<g id="Path_16_00000008149372666562821120000005617034445850395318_">
						<path class="st0" d="M140.3,127c-0.7,0-1.2-0.6-1.2-1.2c0-2.8-2.3-5-5-5c-2.8,0-5,2.3-5,5c0,0.7-0.6,1.2-1.2,1.2
							s-1.2-0.6-1.2-1.2c0-4.2,3.4-7.5,7.5-7.5c4.2,0,7.5,3.4,7.5,7.5C141.6,126.5,141,127,140.3,127z"/>
					</g>
				</g>
			</g>
		</g>
	</g>
</g>
</svg>
