<?xml version="1.0" encoding="utf-8"?>
<!-- Generator: Adobe Illustrator 26.3.1, SVG Export Plug-In . SVG Version: 6.00 Build 0)  -->
<svg version="1.1" id="Layer_1" xmlns="http://www.w3.org/2000/svg" xmlns:xlink="http://www.w3.org/1999/xlink" x="0px" y="0px"
	 viewBox="0 0 200 200" style="enable-background:new 0 0 200 200;" xml:space="preserve">
<style type="text/css">
	.st0{fill:#0067FC;}
</style>
<g>
	<g>
		<g>
			<path class="st0" d="M117.8,144.1h-42c-3,0-5.5-2.5-5.5-5.5V63.1c0-3,2.5-5.5,5.5-5.5h49.8c3,0,5.5,2.5,5.5,5.5v66.3
				c0,0.3-0.1,0.6-0.3,0.8l-12.1,13.5C118.5,144,118.2,144.1,117.8,144.1z M72.8,94v44.6c0,1.7,1.3,3,3,3h41.5l11.4-12.8V63.1
				c0-1.7-1.3-3-3-3H75.8c-1.7,0-3,1.3-3,3V94z"/>
		</g>
		<g>
			<path class="st0" d="M116.8,143.7c-0.7,0-1.2-0.6-1.2-1.2v-8.8c0-3,2.5-5.5,5.5-5.5h8.8c0.7,0,1.2,0.6,1.2,1.2s-0.6,1.2-1.2,1.2
				h-8.8c-1.7,0-3,1.3-3,3v8.8C118.1,143.1,117.5,143.7,116.8,143.7z"/>
		</g>
	</g>
	<g>
		<g>
			<path class="st0" d="M118.4,114h-27c-0.7,0-1.2-0.6-1.2-1.2s0.6-1.2,1.2-1.2h27c0.7,0,1.2,0.6,1.2,1.2S119.1,114,118.4,114z"/>
		</g>
		<g>
			<path class="st0" d="M118.4,121.1h-27c-0.7,0-1.2-0.6-1.2-1.2s0.6-1.2,1.2-1.2h27c0.7,0,1.2,0.6,1.2,1.2S119.1,121.1,118.4,121.1
				z"/>
		</g>
		<g>
			<path class="st0" d="M108.4,128.1h-17c-0.7,0-1.2-0.6-1.2-1.2s0.6-1.2,1.2-1.2h17c0.7,0,1.2,0.6,1.2,1.2S109.1,128.1,108.4,128.1
				z"/>
		</g>
		<g>
			<path class="st0" d="M84.4,115.4L84.4,115.4c-0.3,0-0.6-0.1-0.9-0.4l-1.4-1.4c-0.5-0.5-0.5-1.3,0-1.8s1.3-0.5,1.8,0l0.5,0.5
				l1.9-1.9c0.5-0.5,1.3-0.5,1.8,0s0.5,1.3,0,1.8l-2.8,2.8C85.1,115.3,84.8,115.4,84.4,115.4z"/>
		</g>
		<g>
			<path class="st0" d="M84.4,122.5L84.4,122.5c-0.3,0-0.6-0.1-0.9-0.4l-1.4-1.4c-0.5-0.5-0.5-1.3,0-1.8s1.3-0.5,1.8,0l0.5,0.5
				l1.9-1.9c0.5-0.5,1.3-0.5,1.8,0s0.5,1.3,0,1.8l-2.8,2.8C85.1,122.3,84.8,122.5,84.4,122.5z"/>
		</g>
		<g>
			<path class="st0" d="M84.4,128.9c-0.3,0-0.6-0.1-0.9-0.4l-1.4-1.4c-0.5-0.5-0.5-1.3,0-1.8c0.5-0.5,1.3-0.5,1.8,0l0.5,0.5l1.9-1.9
				c0.5-0.5,1.3-0.5,1.8,0c0.5,0.5,0.5,1.3,0,1.8l-2.8,2.8C85.1,128.8,84.8,128.9,84.4,128.9z"/>
		</g>
	</g>
	<g>
		<path class="st0" d="M100,172.7c-40.1,0-72.7-32.6-72.7-72.7S59.9,27.3,100,27.3s72.7,32.6,72.7,72.7S140.1,172.7,100,172.7z
			 M100,31.3c-37.9,0-68.7,30.8-68.7,68.7c0,37.9,30.8,68.7,68.7,68.7c37.9,0,68.7-30.8,68.7-68.7C168.7,62.1,137.9,31.3,100,31.3z"
			/>
	</g>
	<g>
		<g>
			<path class="st0" d="M99.9,103.6c-9.1,0-16.6-7.4-16.6-16.6c0-9.1,7.4-16.6,16.6-16.6s16.6,7.4,16.6,16.6
				C116.5,96.1,109,103.6,99.9,103.6z M99.9,72.9c-7.8,0-14.1,6.3-14.1,14.1c0,7.8,6.3,14.1,14.1,14.1c7.8,0,14.1-6.3,14.1-14.1
				C114,79.2,107.6,72.9,99.9,72.9z"/>
		</g>
	</g>
	<g id="Group_263_00000000200332099924262450000007378243811592862891_" transform="translate(-598.5 -520.001)">
		<g id="Group_259_00000013912469136559578150000006706939271126854837_" transform="translate(549.903 487.744)">
			<g id="Ellipse_9_00000129203613927693168460000016632447065682991793_">
				<path class="st0" d="M148.5,119.2c-2.6,0-4.8-2.1-4.8-4.8c0-2.6,2.1-4.8,4.8-4.8s4.8,2.1,4.8,4.8
					C153.3,117.1,151.1,119.2,148.5,119.2z M148.5,112.2c-1.3,0-2.3,1-2.3,2.3c0,1.3,1,2.3,2.3,2.3c1.3,0,2.3-1,2.3-2.3
					C150.8,113.2,149.7,112.2,148.5,112.2z"/>
			</g>
			<g id="Path_16_00000120546185129474729830000017008988588429030040_">
				<path class="st0" d="M154.2,128.8c-0.7,0-1.2-0.6-1.2-1.2c0-2.5-2-4.5-4.5-4.5c-2.5,0-4.5,2-4.5,4.5c0,0.7-0.6,1.2-1.2,1.2
					s-1.2-0.6-1.2-1.2c0-3.9,3.1-7,7-7c3.9,0,7,3.1,7,7C155.5,128.3,154.9,128.8,154.2,128.8z"/>
			</g>
		</g>
	</g>
</g>
</svg>
