<?xml version="1.0" encoding="utf-8"?>
<!-- Generator: Adobe Illustrator 26.3.1, SVG Export Plug-In . SVG Version: 6.00 Build 0)  -->
<svg version="1.1" id="Layer_1" xmlns="http://www.w3.org/2000/svg" xmlns:xlink="http://www.w3.org/1999/xlink" x="0px" y="0px"
	 viewBox="0 0 200 200" style="enable-background:new 0 0 200 200;" xml:space="preserve">
<style type="text/css">
	.st0{fill:#0067FC;}
</style>
<g>
	<g>
		<g id="Group_263_00000132062111982483971300000001602601363637702795_" transform="translate(-598.5 -520.001)">
			<g id="Group_259_00000016074298482892558210000016650289221964732072_" transform="translate(549.903 487.744)">
				<g id="Ellipse_9_00000176765420223077354340000006119301320187460525_">
					<path class="st0" d="M148.6,123.2c-4.5,0-8.1-3.7-8.1-8.1s3.7-8.1,8.1-8.1c4.5,0,8.1,3.7,8.1,8.1S153.1,123.2,148.6,123.2z
						 M148.6,109.4c-3.1,0-5.6,2.5-5.6,5.6s2.5,5.6,5.6,5.6c3.1,0,5.6-2.5,5.6-5.6S151.7,109.4,148.6,109.4z"/>
				</g>
				<g id="Path_16_00000096019149573371888130000017542755513161521299_">
					<path class="st0" d="M159.8,136.3c-0.7,0-1.2-0.6-1.2-1.2c0-5.5-4.5-10-10-10c-5.5,0-10,4.5-10,10c0,0.7-0.6,1.2-1.2,1.2
						s-1.2-0.6-1.2-1.2c0-6.9,5.6-12.5,12.5-12.5c6.9,0,12.5,5.6,12.5,12.5C161.1,135.7,160.5,136.3,159.8,136.3z"/>
				</g>
			</g>
		</g>
	</g>
	<g>
		<g>
			<path class="st0" d="M117.1,143.3h-42c-3,0-5.5-2.5-5.5-5.5V62.2c0-3,2.5-5.5,5.5-5.5h49.8c3,0,5.5,2.5,5.5,5.5v66.3
				c0,0.3-0.1,0.6-0.3,0.8L118,142.9C117.8,143.1,117.5,143.3,117.1,143.3z M72.1,93.2v44.6c0,1.7,1.3,3,3,3h41.5l11.4-12.8V62.2
				c0-1.7-1.3-3-3-3H75.1c-1.7,0-3,1.3-3,3V93.2z"/>
		</g>
		<g>
			<path class="st0" d="M116.1,142.8c-0.7,0-1.2-0.6-1.2-1.2v-8.8c0-3,2.5-5.5,5.5-5.5h8.8c0.7,0,1.2,0.6,1.2,1.2s-0.6,1.2-1.2,1.2
				h-8.8c-1.7,0-3,1.3-3,3v8.8C117.4,142.3,116.8,142.8,116.1,142.8z"/>
		</g>
	</g>
	<g>
		<path class="st0" d="M115.1,113.9H80.4c-0.7,0-1.2-0.6-1.2-1.2s0.6-1.2,1.2-1.2h34.7c0.7,0,1.2,0.6,1.2,1.2
			S115.8,113.9,115.1,113.9z"/>
	</g>
	<g>
		<path class="st0" d="M113,118.9H80.4c-0.7,0-1.2-0.6-1.2-1.2s0.6-1.2,1.2-1.2H113c0.7,0,1.2,0.6,1.2,1.2S113.7,118.9,113,118.9z"
			/>
	</g>
	<g>
		<path class="st0" d="M111,123.8H80.4c-0.7,0-1.2-0.6-1.2-1.2s0.6-1.2,1.2-1.2H111c0.7,0,1.2,0.6,1.2,1.2S111.7,123.8,111,123.8z"
			/>
	</g>
	<g>
		<path class="st0" d="M106.8,128.8H80.4c-0.7,0-1.2-0.6-1.2-1.2s0.6-1.2,1.2-1.2h26.4c0.7,0,1.2,0.6,1.2,1.2
			S107.5,128.8,106.8,128.8z"/>
	</g>
	<g>
		<path class="st0" d="M99.6,133.8H80.4c-0.7,0-1.2-0.6-1.2-1.2s0.6-1.2,1.2-1.2h19.2c0.7,0,1.2,0.6,1.2,1.2S100.3,133.8,99.6,133.8
			z"/>
	</g>
	<g>
		<path class="st0" d="M100,172.7c-40.1,0-72.7-32.6-72.7-72.7S59.9,27.3,100,27.3s72.7,32.6,72.7,72.7S140.1,172.7,100,172.7z
			 M100,31.3c-37.9,0-68.7,30.8-68.7,68.7c0,37.9,30.8,68.7,68.7,68.7c37.9,0,68.7-30.8,68.7-68.7C168.7,62.1,137.9,31.3,100,31.3z"
			/>
	</g>
	<g>
		<g>
			<path class="st0" d="M117.6,121.4c-0.3,0-0.6-0.1-0.9-0.4c-0.3-0.3-0.5-0.9-0.3-1.3l2.6-7.2c0.1-0.2,0.2-0.3,0.3-0.5L142.4,89
				c0.5-0.5,1.3-0.5,1.8,0l4.6,4.6c0.5,0.5,0.5,1.3,0,1.8l-23.1,23.1c-0.1,0.1-0.3,0.2-0.5,0.3l-7.2,2.6
				C117.9,121.4,117.8,121.4,117.6,121.4z M121.3,113.7l-1.6,4.4l4.4-1.6l22-22l-2.9-2.9L121.3,113.7z"/>
		</g>
		<g>
			<path class="st0" d="M142.4,101.3c-0.3,0-0.6-0.1-0.9-0.4l-4.6-4.6c-0.5-0.5-0.5-1.3,0-1.8s1.3-0.5,1.8,0l4.6,4.6
				c0.5,0.5,0.5,1.3,0,1.8C143.1,101.1,142.7,101.3,142.4,101.3z"/>
		</g>
		<g>
			<path class="st0" d="M144.8,98.9c-0.3,0-0.6-0.1-0.9-0.4l-4.6-4.6c-0.5-0.5-0.5-1.3,0-1.8s1.3-0.5,1.8,0l4.6,4.6
				c0.5,0.5,0.5,1.3,0,1.8C145.4,98.8,145.1,98.9,144.8,98.9z"/>
		</g>
	</g>
</g>
</svg>
