<?xml version="1.0" encoding="utf-8"?>
<!-- Generator: Adobe Illustrator 26.3.1, SVG Export Plug-In . SVG Version: 6.00 Build 0)  -->
<svg version="1.1" id="Layer_1" xmlns="http://www.w3.org/2000/svg" xmlns:xlink="http://www.w3.org/1999/xlink" x="0px" y="0px"
	 viewBox="0 0 200 200" style="enable-background:new 0 0 200 200;" xml:space="preserve">
<style type="text/css">
	.st0{fill:#0067FC;}
</style>
<g>
	<g>
		<g id="Group_263_00000072966022261807040550000014264963796970958489_" transform="translate(-598.5 -520.001)">
			<g id="Group_259_00000111906488394557179960000001454939357927189437_" transform="translate(549.903 487.744)">
				<g id="Ellipse_9_00000167393431209027991490000006067730302458411183_">
					<path class="st0" d="M148.6,117.3c-7.5,0-13.6-6.1-13.6-13.6s6.1-13.6,13.6-13.6c7.5,0,13.6,6.1,13.6,13.6
						S156.1,117.3,148.6,117.3z M148.6,93c-5.9,0-10.7,4.8-10.7,10.7s4.8,10.7,10.7,10.7c5.9,0,10.7-4.8,10.7-10.7
						S154.5,93,148.6,93z"/>
				</g>
				<g id="Path_16_00000039096922300732473330000007616519686800755093_">
					<path class="st0" d="M168.4,140.3c-0.8,0-1.4-0.6-1.4-1.4c0-10.1-8.2-18.4-18.4-18.4c-10.1,0-18.4,8.2-18.4,18.4
						c0,0.8-0.6,1.4-1.4,1.4s-1.4-0.6-1.4-1.4c0-11.7,9.5-21.2,21.2-21.2s21.2,9.5,21.2,21.2C169.8,139.7,169.2,140.3,168.4,140.3z"
						/>
				</g>
			</g>
		</g>
	</g>
	<g>
		<g>
			<path class="st0" d="M71.2,132.1c-0.4,0-0.9-0.2-1.1-0.6c-0.8-1.1-8.2-10.9-8.2-15.6c0-5.2,4.2-9.4,9.4-9.4
				c5.2,0,9.4,4.2,9.4,9.4c0,4.7-7.4,14.5-8.2,15.6C72.1,131.9,71.7,132.1,71.2,132.1z M71.2,109.4c-3.6,0-6.5,2.9-6.5,6.5
				c0,2.5,3.6,8.4,6.5,12.4c2.9-4,6.5-9.9,6.5-12.4C77.7,112.3,74.8,109.4,71.2,109.4z"/>
		</g>
		<g>
			<path class="st0" d="M71.2,120.2c-2.7,0-4.9-2.2-4.9-4.9s2.2-4.9,4.9-4.9c2.7,0,4.9,2.2,4.9,4.9S73.9,120.2,71.2,120.2z
				 M71.2,113.3c-1.1,0-2,0.9-2,2s0.9,2,2,2s2-0.9,2-2S72.3,113.3,71.2,113.3z"/>
		</g>
	</g>
	<g>
		<g>
			<path class="st0" d="M131.1,110.4c-0.4,0-0.9-0.2-1.1-0.6c-1-1.3-5.9-7.9-5.9-11.3c0-3.9,3.2-7.1,7.1-7.1s7.1,3.2,7.1,7.1
				c0,3.4-4.9,10-5.9,11.3C131.9,110.2,131.5,110.4,131.1,110.4z M131.1,94.3c-2.3,0-4.2,1.9-4.2,4.2c0,1.5,2.2,5.2,4.2,8
				c2-2.9,4.2-6.5,4.2-8C135.3,96.2,133.4,94.3,131.1,94.3z"/>
		</g>
		<g>
			<circle class="st0" cx="131.1" cy="98.1" r="2.4"/>
		</g>
	</g>
	<g>
		<path class="st0" d="M100,172.7c-40.1,0-72.7-32.6-72.7-72.7S59.9,27.3,100,27.3s72.7,32.6,72.7,72.7S140.1,172.7,100,172.7z
			 M100,31.3c-37.9,0-68.7,30.8-68.7,68.7c0,37.9,30.8,68.7,68.7,68.7c37.9,0,68.7-30.8,68.7-68.7C168.7,62.1,137.9,31.3,100,31.3z"
			/>
	</g>
	<g>
		<path class="st0" d="M74,133.9c-0.5,0-0.9-0.2-1.2-0.6c-0.4-0.7-0.3-1.5,0.4-2l26-17.9c0.4-0.3,1-0.3,1.5-0.1
			c0.5,0.2,0.8,0.7,0.8,1.3l0,13l31.4-16.9c0.7-0.4,1.6-0.1,1.9,0.6c0.4,0.7,0.1,1.6-0.6,1.9l-33.5,18c-0.4,0.2-1,0.2-1.4,0
			c-0.4-0.3-0.7-0.7-0.7-1.2l0-12.7l-23.7,16.3C74.6,133.8,74.3,133.9,74,133.9z"/>
	</g>
</g>
</svg>
