<?xml version="1.0" encoding="utf-8"?>
<!-- Generator: Adobe Illustrator 26.3.1, SVG Export Plug-In . SVG Version: 6.00 Build 0)  -->
<svg version="1.1" id="Layer_1" xmlns="http://www.w3.org/2000/svg" xmlns:xlink="http://www.w3.org/1999/xlink" x="0px" y="0px"
	 viewBox="0 0 200 200" style="enable-background:new 0 0 200 200;" xml:space="preserve">
<style type="text/css">
	.st0{fill:#0067FC;}
</style>
<g>
	<g>
		<g>
			<path class="st0" d="M112.8,94.3c-0.3,0-0.6-0.1-0.7-0.4c-0.8-1.1-8.1-10.8-8.1-15.3c0-4.9,4-8.9,8.9-8.9s8.9,4,8.9,8.9
				c0,4.6-7.3,14.2-8.1,15.3C113.4,94.2,113.1,94.3,112.8,94.3z M112.8,71.6c-3.9,0-7,3.1-7,7c0,3,4.5,9.8,7,13.2
				c2.5-3.4,7-10.2,7-13.2C119.8,74.8,116.7,71.6,112.8,71.6z"/>
		</g>
		<g>
			<path class="st0" d="M112.8,82.5c-2.4,0-4.4-2-4.4-4.4s2-4.4,4.4-4.4s4.4,2,4.4,4.4S115.2,82.5,112.8,82.5z M112.8,75.6
				c-1.4,0-2.5,1.1-2.5,2.5s1.1,2.5,2.5,2.5s2.5-1.1,2.5-2.5S114.2,75.6,112.8,75.6z"/>
		</g>
	</g>
	<g>
		<g>
			<path class="st0" d="M85.1,106.4c-0.1,0-0.3-0.1-0.4-0.2c-0.4-0.6-4.2-5.6-4.2-8c0-2.5,2.1-4.6,4.6-4.6s4.6,2.1,4.6,4.6
				c0,2.4-3.8,7.4-4.2,8C85.4,106.3,85.3,106.4,85.1,106.4z M85.1,94.6c-2,0-3.6,1.6-3.6,3.6c0,1.6,2.4,5.1,3.6,6.9
				c1.3-1.8,3.6-5.3,3.6-6.9C88.8,96.2,87.1,94.6,85.1,94.6z"/>
		</g>
		<g>
			<path class="st0" d="M85.1,100.2c-1.3,0-2.3-1-2.3-2.3c0-1.3,1-2.3,2.3-2.3s2.3,1,2.3,2.3C87.4,99.2,86.4,100.2,85.1,100.2z
				 M85.1,96.6c-0.7,0-1.3,0.6-1.3,1.3s0.6,1.3,1.3,1.3s1.3-0.6,1.3-1.3S85.9,96.6,85.1,96.6z"/>
		</g>
	</g>
	<g>
		<g>
			<path class="st0" d="M117.8,144.1h-42c-3,0-5.5-2.5-5.5-5.5V63.1c0-3,2.5-5.5,5.5-5.5h49.8c3,0,5.5,2.5,5.5,5.5v66.3
				c0,0.3-0.1,0.6-0.3,0.8l-12.1,13.5C118.5,144,118.2,144.1,117.8,144.1z M72.8,94v44.6c0,1.7,1.3,3,3,3h41.5l11.4-12.8V63.1
				c0-1.7-1.3-3-3-3H75.8c-1.7,0-3,1.3-3,3V94z"/>
		</g>
		<g>
			<path class="st0" d="M116.8,143.7c-0.7,0-1.2-0.6-1.2-1.2v-8.8c0-3,2.5-5.5,5.5-5.5h8.8c0.7,0,1.2,0.6,1.2,1.2s-0.6,1.2-1.2,1.2
				h-8.8c-1.7,0-3,1.3-3,3v8.8C118.1,143.1,117.5,143.7,116.8,143.7z"/>
		</g>
	</g>
	<g>
		<g>
			<path class="st0" d="M118.4,114h-27c-0.7,0-1.2-0.6-1.2-1.2s0.6-1.2,1.2-1.2h27c0.7,0,1.2,0.6,1.2,1.2S119.1,114,118.4,114z"/>
		</g>
		<g>
			<path class="st0" d="M118.4,121.1h-27c-0.7,0-1.2-0.6-1.2-1.2s0.6-1.2,1.2-1.2h27c0.7,0,1.2,0.6,1.2,1.2S119.1,121.1,118.4,121.1
				z"/>
		</g>
		<g>
			<path class="st0" d="M108.4,128.1h-17c-0.7,0-1.2-0.6-1.2-1.2s0.6-1.2,1.2-1.2h17c0.7,0,1.2,0.6,1.2,1.2S109.1,128.1,108.4,128.1
				z"/>
		</g>
		<g>
			<path class="st0" d="M84.4,115.4L84.4,115.4c-0.3,0-0.6-0.1-0.9-0.4l-1.4-1.4c-0.5-0.5-0.5-1.3,0-1.8s1.3-0.5,1.8,0l0.5,0.5
				l1.9-1.9c0.5-0.5,1.3-0.5,1.8,0s0.5,1.3,0,1.8l-2.8,2.8C85.1,115.3,84.8,115.4,84.4,115.4z"/>
		</g>
		<g>
			<path class="st0" d="M84.4,122.5L84.4,122.5c-0.3,0-0.6-0.1-0.9-0.4l-1.4-1.4c-0.5-0.5-0.5-1.3,0-1.8s1.3-0.5,1.8,0l0.5,0.5
				l1.9-1.9c0.5-0.5,1.3-0.5,1.8,0s0.5,1.3,0,1.8l-2.8,2.8C85.1,122.3,84.8,122.5,84.4,122.5z"/>
		</g>
		<g>
			<path class="st0" d="M84.4,128.9c-0.3,0-0.6-0.1-0.9-0.4l-1.4-1.4c-0.5-0.5-0.5-1.3,0-1.8c0.5-0.5,1.3-0.5,1.8,0l0.5,0.5l1.9-1.9
				c0.5-0.5,1.3-0.5,1.8,0c0.5,0.5,0.5,1.3,0,1.8l-2.8,2.8C85.1,128.8,84.8,128.9,84.4,128.9z"/>
		</g>
	</g>
	<g>
		<path class="st0" d="M100,172.7c-40.1,0-72.7-32.6-72.7-72.7S59.9,27.3,100,27.3s72.7,32.6,72.7,72.7S140.1,172.7,100,172.7z
			 M100,31.3c-37.9,0-68.7,30.8-68.7,68.7c0,37.9,30.8,68.7,68.7,68.7c37.9,0,68.7-30.8,68.7-68.7C168.7,62.1,137.9,31.3,100,31.3z"
			/>
	</g>
	<g>
		<path class="st0" d="M87.6,107.8c-0.4,0-0.7-0.2-1-0.5c-0.4-0.5-0.4-1.3,0.2-1.8l12.3-9.9c0.4-0.3,0.9-0.4,1.3-0.2
			c0.4,0.2,0.7,0.6,0.7,1.1l0.1,5.4l9.3-6.8c0.6-0.4,1.3-0.3,1.7,0.3c0.4,0.6,0.3,1.3-0.3,1.7l-11.3,8.2c-0.4,0.3-0.9,0.3-1.3,0.1
			c-0.4-0.2-0.7-0.6-0.7-1.1l-0.1-5.2l-10.3,8.3C88.2,107.7,87.9,107.8,87.6,107.8z"/>
	</g>
</g>
</svg>
