<?xml version="1.0" encoding="utf-8"?>
<!-- Generator: Adobe Illustrator 26.3.1, SVG Export Plug-In . SVG Version: 6.00 Build 0)  -->
<svg version="1.1" id="Layer_1" xmlns="http://www.w3.org/2000/svg" xmlns:xlink="http://www.w3.org/1999/xlink" x="0px" y="0px"
	 viewBox="0 0 200 200" style="enable-background:new 0 0 200 200;" xml:space="preserve">
<style type="text/css">
	.st0{fill:#0067FC;}
</style>
<g>
	<g>
		<g id="Group_263_00000181784298055132331850000001296812301491267231_" transform="translate(-598.5 -520.001)">
			<g id="Group_259_00000114039164977577724700000013879190821796122547_" transform="translate(549.903 487.744)">
				<g id="Ellipse_9_00000150076849135399306320000006244154709440269483_">
					<path class="st0" d="M130.2,158.9c-4.5,0-8.2-3.7-8.2-8.2s3.7-8.2,8.2-8.2c4.5,0,8.2,3.7,8.2,8.2S134.7,158.9,130.2,158.9z
						 M130.2,145c-3.1,0-5.7,2.5-5.7,5.7c0,3.1,2.5,5.7,5.7,5.7c3.1,0,5.7-2.5,5.7-5.7C135.8,147.6,133.3,145,130.2,145z"/>
				</g>
				<g id="Path_16_00000044149107507519344890000011990082398702953096_">
					<path class="st0" d="M141.4,172c-0.7,0-1.2-0.6-1.2-1.2c0-5.5-4.5-10-10-10s-10,4.5-10,10c0,0.7-0.6,1.2-1.2,1.2
						s-1.2-0.6-1.2-1.2c0-6.9,5.6-12.5,12.5-12.5s12.5,5.6,12.5,12.5C142.7,171.4,142.1,172,141.4,172z"/>
				</g>
			</g>
		</g>
	</g>
	<g>
		<g id="Group_263_00000070106950385109208730000008882115343531788678_" transform="translate(-598.5 -520.001)">
			<g id="Group_259_00000007408030717697250430000012422912748256786843_" transform="translate(549.903 487.744)">
				<g id="Ellipse_9_00000168801661755812620220000015311579882332512671_">
					<path class="st0" d="M184.9,119.4c-4.5,0-8.2-3.7-8.2-8.2c0-4.5,3.7-8.2,8.2-8.2s8.2,3.7,8.2,8.2
						C193.1,115.7,189.4,119.4,184.9,119.4z M184.9,105.5c-3.1,0-5.7,2.5-5.7,5.7c0,3.1,2.5,5.7,5.7,5.7c3.1,0,5.7-2.5,5.7-5.7
						C190.6,108.1,188,105.5,184.9,105.5z"/>
				</g>
				<g id="Path_16_00000023259115984987218910000016804343175893844632_">
					<path class="st0" d="M196.2,132.5c-0.7,0-1.2-0.6-1.2-1.2c0-5.5-4.5-10-10-10s-10,4.5-10,10c0,0.7-0.6,1.2-1.2,1.2
						s-1.2-0.6-1.2-1.2c0-6.9,5.6-12.5,12.5-12.5s12.5,5.6,12.5,12.5C197.4,132,196.8,132.5,196.2,132.5z"/>
				</g>
			</g>
		</g>
	</g>
	<g>
		<g>
			<path class="st0" d="M120.9,81c-0.4,0-0.8-0.2-1-0.5c-0.8-1.1-8.2-10.8-8.2-15.5c0-5.1,4.1-9.2,9.2-9.2s9.2,4.1,9.2,9.2
				c0,4.7-7.4,14.4-8.2,15.5C121.6,80.8,121.3,81,120.9,81z M120.9,58.3c-3.7,0-6.7,3-6.7,6.7c0,2.8,4.2,9.2,6.7,12.7
				c2.5-3.5,6.7-9.8,6.7-12.7C127.6,61.3,124.6,58.3,120.9,58.3z"/>
		</g>
		<g>
			<path class="st0" d="M120.9,69.1c-2.6,0-4.7-2.1-4.7-4.7s2.1-4.7,4.7-4.7s4.7,2.1,4.7,4.7S123.5,69.1,120.9,69.1z M120.9,62.2
				c-1.2,0-2.2,1-2.2,2.2c0,1.2,1,2.2,2.2,2.2s2.2-1,2.2-2.2C123.1,63.2,122.1,62.2,120.9,62.2z"/>
		</g>
	</g>
	<g>
		<g>
			<path class="st0" d="M60.3,124.4L60.3,124.4c-0.4,0-0.8-0.2-1-0.5c-0.7-0.9-6.9-9.1-6.9-13.1c0-4.4,3.5-7.9,7.9-7.9
				s7.9,3.5,7.9,7.9c0,4-6.2,12.2-6.9,13.1C61.1,124.3,60.7,124.4,60.3,124.4z M60.3,105.4c-3,0-5.4,2.4-5.4,5.4
				c0,2.1,3,6.9,5.4,10.2c2.4-3.3,5.4-8.2,5.4-10.2C65.7,107.9,63.3,105.4,60.3,105.4z"/>
		</g>
		<g>
			<path class="st0" d="M60.3,114.5c-2.3,0-4.1-1.9-4.1-4.1s1.9-4.1,4.1-4.1c2.3,0,4.1,1.9,4.1,4.1S62.6,114.5,60.3,114.5z
				 M60.3,108.7c-0.9,0-1.6,0.7-1.6,1.6s0.7,1.6,1.6,1.6c0.9,0,1.6-0.7,1.6-1.6S61.2,108.7,60.3,108.7z"/>
		</g>
	</g>
	<g>
		<path class="st0" d="M100,172.7c-40.1,0-72.7-32.6-72.7-72.7S59.9,27.3,100,27.3s72.7,32.6,72.7,72.7S140.1,172.7,100,172.7z
			 M100,31.3c-37.9,0-68.7,30.8-68.7,68.7c0,37.9,30.8,68.7,68.7,68.7c37.9,0,68.7-30.8,68.7-68.7C168.7,62.1,137.9,31.3,100,31.3z"
			/>
	</g>
	<g>
		<path class="st0" d="M63.9,126.6c-0.2,0-0.5-0.1-0.7-0.2c-0.6-0.4-0.7-1.2-0.4-1.7l16.2-24.5c0.2-0.3,0.6-0.6,1-0.6h25.2
			l18.1-18.8c0.5-0.5,1.3-0.5,1.8,0c0.5,0.5,0.5,1.3,0,1.8l-18.5,19.2c-0.2,0.2-0.6,0.4-0.9,0.4h-25l-15.9,24
			C64.7,126.4,64.3,126.6,63.9,126.6z"/>
	</g>
</g>
</svg>
