<?xml version="1.0" encoding="utf-8"?>
<!-- Generator: Adobe Illustrator 26.3.1, SVG Export Plug-In . SVG Version: 6.00 Build 0)  -->
<svg version="1.1" id="Layer_1" xmlns="http://www.w3.org/2000/svg" xmlns:xlink="http://www.w3.org/1999/xlink" x="0px" y="0px"
	 viewBox="0 0 200 200" style="enable-background:new 0 0 200 200;" xml:space="preserve">
<style type="text/css">
	.st0{fill:#0067FC;}
</style>
<g>
	<g>
		<g>
			<path class="st0" d="M100,117.2c-7.3,0-13.2-5.9-13.2-13.2c0-7.3,5.9-13.2,13.2-13.2s13.2,5.9,13.2,13.2
				C113.3,111.2,107.3,117.2,100,117.2z M100,93.2c-5.9,0-10.7,4.8-10.7,10.7c0,5.9,4.8,10.7,10.7,10.7c5.9,0,10.7-4.8,10.7-10.7
				C110.8,98,105.9,93.2,100,93.2z"/>
		</g>
	</g>
	<g id="Group_263_00000176014023512986400490000007920148699046197641_" transform="translate(-598.5 -520.001)">
		<g id="Group_259_00000062901000942910071090000017963700002572332435_" transform="translate(549.903 487.744)">
			<g id="Ellipse_9_00000123441689710793555080000004401540490787990422_">
				<path class="st0" d="M148.6,136.4c-2.2,0-4-1.8-4-4c0-2.2,1.8-4,4-4c2.2,0,4,1.8,4,4C152.6,134.6,150.8,136.4,148.6,136.4z
					 M148.6,130.9c-0.8,0-1.5,0.7-1.5,1.5s0.7,1.5,1.5,1.5s1.5-0.7,1.5-1.5S149.4,130.9,148.6,130.9z"/>
			</g>
			<g id="Path_16_00000013155884024867699820000005998626307254840463_">
				<path class="st0" d="M153.1,143.9c-0.7,0-1.2-0.6-1.2-1.2c0-1.8-1.5-3.3-3.3-3.3c-1.8,0-3.3,1.5-3.3,3.3c0,0.7-0.6,1.2-1.2,1.2
					s-1.2-0.6-1.2-1.2c0-3.2,2.6-5.8,5.8-5.8s5.8,2.6,5.8,5.8C154.4,143.4,153.8,143.9,153.1,143.9z"/>
			</g>
		</g>
	</g>
	<g>
		<g>
			<g>
				<path class="st0" d="M117.1,144.5h-42c-3,0-5.5-2.5-5.5-5.5V63.5c0-3,2.5-5.5,5.5-5.5h49.8c3,0,5.5,2.5,5.5,5.5v66.3
					c0,0.3-0.1,0.6-0.3,0.8L118,144.1C117.8,144.3,117.5,144.5,117.1,144.5z M72.1,94.4V139c0,1.7,1.3,3,3,3h41.5l11.4-12.8V63.5
					c0-1.7-1.3-3-3-3H75.1c-1.7,0-3,1.3-3,3V94.4z"/>
			</g>
			<g>
				<path class="st0" d="M116.1,144c-0.7,0-1.2-0.6-1.2-1.2V134c0-3,2.5-5.5,5.5-5.5h8.8c0.7,0,1.2,0.6,1.2,1.2s-0.6,1.2-1.2,1.2
					h-8.8c-1.7,0-3,1.3-3,3v8.8C117.4,143.5,116.8,144,116.1,144z"/>
			</g>
		</g>
		<g>
			<g>
				<path class="st0" d="M114.6,121.7h-27c-0.7,0-1.2-0.6-1.2-1.2s0.6-1.2,1.2-1.2h27c0.7,0,1.2,0.6,1.2,1.2
					S115.3,121.7,114.6,121.7z"/>
			</g>
			<g>
				<path class="st0" d="M114.6,128.8h-27c-0.7,0-1.2-0.6-1.2-1.2s0.6-1.2,1.2-1.2h27c0.7,0,1.2,0.6,1.2,1.2
					S115.3,128.8,114.6,128.8z"/>
			</g>
			<g>
				<path class="st0" d="M104.6,135.8h-17c-0.7,0-1.2-0.6-1.2-1.2s0.6-1.2,1.2-1.2h17c0.7,0,1.2,0.6,1.2,1.2
					S105.3,135.8,104.6,135.8z"/>
			</g>
			<g>
				<path class="st0" d="M80.6,123.1L80.6,123.1c-0.3,0-0.6-0.1-0.9-0.4l-1.4-1.4c-0.5-0.5-0.5-1.3,0-1.8s1.3-0.5,1.8,0l0.5,0.5
					l1.9-1.9c0.5-0.5,1.3-0.5,1.8,0s0.5,1.3,0,1.8l-2.8,2.8C81.3,123,81,123.1,80.6,123.1z"/>
			</g>
			<g>
				<path class="st0" d="M80.6,130.2L80.6,130.2c-0.3,0-0.6-0.1-0.9-0.4l-1.4-1.4c-0.5-0.5-0.5-1.3,0-1.8s1.3-0.5,1.8,0l0.5,0.5
					l1.9-1.9c0.5-0.5,1.3-0.5,1.8,0s0.5,1.3,0,1.8l-2.8,2.8C81.3,130,81,130.2,80.6,130.2z"/>
			</g>
			<g>
				<path class="st0" d="M80.6,136.6L80.6,136.6c-0.3,0-0.6-0.1-0.9-0.4l-1.4-1.4c-0.5-0.5-0.5-1.3,0-1.8s1.3-0.5,1.8,0l0.5,0.5
					l1.9-1.9c0.5-0.5,1.3-0.5,1.8,0s0.5,1.3,0,1.8l-2.8,2.8C81.3,136.5,81,136.6,80.6,136.6z"/>
			</g>
		</g>
	</g>
	<g>
		<path class="st0" d="M100,172.7c-40.1,0-72.7-32.6-72.7-72.7S59.9,27.3,100,27.3s72.7,32.6,72.7,72.7S140.1,172.7,100,172.7z
			 M100,31.3c-37.9,0-68.7,30.8-68.7,68.7c0,37.9,30.8,68.7,68.7,68.7c37.9,0,68.7-30.8,68.7-68.7C168.7,62.1,137.9,31.3,100,31.3z"
			/>
	</g>
	<g>
		<path class="st0" d="M117.7,73.8c-0.7,0-1.2-0.6-1.2-1.2v-4.2h-4.1c-0.7,0-1.2-0.6-1.2-1.2s0.6-1.2,1.2-1.2h5.4
			c0.7,0,1.2,0.6,1.2,1.2v5.5C118.9,73.2,118.3,73.8,117.7,73.8z"/>
	</g>
	<g>
		<path class="st0" d="M84.4,89.5c-0.7,0-1.2-0.6-1.2-1.2v-5.6c0-0.7,0.6-1.2,1.2-1.2s1.2,0.6,1.2,1.2v5.6
			C85.7,89,85.1,89.5,84.4,89.5z"/>
	</g>
	<g>
		<path class="st0" d="M92.5,89c-0.7,0-1.2-0.6-1.2-1.2v-2.2c0-0.7,0.6-1.2,1.2-1.2s1.2,0.6,1.2,1.2v2.2C93.7,88.5,93.2,89,92.5,89z
			"/>
	</g>
	<g>
		<path class="st0" d="M100,89c-0.7,0-1.2-0.6-1.2-1.2v-9.5c0-0.7,0.6-1.2,1.2-1.2s1.2,0.6,1.2,1.2v9.5C101.3,88.5,100.7,89,100,89z
			"/>
	</g>
	<g>
		<path class="st0" d="M108.5,89c-0.7,0-1.2-0.6-1.2-1.2v-7.3c0-0.7,0.6-1.2,1.2-1.2s1.2,0.6,1.2,1.2v7.3
			C109.7,88.5,109.2,89,108.5,89z"/>
	</g>
	<g>
		<path class="st0" d="M116.5,88.7c-0.7,0-1.2-0.6-1.2-1.2V76.6c0-0.7,0.6-1.2,1.2-1.2s1.2,0.6,1.2,1.2v10.9
			C117.8,88.1,117.2,88.7,116.5,88.7z"/>
	</g>
	<g>
		<path class="st0" d="M91.6,81.8c-0.2,0-0.4,0-0.6-0.1l-7.2-3.8c-0.6-0.3-0.8-1.1-0.5-1.7c0.3-0.6,1.1-0.8,1.7-0.5l6.4,3.3l7.8-7.4
			c0.4-0.4,0.9-0.5,1.4-0.2l7.7,3.7l7.4-7.6c0.5-0.5,1.3-0.5,1.8,0c0.5,0.5,0.5,1.3,0,1.8l-8.1,8.2c-0.4,0.4-1,0.5-1.4,0.3l-7.7-3.7
			l-7.8,7.5C92.2,81.7,91.9,81.8,91.6,81.8z"/>
	</g>
</g>
</svg>
