<?xml version="1.0" encoding="utf-8"?>
<!-- Generator: Adobe Illustrator 26.3.1, SVG Export Plug-In . SVG Version: 6.00 Build 0)  -->
<svg version="1.1" id="Layer_1" xmlns="http://www.w3.org/2000/svg" xmlns:xlink="http://www.w3.org/1999/xlink" x="0px" y="0px"
	 viewBox="0 0 200 200" style="enable-background:new 0 0 200 200;" xml:space="preserve">
<style type="text/css">
	.st0{fill:#0067FC;}
</style>
<g>
	<g id="Group_263_00000000945241633573657780000004999601643919113608_" transform="translate(-598.5 -520.001)">
		<g id="Group_259_00000132072348921736355460000009920596080733671348_" transform="translate(549.903 487.744)">
			<g id="Ellipse_9_00000049944211377819396010000001153779696440162492_">
				<path class="st0" d="M164.4,134.2c-2.2,0-4-1.8-4-4s1.8-4,4-4s4,1.8,4,4S166.6,134.2,164.4,134.2z M164.4,128.6
					c-0.8,0-1.5,0.7-1.5,1.5s0.7,1.5,1.5,1.5s1.5-0.7,1.5-1.5S165.2,128.6,164.4,128.6z"/>
			</g>
			<g id="Path_16_00000079454999797989469070000003183813791080946617_">
				<path class="st0" d="M168.9,141.7c-0.7,0-1.2-0.6-1.2-1.2c0-1.8-1.5-3.3-3.3-3.3s-3.3,1.5-3.3,3.3c0,0.7-0.6,1.2-1.2,1.2
					s-1.2-0.6-1.2-1.2c0-3.2,2.6-5.8,5.8-5.8c3.2,0,5.8,2.6,5.8,5.8C170.2,141.1,169.6,141.7,168.9,141.7z"/>
			</g>
		</g>
	</g>
	<g>
		<g>
			<path class="st0" d="M118.5,144.1h-42c-3,0-5.5-2.5-5.5-5.5V63.1c0-3,2.5-5.5,5.5-5.5h49.8c3,0,5.5,2.5,5.5,5.5v66.3
				c0,0.3-0.1,0.6-0.3,0.8l-12.1,13.5C119.2,144,118.9,144.1,118.5,144.1z M73.5,94v44.6c0,1.7,1.3,3,3,3h41.5l11.4-12.8V63.1
				c0-1.7-1.3-3-3-3H76.5c-1.7,0-3,1.3-3,3V94z"/>
		</g>
		<g>
			<path class="st0" d="M117.5,143.7c-0.7,0-1.2-0.6-1.2-1.2v-8.8c0-3,2.5-5.5,5.5-5.5h8.8c0.7,0,1.2,0.6,1.2,1.2s-0.6,1.2-1.2,1.2
				h-8.8c-1.7,0-3,1.3-3,3v8.8C118.7,143.1,118.2,143.7,117.5,143.7z"/>
		</g>
	</g>
	<g>
		<g>
			<path class="st0" d="M117,120.8H90c-0.7,0-1.2-0.6-1.2-1.2s0.6-1.2,1.2-1.2h27c0.7,0,1.2,0.6,1.2,1.2S117.7,120.8,117,120.8z"/>
		</g>
		<g>
			<path class="st0" d="M117,127.8H90c-0.7,0-1.2-0.6-1.2-1.2s0.6-1.2,1.2-1.2h27c0.7,0,1.2,0.6,1.2,1.2S117.7,127.8,117,127.8z"/>
		</g>
		<g>
			<path class="st0" d="M107,134.8H90c-0.7,0-1.2-0.6-1.2-1.2s0.6-1.2,1.2-1.2h17c0.7,0,1.2,0.6,1.2,1.2S107.7,134.8,107,134.8z"/>
		</g>
		<g>
			<path class="st0" d="M83,122.2L83,122.2c-0.3,0-0.6-0.1-0.9-0.4l-1.4-1.4c-0.5-0.5-0.5-1.3,0-1.8s1.3-0.5,1.8,0l0.5,0.5l1.9-1.9
				c0.5-0.5,1.3-0.5,1.8,0s0.5,1.3,0,1.8l-2.8,2.8C83.7,122,83.4,122.2,83,122.2z"/>
		</g>
		<g>
			<path class="st0" d="M83,129.2L83,129.2c-0.3,0-0.6-0.1-0.9-0.4l-1.4-1.4c-0.5-0.5-0.5-1.3,0-1.8s1.3-0.5,1.8,0l0.5,0.5l1.9-1.9
				c0.5-0.5,1.3-0.5,1.8,0s0.5,1.3,0,1.8l-2.8,2.8C83.7,129.1,83.4,129.2,83,129.2z"/>
		</g>
		<g>
			<path class="st0" d="M83,135.7L83,135.7c-0.3,0-0.6-0.1-0.9-0.4l-1.4-1.4c-0.5-0.5-0.5-1.3,0-1.8s1.3-0.5,1.8,0l0.5,0.5l1.9-1.9
				c0.5-0.5,1.3-0.5,1.8,0s0.5,1.3,0,1.8l-2.8,2.8C83.7,135.5,83.4,135.7,83,135.7z"/>
		</g>
	</g>
	<g>
		<path class="st0" d="M100,172.7c-40.1,0-72.7-32.6-72.7-72.7S59.9,27.3,100,27.3s72.7,32.6,72.7,72.7S140.1,172.7,100,172.7z
			 M100,31.3c-37.9,0-68.7,30.8-68.7,68.7c0,37.9,30.8,68.7,68.7,68.7c37.9,0,68.7-30.8,68.7-68.7C168.7,62.1,137.9,31.3,100,31.3z"
			/>
	</g>
	<g>
		<path class="st0" d="M117,71.6c-0.7,0-1.2-0.6-1.2-1.2v-4.2h-4.1c-0.7,0-1.2-0.6-1.2-1.2s0.6-1.2,1.2-1.2h5.4
			c0.7,0,1.2,0.6,1.2,1.2v5.5C118.2,71,117.6,71.6,117,71.6z"/>
	</g>
	<g>
		<path class="st0" d="M83.7,87.3c-0.7,0-1.2-0.6-1.2-1.2v-5.6c0-0.7,0.6-1.2,1.2-1.2s1.2,0.6,1.2,1.2V86
			C85,86.7,84.4,87.3,83.7,87.3z"/>
	</g>
	<g>
		<path class="st0" d="M91.8,86.8c-0.7,0-1.2-0.6-1.2-1.2v-2.2c0-0.7,0.6-1.2,1.2-1.2s1.2,0.6,1.2,1.2v2.2
			C93,86.2,92.5,86.8,91.8,86.8z"/>
	</g>
	<g>
		<path class="st0" d="M99.3,86.8c-0.7,0-1.2-0.6-1.2-1.2V76c0-0.7,0.6-1.2,1.2-1.2s1.2,0.6,1.2,1.2v9.5
			C100.5,86.2,100,86.8,99.3,86.8z"/>
	</g>
	<g>
		<path class="st0" d="M107.8,86.8c-0.7,0-1.2-0.6-1.2-1.2v-7.3c0-0.7,0.6-1.2,1.2-1.2s1.2,0.6,1.2,1.2v7.3
			C109,86.2,108.5,86.8,107.8,86.8z"/>
	</g>
	<g>
		<path class="st0" d="M115.8,86.5c-0.7,0-1.2-0.6-1.2-1.2V74.3c0-0.7,0.6-1.2,1.2-1.2s1.2,0.6,1.2,1.2v10.9
			C117.1,85.9,116.5,86.5,115.8,86.5z"/>
	</g>
	<g>
		<path class="st0" d="M90.9,79.5c-0.2,0-0.4,0-0.6-0.1l-7.2-3.8c-0.6-0.3-0.8-1.1-0.5-1.7c0.3-0.6,1.1-0.8,1.7-0.5l6.4,3.3l7.8-7.4
			c0.4-0.4,0.9-0.5,1.4-0.2l7.7,3.7l7.4-7.6c0.5-0.5,1.3-0.5,1.8,0c0.5,0.5,0.5,1.3,0,1.8l-8.1,8.2c-0.4,0.4-1,0.5-1.4,0.3l-7.7-3.7
			l-7.8,7.5C91.5,79.4,91.2,79.5,90.9,79.5z"/>
	</g>
	<g>
		<g>
			<path class="st0" d="M93.4,113.2c-5.8,0-10.6-4.8-10.6-10.6S87.5,92,93.4,92c0.7,0,1.2,0.6,1.2,1.2v8.1h8.1
				c0.7,0,1.2,0.6,1.2,1.2C104,108.5,99.2,113.2,93.4,113.2z M92.1,94.6c-3.9,0.6-6.9,4-6.9,8c0,4.5,3.6,8.1,8.1,8.1
				c4,0,7.4-3,8-6.9h-8c-0.7,0-1.2-0.6-1.2-1.2V94.6z"/>
		</g>
		<g>
			<path class="st0" d="M95.5,90.8v9.4h9.4C104.9,95,100.7,90.8,95.5,90.8z"/>
		</g>
	</g>
</g>
</svg>
