<?xml version="1.0" encoding="utf-8"?>
<!-- Generator: Adobe Illustrator 26.3.1, SVG Export Plug-In . SVG Version: 6.00 Build 0)  -->
<svg version="1.1" id="Layer_1" xmlns="http://www.w3.org/2000/svg" xmlns:xlink="http://www.w3.org/1999/xlink" x="0px" y="0px"
	 viewBox="0 0 200 200" style="enable-background:new 0 0 200 200;" xml:space="preserve">
<style type="text/css">
	.st0{fill:#0067FC;}
</style>
<g>
	<g>
		<g>
			<g id="Group_263_00000080892755232287275220000003051203142537923217_" transform="translate(-598.5 -520.001)">
				<g id="Group_259_00000057136175525921118270000012692013972199389877_" transform="translate(549.903 487.744)">
					<g id="Ellipse_9_00000041989641711055027080000004871780542868550807_">
						<path class="st0" d="M148.6,132.1c-7.5,0-13.6-6.1-13.6-13.6s6.1-13.6,13.6-13.6s13.6,6.1,13.6,13.6S156.1,132.1,148.6,132.1z
							 M148.6,107.3c-6.1,0-11.1,5-11.1,11.1s5,11.1,11.1,11.1c6.1,0,11.1-5,11.1-11.1S154.8,107.3,148.6,107.3z"/>
					</g>
					<g id="Path_16_00000015350951339761453030000012395524220541103503_">
						<path class="st0" d="M168.8,155.6c-0.7,0-1.2-0.6-1.2-1.2c0-10.4-8.5-18.9-18.9-18.9s-18.9,8.5-18.9,18.9
							c0,0.7-0.6,1.2-1.2,1.2s-1.2-0.6-1.2-1.2c0-11.8,9.6-21.4,21.4-21.4c11.8,0,21.4,9.6,21.4,21.4
							C170,155.1,169.5,155.6,168.8,155.6z"/>
					</g>
				</g>
			</g>
		</g>
		<g>
			<g>
				<path class="st0" d="M62.1,101.2c-0.3,0-0.6-0.1-0.9-0.4L50.7,90.4c-0.5-0.5-0.5-1.3,0-1.8s1.3-0.5,1.8,0l9.6,9.6l9.4-9.4
					c0.5-0.5,1.3-0.5,1.8,0s0.5,1.3,0,1.8L63,100.9C62.8,101.1,62.4,101.2,62.1,101.2z"/>
			</g>
			<g>
				<path class="st0" d="M100.6,139.7c-12.6,0-24.2-5.8-31.8-15.9c-0.4-0.6-0.3-1.3,0.2-1.8c0.6-0.4,1.3-0.3,1.8,0.2
					c7.1,9.5,18,14.9,29.8,14.9c20.5,0,37.2-16.7,37.2-37.2c0-20.5-16.7-37.2-37.2-37.2c-20.5,0-37.2,16.7-37.2,37.2
					c0,0.7-0.6,1.2-1.2,1.2s-1.2-0.6-1.2-1.2c0-21.9,17.8-39.7,39.7-39.7s39.8,17.8,39.8,39.7S122.5,139.7,100.6,139.7z"/>
			</g>
		</g>
	</g>
	<g>
		<path class="st0" d="M100,172.7c-40.1,0-72.7-32.6-72.7-72.7S59.9,27.3,100,27.3s72.7,32.6,72.7,72.7S140.1,172.7,100,172.7z
			 M100,31.3c-37.9,0-68.7,30.8-68.7,68.7c0,37.9,30.8,68.7,68.7,68.7c37.9,0,68.7-30.8,68.7-68.7C168.7,62.1,137.9,31.3,100,31.3z"
			/>
	</g>
</g>
</svg>
