<?xml version="1.0" encoding="utf-8"?>
<!-- Generator: Adobe Illustrator 26.3.1, SVG Export Plug-In . SVG Version: 6.00 Build 0)  -->
<svg version="1.1" id="Layer_1" xmlns="http://www.w3.org/2000/svg" xmlns:xlink="http://www.w3.org/1999/xlink" x="0px" y="0px"
	 viewBox="0 0 200 200" style="enable-background:new 0 0 200 200;" xml:space="preserve">
<style type="text/css">
	.st0{fill:#0067FC;}
</style>
<g>
	<g>
		<path class="st0" d="M116.4,123.6H82.7c-0.6,0-1.1-0.5-1.1-1.1V115c0-0.6,0.5-1.1,1.1-1.1h33.7c0.6,0,1.1,0.5,1.1,1.1v7.6
			C117.4,123.2,116.9,123.6,116.4,123.6z M83.8,121.5h31.5V116H83.8V121.5z"/>
	</g>
	<g>
		<path class="st0" d="M99.2,119.8H86c-0.6,0-1.1-0.5-1.1-1.1s0.5-1.1,1.1-1.1h13.1c0.6,0,1.1,0.5,1.1,1.1S99.7,119.8,99.2,119.8z"
			/>
	</g>
	<g>
		<path class="st0" d="M116.4,136.1H82.7c-0.6,0-1.1-0.5-1.1-1.1v-7.6c0-0.6,0.5-1.1,1.1-1.1h33.7c0.6,0,1.1,0.5,1.1,1.1v7.6
			C117.4,135.6,116.9,136.1,116.4,136.1z M83.8,134h31.5v-5.5H83.8V134z"/>
	</g>
	<g>
		<path class="st0" d="M99.2,132.3H86c-0.6,0-1.1-0.5-1.1-1.1s0.5-1.1,1.1-1.1h13.1c0.6,0,1.1,0.5,1.1,1.1S99.7,132.3,99.2,132.3z"
			/>
	</g>
	<g>
		<g>
			<path class="st0" d="M100,108.8c-10.3,0-18.7-8.4-18.7-18.7c0-10.3,8.4-18.7,18.7-18.7c10.3,0,18.7,8.4,18.7,18.7
				C118.7,100.3,110.3,108.8,100,108.8z M100,73.8c-9,0-16.2,7.3-16.2,16.2s7.3,16.2,16.2,16.2c9,0,16.2-7.3,16.2-16.2
				S109,73.8,100,73.8z"/>
		</g>
	</g>
	<g id="Group_263_00000100351985256471477450000011297946156121757349_" transform="translate(-598.5 -520.001)">
		<g id="Group_259_00000003086880869380981750000001738925744334941326_" transform="translate(549.903 487.744)">
			<g id="Ellipse_9_00000088826523169784499250000001012040642209558709_">
				<path class="st0" d="M148.6,122.1c-2.9,0-5.3-2.4-5.3-5.3s2.4-5.3,5.3-5.3c2.9,0,5.3,2.4,5.3,5.3S151.5,122.1,148.6,122.1z
					 M148.6,114c-1.5,0-2.8,1.2-2.8,2.8s1.2,2.8,2.8,2.8s2.8-1.2,2.8-2.8S150.1,114,148.6,114z"/>
			</g>
			<g id="Path_16_00000044150844450586847120000017325479129428920484_">
				<path class="st0" d="M155.2,133c-0.7,0-1.2-0.6-1.2-1.2c0-2.9-2.4-5.3-5.3-5.3c-2.9,0-5.3,2.4-5.3,5.3c0,0.7-0.6,1.2-1.2,1.2
					s-1.2-0.6-1.2-1.2c0-4.3,3.5-7.8,7.8-7.8s7.8,3.5,7.8,7.8C156.4,132.5,155.9,133,155.2,133z"/>
			</g>
		</g>
	</g>
	<g>
		<g>
			<path class="st0" d="M124.9,144.3H75.1c-3,0-5.5-2.5-5.5-5.5V63.2c0-3,2.5-5.5,5.5-5.5h42c0.4,0,0.7,0.2,0.9,0.4l12.1,13.5
				c0.2,0.2,0.3,0.5,0.3,0.8v66.3C130.4,141.8,128,144.3,124.9,144.3z M72.1,107.8v31c0,1.7,1.3,3,3,3h49.8c1.7,0,3-1.3,3-3V73
				l-11.4-12.8H75.1c-1.7,0-3,1.3-3,3V107.8z"/>
		</g>
		<g>
			<path class="st0" d="M129.2,73.8h-8.8c-3,0-5.5-2.5-5.5-5.5v-8.8c0-0.7,0.6-1.2,1.2-1.2s1.2,0.6,1.2,1.2v8.8c0,1.7,1.3,3,3,3h8.8
				c0.7,0,1.2,0.6,1.2,1.2S129.9,73.8,129.2,73.8z"/>
		</g>
	</g>
	<g>
		<path class="st0" d="M100,172.7c-40.1,0-72.7-32.6-72.7-72.7S59.9,27.3,100,27.3s72.7,32.6,72.7,72.7S140.1,172.7,100,172.7z
			 M100,31.3c-37.9,0-68.7,30.8-68.7,68.7c0,37.9,30.8,68.7,68.7,68.7c37.9,0,68.7-30.8,68.7-68.7C168.7,62.1,137.9,31.3,100,31.3z"
			/>
	</g>
</g>
</svg>
