<?xml version="1.0" encoding="utf-8"?>
<!-- Generator: Adobe Illustrator 26.3.1, SVG Export Plug-In . SVG Version: 6.00 Build 0)  -->
<svg version="1.1" id="Layer_1" xmlns="http://www.w3.org/2000/svg" xmlns:xlink="http://www.w3.org/1999/xlink" x="0px" y="0px"
	 viewBox="0 0 200 200" style="enable-background:new 0 0 200 200;" xml:space="preserve">
<style type="text/css">
	.st0{fill:#0067FC;}
</style>
<g>
	<g>
		<g>
			<g id="Group_263_00000158026718491204453240000009293337709773572765_" transform="translate(-598.5 -520.001)">
				<g id="Group_259_00000092434656258202210270000011293387534798594211_" transform="translate(549.903 487.744)">
					<g id="Ellipse_9_00000058562436847168559120000014191564011013419928_">
						<path class="st0" d="M178.7,138.1c-3.5,0-6.3-2.8-6.3-6.3s2.8-6.3,6.3-6.3s6.3,2.8,6.3,6.3S182.1,138.1,178.7,138.1z
							 M178.7,127.9c-2.1,0-3.8,1.7-3.8,3.8c0,2.1,1.7,3.8,3.8,3.8s3.8-1.7,3.8-3.8C182.5,129.6,180.8,127.9,178.7,127.9z"/>
					</g>
					<g id="Path_16_00000114792322762811593150000003916941066177121439_">
						<path class="st0" d="M186.9,147.7c-0.7,0-1.2-0.6-1.2-1.2c0-3.9-3.1-7-7-7s-7,3.1-7,7c0,0.7-0.6,1.2-1.2,1.2s-1.2-0.6-1.2-1.2
							c0-5.2,4.3-9.5,9.5-9.5s9.5,4.3,9.5,9.5C188.2,147.1,187.6,147.7,186.9,147.7z"/>
					</g>
				</g>
			</g>
		</g>
		<g>
			<path class="st0" d="M117.6,144.5h-42c-3,0-5.5-2.5-5.5-5.5V91.2c0-0.7,0.6-1.2,1.2-1.2s1.2,0.6,1.2,1.2V139c0,1.7,1.3,3,3,3H117
				l11.4-12.8v-7c0-0.7,0.6-1.2,1.2-1.2s1.2,0.6,1.2,1.2v7.4c0,0.3-0.1,0.6-0.3,0.8l-12.1,13.5C118.3,144.3,117.9,144.5,117.6,144.5
				z"/>
		</g>
		<g>
			<path class="st0" d="M71.3,95.7c-0.7,0-1.2-0.6-1.2-1.2v-31c0-3,2.5-5.5,5.5-5.5h49.8c3,0,5.5,2.5,5.5,5.5v22.6
				c0,0.7-0.6,1.2-1.2,1.2s-1.2-0.6-1.2-1.2V63.5c0-1.7-1.3-3-3-3H75.6c-1.7,0-3,1.3-3,3v31C72.6,95.1,72,95.7,71.3,95.7z"/>
		</g>
		<g>
			<path class="st0" d="M116.6,144c-0.7,0-1.2-0.6-1.2-1.2V134c0-3,2.5-5.5,5.5-5.5h8.8c0.7,0,1.2,0.6,1.2,1.2s-0.6,1.2-1.2,1.2
				h-8.8c-1.7,0-3,1.3-3,3v8.8C117.8,143.5,117.3,144,116.6,144z"/>
		</g>
		<g>
			<path class="st0" d="M129.6,122.8c-10,0-18.2-8.2-18.2-18.2s8.2-18.2,18.2-18.2s18.2,8.2,18.2,18.2S139.7,122.8,129.6,122.8z
				 M129.6,88.8c-8.7,0-15.9,7.1-15.9,15.9c0,8.7,7.1,15.9,15.9,15.9s15.9-7.1,15.9-15.9C145.5,95.9,138.4,88.8,129.6,88.8z"/>
		</g>
	</g>
	<g>
		<g>
			<path class="st0" d="M108.7,113.2H90.7c-0.7,0-1.2-0.6-1.2-1.2s0.6-1.2,1.2-1.2h18.1c0.7,0,1.2,0.6,1.2,1.2
				S109.4,113.2,108.7,113.2z"/>
		</g>
		<g>
			<path class="st0" d="M105.8,120.2H90.7c-0.7,0-1.2-0.6-1.2-1.2s0.6-1.2,1.2-1.2h15.1c0.7,0,1.2,0.6,1.2,1.2
				S106.5,120.2,105.8,120.2z"/>
		</g>
		<g>
			<path class="st0" d="M102.2,127.2H90.7c-0.7,0-1.2-0.6-1.2-1.2s0.6-1.2,1.2-1.2h11.5c0.7,0,1.2,0.6,1.2,1.2
				S102.9,127.2,102.2,127.2z"/>
		</g>
		<g>
			<path class="st0" d="M83.7,114.6L83.7,114.6c-0.3,0-0.6-0.1-0.9-0.4l-1.4-1.4c-0.5-0.5-0.5-1.3,0-1.8s1.3-0.5,1.8,0l0.5,0.5
				l1.9-1.9c0.5-0.5,1.3-0.5,1.8,0s0.5,1.3,0,1.8l-2.8,2.8C84.4,114.4,84.1,114.6,83.7,114.6z"/>
		</g>
		<g>
			<path class="st0" d="M83.7,121.6L83.7,121.6c-0.3,0-0.6-0.1-0.9-0.4l-1.4-1.4c-0.5-0.5-0.5-1.3,0-1.8s1.3-0.5,1.8,0l0.5,0.5
				l1.9-1.9c0.5-0.5,1.3-0.5,1.8,0s0.5,1.3,0,1.8l-2.8,2.8C84.4,121.5,84.1,121.6,83.7,121.6z"/>
		</g>
		<g>
			<path class="st0" d="M83.7,128.1L83.7,128.1c-0.3,0-0.6-0.1-0.9-0.4l-1.4-1.4c-0.5-0.5-0.5-1.3,0-1.8s1.3-0.5,1.8,0l0.5,0.5
				l1.9-1.9c0.5-0.5,1.3-0.5,1.8,0s0.5,1.3,0,1.8l-2.8,2.8C84.4,127.9,84.1,128.1,83.7,128.1z"/>
		</g>
	</g>
	<g>
		<path class="st0" d="M100,172.7c-40.1,0-72.7-32.6-72.7-72.7S59.9,27.3,100,27.3s72.7,32.6,72.7,72.7S140.1,172.7,100,172.7z
			 M100,31.3c-37.9,0-68.7,30.8-68.7,68.7c0,37.9,30.8,68.7,68.7,68.7c37.9,0,68.7-30.8,68.7-68.7C168.7,62.1,137.9,31.3,100,31.3z"
			/>
	</g>
	<g>
		<path class="st0" d="M85.6,83.7c-3,0-5.4-2.4-5.4-5.4s2.4-5.4,5.4-5.4s5.4,2.4,5.4,5.4S88.6,83.7,85.6,83.7z M85.6,75.4
			c-1.6,0-2.9,1.3-2.9,2.9s1.3,2.9,2.9,2.9s2.9-1.3,2.9-2.9S87.2,75.4,85.6,75.4z"/>
	</g>
	<g>
		<path class="st0" d="M102.6,75.4c-3,0-5.4-2.4-5.4-5.4s2.4-5.4,5.4-5.4s5.4,2.4,5.4,5.4S105.6,75.4,102.6,75.4z M102.6,67
			c-1.6,0-2.9,1.3-2.9,2.9s1.3,2.9,2.9,2.9c1.6,0,2.9-1.3,2.9-2.9S104.2,67,102.6,67z"/>
	</g>
	<g>
		<path class="st0" d="M112,90.4c-3,0-5.4-2.4-5.4-5.4s2.4-5.4,5.4-5.4s5.4,2.4,5.4,5.4S115,90.4,112,90.4z M112,82
			c-1.6,0-2.9,1.3-2.9,2.9s1.3,2.9,2.9,2.9c1.6,0,2.9-1.3,2.9-2.9S113.6,82,112,82z"/>
	</g>
	<g>
		<path class="st0" d="M85.4,98.7c-3,0-5.4-2.4-5.4-5.4s2.4-5.4,5.4-5.4s5.4,2.4,5.4,5.4S88.4,98.7,85.4,98.7z M85.4,90.4
			c-1.6,0-2.9,1.3-2.9,2.9s1.3,2.9,2.9,2.9s2.9-1.3,2.9-2.9S87,90.4,85.4,90.4z"/>
	</g>
	<g>
		<path class="st0" d="M100.7,106.1c-3,0-5.4-2.4-5.4-5.4c0-3,2.4-5.4,5.4-5.4c3,0,5.4,2.4,5.4,5.4
			C106.1,103.7,103.7,106.1,100.7,106.1z M100.7,97.7c-1.6,0-2.9,1.3-2.9,2.9s1.3,2.9,2.9,2.9s2.9-1.3,2.9-2.9
			S102.3,97.7,100.7,97.7z"/>
	</g>
	<g>
		<path class="st0" d="M98.7,92.1c-3,0-5.4-2.4-5.4-5.4s2.4-5.4,5.4-5.4s5.4,2.4,5.4,5.4S101.7,92.1,98.7,92.1z M98.7,83.7
			c-1.6,0-2.9,1.3-2.9,2.9s1.3,2.9,2.9,2.9c1.6,0,2.9-1.3,2.9-2.9S100.3,83.7,98.7,83.7z"/>
	</g>
	<g>
		<path class="st0" d="M89.2,92.8c-0.4,0-0.9-0.2-1.1-0.7c-0.3-0.6-0.1-1.4,0.5-1.7l5.7-3.1c0.6-0.3,1.4-0.1,1.7,0.5
			c0.3,0.6,0.1,1.4-0.5,1.7l-5.7,3.1C89.6,92.8,89.4,92.8,89.2,92.8z"/>
	</g>
	<g>
		<path class="st0" d="M103.5,87.6c-0.6,0-1.2-0.5-1.2-1.2c0-0.7,0.5-1.3,1.2-1.3l4.1-0.3c0.7-0.1,1.3,0.5,1.3,1.2s-0.5,1.3-1.2,1.3
			L103.5,87.6C103.5,87.6,103.5,87.6,103.5,87.6z"/>
	</g>
	<g>
		<path class="st0" d="M99,83.1c-0.1,0-0.2,0-0.3,0c-0.7-0.2-1.1-0.9-0.9-1.5l2-7.7c0.2-0.7,0.9-1.1,1.5-0.9
			c0.7,0.2,1.1,0.9,0.9,1.5l-2,7.7C100,82.7,99.5,83.1,99,83.1z"/>
	</g>
	<g>
		<path class="st0" d="M94.5,85.3c-0.2,0-0.4-0.1-0.6-0.2l-5.6-3.3c-0.6-0.4-0.8-1.1-0.4-1.7c0.4-0.6,1.1-0.8,1.7-0.4l5.6,3.3
			c0.6,0.4,0.8,1.1,0.4,1.7C95.4,85.1,94.9,85.3,94.5,85.3z"/>
	</g>
	<g>
		<path class="st0" d="M100,97.7c-0.6,0-1.1-0.4-1.2-1.1L97.9,91c-0.1-0.7,0.4-1.3,1.1-1.4c0.7-0.1,1.3,0.4,1.4,1.1l0.8,5.7
			c0.1,0.7-0.4,1.3-1.1,1.4C100.1,97.7,100.1,97.7,100,97.7z"/>
	</g>
</g>
</svg>
