<?xml version="1.0" encoding="utf-8"?>
<!-- Generator: Adobe Illustrator 26.3.1, SVG Export Plug-In . SVG Version: 6.00 Build 0)  -->
<svg version="1.1" id="Layer_1" xmlns="http://www.w3.org/2000/svg" xmlns:xlink="http://www.w3.org/1999/xlink" x="0px" y="0px"
	 viewBox="0 0 200 200" style="enable-background:new 0 0 200 200;" xml:space="preserve">
<style type="text/css">
	.st0{fill:#0067FC;}
</style>
<g>
	<g>
		<g>
			<path class="st0" d="M117.1,143.3h-42c-3,0-5.5-2.5-5.5-5.5V62.2c0-3,2.5-5.5,5.5-5.5h49.8c3,0,5.5,2.5,5.5,5.5v66.3
				c0,0.3-0.1,0.6-0.3,0.8L118,142.9C117.8,143.1,117.5,143.3,117.1,143.3z M72.1,93.2v44.6c0,1.7,1.3,3,3,3h41.5l11.4-12.8V62.2
				c0-1.7-1.3-3-3-3H75.1c-1.7,0-3,1.3-3,3V93.2z"/>
		</g>
		<g>
			<path class="st0" d="M116.1,142.8c-0.7,0-1.2-0.6-1.2-1.2v-8.8c0-3,2.5-5.5,5.5-5.5h8.8c0.7,0,1.2,0.6,1.2,1.2s-0.6,1.2-1.2,1.2
				h-8.8c-1.7,0-3,1.3-3,3v8.8C117.4,142.3,116.8,142.8,116.1,142.8z"/>
		</g>
	</g>
	<g id="Group_263_00000153670581928217747960000009982725397037977502_" transform="translate(-598.5 -520.001)">
		<g id="Group_259_00000144306555772308331420000017774751286050292152_" transform="translate(549.903 487.744)">
			<g id="Ellipse_9_00000129916771598534848760000000772500130526240417_">
				<path class="st0" d="M134.7,144.3c-2.5,0-4.6-2.1-4.6-4.6c0-2.5,2.1-4.6,4.6-4.6s4.6,2.1,4.6,4.6
					C139.3,142.2,137.2,144.3,134.7,144.3z M134.7,137.6c-1.1,0-2.1,0.9-2.1,2.1c0,1.1,0.9,2.1,2.1,2.1s2.1-0.9,2.1-2.1
					C136.8,138.5,135.8,137.6,134.7,137.6z"/>
			</g>
			<g id="Path_16_00000103962764134431959900000000241880023441440916_">
				<path class="st0" d="M140.1,153.3c-0.7,0-1.2-0.6-1.2-1.2c0-2.3-1.9-4.2-4.2-4.2s-4.2,1.9-4.2,4.2c0,0.7-0.6,1.2-1.2,1.2
					s-1.2-0.6-1.2-1.2c0-3.7,3-6.7,6.7-6.7s6.7,3,6.7,6.7C141.4,152.8,140.8,153.3,140.1,153.3z"/>
			</g>
		</g>
	</g>
	<g>
		<g>
			<path class="st0" d="M123.6,106h-17c-0.7,0-1.2-0.6-1.2-1.2s0.6-1.2,1.2-1.2h17c0.7,0,1.2,0.6,1.2,1.2S124.2,106,123.6,106z"/>
		</g>
		<g>
			<path class="st0" d="M123.6,113h-17c-0.7,0-1.2-0.6-1.2-1.2s0.6-1.2,1.2-1.2h17c0.7,0,1.2,0.6,1.2,1.2S124.2,113,123.6,113z"/>
		</g>
		<g>
			<path class="st0" d="M113.5,120h-7c-0.7,0-1.2-0.6-1.2-1.2s0.6-1.2,1.2-1.2h7c0.7,0,1.2,0.6,1.2,1.2S114.2,120,113.5,120z"/>
		</g>
		<g>
			<path class="st0" d="M99.6,107.4L99.6,107.4c-0.3,0-0.6-0.1-0.9-0.4l-1.4-1.4c-0.5-0.5-0.5-1.3,0-1.8s1.3-0.5,1.8,0l0.5,0.5
				l1.9-1.9c0.5-0.5,1.3-0.5,1.8,0s0.5,1.3,0,1.8l-2.8,2.8C100.3,107.2,99.9,107.4,99.6,107.4z"/>
		</g>
		<g>
			<path class="st0" d="M99.6,114.4L99.6,114.4c-0.3,0-0.6-0.1-0.9-0.4l-1.4-1.4c-0.5-0.5-0.5-1.3,0-1.8s1.3-0.5,1.8,0l0.5,0.5
				l1.9-1.9c0.5-0.5,1.3-0.5,1.8,0s0.5,1.3,0,1.8l-2.8,2.8C100.3,114.3,99.9,114.4,99.6,114.4z"/>
		</g>
		<g>
			<path class="st0" d="M99.6,120.9c-0.3,0-0.6-0.1-0.9-0.4l-1.4-1.4c-0.5-0.5-0.5-1.3,0-1.8c0.5-0.5,1.3-0.5,1.8,0l0.5,0.5l1.9-1.9
				c0.5-0.5,1.3-0.5,1.8,0s0.5,1.3,0,1.8l-2.8,2.8C100.2,120.7,99.9,120.9,99.6,120.9z"/>
		</g>
	</g>
	<g>
		<path class="st0" d="M100,172.7c-40.1,0-72.7-32.6-72.7-72.7S59.9,27.3,100,27.3s72.7,32.6,72.7,72.7S140.1,172.7,100,172.7z
			 M100,31.3c-37.9,0-68.7,30.8-68.7,68.7c0,37.9,30.8,68.7,68.7,68.7c37.9,0,68.7-30.8,68.7-68.7C168.7,62.1,137.9,31.3,100,31.3z"
			/>
	</g>
	<g>
		<g>
			<path class="st0" d="M117.2,79.5c-0.7,0-1.2-0.6-1.2-1.2V74h-4.1c-0.7,0-1.2-0.6-1.2-1.2s0.6-1.2,1.2-1.2h5.4
				c0.7,0,1.2,0.6,1.2,1.2v5.5C118.4,78.9,117.9,79.5,117.2,79.5z"/>
		</g>
		<g>
			<path class="st0" d="M84,95.2c-0.7,0-1.2-0.6-1.2-1.2v-5.6c0-0.7,0.6-1.2,1.2-1.2s1.2,0.6,1.2,1.2v5.6
				C85.2,94.6,84.6,95.2,84,95.2z"/>
		</g>
		<g>
			<path class="st0" d="M92,94.7c-0.7,0-1.2-0.6-1.2-1.2v-2.2c0-0.7,0.6-1.2,1.2-1.2s1.2,0.6,1.2,1.2v2.2
				C93.3,94.1,92.7,94.7,92,94.7z"/>
		</g>
		<g>
			<path class="st0" d="M99.5,94.7c-0.7,0-1.2-0.6-1.2-1.2v-9.5c0-0.7,0.6-1.2,1.2-1.2s1.2,0.6,1.2,1.2v9.5
				C100.8,94.1,100.2,94.7,99.5,94.7z"/>
		</g>
		<g>
			<path class="st0" d="M108,94.7c-0.7,0-1.2-0.6-1.2-1.2v-7.3c0-0.7,0.6-1.2,1.2-1.2s1.2,0.6,1.2,1.2v7.3
				C109.2,94.1,108.7,94.7,108,94.7z"/>
		</g>
		<g>
			<path class="st0" d="M116,94.4c-0.7,0-1.2-0.6-1.2-1.2V82.2c0-0.7,0.6-1.2,1.2-1.2s1.2,0.6,1.2,1.2v10.9
				C117.3,93.8,116.7,94.4,116,94.4z"/>
		</g>
		<g>
			<path class="st0" d="M91.1,87.4c-0.2,0-0.4,0-0.6-0.1l-7.2-3.8c-0.6-0.3-0.8-1.1-0.5-1.7c0.3-0.6,1.1-0.8,1.7-0.5l6.4,3.3
				l7.8-7.4c0.4-0.4,0.9-0.5,1.4-0.2l7.7,3.7l7.4-7.6c0.5-0.5,1.3-0.5,1.8,0c0.5,0.5,0.5,1.3,0,1.8l-8.1,8.2c-0.4,0.4-1,0.5-1.4,0.3
				l-7.7-3.7L92,87.1C91.8,87.3,91.4,87.4,91.1,87.4z"/>
		</g>
	</g>
</g>
</svg>
