<?xml version="1.0" encoding="utf-8"?>
<!-- Generator: Adobe Illustrator 26.3.1, SVG Export Plug-In . SVG Version: 6.00 Build 0)  -->
<svg version="1.1" id="Layer_1" xmlns="http://www.w3.org/2000/svg" xmlns:xlink="http://www.w3.org/1999/xlink" x="0px" y="0px"
	 viewBox="0 0 200 200" style="enable-background:new 0 0 200 200;" xml:space="preserve">
<style type="text/css">
	.st0{fill:#0067FC;}
</style>
<g>
	<g>
		<g>
			<g id="Group_263_00000071554951728734784710000002742824122991609265_" transform="translate(-598.5 -520.001)">
				<g id="Group_259_00000025406481226108323330000010462331860602674093_" transform="translate(549.903 487.744)">
					<g id="Ellipse_9_00000142881005746278546240000000761760924855306379_">
						<path class="st0" d="M179,136.8c-2.9,0-5.2-2.3-5.2-5.2c0-2.9,2.3-5.2,5.2-5.2s5.2,2.3,5.2,5.2
							C184.2,134.5,181.8,136.8,179,136.8z M179,129c-1.5,0-2.7,1.2-2.7,2.7s1.2,2.7,2.7,2.7s2.7-1.2,2.7-2.7S180.5,129,179,129z"/>
					</g>
					<g id="Path_16_00000080184994288362318230000007152637760584713377_">
						<path class="st0" d="M185.4,144.3c-0.7,0-1.2-0.6-1.2-1.2c0-2.8-2.3-5.2-5.2-5.2s-5.2,2.3-5.2,5.2c0,0.7-0.6,1.2-1.2,1.2
							s-1.2-0.6-1.2-1.2c0-4.2,3.4-7.7,7.7-7.7s7.7,3.4,7.7,7.7C186.6,143.7,186.1,144.3,185.4,144.3z"/>
					</g>
				</g>
			</g>
		</g>
		<g>
			<path class="st0" d="M118,143.2H76c-3,0-5.5-2.5-5.5-5.5V90c0-0.7,0.6-1.2,1.2-1.2S73,89.3,73,90v47.7c0,1.7,1.3,3,3,3h41.5
				l11.4-12.8v-11c0-0.7,0.6-1.2,1.2-1.2s1.2,0.6,1.2,1.2v11.5c0,0.3-0.1,0.6-0.3,0.8l-12.1,13.5C118.7,143.1,118.4,143.2,118,143.2
				z"/>
		</g>
		<g>
			<path class="st0" d="M71.7,94.4c-0.7,0-1.2-0.6-1.2-1.2v-31c0-3,2.5-5.5,5.5-5.5h49.8c3,0,5.5,2.5,5.5,5.5v27.6
				c0,0.7-0.6,1.2-1.2,1.2s-1.2-0.6-1.2-1.2V62.2c0-1.7-1.3-3-3-3H76c-1.7,0-3,1.3-3,3v31C73,93.9,72.4,94.4,71.7,94.4z"/>
		</g>
		<g>
			<path class="st0" d="M117,142.8c-0.7,0-1.2-0.6-1.2-1.2v-8.8c0-3,2.5-5.5,5.5-5.5h8.8c0.7,0,1.2,0.6,1.2,1.2s-0.6,1.2-1.2,1.2
				h-8.8c-1.7,0-3,1.3-3,3v8.8C118.2,142.2,117.7,142.8,117,142.8z"/>
		</g>
		<g>
			<path class="st0" d="M130.1,117.9c-8,0-14.5-6.5-14.5-14.5s6.5-14.5,14.5-14.5c8,0,14.5,6.5,14.5,14.5S138,117.9,130.1,117.9z
				 M130.1,91.4c-6.6,0-12,5.4-12,12c0,6.6,5.4,12,12,12s12-5.4,12-12C142,96.8,136.7,91.4,130.1,91.4z"/>
		</g>
	</g>
	<g>
		<g>
			<path class="st0" d="M115.7,113.9h-27c-0.7,0-1.2-0.6-1.2-1.2s0.6-1.2,1.2-1.2h27c0.7,0,1.2,0.6,1.2,1.2S116.4,113.9,115.7,113.9
				z"/>
		</g>
		<g>
			<path class="st0" d="M115.7,121h-27c-0.7,0-1.2-0.6-1.2-1.2s0.6-1.2,1.2-1.2h27c0.7,0,1.2,0.6,1.2,1.2S116.4,121,115.7,121z"/>
		</g>
		<g>
			<path class="st0" d="M105.7,128h-17c-0.7,0-1.2-0.6-1.2-1.2s0.6-1.2,1.2-1.2h17c0.7,0,1.2,0.6,1.2,1.2S106.4,128,105.7,128z"/>
		</g>
		<g>
			<path class="st0" d="M81.7,115.3L81.7,115.3c-0.3,0-0.6-0.1-0.9-0.4l-1.4-1.4c-0.5-0.5-0.5-1.3,0-1.8s1.3-0.5,1.8,0l0.5,0.5
				l1.9-1.9c0.5-0.5,1.3-0.5,1.8,0s0.5,1.3,0,1.8l-2.8,2.8C82.4,115.2,82.1,115.3,81.7,115.3z"/>
		</g>
		<g>
			<path class="st0" d="M81.7,122.4c-0.3,0-0.6-0.1-0.9-0.4l-1.4-1.4c-0.5-0.5-0.5-1.3,0-1.8c0.5-0.5,1.3-0.5,1.8,0l0.5,0.5l1.9-1.9
				c0.5-0.5,1.3-0.5,1.8,0s0.5,1.3,0,1.8l-2.8,2.8C82.4,122.2,82.1,122.4,81.7,122.4z"/>
		</g>
		<g>
			<path class="st0" d="M81.7,128.8L81.7,128.8c-0.3,0-0.6-0.1-0.9-0.4l-1.4-1.4c-0.5-0.5-0.5-1.3,0-1.8s1.3-0.5,1.8,0l0.5,0.5
				l1.9-1.9c0.5-0.5,1.3-0.5,1.8,0s0.5,1.3,0,1.8l-2.8,2.8C82.4,128.7,82.1,128.8,81.7,128.8z"/>
		</g>
	</g>
	<g>
		<path class="st0" d="M100,172.7c-40.1,0-72.7-32.6-72.7-72.7S59.9,27.3,100,27.3s72.7,32.6,72.7,72.7S140.1,172.7,100,172.7z
			 M100,31.3c-37.9,0-68.7,30.8-68.7,68.7c0,37.9,30.8,68.7,68.7,68.7c37.9,0,68.7-30.8,68.7-68.7C168.7,62.1,137.9,31.3,100,31.3z"
			/>
	</g>
	<g>
		<path class="st0" d="M100.1,99.8c-8.8,0-16-7.2-16-16c0-8.8,7.2-16,16-16c8.8,0,16,7.2,16,16C116.1,92.6,108.9,99.8,100.1,99.8z
			 M100.1,70.2c-7.5,0-13.5,6.1-13.5,13.5c0,7.5,6.1,13.5,13.5,13.5s13.5-6.1,13.5-13.5C113.6,76.3,107.6,70.2,100.1,70.2z"/>
	</g>
	<g>
		<path class="st0" d="M100,87.2h-7c-0.7,0-1.2-0.6-1.2-1.2s0.6-1.2,1.2-1.2h5.8V75c0-0.7,0.6-1.2,1.2-1.2s1.2,0.6,1.2,1.2v10.9
			C101.2,86.6,100.7,87.2,100,87.2z"/>
	</g>
</g>
</svg>
