<?xml version="1.0" encoding="utf-8"?>
<!-- Generator: Adobe Illustrator 26.3.1, SVG Export Plug-In . SVG Version: 6.00 Build 0)  -->
<svg version="1.1" id="Layer_1" xmlns="http://www.w3.org/2000/svg" xmlns:xlink="http://www.w3.org/1999/xlink" x="0px" y="0px"
	 viewBox="0 0 200 200" style="enable-background:new 0 0 200 200;" xml:space="preserve">
<style type="text/css">
	.st0{fill:#0067FC;}
</style>
<g>
	<g>
		<path class="st0" d="M119.8,84.2H80.2c-0.7,0-1.2-0.6-1.2-1.2V74c0-0.7,0.6-1.2,1.2-1.2h39.6c0.7,0,1.2,0.6,1.2,1.2V83
			C121,83.6,120.5,84.2,119.8,84.2z M81.5,81.7h37.1v-6.4H81.5V81.7z"/>
	</g>
	<g>
		<path class="st0" d="M99.6,79.7H84.1c-0.7,0-1.2-0.6-1.2-1.2s0.6-1.2,1.2-1.2h15.4c0.7,0,1.2,0.6,1.2,1.2S100.3,79.7,99.6,79.7z"
			/>
	</g>
	<g>
		<path class="st0" d="M119.8,98.9H80.2c-0.7,0-1.2-0.6-1.2-1.2v-8.9c0-0.7,0.6-1.2,1.2-1.2h39.6c0.7,0,1.2,0.6,1.2,1.2v8.9
			C121,98.3,120.5,98.9,119.8,98.9z M81.5,96.4h37.1v-6.4H81.5V96.4z"/>
	</g>
	<g>
		<path class="st0" d="M99.6,94.4H84.1c-0.7,0-1.2-0.6-1.2-1.2s0.6-1.2,1.2-1.2h15.4c0.7,0,1.2,0.6,1.2,1.2S100.3,94.4,99.6,94.4z"
			/>
	</g>
	<g>
		<path class="st0" d="M117.1,143.3h-42c-3,0-5.5-2.5-5.5-5.5V62.2c0-3,2.5-5.5,5.5-5.5h49.8c3,0,5.5,2.5,5.5,5.5v66.3
			c0,0.3-0.1,0.6-0.3,0.8L118,142.9C117.8,143.1,117.5,143.3,117.1,143.3z M72.1,93.2v44.6c0,1.7,1.3,3,3,3h41.5l11.4-12.8V62.2
			c0-1.7-1.3-3-3-3H75.1c-1.7,0-3,1.3-3,3V93.2z"/>
	</g>
	<g>
		<path class="st0" d="M116.1,142.8c-0.7,0-1.2-0.6-1.2-1.2v-8.8c0-3,2.5-5.5,5.5-5.5h8.8c0.7,0,1.2,0.6,1.2,1.2s-0.6,1.2-1.2,1.2
			h-8.8c-1.7,0-3,1.3-3,3v8.8C117.4,142.3,116.8,142.8,116.1,142.8z"/>
	</g>
	<g>
		<g>
			<path class="st0" d="M89.3,132.1c-7.3,0-13.2-5.9-13.2-13.2c0-7.3,5.9-13.2,13.2-13.2s13.2,5.9,13.2,13.2
				C102.6,126.2,96.7,132.1,89.3,132.1z M89.3,108.1c-5.9,0-10.7,4.8-10.7,10.7s4.8,10.7,10.7,10.7c5.9,0,10.7-4.8,10.7-10.7
				S95.3,108.1,89.3,108.1z"/>
		</g>
	</g>
	<g id="Group_263_00000090276283976242599060000000140541883709329334_" transform="translate(-598.5 -520.001)">
		<g id="Group_259_00000142168981481472966920000017165853856381904825_" transform="translate(549.903 487.744)">
			<g id="Ellipse_9_00000026153603280579524710000011488092357071130554_">
				<path class="st0" d="M137.9,151.4c-2.2,0-4-1.8-4-4c0-2.2,1.8-4,4-4c2.2,0,4,1.8,4,4C142,149.6,140.2,151.4,137.9,151.4z
					 M137.9,145.9c-0.8,0-1.5,0.7-1.5,1.5s0.7,1.5,1.5,1.5c0.8,0,1.5-0.7,1.5-1.5S138.8,145.9,137.9,145.9z"/>
			</g>
			<g id="Path_16_00000158732131389521178770000004394080229388729232_">
				<path class="st0" d="M142.5,158.9c-0.7,0-1.2-0.6-1.2-1.2c0-1.8-1.5-3.3-3.3-3.3s-3.3,1.5-3.3,3.3c0,0.7-0.6,1.2-1.2,1.2
					s-1.2-0.6-1.2-1.2c0-3.2,2.6-5.8,5.8-5.8s5.8,2.6,5.8,5.8C143.7,158.3,143.1,158.9,142.5,158.9z"/>
			</g>
		</g>
	</g>
	<g>
		<path class="st0" d="M122.6,114.5h-15.6c-0.7,0-1.2-0.6-1.2-1.2s0.6-1.2,1.2-1.2h15.6c0.7,0,1.2,0.6,1.2,1.2
			S123.3,114.5,122.6,114.5z"/>
	</g>
	<g>
		<path class="st0" d="M115.6,119.3h-8.6c-0.7,0-1.2-0.6-1.2-1.2s0.6-1.2,1.2-1.2h8.6c0.7,0,1.2,0.6,1.2,1.2
			S116.3,119.3,115.6,119.3z"/>
	</g>
	<g>
		<path class="st0" d="M111.6,123.8h-4.6c-0.7,0-1.2-0.6-1.2-1.2s0.6-1.2,1.2-1.2h4.6c0.7,0,1.2,0.6,1.2,1.2
			S112.3,123.8,111.6,123.8z"/>
	</g>
	<g>
		<path class="st0" d="M100,172.7c-40.1,0-72.7-32.6-72.7-72.7S59.9,27.3,100,27.3s72.7,32.6,72.7,72.7S140.1,172.7,100,172.7z
			 M100,31.3c-37.9,0-68.7,30.8-68.7,68.7c0,37.9,30.8,68.7,68.7,68.7c37.9,0,68.7-30.8,68.7-68.7C168.7,62.1,137.9,31.3,100,31.3z"
			/>
	</g>
</g>
</svg>
