<?xml version="1.0" encoding="utf-8"?>
<!-- Generator: Adobe Illustrator 26.3.1, SVG Export Plug-In . SVG Version: 6.00 Build 0)  -->
<svg version="1.1" id="Layer_1" xmlns="http://www.w3.org/2000/svg" xmlns:xlink="http://www.w3.org/1999/xlink" x="0px" y="0px"
	 viewBox="0 0 200 200" style="enable-background:new 0 0 200 200;" xml:space="preserve">
<style type="text/css">
	.st0{fill:#0067FC;}
</style>
<g>
	<g>
		<g>
			<g>
				<path class="st0" d="M78.2,107.6H59.6c-1.7,0-3.2-1.4-3.2-3.2V71.1c0-1.7,1.4-3.2,3.2-3.2h22c1.7,0,3.2,1.4,3.2,3.2v29.2
					c0,0.3-0.1,0.6-0.3,0.9l-5.3,6C78.9,107.4,78.5,107.6,78.2,107.6z M59,84.7v19.7c0,0.3,0.3,0.6,0.6,0.6h18l4.6-5.2V71.1
					c0-0.3-0.3-0.6-0.6-0.6h-22c-0.3,0-0.6,0.3-0.6,0.6V84.7z"/>
			</g>
			<g>
				<path class="st0" d="M77.7,107.4c-0.7,0-1.3-0.6-1.3-1.3v-3.9c0-1.7,1.4-3.2,3.2-3.2h3.9c0.7,0,1.3,0.6,1.3,1.3
					s-0.6,1.3-1.3,1.3h-3.9c-0.3,0-0.6,0.3-0.6,0.6v3.9C79,106.8,78.4,107.4,77.7,107.4z"/>
			</g>
		</g>
		<g>
			<path class="st0" d="M78.1,78.8H63.3c-0.7,0-1.3-0.6-1.3-1.3s0.6-1.3,1.3-1.3h14.8c0.7,0,1.3,0.6,1.3,1.3S78.8,78.8,78.1,78.8z"
				/>
		</g>
		<g>
			<path class="st0" d="M78.1,84.2H63.3c-0.7,0-1.3-0.6-1.3-1.3s0.6-1.3,1.3-1.3h14.8c0.7,0,1.3,0.6,1.3,1.3S78.8,84.2,78.1,84.2z"
				/>
		</g>
		<g>
			<path class="st0" d="M76.3,89.7H63.3c-0.7,0-1.3-0.6-1.3-1.3s0.6-1.3,1.3-1.3h13.1c0.7,0,1.3,0.6,1.3,1.3S77,89.7,76.3,89.7z"/>
		</g>
		<g>
			<path class="st0" d="M74.5,95.1H63.3c-0.7,0-1.3-0.6-1.3-1.3s0.6-1.3,1.3-1.3h11.3c0.7,0,1.3,0.6,1.3,1.3S75.2,95.1,74.5,95.1z"
				/>
		</g>
		<g>
			<path class="st0" d="M71.4,100.6h-8.2c-0.7,0-1.3-0.6-1.3-1.3s0.6-1.3,1.3-1.3h8.2c0.7,0,1.3,0.6,1.3,1.3S72.2,100.6,71.4,100.6z
				"/>
		</g>
	</g>
	<g>
		<g>
			<g>
				<path class="st0" d="M136.9,107.6h-18.5c-1.7,0-3.2-1.4-3.2-3.2V71.1c0-1.7,1.4-3.2,3.2-3.2h22c1.7,0,3.2,1.4,3.2,3.2v29.2
					c0,0.3-0.1,0.6-0.3,0.9l-5.3,6C137.7,107.4,137.3,107.6,136.9,107.6z M117.8,84.7v19.7c0,0.3,0.3,0.6,0.6,0.6h18l4.6-5.2V71.1
					c0-0.3-0.3-0.6-0.6-0.6h-22c-0.3,0-0.6,0.3-0.6,0.6V84.7z"/>
			</g>
			<g>
				<path class="st0" d="M136.5,107.4c-0.7,0-1.3-0.6-1.3-1.3v-3.9c0-1.7,1.4-3.2,3.2-3.2h3.9c0.7,0,1.3,0.6,1.3,1.3
					s-0.6,1.3-1.3,1.3h-3.9c-0.3,0-0.6,0.3-0.6,0.6v3.9C137.8,106.8,137.2,107.4,136.5,107.4z"/>
			</g>
		</g>
		<g>
			<path class="st0" d="M136.8,78.8H122c-0.7,0-1.3-0.6-1.3-1.3s0.6-1.3,1.3-1.3h14.8c0.7,0,1.3,0.6,1.3,1.3S137.6,78.8,136.8,78.8z
				"/>
		</g>
		<g>
			<path class="st0" d="M136.8,84.2H122c-0.7,0-1.3-0.6-1.3-1.3s0.6-1.3,1.3-1.3h14.8c0.7,0,1.3,0.6,1.3,1.3S137.6,84.2,136.8,84.2z
				"/>
		</g>
		<g>
			<path class="st0" d="M135.1,89.7H122c-0.7,0-1.3-0.6-1.3-1.3s0.6-1.3,1.3-1.3h13.1c0.7,0,1.3,0.6,1.3,1.3S135.8,89.7,135.1,89.7z
				"/>
		</g>
		<g>
			<path class="st0" d="M133.3,95.1H122c-0.7,0-1.3-0.6-1.3-1.3s0.6-1.3,1.3-1.3h11.3c0.7,0,1.3,0.6,1.3,1.3S134,95.1,133.3,95.1z"
				/>
		</g>
		<g>
			<path class="st0" d="M130.2,100.6H122c-0.7,0-1.3-0.6-1.3-1.3s0.6-1.3,1.3-1.3h8.2c0.7,0,1.3,0.6,1.3,1.3
				S130.9,100.6,130.2,100.6z"/>
		</g>
	</g>
	<g>
		<g>
			<g>
				<path class="st0" d="M107.5,88.4H89c-1.7,0-3.2-1.4-3.2-3.2V51.9c0-1.7,1.4-3.2,3.2-3.2h22c1.7,0,3.2,1.4,3.2,3.2v29.2
					c0,0.3-0.1,0.6-0.3,0.9l-5.3,6C108.3,88.2,107.9,88.4,107.5,88.4z M88.4,65.5v19.7c0,0.3,0.3,0.6,0.6,0.6h18l4.6-5.2V51.9
					c0-0.3-0.3-0.6-0.6-0.6H89c-0.3,0-0.6,0.3-0.6,0.6V65.5z"/>
			</g>
			<g>
				<path class="st0" d="M107.1,88.2c-0.7,0-1.3-0.6-1.3-1.3V83c0-1.7,1.4-3.2,3.2-3.2h3.9c0.7,0,1.3,0.6,1.3,1.3s-0.6,1.3-1.3,1.3
					H109c-0.3,0-0.6,0.3-0.6,0.6v3.9C108.4,87.6,107.8,88.2,107.1,88.2z"/>
			</g>
		</g>
		<g>
			<path class="st0" d="M107.5,59.6H92.6c-0.7,0-1.3-0.6-1.3-1.3s0.6-1.3,1.3-1.3h14.8c0.7,0,1.3,0.6,1.3,1.3S108.2,59.6,107.5,59.6
				z"/>
		</g>
		<g>
			<path class="st0" d="M107.5,65H92.6c-0.7,0-1.3-0.6-1.3-1.3s0.6-1.3,1.3-1.3h14.8c0.7,0,1.3,0.6,1.3,1.3S108.2,65,107.5,65z"/>
		</g>
		<g>
			<path class="st0" d="M105.7,70.5H92.6c-0.7,0-1.3-0.6-1.3-1.3s0.6-1.3,1.3-1.3h13.1c0.7,0,1.3,0.6,1.3,1.3S106.4,70.5,105.7,70.5
				z"/>
		</g>
		<g>
			<path class="st0" d="M103.9,75.9H92.6c-0.7,0-1.3-0.6-1.3-1.3s0.6-1.3,1.3-1.3h11.3c0.7,0,1.3,0.6,1.3,1.3S104.6,75.9,103.9,75.9
				z"/>
		</g>
		<g>
			<path class="st0" d="M100.8,81.4h-8.2c-0.7,0-1.3-0.6-1.3-1.3s0.6-1.3,1.3-1.3h8.2c0.7,0,1.3,0.6,1.3,1.3S101.5,81.4,100.8,81.4z
				"/>
		</g>
	</g>
	<g>
		<path class="st0" d="M100,172.7c-40.1,0-72.7-32.6-72.7-72.7S59.9,27.3,100,27.3s72.7,32.6,72.7,72.7S140.1,172.7,100,172.7z
			 M100,31.3c-37.9,0-68.7,30.8-68.7,68.7c0,37.9,30.8,68.7,68.7,68.7c37.9,0,68.7-30.8,68.7-68.7C168.7,62.1,137.9,31.3,100,31.3z"
			/>
	</g>
	<g>
		<path class="st0" d="M132.2,139.6H69c-0.8,0-1.4-0.6-1.4-1.4V125c0-0.8,0.6-1.4,1.4-1.4h63.3c0.8,0,1.4,0.6,1.4,1.4v13.2
			C133.6,139,133,139.6,132.2,139.6z M70.3,136.8h60.5v-10.4H70.3V136.8z"/>
	</g>
	<g>
		<path class="st0" d="M119.2,122c-0.7,0-1.3-0.6-1.3-1.3v-4.9c0-0.7,0.6-1.3,1.3-1.3H131v-4.7c0-0.7,0.6-1.3,1.3-1.3
			s1.3,0.6,1.3,1.3v6c0,0.7-0.6,1.3-1.3,1.3h-11.8v3.7C120.5,121.4,119.9,122,119.2,122z"/>
	</g>
	<g>
		<path class="st0" d="M82.2,121.5c-0.7,0-1.3-0.6-1.3-1.3v-3.7H69.7c-0.7,0-1.3-0.6-1.3-1.3v-5.5c0-0.7,0.6-1.3,1.3-1.3
			s1.3,0.6,1.3,1.3v4.2h11.3c0.7,0,1.3,0.6,1.3,1.3v5C83.5,121,83,121.5,82.2,121.5z"/>
	</g>
	<g>
		<path class="st0" d="M94.4,119.8c-0.7,0-1.3-0.6-1.3-1.3V115c0-0.7,0.6-1.3,1.3-1.3h5.8V90.8c0-0.7,0.6-1.3,1.3-1.3
			c0.7,0,1.3,0.6,1.3,1.3V115c0,0.7-0.6,1.3-1.3,1.3h-5.8v2.2C95.7,119.2,95.1,119.8,94.4,119.8z"/>
	</g>
	<g>
		<path class="st0" d="M97.9,132.9H77.7c-0.7,0-1.3-0.6-1.3-1.3s0.6-1.3,1.3-1.3h20.2c0.7,0,1.3,0.6,1.3,1.3S98.6,132.9,97.9,132.9z
			"/>
	</g>
	<g>
		<path class="st0" d="M111.6,132.9h-6.9c-0.7,0-1.3-0.6-1.3-1.3s0.6-1.3,1.3-1.3h6.9c0.7,0,1.3,0.6,1.3,1.3
			S112.3,132.9,111.6,132.9z"/>
	</g>
	<g>
		<path class="st0" d="M125.5,132.9h-6.9c-0.7,0-1.3-0.6-1.3-1.3s0.6-1.3,1.3-1.3h6.9c0.7,0,1.3,0.6,1.3,1.3
			S126.2,132.9,125.5,132.9z"/>
	</g>
</g>
</svg>
