<?xml version="1.0" encoding="utf-8"?>
<!-- Generator: Adobe Illustrator 26.3.1, SVG Export Plug-In . SVG Version: 6.00 Build 0)  -->
<svg version="1.1" id="Layer_1" xmlns="http://www.w3.org/2000/svg" xmlns:xlink="http://www.w3.org/1999/xlink" x="0px" y="0px"
	 viewBox="0 0 200 200" style="enable-background:new 0 0 200 200;" xml:space="preserve">
<style type="text/css">
	.st0{fill:#0067FC;}
</style>
<g>
	<g>
		<g>
			<path class="st0" d="M117.1,143.2h-42c-3,0-5.5-2.5-5.5-5.5V62.2c0-3,2.5-5.5,5.5-5.5h49.8c3,0,5.5,2.5,5.5,5.5v66.3
				c0,0.3-0.1,0.6-0.3,0.8l-12.1,13.5C117.8,143.1,117.5,143.2,117.1,143.2z M72.1,93.2v44.6c0,1.7,1.3,3,3,3h41.5l11.4-12.8V62.2
				c0-1.7-1.3-3-3-3H75.1c-1.7,0-3,1.3-3,3V93.2z"/>
		</g>
		<g>
			<path class="st0" d="M116.1,142.8c-0.7,0-1.2-0.6-1.2-1.2v-8.8c0-3,2.5-5.5,5.5-5.5h8.8c0.7,0,1.2,0.6,1.2,1.2s-0.6,1.2-1.2,1.2
				h-8.8c-1.7,0-3,1.3-3,3v8.8C117.4,142.2,116.8,142.8,116.1,142.8z"/>
		</g>
	</g>
	<g>
		<g>
			<path class="st0" d="M89.4,125.4c-7.3,0-13.2-5.9-13.2-13.2c0-7.3,5.9-13.2,13.2-13.2s13.2,5.9,13.2,13.2
				C102.6,119.5,96.7,125.4,89.4,125.4z M89.4,101.4c-5.9,0-10.7,4.8-10.7,10.7s4.8,10.7,10.7,10.7s10.7-4.8,10.7-10.7
				S95.3,101.4,89.4,101.4z"/>
		</g>
	</g>
	<g id="Group_263_00000107582775049864083260000013175612460916735115_" transform="translate(-598.5 -520.001)">
		<g id="Group_259_00000116918072450934357700000018202761199294929831_" transform="translate(549.903 487.744)">
			<g id="Ellipse_9_00000161614350493589175810000010808019903269699717_">
				<path class="st0" d="M138,144.7c-2.2,0-4-1.8-4-4c0-2.2,1.8-4,4-4c2.2,0,4,1.8,4,4C142,142.9,140.2,144.7,138,144.7z M138,139.1
					c-0.8,0-1.5,0.7-1.5,1.5s0.7,1.5,1.5,1.5c0.8,0,1.5-0.7,1.5-1.5S138.8,139.1,138,139.1z"/>
			</g>
			<g id="Path_16_00000083780733728681521320000013002152140027470011_">
				<path class="st0" d="M142.5,152.2c-0.7,0-1.2-0.6-1.2-1.2c0-1.8-1.5-3.3-3.3-3.3s-3.3,1.5-3.3,3.3c0,0.7-0.6,1.2-1.2,1.2
					s-1.2-0.6-1.2-1.2c0-3.2,2.6-5.8,5.8-5.8s5.8,2.6,5.8,5.8C143.7,151.6,143.2,152.2,142.5,152.2z"/>
			</g>
		</g>
	</g>
	<g>
		<path class="st0" d="M119.8,78H80.2c-0.7,0-1.2-0.6-1.2-1.2v-8.9c0-0.7,0.6-1.2,1.2-1.2h39.6c0.7,0,1.2,0.6,1.2,1.2v8.9
			C121,77.5,120.5,78,119.8,78z M81.5,75.5h37.1v-6.4H81.5V75.5z"/>
	</g>
	<g>
		<path class="st0" d="M99.6,73.5H84.1c-0.7,0-1.2-0.6-1.2-1.2s0.6-1.2,1.2-1.2h15.4c0.7,0,1.2,0.6,1.2,1.2S100.3,73.5,99.6,73.5z"
			/>
	</g>
	<g>
		<path class="st0" d="M119.8,92.7H80.2c-0.7,0-1.2-0.6-1.2-1.2v-8.9c0-0.7,0.6-1.2,1.2-1.2h39.6c0.7,0,1.2,0.6,1.2,1.2v8.9
			C121,92.1,120.5,92.7,119.8,92.7z M81.5,90.2h37.1v-6.4H81.5V90.2z"/>
	</g>
	<g>
		<path class="st0" d="M99.6,88.2H84.1c-0.7,0-1.2-0.6-1.2-1.2s0.6-1.2,1.2-1.2h15.4c0.7,0,1.2,0.6,1.2,1.2S100.3,88.2,99.6,88.2z"
			/>
	</g>
	<g>
		<path class="st0" d="M97.1,132.4H81.7c-0.7,0-1.2-0.6-1.2-1.2s0.6-1.2,1.2-1.2h15.4c0.7,0,1.2,0.6,1.2,1.2S97.8,132.4,97.1,132.4z
			"/>
	</g>
	<g>
		<path class="st0" d="M100,172.7c-40.1,0-72.7-32.6-72.7-72.7S59.9,27.3,100,27.3s72.7,32.6,72.7,72.7S140.1,172.7,100,172.7z
			 M100,31.3c-37.9,0-68.7,30.8-68.7,68.7c0,37.9,30.8,68.7,68.7,68.7c37.9,0,68.7-30.8,68.7-68.7C168.7,62.1,137.9,31.3,100,31.3z"
			/>
	</g>
	<g>
		<g>
			<path class="st0" d="M124,106.6h-9c-0.7,0-1.2-0.6-1.2-1.2s0.6-1.2,1.2-1.2h9c0.7,0,1.2,0.6,1.2,1.2S124.6,106.6,124,106.6z"/>
		</g>
		<g>
			<path class="st0" d="M124,113.7h-9c-0.7,0-1.2-0.6-1.2-1.2s0.6-1.2,1.2-1.2h9c0.7,0,1.2,0.6,1.2,1.2S124.6,113.7,124,113.7z"/>
		</g>
		<g>
			<path class="st0" d="M121,120.7h-6c-0.7,0-1.2-0.6-1.2-1.2s0.6-1.2,1.2-1.2h6c0.7,0,1.2,0.6,1.2,1.2S121.6,120.7,121,120.7z"/>
		</g>
		<g>
			<path class="st0" d="M108,108.1c-0.3,0-0.6-0.1-0.9-0.4l-1.4-1.4c-0.5-0.5-0.5-1.3,0-1.8s1.3-0.5,1.8,0l0.5,0.5l1.9-1.9
				c0.5-0.5,1.3-0.5,1.8,0s0.5,1.3,0,1.8l-2.8,2.8C108.7,107.9,108.3,108.1,108,108.1z"/>
		</g>
		<g>
			<path class="st0" d="M108,115.1c-0.3,0-0.6-0.1-0.9-0.4l-1.4-1.4c-0.5-0.5-0.5-1.3,0-1.8s1.3-0.5,1.8,0l0.5,0.5l1.9-1.9
				c0.5-0.5,1.3-0.5,1.8,0s0.5,1.3,0,1.8l-2.8,2.8C108.7,115,108.3,115.1,108,115.1z"/>
		</g>
		<g>
			<path class="st0" d="M108,121.6c-0.3,0-0.6-0.1-0.9-0.4l-1.4-1.4c-0.5-0.5-0.5-1.3,0-1.8s1.3-0.5,1.8,0l0.5,0.5l1.9-1.9
				c0.5-0.5,1.3-0.5,1.8,0s0.5,1.3,0,1.8l-2.8,2.8C108.7,121.4,108.3,121.6,108,121.6z"/>
		</g>
	</g>
</g>
</svg>
