<?xml version="1.0" encoding="utf-8"?>
<!-- Generator: Adobe Illustrator 26.3.1, SVG Export Plug-In . SVG Version: 6.00 Build 0)  -->
<svg version="1.1" id="Layer_1" xmlns="http://www.w3.org/2000/svg" xmlns:xlink="http://www.w3.org/1999/xlink" x="0px" y="0px"
	 viewBox="0 0 200 200" style="enable-background:new 0 0 200 200;" xml:space="preserve">
<style type="text/css">
	.st0{fill:#0067FC;}
</style>
<g>
	<g>
		<g>
			<g>
				<path class="st0" d="M100.1,134.4c-0.8,0-1.7,0-2.5,0c-2.4,0-3.9-1.5-3.9-3.9c0-1.8-0.7-3.4-2-4.6c-1.2-1.2-2.8-1.8-4.5-1.7
					c-1.6,0-2.9,0.6-4.1,1.8c-1.9,1.8-3.9,1.8-5.8-0.1c-1.1-1.1-2.1-2.1-3.2-3.2c-1.8-1.8-1.8-3.8-0.1-5.7c1.6-1.7,2.2-4,1.5-6.2
					c-0.6-2.1-2.3-3.7-4.5-4.3c-0.6-0.1-1.2-0.2-1.8-0.2c-2.1-0.1-3.6-1.6-3.6-3.7c0-1.6,0-3.3,0-4.9l0-0.2c0-2.3,1.5-3.8,3.9-3.9
					c3.6-0.1,6.4-2.9,6.3-6.4c0-1.7-0.6-3.1-1.7-4.3c-1.8-1.9-1.8-3.9,0.1-5.8c0.3-0.3,0.6-0.6,0.9-0.9c0.8-0.8,1.6-1.6,2.5-2.4
					c0.5-0.4,1-0.7,1.4-0.9c0.2-0.1,0.3-0.2,0.5-0.3c0.3-0.1,0.6-0.2,0.8-0.1c1.3,0.2,2.1,0.8,2.7,1.5c1.7,1.6,3.9,2.1,6.1,1.5
					c2.1-0.6,3.8-2.3,4.3-4.5c0.1-0.6,0.2-1.2,0.2-1.8c0.1-2.1,1.6-3.6,3.7-3.6c1.3,0,2.5,0,3.8,0l1.2,0c2.5,0,4,1.4,4,3.9
					c0,1.7,0.7,3.3,2,4.5c1.2,1.2,2.8,1.8,4.5,1.7c1.6,0,3-0.6,4.2-1.8c1.9-1.8,3.9-1.8,5.8,0.1l1,1c0.8,0.8,1.5,1.5,2.3,2.3
					c1.6,1.7,1.7,3.7,0.1,5.5c-2,2.1-2.4,4.4-1.4,6.9c1.1,2.5,3,3.8,5.9,3.9c2.2,0.1,3.7,1.6,3.7,3.8c0,1.7,0,3.4,0,5
					c0,2.3-1.5,3.8-3.8,3.9c-2.9,0.1-4.8,1.3-5.9,3.9c-1.1,2.5-0.6,4.8,1.4,6.9c1.6,1.8,1.6,3.8-0.1,5.5c-1.1,1.2-2.3,2.3-3.5,3.4
					c-1.7,1.7-3.7,1.7-5.5,0.1c-2.1-2-4.4-2.4-6.9-1.4c-2.5,1.1-3.8,3-3.9,5.9c-0.1,2.3-1.6,3.8-3.9,3.8
					C101.7,134.4,100.9,134.4,100.1,134.4z M87.4,121.7c2.3,0,4.4,0.8,6,2.4c1.7,1.6,2.7,3.9,2.7,6.4c0,1,0.4,1.4,1.4,1.4
					c1.6,0,3.2,0,4.9,0c1,0,1.4-0.4,1.4-1.4c0.1-3.9,2-6.7,5.4-8.1c3.4-1.4,6.7-0.8,9.6,1.9c0.8,0.7,1.3,0.7,2,0
					c1.2-1.1,2.3-2.3,3.4-3.4c0.7-0.7,0.7-1.3,0-2.1c-2.6-2.9-3.3-6.2-1.8-9.6c1.4-3.4,4.3-5.3,8.1-5.4c0.9,0,1.3-0.4,1.3-1.4
					c0-1.7,0-3.3,0-5c0-0.9-0.4-1.3-1.3-1.3c-3.9-0.1-6.7-2-8.2-5.4c-1.4-3.4-0.8-6.7,1.9-9.6c0.7-0.7,0.7-1.3,0-2
					c-0.7-0.8-1.5-1.5-2.3-2.3l-1-1c-1-1-1.4-1-2.3-0.1c-1.7,1.6-3.6,2.4-5.9,2.4c-2.4,0.1-4.6-0.8-6.3-2.4
					c-1.7-1.6-2.7-3.9-2.7-6.3c0-1.1-0.4-1.5-1.5-1.5l-1.2,0c-1.2,0-2.5,0-3.7,0c-1,0-1.2,0.7-1.3,1.3c0,0.7-0.1,1.5-0.3,2.3
					c-0.8,3.1-3,5.4-6.1,6.3c-3,0.9-6.2,0.1-8.5-2.1c-0.4-0.4-0.7-0.6-1.1-0.8c-0.1,0-0.1,0.1-0.2,0.1c-0.3,0.2-0.7,0.3-0.9,0.5
					c-0.8,0.7-1.6,1.6-2.4,2.3c-0.3,0.3-0.6,0.6-0.9,0.9c-0.9,1-1,1.4-0.1,2.3c1.6,1.7,2.4,3.7,2.4,6c0.1,4.9-3.8,8.8-8.8,8.9
					c-1,0-1.4,0.4-1.4,1.4l0,0.2c0,1.6,0,3.3,0,4.9c0,1,0.7,1.2,1.3,1.2c0.7,0,1.5,0.1,2.3,0.3c3.1,0.8,5.4,3,6.3,6
					c0.9,3,0.1,6.2-2.1,8.6c-0.8,0.9-0.8,1.4,0,2.2c1,1.1,2.1,2.1,3.2,3.2c1,1,1.4,1,2.3,0.1c1.6-1.5,3.6-2.4,5.8-2.4
					C87.2,121.7,87.3,121.7,87.4,121.7z"/>
			</g>
		</g>
	</g>
	<g>
		<path class="st0" d="M100,172.7c-40.1,0-72.7-32.6-72.7-72.7S59.9,27.3,100,27.3s72.7,32.6,72.7,72.7S140.1,172.7,100,172.7z
			 M100,31.3c-37.9,0-68.7,30.8-68.7,68.7c0,37.9,30.8,68.7,68.7,68.7c37.9,0,68.7-30.8,68.7-68.7C168.7,62.1,137.9,31.3,100,31.3z"
			/>
	</g>
	<g>
		<g>
			<path class="st0" d="M100,122.2c-12.3,0-22.2-10-22.2-22.2s10-22.2,22.2-22.2c12.3,0,22.2,10,22.2,22.2S112.3,122.2,100,122.2z
				 M100,80.3c-10.9,0-19.7,8.8-19.7,19.7c0,10.9,8.8,19.7,19.7,19.7s19.7-8.8,19.7-19.7C119.7,89.1,110.9,80.3,100,80.3z"/>
		</g>
		<g>
			<path class="st0" d="M121,101.2H79c-0.7,0-1.2-0.6-1.2-1.2s0.6-1.2,1.2-1.2H121c0.7,0,1.2,0.6,1.2,1.2S121.7,101.2,121,101.2z"/>
		</g>
		<g>
			<path class="st0" d="M118.2,91.9c-0.2,0-0.3,0-0.5-0.1c-18.3-7.1-35.9-0.1-36,0c-0.6,0.3-1.4,0-1.6-0.7c-0.3-0.6,0-1.4,0.7-1.6
				c0.8-0.3,18.6-7.5,37.9,0c0.6,0.2,1,1,0.7,1.6C119.2,91.6,118.7,91.9,118.2,91.9z"/>
		</g>
		<g>
			<path class="st0" d="M99.5,114.3c-10.8,0-17.9-2.8-18.3-2.9c-0.6-0.3-1-1-0.7-1.6c0.3-0.6,1-1,1.6-0.7c0.2,0.1,15.9,6.1,35.7,0
				c0.7-0.2,1.4,0.2,1.6,0.8c0.2,0.7-0.2,1.4-0.8,1.6C111.5,113.5,105.1,114.3,99.5,114.3z"/>
		</g>
		<g>
			<path class="st0" d="M106.4,121c-0.3,0-0.6-0.1-0.8-0.3c-0.5-0.5-0.6-1.2-0.1-1.8l0,0c0.5-0.6,13.1-15.6-0.1-37.9
				c-0.4-0.6-0.2-1.4,0.4-1.7s1.4-0.2,1.7,0.4c14.2,23.9,0,40.7-0.1,40.8C107.1,120.9,106.7,121,106.4,121z"/>
		</g>
		<g>
			<path class="st0" d="M93.7,121c-0.4,0-0.8-0.2-1.1-0.6c-14.2-23.9,0-40.7,0.1-40.8c0.5-0.5,1.2-0.6,1.8-0.1
				c0.5,0.5,0.6,1.2,0.1,1.8l0,0c-0.5,0.6-13.1,15.6,0.1,37.9c0.4,0.6,0.2,1.4-0.4,1.7C94.1,120.9,93.9,121,93.7,121z"/>
		</g>
		<g>
			<path class="st0" d="M99.9,122.2c-0.7,0-1.2-0.6-1.2-1.2V79c0-0.7,0.6-1.2,1.2-1.2s1.2,0.6,1.2,1.2V121
				C101.2,121.7,100.6,122.2,99.9,122.2z"/>
		</g>
	</g>
</g>
</svg>
