<?xml version="1.0" encoding="utf-8"?>
<!-- Generator: Adobe Illustrator 26.3.1, SVG Export Plug-In . SVG Version: 6.00 Build 0)  -->
<svg version="1.1" id="Layer_1" xmlns="http://www.w3.org/2000/svg" xmlns:xlink="http://www.w3.org/1999/xlink" x="0px" y="0px"
	 viewBox="0 0 200 200" style="enable-background:new 0 0 200 200;" xml:space="preserve">
<style type="text/css">
	.st0{fill:#0067FC;}
</style>
<g>
	<g>
		<g id="Group_263_00000137131220765974912240000016796102861386825905_" transform="translate(-598.5 -520.001)">
			<g id="Group_259_00000127029117199131697590000006843385655939102088_" transform="translate(549.903 487.744)">
				<g id="Ellipse_9_00000129185638677403813290000014826892420138289306_">
					<path class="st0" d="M148.6,118.2c-5.1,0-9.3-4.2-9.3-9.3c0-5.1,4.2-9.3,9.3-9.3s9.3,4.2,9.3,9.3
						C157.9,114,153.8,118.2,148.6,118.2z M148.6,102.1c-3.8,0-6.8,3.1-6.8,6.8c0,3.8,3.1,6.8,6.8,6.8c3.8,0,6.8-3.1,6.8-6.8
						C155.4,105.1,152.4,102.1,148.6,102.1z"/>
				</g>
				<g id="Path_16_00000013159119950039341050000004357718403576740538_">
					<path class="st0" d="M161.7,133.5c-0.7,0-1.2-0.6-1.2-1.2c0-6.6-5.3-11.9-11.9-11.9s-11.9,5.3-11.9,11.9c0,0.7-0.6,1.2-1.2,1.2
						s-1.2-0.6-1.2-1.2c0-7.9,6.5-14.4,14.4-14.4c7.9,0,14.4,6.5,14.4,14.4C163,132.9,162.4,133.5,161.7,133.5z"/>
				</g>
			</g>
		</g>
	</g>
	<g>
		<path class="st0" d="M110.9,137.2H82.3c-0.7,0-1.2-0.6-1.2-1.2V127c0-0.7,0.6-1.2,1.2-1.2h28.6c0.7,0,1.2,0.6,1.2,1.2v8.9
			C112.2,136.6,111.6,137.2,110.9,137.2z M83.6,134.7h26.1v-6.4H83.6V134.7z"/>
	</g>
	<g>
		<g>
			<path class="st0" d="M117.1,143.2h-42c-3,0-5.5-2.5-5.5-5.5V62.2c0-3,2.5-5.5,5.5-5.5h49.8c3,0,5.5,2.5,5.5,5.5v66.3
				c0,0.3-0.1,0.6-0.3,0.8l-12.1,13.5C117.8,143.1,117.5,143.2,117.1,143.2z M72.1,93.2v44.6c0,1.7,1.3,3,3,3h41.5l11.4-12.8V62.2
				c0-1.7-1.3-3-3-3H75.1c-1.7,0-3,1.3-3,3V93.2z"/>
		</g>
		<g>
			<path class="st0" d="M116.1,142.8c-0.7,0-1.2-0.6-1.2-1.2v-8.8c0-3,2.5-5.5,5.5-5.5h8.8c0.7,0,1.2,0.6,1.2,1.2s-0.6,1.2-1.2,1.2
				h-8.8c-1.7,0-3,1.3-3,3v8.8C117.4,142.2,116.8,142.8,116.1,142.8z"/>
		</g>
	</g>
	<g>
		<g>
			<path class="st0" d="M117.7,107.3h-27c-0.7,0-1.2-0.6-1.2-1.2s0.6-1.2,1.2-1.2h27c0.7,0,1.2,0.6,1.2,1.2S118.4,107.3,117.7,107.3
				z"/>
		</g>
		<g>
			<path class="st0" d="M117.7,114.4h-27c-0.7,0-1.2-0.6-1.2-1.2s0.6-1.2,1.2-1.2h27c0.7,0,1.2,0.6,1.2,1.2S118.4,114.4,117.7,114.4
				z"/>
		</g>
		<g>
			<path class="st0" d="M107.7,121.4h-17c-0.7,0-1.2-0.6-1.2-1.2s0.6-1.2,1.2-1.2h17c0.7,0,1.2,0.6,1.2,1.2S108.4,121.4,107.7,121.4
				z"/>
		</g>
		<g>
			<path class="st0" d="M83.7,108.7c-0.3,0-0.6-0.1-0.9-0.4l-1.4-1.4c-0.5-0.5-0.5-1.3,0-1.8c0.5-0.5,1.3-0.5,1.8,0l0.5,0.5l1.9-1.9
				c0.5-0.5,1.3-0.5,1.8,0s0.5,1.3,0,1.8l-2.8,2.8C84.4,108.6,84.1,108.7,83.7,108.7z"/>
		</g>
		<g>
			<path class="st0" d="M83.7,115.8L83.7,115.8c-0.3,0-0.6-0.1-0.9-0.4l-1.4-1.4c-0.5-0.5-0.5-1.3,0-1.8s1.3-0.5,1.8,0l0.5,0.5
				l1.9-1.9c0.5-0.5,1.3-0.5,1.8,0s0.5,1.3,0,1.8l-2.8,2.8C84.4,115.6,84.1,115.8,83.7,115.8z"/>
		</g>
		<g>
			<path class="st0" d="M83.7,122.2L83.7,122.2c-0.3,0-0.6-0.1-0.9-0.4l-1.4-1.4c-0.5-0.5-0.5-1.3,0-1.8s1.3-0.5,1.8,0l0.5,0.5
				l1.9-1.9c0.5-0.5,1.3-0.5,1.8,0s0.5,1.3,0,1.8l-2.8,2.8C84.4,122.1,84.1,122.2,83.7,122.2z"/>
		</g>
	</g>
	<g>
		<path class="st0" d="M100,172.7c-40.1,0-72.7-32.6-72.7-72.7S59.9,27.3,100,27.3s72.7,32.6,72.7,72.7S140.1,172.7,100,172.7z
			 M100,31.3c-37.9,0-68.7,30.8-68.7,68.7c0,37.9,30.8,68.7,68.7,68.7c37.9,0,68.7-30.8,68.7-68.7C168.7,62.1,137.9,31.3,100,31.3z"
			/>
	</g>
	<g>
		<path class="st0" d="M97.6,132.7h-11c-0.7,0-1.2-0.6-1.2-1.2s0.6-1.2,1.2-1.2h11c0.7,0,1.2,0.6,1.2,1.2S98.3,132.7,97.6,132.7z"/>
	</g>
</g>
</svg>
