<?xml version="1.0" encoding="utf-8"?>
<!-- Generator: Adobe Illustrator 26.3.1, SVG Export Plug-In . SVG Version: 6.00 Build 0)  -->
<svg version="1.1" id="Layer_1" xmlns="http://www.w3.org/2000/svg" xmlns:xlink="http://www.w3.org/1999/xlink" x="0px" y="0px"
	 viewBox="0 0 200 200" style="enable-background:new 0 0 200 200;" xml:space="preserve">
<style type="text/css">
	.st0{fill:#0067FC;}
</style>
<g>
	<g>
		<g>
			<path class="st0" d="M87.8,125.2c-5.8,0-10.6-4.8-10.6-10.6S82,104,87.8,104c0.7,0,1.2,0.6,1.2,1.2v8.1h8.1
				c0.7,0,1.2,0.6,1.2,1.2C98.4,120.5,93.7,125.2,87.8,125.2z M86.6,106.6c-3.9,0.6-6.9,4-6.9,8c0,4.5,3.6,8.1,8.1,8.1
				c4,0,7.4-3,8-6.9h-8c-0.7,0-1.2-0.6-1.2-1.2V106.6z"/>
		</g>
		<g>
			<path class="st0" d="M90,102.8v9.4h9.4C99.4,107,95.2,102.8,90,102.8z"/>
		</g>
	</g>
	<g>
		<g>
			<path class="st0" d="M117.1,143.3h-42c-3,0-5.5-2.5-5.5-5.5V62.2c0-3,2.5-5.5,5.5-5.5h49.8c3,0,5.5,2.5,5.5,5.5v66.3
				c0,0.3-0.1,0.6-0.3,0.8L118,142.9C117.8,143.1,117.5,143.3,117.1,143.3z M72.1,93.2v44.6c0,1.7,1.3,3,3,3h41.5l11.4-12.8V62.2
				c0-1.7-1.3-3-3-3H75.1c-1.7,0-3,1.3-3,3V93.2z"/>
		</g>
		<g>
			<path class="st0" d="M116.1,142.8c-0.7,0-1.2-0.6-1.2-1.2v-8.8c0-3,2.5-5.5,5.5-5.5h8.8c0.7,0,1.2,0.6,1.2,1.2s-0.6,1.2-1.2,1.2
				h-8.8c-1.7,0-3,1.3-3,3v8.8C117.4,142.3,116.8,142.8,116.1,142.8z"/>
		</g>
	</g>
	<g>
		<g>
			<path class="st0" d="M121.8,111.2h-11c-0.7,0-1.2-0.6-1.2-1.2s0.6-1.2,1.2-1.2h11c0.7,0,1.2,0.6,1.2,1.2S122.5,111.2,121.8,111.2
				z"/>
		</g>
		<g>
			<path class="st0" d="M121.8,118.2h-11c-0.7,0-1.2-0.6-1.2-1.2s0.6-1.2,1.2-1.2h11c0.7,0,1.2,0.6,1.2,1.2S122.5,118.2,121.8,118.2
				z"/>
		</g>
		<g>
			<path class="st0" d="M117.8,125.2h-7c-0.7,0-1.2-0.6-1.2-1.2s0.6-1.2,1.2-1.2h7c0.7,0,1.2,0.6,1.2,1.2S118.5,125.2,117.8,125.2z"
				/>
		</g>
		<g>
			<path class="st0" d="M103.8,112.6L103.8,112.6c-0.3,0-0.6-0.1-0.9-0.4l-1.4-1.4c-0.5-0.5-0.5-1.3,0-1.8c0.5-0.5,1.3-0.5,1.8,0
				l0.5,0.5l1.9-1.9c0.5-0.5,1.3-0.5,1.8,0s0.5,1.3,0,1.8l-2.8,2.8C104.5,112.5,104.2,112.6,103.8,112.6z"/>
		</g>
		<g>
			<path class="st0" d="M103.8,119.6L103.8,119.6c-0.3,0-0.6-0.1-0.9-0.4l-1.4-1.4c-0.5-0.5-0.5-1.3,0-1.8c0.5-0.5,1.3-0.5,1.8,0
				l0.5,0.5l1.9-1.9c0.5-0.5,1.3-0.5,1.8,0s0.5,1.3,0,1.8l-2.8,2.8C104.5,119.5,104.2,119.6,103.8,119.6z"/>
		</g>
		<g>
			<path class="st0" d="M103.8,126.1L103.8,126.1c-0.3,0-0.6-0.1-0.9-0.4l-1.4-1.4c-0.5-0.5-0.5-1.3,0-1.8c0.5-0.5,1.3-0.5,1.8,0
				l0.5,0.5l1.9-1.9c0.5-0.5,1.3-0.5,1.8,0s0.5,1.3,0,1.8l-2.8,2.8C104.5,126,104.2,126.1,103.8,126.1z"/>
		</g>
	</g>
	<g>
		<path class="st0" d="M100,172.7c-40.1,0-72.7-32.6-72.7-72.7S59.9,27.3,100,27.3s72.7,32.6,72.7,72.7S140.1,172.7,100,172.7z
			 M100,31.3c-37.9,0-68.7,30.8-68.7,68.7c0,37.9,30.8,68.7,68.7,68.7c37.9,0,68.7-30.8,68.7-68.7C168.7,62.1,137.9,31.3,100,31.3z"
			/>
	</g>
	<g>
		<path class="st0" d="M91.3,79c-0.5,0-1-0.1-1.5-0.2c-1.4-0.4-2.6-1.3-3.4-2.6c-0.7-1.3-0.9-2.8-0.5-4.2s1.3-2.6,2.6-3.4
			c1.3-0.7,2.8-0.9,4.2-0.5c1.4,0.4,2.6,1.3,3.4,2.6l0,0c0.7,1.3,0.9,2.8,0.5,4.2c-0.4,1.4-1.3,2.6-2.6,3.4
			C93.1,78.8,92.2,79,91.3,79z M91.3,70.4c-0.5,0-1,0.1-1.5,0.4c-1.5,0.8-2,2.7-1.2,4.2c0.4,0.7,1.1,1.2,1.8,1.4
			c0.8,0.2,1.6,0.1,2.3-0.3c0.7-0.4,1.2-1.1,1.5-1.8c0.2-0.8,0.1-1.6-0.3-2.3l0,0c-0.4-0.7-1.1-1.2-1.8-1.4
			C91.8,70.4,91.5,70.4,91.3,70.4z"/>
	</g>
	<g>
		<path class="st0" d="M111.4,79.8c-0.5,0-1-0.1-1.5-0.2c-1.4-0.4-2.6-1.3-3.4-2.6c-0.7-1.3-0.9-2.8-0.5-4.2s1.3-2.6,2.6-3.4
			c1.3-0.7,2.8-0.9,4.2-0.5c1.4,0.4,2.6,1.3,3.4,2.6s0.9,2.8,0.5,4.2c-0.4,1.4-1.3,2.6-2.6,3.4C113.3,79.6,112.3,79.8,111.4,79.8z
			 M111.4,71.2c-0.5,0-1,0.1-1.5,0.4c-1.5,0.8-2,2.7-1.2,4.2c0.4,0.7,1.1,1.2,1.8,1.4c0.8,0.2,1.6,0.1,2.3-0.3
			c0.7-0.4,1.2-1.1,1.4-1.8s0.1-1.6-0.3-2.3l0,0c-0.4-0.7-1.1-1.2-1.8-1.4C111.9,71.2,111.7,71.2,111.4,71.2z"/>
	</g>
	<g>
		<path class="st0" d="M115.6,97.8c-1.9,0-3.8-1-4.9-2.8c-1.5-2.7-0.6-6.1,2.1-7.6c2.7-1.5,6.1-0.6,7.6,2.1c0,0,0,0,0,0
			c1.5,2.7,0.6,6.1-2.1,7.6C117.4,97.5,116.5,97.8,115.6,97.8z M115.5,89.1c-0.5,0-1,0.1-1.5,0.4c-1.5,0.8-2,2.7-1.2,4.2
			c0.8,1.5,2.7,2,4.2,1.2c1.5-0.8,2-2.7,1.2-4.2l0,0C117.7,89.7,116.6,89.1,115.5,89.1z"/>
	</g>
	<g>
		<path class="st0" d="M82.8,97c-0.5,0-1-0.1-1.5-0.2c-1.4-0.4-2.6-1.3-3.4-2.6c-0.7-1.3-0.9-2.8-0.5-4.2c0.4-1.4,1.3-2.6,2.6-3.4
			c1.3-0.7,2.8-0.9,4.2-0.5c1.4,0.4,2.6,1.3,3.4,2.6l0,0c0.7,1.3,0.9,2.8,0.5,4.2c-0.4,1.4-1.3,2.6-2.6,3.4
			C84.7,96.8,83.7,97,82.8,97z M82.8,88.4c-0.5,0-1,0.1-1.5,0.4c-0.7,0.4-1.2,1.1-1.4,1.8s-0.1,1.6,0.3,2.3c0.8,1.5,2.7,2,4.2,1.2
			c0.7-0.4,1.2-1.1,1.4-1.8s0.1-1.6-0.3-2.3c0,0,0,0,0,0C84.9,88.9,83.9,88.4,82.8,88.4z"/>
	</g>
	<g>
		<path class="st0" d="M100,95.7c-3.1,0-5.6-2.5-5.6-5.6s2.5-5.6,5.6-5.6c3.1,0,5.6,2.5,5.6,5.6S103.1,95.7,100,95.7z M100,87.1
			c-1.7,0-3.1,1.4-3.1,3.1c0,1.7,1.4,3.1,3.1,3.1c1.7,0,3.1-1.4,3.1-3.1C103.1,88.4,101.7,87.1,100,87.1z"/>
	</g>
	<g>
		<path class="st0" d="M103.5,87.5c-0.3,0-0.5-0.1-0.8-0.3c-0.5-0.4-0.7-1.2-0.2-1.8l5.6-7.3c0.4-0.5,1.2-0.7,1.8-0.2
			c0.5,0.4,0.7,1.2,0.2,1.8l-5.6,7.3C104.2,87.4,103.8,87.5,103.5,87.5z"/>
	</g>
	<g>
		<path class="st0" d="M87.5,92.3c-0.6,0-1.2-0.5-1.2-1.1c-0.1-0.7,0.4-1.3,1.1-1.4l7.2-0.7c0.7-0.1,1.3,0.4,1.4,1.1
			s-0.4,1.3-1.1,1.4l-7.2,0.7C87.6,92.3,87.6,92.3,87.5,92.3z"/>
	</g>
	<g>
		<path class="st0" d="M97.7,87.1c-0.4,0-0.8-0.2-1.1-0.6l-4.9-8.3c-0.4-0.6-0.2-1.4,0.4-1.7c0.6-0.4,1.4-0.2,1.7,0.4l4.9,8.3
			c0.4,0.6,0.2,1.4-0.4,1.7C98.2,87,98,87.1,97.7,87.1z"/>
	</g>
	<g>
		<path class="st0" d="M111.7,93.5c-0.1,0-0.1,0-0.2,0l-6.6-1c-0.7-0.1-1.2-0.7-1-1.4c0.1-0.7,0.7-1.2,1.4-1l6.6,1
			c0.7,0.1,1.2,0.7,1,1.4C112.8,93,112.3,93.5,111.7,93.5z"/>
	</g>
</g>
</svg>
