<?xml version="1.0" encoding="utf-8"?>
<!-- Generator: Adobe Illustrator 26.3.1, SVG Export Plug-In . SVG Version: 6.00 Build 0)  -->
<svg version="1.1" id="Layer_1" xmlns="http://www.w3.org/2000/svg" xmlns:xlink="http://www.w3.org/1999/xlink" x="0px" y="0px"
	 viewBox="0 0 200 200" style="enable-background:new 0 0 200 200;" xml:space="preserve">
<style type="text/css">
	.st0{fill:#0067FC;}
	.st1{fill:none;stroke:#0067FC;stroke-width:2.5;stroke-linecap:round;stroke-linejoin:round;stroke-miterlimit:10;}
</style>
<g>
	<g id="Group_263_00000140736702536107606810000014472494036475719308_" transform="translate(-598.5 -520.001)">
		<g id="Group_259_00000101105036211825058100000013377963600148550065_" transform="translate(549.903 487.744)">
			<g id="Ellipse_9_00000123440244124199509170000004747755037615178629_">
				<path class="st0" d="M176.9,135.5c-2.8,0-5.2-2.3-5.2-5.2s2.3-5.2,5.2-5.2s5.2,2.3,5.2,5.2S179.7,135.5,176.9,135.5z
					 M176.9,127.7c-1.5,0-2.7,1.2-2.7,2.7s1.2,2.7,2.7,2.7s2.7-1.2,2.7-2.7S178.3,127.7,176.9,127.7z"/>
			</g>
			<g id="Path_16_00000074423597101848955740000002850614542588261020_">
				<path class="st0" d="M183.2,146.2c-0.7,0-1.2-0.6-1.2-1.2c0-2.8-2.3-5.1-5.1-5.1s-5.1,2.3-5.1,5.1c0,0.7-0.6,1.2-1.2,1.2
					s-1.2-0.6-1.2-1.2c0-4.2,3.4-7.6,7.6-7.6s7.6,3.4,7.6,7.6C184.5,145.6,183.9,146.2,183.2,146.2z"/>
			</g>
		</g>
	</g>
	<g>
		<path class="st0" d="M119.6,78.6c-0.7,0-1.2-0.6-1.2-1.2v-6.1H82.5v6.1c0,0.7-0.6,1.2-1.2,1.2S80,78,80,77.3V70
			c0-0.7,0.6-1.2,1.2-1.2h38.4c0.7,0,1.2,0.6,1.2,1.2v7.4C120.9,78,120.3,78.6,119.6,78.6z"/>
	</g>
	<g>
		<path class="st1" d="M100.4,81.4"/>
	</g>
	<g>
		<path class="st0" d="M100.4,92.1c-0.7,0-1.2-0.6-1.2-1.2V77.5c0-0.7,0.6-1.2,1.2-1.2c0.7,0,1.3,0.6,1.3,1.2v13.4
			C101.7,91.5,101.1,92.1,100.4,92.1z"/>
	</g>
	<g>
		<path class="st0" d="M107.1,83.5c-0.3,0-0.6-0.1-0.9-0.4l-5.8-5.8L94.7,83c-0.5,0.5-1.3,0.5-1.8,0s-0.5-1.3,0-1.8l6.6-6.6
			c0.5-0.5,1.3-0.5,1.8,0l6.7,6.7c0.5,0.5,0.5,1.3,0,1.8C107.7,83.4,107.4,83.5,107.1,83.5z"/>
	</g>
	<g>
		<g>
			<path class="st0" d="M116.2,143.3h-42c-3,0-5.5-2.5-5.5-5.5V90c0-0.7,0.6-1.2,1.2-1.2s1.2,0.6,1.2,1.2v47.7c0,1.7,1.3,3,3,3h41.5
				L127,128v-7c0-0.7,0.6-1.2,1.2-1.2s1.2,0.6,1.2,1.2v7.4c0,0.3-0.1,0.6-0.3,0.8l-12.1,13.5C116.9,143.1,116.6,143.3,116.2,143.3z"
				/>
		</g>
		<g>
			<path class="st0" d="M69.9,94.4c-0.7,0-1.2-0.6-1.2-1.2v-31c0-3,2.5-5.5,5.5-5.5H124c3,0,5.5,2.5,5.5,5.5v22.6
				c0,0.7-0.6,1.2-1.2,1.2s-1.2-0.6-1.2-1.2V62.2c0-1.7-1.3-3-3-3H74.2c-1.7,0-3,1.3-3,3v31C71.2,93.9,70.6,94.4,69.9,94.4z"/>
		</g>
		<g>
			<path class="st0" d="M115.2,142.8c-0.7,0-1.2-0.6-1.2-1.2v-8.8c0-3,2.5-5.5,5.5-5.5h8.8c0.7,0,1.2,0.6,1.2,1.2s-0.6,1.2-1.2,1.2
				h-8.8c-1.7,0-3,1.3-3,3v8.8C116.5,142.3,115.9,142.8,115.2,142.8z"/>
		</g>
		<g>
			<path class="st0" d="M128.3,121.6c-10,0-18.2-8.2-18.2-18.2c0-10,8.2-18.2,18.2-18.2s18.2,8.2,18.2,18.2
				C146.5,113.5,138.3,121.6,128.3,121.6z M128.3,87.6c-8.7,0-15.9,7.1-15.9,15.9s7.1,15.9,15.9,15.9s15.9-7.1,15.9-15.9
				S137,87.6,128.3,87.6z"/>
		</g>
	</g>
	<g>
		<g>
			<g>
				<path class="st0" d="M83.4,112.2c-0.3,0-0.6-0.1-0.8-0.4c-0.9-1.2-9.1-12-9.1-17.2c0-5.5,4.4-9.9,9.9-9.9s9.9,4.4,9.9,9.9
					c0,5.1-8.2,15.9-9.1,17.2C84,112.1,83.7,112.2,83.4,112.2z M83.4,86.8c-4.3,0-7.9,3.5-7.9,7.9c0,3.4,5.1,11,7.9,14.8
					c2.8-3.8,7.9-11.4,7.9-14.8C91.3,90.4,87.7,86.8,83.4,86.8z"/>
			</g>
			<g>
				<path class="st0" d="M83.4,98.9c-2.7,0-4.9-2.2-4.9-4.9s2.2-4.9,4.9-4.9s4.9,2.2,4.9,4.9S86.1,98.9,83.4,98.9z M83.4,91.2
					c-1.6,0-2.8,1.3-2.8,2.8c0,1.6,1.3,2.8,2.8,2.8c1.6,0,2.8-1.3,2.8-2.8C86.2,92.5,85,91.2,83.4,91.2z"/>
			</g>
		</g>
		<g>
			<g>
				<path class="st0" d="M105.7,133.6c-0.2,0-0.4-0.1-0.5-0.3c-0.6-0.8-5.9-7.9-5.9-11.2c0-3.6,2.9-6.5,6.5-6.5
					c3.6,0,6.5,2.9,6.5,6.5c0,3.3-5.3,10.4-5.9,11.2C106.1,133.5,105.9,133.6,105.7,133.6z M105.7,117c-2.8,0-5.1,2.3-5.1,5.1
					c0,2.2,3.3,7.2,5.1,9.7c1.8-2.5,5.1-7.5,5.1-9.7C110.8,119.3,108.5,117,105.7,117z"/>
			</g>
			<g>
				<path class="st0" d="M105.7,124.9c-1.8,0-3.2-1.4-3.2-3.2c0-1.8,1.4-3.2,3.2-3.2c1.8,0,3.2,1.4,3.2,3.2
					C108.9,123.5,107.4,124.9,105.7,124.9z M105.7,119.8c-1,0-1.9,0.8-1.9,1.9c0,1,0.8,1.8,1.9,1.8c1,0,1.8-0.8,1.8-1.8
					C107.5,120.7,106.7,119.8,105.7,119.8z"/>
			</g>
		</g>
		<g>
			<path class="st0" d="M98.4,134.2c-1.3-0.1-2.4-0.7-3.1-1.7c-0.7-1-0.9-2.2-0.5-3.4c0.1-0.3,0-0.7-0.2-1s-0.5-0.5-0.9-0.5
				l-2.8-0.1c-1.3-0.1-2.3-0.8-2.8-2c-0.5-1.2-0.2-2.5,0.6-3.4c0.1-0.2,0.1-0.3,0.1-0.4c0-0.1-0.1-0.2-0.3-0.3l-4.6-0.7
				c-0.8-0.1-1.5-0.6-2-1.3c-0.4-0.7-0.5-1.5-0.3-2.3l0.5-3.1l0.2-2.2c0-0.6,0.5-1,1.1-0.9c0.6,0,1,0.5,0.9,1.1l-0.2,2.3l-0.6,3.3
				c0,0.1,0,0.1,0,0.2c-0.1,0.2,0,0.4,0.1,0.6c0.1,0.1,0.2,0.3,0.5,0.3l4.6,0.7c0.9,0.1,1.6,0.8,1.9,1.6c0.3,0.9,0.1,1.8-0.5,2.5
				c-0.3,0.3-0.4,0.8-0.2,1.2c0.2,0.4,0.6,0.7,1,0.7l2.8,0.1c1,0.1,1.9,0.5,2.5,1.4c0.6,0.8,0.7,1.8,0.5,2.8
				c-0.2,0.5-0.1,1.1,0.3,1.6c0.3,0.5,0.8,0.8,1.4,0.8l7.2-0.2c0,0,0,0,0,0c0.6,0,1,0.4,1,1c0,0.6-0.4,1-1,1.1L98.4,134.2z"/>
		</g>
	</g>
	<g>
		<path class="st0" d="M100,172.7c-40.1,0-72.7-32.6-72.7-72.7S59.9,27.3,100,27.3s72.7,32.6,72.7,72.7S140.1,172.7,100,172.7z
			 M100,31.3c-37.9,0-68.7,30.8-68.7,68.7c0,37.9,30.8,68.7,68.7,68.7c37.9,0,68.7-30.8,68.7-68.7C168.7,62.1,137.9,31.3,100,31.3z"
			/>
	</g>
</g>
</svg>
