<?xml version="1.0" encoding="utf-8"?>
<!-- Generator: Adobe Illustrator 26.3.1, SVG Export Plug-In . SVG Version: 6.00 Build 0)  -->
<svg version="1.1" id="Layer_1" xmlns="http://www.w3.org/2000/svg" xmlns:xlink="http://www.w3.org/1999/xlink" x="0px" y="0px"
	 viewBox="0 0 200 200" style="enable-background:new 0 0 200 200;" xml:space="preserve">
<style type="text/css">
	.st0{fill:#0067FC;}
</style>
<g>
	<g>
		<g>
			<g>
				<path class="st0" d="M117.5,107.8c-10.1,0-18.3-8.2-18.3-18.3c0-10.1,8.2-18.3,18.3-18.3s18.3,8.2,18.3,18.3
					C135.8,99.6,127.6,107.8,117.5,107.8z M117.5,73.7c-8.7,0-15.8,7.1-15.8,15.8c0,8.7,7.1,15.8,15.8,15.8s15.8-7.1,15.8-15.8
					C133.3,80.8,126.2,73.7,117.5,73.7z"/>
			</g>
		</g>
		<g id="Group_263_00000010294426776271656400000006817029171464081837_" transform="translate(-598.5 -520.001)">
			<g id="Group_259_00000031899479404213586600000013594210943454364299_" transform="translate(549.903 487.744)">
				<g id="Ellipse_9_00000097496974670394508730000001562387200402597054_">
					<path class="st0" d="M166.1,121.6c-2.9,0-5.2-2.3-5.2-5.2s2.3-5.2,5.2-5.2c2.9,0,5.2,2.3,5.2,5.2S168.9,121.6,166.1,121.6z
						 M166.1,113.7c-1.5,0-2.7,1.2-2.7,2.7c0,1.5,1.2,2.7,2.7,2.7s2.7-1.2,2.7-2.7C168.8,114.9,167.5,113.7,166.1,113.7z"/>
				</g>
				<g id="Path_16_00000095303695575781334090000000032101259203427989_">
					<path class="st0" d="M172.5,132.3c-0.7,0-1.2-0.6-1.2-1.2c0-2.8-2.3-5.2-5.2-5.2s-5.2,2.3-5.2,5.2c0,0.7-0.6,1.2-1.2,1.2
						s-1.2-0.6-1.2-1.2c0-4.2,3.4-7.7,7.7-7.7s7.7,3.4,7.7,7.7C173.7,131.7,173.2,132.3,172.5,132.3z"/>
				</g>
			</g>
		</g>
		<g>
			<g>
				<g>
					<path class="st0" d="M80.1,111.2c-0.4,0-0.8-0.2-1-0.5c-0.5-0.7-12.9-17-12.9-24.3c0-7.7,6.2-13.9,13.9-13.9S94,78.7,94,86.4
						c0,7.3-12.4,23.6-12.9,24.3C80.9,111,80.5,111.2,80.1,111.2z M80.1,75c-6.3,0-11.4,5.1-11.4,11.4c0,4.9,7.5,16.1,11.4,21.5
						c3.9-5.3,11.4-16.5,11.4-21.5C91.5,80.1,86.4,75,80.1,75z"/>
				</g>
				<g>
					<path class="st0" d="M80.1,92.2c-3.7,0-6.8-3-6.8-6.8c0-3.7,3-6.8,6.8-6.8c3.7,0,6.8,3,6.8,6.8C86.9,89.2,83.8,92.2,80.1,92.2z
						 M80.1,81.2c-2.3,0-4.3,1.9-4.3,4.3c0,2.3,1.9,4.3,4.3,4.3c2.3,0,4.3-1.9,4.3-4.3C84.4,83.2,82.5,81.2,80.1,81.2z"/>
				</g>
			</g>
			<g>
				<g>
					<path class="st0" d="M111.9,142.1c-0.4,0-0.8-0.2-1-0.5c-0.9-1.1-8.5-11.3-8.5-16.2c0-5.3,4.3-9.5,9.5-9.5s9.5,4.3,9.5,9.5
						c0,4.9-7.7,15-8.5,16.2C112.6,141.9,112.3,142.1,111.9,142.1z M111.9,118.4c-3.9,0-7,3.2-7,7c0,3,4.4,9.7,7,13.3
						c2.6-3.6,7-10.3,7-13.3C118.9,121.6,115.7,118.4,111.9,118.4z"/>
				</g>
				<g>
					<path class="st0" d="M111.9,129.7c-2.7,0-4.8-2.2-4.8-4.8c0-2.7,2.2-4.8,4.8-4.8c2.7,0,4.8,2.2,4.8,4.8
						C116.7,127.5,114.5,129.7,111.9,129.7z M111.9,122.5c-1.3,0-2.3,1.1-2.3,2.3c0,1.3,1.1,2.3,2.3,2.3c1.3,0,2.3-1.1,2.3-2.3
						C114.2,123.6,113.2,122.5,111.9,122.5z"/>
				</g>
			</g>
			<g>
				<path class="st0" d="M101.4,142.4C101.4,142.4,101.4,142.4,101.4,142.4c-1.7-0.1-3.2-0.9-4.2-2.3c-0.9-1.4-1.2-3-0.7-4.6
					c0.2-0.6,0.1-1.2-0.3-1.6c-0.3-0.5-0.9-0.8-1.5-0.8l-4-0.2c-1.7-0.1-3.2-1.1-3.8-2.7s-0.3-3.4,0.8-4.6c0.3-0.3,0.2-0.7,0.2-0.8
					s-0.2-0.5-0.6-0.5l-6.5-1c-1.1-0.2-2.1-0.8-2.7-1.8c-0.6-0.9-0.7-2.1-0.4-3.1l0.8-4.4l0.3-3.2c0.1-0.7,0.7-1.2,1.3-1.1
					c0.7,0.1,1.2,0.7,1.1,1.3l-0.3,3.3c0,0,0,0.1,0,0.1l-0.8,4.6c0,0.1,0,0.1,0,0.2c-0.1,0.3-0.1,0.8,0.1,1.1
					c0.1,0.2,0.4,0.5,0.9,0.6l6.5,1c1.2,0.2,2.2,1,2.6,2.2s0.1,2.4-0.7,3.3c-0.5,0.6-0.6,1.3-0.4,2c0.3,0.7,0.9,1.1,1.6,1.2l4,0.2
					c1.4,0.1,2.6,0.7,3.4,1.9c0.8,1.1,1,2.5,0.6,3.8c-0.3,0.8-0.1,1.7,0.4,2.5c0.5,0.7,1.3,1.2,2.1,1.2l10.4-0.3
					c0.7,0,1.3,0.5,1.3,1.2c0,0.7-0.5,1.3-1.2,1.3L101.4,142.4C101.5,142.4,101.5,142.4,101.4,142.4z"/>
			</g>
		</g>
	</g>
	<g>
		<path class="st0" d="M100,172.7c-40.1,0-72.7-32.6-72.7-72.7S59.9,27.3,100,27.3s72.7,32.6,72.7,72.7S140.1,172.7,100,172.7z
			 M100,31.3c-37.9,0-68.7,30.8-68.7,68.7c0,37.9,30.8,68.7,68.7,68.7c37.9,0,68.7-30.8,68.7-68.7C168.7,62.1,137.9,31.3,100,31.3z"
			/>
	</g>
</g>
</svg>
