<?xml version="1.0" encoding="utf-8"?>
<!-- Generator: Adobe Illustrator 26.3.1, SVG Export Plug-In . SVG Version: 6.00 Build 0)  -->
<svg version="1.1" id="Layer_1" xmlns="http://www.w3.org/2000/svg" xmlns:xlink="http://www.w3.org/1999/xlink" x="0px" y="0px"
	 viewBox="0 0 200 200" style="enable-background:new 0 0 200 200;" xml:space="preserve">
<style type="text/css">
	.st0{fill:#0067FC;}
</style>
<g>
	<g id="Group_263_00000064324856495459211690000018294592735522161343_" transform="translate(-598.5 -520.001)">
		<g id="Group_259_00000148622309361834516390000003705189715772616104_" transform="translate(549.903 487.744)">
			<g id="Ellipse_9_00000047031109117064504320000013839745197024601777_">
				<path class="st0" d="M179.4,135.5c-2.9,0-5.3-2.4-5.3-5.3s2.4-5.3,5.3-5.3c2.9,0,5.3,2.4,5.3,5.3S182.4,135.5,179.4,135.5z
					 M179.4,127.4c-1.5,0-2.8,1.3-2.8,2.8s1.3,2.8,2.8,2.8c1.5,0,2.8-1.3,2.8-2.8S181,127.4,179.4,127.4z"/>
			</g>
			<g id="Path_16_00000020361835818979290390000016504779207036073911_">
				<path class="st0" d="M186.1,145.1c-0.7,0-1.2-0.6-1.2-1.2c0-3-2.4-5.4-5.4-5.4c-3,0-5.4,2.4-5.4,5.4c0,0.7-0.6,1.2-1.2,1.2
					s-1.2-0.6-1.2-1.2c0-4.3,3.5-7.9,7.9-7.9s7.9,3.5,7.9,7.9C187.3,144.6,186.7,145.1,186.1,145.1z"/>
			</g>
		</g>
	</g>
	<g>
		<g>
			<path class="st0" d="M118.2,143.3h-42c-3,0-5.5-2.5-5.5-5.5V90c0-0.7,0.6-1.2,1.2-1.2s1.2,0.6,1.2,1.2v47.7c0,1.7,1.3,3,3,3h41.5
				L129,128v-7c0-0.7,0.6-1.2,1.2-1.2s1.2,0.6,1.2,1.2v7.4c0,0.3-0.1,0.6-0.3,0.8l-12.1,13.5C118.9,143.1,118.6,143.3,118.2,143.3z"
				/>
		</g>
		<g>
			<path class="st0" d="M71.9,94.4c-0.7,0-1.2-0.6-1.2-1.2v-31c0-3,2.5-5.5,5.5-5.5H126c3,0,5.5,2.5,5.5,5.5v22.6
				c0,0.7-0.6,1.2-1.2,1.2s-1.2-0.6-1.2-1.2V62.2c0-1.7-1.3-3-3-3H76.2c-1.7,0-3,1.3-3,3v31C73.2,93.9,72.6,94.4,71.9,94.4z"/>
		</g>
		<g>
			<path class="st0" d="M117.2,142.8c-0.7,0-1.2-0.6-1.2-1.2v-8.8c0-3,2.5-5.5,5.5-5.5h8.8c0.7,0,1.2,0.6,1.2,1.2s-0.6,1.2-1.2,1.2
				h-8.8c-1.7,0-3,1.3-3,3v8.8C118.5,142.3,117.9,142.8,117.2,142.8z"/>
		</g>
		<g>
			<path class="st0" d="M130.3,121.6c-10,0-18.2-8.2-18.2-18.2c0-10,8.2-18.2,18.2-18.2s18.2,8.2,18.2,18.2
				C148.5,113.5,140.3,121.6,130.3,121.6z M130.3,87.6c-8.7,0-15.9,7.1-15.9,15.9s7.1,15.9,15.9,15.9s15.9-7.1,15.9-15.9
				S139,87.6,130.3,87.6z"/>
		</g>
	</g>
	<g>
		<g>
			<path class="st0" d="M119.8,80.7H80.2c-0.7,0-1.2-0.6-1.2-1.2v-8.9c0-0.7,0.6-1.2,1.2-1.2h39.6c0.7,0,1.2,0.6,1.2,1.2v8.9
				C121,80.2,120.5,80.7,119.8,80.7z M81.5,78.2h37.1v-6.4H81.5V78.2z"/>
		</g>
		<g>
			<path class="st0" d="M99.6,76.2H84.1c-0.7,0-1.2-0.6-1.2-1.2s0.6-1.2,1.2-1.2h15.4c0.7,0,1.2,0.6,1.2,1.2S100.3,76.2,99.6,76.2z"
				/>
		</g>
	</g>
	<g>
		<g>
			<g>
				<path class="st0" d="M86.7,114.6L86.7,114.6c-0.4,0-0.8-0.2-1-0.5c-0.9-1.2-9.1-12.1-9.1-17.3c0-5.6,4.5-10.1,10.1-10.1
					s10.1,4.5,10.1,10.1c0,5.2-8.2,16.1-9.1,17.3C87.5,114.4,87.1,114.6,86.7,114.6z M86.7,89.2c-4.2,0-7.6,3.4-7.6,7.6
					c0,3.2,4.8,10.6,7.6,14.4c2.8-3.8,7.6-11.2,7.6-14.4C94.4,92.6,90.9,89.2,86.7,89.2z"/>
			</g>
			<g>
				<path class="st0" d="M86.7,101.3c-2.8,0-5.1-2.3-5.1-5.1s2.3-5.1,5.1-5.1c2.8,0,5.1,2.3,5.1,5.1S89.5,101.3,86.7,101.3z
					 M86.7,93.6c-1.4,0-2.6,1.2-2.6,2.6s1.2,2.6,2.6,2.6c1.4,0,2.6-1.2,2.6-2.6S88.2,93.6,86.7,93.6z"/>
			</g>
		</g>
		<g>
			<g>
				<path class="st0" d="M109,136.3c-0.4,0-0.8-0.2-1-0.5c-0.6-0.8-6.1-8-6.1-11.6c0-3.9,3.2-7.1,7.1-7.1s7.1,3.2,7.1,7.1
					c0,3.5-5.4,10.8-6.1,11.6C109.8,136.1,109.4,136.3,109,136.3z M109,119.7c-2.5,0-4.6,2-4.6,4.6c0,1.7,2.5,5.8,4.6,8.7
					c2.1-2.9,4.6-7,4.6-8.7C113.6,121.7,111.5,119.7,109,119.7z"/>
			</g>
			<g>
				<circle class="st0" cx="109" cy="123.8" r="2.5"/>
			</g>
		</g>
		<g>
			<path class="st0" d="M101.7,136.5C101.7,136.5,101.6,136.5,101.7,136.5c-1.3-0.1-2.5-0.7-3.2-1.8c-0.7-1-0.9-2.3-0.6-3.6
				c0.1-0.4,0-0.7-0.1-0.8c-0.1-0.1-0.3-0.4-0.7-0.4l-2.8-0.1c-1.3-0.1-2.5-0.9-3-2.1c-0.5-1.2-0.3-2.6,0.6-3.6c0,0,0.1-0.1,0-0.2
				c0-0.1-0.1-0.1-0.1-0.1l-4.6-0.7c-0.9-0.1-1.7-0.7-2.1-1.4c-0.4-0.7-0.6-1.6-0.3-2.4l0.5-3.1l0.2-2.2c0.1-0.7,0.7-1.2,1.3-1.1
				c0.7,0.1,1.2,0.7,1.1,1.3l-0.2,2.3c0,0,0,0.1,0,0.1l-0.6,3.2c0,0.1,0,0.1,0,0.2c0,0.1,0,0.3,0.1,0.4c0.1,0.1,0.2,0.2,0.4,0.2
				l4.6,0.7c1,0.2,1.8,0.8,2.1,1.8s0.1,2-0.6,2.7c-0.4,0.4-0.2,0.8-0.2,1s0.3,0.6,0.8,0.6l2.8,0.1c1.1,0.1,2,0.6,2.6,1.5
				c0.6,0.9,0.8,2,0.5,3c-0.1,0.5-0.1,1,0.2,1.4c0.3,0.4,0.7,0.7,1.2,0.7l7.2-0.2c0.7,0,1.3,0.5,1.3,1.2s-0.5,1.3-1.2,1.3
				L101.7,136.5C101.7,136.5,101.7,136.5,101.7,136.5z"/>
		</g>
	</g>
	<g>
		<path class="st0" d="M100,172.7c-40.1,0-72.7-32.6-72.7-72.7S59.9,27.3,100,27.3s72.7,32.6,72.7,72.7S140.1,172.7,100,172.7z
			 M100,31.3c-37.9,0-68.7,30.8-68.7,68.7c0,37.9,30.8,68.7,68.7,68.7c37.9,0,68.7-30.8,68.7-68.7C168.7,62.1,137.9,31.3,100,31.3z"
			/>
	</g>
</g>
</svg>
