<?xml version="1.0" encoding="utf-8"?>
<!-- Generator: Adobe Illustrator 26.4.0, SVG Export Plug-In . SVG Version: 6.00 Build 0)  -->
<svg version="1.1" id="Layer_1" xmlns="http://www.w3.org/2000/svg" xmlns:xlink="http://www.w3.org/1999/xlink" x="0px" y="0px"
	 viewBox="0 0 200 200" style="enable-background:new 0 0 200 200;" xml:space="preserve">
<style type="text/css">
	.st0{fill:#0067FC;}
</style>
<g>
	<g>
		<g>
			<path class="st0" d="M105.8,79.2c-0.3,0-0.7-0.1-0.9-0.4l-5.2-5.2l-5.1,5.1c-0.5,0.5-1.3,0.5-1.8,0c-0.5-0.5-0.5-1.3,0-1.8l6-6
				c0.5-0.5,1.3-0.5,1.8,0l6.1,6.1c0.5,0.5,0.5,1.3,0,1.8C106.5,79.1,106.1,79.2,105.8,79.2z"/>
		</g>
		<g>
			<path class="st0" d="M99.9,85.3c-0.7,0-1.3-0.6-1.3-1.3V72.6c0-0.7,0.6-1.3,1.3-1.3s1.3,0.6,1.3,1.3v11.5
				C101.2,84.8,100.6,85.3,99.9,85.3z"/>
		</g>
		<g>
			<path class="st0" d="M116.9,75.1c-0.7,0-1.2-0.6-1.2-1.2v-6.6H84.3v6.6c0,0.7-0.6,1.2-1.2,1.2s-1.2-0.6-1.2-1.2v-7.9
				c0-0.7,0.6-1.2,1.2-1.2h33.8c0.7,0,1.2,0.6,1.2,1.2v7.9C118.2,74.5,117.6,75.1,116.9,75.1z"/>
		</g>
	</g>
	<g>
		<g id="Group_263_00000147199472951867714230000011995093733435224202_" transform="translate(-598.5 -520.001)">
			<g id="Group_259_00000176726895985637801620000008789639630958285450_" transform="translate(549.903 487.744)">
				<g id="Ellipse_9_00000164485751432382925490000010678710277160979879_">
					<path class="st0" d="M158,131.9c-4.1,0-7.4-3.3-7.4-7.4s3.3-7.4,7.4-7.4c4.1,0,7.4,3.3,7.4,7.4S162.1,131.9,158,131.9z
						 M158,119.1c-3,0-5.4,2.4-5.4,5.4s2.4,5.4,5.4,5.4s5.4-2.4,5.4-5.4S161,119.1,158,119.1z"/>
				</g>
				<g id="Path_16_00000049942003993161429190000014467026267713776271_">
					<path class="st0" d="M168.4,144.1c-0.6,0-1-0.5-1-1c0-5.2-4.2-9.4-9.4-9.4s-9.4,4.2-9.4,9.4c0,0.6-0.5,1-1,1s-1-0.5-1-1
						c0-6.3,5.1-11.5,11.5-11.5s11.5,5.1,11.5,11.5C169.5,143.6,169,144.1,168.4,144.1z"/>
				</g>
			</g>
		</g>
	</g>
	<g>
		<g>
			<path class="st0" d="M117.1,143.3h-42c-3,0-5.5-2.5-5.5-5.5V62.2c0-3,2.5-5.5,5.5-5.5h49.8c3,0,5.5,2.5,5.5,5.5v66.3
				c0,0.3-0.1,0.6-0.3,0.8L118,142.9C117.8,143.1,117.5,143.3,117.1,143.3z M72.1,93.2v44.6c0,1.7,1.3,3,3,3h41.5l11.4-12.8V62.2
				c0-1.7-1.3-3-3-3H75.1c-1.7,0-3,1.3-3,3V93.2z"/>
		</g>
		<g>
			<path class="st0" d="M116.1,142.8c-0.7,0-1.2-0.6-1.2-1.2v-8.8c0-3,2.5-5.5,5.5-5.5h8.8c0.7,0,1.2,0.6,1.2,1.2s-0.6,1.2-1.2,1.2
				h-8.8c-1.7,0-3,1.3-3,3v8.8C117.4,142.3,116.8,142.8,116.1,142.8z"/>
		</g>
	</g>
	<g>
		<g>
			<g>
				<path class="st0" d="M87.1,111c-0.3,0-0.6-0.1-0.8-0.4c-0.9-1.2-9.1-12-9.1-17.2c0-5.5,4.4-9.9,9.9-9.9s9.9,4.4,9.9,9.9
					c0,5.1-8.2,15.9-9.1,17.2C87.8,110.9,87.5,111,87.1,111z M87.1,85.6c-4.3,0-7.9,3.5-7.9,7.9c0,3.4,5.1,11,7.9,14.8
					c2.8-3.8,7.9-11.4,7.9-14.8C95,89.2,91.5,85.6,87.1,85.6z"/>
			</g>
			<g>
				<path class="st0" d="M87.1,97.8c-2.7,0-4.9-2.2-4.9-4.9s2.2-4.9,4.9-4.9s4.9,2.2,4.9,4.9S89.8,97.8,87.1,97.8z M87.1,90
					c-1.6,0-2.8,1.3-2.8,2.8c0,1.6,1.3,2.8,2.8,2.8c1.6,0,2.8-1.3,2.8-2.8C90,91.3,88.7,90,87.1,90z"/>
			</g>
		</g>
		<g>
			<g>
				<path class="st0" d="M109.4,132.4c-0.2,0-0.4-0.1-0.5-0.3c-0.6-0.8-5.9-7.9-5.9-11.2c0-3.6,2.9-6.5,6.5-6.5s6.5,2.9,6.5,6.5
					c0,3.3-5.3,10.4-5.9,11.2C109.8,132.3,109.6,132.4,109.4,132.4z M109.4,115.8c-2.8,0-5.1,2.3-5.1,5.1c0,2.2,3.3,7.2,5.1,9.7
					c1.8-2.5,5.1-7.5,5.1-9.7C114.5,118.1,112.2,115.8,109.4,115.8z"/>
			</g>
			<g>
				<path class="st0" d="M109.4,123.7c-1.8,0-3.2-1.4-3.2-3.2c0-1.8,1.4-3.2,3.2-3.2c1.8,0,3.2,1.4,3.2,3.2
					C112.6,122.3,111.2,123.7,109.4,123.7z M109.4,118.6c-1,0-1.8,0.8-1.8,1.8c0,1,0.8,1.9,1.8,1.9c1,0,1.9-0.8,1.9-1.9
					C111.3,119.5,110.4,118.6,109.4,118.6z"/>
			</g>
		</g>
		<g>
			<path class="st0" d="M102.1,133c-1.3-0.1-2.4-0.7-3.1-1.7c-0.7-1-0.9-2.2-0.5-3.4c0.1-0.3,0-0.7-0.2-1s-0.5-0.5-0.9-0.5l-2.8-0.1
				c-1.3-0.1-2.3-0.8-2.8-2c-0.5-1.2-0.2-2.5,0.6-3.4c0.1-0.2,0.1-0.3,0.1-0.4c0-0.1-0.1-0.2-0.3-0.3l-4.6-0.7
				c-0.8-0.1-1.5-0.6-2-1.3c-0.4-0.7-0.5-1.5-0.3-2.3l0.5-3.1l0.2-2.2c0-0.6,0.5-1,1.1-0.9c0.6,0,1,0.5,0.9,1.1L88,113l-0.6,3.3
				c0,0.1,0,0.1,0,0.2c-0.1,0.2,0,0.4,0.1,0.6c0.1,0.1,0.2,0.3,0.5,0.3l4.6,0.7c0.9,0.1,1.6,0.8,1.9,1.6c0.3,0.9,0.1,1.8-0.5,2.5
				c-0.3,0.3-0.4,0.8-0.2,1.2c0.2,0.4,0.6,0.7,1,0.7l2.8,0.1c1,0.1,1.9,0.5,2.5,1.4s0.7,1.8,0.5,2.8c-0.2,0.5-0.1,1.1,0.3,1.6
				c0.3,0.5,0.8,0.8,1.4,0.8l7.2-0.2c0,0,0,0,0,0c0.6,0,1,0.4,1,1c0,0.6-0.4,1-1,1.1L102.1,133z"/>
		</g>
	</g>
	<g>
		<path class="st0" d="M100,172.7c-40.1,0-72.7-32.6-72.7-72.7S59.9,27.3,100,27.3s72.7,32.6,72.7,72.7S140.1,172.7,100,172.7z
			 M100,31.3c-37.9,0-68.7,30.8-68.7,68.7c0,37.9,30.8,68.7,68.7,68.7c37.9,0,68.7-30.8,68.7-68.7C168.7,62.1,137.9,31.3,100,31.3z"
			/>
	</g>
</g>
</svg>
