<?xml version="1.0" encoding="utf-8"?>
<!-- Generator: Adobe Illustrator 26.3.1, SVG Export Plug-In . SVG Version: 6.00 Build 0)  -->
<svg version="1.1" id="Layer_1" xmlns="http://www.w3.org/2000/svg" xmlns:xlink="http://www.w3.org/1999/xlink" x="0px" y="0px"
	 viewBox="0 0 200 200" style="enable-background:new 0 0 200 200;" xml:space="preserve">
<style type="text/css">
	.st0{fill:#0067FC;}
</style>
<g>
	<g>
		<path class="st0" d="M100,172.7c-40.1,0-72.7-32.6-72.7-72.7S59.9,27.3,100,27.3s72.7,32.6,72.7,72.7S140.1,172.7,100,172.7z
			 M100,31.3c-37.9,0-68.7,30.8-68.7,68.7c0,37.9,30.8,68.7,68.7,68.7c37.9,0,68.7-30.8,68.7-68.7C168.7,62.1,137.9,31.3,100,31.3z"
			/>
	</g>
	<g>
		<g>
			<g id="Group_263_00000067946620282919378220000016494977625014471314_" transform="translate(-598.5 -520.001)">
				<g id="Group_259_00000034055664742116038940000001428753215934726055_" transform="translate(549.903 487.744)">
					<g id="Ellipse_9_00000138564506692109732110000017300583484245650571_">
						<path class="st0" d="M161.2,118.1c-7.5,0-13.6-6.1-13.6-13.6s6.1-13.6,13.6-13.6s13.6,6.1,13.6,13.6S168.7,118.1,161.2,118.1z
							 M161.2,93.4c-6.1,0-11.1,5-11.1,11.1s5,11.1,11.1,11.1s11.1-5,11.1-11.1S167.3,93.4,161.2,93.4z"/>
					</g>
					<g id="Path_16_00000101081661400795264370000012135397900999598999_">
						<path class="st0" d="M181.3,141.5c-0.7,0-1.2-0.6-1.2-1.2c0-10.4-8.5-18.9-18.9-18.9c-10.4,0-18.9,8.5-18.9,18.9
							c0,0.7-0.6,1.2-1.2,1.2s-1.2-0.6-1.2-1.2c0-11.8,9.6-21.4,21.4-21.4c11.8,0,21.4,9.6,21.4,21.4
							C182.6,141,182,141.5,181.3,141.5z"/>
					</g>
				</g>
			</g>
		</g>
		<g>
			<g>
				<g>
					<path class="st0" d="M78.9,103.2c-0.4,0-0.8-0.2-1-0.5C76.7,101.1,66,87,66,80.4c0-7.1,5.8-12.9,12.9-12.9s12.9,5.8,12.9,12.9
						c0,6.6-10.6,20.7-11.9,22.3C79.6,103,79.3,103.2,78.9,103.2z M78.9,70c-5.7,0-10.4,4.6-10.4,10.4c0,4.5,6.7,14.6,10.4,19.5
						c3.6-4.9,10.4-15,10.4-19.5C89.2,74.7,84.6,70,78.9,70z"/>
				</g>
				<g>
					<path class="st0" d="M78.9,85.9c-3.5,0-6.3-2.8-6.3-6.3s2.8-6.3,6.3-6.3s6.3,2.8,6.3,6.3S82.4,85.9,78.9,85.9z M78.9,75.8
						c-2.1,0-3.8,1.7-3.8,3.8s1.7,3.8,3.8,3.8s3.8-1.7,3.8-3.8S81,75.8,78.9,75.8z"/>
				</g>
			</g>
			<g>
				<g>
					<path class="st0" d="M108,131.5L108,131.5c-0.4,0-0.8-0.2-1-0.5c-0.8-1-7.8-10.4-7.8-14.9c0-4.9,4-8.8,8.8-8.8
						c4.9,0,8.8,4,8.8,8.8c0,4.5-7,13.8-7.8,14.9C108.7,131.4,108.4,131.5,108,131.5z M108,109.9c-3.5,0-6.3,2.8-6.3,6.3
						c0,2.4,3.6,8.2,6.3,12c2.8-3.8,6.3-9.6,6.3-12C114.3,112.7,111.5,109.9,108,109.9z"/>
				</g>
				<g>
					<path class="st0" d="M108,120.2c-2.5,0-4.5-2-4.5-4.5s2-4.5,4.5-4.5s4.5,2,4.5,4.5S110.5,120.2,108,120.2z M108,113.6
						c-1.1,0-2,0.9-2,2s0.9,2,2,2s2-0.9,2-2S109.1,113.6,108,113.6z"/>
				</g>
			</g>
			<g>
				<path class="st0" d="M98.4,131.8C98.4,131.8,98.4,131.8,98.4,131.8c-1.6-0.1-3-0.9-3.9-2.1c-0.9-1.3-1.1-2.8-0.7-4.3
					c0.1-0.5,0.1-1-0.2-1.4s-0.7-0.7-1.3-0.7l-3.6-0.2c-1.6-0.1-3-1.1-3.6-2.6s-0.3-3.2,0.8-4.3c0.2-0.2,0.2-0.5,0.1-0.6
					c0-0.1-0.2-0.4-0.5-0.4l-5.9-0.9c-1-0.2-2-0.8-2.5-1.7c-0.5-0.9-0.7-1.9-0.4-2.9l0.7-4.1l0.2-2.9c0.1-0.7,0.7-1.2,1.3-1.1
					c0.7,0.1,1.2,0.7,1.1,1.3l-0.2,3c0,0,0,0.1,0,0.1l-0.7,4.2c0,0.1,0,0.1,0,0.2c-0.1,0.3-0.1,0.6,0.1,0.9c0.1,0.2,0.3,0.4,0.7,0.5
					l5.9,0.9c1.1,0.2,2.1,1,2.5,2.1c0.4,1.1,0.1,2.3-0.6,3.1c-0.4,0.5-0.5,1.1-0.3,1.7c0.2,0.6,0.8,1,1.4,1l3.6,0.2
					c1.3,0.1,2.4,0.7,3.2,1.7c0.7,1,1,2.3,0.6,3.6c-0.2,0.7-0.1,1.5,0.4,2.2c0.4,0.6,1.1,1,1.9,1.1l9.5-0.3c0.7-0.1,1.3,0.5,1.3,1.2
					c0,0.7-0.5,1.3-1.2,1.3L98.4,131.8C98.5,131.8,98.4,131.8,98.4,131.8z"/>
			</g>
		</g>
		<g>
			<path class="st0" d="M98.4,141.4c-16.5,0-31.4-8.6-31.4-12.7c0-0.7,0.6-1.2,1.2-1.2c0.7,0,1.2,0.5,1.2,1.2
				c0.4,2,12.7,10.3,28.9,10.3c16.2,0,28.5-8.3,28.9-10.3c0-0.7,0.6-1.2,1.2-1.2s1.2,0.6,1.2,1.3C129.8,132.7,115,141.4,98.4,141.4z
				 M69.6,128.6L69.6,128.6L69.6,128.6z"/>
		</g>
	</g>
</g>
</svg>
