<?xml version="1.0" encoding="utf-8"?>
<!-- Generator: Adobe Illustrator 26.3.1, SVG Export Plug-In . SVG Version: 6.00 Build 0)  -->
<svg version="1.1" id="Layer_1" xmlns="http://www.w3.org/2000/svg" xmlns:xlink="http://www.w3.org/1999/xlink" x="0px" y="0px"
	 viewBox="0 0 200 200" style="enable-background:new 0 0 200 200;" xml:space="preserve">
<style type="text/css">
	.st0{fill:#0067FC;}
</style>
<g>
	<g>
		<g>
			<path class="st0" d="M118.2,143.2h-42c-3,0-5.5-2.5-5.5-5.5V90c0-0.7,0.6-1.2,1.2-1.2s1.2,0.6,1.2,1.2v47.7c0,1.7,1.3,3,3,3h41.5
				L129,128v-7c0-0.7,0.6-1.2,1.2-1.2s1.2,0.6,1.2,1.2v7.5c0,0.3-0.1,0.6-0.3,0.8l-12.1,13.5C118.9,143.1,118.6,143.2,118.2,143.2z"
				/>
		</g>
		<g>
			<path class="st0" d="M71.9,94.4c-0.7,0-1.2-0.6-1.2-1.2v-31c0-3,2.5-5.5,5.5-5.5H126c3,0,5.5,2.5,5.5,5.5v22.6
				c0,0.7-0.6,1.2-1.2,1.2s-1.2-0.6-1.2-1.2V62.2c0-1.7-1.3-3-3-3H76.2c-1.7,0-3,1.3-3,3v31C73.2,93.9,72.6,94.4,71.9,94.4z"/>
		</g>
		<g>
			<path class="st0" d="M117.2,142.8c-0.7,0-1.2-0.6-1.2-1.2v-8.8c0-3,2.5-5.5,5.5-5.5h8.8c0.7,0,1.2,0.6,1.2,1.2s-0.6,1.2-1.2,1.2
				h-8.8c-1.7,0-3,1.3-3,3v8.8C118.5,142.2,117.9,142.8,117.2,142.8z"/>
		</g>
		<g>
			<path class="st0" d="M130.3,121.6c-10,0-18.2-8.2-18.2-18.2s8.2-18.2,18.2-18.2s18.2,8.2,18.2,18.2S140.3,121.6,130.3,121.6z
				 M130.3,87.5c-8.7,0-15.9,7.1-15.9,15.9c0,8.7,7.1,15.9,15.9,15.9s15.9-7.1,15.9-15.9C146.1,94.7,139,87.5,130.3,87.5z"/>
		</g>
	</g>
	<g id="Group_263_00000121257675682781886210000008306831608232886714_" transform="translate(-598.5 -520.001)">
		<g id="Group_259_00000082327554764317625590000011611152223941801108_" transform="translate(549.903 487.744)">
			<g id="Ellipse_9_00000085221180309349156510000004210227626877828227_">
				<path class="st0" d="M178.9,133.9c-2.8,0-5-2.3-5-5s2.3-5,5-5s5,2.3,5,5S181.6,133.9,178.9,133.9z M178.9,126.4
					c-1.4,0-2.5,1.1-2.5,2.5s1.1,2.5,2.5,2.5s2.5-1.1,2.5-2.5S180.3,126.4,178.9,126.4z"/>
			</g>
			<g id="Path_16_00000166637461260884159580000008322200016878397366_">
				<path class="st0" d="M185,144.1c-0.7,0-1.2-0.6-1.2-1.2c0-2.7-2.2-4.9-4.9-4.9s-4.9,2.2-4.9,4.9c0,0.7-0.6,1.2-1.2,1.2
					s-1.2-0.6-1.2-1.2c0-4.1,3.3-7.4,7.4-7.4s7.4,3.3,7.4,7.4C186.3,143.6,185.7,144.1,185,144.1z"/>
			</g>
		</g>
	</g>
	<g>
		<g>
			<g>
				<path class="st0" d="M87.2,111.3c-0.4,0-0.8-0.2-1-0.5c-0.9-1.2-9.2-12.1-9.2-17.3c0-5.6,4.6-10.2,10.2-10.2s10.2,4.6,10.2,10.2
					c0,5.2-8.2,16.1-9.2,17.3C88,111.1,87.6,111.3,87.2,111.3z M87.2,85.8c-4.2,0-7.7,3.4-7.7,7.7c0,3.3,4.9,10.6,7.7,14.5
					c2.8-3.8,7.7-11.2,7.7-14.5C94.9,89.3,91.4,85.8,87.2,85.8z"/>
			</g>
			<g>
				<path class="st0" d="M87.2,98c-2.8,0-5.1-2.3-5.1-5.1s2.3-5.1,5.1-5.1s5.1,2.3,5.1,5.1S90,98,87.2,98z M87.2,90.2
					c-1.4,0-2.6,1.2-2.6,2.6s1.2,2.6,2.6,2.6s2.6-1.2,2.6-2.6S88.7,90.2,87.2,90.2z"/>
			</g>
		</g>
		<g>
			<g>
				<path class="st0" d="M109.5,133c-0.4,0-0.8-0.2-1-0.5c-0.6-0.8-6.1-8-6.1-11.6c0-3.9,3.2-7.1,7.1-7.1s7.1,3.2,7.1,7.1
					c0,3.5-5.5,10.8-6.1,11.6C110.3,132.8,109.9,133,109.5,133z M109.5,116.4c-2.5,0-4.6,2.1-4.6,4.6c0,1.7,2.5,5.8,4.6,8.7
					c2.1-2.9,4.6-7,4.6-8.7C114.1,118.4,112,116.4,109.5,116.4z"/>
			</g>
			<g>
				<circle class="st0" cx="109.5" cy="120.5" r="2.5"/>
			</g>
		</g>
		<g>
			<path class="st0" d="M102.2,133.2C102.2,133.2,102.1,133.2,102.2,133.2c-1.3-0.1-2.5-0.7-3.2-1.8c-0.7-1-0.9-2.3-0.6-3.6
				c0.1-0.4,0-0.7-0.1-0.8c-0.1-0.1-0.3-0.4-0.7-0.4l-2.8-0.1c-1.3-0.1-2.5-0.9-3-2.1c-0.5-1.2-0.3-2.6,0.6-3.6c0,0,0.1-0.1,0-0.2
				c0-0.1-0.1-0.1-0.1-0.1l-4.6-0.7c-0.9-0.1-1.7-0.7-2.1-1.4c-0.4-0.7-0.6-1.6-0.3-2.4l0.5-3.1l0.2-2.2c0.1-0.7,0.7-1.2,1.3-1.1
				c0.7,0.1,1.2,0.7,1.1,1.3l-0.2,2.3c0,0,0,0.1,0,0.1l-0.6,3.2c0,0.1,0,0.1,0,0.2c0,0.1,0,0.3,0.1,0.4c0.1,0.1,0.2,0.2,0.4,0.2
				l4.6,0.7c1,0.2,1.8,0.8,2.1,1.8c0.3,0.9,0.1,2-0.6,2.7c-0.4,0.4-0.2,0.8-0.2,1c0.1,0.2,0.3,0.6,0.8,0.6l2.8,0.1
				c1.1,0.1,2,0.6,2.7,1.5c0.6,0.9,0.8,2,0.5,3c-0.1,0.5-0.1,1,0.2,1.4c0.3,0.4,0.7,0.7,1.2,0.7l7.3-0.2c0.7-0.1,1.3,0.5,1.3,1.2
				c0,0.7-0.5,1.3-1.2,1.3L102.2,133.2C102.2,133.2,102.2,133.2,102.2,133.2z"/>
		</g>
	</g>
	<g>
		<path class="st0" d="M100,172.7c-40.1,0-72.7-32.6-72.7-72.7S59.9,27.3,100,27.3s72.7,32.6,72.7,72.7S140.1,172.7,100,172.7z
			 M100,31.3c-37.9,0-68.7,30.8-68.7,68.7c0,37.9,30.8,68.7,68.7,68.7c37.9,0,68.7-30.8,68.7-68.7C168.7,62.1,137.9,31.3,100,31.3z"
			/>
	</g>
	<g>
		<path class="st0" d="M125,81.3H96.1c-0.7,0-1.2-0.6-1.2-1.2v-8.9c0-0.7,0.6-1.2,1.2-1.2H125c0.7,0,1.2,0.6,1.2,1.2V80
			C126.3,80.7,125.7,81.3,125,81.3z M97.4,78.8h26.4v-6.4H97.4V78.8z"/>
	</g>
	<g>
		<path class="st0" d="M110.6,76.8h-9.8c-0.7,0-1.2-0.6-1.2-1.2s0.6-1.2,1.2-1.2h9.8c0.7,0,1.2,0.6,1.2,1.2S111.3,76.8,110.6,76.8z"
			/>
	</g>
	<g>
		<path class="st0" d="M120.4,76.8h-5.7c-0.7,0-1.2-0.6-1.2-1.2s0.6-1.2,1.2-1.2h5.7c0.7,0,1.2,0.6,1.2,1.2S121.1,76.8,120.4,76.8z"
			/>
	</g>
</g>
</svg>
