<?xml version="1.0" encoding="utf-8"?>
<!-- Generator: Adobe Illustrator 26.3.1, SVG Export Plug-In . SVG Version: 6.00 Build 0)  -->
<svg version="1.1" id="Layer_1" xmlns="http://www.w3.org/2000/svg" xmlns:xlink="http://www.w3.org/1999/xlink" x="0px" y="0px"
	 viewBox="0 0 200 200" style="enable-background:new 0 0 200 200;" xml:space="preserve">
<style type="text/css">
	.st0{fill:#0067FC;}
	.st1{fill:none;stroke:#0067FC;stroke-width:2.5;stroke-linecap:round;stroke-linejoin:round;stroke-miterlimit:10;}
</style>
<g>
	<g>
		<g>
			<path class="st0" d="M100,120C89,120,80,111,80,100s9-20.1,20.1-20.1c11.1,0,20.1,9,20.1,20.1S111.1,120,100,120z M100,82.4
				c-9.7,0-17.6,7.9-17.6,17.6c0,9.7,7.9,17.6,17.6,17.6c9.7,0,17.6-7.9,17.6-17.6C117.6,90.3,109.7,82.4,100,82.4z"/>
		</g>
	</g>
	<g id="Group_263_00000009578120911554187820000000619483464958067869_" transform="translate(-598.5 -520.001)">
		<g id="Group_259_00000018207724904612546380000003977187029959690122_" transform="translate(549.903 487.744)">
			<g id="Ellipse_9_00000005973638711509117390000010310432319592949912_">
				<path class="st0" d="M148.6,131.9c-3.1,0-5.6-2.5-5.6-5.6s2.5-5.6,5.6-5.6c3.1,0,5.6,2.5,5.6,5.6S151.7,131.9,148.6,131.9z
					 M148.6,123.2c-1.7,0-3.1,1.4-3.1,3.1s1.4,3.1,3.1,3.1s3.1-1.4,3.1-3.1S150.3,123.2,148.6,123.2z"/>
			</g>
			<g id="Path_16_00000101098113898421883280000005955617078298531767_">
				<path class="st0" d="M155.7,143.7c-0.7,0-1.2-0.6-1.2-1.2c0-3.2-2.6-5.8-5.8-5.8s-5.8,2.6-5.8,5.8c0,0.7-0.6,1.2-1.2,1.2
					s-1.2-0.6-1.2-1.2c0-4.6,3.7-8.3,8.3-8.3c4.6,0,8.3,3.7,8.3,8.3C156.9,143.1,156.4,143.7,155.7,143.7z"/>
			</g>
		</g>
	</g>
	<g>
		<g>
			<path class="st1" d="M106.6,109.7"/>
		</g>
		<g>
			<path class="st0" d="M116.3,69.6H83.7c-0.7,0-1.2-0.6-1.2-1.2s0.6-1.2,1.2-1.2h32.6c0.7,0,1.2,0.6,1.2,1.2S117,69.6,116.3,69.6z"
				/>
		</g>
		<g>
			<path class="st0" d="M106.9,79c-0.3,0-0.6-0.1-0.9-0.4c-0.5-0.5-0.5-1.3,0-1.8l8.5-8.5l-8.3-8.3c-0.5-0.5-0.5-1.3,0-1.8
				c0.5-0.5,1.3-0.5,1.8,0l9.2,9.2c0.5,0.5,0.5,1.3,0,1.8l-9.4,9.4C107.5,78.9,107.2,79,106.9,79z"/>
		</g>
		<g>
			<path class="st1" d="M93.4,127.2"/>
		</g>
		<g>
			<path class="st0" d="M116.3,132.8H83.7c-0.7,0-1.2-0.6-1.2-1.2s0.6-1.2,1.2-1.2h32.6c0.7,0,1.2,0.6,1.2,1.2
				S117,132.8,116.3,132.8z"/>
		</g>
		<g>
			<path class="st0" d="M92.9,142c-0.3,0-0.6-0.1-0.9-0.4l-9.2-9.2c-0.5-0.5-0.5-1.3,0-1.8l9.4-9.4c0.5-0.5,1.3-0.5,1.8,0
				s0.5,1.3,0,1.8l-8.5,8.5l8.3,8.3c0.5,0.5,0.5,1.3,0,1.8C93.5,141.9,93.2,142,92.9,142z"/>
		</g>
	</g>
	<g>
		<path class="st0" d="M100,172.7c-40.1,0-72.7-32.6-72.7-72.7S59.9,27.3,100,27.3s72.7,32.6,72.7,72.7S140.1,172.7,100,172.7z
			 M100,31.3c-37.9,0-68.7,30.8-68.7,68.7c0,37.9,30.8,68.7,68.7,68.7c37.9,0,68.7-30.8,68.7-68.7C168.7,62.1,137.9,31.3,100,31.3z"
			/>
	</g>
</g>
</svg>
