<?xml version="1.0" encoding="utf-8"?>
<!-- Generator: Adobe Illustrator 26.2.1, SVG Export Plug-In . SVG Version: 6.00 Build 0)  -->
<svg version="1.1" id="Layer_1" xmlns="http://www.w3.org/2000/svg" xmlns:xlink="http://www.w3.org/1999/xlink" x="0px" y="0px"
	 viewBox="0 0 200 200" style="enable-background:new 0 0 200 200;" xml:space="preserve">
<style type="text/css">
	.st0{fill:#0067FC;}
</style>
<g>
	<g>
		<path class="st0" d="M117.1,143.3h-42c-3,0-5.5-2.5-5.5-5.5V62.2c0-3,2.5-5.5,5.5-5.5h49.8c3,0,5.5,2.5,5.5,5.5v66.3
			c0,0.3-0.1,0.6-0.3,0.8l-12.1,13.5C117.8,143.1,117.5,143.3,117.1,143.3z M75.1,59.3c-1.6,0-3,1.3-3,3v75.5c0,1.6,1.3,3,3,3h41.5
			l11.3-12.7V62.2c0-1.6-1.3-3-3-3H75.1z"/>
	</g>
	<g>
		<path class="st0" d="M116.1,142.8c-0.7,0-1.3-0.6-1.3-1.3v-8.8c0-3,2.5-5.5,5.5-5.5h8.8c0.7,0,1.3,0.6,1.3,1.3s-0.6,1.3-1.3,1.3
			h-8.8c-1.6,0-3,1.3-3,3v8.8C117.4,142.3,116.8,142.8,116.1,142.8z"/>
	</g>
	<g>
		<g>
			<path class="st0" d="M116.3,101H82.7c-0.7,0-1.3-0.6-1.3-1.3s0.6-1.3,1.3-1.3h33.6c0.7,0,1.3,0.6,1.3,1.3S117,101,116.3,101z"/>
		</g>
		<g>
			<path class="st0" d="M116.3,93.5H82.7c-0.7,0-1.3-0.6-1.3-1.3S82,91,82.7,91h33.6c0.7,0,1.3,0.6,1.3,1.3S117,93.5,116.3,93.5z"/>
		</g>
		<g>
			<path class="st0" d="M116.3,86.1H82.7c-0.7,0-1.3-0.6-1.3-1.3s0.6-1.3,1.3-1.3h33.6c0.7,0,1.3,0.6,1.3,1.3S117,86.1,116.3,86.1z"
				/>
		</g>
		<g>
			<path class="st0" d="M116.3,78.6H82.7c-0.7,0-1.3-0.6-1.3-1.3S82,76,82.7,76h33.6c0.7,0,1.3,0.6,1.3,1.3S117,78.6,116.3,78.6z"/>
		</g>
		<g>
			<path class="st0" d="M116.3,71.1H82.7c-0.7,0-1.3-0.6-1.3-1.3s0.6-1.3,1.3-1.3h33.6c0.7,0,1.3,0.6,1.3,1.3S117,71.1,116.3,71.1z"
				/>
		</g>
		<g>
			<path class="st0" d="M114.3,108.4H82.7c-0.7,0-1.3-0.6-1.3-1.3s0.6-1.3,1.3-1.3h31.6c0.7,0,1.3,0.6,1.3,1.3
				S115,108.4,114.3,108.4z"/>
		</g>
		<g>
			<path class="st0" d="M112.3,115.9H82.7c-0.7,0-1.3-0.6-1.3-1.3s0.6-1.3,1.3-1.3h29.6c0.7,0,1.3,0.6,1.3,1.3
				S113,115.9,112.3,115.9z"/>
		</g>
		<g>
			<path class="st0" d="M108.3,123.3H82.7c-0.7,0-1.3-0.6-1.3-1.3s0.6-1.3,1.3-1.3h25.6c0.7,0,1.3,0.6,1.3,1.3
				S109,123.3,108.3,123.3z"/>
		</g>
		<g>
			<path class="st0" d="M101.3,130.8H82.7c-0.7,0-1.3-0.6-1.3-1.3s0.6-1.3,1.3-1.3h18.6c0.7,0,1.3,0.6,1.3,1.3
				S102,130.8,101.3,130.8z"/>
		</g>
	</g>
	<g>
		<path class="st0" d="M100,172.7c-40.1,0-72.7-32.6-72.7-72.7S59.9,27.3,100,27.3s72.7,32.6,72.7,72.7S140.1,172.7,100,172.7z
			 M100,31.3c-37.9,0-68.7,30.8-68.7,68.7c0,37.9,30.8,68.7,68.7,68.7c37.9,0,68.7-30.8,68.7-68.7C168.7,62.1,137.9,31.3,100,31.3z"
			/>
	</g>
</g>
</svg>
