<?xml version="1.0" encoding="utf-8"?>
<!-- Generator: Adobe Illustrator 26.3.1, SVG Export Plug-In . SVG Version: 6.00 Build 0)  -->
<svg version="1.1" id="Layer_1" xmlns="http://www.w3.org/2000/svg" xmlns:xlink="http://www.w3.org/1999/xlink" x="0px" y="0px"
	 viewBox="0 0 200 200" style="enable-background:new 0 0 200 200;" xml:space="preserve">
<style type="text/css">
	.st0{fill:#0067FC;}
</style>
<g>
	<g>
		<path class="st0" d="M115.4,75.6c-0.7,0-1.2-0.6-1.2-1.2v-4.2h-4.1c-0.7,0-1.2-0.6-1.2-1.2s0.6-1.2,1.2-1.2h5.4
			c0.7,0,1.2,0.6,1.2,1.2v5.5C116.7,75,116.1,75.6,115.4,75.6z"/>
	</g>
	<g>
		<path class="st0" d="M82.2,91.3c-0.7,0-1.2-0.6-1.2-1.2v-5.6c0-0.7,0.6-1.2,1.2-1.2s1.2,0.6,1.2,1.2V90
			C83.5,90.7,82.9,91.3,82.2,91.3z"/>
	</g>
	<g>
		<path class="st0" d="M90.3,90.8c-0.7,0-1.2-0.6-1.2-1.2v-2.2c0-0.7,0.6-1.2,1.2-1.2s1.2,0.6,1.2,1.2v2.2
			C91.5,90.2,91,90.8,90.3,90.8z"/>
	</g>
	<g>
		<path class="st0" d="M97.8,90.8c-0.7,0-1.2-0.6-1.2-1.2V80c0-0.7,0.6-1.2,1.2-1.2S99,79.3,99,80v9.5C99,90.2,98.5,90.8,97.8,90.8z
			"/>
	</g>
	<g>
		<path class="st0" d="M106.2,90.8c-0.7,0-1.2-0.6-1.2-1.2v-7.3c0-0.7,0.6-1.2,1.2-1.2s1.2,0.6,1.2,1.2v7.3
			C107.5,90.2,106.9,90.8,106.2,90.8z"/>
	</g>
	<g>
		<path class="st0" d="M114.3,90.5c-0.7,0-1.2-0.6-1.2-1.2V78.3c0-0.7,0.6-1.2,1.2-1.2s1.2,0.6,1.2,1.2v10.9
			C115.6,89.9,115,90.5,114.3,90.5z"/>
	</g>
	<g>
		<path class="st0" d="M89.4,83.5c-0.2,0-0.4,0-0.6-0.1l-7.2-3.8c-0.6-0.3-0.8-1.1-0.5-1.7c0.3-0.6,1.1-0.8,1.7-0.5l6.4,3.3l7.8-7.4
			c0.4-0.4,0.9-0.5,1.4-0.2l7.7,3.7l7.4-7.6c0.5-0.5,1.3-0.5,1.8,0c0.5,0.5,0.5,1.3,0,1.8l-8.1,8.2c-0.4,0.4-1,0.5-1.4,0.3L98,75.7
			l-7.8,7.5C90,83.4,89.7,83.5,89.4,83.5z"/>
	</g>
	<g>
		<g>
			<path class="st0" d="M92.9,135.3c-8.4,0-15.2-6.8-15.2-15.2s6.8-15.2,15.2-15.2c0.7,0,1.2,0.6,1.2,1.2v12.7h12.7
				c0.7,0,1.2,0.6,1.2,1.2C108.1,128.5,101.3,135.3,92.9,135.3z M91.7,107.5c-6.4,0.6-11.4,6.1-11.4,12.6c0,7,5.7,12.7,12.7,12.7
				c6.6,0,12-5,12.6-11.4H92.9c-0.7,0-1.2-0.6-1.2-1.2V107.5z"/>
		</g>
		<g>
			<path class="st0" d="M96.2,102.5v13.9h13.9C110.1,108.8,103.9,102.5,96.2,102.5z"/>
		</g>
	</g>
	<g>
		<g>
			<path class="st0" d="M117.4,143.3h-42c-3,0-5.5-2.5-5.5-5.5V90c0-0.7,0.6-1.2,1.2-1.2s1.2,0.6,1.2,1.2v47.7c0,1.7,1.3,3,3,3h41.5
				l11.4-12.8v-7c0-0.7,0.6-1.2,1.2-1.2s1.2,0.6,1.2,1.2v7.4c0,0.3-0.1,0.6-0.3,0.8l-12.1,13.5C118.1,143.1,117.8,143.3,117.4,143.3
				z"/>
		</g>
		<g>
			<path class="st0" d="M71.1,94.4c-0.7,0-1.2-0.6-1.2-1.2v-31c0-3,2.5-5.5,5.5-5.5h49.8c3,0,5.5,2.5,5.5,5.5v22.6
				c0,0.7-0.6,1.2-1.2,1.2s-1.2-0.6-1.2-1.2V62.2c0-1.7-1.3-3-3-3H75.4c-1.7,0-3,1.3-3,3v31C72.4,93.9,71.8,94.4,71.1,94.4z"/>
		</g>
		<g>
			<path class="st0" d="M116.4,142.8c-0.7,0-1.2-0.6-1.2-1.2v-8.8c0-3,2.5-5.5,5.5-5.5h8.8c0.7,0,1.2,0.6,1.2,1.2s-0.6,1.2-1.2,1.2
				h-8.8c-1.7,0-3,1.3-3,3v8.8C117.7,142.3,117.1,142.8,116.4,142.8z"/>
		</g>
		<g>
			<path class="st0" d="M129.5,121.6c-10,0-18.2-8.2-18.2-18.2c0-10,8.2-18.2,18.2-18.2s18.2,8.2,18.2,18.2
				C147.7,113.5,139.5,121.6,129.5,121.6z M129.5,87.6c-8.7,0-15.9,7.1-15.9,15.9s7.1,15.9,15.9,15.9s15.9-7.1,15.9-15.9
				S138.2,87.6,129.5,87.6z"/>
		</g>
	</g>
	<g>
		<path class="st0" d="M127.7,109C127.6,109,127.6,109,127.7,109c-0.4,0-0.7-0.2-0.9-0.4l-3.2-3.7c-0.4-0.5-0.4-1.2,0.1-1.7
			c0.5-0.4,1.2-0.4,1.7,0.1l2.4,2.8l8.8-8.1c0.5-0.4,1.2-0.4,1.7,0.1c0.4,0.5,0.4,1.2-0.1,1.7l-9.7,8.9
			C128.2,108.9,128,109,127.7,109z"/>
	</g>
	<g>
		<path class="st0" d="M100,172.7c-40.1,0-72.7-32.6-72.7-72.7S59.9,27.3,100,27.3s72.7,32.6,72.7,72.7S140.1,172.7,100,172.7z
			 M100,31.3c-37.9,0-68.7,30.8-68.7,68.7c0,37.9,30.8,68.7,68.7,68.7c37.9,0,68.7-30.8,68.7-68.7C168.7,62.1,137.9,31.3,100,31.3z"
			/>
	</g>
</g>
</svg>
