<?xml version="1.0" encoding="utf-8"?>
<!-- Generator: Adobe Illustrator 23.0.1, SVG Export Plug-In . SVG Version: 6.00 Build 0)  -->
<svg version="1.1" id="Layer_1" xmlns="http://www.w3.org/2000/svg" xmlns:xlink="http://www.w3.org/1999/xlink" x="0px" y="0px"
	 viewBox="0 0 122.4 60.3" style="enable-background:new 0 0 122.4 60.3;" xml:space="preserve">
<style type="text/css">
	.st0{fill:#EC2424;}
	.st1{fill:#666666;}
	.st2{fill:#61C250;}
	.st3{fill:none;stroke:#61C250;stroke-width:2;stroke-miterlimit:10;}
</style>
<g>
	<g>
		<path class="st2" d="M76.1,46.3c0-0.4,0.1-0.8,0.4-1.2c0.2-0.4,0.6-0.7,1.1-1s1-0.4,1.6-0.4c0.6,0,1.1,0.1,1.5,0.3
			c0.4,0.2,0.8,0.5,1,0.9c0.2,0.4,0.4,0.8,0.4,1.2c0,0.3-0.1,0.6-0.2,0.9c-0.1,0.3-0.3,0.5-0.5,0.7c-0.2,0.2-0.5,0.5-1,0.9
			c-0.1,0.1-0.2,0.2-0.3,0.3c-0.1,0.1-0.1,0.2-0.2,0.3s-0.1,0.2-0.1,0.2s-0.1,0.2-0.1,0.4c-0.1,0.4-0.3,0.6-0.7,0.6
			c-0.2,0-0.4-0.1-0.5-0.2c-0.1-0.1-0.2-0.3-0.2-0.6c0-0.3,0.1-0.6,0.2-0.9s0.2-0.5,0.4-0.6c0.2-0.2,0.4-0.4,0.7-0.7
			c0.3-0.2,0.4-0.4,0.6-0.5c0.1-0.1,0.2-0.2,0.3-0.4c0.1-0.1,0.1-0.3,0.1-0.5c0-0.3-0.1-0.6-0.4-0.8c-0.2-0.2-0.5-0.3-0.9-0.3
			c-0.4,0-0.8,0.1-1,0.3c-0.2,0.2-0.4,0.5-0.5,1c-0.1,0.5-0.4,0.7-0.8,0.7c-0.2,0-0.4-0.1-0.6-0.2C76.2,46.7,76.1,46.5,76.1,46.3z
			 M79,53.1c-0.2,0-0.5-0.1-0.6-0.2c-0.2-0.2-0.3-0.4-0.3-0.7c0-0.3,0.1-0.5,0.3-0.6c0.2-0.2,0.4-0.3,0.6-0.3c0.3,0,0.5,0.1,0.6,0.3
			c0.2,0.2,0.3,0.4,0.3,0.6c0,0.3-0.1,0.5-0.3,0.7C79.5,53.1,79.3,53.1,79,53.1z"/>
	</g>
	<path class="st1" d="M106.8,37L106.8,37c0.2-4.1-1.3-6.8-4.1-7.5c-4-1-7.5-3.3-7.8-3.6c-0.2-0.1-0.5-0.2-0.7-0.2
		c-0.2,0-0.5,0.2-0.6,0.4c-0.1,0.2-0.2,0.5-0.2,0.7c0,0.2,0.2,0.5,0.4,0.6c0.2,0.1,3.9,2.7,8.5,3.9c2.6,0.7,2.8,3.8,2.7,5.7
		c0,0.1,0,0.1,0,0.2l0,0.1c0,0.9-0.1,2.1-0.2,2.9l-0.1,0.1l0,0c-1.6,0.9-7.5,3.9-16.6,3.9c-0.9,0-1.7,0-2.6-0.1c0,0,0,0,0,0
		c0,0-0.1,0-0.1,0c-0.1,0.1-0.1,0.2-0.1,0.3c0,0.6,0.4,1.6,0.7,1.6c0.7,0.1,1.3,0.1,2.1,0.1c11.1,0,17.7-4.2,18-4.4
		c0.2-0.1,0.3-0.3,0.4-0.4C106.8,39.9,106.8,37.5,106.8,37z M87.8,25.2L87.8,25.2c0,0,0.1,0,0.1,0l0.1,0l0.1,0c2.7,0,4.8-1,6.4-2.7
		c3.5-3.9,2.9-10.7,2.9-11.4c-0.2-4.7-2.4-7-4.2-8.1c-2-1.3-4.2-1.4-5-1.4c-0.1,0-0.1,0-0.2,0c-0.1,0-0.1,0-0.2,0
		c-0.8,0-3,0.1-5,1.4c-1.8,1.1-4,3.4-4.2,8.1c-0.1,0.8-0.6,7.5,2.9,11.4C83,24.3,85.1,25.2,87.8,25.2z M80.5,11.2L80.5,11.2
		L80.5,11.2L80.5,11.2c0.3-7.2,5.6-7.7,7.2-7.7c0.1,0,0.1,0,0.2,0c0,0,0.1,0,0.1,0c0,0,0.1,0,0.2,0c1.6,0,6.9,0.6,7.2,7.7l0,0.1
		c0,0.3,0.6,6.6-2.4,9.9c-1.2,1.4-2.9,2.1-5,2.1h-0.1c-2.1,0-3.8-0.7-5-2.1C79.8,17.8,80.5,11.3,80.5,11.2z M61,51.5
		c-11,0-18.3-3.6-20.2-4.7l-0.2-0.1l0-0.2c-0.2-0.9-0.3-2.5-0.3-3.7l0-0.1c-0.2-2.3,0.1-6.2,3.3-7c5.5-1.4,10-4.5,10.2-4.7
		c0.2-0.2,0.4-0.4,0.4-0.6c0-0.3,0-0.5-0.2-0.7c-0.2-0.2-0.4-0.4-0.6-0.4c-0.3,0-0.5,0-0.7,0.2c0,0-0.5,0.4-1.4,0.9l-0.1,0.1
		l-0.1-0.1c-0.6-0.4-1.2-0.7-1.8-0.9c-4-1-7.4-3.3-7.8-3.6c-0.2-0.2-0.5-0.2-0.7-0.2c-0.3,0-0.5,0.2-0.6,0.4
		c-0.2,0.2-0.2,0.5-0.2,0.7c0,0.3,0.2,0.5,0.4,0.6c0.2,0.1,3.8,2.7,8.5,3.9l0.4,0.2l-0.4,0.2c-1.9,0.9-3.8,1.7-5.7,2.1
		c-3.4,0.9-5.2,4.2-4.8,9c0,0.2,0,0.5,0,0.8l0,0.2l-0.2,0C36.8,44,35.6,44,34.5,44c-9,0-15-3-16.6-3.9l-0.1,0l0-0.1
		c-0.2-0.7-0.2-2.1-0.2-3l0-0.1c-0.1-1.8,0-5,2.6-5.6c4.7-1.2,8.3-3.8,8.5-3.9c0.2-0.2,0.4-0.4,0.4-0.6c0-0.3,0-0.5-0.2-0.7
		c-0.2-0.2-0.4-0.4-0.6-0.4c-0.3,0-0.5,0-0.7,0.2c0,0-3.6,2.5-7.8,3.6c-2.9,0.7-4.4,3.5-4.1,7.6c0,0.5,0,2.9,0.5,4.1
		c0.1,0.2,0.2,0.3,0.4,0.5c0.3,0.2,6.9,4.4,18,4.4c1.1,0,2.3-0.1,3.8-0.2l0.2,0l0,0.2c0.1,0.8,0.2,1.4,0.4,1.8
		c0.1,0.2,0.2,0.4,0.4,0.5c0.3,0.2,8.3,5.3,21.8,5.3c3.9,0,7.7-0.4,11.3-1.3c-0.4-0.6-0.6-1.2-0.8-1.9C68.1,51.1,64.6,51.5,61,51.5z
		 M78.8,33.8L78.8,33.8c-1.7-0.4-3.6-1.1-5.4-2L73,31.6l0.5-0.2c0.1,0,0.1-0.1,0.2-0.1c4.5-1.1,8.1-3.6,8.5-3.9
		c0.2-0.2,0.4-0.4,0.4-0.6c0-0.3,0-0.5-0.2-0.7c-0.2-0.2-0.4-0.4-0.6-0.4c-0.3,0-0.5,0-0.7,0.2c0,0-3.6,2.5-7.8,3.6
		c-0.8,0.2-1.5,0.6-2,1.1l-0.1,0.1l-0.1-0.1c-0.9-0.5-1.4-0.9-1.7-1c-0.2-0.2-0.5-0.2-0.8-0.2c-0.3,0-0.5,0.2-0.6,0.4
		c-0.2,0.2-0.2,0.5-0.2,0.7c0,0.3,0.2,0.5,0.4,0.6c0.2,0.1,4.6,3.2,10.2,4.7c2.5,0.6,3.2,3.1,3.4,5.1c0.7,0.3,1.4,0.7,2,1.1
		C83.8,37.6,82,34.6,78.8,33.8z M34.3,25.2L34.3,25.2c0.1,0,0.1,0,0.1,0l0.1,0l0.1,0c2.7,0,4.8-1,6.4-2.7c3.5-3.9,2.9-10.7,2.9-11.4
		c-0.2-4.7-2.4-7-4.2-8.1c-2-1.3-4.2-1.4-5-1.4c-0.1,0-0.1,0-0.2,0c-0.1,0-0.1,0-0.2,0c-0.8,0-3,0.1-5,1.4C27.4,4,25.3,6.3,25,11
		c-0.1,0.8-0.6,7.5,2.9,11.4C29.5,24.3,31.6,25.2,34.3,25.2z M27,11.2L27,11.2C27,11.2,27,11.2,27,11.2c0.3-7.2,5.6-7.7,7.2-7.7
		c0.1,0,0.1,0,0.2,0c0,0,0.1,0,0.1,0c0,0,0.1,0,0.2,0c1.6,0,6.9,0.6,7.2,7.7l0,0.1c0,0.3,0.6,6.6-2.4,9.9c-1.2,1.4-2.9,2.1-5,2.1
		h-0.1c-2.1,0-3.8-0.7-5-2.1C26.4,17.8,27,11.5,27,11.2z M60.7,28.4L60.7,28.4L60.7,28.4L60.7,28.4c0.1,0,0.1,0,0.1,0l0.2,0
		c3.2-0.1,5.7-1.2,7.6-3.3c4.2-4.7,3.5-12.8,3.4-13.7c-0.3-5.7-2.9-8.4-5-9.7c-2.4-1.5-5-1.7-6-1.7l-0.2,0l-0.3,0
		c-1,0-3.5,0.2-6,1.7c-2.1,1.3-4.7,4.1-5,9.7c-0.1,0.9-0.8,9,3.4,13.7C55,27.2,57.6,28.3,60.7,28.4z M51.7,11.5L51.7,11.5
		C52.1,2.7,58.7,2,60.7,2c0.1,0,0.2,0,0.2,0l0.3,0c2,0,8.5,0.7,8.9,9.5c0,0.3,0.8,8.1-2.9,12.3c-1.5,1.7-3.6,2.6-6.2,2.6h-0.1
		c-2.6,0-4.7-0.9-6.2-2.6C50.9,19.6,51.7,11.8,51.7,11.5z"/>
	<circle class="st3" cx="78.9" cy="48.2" r="7.7"/>
</g>
</svg>
