<?xml version="1.0" encoding="utf-8"?>
<!-- Generator: Adobe Illustrator 26.3.1, SVG Export Plug-In . SVG Version: 6.00 Build 0)  -->
<svg version="1.1" id="Layer_1" xmlns="http://www.w3.org/2000/svg" xmlns:xlink="http://www.w3.org/1999/xlink" x="0px" y="0px"
	 viewBox="0 0 200 200" style="enable-background:new 0 0 200 200;" xml:space="preserve">
<style type="text/css">
	.st0{fill:#0067FC;}
</style>
<g>
	<g>
		<g>
			<path class="st0" d="M116.7,143.3h-42c-3,0-5.5-2.5-5.5-5.5V62.2c0-3,2.5-5.5,5.5-5.5h49.8c3,0,5.5,2.5,5.5,5.5v66.3
				c0,0.3-0.1,0.6-0.3,0.8l-12.1,13.5C117.3,143.1,117,143.3,116.7,143.3z M71.6,93.2v44.6c0,1.7,1.3,3,3,3h41.5l11.4-12.8V62.2
				c0-1.7-1.3-3-3-3H74.6c-1.7,0-3,1.3-3,3V93.2z"/>
		</g>
		<g>
			<path class="st0" d="M115.7,142.8c-0.7,0-1.2-0.6-1.2-1.2v-8.8c0-3,2.5-5.5,5.5-5.5h8.8c0.7,0,1.2,0.6,1.2,1.2s-0.6,1.2-1.2,1.2
				h-8.8c-1.7,0-3,1.3-3,3v8.8C116.9,142.3,116.3,142.8,115.7,142.8z"/>
		</g>
	</g>
	<g>
		<g>
			<path class="st0" d="M117.2,111.3h-27c-0.7,0-1.2-0.6-1.2-1.2s0.6-1.2,1.2-1.2h27c0.7,0,1.2,0.6,1.2,1.2S117.9,111.3,117.2,111.3
				z"/>
		</g>
		<g>
			<path class="st0" d="M117.2,118.4h-27c-0.7,0-1.2-0.6-1.2-1.2s0.6-1.2,1.2-1.2h27c0.7,0,1.2,0.6,1.2,1.2S117.9,118.4,117.2,118.4
				z"/>
		</g>
		<g>
			<path class="st0" d="M107.2,125.4h-17c-0.7,0-1.2-0.6-1.2-1.2s0.6-1.2,1.2-1.2h17c0.7,0,1.2,0.6,1.2,1.2S107.9,125.4,107.2,125.4
				z"/>
		</g>
		<g>
			<path class="st0" d="M83.3,112.8L83.3,112.8c-0.3,0-0.6-0.1-0.9-0.4L81,111c-0.5-0.5-0.5-1.3,0-1.8s1.3-0.5,1.8,0l0.5,0.5
				l1.9-1.9c0.5-0.5,1.3-0.5,1.8,0s0.5,1.3,0,1.8l-2.8,2.8C83.9,112.6,83.6,112.8,83.3,112.8z"/>
		</g>
		<g>
			<path class="st0" d="M83.3,119.8c-0.3,0-0.6-0.1-0.9-0.4L81,118c-0.5-0.5-0.5-1.3,0-1.8c0.5-0.5,1.3-0.5,1.8,0l0.5,0.5l1.9-1.9
				c0.5-0.5,1.3-0.5,1.8,0s0.5,1.3,0,1.8l-2.8,2.8C83.9,119.7,83.6,119.8,83.3,119.8z"/>
		</g>
		<g>
			<path class="st0" d="M83.3,126.2L83.3,126.2c-0.3,0-0.6-0.1-0.9-0.4l-1.4-1.4c-0.5-0.5-0.5-1.3,0-1.8s1.3-0.5,1.8,0l0.5,0.5
				l1.9-1.9c0.5-0.5,1.3-0.5,1.8,0s0.5,1.3,0,1.8l-2.8,2.8C83.9,126.1,83.6,126.2,83.3,126.2z"/>
		</g>
	</g>
	<g>
		<path class="st0" d="M99.5,101.8c-9.7,0-17.6-7.9-17.6-17.6s7.9-17.6,17.6-17.6c9.7,0,17.6,7.9,17.6,17.6S109.3,101.8,99.5,101.8z
			 M99.5,69c-8.4,0-15.1,6.8-15.1,15.1s6.8,15.1,15.1,15.1s15.1-6.8,15.1-15.1S107.9,69,99.5,69z"/>
	</g>
	<g>
		<path class="st0" d="M100,172.7c-40.1,0-72.7-32.6-72.7-72.7S59.9,27.3,100,27.3s72.7,32.6,72.7,72.7S140.1,172.7,100,172.7z
			 M100,31.3c-37.9,0-68.7,30.8-68.7,68.7c0,37.9,30.8,68.7,68.7,68.7c37.9,0,68.7-30.8,68.7-68.7C168.7,62.1,137.9,31.3,100,31.3z"
			/>
	</g>
	<g>
		<path class="st0" d="M104.9,93.7c-0.2,0-0.4,0-0.6-0.1L99.5,91l-4.8,2.5c-0.4,0.2-0.9,0.2-1.3-0.1s-0.6-0.8-0.5-1.2l0.9-5.4
			l-3.9-3.8c-0.3-0.3-0.5-0.8-0.3-1.3s0.5-0.8,1-0.9l5.4-0.8l2.4-4.9c0.2-0.4,0.6-0.7,1.1-0.7s0.9,0.3,1.1,0.7l2.4,4.9l5.4,0.8
			c0.5,0.1,0.9,0.4,1,0.9c0.1,0.5,0,0.9-0.3,1.3l-3.9,3.8l0.9,5.4c0.1,0.5-0.1,0.9-0.5,1.2C105.5,93.6,105.2,93.7,104.9,93.7z
			 M93.5,83l2.6,2.5c0.3,0.3,0.4,0.7,0.4,1.1l-0.6,3.5l3.2-1.7c0.4-0.2,0.8-0.2,1.2,0l3.2,1.7l-0.6-3.5c-0.1-0.4,0.1-0.8,0.4-1.1
			l2.6-2.5l-3.5-0.5c-0.4-0.1-0.8-0.3-0.9-0.7l-1.6-3.2L98,81.8c-0.2,0.4-0.5,0.6-0.9,0.7L93.5,83z"/>
	</g>
</g>
</svg>
