<?xml version="1.0" encoding="utf-8"?>
<!-- Generator: Adobe Illustrator 26.3.1, SVG Export Plug-In . SVG Version: 6.00 Build 0)  -->
<svg version="1.1" id="Layer_1" xmlns="http://www.w3.org/2000/svg" xmlns:xlink="http://www.w3.org/1999/xlink" x="0px" y="0px"
	 viewBox="0 0 200 200" style="enable-background:new 0 0 200 200;" xml:space="preserve">
<style type="text/css">
	.st0{fill:none;stroke:#0067FC;stroke-width:2.5;stroke-linecap:round;stroke-linejoin:round;stroke-miterlimit:10;}
	.st1{fill:none;stroke:#0067FC;stroke-width:4;stroke-linecap:round;stroke-linejoin:round;stroke-miterlimit:10;}
	.st2{fill:#0067FC;}
</style>
<g>
	<g>
		<line class="st0" x1="90.5" y1="102" x2="117.5" y2="102"/>
		<line class="st0" x1="90.5" y1="109" x2="117.5" y2="109"/>
		<line class="st0" x1="90.5" y1="116" x2="107.5" y2="116"/>
		<polyline class="st0" points="82.1,102 83.5,103.4 86.4,100.6 		"/>
		<polyline class="st0" points="82.1,109 83.5,110.4 86.4,107.6 		"/>
		<polyline class="st0" points="82.1,115.5 83.5,116.9 86.4,114.1 		"/>
	</g>
	<g>
		<path class="st0" d="M70.7,93.1v-31c0-2.3,1.9-4.3,4.3-4.3h49.8c2.3,0,4.3,1.9,4.3,4.3v66.3l-12.1,13.5h-42
			c-2.3,0-4.3-1.9-4.3-4.3V89.9"/>
		<path class="st0" d="M129,128.4h-8.8c-2.3,0-4.3,1.9-4.3,4.3v8.8"/>
	</g>
	<g>
		<polyline class="st0" points="111.1,66.8 116.4,66.8 116.4,72.3 		"/>
		<line class="st0" x1="83.2" y1="88" x2="83.2" y2="82.4"/>
		<line class="st0" x1="91.3" y1="87.5" x2="91.3" y2="85.3"/>
		<line class="st0" x1="98.8" y1="87.5" x2="98.8" y2="78"/>
		<line class="st0" x1="107.2" y1="87.5" x2="107.2" y2="80.2"/>
		<line class="st0" x1="115.3" y1="87.2" x2="115.3" y2="76.3"/>
		<polyline class="st0" points="83.2,76.5 90.4,80.3 98.8,72.2 107.2,76.3 115.3,68 		"/>
	</g>
	<g>
		<rect x="82.1" y="123.9" class="st0" width="29.6" height="8.9"/>
		<line class="st0" x1="86.1" y1="128.4" x2="101.5" y2="128.4"/>
	</g>
	<circle class="st1" cx="99.8" cy="99.9" r="70.7"/>
</g>
<g>
	<g>
		<g>
			<path class="st2" d="M117.7,103.3h-27c-0.7,0-1.2-0.6-1.2-1.2s0.6-1.2,1.2-1.2h27c0.7,0,1.2,0.6,1.2,1.2S118.4,103.3,117.7,103.3
				z"/>
		</g>
		<g>
			<path class="st2" d="M117.7,110.4h-27c-0.7,0-1.2-0.6-1.2-1.2s0.6-1.2,1.2-1.2h27c0.7,0,1.2,0.6,1.2,1.2S118.4,110.4,117.7,110.4
				z"/>
		</g>
		<g>
			<path class="st2" d="M107.7,117.4h-17c-0.7,0-1.2-0.6-1.2-1.2s0.6-1.2,1.2-1.2h17c0.7,0,1.2,0.6,1.2,1.2S108.4,117.4,107.7,117.4
				z"/>
		</g>
		<g>
			<path class="st2" d="M83.7,104.7c-0.3,0-0.6-0.1-0.9-0.4l-1.4-1.4c-0.5-0.5-0.5-1.3,0-1.8s1.3-0.5,1.8,0l0.5,0.5l1.9-1.9
				c0.5-0.5,1.3-0.5,1.8,0c0.5,0.5,0.5,1.3,0,1.8l-2.8,2.8C84.4,104.6,84.1,104.7,83.7,104.7z"/>
		</g>
		<g>
			<path class="st2" d="M83.7,111.8c-0.3,0-0.6-0.1-0.9-0.4l-1.4-1.4c-0.5-0.5-0.5-1.3,0-1.8s1.3-0.5,1.8,0l0.5,0.5l1.9-1.9
				c0.5-0.5,1.3-0.5,1.8,0s0.5,1.3,0,1.8l-2.8,2.8C84.4,111.7,84.1,111.8,83.7,111.8z"/>
		</g>
		<g>
			<path class="st2" d="M83.7,118.2c-0.3,0-0.6-0.1-0.9-0.4l-1.4-1.4c-0.5-0.5-0.5-1.3,0-1.8c0.5-0.5,1.3-0.5,1.8,0l0.5,0.5l1.9-1.9
				c0.5-0.5,1.3-0.5,1.8,0s0.5,1.3,0,1.8l-2.8,2.8C84.4,118.1,84,118.2,83.7,118.2z"/>
		</g>
	</g>
	<g>
		<g>
			<path class="st2" d="M117.1,143.2h-42c-3,0-5.5-2.5-5.5-5.5V62.2c0-3,2.5-5.5,5.5-5.5h49.8c3,0,5.5,2.5,5.5,5.5v66.3
				c0,0.3-0.1,0.6-0.3,0.8L118,142.8C117.8,143.1,117.5,143.2,117.1,143.2z M72.1,93.2v44.6c0,1.7,1.3,3,3,3h41.5l11.4-12.8V62.2
				c0-1.7-1.3-3-3-3H75.1c-1.7,0-3,1.3-3,3V93.2z"/>
		</g>
		<g>
			<path class="st2" d="M116.1,142.8c-0.7,0-1.2-0.6-1.2-1.2v-8.8c0-3,2.5-5.5,5.5-5.5h8.8c0.7,0,1.2,0.6,1.2,1.2s-0.6,1.2-1.2,1.2
				h-8.8c-1.7,0-3,1.3-3,3v8.8C117.4,142.2,116.8,142.8,116.1,142.8z"/>
		</g>
	</g>
	<g>
		<g>
			<path class="st2" d="M116.6,73.6c-0.7,0-1.2-0.6-1.2-1.2v-4.2h-4.1c-0.7,0-1.2-0.6-1.2-1.2s0.6-1.2,1.2-1.2h5.4
				c0.7,0,1.2,0.6,1.2,1.2v5.5C117.9,73.1,117.3,73.6,116.6,73.6z"/>
		</g>
		<g>
			<path class="st2" d="M83.4,89.4c-0.7,0-1.2-0.6-1.2-1.2v-5.6c0-0.7,0.6-1.2,1.2-1.2s1.2,0.6,1.2,1.2v5.6
				C84.6,88.8,84.1,89.4,83.4,89.4z"/>
		</g>
		<g>
			<path class="st2" d="M91.4,88.9c-0.7,0-1.2-0.6-1.2-1.2v-2.2c0-0.7,0.6-1.2,1.2-1.2s1.2,0.6,1.2,1.2v2.2
				C92.7,88.3,92.1,88.9,91.4,88.9z"/>
		</g>
		<g>
			<path class="st2" d="M99,88.9c-0.7,0-1.2-0.6-1.2-1.2v-9.5c0-0.7,0.6-1.2,1.2-1.2s1.2,0.6,1.2,1.2v9.5
				C100.2,88.3,99.7,88.9,99,88.9z"/>
		</g>
		<g>
			<path class="st2" d="M107.4,88.9c-0.7,0-1.2-0.6-1.2-1.2v-7.3c0-0.7,0.6-1.2,1.2-1.2s1.2,0.6,1.2,1.2v7.3
				C108.7,88.3,108.1,88.9,107.4,88.9z"/>
		</g>
		<g>
			<path class="st2" d="M115.5,88.5c-0.7,0-1.2-0.6-1.2-1.2V76.4c0-0.7,0.6-1.2,1.2-1.2s1.2,0.6,1.2,1.2v10.9
				C116.7,88,116.2,88.5,115.5,88.5z"/>
		</g>
		<g>
			<path class="st2" d="M90.6,81.6c-0.2,0-0.4,0-0.6-0.1l-7.2-3.8c-0.6-0.3-0.8-1.1-0.5-1.7c0.3-0.6,1.1-0.8,1.7-0.5l6.4,3.3
				l7.8-7.4c0.4-0.4,0.9-0.5,1.4-0.2l7.7,3.7l7.4-7.6c0.5-0.5,1.3-0.5,1.8,0c0.5,0.5,0.5,1.3,0,1.8l-8.1,8.2c-0.4,0.4-1,0.5-1.4,0.3
				l-7.7-3.7l-7.8,7.5C91.2,81.5,90.9,81.6,90.6,81.6z"/>
		</g>
	</g>
	<g>
		<g>
			<path class="st2" d="M111.9,134.2H82.3c-0.7,0-1.2-0.6-1.2-1.2V124c0-0.7,0.6-1.2,1.2-1.2h29.6c0.7,0,1.2,0.6,1.2,1.2v8.9
				C113.1,133.6,112.6,134.2,111.9,134.2z M83.6,131.7h27.1v-6.4H83.6V131.7z"/>
		</g>
		<g>
			<path class="st2" d="M101.7,129.7H86.2c-0.7,0-1.2-0.6-1.2-1.2s0.6-1.2,1.2-1.2h15.4c0.7,0,1.2,0.6,1.2,1.2
				S102.4,129.7,101.7,129.7z"/>
		</g>
	</g>
	<g>
		<path class="st2" d="M100,172.7c-40.1,0-72.7-32.6-72.7-72.7S59.9,27.3,100,27.3s72.7,32.6,72.7,72.7S140.1,172.7,100,172.7z
			 M100,31.3c-37.9,0-68.7,30.8-68.7,68.7c0,37.9,30.8,68.7,68.7,68.7c37.9,0,68.7-30.8,68.7-68.7C168.7,62.1,137.9,31.3,100,31.3z"
			/>
	</g>
</g>
</svg>
