<svg xmlns="http://www.w3.org/2000/svg" width="145.4" height="145.4" viewBox="0 0 145.4 145.4">
  <g id="Group_128" data-name="Group 128" transform="translate(-253.953 -859)">
    <g id="Group_107" data-name="Group 107" transform="translate(-304.073 61.95)">
      <g id="Group_80" data-name="Group 80" transform="translate(530.726 769.75)">
        <path id="Path_56" data-name="Path 56" d="M100,172.7A72.7,72.7,0,1,1,172.7,100,72.766,72.766,0,0,1,100,172.7Zm0-141.4A68.7,68.7,0,1,0,168.7,100,68.754,68.754,0,0,0,100,31.3Z" fill="#ff7271"/>
      </g>
      <g id="Group_105" data-name="Group 105">
        <g id="Group_101" data-name="Group 101" transform="translate(530.626 770.1)">
          <g id="Group_99" data-name="Group 99">
            <path id="Path_71" data-name="Path 71" d="M125,142.9H75.1a5.549,5.549,0,0,1-5.5-5.5V61.9a5.549,5.549,0,0,1,5.5-5.5h42a1.777,1.777,0,0,1,1,.4l12.1,13.5a1.136,1.136,0,0,1,.3.8v66.3A5.484,5.484,0,0,1,125,142.9Zm-49.9-84a3.009,3.009,0,0,0-3,3v75.5a3.009,3.009,0,0,0,3,3H125a3.009,3.009,0,0,0,3-3V71.6L116.7,58.9H75.1Z" fill="#ff7271"/>
          </g>
          <g id="Group_100" data-name="Group 100">
            <path id="Path_72" data-name="Path 72" d="M129.2,72.4h-8.8a5.549,5.549,0,0,1-5.5-5.5V58.1a1.3,1.3,0,0,1,2.6,0v8.8a3.009,3.009,0,0,0,3,3h8.8a1.255,1.255,0,1,1-.1,2.5Z" fill="#ff7271"/>
          </g>
        </g>
        <g id="Group_102" data-name="Group 102" transform="translate(530.626 770.1)">
          <path id="Path_73" data-name="Path 73" d="M114.8,92.1H81.7a1.324,1.324,0,0,1-1.3-1.3V82.6a1.324,1.324,0,0,1,1.3-1.3h33.1a1.324,1.324,0,0,1,1.3,1.3v8.2A1.321,1.321,0,0,1,114.8,92.1ZM83,89.6h30.5V84H83Z" fill="#ff7271"/>
        </g>
        <g id="Group_103" data-name="Group 103" transform="translate(530.626 770.1)">
          <path id="Path_74" data-name="Path 74" d="M114.8,106.8H81.7a1.324,1.324,0,0,1-1.3-1.3V97.3A1.324,1.324,0,0,1,81.7,96h33.1a1.324,1.324,0,0,1,1.3,1.3v8.2A1.321,1.321,0,0,1,114.8,106.8ZM83,104.3h30.5V98.7H83Z" fill="#ff7271"/>
        </g>
        <g id="Group_104" data-name="Group 104" transform="translate(530.626 770.1)">
          <path id="Path_75" data-name="Path 75" d="M114.8,121.5H81.7a1.324,1.324,0,0,1-1.3-1.3V112a1.324,1.324,0,0,1,1.3-1.3h33.1a1.324,1.324,0,0,1,1.3,1.3v8.2A1.321,1.321,0,0,1,114.8,121.5ZM83,119h30.5v-5.6H83Z" fill="#ff7271"/>
        </g>
      </g>
    </g>
  </g>
</svg>
