<?xml version="1.0" encoding="utf-8"?>
<!-- Generator: Adobe Illustrator 26.3.1, SVG Export Plug-In . SVG Version: 6.00 Build 0)  -->
<svg version="1.1" id="Layer_1" xmlns="http://www.w3.org/2000/svg" xmlns:xlink="http://www.w3.org/1999/xlink" x="0px" y="0px"
	 viewBox="0 0 200 200" style="enable-background:new 0 0 200 200;" xml:space="preserve">
<style type="text/css">
	.st0{fill:#0067FC;}
</style>
<g>
	<g>
		<g>
			<path class="st0" d="M118.2,143.2h-42c-3,0-5.5-2.5-5.5-5.5V90c0-0.7,0.6-1.2,1.2-1.2s1.2,0.6,1.2,1.2v47.7c0,1.7,1.3,3,3,3h41.5
				L129,128v-7c0-0.7,0.6-1.2,1.2-1.2s1.2,0.6,1.2,1.2v7.5c0,0.3-0.1,0.6-0.3,0.8l-12.1,13.5C118.9,143.1,118.6,143.2,118.2,143.2z"
				/>
		</g>
		<g>
			<path class="st0" d="M71.9,94.4c-0.7,0-1.2-0.6-1.2-1.2v-31c0-3,2.5-5.5,5.5-5.5H126c3,0,5.5,2.5,5.5,5.5v22.6
				c0,0.7-0.6,1.2-1.2,1.2s-1.2-0.6-1.2-1.2V62.2c0-1.7-1.3-3-3-3H76.2c-1.7,0-3,1.3-3,3v31C73.2,93.9,72.6,94.4,71.9,94.4z"/>
		</g>
		<g>
			<path class="st0" d="M117.2,142.8c-0.7,0-1.2-0.6-1.2-1.2v-8.8c0-3,2.5-5.5,5.5-5.5h8.8c0.7,0,1.2,0.6,1.2,1.2s-0.6,1.2-1.2,1.2
				h-8.8c-1.7,0-3,1.3-3,3v8.8C118.5,142.2,117.9,142.8,117.2,142.8z"/>
		</g>
		<g>
			<path class="st0" d="M130.3,121.6c-10,0-18.2-8.2-18.2-18.2s8.2-18.2,18.2-18.2s18.2,8.2,18.2,18.2S140.3,121.6,130.3,121.6z
				 M130.3,87.5c-8.7,0-15.9,7.1-15.9,15.9c0,8.7,7.1,15.9,15.9,15.9s15.9-7.1,15.9-15.9C146.1,94.7,139,87.5,130.3,87.5z"/>
		</g>
	</g>
	<g>
		<path class="st0" d="M128.2,110.2C128.1,110.2,128.1,110.2,128.2,110.2c-0.4,0-0.7-0.2-1-0.4L124,106c-0.4-0.5-0.4-1.3,0.1-1.8
			c0.5-0.4,1.3-0.4,1.8,0.1l2.3,2.7l8.7-8c0.5-0.5,1.3-0.4,1.8,0.1s0.4,1.3-0.1,1.8l-9.7,8.9C128.8,110,128.5,110.2,128.2,110.2z"/>
	</g>
	<g>
		<g>
			<path class="st0" d="M115.2,119.9h-27c-0.7,0-1.2-0.6-1.2-1.2s0.6-1.2,1.2-1.2h27c0.7,0,1.2,0.6,1.2,1.2S115.9,119.9,115.2,119.9
				z"/>
		</g>
		<g>
			<path class="st0" d="M115.2,127h-27c-0.7,0-1.2-0.6-1.2-1.2s0.6-1.2,1.2-1.2h27c0.7,0,1.2,0.6,1.2,1.2S115.9,127,115.2,127z"/>
		</g>
		<g>
			<path class="st0" d="M105.2,134h-17c-0.7,0-1.2-0.6-1.2-1.2s0.6-1.2,1.2-1.2h17c0.7,0,1.2,0.6,1.2,1.2S105.9,134,105.2,134z"/>
		</g>
		<g>
			<path class="st0" d="M81.3,121.3c-0.3,0-0.6-0.1-0.9-0.4l-1.4-1.4c-0.5-0.5-0.5-1.3,0-1.8c0.5-0.5,1.3-0.5,1.8,0l0.5,0.5l1.9-1.9
				c0.5-0.5,1.3-0.5,1.8,0s0.5,1.3,0,1.8l-2.8,2.8C81.9,121.2,81.6,121.3,81.3,121.3z"/>
		</g>
		<g>
			<path class="st0" d="M81.3,128.4c-0.3,0-0.6-0.1-0.9-0.4l-1.4-1.4c-0.5-0.5-0.5-1.3,0-1.8s1.3-0.5,1.8,0l0.5,0.5l1.9-1.9
				c0.5-0.5,1.3-0.5,1.8,0s0.5,1.3,0,1.8l-2.8,2.8C81.9,128.2,81.6,128.4,81.3,128.4z"/>
		</g>
		<g>
			<path class="st0" d="M81.3,134.8c-0.3,0-0.6-0.1-0.9-0.4l-1.4-1.4c-0.5-0.5-0.5-1.3,0-1.8c0.5-0.5,1.3-0.5,1.8,0l0.5,0.5l1.9-1.9
				c0.5-0.5,1.3-0.5,1.8,0s0.5,1.3,0,1.8l-2.8,2.8C81.9,134.7,81.6,134.8,81.3,134.8z"/>
		</g>
	</g>
	<g>
		<path class="st0" d="M100,172.7c-40.1,0-72.7-32.6-72.7-72.7S59.9,27.3,100,27.3s72.7,32.6,72.7,72.7S140.1,172.7,100,172.7z
			 M100,31.3c-37.9,0-68.7,30.8-68.7,68.7c0,37.9,30.8,68.7,68.7,68.7c37.9,0,68.7-30.8,68.7-68.7C168.7,62.1,137.9,31.3,100,31.3z"
			/>
	</g>
	<g>
		<path class="st0" d="M98.1,85.8H82.9c-0.6,0-1.2-0.5-1.2-1.2V69.8c0-0.6,0.5-1.2,1.2-1.2h15.2c0.6,0,1.2,0.5,1.2,1.2v14.8
			C99.3,85.2,98.7,85.8,98.1,85.8z M84,83.4h12.9V71H84V83.4z"/>
	</g>
	<g>
		<path class="st0" d="M108.2,99.7H82c-0.7,0-1.2-0.6-1.2-1.2v-6.8c0-0.7,0.6-1.2,1.2-1.2h26.2c0.7,0,1.2,0.6,1.2,1.2v6.8
			C109.4,99.1,108.9,99.7,108.2,99.7z M83.2,97.2h23.7v-4.3H83.2V97.2z"/>
	</g>
	<g>
		<path class="st0" d="M108.2,112.1H82c-0.7,0-1.2-0.6-1.2-1.2v-6.8c0-0.7,0.6-1.2,1.2-1.2h26.2c0.7,0,1.2,0.6,1.2,1.2v6.8
			C109.4,111.5,108.9,112.1,108.2,112.1z M83.2,109.6h23.7v-4.3H83.2V109.6z"/>
	</g>
	<g>
		<path class="st0" d="M120.5,85.9h-18.1c-0.7,0-1.3-0.6-1.3-1.3v-15c0-0.7,0.6-1.3,1.3-1.3h18.1c0.7,0,1.3,0.6,1.3,1.3v15
			C121.8,85.3,121.3,85.9,120.5,85.9z M103.7,83.3h15.5V70.8h-15.5V83.3z"/>
	</g>
</g>
</svg>
