<?xml version="1.0" encoding="utf-8"?>
<!-- Generator: Adobe Illustrator 26.4.0, SVG Export Plug-In . SVG Version: 6.00 Build 0)  -->
<svg version="1.1" id="Layer_1" xmlns="http://www.w3.org/2000/svg" xmlns:xlink="http://www.w3.org/1999/xlink" x="0px" y="0px"
	 viewBox="0 0 200 200" style="enable-background:new 0 0 200 200;" xml:space="preserve">
<style type="text/css">
	.st0{fill:#0067FC;}
</style>
<g>
	<g>
		<g>
			<path class="st0" d="M116.1,74.5h-27c-0.7,0-1.2-0.6-1.2-1.2s0.6-1.2,1.2-1.2h27c0.7,0,1.2,0.6,1.2,1.2S116.8,74.5,116.1,74.5z"
				/>
		</g>
		<g>
			<path class="st0" d="M116.1,81.6h-27c-0.7,0-1.2-0.6-1.2-1.2s0.6-1.2,1.2-1.2h27c0.7,0,1.2,0.6,1.2,1.2S116.8,81.6,116.1,81.6z"
				/>
		</g>
		<g>
			<path class="st0" d="M106.1,88.6h-17c-0.7,0-1.2-0.6-1.2-1.2s0.6-1.2,1.2-1.2h17c0.7,0,1.2,0.6,1.2,1.2S106.8,88.6,106.1,88.6z"
				/>
		</g>
		<g>
			<path class="st0" d="M82.2,75.9L82.2,75.9c-0.3,0-0.6-0.1-0.9-0.4l-1.4-1.4c-0.5-0.5-0.5-1.3,0-1.8c0.5-0.5,1.3-0.5,1.8,0
				l0.5,0.5l1.9-1.9c0.5-0.5,1.3-0.5,1.8,0s0.5,1.3,0,1.8L83,75.6C82.8,75.8,82.5,75.9,82.2,75.9z"/>
		</g>
		<g>
			<path class="st0" d="M82.2,83c-0.3,0-0.6-0.1-0.9-0.4l-1.4-1.4c-0.5-0.5-0.5-1.3,0-1.8s1.3-0.5,1.8,0l0.5,0.5l1.9-1.9
				c0.5-0.5,1.3-0.5,1.8,0s0.5,1.3,0,1.8L83,82.6C82.8,82.8,82.5,83,82.2,83z"/>
		</g>
		<g>
			<path class="st0" d="M82.2,89.4c-0.3,0-0.6-0.1-0.9-0.4l-1.4-1.4c-0.5-0.5-0.5-1.3,0-1.8s1.3-0.5,1.8,0l0.5,0.5l1.9-1.9
				c0.5-0.5,1.3-0.5,1.8,0s0.5,1.3,0,1.8L83,89.1C82.8,89.3,82.5,89.4,82.2,89.4z"/>
		</g>
	</g>
	<g>
		<g>
			<g>
				<path class="st0" d="M117.1,143.3h-42c-3,0-5.5-2.5-5.5-5.5V62.2c0-3,2.5-5.5,5.5-5.5h49.8c3,0,5.5,2.5,5.5,5.5v66.3
					c0,0.3-0.1,0.6-0.3,0.8L118,142.9C117.8,143.1,117.5,143.3,117.1,143.3z M72.1,93.2v44.6c0,1.7,1.3,3,3,3h41.5l11.4-12.8V62.2
					c0-1.7-1.3-3-3-3H75.1c-1.7,0-3,1.3-3,3V93.2z"/>
			</g>
			<g>
				<path class="st0" d="M116.1,142.8c-0.7,0-1.2-0.6-1.2-1.2v-8.8c0-3,2.5-5.5,5.5-5.5h8.8c0.7,0,1.2,0.6,1.2,1.2s-0.6,1.2-1.2,1.2
					h-8.8c-1.7,0-3,1.3-3,3v8.8C117.4,142.3,116.8,142.8,116.1,142.8z"/>
			</g>
		</g>
		<g>
			<g>
				<path class="st0" d="M133.1,123.9h-2.3c-0.7,0-1.2-0.6-1.2-1.2s0.6-1.2,1.2-1.2h2.3c1.7,0,3-1.3,3-3V83.2c0-0.7,0.6-1.2,1.2-1.2
					s1.2,0.6,1.2,1.2v35.2C138.6,121.5,136.1,123.9,133.1,123.9z"/>
			</g>
			<g>
				<path class="st0" d="M137.3,87.6c-0.7,0-1.2-0.6-1.2-1.2v-31c0-1.7-1.3-3-3-3H83.2c-1.7,0-3,1.3-3,3V58c0,0.7-0.6,1.2-1.2,1.2
					s-1.2-0.6-1.2-1.2v-2.6c0-3,2.5-5.5,5.5-5.5h49.8c3,0,5.5,2.5,5.5,5.5v31C138.6,87.1,138,87.6,137.3,87.6z"/>
			</g>
		</g>
		<g>
			<path class="st0" d="M119.8,106.2H80.2c-0.7,0-1.2-0.6-1.2-1.2V96c0-0.7,0.6-1.2,1.2-1.2h39.6c0.7,0,1.2,0.6,1.2,1.2v8.9
				C121,105.7,120.5,106.2,119.8,106.2z M81.5,103.7h37.1v-6.4H81.5V103.7z"/>
		</g>
		<g>
			<path class="st0" d="M119.8,121.2H80.2c-0.7,0-1.2-0.6-1.2-1.2V111c0-0.7,0.6-1.2,1.2-1.2h39.6c0.7,0,1.2,0.6,1.2,1.2v8.9
				C121,120.7,120.5,121.2,119.8,121.2z M81.5,118.7h37.1v-6.4H81.5V118.7z"/>
		</g>
		<g>
			<path class="st0" d="M100,136.6H80.2c-0.7,0-1.2-0.6-1.2-1.2v-8.9c0-0.7,0.6-1.2,1.2-1.2H100c0.7,0,1.2,0.6,1.2,1.2v8.9
				C101.2,136.1,100.7,136.6,100,136.6z M81.5,134.1h17.3v-6.4H81.5V134.1z"/>
		</g>
		<g>
			<path class="st0" d="M100,172.7c-40.1,0-72.7-32.6-72.7-72.7S59.9,27.3,100,27.3s72.7,32.6,72.7,72.7S140.1,172.7,100,172.7z
				 M100,31.3c-37.9,0-68.7,30.8-68.7,68.7c0,37.9,30.8,68.7,68.7,68.7c37.9,0,68.7-30.8,68.7-68.7C168.7,62.1,137.9,31.3,100,31.3z
				"/>
		</g>
	</g>
</g>
</svg>
