<?xml version="1.0" encoding="utf-8"?>
<!-- Generator: Adobe Illustrator 26.3.1, SVG Export Plug-In . SVG Version: 6.00 Build 0)  -->
<svg version="1.1" id="Layer_1" xmlns="http://www.w3.org/2000/svg" xmlns:xlink="http://www.w3.org/1999/xlink" x="0px" y="0px"
	 viewBox="0 0 200 200" style="enable-background:new 0 0 200 200;" xml:space="preserve">
<style type="text/css">
	.st0{fill:#0067FC;}
</style>
<g>
	<g>
		<g>
			<path class="st0" d="M117.1,143.3h-42c-3,0-5.5-2.5-5.5-5.5V62.2c0-3,2.5-5.5,5.5-5.5h49.8c3,0,5.5,2.5,5.5,5.5v66.3
				c0,0.3-0.1,0.6-0.3,0.8L118,142.9C117.8,143.1,117.5,143.3,117.1,143.3z M72.1,93.2v44.6c0,1.7,1.3,3,3,3h41.5l11.4-12.8V62.2
				c0-1.7-1.3-3-3-3H75.1c-1.7,0-3,1.3-3,3V93.2z"/>
		</g>
		<g>
			<path class="st0" d="M116.1,142.8c-0.7,0-1.2-0.6-1.2-1.2v-8.8c0-3,2.5-5.5,5.5-5.5h8.8c0.7,0,1.2,0.6,1.2,1.2s-0.6,1.2-1.2,1.2
				h-8.8c-1.7,0-3,1.3-3,3v8.8C117.4,142.3,116.8,142.8,116.1,142.8z"/>
		</g>
	</g>
	<g>
		<g>
			<path class="st0" d="M133.1,123.9h-2.3c-0.7,0-1.2-0.6-1.2-1.2s0.6-1.2,1.2-1.2h2.3c1.7,0,3-1.3,3-3V83.2c0-0.7,0.6-1.2,1.2-1.2
				s1.2,0.6,1.2,1.2v35.2C138.6,121.5,136.1,123.9,133.1,123.9z"/>
		</g>
		<g>
			<path class="st0" d="M137.3,87.6c-0.7,0-1.2-0.6-1.2-1.2v-31c0-1.7-1.3-3-3-3H83.2c-1.7,0-3,1.3-3,3V58c0,0.7-0.6,1.2-1.2,1.2
				s-1.2-0.6-1.2-1.2v-2.6c0-3,2.5-5.5,5.5-5.5h49.8c3,0,5.5,2.5,5.5,5.5v31C138.6,87.1,138,87.6,137.3,87.6z"/>
		</g>
	</g>
	<g>
		<path class="st0" d="M119.8,83.9H80.2c-0.7,0-1.2-0.6-1.2-1.2v-8.9c0-0.7,0.6-1.2,1.2-1.2h39.6c0.7,0,1.2,0.6,1.2,1.2v8.9
			C121,83.3,120.5,83.9,119.8,83.9z M81.5,81.4h37.1v-6.4H81.5V81.4z"/>
	</g>
	<g>
		<path class="st0" d="M119.8,98.9H80.2c-0.7,0-1.2-0.6-1.2-1.2v-8.9c0-0.7,0.6-1.2,1.2-1.2h39.6c0.7,0,1.2,0.6,1.2,1.2v8.9
			C121,98.3,120.5,98.9,119.8,98.9z M81.5,96.4h37.1v-6.4H81.5V96.4z"/>
	</g>
	<g>
		<path class="st0" d="M119.8,113.8H80.2c-0.7,0-1.2-0.6-1.2-1.2v-8.9c0-0.7,0.6-1.2,1.2-1.2h39.6c0.7,0,1.2,0.6,1.2,1.2v8.9
			C121,113.2,120.5,113.8,119.8,113.8z M81.5,111.3h37.1v-6.4H81.5V111.3z"/>
	</g>
	<g>
		<path class="st0" d="M100,128.6H80.2c-0.7,0-1.2-0.6-1.2-1.2v-8.9c0-0.7,0.6-1.2,1.2-1.2H100c0.7,0,1.2,0.6,1.2,1.2v8.9
			C101.2,128.1,100.7,128.6,100,128.6z M81.5,126.1h17.3v-6.4H81.5V126.1z"/>
	</g>
	<g>
		<path class="st0" d="M100,172.7c-40.1,0-72.7-32.6-72.7-72.7S59.9,27.3,100,27.3s72.7,32.6,72.7,72.7S140.1,172.7,100,172.7z
			 M100,31.3c-37.9,0-68.7,30.8-68.7,68.7c0,37.9,30.8,68.7,68.7,68.7c37.9,0,68.7-30.8,68.7-68.7C168.7,62.1,137.9,31.3,100,31.3z"
			/>
	</g>
</g>
</svg>
