<?xml version="1.0" encoding="utf-8"?>
<!-- Generator: Adobe Illustrator 26.3.1, SVG Export Plug-In . SVG Version: 6.00 Build 0)  -->
<svg version="1.1" id="Layer_1" xmlns="http://www.w3.org/2000/svg" xmlns:xlink="http://www.w3.org/1999/xlink" x="0px" y="0px"
	 viewBox="0 0 200 200" style="enable-background:new 0 0 200 200;" xml:space="preserve">
<style type="text/css">
	.st0{fill:#0067FC;}
</style>
<g>
	<g>
		<g>
			<path class="st0" d="M100,122.1c-5.9,0-10.8-4.8-10.8-10.8s4.8-10.8,10.8-10.8s10.8,4.8,10.8,10.8S105.9,122.1,100,122.1z
				 M100,103.1c-4.6,0-8.3,3.7-8.3,8.3c0,4.6,3.7,8.3,8.3,8.3c4.6,0,8.3-3.7,8.3-8.3C108.3,106.8,104.6,103.1,100,103.1z"/>
		</g>
		<g>
			<path class="st0" d="M98.2,116c-0.3,0-0.6-0.1-0.9-0.4l-2-2c-0.5-0.5-0.5-1.3,0-1.8c0.5-0.5,1.3-0.5,1.8,0l1.1,1.1l4.8-5.8
				c0.4-0.5,1.2-0.6,1.8-0.2c0.5,0.4,0.6,1.2,0.2,1.8l-5.7,6.9C98.9,115.9,98.6,116,98.2,116C98.2,116,98.2,116,98.2,116z"/>
		</g>
	</g>
	<g>
		<path class="st0" d="M117.3,138.6H82.7c-3.4,0-6.1-2.7-6.1-6.1V67.5c0-3.4,2.7-6.1,6.1-6.1h34.7c3.4,0,6.1,2.7,6.1,6.1v65.1
			C123.4,135.9,120.7,138.6,117.3,138.6z M82.7,63.9c-2,0-3.6,1.6-3.6,3.6v65.1c0,2,1.6,3.6,3.6,3.6h34.7c2,0,3.6-1.6,3.6-3.6V67.5
			c0-2-1.6-3.6-3.6-3.6H82.7z"/>
	</g>
	<g>
		<circle class="st0" cx="100" cy="132.3" r="2.1"/>
	</g>
	<g>
		<path class="st0" d="M105.6,69.1H94.4c-0.6,0-1.2-0.5-1.2-1.2v0c0-0.6,0.5-1.2,1.2-1.2h11.3c0.6,0,1.2,0.5,1.2,1.2v0
			C106.8,68.6,106.3,69.1,105.6,69.1z"/>
	</g>
	<g>
		<path class="st0" d="M100,172.7c-40.1,0-72.7-32.6-72.7-72.7S59.9,27.3,100,27.3s72.7,32.6,72.7,72.7S140.1,172.7,100,172.7z
			 M100,31.3c-37.9,0-68.7,30.8-68.7,68.7c0,37.9,30.8,68.7,68.7,68.7c37.9,0,68.7-30.8,68.7-68.7C168.7,62.1,137.9,31.3,100,31.3z"
			/>
	</g>
	<g>
		<path class="st0" d="M114.6,83.9H85.4c-0.7,0-1.2-0.6-1.2-1.2V77c0-0.7,0.6-1.2,1.2-1.2h29.2c0.7,0,1.2,0.6,1.2,1.2v5.7
			C115.9,83.4,115.3,83.9,114.6,83.9z M86.6,81.4h26.7v-3.2H86.6V81.4z"/>
	</g>
	<g>
		<path class="st0" d="M114.6,95.4H85.4c-0.7,0-1.2-0.6-1.2-1.2v-5.7c0-0.7,0.6-1.2,1.2-1.2h29.2c0.7,0,1.2,0.6,1.2,1.2v5.7
			C115.9,94.9,115.3,95.4,114.6,95.4z M86.6,92.9h26.7v-3.2H86.6V92.9z"/>
	</g>
</g>
</svg>
