<?xml version="1.0" encoding="utf-8"?>
<!-- Generator: Adobe Illustrator 26.3.1, SVG Export Plug-In . SVG Version: 6.00 Build 0)  -->
<svg version="1.1" id="Layer_1" xmlns="http://www.w3.org/2000/svg" xmlns:xlink="http://www.w3.org/1999/xlink" x="0px" y="0px"
	 viewBox="0 0 200 200" style="enable-background:new 0 0 200 200;" xml:space="preserve">
<style type="text/css">
	.st0{fill:#0067FC;}
</style>
<g>
	<g>
		<g>
			<g>
				<path class="st0" d="M117.2,143.3h-42c-3,0-5.5-2.5-5.5-5.5V62.2c0-3,2.5-5.5,5.5-5.5H125c3,0,5.5,2.5,5.5,5.5v66.3
					c0,0.3-0.1,0.6-0.3,0.8l-12.1,13.5C117.9,143.1,117.5,143.3,117.2,143.3z M72.1,93.2v44.6c0,1.7,1.3,3,3,3h41.5L128,128V62.2
					c0-1.7-1.3-3-3-3H75.1c-1.7,0-3,1.3-3,3V93.2z"/>
			</g>
			<g>
				<path class="st0" d="M116.2,142.8c-0.7,0-1.2-0.6-1.2-1.2v-8.8c0-3,2.5-5.5,5.5-5.5h8.8c0.7,0,1.2,0.6,1.2,1.2s-0.6,1.2-1.2,1.2
					h-8.8c-1.7,0-3,1.3-3,3v8.8C117.4,142.3,116.8,142.8,116.2,142.8z"/>
			</g>
		</g>
		<g>
			<g>
				<path class="st0" d="M117.7,113.2h-27c-0.7,0-1.2-0.6-1.2-1.2s0.6-1.2,1.2-1.2h27c0.7,0,1.2,0.6,1.2,1.2
					S118.4,113.2,117.7,113.2z"/>
			</g>
			<g>
				<path class="st0" d="M117.7,120.2h-27c-0.7,0-1.2-0.6-1.2-1.2s0.6-1.2,1.2-1.2h27c0.7,0,1.2,0.6,1.2,1.2
					S118.4,120.2,117.7,120.2z"/>
			</g>
			<g>
				<path class="st0" d="M107.7,127.3h-17c-0.7,0-1.2-0.6-1.2-1.2s0.6-1.2,1.2-1.2h17c0.7,0,1.2,0.6,1.2,1.2
					S108.4,127.3,107.7,127.3z"/>
			</g>
			<g>
				<path class="st0" d="M83.8,114.6L83.8,114.6c-0.3,0-0.6-0.1-0.9-0.4l-1.4-1.4c-0.5-0.5-0.5-1.3,0-1.8s1.3-0.5,1.8,0l0.5,0.5
					l1.9-1.9c0.5-0.5,1.3-0.5,1.8,0s0.5,1.3,0,1.8l-2.8,2.8C84.4,114.5,84.1,114.6,83.8,114.6z"/>
			</g>
			<g>
				<path class="st0" d="M83.8,121.6L83.8,121.6c-0.3,0-0.6-0.1-0.9-0.4l-1.4-1.4c-0.5-0.5-0.5-1.3,0-1.8s1.3-0.5,1.8,0l0.5,0.5
					l1.9-1.9c0.5-0.5,1.3-0.5,1.8,0s0.5,1.3,0,1.8l-2.8,2.8C84.4,121.5,84.1,121.6,83.8,121.6z"/>
			</g>
			<g>
				<path class="st0" d="M83.8,128.1c-0.3,0-0.6-0.1-0.9-0.4l-1.4-1.4c-0.5-0.5-0.5-1.3,0-1.8c0.5-0.5,1.3-0.5,1.8,0l0.5,0.5
					l1.9-1.9c0.5-0.5,1.3-0.5,1.8,0c0.5,0.5,0.5,1.3,0,1.8l-2.8,2.8C84.4,128,84.1,128.1,83.8,128.1z"/>
			</g>
		</g>
	</g>
	<g>
		<path class="st0" d="M100,172.7c-40.1,0-72.7-32.6-72.7-72.7S59.9,27.3,100,27.3s72.7,32.6,72.7,72.7S140.1,172.7,100,172.7z
			 M100,31.3c-37.9,0-68.7,30.8-68.7,68.7c0,37.9,30.8,68.7,68.7,68.7c37.9,0,68.7-30.8,68.7-68.7C168.7,62.1,137.9,31.3,100,31.3z"
			/>
	</g>
	<g>
		<g>
			<path class="st0" d="M100,99.1c-7.2,0-13.1-5.9-13.1-13.1c0-7.2,5.9-13.1,13.1-13.1s13.1,5.9,13.1,13.1
				C113.1,93.3,107.2,99.1,100,99.1z M100,75.5c-5.8,0-10.6,4.7-10.6,10.6c0,5.8,4.7,10.6,10.6,10.6c5.8,0,10.6-4.7,10.6-10.6
				C110.6,80.2,105.8,75.5,100,75.5z"/>
		</g>
		<g>
			<path class="st0" d="M100,104.5c-0.7,0-1.2-0.6-1.2-1.2v-5.3c0-0.7,0.6-1.2,1.2-1.2s1.2,0.6,1.2,1.2v5.3
				C101.3,103.9,100.7,104.5,100,104.5z"/>
		</g>
		<g>
			<path class="st0" d="M100,75.5c-0.7,0-1.2-0.6-1.2-1.2v-5.3c0-0.7,0.6-1.2,1.2-1.2s1.2,0.6,1.2,1.2v5.3
				C101.3,74.9,100.7,75.5,100,75.5z"/>
		</g>
		<g>
			<path class="st0" d="M117.2,87.3h-5.3c-0.7,0-1.2-0.6-1.2-1.2s0.6-1.2,1.2-1.2h5.3c0.7,0,1.2,0.6,1.2,1.2S117.9,87.3,117.2,87.3z
				"/>
		</g>
		<g>
			<path class="st0" d="M88.2,87.3h-5.3c-0.7,0-1.2-0.6-1.2-1.2s0.6-1.2,1.2-1.2h5.3c0.7,0,1.2,0.6,1.2,1.2S88.9,87.3,88.2,87.3z"/>
		</g>
		<g>
			<path class="st0" d="M100,92.7c-3.7,0-6.7-3-6.7-6.7c0-3.7,3-6.7,6.7-6.7s6.7,3,6.7,6.7C106.7,89.7,103.7,92.7,100,92.7z
				 M100,81.9c-2.3,0-4.2,1.9-4.2,4.2c0,2.3,1.9,4.2,4.2,4.2c2.3,0,4.2-1.9,4.2-4.2C104.2,83.7,102.3,81.9,100,81.9z"/>
		</g>
	</g>
</g>
</svg>
