<?xml version="1.0" encoding="utf-8"?>
<!-- Generator: Adobe Illustrator 26.4.0, SVG Export Plug-In . SVG Version: 6.00 Build 0)  -->
<svg version="1.1" id="Layer_1" xmlns="http://www.w3.org/2000/svg" xmlns:xlink="http://www.w3.org/1999/xlink" x="0px" y="0px"
	 viewBox="0 0 200 200" style="enable-background:new 0 0 200 200;" xml:space="preserve">
<style type="text/css">
	.st0{fill:#0067FC;}
</style>
<g>
	<g>
		<g>
			<path class="st0" d="M117.1,143.3h-42c-3,0-5.5-2.5-5.5-5.5V62.2c0-3,2.5-5.5,5.5-5.5h49.8c3,0,5.5,2.5,5.5,5.5v66.3
				c0,0.3-0.1,0.6-0.3,0.8L118,142.9C117.8,143.1,117.5,143.3,117.1,143.3z M72.1,93.2v44.6c0,1.7,1.3,3,3,3h41.5l11.4-12.8V62.2
				c0-1.7-1.3-3-3-3H75.1c-1.7,0-3,1.3-3,3V93.2z"/>
		</g>
		<g>
			<path class="st0" d="M116.1,142.8c-0.7,0-1.2-0.6-1.2-1.2v-8.8c0-3,2.5-5.5,5.5-5.5h8.8c0.7,0,1.2,0.6,1.2,1.2s-0.6,1.2-1.2,1.2
				h-8.8c-1.7,0-3,1.3-3,3v8.8C117.4,142.3,116.8,142.8,116.1,142.8z"/>
		</g>
	</g>
	<g>
		<path class="st0" d="M114.1,100.6H80.5c-0.7,0-1.2-0.6-1.2-1.2s0.6-1.2,1.2-1.2h33.6c0.7,0,1.2,0.6,1.2,1.2
			S114.8,100.6,114.1,100.6z"/>
	</g>
	<g>
		<path class="st0" d="M112.1,107.6H80.5c-0.7,0-1.2-0.6-1.2-1.2s0.6-1.2,1.2-1.2h31.6c0.7,0,1.2,0.6,1.2,1.2
			S112.8,107.6,112.1,107.6z"/>
	</g>
	<g>
		<path class="st0" d="M110.1,114.7H80.5c-0.7,0-1.2-0.6-1.2-1.2s0.6-1.2,1.2-1.2h29.6c0.7,0,1.2,0.6,1.2,1.2
			S110.8,114.7,110.1,114.7z"/>
	</g>
	<g>
		<path class="st0" d="M106.1,121.7H80.5c-0.7,0-1.2-0.6-1.2-1.2s0.6-1.2,1.2-1.2h25.6c0.7,0,1.2,0.6,1.2,1.2
			S106.8,121.7,106.1,121.7z"/>
	</g>
	<g>
		<path class="st0" d="M99.1,128.8H80.5c-0.7,0-1.2-0.6-1.2-1.2s0.6-1.2,1.2-1.2h18.6c0.7,0,1.2,0.6,1.2,1.2S99.8,128.8,99.1,128.8z
			"/>
	</g>
	<g>
		<path class="st0" d="M103.5,75.2H84.9c-0.7,0-1.2-0.6-1.2-1.2s0.6-1.2,1.2-1.2h18.6c0.7,0,1.2,0.6,1.2,1.2S104.1,75.2,103.5,75.2z
			"/>
	</g>
	<g>
		<path class="st0" d="M103.5,80.5H84.9c-0.7,0-1.2-0.6-1.2-1.2s0.6-1.2,1.2-1.2h18.6c0.7,0,1.2,0.6,1.2,1.2S104.1,80.5,103.5,80.5z
			"/>
	</g>
	<g>
		<path class="st0" d="M103.5,85.7H84.9c-0.7,0-1.2-0.6-1.2-1.2s0.6-1.2,1.2-1.2h18.6c0.7,0,1.2,0.6,1.2,1.2S104.1,85.7,103.5,85.7z
			"/>
	</g>
	<g>
		<path class="st0" d="M100,172.7c-40.1,0-72.7-32.6-72.7-72.7S59.9,27.3,100,27.3s72.7,32.6,72.7,72.7S140.1,172.7,100,172.7z
			 M100,31.3c-37.9,0-68.7,30.8-68.7,68.7c0,37.9,30.8,68.7,68.7,68.7c37.9,0,68.7-30.8,68.7-68.7C168.7,62.1,137.9,31.3,100,31.3z"
			/>
	</g>
	<g>
		<path class="st0" d="M120.7,90.7H80.5c-0.7,0-1.2-0.6-1.2-1.2V69c0-0.7,0.6-1.2,1.2-1.2h40.2c0.7,0,1.2,0.6,1.2,1.2v20.5
			C121.9,90.2,121.4,90.7,120.7,90.7z M81.8,88.2h37.7v-18H81.8V88.2z"/>
	</g>
</g>
</svg>
