<?xml version="1.0" encoding="utf-8"?>
<!-- Generator: Adobe Illustrator 26.4.0, SVG Export Plug-In . SVG Version: 6.00 Build 0)  -->
<svg version="1.1" id="Layer_1" xmlns="http://www.w3.org/2000/svg" xmlns:xlink="http://www.w3.org/1999/xlink" x="0px" y="0px"
	 viewBox="0 0 200 200" style="enable-background:new 0 0 200 200;" xml:space="preserve">
<style type="text/css">
	.st0{fill:#0067FC;}
</style>
<g>
	<g>
		<g id="Group_263_00000002355346896097065190000011449802948087565216_" transform="translate(-598.5 -520.001)">
			<g id="Group_259_00000158751269004248508870000002282728039418442626_" transform="translate(549.903 487.744)">
				<g id="Ellipse_9_00000046304413756881230070000011567672100554593193_">
					<path class="st0" d="M147.6,112c-5.5,0-10-4.5-10-10s4.5-10,10-10c5.5,0,10,4.5,10,10S153.1,112,147.6,112z M147.6,94.5
						c-4.1,0-7.5,3.4-7.5,7.5s3.4,7.5,7.5,7.5s7.5-3.4,7.5-7.5S151.7,94.5,147.6,94.5z"/>
				</g>
				<g id="Path_16_00000176725970449951079410000006117354185462107295_">
					<path class="st0" d="M161.8,128.6c-0.7,0-1.2-0.6-1.2-1.2c0-7.2-5.8-13-13-13c-7.2,0-13,5.8-13,13c0,0.7-0.6,1.2-1.2,1.2
						s-1.2-0.6-1.2-1.2c0-8.5,6.9-15.5,15.5-15.5s15.5,6.9,15.5,15.5C163.1,128,162.5,128.6,161.8,128.6z"/>
				</g>
			</g>
		</g>
		<g id="Group_263_00000003819042170587091380000012584323425190387331_" transform="translate(-598.5 -520.001)">
			<g id="Group_259_00000000180701741874217740000015961094372400286851_" transform="translate(549.903 487.744)">
				<g id="Ellipse_9_00000094582880737485660680000009103701163849250495_">
					<path class="st0" d="M171.2,147.9c-5.5,0-10-4.5-10-10c0-5.5,4.5-10,10-10s10,4.5,10,10C181.2,143.4,176.7,147.9,171.2,147.9z
						 M171.2,130.4c-4.1,0-7.5,3.4-7.5,7.5s3.4,7.5,7.5,7.5s7.5-3.4,7.5-7.5S175.3,130.4,171.2,130.4z"/>
				</g>
				<g id="Path_16_00000166665475348691665300000017495705358334453908_">
					<path class="st0" d="M185.4,164.5c-0.7,0-1.2-0.6-1.2-1.2c0-7.2-5.8-13-13-13s-13,5.8-13,13c0,0.7-0.6,1.2-1.2,1.2
						s-1.2-0.6-1.2-1.2c0-8.5,6.9-15.5,15.5-15.5c8.5,0,15.5,6.9,15.5,15.5C186.7,163.9,186.1,164.5,185.4,164.5z"/>
				</g>
			</g>
		</g>
		<g id="Group_263_00000031175164137685284510000011981701527361547437_" transform="translate(-598.5 -520.001)">
			<g id="Group_259_00000065053205387835153130000007534662855724828552_" transform="translate(549.903 487.744)">
				<g id="Ellipse_9_00000001635633788790314360000008799379534250724748_">
					<path class="st0" d="M126,147.8c-5.5,0-10-4.5-10-10c0-5.5,4.5-10,10-10s10,4.5,10,10C136,143.3,131.5,147.8,126,147.8z
						 M126,130.3c-4.1,0-7.5,3.4-7.5,7.5s3.4,7.5,7.5,7.5s7.5-3.4,7.5-7.5S130.1,130.3,126,130.3z"/>
				</g>
				<g id="Path_16_00000152954790237861750580000014748326319772582272_">
					<path class="st0" d="M140.3,164.3c-0.7,0-1.2-0.6-1.2-1.2c0-7.2-5.8-13-13-13c-7.2,0-13,5.8-13,13c0,0.7-0.6,1.2-1.2,1.2
						s-1.2-0.6-1.2-1.2c0-8.5,6.9-15.5,15.5-15.5c8.5,0,15.5,6.9,15.5,15.5C141.5,163.8,140.9,164.3,140.3,164.3z"/>
				</g>
			</g>
		</g>
		<g>
			<path class="st0" d="M99.3,116.3c-2.7,0-5.3-0.4-7.7-1.3c-0.7-0.2-1-0.9-0.8-1.6c0.2-0.7,0.9-1,1.6-0.8c4.2,1.5,9,1.6,13.3,0.2
				c0.7-0.2,1.4,0.1,1.6,0.8c0.2,0.7-0.1,1.4-0.8,1.6C104.1,115.9,101.7,116.3,99.3,116.3z"/>
		</g>
		<g>
			<path class="st0" d="M128.8,91.9c-0.7,0-1.2-0.6-1.2-1.2c0-7.6-3.8-14.6-10.1-18.7c-0.6-0.4-0.7-1.2-0.4-1.7
				c0.4-0.6,1.2-0.7,1.7-0.4c7,4.6,11.2,12.4,11.2,20.8C130,91.4,129.5,91.9,128.8,91.9z"/>
		</g>
		<g>
			<path class="st0" d="M67.8,94.1c-0.7,0-1.2-0.6-1.2-1.2c0-1.1,0.1-2.3,0.2-3.4c1-8.3,6.2-15.5,13.7-19.2c0.6-0.3,1.4,0,1.7,0.6
				c0.3,0.6,0,1.4-0.6,1.7c-6.8,3.3-11.4,9.8-12.4,17.3c-0.1,1-0.2,2-0.2,3C69.1,93.5,68.5,94.1,67.8,94.1
				C67.8,94.1,67.8,94.1,67.8,94.1z"/>
		</g>
	</g>
	<g>
		<path class="st0" d="M100,172.7c-40.1,0-72.7-32.6-72.7-72.7S59.9,27.3,100,27.3s72.7,32.6,72.7,72.7S140.1,172.7,100,172.7z
			 M100,31.3c-37.9,0-68.7,30.8-68.7,68.7c0,37.9,30.8,68.7,68.7,68.7c37.9,0,68.7-30.8,68.7-68.7C168.7,62.1,137.9,31.3,100,31.3z"
			/>
	</g>
</g>
</svg>
