<?xml version="1.0" encoding="utf-8"?>
<!-- Generator: Adobe Illustrator 26.3.1, SVG Export Plug-In . SVG Version: 6.00 Build 0)  -->
<svg version="1.1" id="Layer_1" xmlns="http://www.w3.org/2000/svg" xmlns:xlink="http://www.w3.org/1999/xlink" x="0px" y="0px"
	 viewBox="0 0 200 200" style="enable-background:new 0 0 200 200;" xml:space="preserve">
<style type="text/css">
	.st0{fill:#0067FC;}
	.st1{fill:#0767FC;}
</style>
<g>
	<g>
		<path class="st0" d="M118.1,88.3c-0.6,0-1.1-0.4-1.2-1l-0.4-2.2l-2.1,0.4c-0.7,0.1-1.3-0.3-1.5-1s0.3-1.3,1-1.5l3.3-0.6
			c0.7-0.1,1.3,0.3,1.5,1l0.6,3.4c0.1,0.7-0.3,1.3-1,1.5C118.2,88.3,118.2,88.3,118.1,88.3z"/>
	</g>
	<g>
		<path class="st0" d="M84.4,108.8c-0.3,0-0.7-0.1-0.9-0.4c-0.5-0.5-0.4-1.3,0.1-1.8l16.1-14.9c0.3-0.3,0.8-0.4,1.2-0.3
			c0.4,0.1,0.7,0.5,0.9,0.9l1.3,4.9l12.8-13.1c0.5-0.5,1.3-0.5,1.8,0s0.5,1.3,0,1.8l-14.3,14.6c-0.3,0.3-0.8,0.4-1.2,0.3
			c-0.4-0.1-0.8-0.5-0.9-0.9l-1.3-5l-14.6,13.5C85,108.7,84.7,108.8,84.4,108.8z"/>
	</g>
	<g>
		<path class="st0" d="M120.3,80.2H80.8c-0.7,0-1.2-0.6-1.2-1.2V70c0-0.7,0.6-1.2,1.2-1.2h39.6c0.7,0,1.2,0.6,1.2,1.2V79
			C121.6,79.7,121,80.2,120.3,80.2z M82,77.7h37.1v-6.4H82V77.7z"/>
	</g>
	<g>
		<path class="st0" d="M101.2,75.8H85.8c-0.7,0-1.2-0.6-1.2-1.2s0.6-1.2,1.2-1.2h15.4c0.7,0,1.2,0.6,1.2,1.2S101.9,75.8,101.2,75.8z
			"/>
	</g>
	<g>
		<g>
			<path class="st0" d="M117.1,143.3h-42c-3,0-5.5-2.5-5.5-5.5V62.2c0-3,2.5-5.5,5.5-5.5h49.8c3,0,5.5,2.5,5.5,5.5v66.3
				c0,0.3-0.1,0.6-0.3,0.8L118,142.9C117.8,143.1,117.5,143.3,117.1,143.3z M72.1,93.2v44.6c0,1.7,1.3,3,3,3h41.5l11.4-12.8V62.2
				c0-1.7-1.3-3-3-3H75.1c-1.7,0-3,1.3-3,3V93.2z"/>
		</g>
		<g>
			<path class="st0" d="M116.1,142.8c-0.7,0-1.2-0.6-1.2-1.2v-8.8c0-3,2.5-5.5,5.5-5.5h8.8c0.7,0,1.2,0.6,1.2,1.2s-0.6,1.2-1.2,1.2
				h-8.8c-1.7,0-3,1.3-3,3v8.8C117.4,142.3,116.8,142.8,116.1,142.8z"/>
		</g>
	</g>
	<g>
		<g>
			<path class="st0" d="M117.7,114h-27c-0.7,0-1.2-0.6-1.2-1.2s0.6-1.2,1.2-1.2h27c0.7,0,1.2,0.6,1.2,1.2S118.4,114,117.7,114z"/>
		</g>
		<g>
			<path class="st0" d="M117.7,121.1h-27c-0.7,0-1.2-0.6-1.2-1.2s0.6-1.2,1.2-1.2h27c0.7,0,1.2,0.6,1.2,1.2S118.4,121.1,117.7,121.1
				z"/>
		</g>
		<g>
			<path class="st0" d="M107.7,128.1h-17c-0.7,0-1.2-0.6-1.2-1.2s0.6-1.2,1.2-1.2h17c0.7,0,1.2,0.6,1.2,1.2S108.4,128.1,107.7,128.1
				z"/>
		</g>
		<g>
			<path class="st0" d="M83.7,115.4c-0.3,0-0.6-0.1-0.9-0.4l-1.4-1.4c-0.5-0.5-0.5-1.3,0-1.8s1.3-0.5,1.8,0l0.5,0.5l1.9-1.9
				c0.5-0.5,1.3-0.5,1.8,0s0.5,1.3,0,1.8l-2.8,2.8C84.4,115.3,84.1,115.4,83.7,115.4z"/>
		</g>
		<g>
			<path class="st0" d="M83.7,122.5c-0.3,0-0.6-0.1-0.9-0.4l-1.4-1.4c-0.5-0.5-0.5-1.3,0-1.8s1.3-0.5,1.8,0l0.5,0.5l1.9-1.9
				c0.5-0.5,1.3-0.5,1.8,0s0.5,1.3,0,1.8l-2.8,2.8C84.4,122.3,84.1,122.5,83.7,122.5z"/>
		</g>
		<g>
			<path class="st0" d="M83.7,128.9c-0.3,0-0.6-0.1-0.9-0.4l-1.4-1.4c-0.5-0.5-0.5-1.3,0-1.8c0.5-0.5,1.3-0.5,1.8,0l0.5,0.5l1.9-1.9
				c0.5-0.5,1.3-0.5,1.8,0s0.5,1.3,0,1.8l-2.8,2.8C84.4,128.8,84,128.9,83.7,128.9z"/>
		</g>
	</g>
	<g>
		<path class="st0" d="M100,172.7c-40.1,0-72.7-32.6-72.7-72.7S59.9,27.3,100,27.3s72.7,32.6,72.7,72.7S140.1,172.7,100,172.7z
			 M100,31.3c-37.9,0-68.7,30.8-68.7,68.7c0,37.9,30.8,68.7,68.7,68.7c37.9,0,68.7-30.8,68.7-68.7C168.7,62.1,137.9,31.3,100,31.3z"
			/>
	</g>
	<g>
		<g>
			<path class="st1" d="M84.4,100.8v-2.1c-1.2,0-2.4-0.4-3.1-0.9l0.5-1.4c0.7,0.5,1.8,0.9,2.9,0.9c1.4,0,2.4-0.8,2.4-2
				c0-1.1-0.8-1.8-2.3-2.4c-2.1-0.8-3.4-1.7-3.4-3.5c0-1.7,1.2-3,3.1-3.3v-2.1h1.3v2c1.2,0,2.1,0.4,2.6,0.7l-0.5,1.3
				c-0.4-0.2-1.3-0.7-2.6-0.7c-1.6,0-2.2,0.9-2.2,1.7c0,1.1,0.8,1.6,2.5,2.3c2.1,0.9,3.1,1.9,3.1,3.7c0,1.6-1.1,3.1-3.2,3.5v2.1
				H84.4z"/>
		</g>
	</g>
	<g>
		<g>
			<path class="st1" d="M121.9,97.3h-3.3c0.6,0.5,1,1.1,1.1,2.1h2.2v1h-2.2c-0.2,2.1-1.8,3.4-4.4,3.4c1.6,1.6,3.3,3.7,5,5.8h-1.9
				c-1.6-1.9-3-3.6-4.9-5.7v-1.3h1.1c2.2,0,3.3-0.9,3.5-2.3h-4.6v-1h4.5c-0.3-1.2-1.4-1.8-3.1-1.8h-1.4v-1.3h8.5V97.3z"/>
		</g>
	</g>
</g>
</svg>
