<?xml version="1.0" encoding="utf-8"?>
<!-- Generator: Adobe Illustrator 26.4.0, SVG Export Plug-In . SVG Version: 6.00 Build 0)  -->
<svg version="1.1" id="Layer_1" xmlns="http://www.w3.org/2000/svg" xmlns:xlink="http://www.w3.org/1999/xlink" x="0px" y="0px"
	 viewBox="0 0 200 200" style="enable-background:new 0 0 200 200;" xml:space="preserve">
<style type="text/css">
	.st0{fill:#0067FC;}
	.st1{fill:none;stroke:#0067FC;stroke-width:2.5;stroke-linecap:round;stroke-linejoin:round;stroke-miterlimit:10;}
</style>
<g>
	<g>
		<g>
			<path class="st0" d="M133.6,95.9c-0.7,0-1.2-0.6-1.2-1.2V83H67.6v11.7c0,0.7-0.6,1.2-1.2,1.2s-1.2-0.6-1.2-1.2V81.7
				c0-0.7,0.6-1.2,1.2-1.2h67.3c0.7,0,1.2,0.6,1.2,1.2v12.9C134.9,95.3,134.3,95.9,133.6,95.9z"/>
		</g>
		<g>
			<path class="st1" d="M103,101.9"/>
		</g>
		<g>
			<path class="st0" d="M99.9,119.5c-0.7,0-1.2-0.6-1.2-1.2V94.9c0-0.7,0.6-1.2,1.2-1.2s1.3,0.6,1.3,1.2v23.4
				C101.2,119,100.6,119.5,99.9,119.5z"/>
		</g>
		<g>
			<path class="st0" d="M111.6,104.5c-0.3,0-0.6-0.1-0.9-0.4L99.8,93.2l-10.6,10.6c-0.5,0.5-1.3,0.5-1.8,0s-0.5-1.3,0-1.8l11.5-11.5
				c0.5-0.5,1.3-0.5,1.8,0l11.8,11.8c0.5,0.5,0.5,1.3,0,1.8C112.2,104.4,111.9,104.5,111.6,104.5z"/>
		</g>
	</g>
	<g>
		<path class="st0" d="M100,172.7c-40.1,0-72.7-32.6-72.7-72.7S59.9,27.3,100,27.3s72.7,32.6,72.7,72.7S140.1,172.7,100,172.7z
			 M100,31.3c-37.9,0-68.7,30.8-68.7,68.7c0,37.9,30.8,68.7,68.7,68.7c37.9,0,68.7-30.8,68.7-68.7C168.7,62.1,137.9,31.3,100,31.3z"
			/>
	</g>
</g>
</svg>
