<?xml version="1.0" encoding="utf-8"?>
<!-- Generator: Adobe Illustrator 26.4.0, SVG Export Plug-In . SVG Version: 6.00 Build 0)  -->
<svg version="1.1" id="Layer_1" xmlns="http://www.w3.org/2000/svg" xmlns:xlink="http://www.w3.org/1999/xlink" x="0px" y="0px"
	 viewBox="0 0 200 200" style="enable-background:new 0 0 200 200;" xml:space="preserve">
<style type="text/css">
	.st0{fill:#0067FC;}
</style>
<g>
	<g>
		<g>
			<path class="st0" d="M127.5,141.7H77.7c-3,0-5.5-2.5-5.5-5.5V60.6c0-3,2.5-5.5,5.5-5.5h42c0.4,0,0.7,0.2,0.9,0.4l12.1,13.5
				c0.2,0.2,0.3,0.5,0.3,0.8v66.3C133,139.2,130.5,141.7,127.5,141.7z M74.7,105.2v31c0,1.7,1.3,3,3,3h49.8c1.7,0,3-1.3,3-3V70.4
				l-11.4-12.8H77.7c-1.7,0-3,1.3-3,3V105.2z"/>
		</g>
		<g>
			<path class="st0" d="M131.8,71.2H123c-3,0-5.5-2.5-5.5-5.5v-8.8c0-0.7,0.6-1.2,1.2-1.2s1.2,0.6,1.2,1.2v8.8c0,1.7,1.3,3,3,3h8.8
				c0.7,0,1.2,0.6,1.2,1.2S132.4,71.2,131.8,71.2z"/>
		</g>
	</g>
	<g>
		<g>
			<path class="st0" d="M136.6,120.3c-0.7,0-1.2-0.6-1.2-1.2V80c0-1.2-1-2.2-2.2-2.2h-1.8c-0.7,0-1.2-0.6-1.2-1.2s0.6-1.2,1.2-1.2
				h1.8c2.6,0,4.7,2.1,4.7,4.7v39C137.9,119.7,137.3,120.3,136.6,120.3z"/>
		</g>
		<g>
			<path class="st0" d="M133.2,146.5H92.4c-2.6,0-4.7-2.1-4.7-4.7c0-0.7,0.6-1.2,1.2-1.2s1.2,0.6,1.2,1.2c0,1.2,1,2.2,2.2,2.2h40.7
				c1.2,0,2.2-1,2.2-2.2v-25.3c0-0.7,0.6-1.2,1.2-1.2s1.2,0.6,1.2,1.2v25.3C137.9,144.4,135.8,146.5,133.2,146.5z"/>
		</g>
	</g>
	<g>
		<g>
			<path class="st0" d="M141.3,130.4c-0.7,0-1.2-0.6-1.2-1.2V98.7c0-0.8-0.7-1.5-1.5-1.5h-1.4c-0.7,0-1.2-0.6-1.2-1.2
				s0.6-1.2,1.2-1.2h1.4c2.2,0,4,1.8,4,4v30.4C142.6,129.8,142,130.4,141.3,130.4z"/>
		</g>
		<g>
			<path class="st0" d="M138.6,150.8h-31.7c-2.2,0-4-1.8-4-4c0-0.7,0.6-1.2,1.2-1.2s1.2,0.6,1.2,1.2c0,0.8,0.7,1.5,1.5,1.5h31.7
				c0.8,0,1.5-0.7,1.5-1.5v-19.7c0-0.7,0.6-1.2,1.2-1.2s1.2,0.6,1.2,1.2v19.7C142.6,149,140.8,150.8,138.6,150.8z"/>
		</g>
	</g>
	<g>
		<path class="st0" d="M119.4,92.6H85.8c-0.7,0-1.2-0.6-1.2-1.2s0.6-1.2,1.2-1.2h33.6c0.7,0,1.2,0.6,1.2,1.2S120.1,92.6,119.4,92.6z
			"/>
	</g>
	<g>
		<path class="st0" d="M117.4,99.7H85.8c-0.7,0-1.2-0.6-1.2-1.2s0.6-1.2,1.2-1.2h31.6c0.7,0,1.2,0.6,1.2,1.2S118.1,99.7,117.4,99.7z
			"/>
	</g>
	<g>
		<path class="st0" d="M115.4,106.7H85.8c-0.7,0-1.2-0.6-1.2-1.2s0.6-1.2,1.2-1.2h29.6c0.7,0,1.2,0.6,1.2,1.2
			S116.1,106.7,115.4,106.7z"/>
	</g>
	<g>
		<path class="st0" d="M111.4,113.8H85.8c-0.7,0-1.2-0.6-1.2-1.2s0.6-1.2,1.2-1.2h25.6c0.7,0,1.2,0.6,1.2,1.2
			S112.1,113.8,111.4,113.8z"/>
	</g>
	<g>
		<path class="st0" d="M104.4,120.9H85.8c-0.7,0-1.2-0.6-1.2-1.2s0.6-1.2,1.2-1.2h18.6c0.7,0,1.2,0.6,1.2,1.2
			S105.1,120.9,104.4,120.9z"/>
	</g>
	<g>
		<path class="st0" d="M100,172.7c-40.1,0-72.7-32.6-72.7-72.7S59.9,27.3,100,27.3s72.7,32.6,72.7,72.7S140.1,172.7,100,172.7z
			 M100,31.3c-37.9,0-68.7,30.8-68.7,68.7c0,37.9,30.8,68.7,68.7,68.7c37.9,0,68.7-30.8,68.7-68.7C168.7,62.1,137.9,31.3,100,31.3z"
			/>
	</g>
</g>
</svg>
