<?xml version="1.0" encoding="utf-8"?>
<!-- Generator: Adobe Illustrator 26.3.1, SVG Export Plug-In . SVG Version: 6.00 Build 0)  -->
<svg version="1.1" id="Layer_1" xmlns="http://www.w3.org/2000/svg" xmlns:xlink="http://www.w3.org/1999/xlink" x="0px" y="0px"
	 viewBox="0 0 200 200" style="enable-background:new 0 0 200 200;" xml:space="preserve">
<style type="text/css">
	.st0{fill:#0067FC;}
</style>
<g>
	<g>
		<path class="st0" d="M100,172.7c-1,0-1.9,0-2.9-0.1c-40.1-1.6-71.4-35.5-69.8-75.5c0.8-19.4,9-37.4,23.3-50.5
			c14.3-13.2,32.8-20,52.2-19.2c19.4,0.8,37.4,9,50.5,23.3s20,32.8,19.2,52.2l0,0C171.1,142,138.8,172.7,100,172.7z M99.9,31.3
			c-17.3,0-33.8,6.4-46.6,18.2C39.9,62,32.1,78.9,31.3,97.3c-0.7,18.3,5.7,35.9,18.2,49.3c12.5,13.5,29.4,21.3,47.8,22
			c37.8,1.5,69.9-28.1,71.4-65.9l2,0.1l-2-0.1c0.7-18.3-5.7-35.9-18.2-49.3c-12.5-13.5-29.4-21.3-47.8-22
			C101.8,31.3,100.9,31.3,99.9,31.3z"/>
	</g>
	<g>
		<path class="st0" d="M117,144.6H75c-3,0-5.5-2.5-5.5-5.5V63.6c0-3,2.5-5.5,5.5-5.5h49.8c3,0,5.5,2.5,5.5,5.5v66.3
			c0,0.3-0.1,0.6-0.3,0.8l-12.1,13.5C117.7,144.5,117.4,144.6,117,144.6z M72,94.5v44.6c0,1.7,1.3,3,3,3h41.5l11.4-12.8V63.6
			c0-1.7-1.3-3-3-3H75c-1.7,0-3,1.3-3,3V94.5z"/>
	</g>
	<g>
		<path class="st0" d="M116,144.2c-0.7,0-1.2-0.6-1.2-1.2v-8.8c0-3,2.5-5.5,5.5-5.5h8.8c0.7,0,1.2,0.6,1.2,1.2s-0.6,1.2-1.2,1.2
			h-8.8c-1.7,0-3,1.3-3,3v8.8C117.3,143.6,116.7,144.2,116,144.2z"/>
	</g>
	<g>
		<path class="st0" d="M116.8,100.5H83.2c-0.7,0-1.2-0.6-1.2-1.2s0.6-1.2,1.2-1.2h33.6c0.7,0,1.2,0.6,1.2,1.2
			S117.5,100.5,116.8,100.5z"/>
	</g>
	<g>
		<path class="st0" d="M116.8,93.5H83.2c-0.7,0-1.2-0.6-1.2-1.2s0.6-1.2,1.2-1.2h33.6c0.7,0,1.2,0.6,1.2,1.2S117.5,93.5,116.8,93.5z
			"/>
	</g>
	<g>
		<path class="st0" d="M116.8,79.4H83.2c-0.7,0-1.2-0.6-1.2-1.2s0.6-1.2,1.2-1.2h33.6c0.7,0,1.2,0.6,1.2,1.2S117.5,79.4,116.8,79.4z
			"/>
	</g>
	<g>
		<path class="st0" d="M116.8,86.4H83.2c-0.7,0-1.2-0.6-1.2-1.2s0.6-1.2,1.2-1.2h33.6c0.7,0,1.2,0.6,1.2,1.2S117.5,86.4,116.8,86.4z
			"/>
	</g>
	<g>
		<path class="st0" d="M114.8,107.6H83.2c-0.7,0-1.2-0.6-1.2-1.2s0.6-1.2,1.2-1.2h31.6c0.7,0,1.2,0.6,1.2,1.2
			S115.5,107.6,114.8,107.6z"/>
	</g>
	<g>
		<path class="st0" d="M112.8,114.7H83.2c-0.7,0-1.2-0.6-1.2-1.2s0.6-1.2,1.2-1.2h29.6c0.7,0,1.2,0.6,1.2,1.2
			S113.5,114.7,112.8,114.7z"/>
	</g>
	<g>
		<path class="st0" d="M108.8,121.7H83.2c-0.7,0-1.2-0.6-1.2-1.2s0.6-1.2,1.2-1.2h25.6c0.7,0,1.2,0.6,1.2,1.2
			S109.5,121.7,108.8,121.7z"/>
	</g>
	<g>
		<path class="st0" d="M101.8,128.8H83.2c-0.7,0-1.2-0.6-1.2-1.2s0.6-1.2,1.2-1.2h18.6c0.7,0,1.2,0.6,1.2,1.2
			S102.5,128.8,101.8,128.8z"/>
	</g>
</g>
</svg>
