<?xml version="1.0" encoding="utf-8"?>
<!-- Generator: Adobe Illustrator 26.3.1, SVG Export Plug-In . SVG Version: 6.00 Build 0)  -->
<svg version="1.1" id="Layer_1" xmlns="http://www.w3.org/2000/svg" xmlns:xlink="http://www.w3.org/1999/xlink" x="0px" y="0px"
	 viewBox="0 0 200 200" style="enable-background:new 0 0 200 200;" xml:space="preserve">
<style type="text/css">
	.st0{fill:#0067FC;}
	.st1{fill:none;stroke:#0067FC;stroke-width:2.5;stroke-linecap:round;stroke-linejoin:round;stroke-miterlimit:10;}
</style>
<g>
	<g>
		<path class="st0" d="M100,172.7c-1,0-1.9,0-2.9-0.1c-40.1-1.6-71.4-35.5-69.8-75.5c0.8-19.4,9-37.4,23.3-50.5
			c14.3-13.2,32.8-20,52.2-19.2c19.4,0.8,37.4,9,50.5,23.3s20,32.8,19.2,52.2l0,0C171.1,142,138.8,172.7,100,172.7z M99.9,31.3
			c-17.3,0-33.8,6.4-46.6,18.2C39.9,62,32.1,78.9,31.3,97.3c-0.7,18.3,5.7,35.9,18.2,49.3c12.5,13.5,29.4,21.3,47.8,22
			c37.8,1.5,69.9-28.1,71.4-65.9l2,0.1l-2-0.1c0.7-18.3-5.7-35.9-18.2-49.3c-12.5-13.5-29.4-21.3-47.8-22
			C101.8,31.3,100.9,31.3,99.9,31.3z"/>
	</g>
	<g>
		<path class="st0" d="M119.2,76.2c-0.7,0-1.2-0.6-1.2-1.2v-6.1H82.1V75c0,0.7-0.6,1.2-1.2,1.2s-1.2-0.6-1.2-1.2v-7.4
			c0-0.7,0.6-1.2,1.2-1.2h38.4c0.7,0,1.2,0.6,1.2,1.2V75C120.4,75.7,119.9,76.2,119.2,76.2z"/>
	</g>
	<g>
		<g>
			<g>
				<path class="st0" d="M70.7,124.7c-7.3,0-13.2-5.9-13.2-13.2c0-7.3,5.9-13.2,13.2-13.2S84,104.2,84,111.5
					C84,118.8,78,124.7,70.7,124.7z M70.7,100.7c-5.9,0-10.7,4.8-10.7,10.7s4.8,10.7,10.7,10.7s10.7-4.8,10.7-10.7
					S76.7,100.7,70.7,100.7z"/>
			</g>
		</g>
		<g>
			<path class="st0" d="M117,144.6H75c-3,0-5.5-2.5-5.5-5.5v-10.6c0-0.7,0.6-1.2,1.2-1.2s1.2,0.6,1.2,1.2v10.6c0,1.7,1.3,3,3,3h41.5
				l11.4-12.8V63.6c0-1.7-1.3-3-3-3H75c-1.7,0-3,1.3-3,3v31c0,0.7-0.6,1.2-1.2,1.2s-1.2-0.6-1.2-1.2v-31c0-3,2.5-5.5,5.5-5.5h49.8
				c3,0,5.5,2.5,5.5,5.5v66.3c0,0.3-0.1,0.6-0.3,0.8l-12.1,13.5C117.7,144.5,117.4,144.6,117,144.6z"/>
		</g>
		<g>
			<path class="st0" d="M116,144.2c-0.7,0-1.2-0.6-1.2-1.2v-8.8c0-3,2.5-5.5,5.5-5.5h8.8c0.7,0,1.2,0.6,1.2,1.2s-0.6,1.2-1.2,1.2
				h-8.8c-1.7,0-3,1.3-3,3v8.8C117.3,143.6,116.7,144.2,116,144.2z"/>
		</g>
		<g>
			<path class="st0" d="M122.1,97.5H88.5c-0.7,0-1.2-0.6-1.2-1.2s0.6-1.2,1.2-1.2h33.6c0.7,0,1.2,0.6,1.2,1.2S122.8,97.5,122.1,97.5
				z"/>
		</g>
		<g>
			<path class="st0" d="M120.1,103.8H88.5c-0.7,0-1.2-0.6-1.2-1.2s0.6-1.2,1.2-1.2h31.6c0.7,0,1.2,0.6,1.2,1.2
				S120.8,103.8,120.1,103.8z"/>
		</g>
		<g>
			<path class="st0" d="M118.1,110.3H88.5c-0.7,0-1.2-0.6-1.2-1.2s0.6-1.2,1.2-1.2h29.6c0.7,0,1.2,0.6,1.2,1.2
				S118.8,110.3,118.1,110.3z"/>
		</g>
		<g>
			<path class="st0" d="M114.1,116.2H88.5c-0.7,0-1.2-0.6-1.2-1.2s0.6-1.2,1.2-1.2h25.6c0.7,0,1.2,0.6,1.2,1.2
				S114.8,116.2,114.1,116.2z"/>
		</g>
		<g>
			<path class="st0" d="M107.1,122.7H88.5c-0.7,0-1.2-0.6-1.2-1.2s0.6-1.2,1.2-1.2h18.6c0.7,0,1.2,0.6,1.2,1.2
				S107.8,122.7,107.1,122.7z"/>
		</g>
		<g id="Group_263_00000107553756840678560230000004555723693704150963_" transform="translate(-598.5 -520.001)">
			<g id="Group_259_00000116225045247653578730000010379782883392771975_" transform="translate(549.903 487.744)">
				<g id="Ellipse_9_00000098189368077464432250000004671383287756455561_">
					<path class="st0" d="M119.3,144c-2.2,0-4-1.8-4-4c0-2.2,1.8-4,4-4s4,1.8,4,4C123.3,142.2,121.5,144,119.3,144z M119.3,138.5
						c-0.8,0-1.5,0.7-1.5,1.5s0.7,1.5,1.5,1.5s1.5-0.7,1.5-1.5S120.2,138.5,119.3,138.5z"/>
				</g>
				<g id="Path_16_00000172419219469191003450000009541396942646444713_">
					<path class="st0" d="M123.8,151.5c-0.7,0-1.2-0.6-1.2-1.2c0-1.8-1.5-3.3-3.3-3.3s-3.3,1.5-3.3,3.3c0,0.7-0.6,1.2-1.2,1.2
						s-1.2-0.6-1.2-1.2c0-3.2,2.6-5.8,5.8-5.8s5.8,2.6,5.8,5.8C125.1,151,124.5,151.5,123.8,151.5z"/>
				</g>
			</g>
		</g>
		<g>
			<path class="st1" d="M101.7,79.1"/>
		</g>
		<g>
			<path class="st0" d="M100,89.7c-0.7,0-1.2-0.6-1.2-1.2V75.1c0-0.7,0.6-1.2,1.2-1.2s1.2,0.6,1.2,1.2v13.4
				C101.2,89.2,100.6,89.7,100,89.7z"/>
		</g>
		<g>
			<path class="st0" d="M106.6,81.2c-0.3,0-0.6-0.1-0.9-0.4L99.9,75l-5.7,5.7c-0.5,0.5-1.3,0.5-1.8,0s-0.5-1.3,0-1.8l6.6-6.6
				c0.5-0.5,1.3-0.5,1.8,0l6.7,6.7c0.5,0.5,0.5,1.3,0,1.8C107.2,81,106.9,81.2,106.6,81.2z"/>
		</g>
	</g>
</g>
</svg>
