<?xml version="1.0" encoding="utf-8"?>
<!-- Generator: Adobe Illustrator 26.4.0, SVG Export Plug-In . SVG Version: 6.00 Build 0)  -->
<svg version="1.1" id="Layer_1" xmlns="http://www.w3.org/2000/svg" xmlns:xlink="http://www.w3.org/1999/xlink" x="0px" y="0px"
	 viewBox="0 0 200 200" style="enable-background:new 0 0 200 200;" xml:space="preserve">
<style type="text/css">
	.st0{fill:#0067FC;}
	.st1{fill:none;stroke:#0067FC;stroke-width:2.5;stroke-linecap:round;stroke-linejoin:round;stroke-miterlimit:10;}
</style>
<g>
	<g>
		<g>
			<g>
				<g>
					<path class="st0" d="M100,138.7c-15.3,0-27.8-12.5-27.8-27.8S84.7,83.2,100,83.2s27.8,12.5,27.8,27.8S115.3,138.7,100,138.7z
						 M100,85.7c-13.9,0-25.3,11.3-25.3,25.3c0,13.9,11.3,25.3,25.3,25.3c13.9,0,25.3-11.3,25.3-25.3C125.3,97,113.9,85.7,100,85.7z
						"/>
				</g>
			</g>
			<g id="Group_263_00000070105333467816604380000016515761978412393639_" transform="translate(-598.5 -520.001)">
				<g id="Group_259_00000064323261687207692200000013312552846881463953_" transform="translate(549.903 487.744)">
					<g id="Ellipse_9_00000073701293246104585760000007901743314834396056_">
						<path class="st0" d="M148.6,142.2c-4.1,0-7.4-3.3-7.4-7.4c0-4.1,3.3-7.4,7.4-7.4s7.4,3.3,7.4,7.4
							C156,138.9,152.7,142.2,148.6,142.2z M148.6,130c-2.7,0-4.9,2.2-4.9,4.9s2.2,4.9,4.9,4.9c2.7,0,4.9-2.2,4.9-4.9
							S151.3,130,148.6,130z"/>
					</g>
					<g id="Path_16_00000085251531533905474050000014661671976257572019_">
						<path class="st0" d="M158.5,158.8c-0.7,0-1.2-0.6-1.2-1.2c0-4.8-3.9-8.7-8.7-8.7s-8.7,3.9-8.7,8.7c0,0.7-0.6,1.2-1.2,1.2
							s-1.2-0.6-1.2-1.2c0-6.2,5-11.2,11.2-11.2s11.2,5,11.2,11.2C159.8,158.3,159.2,158.8,158.5,158.8z"/>
					</g>
				</g>
			</g>
		</g>
		<g>
			<path class="st0" d="M119.2,71.2c-0.7,0-1.2-0.6-1.2-1.2v-6.1H82.1v6.1c0,0.7-0.6,1.2-1.2,1.2s-1.2-0.6-1.2-1.2v-7.4
				c0-0.7,0.6-1.2,1.2-1.2h38.4c0.7,0,1.2,0.6,1.2,1.2v7.4C120.4,70.6,119.9,71.2,119.2,71.2z"/>
		</g>
		<g>
			<path class="st1" d="M101.7,74"/>
		</g>
		<g>
			<path class="st0" d="M100,84.7c-0.7,0-1.2-0.6-1.2-1.2V70.1c0-0.7,0.6-1.2,1.2-1.2s1.2,0.6,1.2,1.2v13.4
				C101.2,84.1,100.6,84.7,100,84.7z"/>
		</g>
		<g>
			<path class="st0" d="M106.6,76.1c-0.3,0-0.6-0.1-0.9-0.4l-5.8-5.8l-5.7,5.7c-0.5,0.5-1.3,0.5-1.8,0s-0.5-1.3,0-1.8l6.6-6.6
				c0.5-0.5,1.3-0.5,1.8,0l6.7,6.7c0.5,0.5,0.5,1.3,0,1.8C107.2,76,106.9,76.1,106.6,76.1z"/>
		</g>
	</g>
	<g>
		<path class="st0" d="M100,172.7c-40.1,0-72.7-32.6-72.7-72.7S59.9,27.3,100,27.3s72.7,32.6,72.7,72.7S140.1,172.7,100,172.7z
			 M100,31.3c-37.9,0-68.7,30.8-68.7,68.7c0,37.9,30.8,68.7,68.7,68.7c37.9,0,68.7-30.8,68.7-68.7C168.7,62.1,137.9,31.3,100,31.3z"
			/>
	</g>
</g>
</svg>
