<?xml version="1.0" encoding="utf-8"?>
<!-- Generator: Adobe Illustrator 26.4.0, SVG Export Plug-In . SVG Version: 6.00 Build 0)  -->
<svg version="1.1" id="Layer_1" xmlns="http://www.w3.org/2000/svg" xmlns:xlink="http://www.w3.org/1999/xlink" x="0px" y="0px"
	 viewBox="0 0 200 200" style="enable-background:new 0 0 200 200;" xml:space="preserve">
<style type="text/css">
	.st0{fill:#0067FC;}
	.st1{fill:none;stroke:#0067FC;stroke-width:2.5;stroke-linecap:round;stroke-linejoin:round;stroke-miterlimit:10;}
</style>
<g>
	<g>
		<path class="st0" d="M118.6,62.5c-0.7,0-1.2-0.6-1.2-1.2v-6.1H81.5v6.1c0,0.7-0.6,1.2-1.2,1.2S79,61.9,79,61.3v-7.4
			c0-0.7,0.6-1.2,1.2-1.2h38.4c0.7,0,1.2,0.6,1.2,1.2v7.4C119.8,61.9,119.3,62.5,118.6,62.5z"/>
	</g>
	<g>
		<path class="st1" d="M99.4,65.4"/>
	</g>
	<g>
		<path class="st0" d="M99.4,76c-0.7,0-1.2-0.6-1.2-1.2V61.4c0-0.7,0.6-1.2,1.2-1.2s1.2,0.6,1.2,1.2v13.4
			C100.7,75.4,100.1,76,99.4,76z"/>
	</g>
	<g>
		<path class="st0" d="M106.1,67.4c-0.3,0-0.6-0.1-0.9-0.4l-5.8-5.8l-5.7,5.7c-0.5,0.5-1.3,0.5-1.8,0s-0.5-1.3,0-1.8l6.6-6.6
			c0.5-0.5,1.3-0.5,1.8,0l6.7,6.7c0.5,0.5,0.5,1.3,0,1.8C106.7,67.3,106.4,67.4,106.1,67.4z"/>
	</g>
	<g>
		<g id="Group_263_00000160913158123590475800000011075722485689453727_" transform="translate(-598.5 -520.001)">
			<g id="Group_259_00000020385833673413402050000014766970082091753356_" transform="translate(549.903 487.744)">
				<g id="Ellipse_9_00000132076381430322698380000004470645047494448043_">
					<path class="st0" d="M147.8,132.3c-4.5,0-8.1-3.6-8.1-8.1s3.6-8.1,8.1-8.1s8.1,3.6,8.1,8.1S152.3,132.3,147.8,132.3z
						 M147.8,118.7c-3.1,0-5.6,2.5-5.6,5.6s2.5,5.6,5.6,5.6c3.1,0,5.6-2.5,5.6-5.6S150.9,118.7,147.8,118.7z"/>
				</g>
				<g id="Path_16_00000157283144350259026910000015161484495876994965_">
					<path class="st0" d="M158.9,145.3c-0.7,0-1.2-0.6-1.2-1.2c0-5.4-4.4-9.9-9.9-9.9c-5.4,0-9.9,4.4-9.9,9.9c0,0.7-0.6,1.2-1.2,1.2
						s-1.2-0.6-1.2-1.2c0-6.8,5.6-12.4,12.4-12.4s12.4,5.6,12.4,12.4C160.2,144.7,159.6,145.3,158.9,145.3z"/>
				</g>
			</g>
		</g>
		<g id="Group_263_00000074419872478132775450000000398942867299496110_" transform="translate(-598.5 -520.001)">
			<g id="Group_259_00000168798755759902563270000013817023205564798393_" transform="translate(549.903 487.744)">
				<g id="Ellipse_9_00000047739999525138807700000011779972106431631542_">
					<path class="st0" d="M166.2,160.4c-4.5,0-8.1-3.6-8.1-8.1c0-4.5,3.6-8.1,8.1-8.1c4.5,0,8.1,3.6,8.1,8.1
						C174.3,156.8,170.7,160.4,166.2,160.4z M166.2,146.8c-3.1,0-5.6,2.5-5.6,5.6c0,3.1,2.5,5.6,5.6,5.6c3.1,0,5.6-2.5,5.6-5.6
						C171.8,149.3,169.3,146.8,166.2,146.8z"/>
				</g>
				<g id="Path_16_00000114768164906805989450000007009521356760872120_">
					<path class="st0" d="M177.4,173.4c-0.7,0-1.2-0.6-1.2-1.2c0-5.4-4.4-9.9-9.9-9.9s-9.9,4.4-9.9,9.9c0,0.7-0.6,1.2-1.2,1.2
						s-1.2-0.6-1.2-1.2c0-6.8,5.6-12.4,12.4-12.4s12.4,5.6,12.4,12.4C178.6,172.8,178.1,173.4,177.4,173.4z"/>
				</g>
			</g>
		</g>
		<g id="Group_263_00000126313318781969556310000014804595602563943810_" transform="translate(-598.5 -520.001)">
			<g id="Group_259_00000093861409934811344010000005988170988468660644_" transform="translate(549.903 487.744)">
				<g id="Ellipse_9_00000046329254516683515740000006028709540213093762_">
					<path class="st0" d="M130.9,160.3c-4.5,0-8.1-3.6-8.1-8.1s3.6-8.1,8.1-8.1s8.1,3.6,8.1,8.1S135.4,160.3,130.9,160.3z
						 M130.9,146.6c-3.1,0-5.6,2.5-5.6,5.6s2.5,5.6,5.6,5.6s5.6-2.5,5.6-5.6S134,146.6,130.9,146.6z"/>
				</g>
				<g id="Path_16_00000096762304319454877780000014536415045955961272_">
					<path class="st0" d="M142.1,173.2c-0.7,0-1.2-0.6-1.2-1.2c0-5.4-4.4-9.9-9.9-9.9s-9.9,4.4-9.9,9.9c0,0.7-0.6,1.2-1.2,1.2
						s-1.2-0.6-1.2-1.2c0-6.8,5.6-12.4,12.4-12.4s12.4,5.6,12.4,12.4C143.3,172.7,142.8,173.2,142.1,173.2z"/>
				</g>
			</g>
		</g>
		<g>
			<path class="st0" d="M99.4,128.7c-2.1,0-4.2-0.4-6.1-1c-0.7-0.2-1-0.9-0.8-1.6c0.2-0.7,0.9-1,1.6-0.8c3.3,1.2,6.9,1.2,10.2,0.1
				c0.7-0.2,1.4,0.1,1.6,0.8s-0.1,1.4-0.8,1.6C103.3,128.4,101.4,128.7,99.4,128.7z"/>
		</g>
		<g>
			<path class="st0" d="M122.5,109.6c-0.7,0-1.2-0.6-1.2-1.2c0-5.8-2.9-11.2-7.8-14.4c-0.6-0.4-0.7-1.2-0.4-1.7
				c0.4-0.6,1.2-0.7,1.7-0.4c5.6,3.7,8.9,9.8,8.9,16.5C123.7,109,123.2,109.6,122.5,109.6z"/>
		</g>
		<g>
			<path class="st0" d="M74.9,111.3c-0.7,0-1.2-0.6-1.2-1.2c0-0.9,0-1.8,0.2-2.7c0.8-6.6,4.9-12.3,10.9-15.3c0.6-0.3,1.4,0,1.7,0.6
				c0.3,0.6,0,1.4-0.6,1.7c-5.2,2.6-8.8,7.5-9.5,13.3c-0.1,0.8-0.1,1.6-0.1,2.3C76.1,110.8,75.6,111.3,74.9,111.3
				C74.9,111.3,74.9,111.3,74.9,111.3z"/>
		</g>
	</g>
	<g>
		<path class="st0" d="M100,172.7c-40.1,0-72.7-32.6-72.7-72.7S59.9,27.3,100,27.3s72.7,32.6,72.7,72.7S140.1,172.7,100,172.7z
			 M100,31.3c-37.9,0-68.7,30.8-68.7,68.7c0,37.9,30.8,68.7,68.7,68.7c37.9,0,68.7-30.8,68.7-68.7C168.7,62.1,137.9,31.3,100,31.3z"
			/>
	</g>
</g>
</svg>
