<?xml version="1.0" encoding="utf-8"?>
<!-- Generator: Adobe Illustrator 26.3.1, SVG Export Plug-In . SVG Version: 6.00 Build 0)  -->
<svg version="1.1" id="Layer_1" xmlns="http://www.w3.org/2000/svg" xmlns:xlink="http://www.w3.org/1999/xlink" x="0px" y="0px"
	 viewBox="0 0 200 200" style="enable-background:new 0 0 200 200;" xml:space="preserve">
<style type="text/css">
	.st0{fill:#0067FC;}
</style>
<g>
	<g>
		<path class="st0" d="M100,172.6c-1,0-1.9,0-2.9-0.1c-40.1-1.6-71.4-35.5-69.8-75.5c1.6-40.1,35.5-71.4,75.5-69.8
			c19.4,0.8,37.4,9,50.5,23.3c13.2,14.3,20,32.8,19.2,52.2l0,0C171.1,141.8,138.8,172.6,100,172.6z M100,31.2
			c-36.6,0-67.2,29.1-68.6,66C29.9,135,59.4,167,97.3,168.5c37.9,1.5,69.9-28.1,71.4-65.9l2,0.1l-2-0.1c0.7-18.3-5.7-35.9-18.2-49.3
			c-12.5-13.5-29.4-21.3-47.8-22C101.8,31.2,100.9,31.2,100,31.2z"/>
	</g>
	<g>
		<g id="Group_263_00000147198110012660939860000003887895123030212491_" transform="translate(-598.5 -520.001)">
			<g id="Group_259_00000081636676566815277140000012871807494855696298_" transform="translate(549.903 487.744)">
				<g id="Ellipse_9_00000005265873532643628640000000491024640336034480_">
					<path class="st0" d="M147.8,128.2c-4.8,0-8.8-3.9-8.8-8.8s3.9-8.8,8.8-8.8c4.8,0,8.8,3.9,8.8,8.8S152.6,128.2,147.8,128.2z
						 M147.8,113.7c-3.2,0-5.8,2.6-5.8,5.8s2.6,5.8,5.8,5.8c3.2,0,5.8-2.6,5.8-5.8S150.9,113.7,147.8,113.7z"/>
				</g>
				<g id="Path_16_00000050650702934699384120000001550552581659176079_">
					<path class="st0" d="M159.6,142c-0.8,0-1.5-0.7-1.5-1.5c0-5.7-4.6-10.3-10.3-10.3s-10.3,4.6-10.3,10.3c0,0.8-0.7,1.5-1.5,1.5
						s-1.5-0.7-1.5-1.5c0-7.4,6-13.3,13.3-13.3s13.3,6,13.3,13.3C161.1,141.3,160.4,142,159.6,142z"/>
				</g>
			</g>
		</g>
		<g id="Group_263_00000152263864215238698770000011830676808548871337_" transform="translate(-598.5 -520.001)">
			<g id="Group_259_00000021081777816585913090000004525199299606617249_" transform="translate(549.903 487.744)">
				<g id="Ellipse_9_00000115494831347091464330000008067658239275736250_">
					<path class="st0" d="M167.4,158.1c-4.8,0-8.8-3.9-8.8-8.8s3.9-8.8,8.8-8.8s8.8,3.9,8.8,8.8S172.2,158.1,167.4,158.1z
						 M167.4,143.6c-3.2,0-5.8,2.6-5.8,5.8s2.6,5.8,5.8,5.8s5.8-2.6,5.8-5.8S170.6,143.6,167.4,143.6z"/>
				</g>
				<g id="Path_16_00000121237897879980511470000002745281960858839196_">
					<path class="st0" d="M179.2,171.9c-0.8,0-1.5-0.7-1.5-1.5c0-5.7-4.6-10.3-10.3-10.3s-10.3,4.6-10.3,10.3c0,0.8-0.7,1.5-1.5,1.5
						s-1.5-0.7-1.5-1.5c0-7.4,6-13.3,13.3-13.3s13.3,6,13.3,13.3C180.7,171.2,180,171.9,179.2,171.9z"/>
				</g>
			</g>
		</g>
		<g id="Group_263_00000024715329943715110260000015753111809769602476_" transform="translate(-598.5 -520.001)">
			<g id="Group_259_00000034775664296677050180000012802374650309677481_" transform="translate(549.903 487.744)">
				<g id="Ellipse_9_00000054988313997118738580000002263134877044689798_">
					<path class="st0" d="M129.8,158c-4.8,0-8.8-3.9-8.8-8.8s3.9-8.8,8.8-8.8s8.8,3.9,8.8,8.8S134.7,158,129.8,158z M129.8,143.4
						c-3.2,0-5.8,2.6-5.8,5.8c0,3.2,2.6,5.8,5.8,5.8c3.2,0,5.8-2.6,5.8-5.8C135.6,146,133,143.4,129.8,143.4z"/>
				</g>
				<g id="Path_16_00000077309361288161742700000013686909036377609914_">
					<path class="st0" d="M141.7,171.7c-0.8,0-1.5-0.7-1.5-1.5c0-5.7-4.6-10.3-10.3-10.3s-10.3,4.6-10.3,10.3c0,0.8-0.7,1.5-1.5,1.5
						s-1.5-0.7-1.5-1.5c0-7.4,6-13.3,13.3-13.3s13.3,6,13.3,13.3C143.2,171,142.5,171.7,141.7,171.7z"/>
				</g>
			</g>
		</g>
		<g>
			<path class="st0" d="M99.4,126.4c-2.3,0-4.5-0.4-6.6-1.1c-0.8-0.3-1.2-1.1-0.9-1.9s1.1-1.2,1.9-0.9c3.4,1.2,7.3,1.3,10.7,0.1
				c0.8-0.3,1.6,0.2,1.9,1c0.3,0.8-0.2,1.6-1,1.9C103.5,126,101.5,126.4,99.4,126.4z"/>
		</g>
		<g>
			<path class="st0" d="M123.9,106.1c-0.8,0-1.5-0.7-1.5-1.5c0-6.1-3.1-11.8-8.2-15.2c-0.7-0.5-0.9-1.4-0.4-2.1
				c0.5-0.7,1.4-0.9,2.1-0.4c6,3.9,9.6,10.5,9.6,17.7C125.4,105.4,124.8,106.1,123.9,106.1z"/>
		</g>
		<g>
			<path class="st0" d="M73.3,107.9c-0.8,0-1.5-0.7-1.5-1.5c0-1,0-1.9,0.2-2.9c0.9-7.1,5.2-13.2,11.7-16.4c0.7-0.4,1.6-0.1,2,0.7
				c0.4,0.7,0.1,1.6-0.7,2c-5.5,2.7-9.3,7.9-10,14c-0.1,0.8-0.1,1.6-0.1,2.5C74.8,107.2,74.1,107.9,73.3,107.9
				C73.3,107.9,73.3,107.9,73.3,107.9z"/>
		</g>
		<g>
			<path class="st0" d="M123.9,107.2c-0.4,0-0.8-0.2-1.1-0.4l-2.1-2.1c-0.6-0.6-0.6-1.5,0-2.1s1.5-0.6,2.1,0l1.1,1.1l1-1
				c0.6-0.6,1.5-0.6,2.1,0c0.6,0.6,0.6,1.5,0,2.1l-2.1,2.1C124.7,107,124.3,107.2,123.9,107.2z"/>
		</g>
		<g>
			<path class="st0" d="M114.1,91.5c-0.6,0-1.2-0.4-1.4-1l-0.9-2.8c-0.3-0.8,0.2-1.6,1-1.9l2.9-0.9c0.8-0.3,1.6,0.2,1.9,1
				c0.3,0.8-0.2,1.6-1,1.9l-1.5,0.5l0.5,1.4c0.3,0.8-0.2,1.6-1,1.9C114.4,91.4,114.2,91.5,114.1,91.5z"/>
		</g>
		<g>
			<path class="st0" d="M105.6,127.3c-0.2,0-0.5-0.1-0.7-0.2c-0.7-0.4-1-1.3-0.7-2l0.7-1.4l-1.3-0.7c-0.7-0.4-1-1.3-0.7-2
				c0.4-0.7,1.3-1,2-0.7l2.6,1.3c0.7,0.4,1,1.3,0.7,2l-1.4,2.7C106.7,127,106.1,127.3,105.6,127.3z"/>
		</g>
		<g>
			<path class="st0" d="M92.2,127.2c-0.6,0-1.2-0.4-1.4-1l-0.9-2.8c-0.3-0.8,0.2-1.6,1-1.9l2.9-0.9c0.8-0.3,1.6,0.2,1.9,1
				c0.3,0.8-0.2,1.6-1,1.9l-1.5,0.5l0.5,1.4c0.3,0.8-0.2,1.6-1,1.9C92.5,127.2,92.3,127.2,92.2,127.2z"/>
		</g>
		<g>
			<path class="st0" d="M84.8,92.1c-0.2,0-0.3,0-0.5-0.1c-0.8-0.3-1.2-1.1-1-1.9l0.5-1.5l-1.4-0.5c-0.8-0.3-1.2-1.1-1-1.9
				c0.3-0.8,1.1-1.2,1.9-1l2.8,0.9c0.4,0.1,0.7,0.4,0.9,0.7s0.2,0.8,0.1,1.1l-0.9,2.9C86,91.7,85.4,92.1,84.8,92.1z"/>
		</g>
		<g>
			<path class="st0" d="M73.3,109.9c-0.4,0-0.7-0.1-1-0.4l-2.2-2.1c-0.6-0.6-0.6-1.5-0.1-2.1c0.6-0.6,1.5-0.6,2.1-0.1l1.1,1l1-1.1
				c0.6-0.6,1.5-0.6,2.1-0.1c0.6,0.6,0.6,1.5,0.1,2.1l-2,2.2C74.1,109.7,73.8,109.9,73.3,109.9C73.4,109.9,73.3,109.9,73.3,109.9z"
				/>
		</g>
	</g>
	<g>
		<path class="st0" d="M104,68.6c-0.4,0-0.8-0.1-1.1-0.4l-5-5L93,68.1c-0.6,0.6-1.5,0.6-2.1,0c-0.6-0.6-0.6-1.5,0-2.1l6-6
			c0.6-0.6,1.6-0.6,2.1,0l6.1,6.1c0.6,0.6,0.6,1.5,0,2.1C104.7,68.5,104.3,68.6,104,68.6z"/>
	</g>
	<g>
		<path class="st0" d="M98,74.7c-0.8,0-1.5-0.7-1.5-1.5V61.7c0-0.8,0.7-1.5,1.5-1.5s1.5,0.7,1.5,1.5v11.5
			C99.5,74.1,98.8,74.7,98,74.7z"/>
	</g>
	<g>
		<path class="st0" d="M115,64.5c-0.8,0-1.5-0.7-1.5-1.5v-6.4H82.7V63c0,0.8-0.7,1.5-1.5,1.5s-1.5-0.7-1.5-1.5v-7.9
			c0-0.8,0.7-1.5,1.5-1.5H115c0.8,0,1.5,0.7,1.5,1.5V63C116.5,63.8,115.9,64.5,115,64.5z"/>
	</g>
</g>
</svg>
