<?xml version="1.0" encoding="utf-8"?>
<!-- Generator: Adobe Illustrator 26.4.0, SVG Export Plug-In . SVG Version: 6.00 Build 0)  -->
<svg version="1.1" id="Layer_1" xmlns="http://www.w3.org/2000/svg" xmlns:xlink="http://www.w3.org/1999/xlink" x="0px" y="0px"
	 viewBox="0 0 200 200" style="enable-background:new 0 0 200 200;" xml:space="preserve">
<style type="text/css">
	.st0{fill:#0067FC;}
</style>
<g>
	<g>
		<g>
			<g>
				<path class="st0" d="M123.1,141.7H73.2c-3,0-5.5-2.5-5.5-5.5V69.9c0-0.3,0.1-0.6,0.3-0.8l12.1-13.5c0.2-0.3,0.6-0.4,0.9-0.4h42
					c3,0,5.5,2.5,5.5,5.5v75.5C128.6,139.2,126.1,141.7,123.1,141.7z M70.2,70.4v65.8c0,1.7,1.3,3,3,3h49.8c1.7,0,3-1.3,3-3V60.6
					c0-1.7-1.3-3-3-3H81.6L70.2,70.4z"/>
			</g>
			<g>
				<path class="st0" d="M77.8,71.2H69c-0.7,0-1.2-0.6-1.2-1.2s0.6-1.2,1.2-1.2h8.8c1.7,0,3-1.3,3-3v-8.8c0-0.7,0.6-1.2,1.2-1.2
					s1.2,0.6,1.2,1.2v8.8C83.3,68.7,80.8,71.2,77.8,71.2z"/>
			</g>
		</g>
		<g>
			<g>
				<path class="st0" d="M64.1,120.3c-0.7,0-1.2-0.6-1.2-1.2V80c0-2.6,2.1-4.7,4.7-4.7h1.8c0.7,0,1.2,0.6,1.2,1.2s-0.6,1.2-1.2,1.2
					h-1.8c-1.2,0-2.2,1-2.2,2.2v39C65.4,119.7,64.8,120.3,64.1,120.3z"/>
			</g>
			<g>
				<path class="st0" d="M108.3,146.5H67.6c-2.6,0-4.7-2.1-4.7-4.7v-25.3c0-0.7,0.6-1.2,1.2-1.2s1.2,0.6,1.2,1.2v25.3
					c0,1.2,1,2.2,2.2,2.2h40.7c1.2,0,2.2-1,2.2-2.2c0-0.7,0.6-1.2,1.2-1.2s1.2,0.6,1.2,1.2C113.1,144.4,110.9,146.5,108.3,146.5z"/>
			</g>
		</g>
		<g>
			<g>
				<path class="st0" d="M59.4,130.4c-0.7,0-1.2-0.6-1.2-1.2V98.7c0-2.2,1.8-4,4-4h1.4c0.7,0,1.2,0.6,1.2,1.2s-0.6,1.2-1.2,1.2h-1.4
					c-0.8,0-1.5,0.7-1.5,1.5v30.4C60.7,129.8,60.1,130.4,59.4,130.4z"/>
			</g>
			<g>
				<path class="st0" d="M93.8,150.8H62.1c-2.2,0-4-1.8-4-4v-19.7c0-0.7,0.6-1.2,1.2-1.2s1.2,0.6,1.2,1.2v19.7
					c0,0.8,0.7,1.5,1.5,1.5h31.7c0.8,0,1.5-0.7,1.5-1.5c0-0.7,0.6-1.2,1.2-1.2s1.2,0.6,1.2,1.2C97.8,149,96,150.8,93.8,150.8z"/>
			</g>
		</g>
		<g>
			<path class="st0" d="M115,92.6H81.4c-0.7,0-1.2-0.6-1.2-1.2s0.6-1.2,1.2-1.2H115c0.7,0,1.2,0.6,1.2,1.2S115.6,92.6,115,92.6z"/>
		</g>
		<g>
			<path class="st0" d="M115,99.7H83.4c-0.7,0-1.2-0.6-1.2-1.2s0.6-1.2,1.2-1.2H115c0.7,0,1.2,0.6,1.2,1.2S115.6,99.7,115,99.7z"/>
		</g>
		<g>
			<path class="st0" d="M115,106.7H85.4c-0.7,0-1.2-0.6-1.2-1.2s0.6-1.2,1.2-1.2H115c0.7,0,1.2,0.6,1.2,1.2S115.6,106.7,115,106.7z"
				/>
		</g>
		<g>
			<path class="st0" d="M115,113.8H89.4c-0.7,0-1.2-0.6-1.2-1.2s0.6-1.2,1.2-1.2H115c0.7,0,1.2,0.6,1.2,1.2S115.6,113.8,115,113.8z"
				/>
		</g>
		<g>
			<path class="st0" d="M115,120.9H96.4c-0.7,0-1.2-0.6-1.2-1.2s0.6-1.2,1.2-1.2H115c0.7,0,1.2,0.6,1.2,1.2S115.6,120.9,115,120.9z"
				/>
		</g>
	</g>
	<g>
		<path class="st0" d="M100,172.7c-40.1,0-72.7-32.6-72.7-72.7S59.9,27.3,100,27.3s72.7,32.6,72.7,72.7S140.1,172.7,100,172.7z
			 M100,31.3c-37.9,0-68.7,30.8-68.7,68.7c0,37.9,30.8,68.7,68.7,68.7c37.9,0,68.7-30.8,68.7-68.7C168.7,62.1,137.9,31.3,100,31.3z"
			/>
	</g>
</g>
</svg>
