<?xml version="1.0" encoding="utf-8"?>
<!-- Generator: Adobe Illustrator 26.4.0, SVG Export Plug-In . SVG Version: 6.00 Build 0)  -->
<svg version="1.1" id="Layer_1" xmlns="http://www.w3.org/2000/svg" xmlns:xlink="http://www.w3.org/1999/xlink" x="0px" y="0px"
	 viewBox="0 0 200 200" style="enable-background:new 0 0 200 200;" xml:space="preserve">
<style type="text/css">
	.st0{fill:#0067FC;}
	.st1{fill:none;stroke:#0067FC;stroke-width:2.5;stroke-linecap:round;stroke-linejoin:round;stroke-miterlimit:10;}
</style>
<g>
	<g>
		<g>
			<path class="st0" d="M90.3,125.7c-7.3,0-13.2-5.9-13.2-13.2c0-7.3,5.9-13.2,13.2-13.2s13.2,5.9,13.2,13.2
				C103.5,119.8,97.6,125.7,90.3,125.7z M90.3,101.7c-5.9,0-10.7,4.8-10.7,10.7s4.8,10.7,10.7,10.7c5.9,0,10.7-4.8,10.7-10.7
				S96.2,101.7,90.3,101.7z"/>
		</g>
	</g>
	<g id="Group_263_00000089543122338941258070000001610098381501120665_" transform="translate(-598.5 -520.001)">
		<g id="Group_259_00000003095208668501549210000013052224054299667332_" transform="translate(549.903 487.744)">
			<g id="Ellipse_9_00000181770174964512557180000004054399442557195922_">
				<path class="st0" d="M138.9,145c-2.2,0-4-1.8-4-4c0-2.2,1.8-4,4-4s4,1.8,4,4C142.9,143.2,141.1,145,138.9,145z M138.9,139.5
					c-0.8,0-1.5,0.7-1.5,1.5s0.7,1.5,1.5,1.5s1.5-0.7,1.5-1.5S139.7,139.5,138.9,139.5z"/>
			</g>
			<g id="Path_16_00000038401838571673235450000007290804521048253614_">
				<path class="st0" d="M143.4,152.5c-0.7,0-1.2-0.6-1.2-1.2c0-1.8-1.5-3.3-3.3-3.3s-3.3,1.5-3.3,3.3c0,0.7-0.6,1.2-1.2,1.2
					s-1.2-0.6-1.2-1.2c0-3.2,2.6-5.8,5.8-5.8s5.8,2.6,5.8,5.8C144.6,152,144.1,152.5,143.4,152.5z"/>
			</g>
		</g>
	</g>
	<g>
		<g>
			<path class="st0" d="M117.2,142.9h-42c-3,0-5.5-2.5-5.5-5.5V61.9c0-3,2.5-5.5,5.5-5.5H125c3,0,5.5,2.5,5.5,5.5v66.3
				c0,0.3-0.1,0.6-0.3,0.8l-12.1,13.5C117.9,142.8,117.5,142.9,117.2,142.9z M72.1,92.8v44.6c0,1.7,1.3,3,3,3h41.5l11.4-12.8V61.9
				c0-1.7-1.3-3-3-3H75.1c-1.7,0-3,1.3-3,3V92.8z"/>
		</g>
		<g>
			<path class="st0" d="M116.2,142.5c-0.7,0-1.2-0.6-1.2-1.2v-8.8c0-3,2.5-5.5,5.5-5.5h8.8c0.7,0,1.2,0.6,1.2,1.2s-0.6,1.2-1.2,1.2
				h-8.8c-1.7,0-3,1.3-3,3v8.8C117.4,141.9,116.9,142.5,116.2,142.5z"/>
		</g>
	</g>
	<g>
		<g>
			<path class="st0" d="M119.8,77.8H80.3c-0.7,0-1.2-0.6-1.2-1.2v-8.9c0-0.7,0.6-1.2,1.2-1.2h39.6c0.7,0,1.2,0.6,1.2,1.2v8.9
				C121.1,77.2,120.5,77.8,119.8,77.8z M81.5,75.3h37.1v-6.4H81.5V75.3z"/>
		</g>
		<g>
			<path class="st0" d="M99.6,73.3H84.2c-0.7,0-1.2-0.6-1.2-1.2s0.6-1.2,1.2-1.2h15.4c0.7,0,1.2,0.6,1.2,1.2S100.3,73.3,99.6,73.3z"
				/>
		</g>
		<g>
			<path class="st0" d="M119.8,92.4H80.3c-0.7,0-1.2-0.6-1.2-1.2v-8.9c0-0.7,0.6-1.2,1.2-1.2h39.6c0.7,0,1.2,0.6,1.2,1.2v8.9
				C121.1,91.9,120.5,92.4,119.8,92.4z M81.5,89.9h37.1v-6.4H81.5V89.9z"/>
		</g>
		<g>
			<path class="st0" d="M99.6,88H84.2c-0.7,0-1.2-0.6-1.2-1.2s0.6-1.2,1.2-1.2h15.4c0.7,0,1.2,0.6,1.2,1.2S100.3,88,99.6,88z"/>
		</g>
	</g>
	<g>
		<path class="st0" d="M100.1,172.4c-40.1,0-72.7-32.6-72.7-72.7c0-40.1,32.6-72.7,72.7-72.7s72.7,32.6,72.7,72.7
			C172.8,139.7,140.2,172.4,100.1,172.4z M100.1,30.9c-37.9,0-68.7,30.8-68.7,68.7s30.8,68.7,68.7,68.7c37.9,0,68.7-30.8,68.7-68.7
			S138,30.9,100.1,30.9z"/>
	</g>
	<g>
		<path class="st1" d="M116.4,106.4"/>
	</g>
	<g>
		<path class="st0" d="M114.6,121.8c-0.7,0-1.2-0.6-1.2-1.2v-18.1c0-0.7,0.6-1.2,1.2-1.2s1.2,0.6,1.2,1.2v18.1
			C115.8,121.2,115.3,121.8,114.6,121.8z"/>
	</g>
	<g>
		<path class="st0" d="M121.2,108.5c-0.3,0-0.6-0.1-0.9-0.4l-5.8-5.8l-5.7,5.7c-0.5,0.5-1.3,0.5-1.8,0s-0.5-1.3,0-1.8l6.6-6.6
			c0.5-0.5,1.3-0.5,1.8,0l6.7,6.7c0.5,0.5,0.5,1.3,0,1.8C121.9,108.3,121.5,108.5,121.2,108.5z"/>
	</g>
</g>
</svg>
