<?xml version="1.0" encoding="utf-8"?>
<!-- Generator: Adobe Illustrator 26.3.1, SVG Export Plug-In . SVG Version: 6.00 Build 0)  -->
<svg version="1.1" id="Layer_1" xmlns="http://www.w3.org/2000/svg" xmlns:xlink="http://www.w3.org/1999/xlink" x="0px" y="0px"
	 viewBox="0 0 200 200" style="enable-background:new 0 0 200 200;" xml:space="preserve">
<style type="text/css">
	.st0{fill:#0067FC;}
</style>
<g>
	<g>
		<path class="st0" d="M100,172.7c-1,0-1.9,0-2.9-0.1c-40.1-1.6-71.4-35.5-69.8-75.5c0.8-19.4,9-37.4,23.3-50.5
			c14.3-13.2,32.8-20,52.2-19.2c19.4,0.8,37.4,9,50.5,23.3s20,32.8,19.2,52.2l0,0C171.1,142,138.8,172.7,100,172.7z M99.9,31.3
			c-17.3,0-33.8,6.4-46.6,18.2C39.9,62,32.1,78.9,31.3,97.3c-0.7,18.3,5.7,35.9,18.2,49.3c12.5,13.5,29.4,21.3,47.8,22
			c37.8,1.5,69.9-28.1,71.4-65.9l2,0.1l-2-0.1c0.7-18.3-5.7-35.9-18.2-49.3c-12.5-13.5-29.4-21.3-47.8-22
			C101.8,31.3,100.9,31.3,99.9,31.3z"/>
	</g>
	<g>
		<g id="Group_263_00000062908769084628046030000006970067908680461990_" transform="translate(-598.5 -520.001)">
			<g id="Group_259_00000057840099764585204300000015346628431378251435_" transform="translate(549.903 487.744)">
				<g id="Ellipse_9_00000156551120895542313650000001143559202486150073_">
					<path class="st0" d="M128.1,141.6c-7.1,0-12.9-5.8-12.9-12.9c0-7.1,5.8-12.9,12.9-12.9s12.9,5.8,12.9,12.9
						C140.9,135.8,135.1,141.6,128.1,141.6z M128.1,118.9c-5.4,0-9.9,4.4-9.9,9.9c0,5.4,4.4,9.9,9.9,9.9s9.9-4.4,9.9-9.9
						C137.9,123.3,133.5,118.9,128.1,118.9z"/>
				</g>
				<g id="Path_16_00000062154345226354223530000007544835366038207379_">
					<path class="st0" d="M146.6,163.1c-0.8,0-1.5-0.7-1.5-1.5c0-9.4-7.6-17-17-17s-17,7.6-17,17c0,0.8-0.7,1.5-1.5,1.5
						s-1.5-0.7-1.5-1.5c0-11,9-20,20-20s20,9,20,20C148.1,162.5,147.4,163.1,146.6,163.1z"/>
				</g>
			</g>
		</g>
	</g>
	<g>
		<path class="st0" d="M106,79.1c-0.4,0-0.8-0.1-1.1-0.4l-5-5L95,78.5c-0.6,0.6-1.5,0.6-2.1,0c-0.6-0.6-0.6-1.5,0-2.1l6-6
			c0.3-0.3,0.7-0.4,1.1-0.4l0,0c0.4,0,0.8,0.2,1.1,0.4l6.1,6.1c0.6,0.6,0.6,1.5,0,2.1C106.8,78.9,106.4,79.1,106,79.1z"/>
	</g>
	<g>
		<path class="st0" d="M100.1,85.2c-0.8,0-1.5-0.7-1.5-1.5V72.2c0-0.8,0.7-1.5,1.5-1.5s1.5,0.7,1.5,1.5v11.5
			C101.6,84.5,100.9,85.2,100.1,85.2z"/>
	</g>
	<g>
		<path class="st0" d="M135.2,74.2c-0.8,0-1.5-0.7-1.5-1.5v-5.9H66.5v5.9c0,0.8-0.7,1.5-1.5,1.5s-1.5-0.7-1.5-1.5v-7.4
			c0-0.8,0.7-1.5,1.5-1.5h70.3c0.8,0,1.5,0.7,1.5,1.5v7.4C136.7,73.6,136.1,74.2,135.2,74.2z"/>
	</g>
	<g>
		<path class="st0" d="M144.8,106.6h-39.6c-0.8,0-1.5-0.7-1.5-1.5v-8.9c0-0.8,0.7-1.5,1.5-1.5h39.6c0.8,0,1.5,0.7,1.5,1.5v8.9
			C146.3,105.9,145.6,106.6,144.8,106.6z M106.7,103.6h36.6v-5.9h-36.6V103.6z"/>
	</g>
	<g>
		<path class="st0" d="M124.6,102.1h-15.4c-0.8,0-1.5-0.7-1.5-1.5c0-0.8,0.7-1.5,1.5-1.5h15.4c0.8,0,1.5,0.7,1.5,1.5
			C126.1,101.4,125.4,102.1,124.6,102.1z"/>
	</g>
	<g>
		<path class="st0" d="M144.8,121.2h-39.6c-0.8,0-1.5-0.7-1.5-1.5v-8.9c0-0.8,0.7-1.5,1.5-1.5h39.6c0.8,0,1.5,0.7,1.5,1.5v8.9
			C146.3,120.5,145.6,121.2,144.8,121.2z M106.7,118.2h36.6v-5.9h-36.6V118.2z"/>
	</g>
	<g>
		<path class="st0" d="M124.6,116.7h-15.4c-0.8,0-1.5-0.7-1.5-1.5s0.7-1.5,1.5-1.5h15.4c0.8,0,1.5,0.7,1.5,1.5
			S125.4,116.7,124.6,116.7z"/>
	</g>
</g>
</svg>
