<?xml version="1.0" encoding="utf-8"?>
<!-- Generator: Adobe Illustrator 26.4.0, SVG Export Plug-In . SVG Version: 6.00 Build 0)  -->
<svg version="1.1" id="Layer_1" xmlns="http://www.w3.org/2000/svg" xmlns:xlink="http://www.w3.org/1999/xlink" x="0px" y="0px"
	 viewBox="0 0 200 200" style="enable-background:new 0 0 200 200;" xml:space="preserve">
<style type="text/css">
	.st0{fill:#0067FC;}
	.st1{fill:none;stroke:#0067FC;stroke-width:2.5;stroke-linecap:round;stroke-linejoin:round;stroke-miterlimit:10;}
</style>
<g>
	<g>
		<g>
			<path class="st0" d="M100,134.7c-8.9,0-16.1-7.2-16.1-16.1s7.2-16.1,16.1-16.1s16.1,7.2,16.1,16.1S108.9,134.7,100,134.7z
				 M100,105.1c-7.5,0-13.6,6.1-13.6,13.6c0,7.5,6.1,13.6,13.6,13.6c7.5,0,13.6-6.1,13.6-13.6C113.6,111.2,107.5,105.1,100,105.1z"
				/>
		</g>
	</g>
	<g id="Group_263_00000123409933749152916360000013008179880315527824_" transform="translate(-598.5 -520.001)">
		<g id="Group_259_00000093896333547013228340000006882317298151928969_" transform="translate(549.903 487.744)">
			<g id="Ellipse_9_00000090259094808316430100000003050480629786321813_">
				<path class="st0" d="M148.6,151c-2.6,0-4.7-2.1-4.7-4.7s2.1-4.7,4.7-4.7s4.7,2.1,4.7,4.7S151.2,151,148.6,151z M148.6,144.1
					c-1.2,0-2.2,1-2.2,2.2s1,2.2,2.2,2.2s2.2-1,2.2-2.2S149.8,144.1,148.6,144.1z"/>
			</g>
			<g id="Path_16_00000075867333254271196840000004490438226218861704_">
				<path class="st0" d="M154.2,160.2c-0.7,0-1.2-0.6-1.2-1.2c0-2.4-1.9-4.3-4.3-4.3c-2.4,0-4.3,1.9-4.3,4.3c0,0.7-0.6,1.2-1.2,1.2
					s-1.2-0.6-1.2-1.2c0-3.8,3.1-6.8,6.8-6.8s6.8,3.1,6.8,6.8C155.4,159.7,154.8,160.2,154.2,160.2z"/>
			</g>
		</g>
	</g>
	<g>
		<g>
			<path class="st1" d="M94,80.6"/>
		</g>
		<g>
			<path class="st0" d="M91.1,97.4c-0.7,0-1.2-0.6-1.2-1.2V73.9c0-0.7,0.6-1.2,1.2-1.2s1.2,0.6,1.2,1.2v22.2
				C92.3,96.8,91.8,97.4,91.1,97.4z"/>
		</g>
		<g>
			<path class="st0" d="M97.5,81.6c-0.3,0-0.6-0.1-0.9-0.4l-5.5-5.5l-5.4,5.4c-0.5,0.5-1.3,0.5-1.8,0s-0.5-1.3,0-1.8l6.3-6.3
				c0.5-0.5,1.3-0.5,1.8,0l6.4,6.4c0.5,0.5,0.5,1.3,0,1.8C98.1,81.5,97.8,81.6,97.5,81.6z"/>
		</g>
		<g>
			<path class="st1" d="M106,89.5"/>
		</g>
		<g>
			<path class="st0" d="M108.9,97.4c-0.7,0-1.2-0.6-1.2-1.2V73.9c0-0.7,0.6-1.2,1.2-1.2s1.2,0.6,1.2,1.2v22.2
				C110.2,96.8,109.6,97.4,108.9,97.4z"/>
		</g>
		<g>
			<path class="st0" d="M108.9,97.4c-0.3,0-0.6-0.1-0.9-0.4l-6.4-6.4c-0.5-0.5-0.5-1.3,0-1.8s1.3-0.5,1.8,0l5.5,5.5l5.4-5.4
				c0.5-0.5,1.3-0.5,1.8,0s0.5,1.3,0,1.8l-6.3,6.3C109.6,97.3,109.3,97.4,108.9,97.4z"/>
		</g>
	</g>
	<g>
		<g>
			<path class="st0" d="M117.1,143.3h-42c-3,0-5.5-2.5-5.5-5.5V62.2c0-3,2.5-5.5,5.5-5.5h49.8c3,0,5.5,2.5,5.5,5.5v66.3
				c0,0.3-0.1,0.6-0.3,0.8L118,142.9C117.8,143.1,117.5,143.3,117.1,143.3z M72.1,93.2v44.6c0,1.7,1.3,3,3,3h41.5l11.4-12.8V62.2
				c0-1.7-1.3-3-3-3H75.1c-1.7,0-3,1.3-3,3V93.2z"/>
		</g>
		<g>
			<path class="st0" d="M116.1,142.8c-0.7,0-1.2-0.6-1.2-1.2v-8.8c0-3,2.5-5.5,5.5-5.5h8.8c0.7,0,1.2,0.6,1.2,1.2s-0.6,1.2-1.2,1.2
				h-8.8c-1.7,0-3,1.3-3,3v8.8C117.4,142.3,116.8,142.8,116.1,142.8z"/>
		</g>
	</g>
	<g>
		<path class="st0" d="M100,172.7c-40.1,0-72.7-32.6-72.7-72.7S59.9,27.3,100,27.3s72.7,32.6,72.7,72.7S140.1,172.7,100,172.7z
			 M100,31.3c-37.9,0-68.7,30.8-68.7,68.7c0,37.9,30.8,68.7,68.7,68.7c37.9,0,68.7-30.8,68.7-68.7C168.7,62.1,137.9,31.3,100,31.3z"
			/>
	</g>
</g>
</svg>
