<?xml version="1.0" encoding="utf-8"?>
<!-- Generator: Adobe Illustrator 26.3.1, SVG Export Plug-In . SVG Version: 6.00 Build 0)  -->
<svg version="1.1" id="Layer_1" xmlns="http://www.w3.org/2000/svg" xmlns:xlink="http://www.w3.org/1999/xlink" x="0px" y="0px"
	 viewBox="0 0 200 200" style="enable-background:new 0 0 200 200;" xml:space="preserve">
<style type="text/css">
	.st0{fill:#0067FC;}
</style>
<g>
	<g>
		<path class="st0" d="M100,172.7c-1,0-1.9,0-2.9-0.1c-40.1-1.6-71.4-35.5-69.8-75.5c0.8-19.4,9-37.4,23.3-50.5
			c14.3-13.2,32.8-20,52.2-19.2c19.4,0.8,37.4,9,50.5,23.3s20,32.8,19.2,52.2l0,0C171.1,142,138.8,172.7,100,172.7z M99.9,31.3
			c-17.3,0-33.8,6.4-46.6,18.2C39.9,62,32.1,78.9,31.3,97.3c-0.7,18.3,5.7,35.9,18.2,49.3c12.5,13.5,29.4,21.3,47.8,22
			c37.8,1.5,69.9-28.1,71.4-65.9l2,0.1l-2-0.1c0.7-18.3-5.7-35.9-18.2-49.3c-12.5-13.5-29.4-21.3-47.8-22
			C101.8,31.3,100.9,31.3,99.9,31.3z"/>
	</g>
	<g>
		<g>
			<g id="Group_263_00000140699449385114309460000015606148013721472415_" transform="translate(-598.5 -520.001)">
				<g id="Group_259_00000134232728011436516340000002780531357349377973_" transform="translate(549.903 487.744)">
					<g id="Ellipse_9_00000073722801464064087680000011388200787477772965_">
						<path class="st0" d="M148.5,148.4c-8.1,0-14.6-6.6-14.6-14.6c0-8.1,6.6-14.6,14.6-14.6s14.6,6.6,14.6,14.6
							C163.1,141.9,156.5,148.4,148.5,148.4z M148.5,122.2c-6.4,0-11.6,5.2-11.6,11.6c0,6.4,5.2,11.6,11.6,11.6s11.6-5.2,11.6-11.6
							C160.1,127.4,154.9,122.2,148.5,122.2z"/>
					</g>
					<g id="Path_16_00000108277551553922007710000003108095025331384972_">
						<path class="st0" d="M169.9,173.3c-0.8,0-1.5-0.7-1.5-1.5c0-11-8.9-19.9-19.9-19.9c-11,0-19.9,8.9-19.9,19.9
							c0,0.8-0.7,1.5-1.5,1.5s-1.5-0.7-1.5-1.5c0-12.6,10.3-22.9,22.9-22.9c12.6,0,22.9,10.3,22.9,22.9
							C171.4,172.6,170.7,173.3,169.9,173.3z"/>
					</g>
				</g>
			</g>
		</g>
		<g>
			<path class="st0" d="M105.9,74.1c-0.4,0-0.8-0.1-1.1-0.4l-5-5l-4.9,4.9c-0.6,0.6-1.5,0.6-2.1,0c-0.6-0.6-0.6-1.5,0-2.1l6-6
				c0.3-0.3,0.7-0.4,1.1-0.4l0,0c0.4,0,0.8,0.2,1.1,0.4l6.1,6.1c0.6,0.6,0.6,1.5,0,2.1C106.7,74,106.3,74.1,105.9,74.1z"/>
		</g>
		<g>
			<path class="st0" d="M100,83.3c-0.8,0-1.5-0.7-1.5-1.5V67.2c0-0.8,0.7-1.5,1.5-1.5s1.5,0.7,1.5,1.5v14.5
				C101.5,82.6,100.8,83.3,100,83.3z"/>
		</g>
		<g>
			<path class="st0" d="M127.3,69.3c-0.8,0-1.5-0.7-1.5-1.5v-5.9H74.2v5.9c0,0.8-0.7,1.5-1.5,1.5s-1.5-0.7-1.5-1.5v-7.4
				c0-0.8,0.7-1.5,1.5-1.5h54.7c0.8,0,1.5,0.7,1.5,1.5v7.4C128.8,68.6,128.2,69.3,127.3,69.3z"/>
		</g>
	</g>
</g>
</svg>
