<?xml version="1.0" encoding="utf-8"?>
<!-- Generator: Adobe Illustrator 26.3.1, SVG Export Plug-In . SVG Version: 6.00 Build 0)  -->
<svg version="1.1" id="Layer_1" xmlns="http://www.w3.org/2000/svg" xmlns:xlink="http://www.w3.org/1999/xlink" x="0px" y="0px"
	 viewBox="0 0 200 200" style="enable-background:new 0 0 200 200;" xml:space="preserve">
<style type="text/css">
	.st0{fill:#0067FC;}
</style>
<g>
	<g id="Group_263_00000005232075313535704720000001786381552140417969_" transform="translate(-598.5 -520.001)">
		<g id="Group_259_00000041295454921914671860000008443554462807515529_" transform="translate(549.903 487.744)">
			<g id="Ellipse_9_00000106831905622409390620000013598699807139160202_">
				<path class="st0" d="M178.9,136.3c-2.9,0-5.3-2.4-5.3-5.3s2.4-5.3,5.3-5.3s5.3,2.4,5.3,5.3S181.8,136.3,178.9,136.3z
					 M178.9,128.2c-1.5,0-2.8,1.2-2.8,2.8s1.2,2.8,2.8,2.8c1.5,0,2.8-1.2,2.8-2.8S180.4,128.2,178.9,128.2z"/>
			</g>
			<g id="Path_16_00000151531115837124069770000008734064267886250426_">
				<path class="st0" d="M185.4,147.1c-0.7,0-1.2-0.6-1.2-1.2c0-2.9-2.4-5.3-5.3-5.3s-5.3,2.4-5.3,5.3c0,0.7-0.6,1.2-1.2,1.2
					s-1.2-0.6-1.2-1.2c0-4.3,3.5-7.8,7.8-7.8s7.8,3.5,7.8,7.8C186.7,146.6,186.1,147.1,185.4,147.1z"/>
			</g>
		</g>
	</g>
	<g>
		<path class="st0" d="M110.6,123.6h-30c-0.7,0-1.2-0.6-1.2-1.2s0.6-1.2,1.2-1.2h30c0.7,0,1.2,0.6,1.2,1.2S111.2,123.6,110.6,123.6z
			"/>
	</g>
	<g>
		<path class="st0" d="M108.8,129.3H80.6c-0.7,0-1.2-0.6-1.2-1.2s0.6-1.2,1.2-1.2h28.2c0.7,0,1.2,0.6,1.2,1.2
			S109.5,129.3,108.8,129.3z"/>
	</g>
	<g>
		<path class="st0" d="M107,135.1H80.6c-0.7,0-1.2-0.6-1.2-1.2s0.6-1.2,1.2-1.2H107c0.7,0,1.2,0.6,1.2,1.2S107.7,135.1,107,135.1z"
			/>
	</g>
	<g>
		<path class="st0" d="M120.9,72.5H80.6c-0.7,0-1.2-0.6-1.2-1.2s0.6-1.2,1.2-1.2h40.3c0.7,0,1.2,0.6,1.2,1.2S121.6,72.5,120.9,72.5z
			"/>
	</g>
	<g>
		<path class="st0" d="M118.5,78.2H80.6c-0.7,0-1.2-0.6-1.2-1.2s0.6-1.2,1.2-1.2h37.9c0.7,0,1.2,0.6,1.2,1.2S119.2,78.2,118.5,78.2z
			"/>
	</g>
	<g>
		<path class="st0" d="M116.1,84H80.6c-0.7,0-1.2-0.6-1.2-1.2s0.6-1.2,1.2-1.2h35.5c0.7,0,1.2,0.6,1.2,1.2S116.8,84,116.1,84z"/>
	</g>
	<g>
		<g>
			<path class="st0" d="M92.7,116.1c-7.1,0-12.8-5.8-12.8-12.8c0-7.1,5.8-12.8,12.8-12.8c0.7,0,1.2,0.6,1.2,1.2V102h10.3
				c0.7,0,1.2,0.6,1.2,1.2C105.5,110.4,99.8,116.1,92.7,116.1z M91.4,93c-5.1,0.6-9.1,5-9.1,10.3c0,5.7,4.6,10.3,10.3,10.3
				c5.3,0,9.6-4,10.3-9.1H92.7c-0.7,0-1.2-0.6-1.2-1.2V93z"/>
		</g>
		<g>
			<path class="st0" d="M95.4,88.7l0,11.6H107C107,93.8,101.8,88.7,95.4,88.7z"/>
		</g>
	</g>
	<g>
		<g>
			<path class="st0" d="M118.3,143.2h-42c-3,0-5.5-2.5-5.5-5.5V90c0-0.7,0.6-1.2,1.2-1.2s1.2,0.6,1.2,1.2v47.7c0,1.7,1.3,3,3,3h41.5
				l11.4-12.8v-7c0-0.7,0.6-1.2,1.2-1.2s1.2,0.6,1.2,1.2v7.5c0,0.3-0.1,0.6-0.3,0.8l-12.1,13.5C119,143.1,118.6,143.2,118.3,143.2z"
				/>
		</g>
		<g>
			<path class="st0" d="M72,94.4c-0.7,0-1.2-0.6-1.2-1.2v-31c0-3,2.5-5.5,5.5-5.5h49.8c3,0,5.5,2.5,5.5,5.5v22.6
				c0,0.7-0.6,1.2-1.2,1.2s-1.2-0.6-1.2-1.2V62.2c0-1.7-1.3-3-3-3H76.2c-1.7,0-3,1.3-3,3v31C73.2,93.9,72.7,94.4,72,94.4z"/>
		</g>
		<g>
			<path class="st0" d="M117.3,142.8c-0.7,0-1.2-0.6-1.2-1.2v-8.8c0-3,2.5-5.5,5.5-5.5h8.8c0.7,0,1.2,0.6,1.2,1.2s-0.6,1.2-1.2,1.2
				h-8.8c-1.7,0-3,1.3-3,3v8.8C118.5,142.2,118,142.8,117.3,142.8z"/>
		</g>
		<g>
			<path class="st0" d="M130.3,121.6c-10,0-18.2-8.2-18.2-18.2s8.2-18.2,18.2-18.2s18.2,8.2,18.2,18.2S140.4,121.6,130.3,121.6z
				 M130.3,87.5c-8.7,0-15.9,7.1-15.9,15.9c0,8.7,7.1,15.9,15.9,15.9s15.9-7.1,15.9-15.9C146.2,94.7,139.1,87.5,130.3,87.5z"/>
		</g>
	</g>
	<g>
		<path class="st0" d="M100,172.7c-40.1,0-72.7-32.6-72.7-72.7S59.9,27.3,100,27.3s72.7,32.6,72.7,72.7S140.1,172.7,100,172.7z
			 M100,31.3c-37.9,0-68.7,30.8-68.7,68.7c0,37.9,30.8,68.7,68.7,68.7c37.9,0,68.7-30.8,68.7-68.7C168.7,62.1,137.9,31.3,100,31.3z"
			/>
	</g>
</g>
</svg>
