<?xml version="1.0" encoding="utf-8"?>
<!-- Generator: Adobe Illustrator 26.3.1, SVG Export Plug-In . SVG Version: 6.00 Build 0)  -->
<svg version="1.1" id="Layer_1" xmlns="http://www.w3.org/2000/svg" xmlns:xlink="http://www.w3.org/1999/xlink" x="0px" y="0px"
	 viewBox="0 0 200 200" style="enable-background:new 0 0 200 200;" xml:space="preserve">
<style type="text/css">
	.st0{fill:none;stroke:#0067FC;stroke-width:2.5;stroke-linecap:round;stroke-linejoin:round;stroke-miterlimit:10;}
	.st1{fill:#0067FC;}
</style>
<g>
	<g>
		<path class="st0" d="M99.9,80.3"/>
	</g>
	<g>
		<path class="st1" d="M99.9,85.5c-0.7,0-1.2-0.6-1.2-1.2V70.9c0-0.7,0.6-1.2,1.2-1.2s1.2,0.6,1.2,1.2v13.4
			C101.2,84.9,100.6,85.5,99.9,85.5z"/>
	</g>
	<g>
		<path class="st1" d="M100,87.4L100,87.4c-0.3,0-0.6-0.1-0.9-0.4l-6.7-6.7c-0.5-0.5-0.5-1.3,0-1.8c0.5-0.5,1.3-0.5,1.8,0l5.8,5.8
			l5.7-5.7c0.5-0.5,1.3-0.5,1.8,0s0.5,1.3,0,1.8l-6.6,6.6C100.6,87.3,100.3,87.4,100,87.4z"/>
	</g>
	<g>
		<path class="st1" d="M120.7,101.5H81.1c-0.7,0-1.2-0.6-1.2-1.2v-8.9c0-0.7,0.6-1.2,1.2-1.2h39.6c0.7,0,1.2,0.6,1.2,1.2v8.9
			C122,101,121.4,101.5,120.7,101.5z M82.4,99h37.1v-6.4H82.4V99z"/>
	</g>
	<g>
		<path class="st1" d="M100.5,97H85.1c-0.7,0-1.2-0.6-1.2-1.2s0.6-1.2,1.2-1.2h15.4c0.7,0,1.3,0.6,1.3,1.2S101.2,97,100.5,97z"/>
	</g>
	<g>
		<path class="st1" d="M116.1,97h-3.6c-0.7,0-1.2-0.6-1.2-1.2s0.6-1.2,1.2-1.2h3.6c0.7,0,1.2,0.6,1.2,1.2S116.8,97,116.1,97z"/>
	</g>
	<g>
		<path class="st1" d="M117.2,103.1c-0.7,0-1.2-0.6-1.2-1.2v-1.4c0-0.7,0.6-1.2,1.2-1.2s1.2,0.6,1.2,1.2v1.4
			C118.5,102.5,117.9,103.1,117.2,103.1z"/>
	</g>
	<g>
		<path class="st1" d="M85.6,103.1c-0.7,0-1.2-0.6-1.2-1.2v-1.4c0-0.7,0.6-1.2,1.2-1.2s1.2,0.6,1.2,1.2v1.4
			C86.9,102.5,86.3,103.1,85.6,103.1z"/>
	</g>
	<g>
		<g>
			<path class="st1" d="M117.1,143.2h-42c-3,0-5.5-2.5-5.5-5.5V62.2c0-3,2.5-5.5,5.5-5.5h49.8c3,0,5.5,2.5,5.5,5.5v66.3
				c0,0.3-0.1,0.6-0.3,0.8L118,142.8C117.8,143.1,117.5,143.2,117.1,143.2z M72.1,93.2v44.6c0,1.7,1.3,3,3,3h41.5l11.4-12.8V62.2
				c0-1.7-1.3-3-3-3H75.1c-1.7,0-3,1.3-3,3V93.2z"/>
		</g>
		<g>
			<path class="st1" d="M116.1,142.8c-0.7,0-1.2-0.6-1.2-1.2v-8.8c0-3,2.5-5.5,5.5-5.5h8.8c0.7,0,1.2,0.6,1.2,1.2s-0.6,1.2-1.2,1.2
				h-8.8c-1.7,0-3,1.3-3,3v8.8C117.4,142.2,116.8,142.8,116.1,142.8z"/>
		</g>
	</g>
	<g>
		<g>
			<path class="st1" d="M117.7,113.1h-27c-0.7,0-1.2-0.6-1.2-1.2s0.6-1.2,1.2-1.2h27c0.7,0,1.2,0.6,1.2,1.2S118.4,113.1,117.7,113.1
				z"/>
		</g>
		<g>
			<path class="st1" d="M117.7,120.2h-27c-0.7,0-1.2-0.6-1.2-1.2s0.6-1.2,1.2-1.2h27c0.7,0,1.2,0.6,1.2,1.2S118.4,120.2,117.7,120.2
				z"/>
		</g>
		<g>
			<path class="st1" d="M107.7,127.2h-17c-0.7,0-1.2-0.6-1.2-1.2s0.6-1.2,1.2-1.2h17c0.7,0,1.2,0.6,1.2,1.2S108.4,127.2,107.7,127.2
				z"/>
		</g>
		<g>
			<path class="st1" d="M83.7,114.5c-0.3,0-0.6-0.1-0.9-0.4l-1.4-1.4c-0.5-0.5-0.5-1.3,0-1.8s1.3-0.5,1.8,0l0.5,0.5l1.9-1.9
				c0.5-0.5,1.3-0.5,1.8,0s0.5,1.3,0,1.8l-2.8,2.8C84.4,114.4,84.1,114.5,83.7,114.5z"/>
		</g>
		<g>
			<path class="st1" d="M83.7,121.6c-0.3,0-0.6-0.1-0.9-0.4l-1.4-1.4c-0.5-0.5-0.5-1.3,0-1.8s1.3-0.5,1.8,0l0.5,0.5l1.9-1.9
				c0.5-0.5,1.3-0.5,1.8,0s0.5,1.3,0,1.8l-2.8,2.8C84.4,121.5,84.1,121.6,83.7,121.6z"/>
		</g>
		<g>
			<path class="st1" d="M83.7,128c-0.3,0-0.6-0.1-0.9-0.4l-1.4-1.4c-0.5-0.5-0.5-1.3,0-1.8s1.3-0.5,1.8,0l0.5,0.5l1.9-1.9
				c0.5-0.5,1.3-0.5,1.8,0s0.5,1.3,0,1.8l-2.8,2.8C84.4,127.9,84.1,128,83.7,128z"/>
		</g>
	</g>
	<g>
		<path class="st1" d="M100,172.7c-40.1,0-72.7-32.6-72.7-72.7S59.9,27.3,100,27.3s72.7,32.6,72.7,72.7S140.1,172.7,100,172.7z
			 M100,31.3c-37.9,0-68.7,30.8-68.7,68.7c0,37.9,30.8,68.7,68.7,68.7c37.9,0,68.7-30.8,68.7-68.7C168.7,62.1,137.9,31.3,100,31.3z"
			/>
	</g>
</g>
</svg>
