<?xml version="1.0" encoding="utf-8"?>
<!-- Generator: Adobe Illustrator 26.4.0, SVG Export Plug-In . SVG Version: 6.00 Build 0)  -->
<svg version="1.1" id="Layer_1" xmlns="http://www.w3.org/2000/svg" xmlns:xlink="http://www.w3.org/1999/xlink" x="0px" y="0px"
	 viewBox="0 0 200 200" style="enable-background:new 0 0 200 200;" xml:space="preserve">
<style type="text/css">
	.st0{fill:#0067FC;}
</style>
<g>
	<g>
		<g>
			<path class="st0" d="M117.1,143.3h-42c-3,0-5.5-2.5-5.5-5.5V62.2c0-3,2.5-5.5,5.5-5.5h49.8c3,0,5.5,2.5,5.5,5.5v66.3
				c0,0.3-0.1,0.6-0.3,0.8L118,142.9C117.8,143.1,117.5,143.3,117.1,143.3z M72.1,93.2v44.6c0,1.7,1.3,3,3,3h41.5l11.4-12.8V62.2
				c0-1.7-1.3-3-3-3H75.1c-1.7,0-3,1.3-3,3V93.2z"/>
		</g>
		<g>
			<path class="st0" d="M116.1,142.8c-0.7,0-1.2-0.6-1.2-1.2v-8.8c0-3,2.5-5.5,5.5-5.5h8.8c0.7,0,1.2,0.6,1.2,1.2s-0.6,1.2-1.2,1.2
				h-8.8c-1.7,0-3,1.3-3,3v8.8C117.4,142.3,116.8,142.8,116.1,142.8z"/>
		</g>
	</g>
	<g>
		<path class="st0" d="M100,172.7c-40.1,0-72.7-32.6-72.7-72.7S59.9,27.3,100,27.3s72.7,32.6,72.7,72.7S140.1,172.7,100,172.7z
			 M100,31.3c-37.9,0-68.7,30.8-68.7,68.7c0,37.9,30.8,68.7,68.7,68.7c37.9,0,68.7-30.8,68.7-68.7C168.7,62.1,137.9,31.3,100,31.3z"
			/>
	</g>
	<g>
		<g>
			<g>
				<path class="st0" d="M121.5,121.4h-43c-0.7,0-1.2-0.6-1.2-1.2v-23c0-0.7,0.6-1.2,1.2-1.2s1.2,0.6,1.2,1.2v21.8h40.5V97.1
					c0-0.7,0.6-1.2,1.2-1.2s1.2,0.6,1.2,1.2v23C122.7,120.8,122.2,121.4,121.5,121.4z"/>
			</g>
			<g>
				<path class="st0" d="M121.5,98.3c-0.3,0-0.5-0.1-0.8-0.3L99.2,80.9c-0.5-0.4-0.6-1.2-0.2-1.8s1.2-0.6,1.8-0.2l21.5,17.2
					c0.5,0.4,0.6,1.2,0.2,1.8C122.2,98.2,121.8,98.3,121.5,98.3z"/>
			</g>
			<g>
				<path class="st0" d="M78.5,98.3c-0.4,0-0.7-0.2-1-0.5c-0.4-0.5-0.3-1.3,0.2-1.8l21.5-17.2c0.5-0.4,1.3-0.3,1.8,0.2
					c0.4,0.5,0.3,1.3-0.2,1.8L79.3,98C79.1,98.2,78.8,98.3,78.5,98.3z"/>
			</g>
		</g>
		<g>
			<g>
				<g>
					<path class="st0" d="M100,103.4c-4.4,0-7.9-3.5-7.9-7.9s3.5-7.9,7.9-7.9s7.9,3.5,7.9,7.9S104.4,103.4,100,103.4z M100,90.1
						c-3,0-5.4,2.4-5.4,5.4s2.4,5.4,5.4,5.4c3,0,5.4-2.4,5.4-5.4S103,90.1,100,90.1z"/>
				</g>
			</g>
			<g>
				<path class="st0" d="M98.1,98.5C98.1,98.5,98.1,98.5,98.1,98.5c-0.4,0-0.7-0.2-1-0.4l-1.3-1.6c-0.4-0.5-0.4-1.3,0.1-1.8
					s1.3-0.4,1.8,0.1l0.5,0.6l3.1-2.9c0.5-0.5,1.3-0.4,1.8,0.1c0.5,0.5,0.4,1.3-0.1,1.8L99,98.2C98.7,98.4,98.4,98.5,98.1,98.5z"/>
			</g>
		</g>
		<g>
			<path class="st0" d="M100,111.6c-0.2,0-0.5-0.1-0.7-0.2L77.9,98.1c-0.6-0.4-0.8-1.1-0.4-1.7c0.4-0.6,1.1-0.8,1.7-0.4l21.5,13.3
				c0.6,0.4,0.8,1.1,0.4,1.7C100.8,111.4,100.4,111.6,100,111.6z"/>
		</g>
		<g>
			<path class="st0" d="M100,111.6c-0.4,0-0.8-0.2-1.1-0.6c-0.4-0.6-0.2-1.4,0.4-1.7L120.8,96c0.6-0.4,1.4-0.2,1.7,0.4
				c0.4,0.6,0.2,1.4-0.4,1.7l-21.5,13.3C100.5,111.6,100.2,111.6,100,111.6z"/>
		</g>
		<g>
			<path class="st0" d="M121.5,121.4c-0.3,0-0.6-0.1-0.9-0.3l-14.2-13.3c-0.5-0.5-0.5-1.3-0.1-1.8c0.5-0.5,1.3-0.5,1.8-0.1
				l14.2,13.3c0.5,0.5,0.5,1.3,0.1,1.8C122.1,121.2,121.8,121.4,121.5,121.4z"/>
		</g>
		<g>
			<path class="st0" d="M78.5,121.4c-0.3,0-0.7-0.1-0.9-0.4c-0.5-0.5-0.4-1.3,0.1-1.8l14.2-13.3c0.5-0.5,1.3-0.4,1.8,0.1
				c0.5,0.5,0.4,1.3-0.1,1.8L79.4,121C79.1,121.3,78.8,121.4,78.5,121.4z"/>
		</g>
	</g>
</g>
</svg>
