<?xml version="1.0" encoding="utf-8"?>
<!-- Generator: Adobe Illustrator 26.3.1, SVG Export Plug-In . SVG Version: 6.00 Build 0)  -->
<svg version="1.1" id="Layer_1" xmlns="http://www.w3.org/2000/svg" xmlns:xlink="http://www.w3.org/1999/xlink" x="0px" y="0px"
	 viewBox="0 0 200 200" style="enable-background:new 0 0 200 200;" xml:space="preserve">
<style type="text/css">
	.st0{fill:#0067FC;}
</style>
<g>
	<g>
		<g>
			<path class="st0" d="M117.1,143.3h-42c-3,0-5.5-2.5-5.5-5.5V62.2c0-3,2.5-5.5,5.5-5.5h49.8c3,0,5.5,2.5,5.5,5.5v66.3
				c0,0.3-0.1,0.6-0.3,0.8L118,142.9C117.8,143.1,117.5,143.3,117.1,143.3z M72.1,93.2v44.6c0,1.7,1.3,3,3,3h41.5l11.4-12.8V62.2
				c0-1.7-1.3-3-3-3H75.1c-1.7,0-3,1.3-3,3V93.2z"/>
		</g>
		<g>
			<path class="st0" d="M116.1,142.8c-0.7,0-1.2-0.6-1.2-1.2v-8.8c0-3,2.5-5.5,5.5-5.5h8.8c0.7,0,1.2,0.6,1.2,1.2s-0.6,1.2-1.2,1.2
				h-8.8c-1.7,0-3,1.3-3,3v8.8C117.4,142.3,116.8,142.8,116.1,142.8z"/>
		</g>
	</g>
	<g>
		<path class="st0" d="M100,172.7c-40.1,0-72.7-32.6-72.7-72.7S59.9,27.3,100,27.3s72.7,32.6,72.7,72.7S140.1,172.7,100,172.7z
			 M100,31.3c-37.9,0-68.7,30.8-68.7,68.7c0,37.9,30.8,68.7,68.7,68.7c37.9,0,68.7-30.8,68.7-68.7C168.7,62.1,137.9,31.3,100,31.3z"
			/>
	</g>
	<g>
		<g>
			<path class="st0" d="M99.5,129.3c-0.2,0-0.4,0-0.5-0.1l-15.7-7.2c-0.4-0.2-0.7-0.6-0.7-1.1l-0.2-11.4c0-0.4,0.2-0.8,0.5-1
				s0.7-0.3,1.1-0.2l15.9,4c0.6,0.1,0.9,0.6,0.9,1.2v14.5c0,0.4-0.2,0.8-0.6,1.1C99.9,129.3,99.7,129.3,99.5,129.3z M85,120.1
				l13.2,6v-11.6l-13.4-3.4L85,120.1z"/>
		</g>
		<g>
			<path class="st0" d="M99.5,129.3c-0.2,0-0.5-0.1-0.7-0.2c-0.3-0.2-0.6-0.6-0.6-1v-14.5c0-0.5,0.3-1,0.9-1.2l17.4-5.8
				c0.4-0.1,0.8-0.1,1.1,0.2c0.3,0.2,0.5,0.6,0.5,1l-0.4,13.3c0,0.5-0.3,0.9-0.8,1.1l-16.9,7C99.8,129.3,99.6,129.3,99.5,129.3z
				 M100.7,114.4v11.8l14.5-6l0.3-10.7L100.7,114.4z M116.4,121L116.4,121L116.4,121z"/>
		</g>
		<g>
			<path class="st0" d="M99.5,114.8c-0.1,0-0.2,0-0.3,0l-15.9-4c-0.5-0.1-0.9-0.6-0.9-1.2c0-0.6,0.3-1.1,0.9-1.2l16.6-5.6
				c0.2-0.1,0.5-0.1,0.7,0l16.6,3.8c0.5,0.1,0.9,0.6,1,1.2c0,0.6-0.3,1.1-0.9,1.2l-17.4,5.8C99.7,114.8,99.6,114.8,99.5,114.8z
				 M88,109.3l11.4,2.9l12.8-4.3l-12-2.7L88,109.3z"/>
		</g>
		<g>
			<path class="st0" d="M91.1,112.7c-0.5,0-1-0.3-1.2-0.9c-0.2-0.7,0.2-1.4,0.8-1.6l17.5-5.6c0.7-0.2,1.4,0.2,1.6,0.8
				c0.2,0.7-0.2,1.4-0.8,1.6l-17.5,5.6C91.4,112.6,91.3,112.7,91.1,112.7z"/>
		</g>
		<g>
			<path class="st0" d="M90.9,119.1c-0.7,0-1.2-0.6-1.2-1.2v-6.5c0-0.7,0.6-1.2,1.2-1.2s1.2,0.6,1.2,1.2v6.5
				C92.2,118.6,91.6,119.1,90.9,119.1z"/>
		</g>
		<g>
			<path class="st0" d="M104.3,122.2c-0.5,0-1-0.3-1.2-0.8c-0.2-0.6,0.1-1.4,0.7-1.6l3.9-1.5c0.6-0.2,1.4,0.1,1.6,0.7
				c0.2,0.6-0.1,1.4-0.7,1.6l-3.9,1.5C104.6,122.2,104.4,122.2,104.3,122.2z"/>
		</g>
	</g>
	<g>
		<path class="st0" d="M100,96.8c-7.4,0-13.4-6-13.4-13.4s6-13.4,13.4-13.4c7.4,0,13.4,6,13.4,13.4S107.4,96.8,100,96.8z M100,72.4
			c-6,0-10.9,4.9-10.9,10.9S94,94.3,100,94.3s10.9-4.9,10.9-10.9S106,72.4,100,72.4z"/>
	</g>
	<g>
		<path class="st0" d="M100,85.8c-0.7,0-1.2-0.6-1.2-1.2v-6.7c0-0.7,0.6-1.2,1.2-1.2s1.2,0.6,1.2,1.2v6.7
			C101.2,85.2,100.7,85.8,100,85.8z"/>
	</g>
	<g>
		<path class="st0" d="M100,72.4c-0.7,0-1.2-0.6-1.2-1.2v-2.4c0-0.7,0.6-1.2,1.2-1.2s1.2,0.6,1.2,1.2v2.4
			C101.2,71.9,100.7,72.4,100,72.4z"/>
	</g>
	<g>
		<path class="st0" d="M101.2,69.4h-2.4c-0.7,0-1.2-0.6-1.2-1.2s0.6-1.2,1.2-1.2h2.4c0.7,0,1.2,0.6,1.2,1.2S101.9,69.4,101.2,69.4z"
			/>
	</g>
	<g>
		<path class="st0" d="M108.5,75.1c-0.7,0-1.2-0.6-1.2-1.2v-2.4c0-0.7,0.6-1.2,1.2-1.2s1.2,0.6,1.2,1.2v2.4
			C109.7,74.6,109.2,75.1,108.5,75.1z"/>
	</g>
	<g>
		<path class="st0" d="M91.7,75.1c-0.7,0-1.2-0.6-1.2-1.2v-2.4c0-0.7,0.6-1.2,1.2-1.2s1.2,0.6,1.2,1.2v2.4
			C92.9,74.6,92.4,75.1,91.7,75.1z"/>
	</g>
	<g>
		<path class="st0" d="M100,86.2h-5.6c-0.7,0-1.2-0.6-1.2-1.2s0.6-1.2,1.2-1.2h5.6c0.7,0,1.2,0.6,1.2,1.2S100.7,86.2,100,86.2z"/>
	</g>
</g>
</svg>
