<?xml version="1.0" encoding="utf-8"?>
<!-- Generator: Adobe Illustrator 26.4.0, SVG Export Plug-In . SVG Version: 6.00 Build 0)  -->
<svg version="1.1" id="Layer_1" xmlns="http://www.w3.org/2000/svg" xmlns:xlink="http://www.w3.org/1999/xlink" x="0px" y="0px"
	 viewBox="0 0 200 200" style="enable-background:new 0 0 200 200;" xml:space="preserve">
<style type="text/css">
	.st0{fill:#0067FC;}
</style>
<g>
	<g>
		<path class="st0" d="M100,134.6c-19.1,0-34.6-15.5-34.6-34.6c0-19.1,15.5-34.6,34.6-34.6c13.9,0,26.4,8.3,31.8,21.1
			c0.3,0.6,0,1.4-0.7,1.6c-0.6,0.3-1.4,0-1.6-0.7c-5-11.9-16.6-19.5-29.5-19.5c-17.7,0-32.1,14.4-32.1,32.1s14.4,32.1,32.1,32.1
			c10,0,19.2-4.5,25.4-12.4c0.3-0.4,0.7-0.9,1-1.3c0.4-0.6,1.2-0.7,1.7-0.3c0.6,0.4,0.7,1.2,0.3,1.7c-0.3,0.5-0.7,1-1.1,1.4
			C120.7,129.7,110.8,134.6,100,134.6z"/>
	</g>
	<g>
		<g id="Group_263_00000086673377794877581260000008691386396509328569_" transform="translate(-598.5 -520.001)">
			<g id="Group_259_00000165198419995866764530000002845359315329864121_" transform="translate(549.903 487.744)">
				<g id="Ellipse_9_00000155145634987801399040000002508964265885623697_">
					<path class="st0" d="M148.6,134c-6.2,0-11.2-5-11.2-11.2s5-11.2,11.2-11.2c6.2,0,11.2,5,11.2,11.2S154.8,134,148.6,134z
						 M148.6,114.1c-4.8,0-8.7,3.9-8.7,8.7s3.9,8.7,8.7,8.7c4.8,0,8.7-3.9,8.7-8.7S153.4,114.1,148.6,114.1z"/>
				</g>
				<g id="Path_16_00000047039425049378591660000001909674641593494661_">
					<path class="st0" d="M164.8,152.9c-0.7,0-1.2-0.6-1.2-1.2c0-8.2-6.7-14.9-14.9-14.9s-14.9,6.7-14.9,14.9c0,0.7-0.6,1.2-1.2,1.2
						s-1.2-0.6-1.2-1.2c0-9.6,7.8-17.4,17.4-17.4c9.6,0,17.4,7.8,17.4,17.4C166,152.3,165.5,152.9,164.8,152.9z"/>
				</g>
			</g>
		</g>
	</g>
	<g>
		<path class="st0" d="M100,172.7c-40.1,0-72.7-32.6-72.7-72.7S59.9,27.3,100,27.3s72.7,32.6,72.7,72.7S140.1,172.7,100,172.7z
			 M100,31.3c-37.9,0-68.7,30.8-68.7,68.7c0,37.9,30.8,68.7,68.7,68.7c37.9,0,68.7-30.8,68.7-68.7C168.7,62.1,137.9,31.3,100,31.3z"
			/>
	</g>
	<g>
		<g>
			<path class="st0" d="M132.4,109.2c-3.1,0-5.7-2.6-5.7-5.7c0-3.1,2.6-5.7,5.7-5.7c3.1,0,5.7,2.6,5.7,5.7
				C138.1,106.7,135.6,109.2,132.4,109.2z M132.4,100.3c-1.8,0-3.2,1.4-3.2,3.2s1.4,3.2,3.2,3.2s3.2-1.4,3.2-3.2
				S134.2,100.3,132.4,100.3z"/>
		</g>
		<g>
			<path class="st0" d="M132.4,115.4c-0.3,0-0.5,0-0.8,0c-1.2,0-2.1-0.8-2.1-2.1c0-0.3-0.1-0.7-0.4-0.9c-0.2-0.1-0.4-0.3-0.8-0.3
				c-0.3,0-0.5,0.1-0.8,0.3c-1,0.9-2.1,0.9-3,0l-1-1c-0.9-0.9-0.9-2.1,0-3c0.4-0.5,0.3-1,0.3-1.2c-0.1-0.2-0.2-0.6-0.8-0.8
				c-0.1,0-0.3,0-0.4,0c-1.1-0.1-2-0.9-2-2c0-0.5,0-1,0-1.5l0-0.2c0-1.2,0.9-2.1,2.1-2.1c0.7,0,1.2-0.5,1.2-1.2
				c0-0.3-0.1-0.6-0.3-0.8c-0.9-1-0.9-2.1,0.1-3l0.3-0.3c0.3-0.3,0.5-0.5,0.8-0.8c0.2-0.2,0.5-0.3,0.7-0.4l0.1-0.1
				c0.3-0.1,0.6-0.2,0.8-0.1c0.6,0.1,1,0.4,1.3,0.7c0.4,0.4,0.9,0.3,1.1,0.3c0.2-0.1,0.6-0.2,0.8-0.8c0-0.1,0-0.3,0-0.4
				c0.1-1.1,0.9-2,2-2c0.4,0,0.8,0,1.2,0l0.4,0c1.3,0,2.1,0.8,2.1,2.1c0,0.3,0.1,0.6,0.4,0.8c0.2,0.2,0.5,0.3,0.8,0.3
				c0.3,0,0.6-0.1,0.8-0.3c1-0.9,2.1-0.9,3,0.1l0.3,0.3c0.2,0.2,0.5,0.5,0.7,0.7c0.8,0.9,0.9,2,0,2.9c-0.5,0.5-0.4,0.9-0.3,1.3
				c0.2,0.4,0.4,0.7,1.1,0.7c1.2,0,2,0.9,2,2.1c0,0.5,0,1.1,0,1.6c0,1.2-0.8,2-2,2.1c-0.6,0-0.9,0.2-1.1,0.7
				c-0.2,0.4-0.2,0.8,0.3,1.3c0.8,0.9,0.8,2.1,0,2.9c-0.4,0.4-0.7,0.7-1.1,1.1c-0.9,0.8-2,0.9-2.9,0c-0.5-0.5-0.9-0.4-1.3-0.3
				c-0.5,0.2-0.7,0.5-0.7,1.1c0,1.2-0.9,2-2.1,2C132.9,115.4,132.7,115.4,132.4,115.4z M132,112.9c0.3,0,0.5,0,0.8,0
				c0.2-1.4,0.9-2.4,2.2-3c1.3-0.5,2.6-0.4,3.7,0.5c0.2-0.2,0.4-0.4,0.6-0.6c-0.9-1.1-1.1-2.4-0.5-3.7c0.5-1.3,1.6-2.1,3-2.2
				c0-0.3,0-0.5,0-0.8c-1.4-0.2-2.4-0.9-3-2.2c-0.5-1.3-0.4-2.6,0.5-3.7l-0.6-0.6c-0.7,0.5-1.4,0.8-2.2,0.8c-1,0-1.9-0.3-2.6-1
				c-0.6-0.6-1-1.4-1.1-2.2l-0.1,0c-0.2,0-0.5,0-0.7,0c0,0.2,0,0.3-0.1,0.5c-0.3,1.3-1.3,2.2-2.5,2.6c-1.2,0.3-2.4,0.1-3.3-0.7
				c-0.2,0.1-0.3,0.3-0.5,0.5l-0.1,0.1c0.5,0.7,0.8,1.4,0.8,2.2c0,1.9-1.4,3.5-3.3,3.7c0,0.3,0,0.5,0,0.8c0.2,0,0.3,0,0.5,0.1
				c1.3,0.3,2.2,1.3,2.6,2.5c0.3,1.2,0.1,2.4-0.7,3.3l0.6,0.6c0.7-0.5,1.4-0.8,2.2-0.8c1,0,1.9,0.3,2.6,1
				C131.5,111.2,131.9,112,132,112.9z M123.1,104.3L123.1,104.3L123.1,104.3z"/>
		</g>
	</g>
	<g>
		<path class="st0" d="M132.4,120.5c-9.4,0-17-7.6-17-17s7.6-17,17-17s17,7.6,17,17S141.8,120.5,132.4,120.5z M132.4,89
			c-8,0-14.5,6.5-14.5,14.5c0,8,6.5,14.5,14.5,14.5c8,0,14.5-6.5,14.5-14.5C146.9,95.5,140.4,89,132.4,89z"/>
	</g>
</g>
</svg>
