<?xml version="1.0" encoding="utf-8"?>
<!-- Generator: Adobe Illustrator 26.3.1, SVG Export Plug-In . SVG Version: 6.00 Build 0)  -->
<svg version="1.1" id="Layer_1" xmlns="http://www.w3.org/2000/svg" xmlns:xlink="http://www.w3.org/1999/xlink" x="0px" y="0px"
	 viewBox="0 0 200 200" style="enable-background:new 0 0 200 200;" xml:space="preserve">
<style type="text/css">
	.st0{fill:#0067FC;}
</style>
<g>
	<g>
		<g>
			<path class="st0" d="M117.1,143.3h-42c-3,0-5.5-2.5-5.5-5.5V62.2c0-3,2.5-5.5,5.5-5.5h49.8c3,0,5.5,2.5,5.5,5.5v66.3
				c0,0.3-0.1,0.6-0.3,0.8L118,142.9C117.8,143.1,117.5,143.3,117.1,143.3z M72.1,93.2v44.6c0,1.7,1.3,3,3,3h41.5l11.4-12.8V62.2
				c0-1.7-1.3-3-3-3H75.1c-1.7,0-3,1.3-3,3V93.2z"/>
		</g>
		<g>
			<path class="st0" d="M116.1,142.8c-0.7,0-1.2-0.6-1.2-1.2v-8.8c0-3,2.5-5.5,5.5-5.5h8.8c0.7,0,1.2,0.6,1.2,1.2s-0.6,1.2-1.2,1.2
				h-8.8c-1.7,0-3,1.3-3,3v8.8C117.4,142.3,116.8,142.8,116.1,142.8z"/>
		</g>
	</g>
	<g>
		<g>
			<path class="st0" d="M116.7,117.8h-27c-0.7,0-1.2-0.6-1.2-1.2s0.6-1.2,1.2-1.2h27c0.7,0,1.2,0.6,1.2,1.2S117.4,117.8,116.7,117.8
				z"/>
		</g>
		<g>
			<path class="st0" d="M116.7,124.8h-27c-0.7,0-1.2-0.6-1.2-1.2s0.6-1.2,1.2-1.2h27c0.7,0,1.2,0.6,1.2,1.2S117.4,124.8,116.7,124.8
				z"/>
		</g>
		<g>
			<path class="st0" d="M106.7,131.9h-17c-0.7,0-1.2-0.6-1.2-1.2s0.6-1.2,1.2-1.2h17c0.7,0,1.2,0.6,1.2,1.2S107.4,131.9,106.7,131.9
				z"/>
		</g>
		<g>
			<path class="st0" d="M82.7,119.2L82.7,119.2c-0.3,0-0.6-0.1-0.9-0.4l-1.4-1.4c-0.5-0.5-0.5-1.3,0-1.8s1.3-0.5,1.8,0l0.5,0.5
				l1.9-1.9c0.5-0.5,1.3-0.5,1.8,0s0.5,1.3,0,1.8l-2.8,2.8C83.4,119.1,83.1,119.2,82.7,119.2z"/>
		</g>
		<g>
			<path class="st0" d="M82.7,126.2c-0.3,0-0.6-0.1-0.9-0.4l-1.4-1.4c-0.5-0.5-0.5-1.3,0-1.8c0.5-0.5,1.3-0.5,1.8,0l0.5,0.5l1.9-1.9
				c0.5-0.5,1.3-0.5,1.8,0c0.5,0.5,0.5,1.3,0,1.8l-2.8,2.8C83.4,126.1,83.1,126.2,82.7,126.2z"/>
		</g>
		<g>
			<path class="st0" d="M82.7,132.7L82.7,132.7c-0.3,0-0.6-0.1-0.9-0.4l-1.4-1.4c-0.5-0.5-0.5-1.3,0-1.8s1.3-0.5,1.8,0l0.5,0.5
				l1.9-1.9c0.5-0.5,1.3-0.5,1.8,0s0.5,1.3,0,1.8l-2.8,2.8C83.4,132.6,83.1,132.7,82.7,132.7z"/>
		</g>
	</g>
	<g>
		<path class="st0" d="M100,172.7c-40.1,0-72.7-32.6-72.7-72.7S59.9,27.3,100,27.3s72.7,32.6,72.7,72.7S140.1,172.7,100,172.7z
			 M100,31.3c-37.9,0-68.7,30.8-68.7,68.7c0,37.9,30.8,68.7,68.7,68.7c37.9,0,68.7-30.8,68.7-68.7C168.7,62.1,137.9,31.3,100,31.3z"
			/>
	</g>
	<g>
		<g>
			<path class="st0" d="M99.2,107.8c-6.6,0-12-5.4-12-12s5.4-12,12-12s12,5.4,12,12S105.7,107.8,99.2,107.8z M99.2,86.4
				c-5.2,0-9.5,4.2-9.5,9.5c0,5.2,4.2,9.5,9.5,9.5c5.2,0,9.5-4.2,9.5-9.5C108.6,90.6,104.4,86.4,99.2,86.4z"/>
		</g>
		<g>
			<path class="st0" d="M114,111.9c-0.3,0-0.6-0.1-0.9-0.4l-6.8-6.8c-0.5-0.5-0.5-1.3,0-1.8s1.3-0.5,1.8,0l6.8,6.8
				c0.5,0.5,0.5,1.3,0,1.8C114.6,111.8,114.3,111.9,114,111.9z"/>
		</g>
	</g>
	<g>
		<path class="st0" d="M114.5,80.7H85.5c-0.7,0-1.2-0.6-1.2-1.2v-8.9c0-0.7,0.6-1.2,1.2-1.2h28.9c0.7,0,1.2,0.6,1.2,1.2v8.9
			C115.7,80.2,115.1,80.7,114.5,80.7z M86.8,78.2h26.4v-6.4H86.8V78.2z"/>
	</g>
	<g>
		<path class="st0" d="M100,76.2h-9.8c-0.7,0-1.2-0.6-1.2-1.2s0.6-1.2,1.2-1.2h9.8c0.7,0,1.2,0.6,1.2,1.2S100.7,76.2,100,76.2z"/>
	</g>
	<g>
		<path class="st0" d="M109.8,76.2h-5.7c-0.7,0-1.2-0.6-1.2-1.2s0.6-1.2,1.2-1.2h5.7c0.7,0,1.2,0.6,1.2,1.2S110.5,76.2,109.8,76.2z"
			/>
	</g>
</g>
</svg>
