<?xml version="1.0" encoding="utf-8"?>
<!-- Generator: Adobe Illustrator 26.3.1, SVG Export Plug-In . SVG Version: 6.00 Build 0)  -->
<svg version="1.1" id="Layer_1" xmlns="http://www.w3.org/2000/svg" xmlns:xlink="http://www.w3.org/1999/xlink" x="0px" y="0px"
	 viewBox="0 0 200 200" style="enable-background:new 0 0 200 200;" xml:space="preserve">
<style type="text/css">
	.st0{fill:#0067FC;}
</style>
<g>
	<g>
		<g>
			<path class="st0" d="M117.1,143.3h-42c-3,0-5.5-2.5-5.5-5.5V62.2c0-3,2.5-5.5,5.5-5.5h49.8c3,0,5.5,2.5,5.5,5.5v66.3
				c0,0.3-0.1,0.6-0.3,0.8L118,142.9C117.8,143.1,117.5,143.3,117.1,143.3z M72.1,93.2v44.6c0,1.7,1.3,3,3,3h41.5l11.4-12.8V62.2
				c0-1.7-1.3-3-3-3H75.1c-1.7,0-3,1.3-3,3V93.2z"/>
		</g>
		<g>
			<path class="st0" d="M116.1,142.8c-0.7,0-1.2-0.6-1.2-1.2v-8.8c0-3,2.5-5.5,5.5-5.5h8.8c0.7,0,1.2,0.6,1.2,1.2s-0.6,1.2-1.2,1.2
				h-8.8c-1.7,0-3,1.3-3,3v8.8C117.4,142.3,116.8,142.8,116.1,142.8z"/>
		</g>
	</g>
	<g>
		<g>
			<path class="st0" d="M116.1,111.3h-27c-0.7,0-1.2-0.6-1.2-1.2s0.6-1.2,1.2-1.2h27c0.7,0,1.2,0.6,1.2,1.2S116.8,111.3,116.1,111.3
				z"/>
		</g>
		<g>
			<path class="st0" d="M116.1,118.4h-27c-0.7,0-1.2-0.6-1.2-1.2s0.6-1.2,1.2-1.2h27c0.7,0,1.2,0.6,1.2,1.2S116.8,118.4,116.1,118.4
				z"/>
		</g>
		<g>
			<path class="st0" d="M106.1,125.4h-17c-0.7,0-1.2-0.6-1.2-1.2s0.6-1.2,1.2-1.2h17c0.7,0,1.2,0.6,1.2,1.2S106.8,125.4,106.1,125.4
				z"/>
		</g>
		<g>
			<path class="st0" d="M82.2,112.8L82.2,112.8c-0.3,0-0.6-0.1-0.9-0.4l-1.4-1.4c-0.5-0.5-0.5-1.3,0-1.8s1.3-0.5,1.8,0l0.5,0.5
				l1.9-1.9c0.5-0.5,1.3-0.5,1.8,0s0.5,1.3,0,1.8l-2.8,2.8C82.8,112.6,82.5,112.8,82.2,112.8z"/>
		</g>
		<g>
			<path class="st0" d="M82.2,119.8c-0.3,0-0.6-0.1-0.9-0.4l-1.4-1.4c-0.5-0.5-0.5-1.3,0-1.8c0.5-0.5,1.3-0.5,1.8,0l0.5,0.5l1.9-1.9
				c0.5-0.5,1.3-0.5,1.8,0s0.5,1.3,0,1.8l-2.8,2.8C82.8,119.7,82.5,119.8,82.2,119.8z"/>
		</g>
		<g>
			<path class="st0" d="M82.2,126.2L82.2,126.2c-0.3,0-0.6-0.1-0.9-0.4l-1.4-1.4c-0.5-0.5-0.5-1.3,0-1.8s1.3-0.5,1.8,0l0.5,0.5
				l1.9-1.9c0.5-0.5,1.3-0.5,1.8,0s0.5,1.3,0,1.8l-2.8,2.8C82.8,126.1,82.5,126.2,82.2,126.2z"/>
		</g>
	</g>
	<g>
		<path class="st0" d="M100,172.7c-40.1,0-72.7-32.6-72.7-72.7S59.9,27.3,100,27.3s72.7,32.6,72.7,72.7S140.1,172.7,100,172.7z
			 M100,31.3c-37.9,0-68.7,30.8-68.7,68.7c0,37.9,30.8,68.7,68.7,68.7c37.9,0,68.7-30.8,68.7-68.7C168.7,62.1,137.9,31.3,100,31.3z"
			/>
	</g>
	<g>
		<g>
			<path class="st0" d="M117.5,101H81.9c-0.7,0-1.2-0.6-1.2-1.2V79.3c0-0.7,0.6-1.2,1.2-1.2h35.6c0.7,0,1.2,0.6,1.2,1.2v20.4
				C118.8,100.4,118.2,101,117.5,101z M83.1,98.5h33.1V80.5H83.1V98.5z"/>
		</g>
		<g>
			<path class="st0" d="M100,92.1c-0.2,0-0.5-0.1-0.7-0.2L81.2,80.3c-0.6-0.4-0.8-1.1-0.4-1.7c0.4-0.6,1.1-0.8,1.7-0.4l18.1,11.6
				c0.6,0.4,0.8,1.1,0.4,1.7C100.8,91.9,100.4,92.1,100,92.1z"/>
		</g>
		<g>
			<path class="st0" d="M100,92.1c-0.4,0-0.8-0.2-1-0.6c-0.4-0.6-0.2-1.4,0.4-1.7l17.5-11.6c0.6-0.4,1.4-0.2,1.7,0.4
				c0.4,0.6,0.2,1.4-0.4,1.7l-17.5,11.6C100.5,92.1,100.2,92.1,100,92.1z"/>
		</g>
	</g>
</g>
</svg>
