<?xml version="1.0" encoding="utf-8"?>
<!-- Generator: Adobe Illustrator 26.3.1, SVG Export Plug-In . SVG Version: 6.00 Build 0)  -->
<svg version="1.1" id="Layer_1" xmlns="http://www.w3.org/2000/svg" xmlns:xlink="http://www.w3.org/1999/xlink" x="0px" y="0px"
	 viewBox="0 0 200 200" style="enable-background:new 0 0 200 200;" xml:space="preserve">
<style type="text/css">
	.st0{fill:#0067FC;}
</style>
<g>
	<g>
		<g>
			<path class="st0" d="M116,70.7c-0.6,0-1.1-0.4-1.2-1l-0.4-2.2l-2.1,0.4c-0.7,0.1-1.3-0.3-1.5-1c-0.1-0.7,0.3-1.3,1-1.5l3.3-0.6
				c0.7-0.1,1.3,0.3,1.5,1l0.6,3.4c0.1,0.7-0.3,1.3-1,1.5C116.1,70.7,116,70.7,116,70.7z"/>
		</g>
		<g>
			<path class="st0" d="M78.6,95.1c-0.3,0-0.7-0.1-0.9-0.4c-0.5-0.5-0.4-1.3,0.1-1.8l16.1-14.9c0.3-0.3,0.8-0.4,1.2-0.3
				c0.4,0.1,0.7,0.5,0.9,0.9l1.3,4.9l16.4-16.7c0.5-0.5,1.3-0.5,1.8,0c0.5,0.5,0.5,1.3,0,1.8L97.5,86.9c-0.3,0.3-0.8,0.5-1.2,0.3
				c-0.4-0.1-0.8-0.5-0.9-0.9l-1.3-5L79.4,94.8C79.2,95,78.9,95.1,78.6,95.1z"/>
		</g>
	</g>
	<g>
		<g>
			<path class="st0" d="M117.1,143.3h-42c-3,0-5.5-2.5-5.5-5.5V62.2c0-3,2.5-5.5,5.5-5.5h49.8c3,0,5.5,2.5,5.5,5.5v66.3
				c0,0.3-0.1,0.6-0.3,0.8L118,142.9C117.8,143.1,117.5,143.3,117.1,143.3z M72.1,93.2v44.6c0,1.7,1.3,3,3,3h41.5l11.4-12.8V62.2
				c0-1.7-1.3-3-3-3H75.1c-1.7,0-3,1.3-3,3V93.2z"/>
		</g>
		<g>
			<path class="st0" d="M116.1,142.8c-0.7,0-1.2-0.6-1.2-1.2v-8.8c0-3,2.5-5.5,5.5-5.5h8.8c0.7,0,1.2,0.6,1.2,1.2s-0.6,1.2-1.2,1.2
				h-8.8c-1.7,0-3,1.3-3,3v8.8C117.4,142.3,116.8,142.8,116.1,142.8z"/>
		</g>
	</g>
	<g>
		<g>
			<path class="st0" d="M116.1,119.5h-27c-0.7,0-1.2-0.6-1.2-1.2s0.6-1.2,1.2-1.2h27c0.7,0,1.2,0.6,1.2,1.2S116.8,119.5,116.1,119.5
				z"/>
		</g>
		<g>
			<path class="st0" d="M116.1,126.5h-27c-0.7,0-1.2-0.6-1.2-1.2s0.6-1.2,1.2-1.2h27c0.7,0,1.2,0.6,1.2,1.2S116.8,126.5,116.1,126.5
				z"/>
		</g>
		<g>
			<path class="st0" d="M106.1,133.6h-17c-0.7,0-1.2-0.6-1.2-1.2s0.6-1.2,1.2-1.2h17c0.7,0,1.2,0.6,1.2,1.2S106.8,133.6,106.1,133.6
				z"/>
		</g>
		<g>
			<path class="st0" d="M82.2,120.9c-0.3,0-0.6-0.1-0.9-0.4l-1.4-1.4c-0.5-0.5-0.5-1.3,0-1.8c0.5-0.5,1.3-0.5,1.8,0l0.5,0.5l1.9-1.9
				c0.5-0.5,1.3-0.5,1.8,0s0.5,1.3,0,1.8l-2.8,2.8C82.8,120.8,82.5,120.9,82.2,120.9z"/>
		</g>
		<g>
			<path class="st0" d="M82.2,127.9L82.2,127.9c-0.3,0-0.6-0.1-0.9-0.4l-1.4-1.4c-0.5-0.5-0.5-1.3,0-1.8s1.3-0.5,1.8,0l0.5,0.5
				l1.9-1.9c0.5-0.5,1.3-0.5,1.8,0s0.5,1.3,0,1.8l-2.8,2.8C82.8,127.8,82.5,127.9,82.2,127.9z"/>
		</g>
		<g>
			<path class="st0" d="M82.2,134.4c-0.3,0-0.6-0.1-0.9-0.4l-1.4-1.4c-0.5-0.5-0.5-1.3,0-1.8c0.5-0.5,1.3-0.5,1.8,0l0.5,0.5l1.9-1.9
				c0.5-0.5,1.3-0.5,1.8,0s0.5,1.3,0,1.8L83,134C82.8,134.3,82.5,134.4,82.2,134.4z"/>
		</g>
	</g>
	<g>
		<path class="st0" d="M100,172.7c-40.1,0-72.7-32.6-72.7-72.7S59.9,27.3,100,27.3s72.7,32.6,72.7,72.7S140.1,172.7,100,172.7z
			 M100,31.3c-37.9,0-68.7,30.8-68.7,68.7c0,37.9,30.8,68.7,68.7,68.7c37.9,0,68.7-30.8,68.7-68.7C168.7,62.1,137.9,31.3,100,31.3z"
			/>
	</g>
	<g>
		<path class="st0" d="M91.2,112.4h-9.1c-0.7,0-1.2-0.6-1.2-1.2V96.2c0-0.4,0.2-0.7,0.4-1l9.1-7.6c0.4-0.3,0.9-0.4,1.3-0.2
			c0.4,0.2,0.7,0.6,0.7,1.1v22.5C92.5,111.9,91.9,112.4,91.2,112.4z M83.4,109.9H90V91.3l-6.6,5.5V109.9z"/>
	</g>
	<g>
		<path class="st0" d="M103.8,112.4h-8.3c-0.7,0-1.2-0.6-1.2-1.2v-18c0-0.4,0.2-0.7,0.5-1l8.3-6.8c0.4-0.3,0.9-0.4,1.3-0.2
			c0.4,0.2,0.7,0.6,0.7,1.1v24.8C105.1,111.9,104.5,112.4,103.8,112.4z M96.8,109.9h5.8V89l-5.8,4.7V109.9z"/>
	</g>
	<g>
		<path class="st0" d="M116.6,112.4h-7.8c-0.7,0-1.2-0.6-1.2-1.2V82.7c0-0.3,0.1-0.6,0.4-0.9l7.8-7.8c0.4-0.4,0.9-0.5,1.4-0.3
			c0.5,0.2,0.8,0.6,0.8,1.2v36.3C117.8,111.9,117.2,112.4,116.6,112.4z M110,109.9h5.3v-32l-5.3,5.3V109.9z"/>
	</g>
</g>
</svg>
