<?xml version="1.0" encoding="utf-8"?>
<!-- Generator: Adobe Illustrator 26.3.1, SVG Export Plug-In . SVG Version: 6.00 Build 0)  -->
<svg version="1.1" id="Layer_1" xmlns="http://www.w3.org/2000/svg" xmlns:xlink="http://www.w3.org/1999/xlink" x="0px" y="0px"
	 viewBox="0 0 200 200" style="enable-background:new 0 0 200 200;" xml:space="preserve">
<style type="text/css">
	.st0{fill:#0067FC;}
</style>
<g>
	<g>
		<g>
			<path class="st0" d="M99.5,105.8c-8.6,0-15.7-7-15.7-15.7s7-15.7,15.7-15.7c0.7,0,1.2,0.6,1.2,1.2v13.2h13.2
				c0.7,0,1.2,0.6,1.2,1.2C115.1,98.7,108.1,105.8,99.5,105.8z M98.2,77c-6.7,0.6-11.9,6.3-11.9,13.1c0,7.3,5.9,13.2,13.2,13.2
				c6.8,0,12.5-5.2,13.1-11.9H99.5c-0.7,0-1.2-0.6-1.2-1.2V77z"/>
		</g>
		<g>
			<path class="st0" d="M102.9,71.9v14.4h14.4C117.3,78.3,110.8,71.9,102.9,71.9z"/>
		</g>
	</g>
	<g>
		<g>
			<path class="st0" d="M118.3,144.5h-42c-3,0-5.5-2.5-5.5-5.5V63.5c0-3,2.5-5.5,5.5-5.5h49.8c3,0,5.5,2.5,5.5,5.5v66.3
				c0,0.3-0.1,0.6-0.3,0.8l-12.1,13.5C119,144.3,118.6,144.5,118.3,144.5z M73.2,94.4V139c0,1.7,1.3,3,3,3h41.5l11.4-12.8V63.5
				c0-1.7-1.3-3-3-3H76.2c-1.7,0-3,1.3-3,3V94.4z"/>
		</g>
		<g>
			<path class="st0" d="M117.3,144c-0.7,0-1.2-0.6-1.2-1.2V134c0-3,2.5-5.5,5.5-5.5h8.8c0.7,0,1.2,0.6,1.2,1.2s-0.6,1.2-1.2,1.2
				h-8.8c-1.7,0-3,1.3-3,3v8.8C118.5,143.5,118,144,117.3,144z"/>
		</g>
	</g>
	<g>
		<g>
			<path class="st0" d="M118.8,114.4h-27c-0.7,0-1.2-0.6-1.2-1.2s0.6-1.2,1.2-1.2h27c0.7,0,1.2,0.6,1.2,1.2S119.5,114.4,118.8,114.4
				z"/>
		</g>
		<g>
			<path class="st0" d="M118.8,121.4h-27c-0.7,0-1.2-0.6-1.2-1.2s0.6-1.2,1.2-1.2h27c0.7,0,1.2,0.6,1.2,1.2S119.5,121.4,118.8,121.4
				z"/>
		</g>
		<g>
			<path class="st0" d="M108.8,128.5h-17c-0.7,0-1.2-0.6-1.2-1.2s0.6-1.2,1.2-1.2h17c0.7,0,1.2,0.6,1.2,1.2S109.5,128.5,108.8,128.5
				z"/>
		</g>
		<g>
			<path class="st0" d="M84.9,115.8L84.9,115.8c-0.3,0-0.6-0.1-0.9-0.4l-1.4-1.4c-0.5-0.5-0.5-1.3,0-1.8s1.3-0.5,1.8,0l0.5,0.5
				l1.9-1.9c0.5-0.5,1.3-0.5,1.8,0c0.5,0.5,0.5,1.3,0,1.8l-2.8,2.8C85.5,115.7,85.2,115.8,84.9,115.8z"/>
		</g>
		<g>
			<path class="st0" d="M84.9,122.9c-0.3,0-0.6-0.1-0.9-0.4l-1.4-1.4c-0.5-0.5-0.5-1.3,0-1.8c0.5-0.5,1.3-0.5,1.8,0l0.5,0.5l1.9-1.9
				c0.5-0.5,1.3-0.5,1.8,0c0.5,0.5,0.5,1.3,0,1.8l-2.8,2.8C85.5,122.7,85.2,122.9,84.9,122.9z"/>
		</g>
		<g>
			<path class="st0" d="M84.9,129.3L84.9,129.3c-0.3,0-0.6-0.1-0.9-0.4l-1.4-1.4c-0.5-0.5-0.5-1.3,0-1.8s1.3-0.5,1.8,0l0.5,0.5
				l1.9-1.9c0.5-0.5,1.3-0.5,1.8,0s0.5,1.3,0,1.8l-2.8,2.8C85.5,129.2,85.2,129.3,84.9,129.3z"/>
		</g>
	</g>
	<g>
		<path class="st0" d="M100,172.7c-40.1,0-72.7-32.6-72.7-72.7S59.9,27.3,100,27.3s72.7,32.6,72.7,72.7S140.1,172.7,100,172.7z
			 M100,31.3c-37.9,0-68.7,30.8-68.7,68.7c0,37.9,30.8,68.7,68.7,68.7c37.9,0,68.7-30.8,68.7-68.7C168.7,62.1,137.9,31.3,100,31.3z"
			/>
	</g>
</g>
</svg>
