<?xml version="1.0" encoding="utf-8"?>
<!-- Generator: Adobe Illustrator 26.3.1, SVG Export Plug-In . SVG Version: 6.00 Build 0)  -->
<svg version="1.1" id="Layer_1" xmlns="http://www.w3.org/2000/svg" xmlns:xlink="http://www.w3.org/1999/xlink" x="0px" y="0px"
	 viewBox="0 0 200 200" style="enable-background:new 0 0 200 200;" xml:space="preserve">
<style type="text/css">
	.st0{fill:#0067FC;}
</style>
<g>
	<g>
		<g>
			<g id="Group_263_00000162345311220470546810000010313005695929529750_" transform="translate(-598.5 -520.001)">
				<g id="Group_259_00000045620961033845514250000006248519351808562868_" transform="translate(549.903 487.744)">
					<g id="Ellipse_9_00000154416673952144955900000007883752565899022736_">
						<path class="st0" d="M179.3,136.8c-3.5,0-6.3-2.8-6.3-6.3c0-3.5,2.8-6.3,6.3-6.3s6.3,2.8,6.3,6.3
							C185.6,134,182.8,136.8,179.3,136.8z M179.3,126.7c-2.1,0-3.8,1.7-3.8,3.8s1.7,3.8,3.8,3.8s3.8-1.7,3.8-3.8
							S181.4,126.7,179.3,126.7z"/>
					</g>
					<g id="Path_16_00000112622218460538488430000013885439040250675094_">
						<path class="st0" d="M187.5,146.4c-0.7,0-1.2-0.6-1.2-1.2c0-3.9-3.1-7-7-7s-7,3.1-7,7c0,0.7-0.6,1.2-1.2,1.2s-1.2-0.6-1.2-1.2
							c0-5.2,4.3-9.5,9.5-9.5s9.5,4.3,9.5,9.5C188.8,145.9,188.2,146.4,187.5,146.4z"/>
					</g>
				</g>
			</g>
		</g>
		<g>
			<path class="st0" d="M118.2,143.3h-42c-3,0-5.5-2.5-5.5-5.5V90c0-0.7,0.6-1.2,1.2-1.2s1.2,0.6,1.2,1.2v47.7c0,1.7,1.3,3,3,3h41.5
				L129,128v-7c0-0.7,0.6-1.2,1.2-1.2s1.2,0.6,1.2,1.2v7.4c0,0.3-0.1,0.6-0.3,0.8l-12.1,13.5C118.9,143.1,118.6,143.3,118.2,143.3z"
				/>
		</g>
		<g>
			<path class="st0" d="M71.9,94.4c-0.7,0-1.2-0.6-1.2-1.2v-31c0-3,2.5-5.5,5.5-5.5H126c3,0,5.5,2.5,5.5,5.5v22.6
				c0,0.7-0.6,1.2-1.2,1.2s-1.2-0.6-1.2-1.2V62.2c0-1.7-1.3-3-3-3H76.2c-1.7,0-3,1.3-3,3v31C73.2,93.9,72.6,94.4,71.9,94.4z"/>
		</g>
		<g>
			<path class="st0" d="M117.2,142.8c-0.7,0-1.2-0.6-1.2-1.2v-8.8c0-3,2.5-5.5,5.5-5.5h8.8c0.7,0,1.2,0.6,1.2,1.2s-0.6,1.2-1.2,1.2
				h-8.8c-1.7,0-3,1.3-3,3v8.8C118.5,142.3,117.9,142.8,117.2,142.8z"/>
		</g>
		<g>
			<path class="st0" d="M130.3,121.6c-10,0-18.2-8.2-18.2-18.2c0-10,8.2-18.2,18.2-18.2s18.2,8.2,18.2,18.2
				C148.5,113.5,140.3,121.6,130.3,121.6z M130.3,87.6c-8.7,0-15.9,7.1-15.9,15.9s7.1,15.9,15.9,15.9s15.9-7.1,15.9-15.9
				S139,87.6,130.3,87.6z"/>
		</g>
	</g>
	<g>
		<g>
			<path class="st0" d="M108.7,101.4h-20c-0.7,0-1.2-0.6-1.2-1.3s0.6-1.2,1.2-1.2h20c0.7,0,1.2,0.6,1.2,1.2S109.4,101.4,108.7,101.4
				z"/>
		</g>
		<g>
			<path class="st0" d="M108.7,108.4h-20c-0.7,0-1.2-0.6-1.2-1.2s0.6-1.2,1.2-1.2h20c0.7,0,1.2,0.6,1.2,1.2S109.4,108.4,108.7,108.4
				z"/>
		</g>
		<g>
			<path class="st0" d="M100.7,115.4h-12c-0.7,0-1.2-0.6-1.2-1.2s0.6-1.2,1.2-1.2h12c0.7,0,1.2,0.6,1.2,1.2S101.4,115.4,100.7,115.4
				z"/>
		</g>
		<g>
			<path class="st0" d="M81.8,102.8c-0.3,0-0.6-0.1-0.9-0.4l-1.4-1.4c-0.5-0.5-0.5-1.3,0-1.8c0.5-0.5,1.3-0.5,1.8,0l0.5,0.5l1.9-1.9
				c0.5-0.5,1.3-0.5,1.8,0s0.5,1.3,0,1.8l-2.8,2.8C82.4,102.7,82.1,102.8,81.8,102.8z"/>
		</g>
		<g>
			<path class="st0" d="M81.8,109.8c-0.3,0-0.6-0.1-0.9-0.4l-1.4-1.4c-0.5-0.5-0.5-1.3,0-1.8c0.5-0.5,1.3-0.5,1.8,0l0.5,0.5l1.9-1.9
				c0.5-0.5,1.3-0.5,1.8,0s0.5,1.3,0,1.8l-2.8,2.8C82.4,109.7,82.1,109.8,81.8,109.8z"/>
		</g>
		<g>
			<path class="st0" d="M81.8,116.3c-0.3,0-0.6-0.1-0.9-0.4l-1.4-1.4c-0.5-0.5-0.5-1.3,0-1.8s1.3-0.5,1.8,0l0.5,0.5l1.9-1.9
				c0.5-0.5,1.3-0.5,1.8,0s0.5,1.3,0,1.8l-2.8,2.8C82.4,116.2,82.1,116.3,81.8,116.3z"/>
		</g>
	</g>
	<g>
		<path class="st0" d="M100,172.7c-40.1,0-72.7-32.6-72.7-72.7S59.9,27.3,100,27.3s72.7,32.6,72.7,72.7S140.1,172.7,100,172.7z
			 M100,31.3c-37.9,0-68.7,30.8-68.7,68.7c0,37.9,30.8,68.7,68.7,68.7c37.9,0,68.7-30.8,68.7-68.7C168.7,62.1,137.9,31.3,100,31.3z"
			/>
	</g>
	<g>
		<g>
			<path class="st0" d="M99,93.7c-7.7,0-13.9-6.3-13.9-13.9S91.3,65.8,99,65.8c7.7,0,13.9,6.3,13.9,13.9S106.7,93.7,99,93.7z
				 M99,68.3c-6.3,0-11.4,5.1-11.4,11.4S92.7,91.2,99,91.2s11.4-5.1,11.4-11.4S105.3,68.3,99,68.3z"/>
		</g>
		<g>
			<path class="st0" d="M99.7,83c-0.7,0-1.2-0.6-1.2-1.2v-9.1c0-0.7,0.6-1.2,1.2-1.2s1.2,0.6,1.2,1.2v9.1
				C100.9,82.4,100.4,83,99.7,83z"/>
		</g>
		<g>
			<path class="st0" d="M99.7,83h-6.3c-0.7,0-1.2-0.6-1.2-1.2s0.6-1.2,1.2-1.2h6.3c0.7,0,1.2,0.6,1.2,1.2S100.3,83,99.7,83z"/>
		</g>
	</g>
	<g>
		<g>
			<path class="st0" d="M112,121.5c-0.7,0-1.2-0.6-1.2-1.2v-3.4h-3.3c-0.7,0-1.2-0.6-1.2-1.2s0.6-1.2,1.2-1.2h4.6
				c0.7,0,1.2,0.6,1.2,1.2v4.7C113.2,121,112.7,121.5,112,121.5z"/>
		</g>
		<g>
			<path class="st0" d="M83.8,134.9c-0.7,0-1.2-0.6-1.2-1.2v-4.7c0-0.7,0.6-1.2,1.2-1.2s1.2,0.6,1.2,1.2v4.7
				C85,134.3,84.5,134.9,83.8,134.9z"/>
		</g>
		<g>
			<path class="st0" d="M90.6,134.5c-0.7,0-1.2-0.6-1.2-1.2v-1.9c0-0.7,0.6-1.2,1.2-1.2s1.2,0.6,1.2,1.2v1.9
				C91.9,133.9,91.3,134.5,90.6,134.5z"/>
		</g>
		<g>
			<path class="st0" d="M97,134.5c-0.7,0-1.2-0.6-1.2-1.2v-8.1c0-0.7,0.6-1.2,1.2-1.2s1.2,0.6,1.2,1.2v8.1
				C98.2,133.9,97.7,134.5,97,134.5z"/>
		</g>
		<g>
			<path class="st0" d="M104.2,134.5c-0.7,0-1.2-0.6-1.2-1.2V127c0-0.7,0.6-1.2,1.2-1.2s1.2,0.6,1.2,1.2v6.2
				C105.4,133.9,104.9,134.5,104.2,134.5z"/>
		</g>
		<g>
			<path class="st0" d="M111,134.2c-0.7,0-1.2-0.6-1.2-1.2v-9.2c0-0.7,0.6-1.2,1.2-1.2s1.2,0.6,1.2,1.2v9.2
				C112.3,133.6,111.7,134.2,111,134.2z"/>
		</g>
		<g>
			<path class="st0" d="M89.9,128.3c-0.2,0-0.4,0-0.6-0.1l-6.1-3.2c-0.6-0.3-0.8-1.1-0.5-1.7c0.3-0.6,1.1-0.8,1.7-0.5l5.3,2.8
				l6.5-6.2c0.4-0.4,0.9-0.5,1.4-0.2l6.4,3.1l6.2-6.4c0.5-0.5,1.3-0.5,1.8,0s0.5,1.3,0,1.8l-6.8,7c-0.4,0.4-1,0.5-1.4,0.3l-6.4-3.1
				l-6.5,6.2C90.5,128.2,90.2,128.3,89.9,128.3z"/>
		</g>
	</g>
</g>
</svg>
