<?xml version="1.0" encoding="utf-8"?>
<!-- Generator: Adobe Illustrator 26.3.1, SVG Export Plug-In . SVG Version: 6.00 Build 0)  -->
<svg version="1.1" id="Layer_1" xmlns="http://www.w3.org/2000/svg" xmlns:xlink="http://www.w3.org/1999/xlink" x="0px" y="0px"
	 viewBox="0 0 200 200" style="enable-background:new 0 0 200 200;" xml:space="preserve">
<style type="text/css">
	.st0{fill:none;stroke:#0067FC;stroke-width:2.5;stroke-linecap:round;stroke-linejoin:round;stroke-miterlimit:10;}
	.st1{fill:#0067FC;}
</style>
<g>
	<g>
		<path class="st0" d="M103.5,98.1"/>
	</g>
	<g>
		<g>
			<path class="st1" d="M108.1,84.1c-0.3,0-0.6-0.1-0.9-0.4c-0.5-0.5-0.5-1.3,0-1.8l9.4-9.4c0.5-0.5,1.3-0.5,1.8,0s0.5,1.3,0,1.8
				l-9.4,9.4C108.8,84,108.5,84.1,108.1,84.1z"/>
		</g>
		<g>
			<path class="st1" d="M118.9,82.7c-0.7,0-1.2-0.6-1.2-1.2v-8.3h-8.1c-0.7,0-1.2-0.6-1.2-1.2s0.6-1.2,1.2-1.2h9.3
				c0.7,0,1.2,0.6,1.2,1.2v9.5C120.2,82.2,119.6,82.7,118.9,82.7z"/>
		</g>
	</g>
	<g>
		<g>
			<path class="st1" d="M85.8,80.3c-0.3,0-0.6-0.1-0.9-0.4c-0.5-0.5-0.5-1.3,0-1.8l9.4-9.4c0.5-0.5,1.3-0.5,1.8,0s0.5,1.3,0,1.8
				l-9.4,9.4C86.4,80.1,86.1,80.3,85.8,80.3z"/>
		</g>
		<g>
			<path class="st1" d="M93.7,81.7h-9.3c-0.7,0-1.2-0.6-1.2-1.2v-9.5c0-0.7,0.6-1.2,1.2-1.2s1.2,0.6,1.2,1.2v8.3h8.1
				c0.7,0,1.2,0.6,1.2,1.2S94.4,81.7,93.7,81.7z"/>
		</g>
	</g>
	<g>
		<g>
			<g>
				<path class="st1" d="M117.1,143.3h-42c-3,0-5.5-2.5-5.5-5.5V62.2c0-3,2.5-5.5,5.5-5.5h49.8c3,0,5.5,2.5,5.5,5.5v66.3
					c0,0.3-0.1,0.6-0.3,0.8L118,142.9C117.8,143.1,117.5,143.3,117.1,143.3z M72.1,93.2v44.6c0,1.7,1.3,3,3,3h41.5l11.4-12.8V62.2
					c0-1.7-1.3-3-3-3H75.1c-1.7,0-3,1.3-3,3V93.2z"/>
			</g>
			<g>
				<path class="st1" d="M116.1,142.8c-0.7,0-1.2-0.6-1.2-1.2v-8.8c0-3,2.5-5.5,5.5-5.5h8.8c0.7,0,1.2,0.6,1.2,1.2s-0.6,1.2-1.2,1.2
					h-8.8c-1.7,0-3,1.3-3,3v8.8C117.4,142.3,116.8,142.8,116.1,142.8z"/>
			</g>
		</g>
		<g>
			<g>
				<path class="st1" d="M117.7,113.2h-27c-0.7,0-1.2-0.6-1.2-1.2s0.6-1.2,1.2-1.2h27c0.7,0,1.2,0.6,1.2,1.2
					S118.4,113.2,117.7,113.2z"/>
			</g>
			<g>
				<path class="st1" d="M117.7,120.2h-27c-0.7,0-1.2-0.6-1.2-1.2s0.6-1.2,1.2-1.2h27c0.7,0,1.2,0.6,1.2,1.2
					S118.4,120.2,117.7,120.2z"/>
			</g>
			<g>
				<path class="st1" d="M107.7,127.3h-17c-0.7,0-1.2-0.6-1.2-1.2s0.6-1.2,1.2-1.2h17c0.7,0,1.2,0.6,1.2,1.2
					S108.4,127.3,107.7,127.3z"/>
			</g>
			<g>
				<path class="st1" d="M83.7,114.6c-0.3,0-0.6-0.1-0.9-0.4l-1.4-1.4c-0.5-0.5-0.5-1.3,0-1.8s1.3-0.5,1.8,0l0.5,0.5l1.9-1.9
					c0.5-0.5,1.3-0.5,1.8,0s0.5,1.3,0,1.8l-2.8,2.8C84.4,114.5,84.1,114.6,83.7,114.6z"/>
			</g>
			<g>
				<path class="st1" d="M83.7,121.6c-0.3,0-0.6-0.1-0.9-0.4l-1.4-1.4c-0.5-0.5-0.5-1.3,0-1.8s1.3-0.5,1.8,0l0.5,0.5l1.9-1.9
					c0.5-0.5,1.3-0.5,1.8,0s0.5,1.3,0,1.8l-2.8,2.8C84.4,121.5,84.1,121.6,83.7,121.6z"/>
			</g>
			<g>
				<path class="st1" d="M83.7,128.1c-0.3,0-0.6-0.1-0.9-0.4l-1.4-1.4c-0.5-0.5-0.5-1.3,0-1.8c0.5-0.5,1.3-0.5,1.8,0l0.5,0.5
					l1.9-1.9c0.5-0.5,1.3-0.5,1.8,0s0.5,1.3,0,1.8l-2.8,2.8C84.4,128,84,128.1,83.7,128.1z"/>
			</g>
		</g>
	</g>
	<g>
		<path class="st1" d="M100,172.7c-40.1,0-72.7-32.6-72.7-72.7S59.9,27.3,100,27.3s72.7,32.6,72.7,72.7S140.1,172.7,100,172.7z
			 M100,31.3c-37.9,0-68.7,30.8-68.7,68.7c0,37.9,30.8,68.7,68.7,68.7c37.9,0,68.7-30.8,68.7-68.7C168.7,62.1,137.9,31.3,100,31.3z"
			/>
	</g>
	<g>
		<g>
			<g id="Group_263_00000048487784528761916740000000353871883708775833_" transform="translate(-598.5 -520.001)">
				<g id="Group_259_00000157308893077243825190000003579769012333567360_" transform="translate(549.903 487.744)">
					<g id="Ellipse_9_00000045620327112903123860000012783163837507253662_">
						<path class="st1" d="M148.5,125.9c-3.1,0-5.7-2.5-5.7-5.7s2.5-5.7,5.7-5.7c3.1,0,5.7,2.5,5.7,5.7S151.6,125.9,148.5,125.9z
							 M148.5,117c-1.8,0-3.2,1.4-3.2,3.2s1.4,3.2,3.2,3.2s3.2-1.4,3.2-3.2S150.2,117,148.5,117z"/>
					</g>
					<g id="Path_16_00000156557028615733665380000008772908097964591292_">
						<path class="st1" d="M155.7,134.3c-0.7,0-1.2-0.6-1.2-1.2c0-3.3-2.7-6-6-6s-6,2.7-6,6c0,0.7-0.6,1.2-1.2,1.2s-1.2-0.6-1.2-1.2
							c0-4.7,3.8-8.5,8.5-8.5c4.7,0,8.5,3.8,8.5,8.5C156.9,133.7,156.4,134.3,155.7,134.3z"/>
					</g>
				</g>
			</g>
		</g>
		<g>
			<g id="Group_263_00000163771834761702824200000006323970598630964113_" transform="translate(-598.5 -520.001)">
				<g id="Group_259_00000069394076382670727380000017958241166678314648_" transform="translate(549.903 487.744)">
					<g id="Ellipse_9_00000067231124499544362130000004216196610702946209_">
						<path class="st1" d="M162.1,130.3c-3.1,0-5.7-2.5-5.7-5.7s2.5-5.7,5.7-5.7s5.7,2.5,5.7,5.7S165.3,130.3,162.1,130.3z
							 M162.1,121.5c-1.8,0-3.2,1.4-3.2,3.2s1.4,3.2,3.2,3.2s3.2-1.4,3.2-3.2S163.9,121.5,162.1,121.5z"/>
					</g>
					<g id="Path_16_00000137850766547908452120000016902408955680100541_">
						<path class="st1" d="M169.3,138.7c-0.7,0-1.2-0.6-1.2-1.2c0-3.3-2.7-6-6-6c-3.3,0-6,2.7-6,6c0,0.7-0.6,1.2-1.2,1.2
							s-1.2-0.6-1.2-1.2c0-4.7,3.8-8.5,8.5-8.5s8.5,3.8,8.5,8.5C170.6,138.2,170,138.7,169.3,138.7z"/>
					</g>
				</g>
			</g>
		</g>
		<g>
			<g id="Group_263_00000087373895527248052060000008149525780721992838_" transform="translate(-598.5 -520.001)">
				<g id="Group_259_00000181083592321810533420000010422978623240378018_" transform="translate(549.903 487.744)">
					<g id="Ellipse_9_00000060030685154778232730000009823405161498569139_">
						<path class="st1" d="M135.1,130.6c-3.1,0-5.7-2.5-5.7-5.7s2.5-5.7,5.7-5.7s5.7,2.5,5.7,5.7S138.2,130.6,135.1,130.6z
							 M135.1,121.7c-1.8,0-3.2,1.4-3.2,3.2s1.4,3.2,3.2,3.2s3.2-1.4,3.2-3.2S136.8,121.7,135.1,121.7z"/>
					</g>
					<g id="Path_16_00000155131927385004672830000010444183101260276096_">
						<path class="st1" d="M142.3,138.9c-0.7,0-1.2-0.6-1.2-1.2c0-3.3-2.7-6-6-6s-6,2.7-6,6c0,0.7-0.6,1.2-1.2,1.2s-1.2-0.6-1.2-1.2
							c0-4.7,3.8-8.5,8.5-8.5s8.5,3.8,8.5,8.5C143.5,138.4,143,138.9,142.3,138.9z"/>
					</g>
				</g>
			</g>
		</g>
	</g>
</g>
</svg>
