<?xml version="1.0" encoding="utf-8"?>
<!-- Generator: Adobe Illustrator 26.3.1, SVG Export Plug-In . SVG Version: 6.00 Build 0)  -->
<svg version="1.1" id="Layer_1" xmlns="http://www.w3.org/2000/svg" xmlns:xlink="http://www.w3.org/1999/xlink" x="0px" y="0px"
	 viewBox="0 0 200 200" style="enable-background:new 0 0 200 200;" xml:space="preserve">
<style type="text/css">
	.st0{fill:#0067FC;}
	.st1{fill:none;stroke:#0067FC;stroke-width:2.5;stroke-linecap:round;stroke-linejoin:round;stroke-miterlimit:10;}
</style>
<g>
	<g>
		<g>
			<path class="st0" d="M110.4,120.4h-7.4c-0.7,0-1.2-0.6-1.2-1.2s0.6-1.2,1.2-1.2h6.1V82.1h-6.1c-0.7,0-1.2-0.6-1.2-1.2
				s0.6-1.2,1.2-1.2h7.4c0.7,0,1.2,0.6,1.2,1.2v38.4C111.7,119.9,111.1,120.4,110.4,120.4z"/>
		</g>
		<g>
			<path class="st1" d="M98.9,101.7"/>
		</g>
		<g>
			<path class="st0" d="M102.9,101.2H89.6c-0.7,0-1.2-0.6-1.2-1.2s0.6-1.2,1.2-1.2h13.4c0.7,0,1.2,0.6,1.2,1.2
				S103.6,101.2,102.9,101.2z"/>
		</g>
		<g>
			<path class="st0" d="M98.1,107.9c-0.3,0-0.6-0.1-0.9-0.4c-0.5-0.5-0.5-1.3,0-1.8l5.8-5.8l-5.7-5.7c-0.5-0.5-0.5-1.3,0-1.8
				s1.3-0.5,1.8,0l6.6,6.6c0.5,0.5,0.5,1.3,0,1.8l-6.7,6.7C98.8,107.7,98.5,107.9,98.1,107.9z"/>
		</g>
	</g>
	<g>
		<g>
			<path class="st0" d="M117.1,143.3h-42c-3,0-5.5-2.5-5.5-5.5V62.2c0-3,2.5-5.5,5.5-5.5h49.8c3,0,5.5,2.5,5.5,5.5v66.3
				c0,0.3-0.1,0.6-0.3,0.8L118,142.9C117.8,143.1,117.5,143.3,117.1,143.3z M72.1,93.2v44.6c0,1.7,1.3,3,3,3h41.5l11.4-12.8V62.2
				c0-1.7-1.3-3-3-3H75.1c-1.7,0-3,1.3-3,3V93.2z"/>
		</g>
		<g>
			<path class="st0" d="M116.1,142.8c-0.7,0-1.2-0.6-1.2-1.2v-8.8c0-3,2.5-5.5,5.5-5.5h8.8c0.7,0,1.2,0.6,1.2,1.2s-0.6,1.2-1.2,1.2
				h-8.8c-1.7,0-3,1.3-3,3v8.8C117.4,142.3,116.8,142.8,116.1,142.8z"/>
		</g>
	</g>
	<g>
		<path class="st0" d="M100,172.7c-40.1,0-72.7-32.6-72.7-72.7S59.9,27.3,100,27.3s72.7,32.6,72.7,72.7S140.1,172.7,100,172.7z
			 M100,31.3c-37.9,0-68.7,30.8-68.7,68.7c0,37.9,30.8,68.7,68.7,68.7c37.9,0,68.7-30.8,68.7-68.7C168.7,62.1,137.9,31.3,100,31.3z"
			/>
	</g>
</g>
</svg>
