<?xml version="1.0" encoding="utf-8"?>
<!-- Generator: Adobe Illustrator 26.3.1, SVG Export Plug-In . SVG Version: 6.00 Build 0)  -->
<svg version="1.1" id="Layer_1" xmlns="http://www.w3.org/2000/svg" xmlns:xlink="http://www.w3.org/1999/xlink" x="0px" y="0px"
	 viewBox="0 0 200 200" style="enable-background:new 0 0 200 200;" xml:space="preserve">
<style type="text/css">
	.st0{fill:#0067FC;}
</style>
<g>
	<g>
		<path class="st0" d="M100,134c-9.7,0-17.6-7.9-17.6-17.6c0-9.7,7.9-17.6,17.6-17.6s17.6,7.9,17.6,17.6
			C117.6,126.1,109.7,134,100,134z M100,101.2c-8.4,0-15.1,6.8-15.1,15.1s6.8,15.1,15.1,15.1c8.4,0,15.1-6.8,15.1-15.1
			S108.4,101.2,100,101.2z"/>
	</g>
	<g>
		<g>
			<path class="st0" d="M117.1,143.3h-42c-3,0-5.5-2.5-5.5-5.5V62.2c0-3,2.5-5.5,5.5-5.5h49.8c3,0,5.5,2.5,5.5,5.5v66.3
				c0,0.3-0.1,0.6-0.3,0.8L118,142.9C117.8,143.1,117.5,143.3,117.1,143.3z M72.1,93.2v44.6c0,1.7,1.3,3,3,3h41.5l11.4-12.8V62.2
				c0-1.7-1.3-3-3-3H75.1c-1.7,0-3,1.3-3,3V93.2z"/>
		</g>
		<g>
			<path class="st0" d="M116.1,142.8c-0.7,0-1.2-0.6-1.2-1.2v-8.8c0-3,2.5-5.5,5.5-5.5h8.8c0.7,0,1.2,0.6,1.2,1.2s-0.6,1.2-1.2,1.2
				h-8.8c-1.7,0-3,1.3-3,3v8.8C117.4,142.3,116.8,142.8,116.1,142.8z"/>
		</g>
	</g>
	<g>
		<g>
			<path class="st0" d="M94.9,148.3H69.5c-3,0-5.5-2.5-5.5-5.5V95.1c0-0.7,0.6-1.2,1.2-1.2s1.2,0.6,1.2,1.2v47.7c0,1.7,1.3,3,3,3
				h25.4c2.1,0,3.8-1.7,3.8-3.8c0-0.7,0.6-1.2,1.2-1.2s1.2,0.6,1.2,1.2C101.2,145.5,98.4,148.3,94.9,148.3z"/>
		</g>
		<g>
			<path class="st0" d="M65.3,99.5c-0.7,0-1.2-0.6-1.2-1.2v-31c0-3,2.5-5.5,5.5-5.5c0.7,0,1.2,0.6,1.2,1.2s-0.6,1.2-1.2,1.2
				c-1.7,0-3,1.3-3,3v31C66.5,99,66,99.5,65.3,99.5z"/>
		</g>
	</g>
	<g>
		<g>
			<path class="st0" d="M118.5,75.8h-27c-0.7,0-1.2-0.6-1.2-1.2s0.6-1.2,1.2-1.2h27c0.7,0,1.2,0.6,1.2,1.2S119.2,75.8,118.5,75.8z"
				/>
		</g>
		<g>
			<path class="st0" d="M118.5,82.9h-27c-0.7,0-1.2-0.6-1.2-1.2s0.6-1.2,1.2-1.2h27c0.7,0,1.2,0.6,1.2,1.2S119.2,82.9,118.5,82.9z"
				/>
		</g>
		<g>
			<path class="st0" d="M108.5,89.9h-17c-0.7,0-1.2-0.6-1.2-1.2s0.6-1.2,1.2-1.2h17c0.7,0,1.2,0.6,1.2,1.2S109.2,89.9,108.5,89.9z"
				/>
		</g>
		<g>
			<path class="st0" d="M84.6,77.2L84.6,77.2c-0.3,0-0.6-0.1-0.9-0.4l-1.4-1.4c-0.5-0.5-0.5-1.3,0-1.8c0.5-0.5,1.3-0.5,1.8,0
				l0.5,0.5l1.9-1.9c0.5-0.5,1.3-0.5,1.8,0s0.5,1.3,0,1.8l-2.8,2.8C85.2,77.1,84.9,77.2,84.6,77.2z"/>
		</g>
		<g>
			<path class="st0" d="M84.6,84.3c-0.3,0-0.6-0.1-0.9-0.4l-1.4-1.4c-0.5-0.5-0.5-1.3,0-1.8s1.3-0.5,1.8,0l0.5,0.5l1.9-1.9
				c0.5-0.5,1.3-0.5,1.8,0s0.5,1.3,0,1.8l-2.8,2.8C85.2,84.2,84.9,84.3,84.6,84.3z"/>
		</g>
		<g>
			<path class="st0" d="M84.6,90.7c-0.3,0-0.6-0.1-0.9-0.4L82.3,89c-0.5-0.5-0.5-1.3,0-1.8s1.3-0.5,1.8,0l0.5,0.5l1.9-1.9
				c0.5-0.5,1.3-0.5,1.8,0s0.5,1.3,0,1.8l-2.8,2.8C85.2,90.6,84.9,90.7,84.6,90.7z"/>
		</g>
	</g>
	<g>
		<path class="st0" d="M100,172.7c-40.1,0-72.7-32.6-72.7-72.7S59.9,27.3,100,27.3s72.7,32.6,72.7,72.7S140.1,172.7,100,172.7z
			 M100,31.3c-37.9,0-68.7,30.8-68.7,68.7c0,37.9,30.8,68.7,68.7,68.7c37.9,0,68.7-30.8,68.7-68.7C168.7,62.1,137.9,31.3,100,31.3z"
			/>
	</g>
	<g>
		<path class="st0" d="M96.7,122.1C96.7,122.1,96.7,122.1,96.7,122.1c-0.4,0-0.7-0.2-1-0.4l-3.2-3.7c-0.4-0.5-0.4-1.3,0.1-1.8
			c0.5-0.4,1.3-0.4,1.8,0.1l2.3,2.7l8.7-8c0.5-0.5,1.3-0.4,1.8,0.1c0.5,0.5,0.4,1.3-0.1,1.8l-9.7,8.9C97.4,122,97,122.1,96.7,122.1z
			"/>
	</g>
</g>
</svg>
