<?xml version="1.0" encoding="utf-8"?>
<!-- Generator: Adobe Illustrator 26.4.0, SVG Export Plug-In . SVG Version: 6.00 Build 0)  -->
<svg version="1.1" id="Layer_1" xmlns="http://www.w3.org/2000/svg" xmlns:xlink="http://www.w3.org/1999/xlink" x="0px" y="0px"
	 viewBox="0 0 200 200" style="enable-background:new 0 0 200 200;" xml:space="preserve">
<style type="text/css">
	.st0{fill:#0067FC;}
</style>
<g>
	<g>
		<g>
			<path class="st0" d="M124.9,143.3H75.1c-3,0-5.5-2.5-5.5-5.5V62.2c0-3,2.5-5.5,5.5-5.5h42c0.4,0,0.7,0.2,0.9,0.4l12.1,13.5
				c0.2,0.2,0.3,0.5,0.3,0.8v66.3C130.4,140.8,128,143.3,124.9,143.3z M72.1,106.8v31c0,1.7,1.3,3,3,3h49.8c1.7,0,3-1.3,3-3V72
				l-11.4-12.8H75.1c-1.7,0-3,1.3-3,3V106.8z"/>
		</g>
		<g>
			<path class="st0" d="M129.2,72.8h-8.8c-3,0-5.5-2.5-5.5-5.5v-8.8c0-0.7,0.6-1.2,1.2-1.2s1.2,0.6,1.2,1.2v8.8c0,1.7,1.3,3,3,3h8.8
				c0.7,0,1.2,0.6,1.2,1.2S129.9,72.8,129.2,72.8z"/>
		</g>
	</g>
	<g>
		<g>
			<path class="st0" d="M117.7,94.5h-27c-0.7,0-1.2-0.6-1.2-1.2S90,92,90.7,92h27c0.7,0,1.2,0.6,1.2,1.2S118.4,94.5,117.7,94.5z"/>
		</g>
		<g>
			<path class="st0" d="M117.7,101.5h-27c-0.7,0-1.2-0.6-1.2-1.2S90,99,90.7,99h27c0.7,0,1.2,0.6,1.2,1.2S118.4,101.5,117.7,101.5z"
				/>
		</g>
		<g>
			<path class="st0" d="M107.7,108.6h-17c-0.7,0-1.2-0.6-1.2-1.2s0.6-1.2,1.2-1.2h17c0.7,0,1.2,0.6,1.2,1.2S108.4,108.6,107.7,108.6
				z"/>
		</g>
		<g>
			<path class="st0" d="M83.7,95.9c-0.3,0-0.6-0.1-0.9-0.4l-1.4-1.4c-0.5-0.5-0.5-1.3,0-1.8s1.3-0.5,1.8,0l0.5,0.5l1.9-1.9
				c0.5-0.5,1.3-0.5,1.8,0s0.5,1.3,0,1.8l-2.8,2.8C84.4,95.8,84,95.9,83.7,95.9z"/>
		</g>
		<g>
			<path class="st0" d="M83.7,102.9c-0.3,0-0.6-0.1-0.9-0.4l-1.4-1.4c-0.5-0.5-0.5-1.3,0-1.8s1.3-0.5,1.8,0l0.5,0.5l1.9-1.9
				c0.5-0.5,1.3-0.5,1.8,0c0.5,0.5,0.5,1.3,0,1.8l-2.8,2.8C84.4,102.8,84.1,102.9,83.7,102.9z"/>
		</g>
		<g>
			<path class="st0" d="M83.7,109.4c-0.3,0-0.6-0.1-0.9-0.4l-1.4-1.4c-0.5-0.5-0.5-1.3,0-1.8c0.5-0.5,1.3-0.5,1.8,0l0.5,0.5l1.9-1.9
				c0.5-0.5,1.3-0.5,1.8,0s0.5,1.3,0,1.8l-2.8,2.8C84.4,109.3,84,109.4,83.7,109.4z"/>
		</g>
	</g>
	<g>
		<path class="st0" d="M100,172.7c-40.1,0-72.7-32.6-72.7-72.7S59.9,27.3,100,27.3s72.7,32.6,72.7,72.7S140.1,172.7,100,172.7z
			 M100,31.3c-37.9,0-68.7,30.8-68.7,68.7c0,37.9,30.8,68.7,68.7,68.7c37.9,0,68.7-30.8,68.7-68.7C168.7,62.1,137.9,31.3,100,31.3z"
			/>
	</g>
</g>
</svg>
