<?xml version="1.0" encoding="utf-8"?>
<!-- Generator: Adobe Illustrator 26.4.0, SVG Export Plug-In . SVG Version: 6.00 Build 0)  -->
<svg version="1.1" id="Layer_1" xmlns="http://www.w3.org/2000/svg" xmlns:xlink="http://www.w3.org/1999/xlink" x="0px" y="0px"
	 viewBox="0 0 200 200" style="enable-background:new 0 0 200 200;" xml:space="preserve">
<style type="text/css">
	.st0{fill:#0067FC;}
</style>
<g>
	<g>
		<g id="Group_263_00000035503807283317586360000011488139490159902355_" transform="translate(-598.5 -520.001)">
			<g id="Group_259_00000103985011404817106200000011502201821460703649_" transform="translate(549.903 487.744)">
				<g id="Ellipse_9_00000022538454204612799100000010987044395557276606_">
					<path class="st0" d="M179.6,136.8c-3.5,0-6.3-2.8-6.3-6.3s2.8-6.3,6.3-6.3s6.3,2.8,6.3,6.3S183,136.8,179.6,136.8z
						 M179.6,126.7c-2.1,0-3.8,1.7-3.8,3.8s1.7,3.8,3.8,3.8s3.8-1.7,3.8-3.8S181.7,126.7,179.6,126.7z"/>
				</g>
				<g id="Path_16_00000067925334490710125550000005196855148261386123_">
					<path class="st0" d="M187.8,146.4c-0.7,0-1.2-0.6-1.2-1.2c0-3.9-3.1-7-7-7s-7,3.1-7,7c0,0.7-0.6,1.2-1.2,1.2s-1.2-0.6-1.2-1.2
						c0-5.2,4.3-9.5,9.5-9.5s9.5,4.3,9.5,9.5C189.1,145.9,188.5,146.4,187.8,146.4z"/>
				</g>
			</g>
		</g>
	</g>
	<g>
		<path class="st0" d="M118.5,143.2h-42c-3,0-5.5-2.5-5.5-5.5V90c0-0.7,0.6-1.2,1.2-1.2s1.2,0.6,1.2,1.2v47.7c0,1.7,1.3,3,3,3h41.5
			l11.4-12.8v-7c0-0.7,0.6-1.2,1.2-1.2s1.2,0.6,1.2,1.2v7.5c0,0.3-0.1,0.6-0.3,0.8l-12.1,13.5C119.2,143.1,118.9,143.2,118.5,143.2z
			"/>
	</g>
	<g>
		<path class="st0" d="M72.2,94.4c-0.7,0-1.2-0.6-1.2-1.2v-31c0-3,2.5-5.5,5.5-5.5h49.8c3,0,5.5,2.5,5.5,5.5v22.6
			c0,0.7-0.6,1.2-1.2,1.2s-1.2-0.6-1.2-1.2V62.2c0-1.7-1.3-3-3-3H76.5c-1.7,0-3,1.3-3,3v31C73.5,93.9,72.9,94.4,72.2,94.4z"/>
	</g>
	<g>
		<path class="st0" d="M117.5,142.8c-0.7,0-1.2-0.6-1.2-1.2v-8.8c0-3,2.5-5.5,5.5-5.5h8.8c0.7,0,1.2,0.6,1.2,1.2s-0.6,1.2-1.2,1.2
			h-8.8c-1.7,0-3,1.3-3,3v8.8C118.7,142.2,118.2,142.8,117.5,142.8z"/>
	</g>
	<g>
		<g>
			<path class="st0" d="M111.4,76.4H83.6c-0.6,0-1.2-0.5-1.2-1.2S83,74,83.6,74h27.8c0.6,0,1.2,0.5,1.2,1.2S112.1,76.4,111.4,76.4z"
				/>
		</g>
		<g>
			<path class="st0" d="M109.7,83.5H83.6c-0.6,0-1.2-0.5-1.2-1.2s0.5-1.2,1.2-1.2h26.1c0.6,0,1.2,0.5,1.2,1.2S110.3,83.5,109.7,83.5
				z"/>
		</g>
		<g>
			<path class="st0" d="M106.2,90.5H83.6c-0.6,0-1.2-0.5-1.2-1.2s0.5-1.2,1.2-1.2h22.5c0.6,0,1.2,0.5,1.2,1.2S106.8,90.5,106.2,90.5
				z"/>
		</g>
		<g>
			<path class="st0" d="M100,97.6H83.6c-0.6,0-1.2-0.5-1.2-1.2s0.5-1.2,1.2-1.2H100c0.6,0,1.2,0.5,1.2,1.2S100.6,97.6,100,97.6z"/>
		</g>
	</g>
	<g>
		<path class="st0" d="M130.5,121.6c-10,0-18.2-8.2-18.2-18.2s8.2-18.2,18.2-18.2s18.2,8.2,18.2,18.2S140.6,121.6,130.5,121.6z
			 M130.5,87.5c-8.7,0-15.9,7.1-15.9,15.9c0,8.7,7.1,15.9,15.9,15.9s15.9-7.1,15.9-15.9C146.4,94.7,139.3,87.5,130.5,87.5z"/>
	</g>
	<g>
		<path class="st0" d="M107.2,119.9H81.6c-0.7,0-1.2-0.6-1.2-1.2v-8.9c0-0.7,0.6-1.2,1.2-1.2h25.6c0.7,0,1.2,0.6,1.2,1.2v8.9
			C108.5,119.3,107.9,119.9,107.2,119.9z M82.8,117.4H106v-6.4H82.8V117.4z"/>
	</g>
	<g>
		<path class="st0" d="M96.6,115.4H85.5c-0.7,0-1.2-0.6-1.2-1.2s0.6-1.2,1.2-1.2h11.1c0.7,0,1.2,0.6,1.2,1.2S97.3,115.4,96.6,115.4z
			"/>
	</g>
	<g>
		<path class="st0" d="M110.7,134.5H81.6c-0.7,0-1.2-0.6-1.2-1.2v-8.9c0-0.7,0.6-1.2,1.2-1.2h29.1c0.7,0,1.2,0.6,1.2,1.2v8.9
			C111.9,134,111.4,134.5,110.7,134.5z M82.8,132h26.6v-6.4H82.8V132z"/>
	</g>
	<g>
		<path class="st0" d="M100.9,130H85.5c-0.7,0-1.2-0.6-1.2-1.2s0.6-1.2,1.2-1.2h15.4c0.7,0,1.3,0.6,1.3,1.2S101.6,130,100.9,130z"/>
	</g>
	<g>
		<path class="st0" d="M100,172.7c-40.1,0-72.7-32.6-72.7-72.7S59.9,27.3,100,27.3s72.7,32.6,72.7,72.7S140.1,172.7,100,172.7z
			 M100,31.3c-37.9,0-68.7,30.8-68.7,68.7c0,37.9,30.8,68.7,68.7,68.7c37.9,0,68.7-30.8,68.7-68.7C168.7,62.1,137.9,31.3,100,31.3z"
			/>
	</g>
</g>
</svg>
