<?xml version="1.0" encoding="utf-8"?>
<!-- Generator: Adobe Illustrator 26.4.0, SVG Export Plug-In . SVG Version: 6.00 Build 0)  -->
<svg version="1.1" id="Layer_1" xmlns="http://www.w3.org/2000/svg" xmlns:xlink="http://www.w3.org/1999/xlink" x="0px" y="0px"
	 viewBox="0 0 200 200" style="enable-background:new 0 0 200 200;" xml:space="preserve">
<style type="text/css">
	.st0{fill:#0067FC;}
</style>
<g>
	<g>
		<path class="st0" d="M100.1,172.4c-40.1,0-72.7-32.6-72.7-72.7c0-40.1,32.6-72.7,72.7-72.7s72.7,32.6,72.7,72.7
			C172.8,139.7,140.2,172.4,100.1,172.4z M100.1,30.9c-37.9,0-68.7,30.8-68.7,68.7s30.8,68.7,68.7,68.7c37.9,0,68.7-30.8,68.7-68.7
			S138,30.9,100.1,30.9z"/>
	</g>
	<g>
		<g>
			<path class="st0" d="M100.1,135.7c-0.4,0-0.8-0.2-1-0.5c-1-1.3-24.6-32.3-24.6-46.1c0-14.1,11.5-25.6,25.6-25.6
				c14.1,0,25.6,11.5,25.6,25.6c0,13.7-23.6,44.8-24.6,46.1C100.8,135.6,100.5,135.7,100.1,135.7z M100.1,66.1
				c-12.8,0-23.1,10.4-23.1,23.1c0,11.4,18.6,37.1,23.1,43.2c4.5-6.1,23.1-31.9,23.1-43.2C123.2,76.4,112.8,66.1,100.1,66.1z"/>
		</g>
		<g>
			<path class="st0" d="M100.1,99.3c-6.5,0-11.8-5.3-11.8-11.8s5.3-11.8,11.8-11.8s11.8,5.3,11.8,11.8S106.6,99.3,100.1,99.3z
				 M100.1,78.1c-5.1,0-9.3,4.2-9.3,9.3s4.2,9.3,9.3,9.3c5.1,0,9.3-4.2,9.3-9.3S105.2,78.1,100.1,78.1z"/>
		</g>
	</g>
</g>
</svg>
