<?xml version="1.0" encoding="utf-8"?>
<!-- Generator: Adobe Illustrator 26.3.1, SVG Export Plug-In . SVG Version: 6.00 Build 0)  -->
<svg version="1.1" id="Layer_1" xmlns="http://www.w3.org/2000/svg" xmlns:xlink="http://www.w3.org/1999/xlink" x="0px" y="0px"
	 viewBox="0 0 200 200" style="enable-background:new 0 0 200 200;" xml:space="preserve">
<style type="text/css">
	.st0{fill:#0067FC;}
</style>
<g>
	<g>
		<path class="st0" d="M100,101.2c-9.7,0-17.6-7.9-17.6-17.6s7.9-17.6,17.6-17.6c9.7,0,17.6,7.9,17.6,17.6S109.7,101.2,100,101.2z
			 M100,68.4c-8.4,0-15.1,6.8-15.1,15.1s6.8,15.1,15.1,15.1s15.1-6.8,15.1-15.1S108.3,68.4,100,68.4z"/>
	</g>
	<g>
		<g>
			<path class="st0" d="M85.5,129.7c-5.8,0-10.6-4.8-10.6-10.6s4.8-10.6,10.6-10.6c0.7,0,1.2,0.6,1.2,1.2v8.1h8.1
				c0.7,0,1.2,0.6,1.2,1.2C96.1,125,91.3,129.7,85.5,129.7z M84.2,111.1c-3.9,0.6-6.9,4-6.9,8c0,4.5,3.6,8.1,8.1,8.1
				c4,0,7.4-3,8-6.9h-8c-0.7,0-1.2-0.6-1.2-1.2V111.1z"/>
		</g>
		<g>
			<path class="st0" d="M87.6,107.3v9.4H97C97,111.5,92.8,107.3,87.6,107.3z"/>
		</g>
	</g>
	<g>
		<g>
			<path class="st0" d="M117.1,143.2h-42c-3,0-5.5-2.5-5.5-5.5V62.2c0-3,2.5-5.5,5.5-5.5h49.8c3,0,5.5,2.5,5.5,5.5v66.3
				c0,0.3-0.1,0.6-0.3,0.8L118,142.8C117.8,143.1,117.5,143.2,117.1,143.2z M72.1,93.2v44.6c0,1.7,1.3,3,3,3h41.5l11.4-12.8V62.2
				c0-1.7-1.3-3-3-3H75.1c-1.7,0-3,1.3-3,3V93.2z"/>
		</g>
		<g>
			<path class="st0" d="M116.1,142.8c-0.7,0-1.2-0.6-1.2-1.2v-8.8c0-3,2.5-5.5,5.5-5.5h8.8c0.7,0,1.2,0.6,1.2,1.2s-0.6,1.2-1.2,1.2
				h-8.8c-1.7,0-3,1.3-3,3v8.8C117.3,142.2,116.8,142.8,116.1,142.8z"/>
		</g>
	</g>
	<g>
		<g>
			<path class="st0" d="M122.9,113.2h-15c-0.7,0-1.2-0.6-1.2-1.2s0.6-1.2,1.2-1.2h15c0.7,0,1.2,0.6,1.2,1.2S123.6,113.2,122.9,113.2
				z"/>
		</g>
		<g>
			<path class="st0" d="M122.9,120.2h-15c-0.7,0-1.2-0.6-1.2-1.2s0.6-1.2,1.2-1.2h15c0.7,0,1.2,0.6,1.2,1.2S123.6,120.2,122.9,120.2
				z"/>
		</g>
		<g>
			<path class="st0" d="M113.9,127.2h-6c-0.7,0-1.2-0.6-1.2-1.2s0.6-1.2,1.2-1.2h6c0.7,0,1.2,0.6,1.2,1.2S114.6,127.2,113.9,127.2z"
				/>
		</g>
		<g>
			<path class="st0" d="M101,114.6c-0.3,0-0.6-0.1-0.9-0.4l-1.4-1.4c-0.5-0.5-0.5-1.3,0-1.8s1.3-0.5,1.8,0l0.5,0.5l1.9-1.9
				c0.5-0.5,1.3-0.5,1.8,0s0.5,1.3,0,1.8l-2.8,2.8C101.6,114.4,101.3,114.6,101,114.6z"/>
		</g>
		<g>
			<path class="st0" d="M101,121.6c-0.3,0-0.6-0.1-0.9-0.4l-1.4-1.4c-0.5-0.5-0.5-1.3,0-1.8s1.3-0.5,1.8,0l0.5,0.5l1.9-1.9
				c0.5-0.5,1.3-0.5,1.8,0s0.5,1.3,0,1.8l-2.8,2.8C101.6,121.5,101.3,121.6,101,121.6z"/>
		</g>
		<g>
			<path class="st0" d="M101,128.1c-0.3,0-0.6-0.1-0.9-0.4l-1.4-1.4c-0.5-0.5-0.5-1.3,0-1.8s1.3-0.5,1.8,0l0.5,0.5l1.9-1.9
				c0.5-0.5,1.3-0.5,1.8,0s0.5,1.3,0,1.8l-2.8,2.8C101.6,127.9,101.3,128.1,101,128.1z"/>
		</g>
	</g>
	<g>
		<path class="st0" d="M100,172.7c-40.1,0-72.7-32.6-72.7-72.7S59.9,27.3,100,27.3s72.7,32.6,72.7,72.7S140.1,172.7,100,172.7z
			 M100,31.3c-37.9,0-68.7,30.8-68.7,68.7c0,37.9,30.8,68.7,68.7,68.7c37.9,0,68.7-30.8,68.7-68.7C168.7,62.1,137.9,31.3,100,31.3z"
			/>
	</g>
	<g>
		<path class="st0" d="M102.7,92.2h-4.7c-2.1,0-3.7-1.7-3.7-3.7v-6.6c0-0.7,0.6-1.2,1.2-1.2h9.7c0.7,0,1.2,0.6,1.2,1.2v6.6
			C106.4,90.5,104.7,92.2,102.7,92.2z M96.7,83.1v5.4c0,0.7,0.6,1.2,1.2,1.2h4.7c0.7,0,1.2-0.6,1.2-1.2v-5.4H96.7z"/>
	</g>
	<g>
		<path class="st0" d="M102.8,83.1h-5.1c-0.7,0-1.2-0.6-1.2-1.2v-4.3c0-2.1,1.7-3.8,3.8-3.8s3.8,1.7,3.8,3.8v4.3
			C104.1,82.6,103.5,83.1,102.8,83.1z M99,80.6h2.6v-3.1c0-0.7-0.6-1.3-1.3-1.3c-0.7,0-1.3,0.6-1.3,1.3V80.6z"/>
	</g>
</g>
</svg>
