<?xml version="1.0" encoding="utf-8"?>
<!-- Generator: Adobe Illustrator 26.4.0, SVG Export Plug-In . SVG Version: 6.00 Build 0)  -->
<svg version="1.1" id="Layer_1" xmlns="http://www.w3.org/2000/svg" xmlns:xlink="http://www.w3.org/1999/xlink" x="0px" y="0px"
	 viewBox="0 0 200 200" style="enable-background:new 0 0 200 200;" xml:space="preserve">
<style type="text/css">
	.st0{fill:#0067FC;}
</style>
<g>
	<g>
		<path class="st0" d="M123.7,117.4c-1,0-1.8-0.7-2-1.6l-6.6-37L79,85.3c-1.1,0.2-2.1-0.5-2.3-1.6c-0.2-1.1,0.5-2.1,1.6-2.3
			l38.1-6.8c0.5-0.1,1.1,0,1.5,0.3c0.4,0.3,0.7,0.8,0.8,1.3l7,38.9c0.2,1.1-0.5,2.1-1.6,2.3C123.9,117.4,123.8,117.4,123.7,117.4z"
			/>
	</g>
	<g>
		<path class="st0" d="M110.5,136.3c-1,0-1.8-0.7-2-1.6l-6.6-37l-36.1,6.5c-1.1,0.2-2.1-0.5-2.3-1.6c-0.2-1.1,0.5-2.1,1.6-2.3
			l38.1-6.8c1.1-0.2,2.1,0.5,2.3,1.6l7,38.9c0.2,1.1-0.5,2.1-1.6,2.3C110.8,136.3,110.7,136.3,110.5,136.3z"/>
	</g>
	<g>
		<path class="st0" d="M100,172.7c-40.1,0-72.7-32.6-72.7-72.7S59.9,27.3,100,27.3s72.7,32.6,72.7,72.7S140.1,172.7,100,172.7z
			 M100,31.3c-37.9,0-68.7,30.8-68.7,68.7c0,37.9,30.8,68.7,68.7,68.7c37.9,0,68.7-30.8,68.7-68.7C168.7,62.1,137.9,31.3,100,31.3z"
			/>
	</g>
</g>
</svg>
