<?xml version="1.0" encoding="utf-8"?>
<!-- Generator: Adobe Illustrator 26.4.0, SVG Export Plug-In . SVG Version: 6.00 Build 0)  -->
<svg version="1.1" id="Layer_1" xmlns="http://www.w3.org/2000/svg" xmlns:xlink="http://www.w3.org/1999/xlink" x="0px" y="0px"
	 viewBox="0 0 200 200" style="enable-background:new 0 0 200 200;" xml:space="preserve">
<style type="text/css">
	.st0{fill:#0067FC;}
</style>
<g>
	<g>
		<path class="st0" d="M100.1,172.4c-40.1,0-72.7-32.6-72.7-72.7c0-40.1,32.6-72.7,72.7-72.7s72.7,32.6,72.7,72.7
			C172.8,139.7,140.2,172.4,100.1,172.4z M100.1,30.9c-37.9,0-68.7,30.8-68.7,68.7s30.8,68.7,68.7,68.7c37.9,0,68.7-30.8,68.7-68.7
			S138,30.9,100.1,30.9z"/>
	</g>
	<g>
		<g>
			<path class="st0" d="M119,83.3H69.4c-0.7,0-1.2-0.6-1.2-1.2v-8.9c0-0.7,0.6-1.2,1.2-1.2H119c0.7,0,1.2,0.6,1.2,1.2V82
				C120.2,82.7,119.7,83.3,119,83.3z M70.6,80.8h47.1v-6.4H70.6V80.8z"/>
		</g>
		<g>
			<path class="st0" d="M89.8,78.8H74.3c-0.7,0-1.2-0.6-1.2-1.2s0.6-1.2,1.2-1.2h15.4c0.7,0,1.2,0.6,1.2,1.2S90.4,78.8,89.8,78.8z"
				/>
		</g>
		<g>
			<path class="st0" d="M119,98H69.4c-0.7,0-1.2-0.6-1.2-1.2v-8.9c0-0.7,0.6-1.2,1.2-1.2H119c0.7,0,1.2,0.6,1.2,1.2v8.9
				C120.2,97.4,119.7,98,119,98z M70.6,95.5h47.1v-6.4H70.6V95.5z"/>
		</g>
		<g>
			<path class="st0" d="M89.8,93.5H74.3c-0.7,0-1.2-0.6-1.2-1.2s0.6-1.2,1.2-1.2h15.4c0.7,0,1.2,0.6,1.2,1.2S90.4,93.5,89.8,93.5z"
				/>
		</g>
		<g>
			<path class="st0" d="M119,112.7H69.4c-0.7,0-1.2-0.6-1.2-1.2v-8.9c0-0.7,0.6-1.2,1.2-1.2H119c0.7,0,1.2,0.6,1.2,1.2v8.9
				C120.2,112.2,119.7,112.7,119,112.7z M70.6,110.2h47.1v-6.4H70.6V110.2z"/>
		</g>
		<g>
			<path class="st0" d="M89.8,108.3H74.3c-0.7,0-1.2-0.6-1.2-1.2s0.6-1.2,1.2-1.2h15.4c0.7,0,1.2,0.6,1.2,1.2S90.4,108.3,89.8,108.3
				z"/>
		</g>
		<g>
			<path class="st0" d="M119,127.5H69.4c-0.7,0-1.2-0.6-1.2-1.2v-8.9c0-0.7,0.6-1.2,1.2-1.2H119c0.7,0,1.2,0.6,1.2,1.2v8.9
				C120.2,126.9,119.7,127.5,119,127.5z M70.6,125h47.1v-6.4H70.6V125z"/>
		</g>
		<g>
			<path class="st0" d="M89.8,123H74.3c-0.7,0-1.2-0.6-1.2-1.2s0.6-1.2,1.2-1.2h15.4c0.7,0,1.2,0.6,1.2,1.2S90.4,123,89.8,123z"/>
		</g>
		<g>
			<path class="st0" d="M113.6,78.8h-7.7c-0.7,0-1.2-0.6-1.2-1.2s0.6-1.2,1.2-1.2h7.7c0.7,0,1.2,0.6,1.2,1.2S114.3,78.8,113.6,78.8z
				"/>
		</g>
		<g>
			<path class="st0" d="M113.6,93.5h-7.7c-0.7,0-1.2-0.6-1.2-1.2s0.6-1.2,1.2-1.2h7.7c0.7,0,1.2,0.6,1.2,1.2S114.3,93.5,113.6,93.5z
				"/>
		</g>
		<g>
			<path class="st0" d="M113.6,108.3h-7.7c-0.7,0-1.2-0.6-1.2-1.2s0.6-1.2,1.2-1.2h7.7c0.7,0,1.2,0.6,1.2,1.2
				S114.3,108.3,113.6,108.3z"/>
		</g>
		<g>
			<path class="st0" d="M113.6,123h-7.7c-0.7,0-1.2-0.6-1.2-1.2s0.6-1.2,1.2-1.2h7.7c0.7,0,1.2,0.6,1.2,1.2S114.3,123,113.6,123z"/>
		</g>
		<g>
			<g>
				<path class="st0" d="M127.5,123.1L127.5,123.1c-0.5,0-0.9-0.2-1.1-0.6l-3.3-5.9c-0.1-0.2-0.2-0.4-0.2-0.6V83.3
					c0-0.7,0.6-1.2,1.2-1.2h6.5c0.7,0,1.2,0.6,1.2,1.2v32.6c0,0.2-0.1,0.4-0.2,0.6l-3.3,5.9C128.3,122.8,127.9,123.1,127.5,123.1z
					 M125.4,115.6l2,3.7l2-3.7V84.5h-4V115.6z"/>
			</g>
			<g>
				<path class="st0" d="M130.7,92.3h-6.5c-0.7,0-1.2-0.6-1.2-1.2s0.6-1.2,1.2-1.2h6.5c0.7,0,1.2,0.6,1.2,1.2S131.4,92.3,130.7,92.3
					z"/>
			</g>
			<g>
				<path class="st0" d="M130.7,88.9h-6.5c-0.7,0-1.2-0.6-1.2-1.2s0.6-1.2,1.2-1.2h6.5c0.7,0,1.2,0.6,1.2,1.2S131.4,88.9,130.7,88.9
					z"/>
			</g>
		</g>
	</g>
</g>
</svg>
