<?xml version="1.0" encoding="utf-8"?>
<!-- Generator: Adobe Illustrator 26.4.0, SVG Export Plug-In . SVG Version: 6.00 Build 0)  -->
<svg version="1.1" id="Layer_1" xmlns="http://www.w3.org/2000/svg" xmlns:xlink="http://www.w3.org/1999/xlink" x="0px" y="0px"
	 viewBox="0 0 200 200" style="enable-background:new 0 0 200 200;" xml:space="preserve">
<style type="text/css">
	.st0{fill:#0067FC;}
</style>
<g>
	<g>
		<g>
			<path class="st0" d="M100,136.9c-0.4,0-0.8-0.2-1-0.5c-1-1.3-25.2-33.1-25.2-47.1c0-14.4,11.7-26.2,26.2-26.2
				s26.2,11.7,26.2,26.2c0,14-24.2,45.8-25.2,47.1C100.8,136.7,100.4,136.9,100,136.9z M100,65.6c-13.1,0-23.7,10.6-23.7,23.7
				c0,11.7,19.1,38.1,23.7,44.3c4.6-6.2,23.7-32.6,23.7-44.3C123.7,76.2,113.1,65.6,100,65.6z"/>
		</g>
		<g>
			<path class="st0" d="M100,99.6c-6.7,0-12.1-5.4-12.1-12.1s5.4-12.1,12.1-12.1c6.7,0,12.1,5.4,12.1,12.1S106.7,99.6,100,99.6z
				 M100,77.9c-5.3,0-9.6,4.3-9.6,9.6s4.3,9.6,9.6,9.6s9.6-4.3,9.6-9.6S105.3,77.9,100,77.9z"/>
		</g>
	</g>
	<g>
		<path class="st0" d="M100,172.7c-40.1,0-72.7-32.6-72.7-72.7S59.9,27.3,100,27.3s72.7,32.6,72.7,72.7S140.1,172.7,100,172.7z
			 M100,31.3c-37.9,0-68.7,30.8-68.7,68.7c0,37.9,30.8,68.7,68.7,68.7c37.9,0,68.7-30.8,68.7-68.7C168.7,62.1,137.9,31.3,100,31.3z"
			/>
	</g>
	<g>
		<path class="st0" d="M128.7,140.8H72.1c-0.3,0-0.6-0.1-0.8-0.3l-13.1-11c-0.4-0.3-0.6-0.9-0.4-1.4c0.2-0.5,0.6-0.8,1.2-0.8h32.4
			c0.7,0,1.2,0.6,1.2,1.2s-0.6,1.2-1.2,1.2H62.4l10.1,8.5h55.7l9.5-8.5h-28.3c-0.7,0-1.2-0.6-1.2-1.2s0.6-1.2,1.2-1.2H141
			c0.5,0,1,0.3,1.2,0.8c0.2,0.5,0.1,1-0.3,1.4l-12.3,11C129.4,140.7,129.1,140.8,128.7,140.8z"/>
	</g>
	<g>
		<path class="st0" d="M98.8,91.2C98.8,91.2,98.8,91.2,98.8,91.2c-0.4,0-0.7-0.2-1-0.4l-1.8-2.1c-0.4-0.5-0.4-1.3,0.1-1.8
			c0.5-0.4,1.3-0.4,1.8,0.1l0.9,1.1l4.4-4.1c0.5-0.5,1.3-0.4,1.8,0.1c0.5,0.5,0.4,1.3-0.1,1.8l-5.4,4.9
			C99.4,91.1,99.1,91.2,98.8,91.2z"/>
	</g>
</g>
</svg>
