<?xml version="1.0" encoding="utf-8"?>
<!-- Generator: Adobe Illustrator 26.3.1, SVG Export Plug-In . SVG Version: 6.00 Build 0)  -->
<svg version="1.1" id="Layer_1" xmlns="http://www.w3.org/2000/svg" xmlns:xlink="http://www.w3.org/1999/xlink" x="0px" y="0px"
	 viewBox="0 0 200 200" style="enable-background:new 0 0 200 200;" xml:space="preserve">
<style type="text/css">
	.st0{fill:#0067FC;}
</style>
<g>
	<g>
		<g>
			<path class="st0" d="M100,131.4c-0.4,0-0.8-0.2-1-0.5c-0.8-1-19.4-25.4-19.4-36.3c0-11.2,9.1-20.4,20.4-20.4s20.4,9.1,20.4,20.4
				c0,10.8-18.6,35.2-19.4,36.3C100.8,131.2,100.4,131.4,100,131.4z M100,76.8c-9.8,0-17.9,8-17.9,17.9c0,8.7,14,28.2,17.9,33.4
				c3.9-5.3,17.9-24.8,17.9-33.4C117.9,84.8,109.8,76.8,100,76.8z"/>
		</g>
		<g>
			<path class="st0" d="M100,102.8c-5.3,0-9.5-4.3-9.5-9.5c0-5.3,4.3-9.5,9.5-9.5s9.5,4.3,9.5,9.5C109.5,98.6,105.3,102.8,100,102.8
				z M100,86.2c-3.9,0-7,3.2-7,7c0,3.9,3.2,7,7,7c3.9,0,7-3.2,7-7C107,89.4,103.9,86.2,100,86.2z"/>
		</g>
	</g>
	<g>
		<path class="st0" d="M100,149.2c-27.1,0-49.2-22.1-49.2-49.2S72.9,50.8,100,50.8s49.2,22.1,49.2,49.2S127.1,149.2,100,149.2z
			 M100,53.3c-25.8,0-46.7,21-46.7,46.7c0,25.8,21,46.7,46.7,46.7c25.8,0,46.7-21,46.7-46.7C146.7,74.2,125.8,53.3,100,53.3z"/>
	</g>
	<g>
		<path class="st0" d="M100,172.7c-40.1,0-72.7-32.6-72.7-72.7S59.9,27.3,100,27.3s72.7,32.6,72.7,72.7S140.1,172.7,100,172.7z
			 M100,31.3c-37.9,0-68.7,30.8-68.7,68.7c0,37.9,30.8,68.7,68.7,68.7c37.9,0,68.7-30.8,68.7-68.7C168.7,62.1,137.9,31.3,100,31.3z"
			/>
	</g>
	<g>
		<path class="st0" d="M97.2,97.3c-0.3,0-0.6-0.1-0.9-0.4c-0.5-0.5-0.5-1.3,0-1.8l5.5-5.5c0.5-0.5,1.3-0.5,1.8,0s0.5,1.3,0,1.8
			l-5.5,5.5C97.9,97.2,97.6,97.3,97.2,97.3z"/>
	</g>
	<g>
		<path class="st0" d="M102.8,97.3c-0.3,0-0.6-0.1-0.9-0.4l-5.5-5.5c-0.5-0.5-0.5-1.3,0-1.8s1.3-0.5,1.8,0l5.5,5.5
			c0.5,0.5,0.5,1.3,0,1.8C103.4,97.2,103.1,97.3,102.8,97.3z"/>
	</g>
</g>
</svg>
