<?xml version="1.0" encoding="utf-8"?>
<!-- Generator: Adobe Illustrator 26.4.0, SVG Export Plug-In . SVG Version: 6.00 Build 0)  -->
<svg version="1.1" id="Layer_1" xmlns="http://www.w3.org/2000/svg" xmlns:xlink="http://www.w3.org/1999/xlink" x="0px" y="0px"
	 viewBox="0 0 200 200" style="enable-background:new 0 0 200 200;" xml:space="preserve">
<style type="text/css">
	.st0{fill:#0067FC;}
</style>
<g>
	<g>
		<path class="st0" d="M100.1,172.4c-40.1,0-72.7-32.6-72.7-72.7c0-40.1,32.6-72.7,72.7-72.7s72.7,32.6,72.7,72.7
			C172.8,139.7,140.2,172.4,100.1,172.4z M100.1,30.9c-37.9,0-68.7,30.8-68.7,68.7s30.8,68.7,68.7,68.7c37.9,0,68.7-30.8,68.7-68.7
			S138,30.9,100.1,30.9z"/>
	</g>
	<g>
		<g>
			<path class="st0" d="M130.5,95.1H80.9c-0.7,0-1.2-0.6-1.2-1.2v-8.9c0-0.7,0.6-1.2,1.2-1.2h49.6c0.7,0,1.2,0.6,1.2,1.2v8.9
				C131.8,94.5,131.2,95.1,130.5,95.1z M82.2,92.6h47.1v-6.4H82.2V92.6z"/>
		</g>
		<g>
			<path class="st0" d="M101.3,90.6H85.9c-0.7,0-1.2-0.6-1.2-1.2s0.6-1.2,1.2-1.2h15.4c0.7,0,1.2,0.6,1.2,1.2S102,90.6,101.3,90.6z"
				/>
		</g>
		<g>
			<path class="st0" d="M130.5,109.8H80.9c-0.7,0-1.2-0.6-1.2-1.2v-8.9c0-0.7,0.6-1.2,1.2-1.2h49.6c0.7,0,1.2,0.6,1.2,1.2v8.9
				C131.8,109.3,131.2,109.8,130.5,109.8z M82.2,107.3h47.1v-6.4H82.2V107.3z"/>
		</g>
		<g>
			<path class="st0" d="M101.3,105.3H85.9c-0.7,0-1.2-0.6-1.2-1.2s0.6-1.2,1.2-1.2h15.4c0.7,0,1.2,0.6,1.2,1.2
				S102,105.3,101.3,105.3z"/>
		</g>
		<g>
			<path class="st0" d="M125.2,90.6h-7.7c-0.7,0-1.2-0.6-1.2-1.2s0.6-1.2,1.2-1.2h7.7c0.7,0,1.2,0.6,1.2,1.2S125.9,90.6,125.2,90.6z
				"/>
		</g>
		<g>
			<path class="st0" d="M125.2,105.3h-7.7c-0.7,0-1.2-0.6-1.2-1.2s0.6-1.2,1.2-1.2h7.7c0.7,0,1.2,0.6,1.2,1.2
				S125.9,105.3,125.2,105.3z"/>
		</g>
		<g>
			<g>
				<path class="st0" d="M72.9,120.2c-0.5,0-0.9-0.2-1.1-0.6l-3.3-5.9c-0.1-0.2-0.2-0.4-0.2-0.6V80.4c0-0.7,0.6-1.2,1.2-1.2h6.5
					c0.7,0,1.2,0.6,1.2,1.2V113c0,0.2-0.1,0.4-0.2,0.6l-3.3,5.9C73.8,119.9,73.3,120.2,72.9,120.2z M70.9,112.7l2,3.7l2-3.7V81.6h-4
					V112.7z"/>
			</g>
			<g>
				<path class="st0" d="M76.1,89.4h-6.5c-0.7,0-1.2-0.6-1.2-1.2s0.6-1.2,1.2-1.2h6.5c0.7,0,1.2,0.6,1.2,1.2S76.8,89.4,76.1,89.4z"
					/>
			</g>
			<g>
				<path class="st0" d="M76.1,86h-6.5c-0.7,0-1.2-0.6-1.2-1.2s0.6-1.2,1.2-1.2h6.5c0.7,0,1.2,0.6,1.2,1.2S76.8,86,76.1,86z"/>
			</g>
		</g>
	</g>
	<g>
		<path class="st0" d="M135.4,136.3H64.7c-0.7,0-1.2-0.6-1.2-1.2V64.3c0-0.7,0.6-1.2,1.2-1.2h70.7c0.7,0,1.2,0.6,1.2,1.2V135
			C136.7,135.7,136.1,136.3,135.4,136.3z M66,133.8h68.2V65.5H66V133.8z"/>
	</g>
</g>
</svg>
