<?xml version="1.0" encoding="utf-8"?>
<!-- Generator: Adobe Illustrator 26.4.0, SVG Export Plug-In . SVG Version: 6.00 Build 0)  -->
<svg version="1.1" id="Layer_1" xmlns="http://www.w3.org/2000/svg" xmlns:xlink="http://www.w3.org/1999/xlink" x="0px" y="0px"
	 viewBox="0 0 200 200" style="enable-background:new 0 0 200 200;" xml:space="preserve">
<style type="text/css">
	.st0{fill:#0067FC;}
</style>
<g>
	<g>
		<path class="st0" d="M110.6,124.1h-30c-0.7,0-1.2-0.6-1.2-1.2s0.6-1.2,1.2-1.2h30c0.7,0,1.2,0.6,1.2,1.2S111.3,124.1,110.6,124.1z
			"/>
	</g>
	<g>
		<path class="st0" d="M108.8,129.9H80.6c-0.7,0-1.2-0.6-1.2-1.2s0.6-1.2,1.2-1.2h28.2c0.7,0,1.2,0.6,1.2,1.2
			S109.5,129.9,108.8,129.9z"/>
	</g>
	<g>
		<path class="st0" d="M107,135.6H80.6c-0.7,0-1.2-0.6-1.2-1.2s0.6-1.2,1.2-1.2H107c0.7,0,1.2,0.6,1.2,1.2S107.7,135.6,107,135.6z"
			/>
	</g>
	<g>
		<g>
			<path class="st0" d="M116.3,76c-0.7,0-1.2-0.6-1.2-1.2v-4.2h-4.1c-0.7,0-1.2-0.6-1.2-1.2s0.6-1.2,1.2-1.2h5.4
				c0.7,0,1.2,0.6,1.2,1.2v5.5C117.5,75.5,117,76,116.3,76z"/>
		</g>
		<g>
			<path class="st0" d="M83.1,91.8c-0.7,0-1.2-0.6-1.2-1.2v-5.6c0-0.7,0.6-1.2,1.2-1.2s1.2,0.6,1.2,1.2v5.6
				C84.3,91.2,83.8,91.8,83.1,91.8z"/>
		</g>
		<g>
			<path class="st0" d="M91.1,91.3c-0.7,0-1.2-0.6-1.2-1.2v-2.2c0-0.7,0.6-1.2,1.2-1.2s1.2,0.6,1.2,1.2V90
				C92.4,90.7,91.8,91.3,91.1,91.3z"/>
		</g>
		<g>
			<path class="st0" d="M98.6,91.3c-0.7,0-1.2-0.6-1.2-1.2v-9.5c0-0.7,0.6-1.2,1.2-1.2s1.2,0.6,1.2,1.2V90
				C99.9,90.7,99.3,91.3,98.6,91.3z"/>
		</g>
		<g>
			<path class="st0" d="M107.1,91.3c-0.7,0-1.2-0.6-1.2-1.2v-7.3c0-0.7,0.6-1.2,1.2-1.2s1.2,0.6,1.2,1.2V90
				C108.4,90.7,107.8,91.3,107.1,91.3z"/>
		</g>
		<g>
			<path class="st0" d="M115.2,90.9c-0.7,0-1.2-0.6-1.2-1.2V78.8c0-0.7,0.6-1.2,1.2-1.2s1.2,0.6,1.2,1.2v10.9
				C116.4,90.4,115.9,90.9,115.2,90.9z"/>
		</g>
		<g>
			<path class="st0" d="M90.2,84c-0.2,0-0.4,0-0.6-0.1l-7.2-3.8c-0.6-0.3-0.8-1.1-0.5-1.7c0.3-0.6,1.1-0.8,1.7-0.5l6.4,3.3l7.8-7.4
				c0.4-0.4,0.9-0.5,1.4-0.2l7.7,3.7l7.4-7.6c0.5-0.5,1.3-0.5,1.8,0c0.5,0.5,0.5,1.3,0,1.8l-8.1,8.2c-0.4,0.4-1,0.5-1.4,0.3
				l-7.7-3.7l-7.8,7.5C90.9,83.9,90.6,84,90.2,84z"/>
		</g>
	</g>
	<g>
		<g>
			<path class="st0" d="M92.7,117.7c-5.8,0-10.6-4.8-10.6-10.6s4.8-10.6,10.6-10.6c0.7,0,1.2,0.6,1.2,1.2v8.1h8.1
				c0.7,0,1.2,0.6,1.2,1.2C103.3,113,98.5,117.7,92.7,117.7z M91.4,99.1c-3.9,0.6-6.9,4-6.9,8c0,4.5,3.6,8.1,8.1,8.1
				c4,0,7.4-3,8-6.9h-8c-0.7,0-1.2-0.6-1.2-1.2V99.1z"/>
		</g>
		<g>
			<path class="st0" d="M94.9,95.3v9.4h9.4C104.2,99.5,100.1,95.3,94.9,95.3z"/>
		</g>
	</g>
	<g>
		<g>
			<path class="st0" d="M118.3,143.8h-42c-3,0-5.5-2.5-5.5-5.5V90.5c0-0.7,0.6-1.2,1.2-1.2s1.2,0.6,1.2,1.2v47.7c0,1.7,1.3,3,3,3
				h41.5l11.4-12.8v-7c0-0.7,0.6-1.2,1.2-1.2s1.2,0.6,1.2,1.2v7.4c0,0.3-0.1,0.6-0.3,0.8l-12.1,13.5
				C119,143.6,118.6,143.8,118.3,143.8z"/>
		</g>
		<g>
			<path class="st0" d="M72,94.9c-0.7,0-1.2-0.6-1.2-1.2v-31c0-3,2.5-5.5,5.5-5.5h49.8c3,0,5.5,2.5,5.5,5.5v22.6
				c0,0.7-0.6,1.2-1.2,1.2s-1.2-0.6-1.2-1.2V62.7c0-1.7-1.3-3-3-3H76.3c-1.7,0-3,1.3-3,3v31C73.2,94.4,72.7,94.9,72,94.9z"/>
		</g>
		<g>
			<path class="st0" d="M117.3,143.3c-0.7,0-1.2-0.6-1.2-1.2v-8.8c0-3,2.5-5.5,5.5-5.5h8.8c0.7,0,1.2,0.6,1.2,1.2s-0.6,1.2-1.2,1.2
				h-8.8c-1.7,0-3,1.3-3,3v8.8C118.5,142.7,118,143.3,117.3,143.3z"/>
		</g>
		<g>
			<path class="st0" d="M130.3,122.1c-10,0-18.2-8.2-18.2-18.2s8.2-18.2,18.2-18.2s18.2,8.2,18.2,18.2S140.4,122.1,130.3,122.1z
				 M130.3,88.1c-8.7,0-15.9,7.1-15.9,15.9c0,8.7,7.1,15.9,15.9,15.9s15.9-7.1,15.9-15.9C146.2,95.2,139.1,88.1,130.3,88.1z"/>
		</g>
	</g>
	<g>
		<g>
			<path class="st0" d="M116.3,76c-0.7,0-1.2-0.6-1.2-1.2v-4.2h-4.1c-0.7,0-1.2-0.6-1.2-1.2s0.6-1.2,1.2-1.2h5.4
				c0.7,0,1.2,0.6,1.2,1.2v5.5C117.5,75.5,117,76,116.3,76z"/>
		</g>
		<g>
			<path class="st0" d="M83.1,91.8c-0.7,0-1.2-0.6-1.2-1.2v-5.6c0-0.7,0.6-1.2,1.2-1.2s1.2,0.6,1.2,1.2v5.6
				C84.3,91.2,83.8,91.8,83.1,91.8z"/>
		</g>
		<g>
			<path class="st0" d="M91.1,91.3c-0.7,0-1.2-0.6-1.2-1.2v-2.2c0-0.7,0.6-1.2,1.2-1.2s1.2,0.6,1.2,1.2V90
				C92.4,90.7,91.8,91.3,91.1,91.3z"/>
		</g>
		<g>
			<path class="st0" d="M98.6,91.3c-0.7,0-1.2-0.6-1.2-1.2v-9.5c0-0.7,0.6-1.2,1.2-1.2s1.2,0.6,1.2,1.2V90
				C99.9,90.7,99.3,91.3,98.6,91.3z"/>
		</g>
		<g>
			<path class="st0" d="M107.1,91.3c-0.7,0-1.2-0.6-1.2-1.2v-7.3c0-0.7,0.6-1.2,1.2-1.2s1.2,0.6,1.2,1.2V90
				C108.4,90.7,107.8,91.3,107.1,91.3z"/>
		</g>
		<g>
			<path class="st0" d="M115.2,90.9c-0.7,0-1.2-0.6-1.2-1.2V78.8c0-0.7,0.6-1.2,1.2-1.2s1.2,0.6,1.2,1.2v10.9
				C116.4,90.4,115.9,90.9,115.2,90.9z"/>
		</g>
		<g>
			<path class="st0" d="M90.2,84c-0.2,0-0.4,0-0.6-0.1l-7.2-3.8c-0.6-0.3-0.8-1.1-0.5-1.7c0.3-0.6,1.1-0.8,1.7-0.5l6.4,3.3l7.8-7.4
				c0.4-0.4,0.9-0.5,1.4-0.2l7.7,3.7l7.4-7.6c0.5-0.5,1.3-0.5,1.8,0c0.5,0.5,0.5,1.3,0,1.8l-8.1,8.2c-0.4,0.4-1,0.5-1.4,0.3
				l-7.7-3.7l-7.8,7.5C90.9,83.9,90.6,84,90.2,84z"/>
		</g>
	</g>
	<g>
		<g>
			<path class="st0" d="M116.3,76c-0.7,0-1.2-0.6-1.2-1.2v-4.2h-4.1c-0.7,0-1.2-0.6-1.2-1.2s0.6-1.2,1.2-1.2h5.4
				c0.7,0,1.2,0.6,1.2,1.2v5.5C117.5,75.5,117,76,116.3,76z"/>
		</g>
		<g>
			<path class="st0" d="M83.1,91.8c-0.7,0-1.2-0.6-1.2-1.2v-5.6c0-0.7,0.6-1.2,1.2-1.2s1.2,0.6,1.2,1.2v5.6
				C84.3,91.2,83.8,91.8,83.1,91.8z"/>
		</g>
		<g>
			<path class="st0" d="M91.1,91.3c-0.7,0-1.2-0.6-1.2-1.2v-2.2c0-0.7,0.6-1.2,1.2-1.2s1.2,0.6,1.2,1.2V90
				C92.4,90.7,91.8,91.3,91.1,91.3z"/>
		</g>
		<g>
			<path class="st0" d="M98.6,91.3c-0.7,0-1.2-0.6-1.2-1.2v-9.5c0-0.7,0.6-1.2,1.2-1.2s1.2,0.6,1.2,1.2V90
				C99.9,90.7,99.3,91.3,98.6,91.3z"/>
		</g>
		<g>
			<path class="st0" d="M107.1,91.3c-0.7,0-1.2-0.6-1.2-1.2v-7.3c0-0.7,0.6-1.2,1.2-1.2s1.2,0.6,1.2,1.2V90
				C108.4,90.7,107.8,91.3,107.1,91.3z"/>
		</g>
		<g>
			<path class="st0" d="M115.2,90.9c-0.7,0-1.2-0.6-1.2-1.2V78.8c0-0.7,0.6-1.2,1.2-1.2s1.2,0.6,1.2,1.2v10.9
				C116.4,90.4,115.9,90.9,115.2,90.9z"/>
		</g>
		<g>
			<path class="st0" d="M90.2,84c-0.2,0-0.4,0-0.6-0.1l-7.2-3.8c-0.6-0.3-0.8-1.1-0.5-1.7c0.3-0.6,1.1-0.8,1.7-0.5l6.4,3.3l7.8-7.4
				c0.4-0.4,0.9-0.5,1.4-0.2l7.7,3.7l7.4-7.6c0.5-0.5,1.3-0.5,1.8,0c0.5,0.5,0.5,1.3,0,1.8l-8.1,8.2c-0.4,0.4-1,0.5-1.4,0.3
				l-7.7-3.7l-7.8,7.5C90.9,83.9,90.6,84,90.2,84z"/>
		</g>
	</g>
	<g>
		<path class="st0" d="M100.1,172.4c-40.1,0-72.7-32.6-72.7-72.7c0-40.1,32.6-72.7,72.7-72.7s72.7,32.6,72.7,72.7
			C172.8,139.7,140.2,172.4,100.1,172.4z M100.1,30.9c-37.9,0-68.7,30.8-68.7,68.7s30.8,68.7,68.7,68.7c37.9,0,68.7-30.8,68.7-68.7
			S138,30.9,100.1,30.9z"/>
	</g>
	<g>
		<g>
			<path class="st0" d="M130.3,110.1c-3.3,0-6-2.7-6-6c0-3.3,2.7-6,6-6c3.3,0,6,2.7,6,6C136.4,107.4,133.7,110.1,130.3,110.1z
				 M130.3,99.6c-2.4,0-4.4,2-4.4,4.4c0,2.4,2,4.4,4.4,4.4c2.4,0,4.4-2,4.4-4.4C134.8,101.6,132.8,99.6,130.3,99.6z"/>
		</g>
		<g>
			<path class="st0" d="M130.3,117.3c-0.3,0-0.6,0-0.9,0c-1.1,0-1.8-0.7-1.8-1.8c0-1-0.4-1.6-1.3-1.9c-0.8-0.3-1.5-0.2-2.2,0.5
				c-0.8,0.7-1.8,0.7-2.5,0c-0.4-0.4-0.9-0.9-1.3-1.3c-0.8-0.8-0.8-1.7,0-2.5c0.7-0.7,0.8-1.4,0.4-2.2c-0.3-0.8-1-1.2-1.9-1.2
				c-1,0-1.7-0.8-1.8-1.8c0-0.6,0-1.3,0-1.9c0-1,0.7-1.7,1.7-1.8c1,0,1.6-0.4,1.9-1.3c0.3-0.8,0.2-1.5-0.5-2.2
				c-0.7-0.8-0.7-1.8,0-2.5c0.3-0.3,0.6-0.6,0.9-0.9l0.4-0.4c0.8-0.8,1.8-0.9,2.7-0.1c0.4,0.4,0.8,0.6,1.4,0.6c0.5,0,1-0.2,1.4-0.6
				c0.4-0.4,0.6-0.9,0.6-1.5c0-1.1,0.7-1.8,1.9-1.8l0.4,0c0.5,0,1,0,1.4,0c1,0,1.7,0.7,1.7,1.7c0,0.2,0,0.4,0.1,0.6
				c0.2,0.7,0.7,1.2,1.4,1.4c0.7,0.2,1.4,0,2-0.5c0.3-0.3,0.6-0.5,1.2-0.6c0.2,0,0.4,0,0.5,0.1c0.1,0,0.1,0.1,0.2,0.1
				c0.2,0.1,0.4,0.2,0.6,0.4c0.3,0.3,0.6,0.6,0.9,0.9l0.3,0.4c0.8,0.8,0.9,1.8,0,2.7c-0.4,0.4-0.6,0.8-0.6,1.4c0,1.1,0.9,2,2,2
				c1.1,0,1.8,0.7,1.8,1.8c0,0.6,0,1.3,0,1.9c0,1-0.7,1.7-1.7,1.7c-0.2,0-0.4,0-0.6,0.1c-0.7,0.2-1.2,0.7-1.4,1.4
				c-0.2,0.7,0,1.4,0.5,2c0.8,0.8,0.8,1.8,0,2.6l-1.2,1.2c-0.9,0.8-1.8,0.9-2.7,0c-0.4-0.4-0.8-0.6-1.3-0.6c-0.6,0-1.1,0.2-1.5,0.5
				c-0.4,0.4-0.6,0.9-0.6,1.5c0,1.1-0.7,1.8-1.8,1.8C130.9,117.3,130.6,117.3,130.3,117.3z M129.3,115.7c0,0,0,0,0.2,0
				c0.6,0,1.2,0,1.8,0c0.1,0,0.2,0,0.2,0c0,0,0-0.1,0-0.2c0-1,0.4-2,1.1-2.6c0.7-0.7,1.7-1,2.6-1c0.9,0,1.7,0.4,2.4,1
				c0.1,0.1,0.2,0.1,0.2,0.2c0,0,0.1-0.1,0.2-0.2l1.2-1.2c0.1-0.1,0.1-0.2,0.1-0.2c0,0,0-0.1-0.1-0.2c-0.9-1-1.2-2.3-0.9-3.6
				c0.4-1.2,1.3-2.2,2.6-2.5c0.3-0.1,0.6-0.1,0.9-0.1c0.1,0,0.1,0,0.1-0.1c0-0.6,0-1.3,0-1.9c0-0.1,0-0.1,0-0.2c0,0,0,0-0.2,0
				c-2.1,0-3.7-1.7-3.6-3.7c0-0.9,0.4-1.8,1-2.5c0.1-0.1,0.1-0.2,0.2-0.2c0,0-0.1-0.1-0.2-0.2l-0.4-0.4c-0.3-0.3-0.6-0.6-0.9-0.9
				c0,0-0.1-0.1-0.2-0.1c0,0-0.1,0.1-0.2,0.1c-1,0.9-2.3,1.2-3.5,0.9c-1.2-0.4-2.2-1.3-2.5-2.6c-0.1-0.3-0.1-0.6-0.1-0.9
				c0-0.1,0-0.1-0.1-0.1c-0.5,0-1,0-1.4,0l-0.4,0c-0.1,0-0.2,0-0.2,0c0,0,0,0.1,0,0.2c0,1-0.4,1.9-1.1,2.6c-0.7,0.7-1.6,1-2.6,1
				c-0.9,0-1.7-0.4-2.4-1c-0.1-0.1-0.2-0.1-0.2-0.2c0,0-0.1,0.1-0.2,0.2l-0.4,0.4c-0.3,0.3-0.6,0.6-0.9,0.9
				c-0.1,0.1-0.1,0.1-0.1,0.1c0,0,0,0.1,0.1,0.1c1.1,1.2,1.4,2.5,0.8,4c-0.6,1.4-1.8,2.2-3.4,2.3c-0.1,0-0.1,0-0.1,0c0,0,0,0,0,0.1
				c0,0.6,0,1.3,0,1.9c0,0.1,0,0.1,0,0.1c0,0,0.1,0,0.2,0c1.6,0,2.8,0.8,3.4,2.2c0.6,1.4,0.3,2.8-0.8,4c-0.1,0.1-0.1,0.2-0.1,0.2
				c0,0,0,0.1,0.1,0.1c0.4,0.4,0.9,0.9,1.3,1.3c0.1,0.1,0.1,0.1,0.1,0.1c0,0,0.1,0,0.1-0.1c1.2-1.1,2.5-1.4,4-0.8
				c1.4,0.6,2.2,1.8,2.2,3.4C129.2,115.6,129.3,115.7,129.3,115.7L129.3,115.7z"/>
		</g>
	</g>
</g>
</svg>
