<?xml version="1.0" encoding="utf-8"?>
<!-- Generator: Adobe Illustrator 26.4.0, SVG Export Plug-In . SVG Version: 6.00 Build 0)  -->
<svg version="1.1" id="Layer_1" xmlns="http://www.w3.org/2000/svg" xmlns:xlink="http://www.w3.org/1999/xlink" x="0px" y="0px"
	 viewBox="0 0 200 200" style="enable-background:new 0 0 200 200;" xml:space="preserve">
<style type="text/css">
	.st0{fill:#0067FC;}
</style>
<g>
	<g>
		<path class="st0" d="M100,172.7c-40.1,0-72.7-32.6-72.7-72.7S59.9,27.3,100,27.3s72.7,32.6,72.7,72.7S140.1,172.7,100,172.7z
			 M100,31.3c-37.9,0-68.7,30.8-68.7,68.7c0,37.9,30.8,68.7,68.7,68.7c37.9,0,68.7-30.8,68.7-68.7C168.7,62.1,137.9,31.3,100,31.3z"
			/>
	</g>
	<g>
		<g>
			<g id="Group_263_00000181046310301137471650000000668266567576869249_" transform="translate(-598.5 -520.001)">
				<g id="Group_259_00000005972513523300928520000002640753055600317864_" transform="translate(549.903 487.744)">
					<g id="Ellipse_9_00000117673922352107972090000005541926436203996573_">
						<path class="st0" d="M148.4,129.8c-5,0-9.1-4.1-9.1-9.1s4.1-9.1,9.1-9.1c5,0,9.1,4.1,9.1,9.1S153.4,129.8,148.4,129.8z
							 M148.4,114.1c-3.6,0-6.6,3-6.6,6.6s3,6.6,6.6,6.6s6.6-3,6.6-6.6S152,114.1,148.4,114.1z"/>
					</g>
					<g id="Path_16_00000013900289338972921100000009931666223224917380_">
						<path class="st0" d="M161.2,144.7c-0.7,0-1.2-0.6-1.2-1.2c0-6.4-5.2-11.5-11.5-11.5c-6.4,0-11.5,5.2-11.5,11.5
							c0,0.7-0.6,1.2-1.2,1.2s-1.2-0.6-1.2-1.2c0-7.7,6.3-14,14-14s14,6.3,14,14C162.4,144.1,161.9,144.7,161.2,144.7z"/>
					</g>
				</g>
			</g>
		</g>
		<g>
			<g id="Group_263_00000111909340716223348900000006224311156011122585_" transform="translate(-598.5 -520.001)">
				<g id="Group_259_00000037651918850875729700000004621466866233048211_" transform="translate(549.903 487.744)">
					<g id="Ellipse_9_00000109731223888665228170000017386443665118321081_">
						<path class="st0" d="M172.6,137.6c-5,0-9.1-4.1-9.1-9.1c0-5,4.1-9.1,9.1-9.1s9.1,4.1,9.1,9.1
							C181.6,133.6,177.6,137.6,172.6,137.6z M172.6,121.9c-3.6,0-6.6,3-6.6,6.6c0,3.6,3,6.6,6.6,6.6s6.6-3,6.6-6.6
							C179.1,124.9,176.2,121.9,172.6,121.9z"/>
					</g>
					<g id="Path_16_00000109749630039101682630000013704377807170796166_">
						<path class="st0" d="M185.3,152.5c-0.7,0-1.2-0.6-1.2-1.2c0-6.4-5.2-11.5-11.5-11.5s-11.5,5.2-11.5,11.5
							c0,0.7-0.6,1.2-1.2,1.2s-1.2-0.6-1.2-1.2c0-7.7,6.3-14,14-14s14,6.3,14,14C186.6,151.9,186,152.5,185.3,152.5z"/>
					</g>
				</g>
			</g>
		</g>
		<g>
			<g id="Group_263_00000098920031716776717560000010508219212947627664_" transform="translate(-598.5 -520.001)">
				<g id="Group_259_00000098932577983051875730000009350210553388196268_" transform="translate(549.903 487.744)">
					<g id="Ellipse_9_00000091731712706098246140000003049746298256604082_">
						<path class="st0" d="M124.6,138c-5,0-9.1-4.1-9.1-9.1s4.1-9.1,9.1-9.1s9.1,4.1,9.1,9.1S129.7,138,124.6,138z M124.6,122.4
							c-3.6,0-6.6,3-6.6,6.6s3,6.6,6.6,6.6s6.6-3,6.6-6.6S128.3,122.4,124.6,122.4z"/>
					</g>
					<g id="Path_16_00000091708604521298557100000017475922418417594539_">
						<path class="st0" d="M137.4,152.9c-0.7,0-1.2-0.6-1.2-1.2c0-6.4-5.2-11.5-11.5-11.5c-6.4,0-11.5,5.2-11.5,11.5
							c0,0.7-0.6,1.2-1.2,1.2s-1.2-0.6-1.2-1.2c0-7.7,6.3-14,14-14c7.7,0,14,6.3,14,14C138.7,152.3,138.1,152.9,137.4,152.9z"/>
					</g>
				</g>
			</g>
		</g>
	</g>
</g>
</svg>
