<?xml version="1.0" encoding="utf-8"?>
<!-- Generator: Adobe Illustrator 26.2.1, SVG Export Plug-In . SVG Version: 6.00 Build 0)  -->
<svg version="1.1" id="Layer_1" xmlns="http://www.w3.org/2000/svg" xmlns:xlink="http://www.w3.org/1999/xlink" x="0px" y="0px"
	 viewBox="0 0 200 200" style="enable-background:new 0 0 200 200;" xml:space="preserve">
<style type="text/css">
	.st0{fill:#0067FC;}
</style>
<g>
	<g>
		<path class="st0" d="M99.8,172.4c-40.1,0-72.7-32.6-72.7-72.7c0-40.1,32.6-72.7,72.7-72.7s72.7,32.6,72.7,72.7
			C172.5,139.7,139.9,172.4,99.8,172.4z M99.8,30.9c-37.9,0-68.7,30.8-68.7,68.7s30.8,68.7,68.7,68.7c37.9,0,68.7-30.8,68.7-68.7
			S137.7,30.9,99.8,30.9z"/>
	</g>
	<g>
		<path class="st0" d="M117.5,119.3H82.1c-1.1,0-2-0.9-2-2V82c0-1.1,0.9-2,2-2h25.4c1.1,0,2,0.9,2,2s-0.9,2-2,2H84.1v31.4h31.4V93.1
			c0-1.1,0.9-2,2-2s2,0.9,2,2v24.2C119.5,118.4,118.6,119.3,117.5,119.3z"/>
	</g>
	<g>
		<path class="st0" d="M123.4,90.5c-1.1,0-2-0.9-2-2v-10h-9.8c-1.1,0-2-0.9-2-2s0.9-2,2-2h11.8c1.1,0,2,0.9,2,2v12
			C125.4,89.6,124.5,90.5,123.4,90.5z"/>
	</g>
	<g>
		<path class="st0" d="M99.8,101.6c-0.5,0-1-0.2-1.4-0.6c-0.8-0.8-0.8-2.1,0-2.8l23-22.4c0.8-0.8,2.1-0.8,2.8,0
			c0.8,0.8,0.8,2.1,0,2.8l-23,22.4C100.8,101.5,100.3,101.6,99.8,101.6z"/>
	</g>
</g>
</svg>
