<?xml version="1.0" encoding="utf-8"?>
<!-- Generator: Adobe Illustrator 26.4.0, SVG Export Plug-In . SVG Version: 6.00 Build 0)  -->
<svg version="1.1" id="Layer_1" xmlns="http://www.w3.org/2000/svg" xmlns:xlink="http://www.w3.org/1999/xlink" x="0px" y="0px"
	 viewBox="0 0 200 200" style="enable-background:new 0 0 200 200;" xml:space="preserve">
<style type="text/css">
	.st0{fill:none;stroke:#0067FC;stroke-width:2.5;stroke-linecap:round;stroke-linejoin:round;stroke-miterlimit:10;}
	.st1{fill:#0067FC;}
</style>
<g>
	<g>
		<path class="st0" d="M103.9,99.7"/>
	</g>
	<g>
		<path class="st1" d="M91.8,109.3c-0.3,0-0.6-0.1-0.9-0.4c-0.5-0.5-0.5-1.3,0-1.8l14.5-14.5c0.5-0.5,1.3-0.5,1.8,0s0.5,1.3,0,1.8
			l-14.5,14.5C92.5,109.1,92.1,109.3,91.8,109.3z"/>
	</g>
	<g>
		<path class="st1" d="M108.4,107.2c-0.7,0-1.2-0.6-1.2-1.2V92.5H94.1c-0.7,0-1.2-0.6-1.2-1.2s0.6-1.2,1.2-1.2h14.3
			c0.7,0,1.2,0.6,1.2,1.2v14.6C109.6,106.6,109.1,107.2,108.4,107.2z"/>
	</g>
	<g>
		<path class="st1" d="M100,172.7c-40.1,0-72.7-32.6-72.7-72.7S59.9,27.3,100,27.3s72.7,32.6,72.7,72.7S140.1,172.7,100,172.7z
			 M100,31.3c-37.9,0-68.7,30.8-68.7,68.7c0,37.9,30.8,68.7,68.7,68.7c37.9,0,68.7-30.8,68.7-68.7C168.7,62.1,137.9,31.3,100,31.3z"
			/>
	</g>
	<g>
		<path class="st1" d="M128.9,127.9H72.8c-0.7,0-1.2-0.6-1.2-1.2V72.6c0-0.7,0.6-1.2,1.2-1.2h56.2c0.7,0,1.2,0.6,1.2,1.2v54.1
			C130.2,127.4,129.6,127.9,128.9,127.9z M74,125.4h53.7V73.9H74V125.4z"/>
	</g>
</g>
</svg>
