<?xml version="1.0" encoding="utf-8"?>
<!-- Generator: Adobe Illustrator 26.2.1, SVG Export Plug-In . SVG Version: 6.00 Build 0)  -->
<svg version="1.1" id="Layer_1" xmlns="http://www.w3.org/2000/svg" xmlns:xlink="http://www.w3.org/1999/xlink" x="0px" y="0px"
	 viewBox="0 0 200 200" style="enable-background:new 0 0 200 200;" xml:space="preserve">
<style type="text/css">
	.st0{fill:#0067FC;}
</style>
<g>
	<g>
		<path class="st0" d="M100,172.7c-40.1,0-72.7-32.6-72.7-72.7S59.9,27.3,100,27.3s72.7,32.6,72.7,72.7S140.1,172.7,100,172.7z
			 M100,31.3c-37.9,0-68.7,30.8-68.7,68.7c0,37.9,30.8,68.7,68.7,68.7c37.9,0,68.7-30.8,68.7-68.7C168.7,62.1,137.9,31.3,100,31.3z"
			/>
	</g>
	<g>
		<path class="st0" d="M117.7,119.7H82.3c-1.1,0-2-0.9-2-2V82.3c0-1.1,0.9-2,2-2h25.4c1.1,0,2,0.9,2,2s-0.9,2-2,2H84.3v31.4h31.4
			V93.5c0-1.1,0.9-2,2-2s2,0.9,2,2v24.2C119.7,118.8,118.8,119.7,117.7,119.7z"/>
	</g>
	<g>
		<path class="st0" d="M123.6,90.8c-1.1,0-2-0.9-2-2v-10h-9.8c-1.1,0-2-0.9-2-2s0.9-2,2-2h11.8c1.1,0,2,0.9,2,2v12
			C125.6,89.9,124.7,90.8,123.6,90.8z"/>
	</g>
	<g>
		<path class="st0" d="M100,102c-0.5,0-1-0.2-1.4-0.6c-0.8-0.8-0.8-2.1,0-2.8l23-22.4c0.8-0.8,2.1-0.8,2.8,0c0.8,0.8,0.8,2.1,0,2.8
			l-23,22.4C101,101.8,100.5,102,100,102z"/>
	</g>
</g>
</svg>
