<?xml version="1.0" encoding="utf-8"?>
<!-- Generator: Adobe Illustrator 26.3.1, SVG Export Plug-In . SVG Version: 6.00 Build 0)  -->
<svg version="1.1" id="Layer_1" xmlns="http://www.w3.org/2000/svg" xmlns:xlink="http://www.w3.org/1999/xlink" x="0px" y="0px"
	 viewBox="0 0 200 200" style="enable-background:new 0 0 200 200;" xml:space="preserve">
<style type="text/css">
	.st0{fill:#0067FC;}
</style>
<g>
	<g>
		<g>
			<g id="Group_263_00000051358559404064959980000012476207250159076516_" transform="translate(-598.5 -520.001)">
				<g id="Group_259_00000129915280673903595390000007881193269356786816_" transform="translate(549.903 487.744)">
					<g id="Ellipse_9_00000012468055200126528880000004782742351749236670_">
						<path class="st0" d="M148.6,132.4c-7.5,0-13.5-6.1-13.5-13.5s6.1-13.5,13.5-13.5s13.5,6.1,13.5,13.5S156,132.4,148.6,132.4z
							 M148.6,108.1c-5.9,0-10.8,4.8-10.8,10.8s4.8,10.8,10.8,10.8c5.9,0,10.8-4.8,10.8-10.8S154.5,108.1,148.6,108.1z"/>
					</g>
					<g id="Path_16_00000022551776730911266380000008165835896080723620_">
						<path class="st0" d="M168.4,155.4c-0.8,0-1.4-0.6-1.4-1.4c0-10.2-8.3-18.4-18.4-18.4c-10.2,0-18.4,8.3-18.4,18.4
							c0,0.8-0.6,1.4-1.4,1.4s-1.4-0.6-1.4-1.4c0-11.7,9.5-21.2,21.2-21.2s21.2,9.5,21.2,21.2C169.8,154.8,169.1,155.4,168.4,155.4z
							"/>
					</g>
				</g>
			</g>
		</g>
		<g>
			<g id="Group_263_00000144324659410207384710000001579684804128807870_" transform="translate(-598.5 -520.001)">
				<g id="Group_259_00000093137136110265498630000007052388594382711189_" transform="translate(549.903 487.744)">
					<g id="Ellipse_9_00000007421611645245234180000017353893344560492177_">
						<path class="st0" d="M179.7,129.8c-5.3,0-9.6-4.3-9.6-9.6s4.3-9.6,9.6-9.6c5.3,0,9.6,4.3,9.6,9.6S185,129.8,179.7,129.8z
							 M179.7,113.3c-3.8,0-6.9,3.1-6.9,6.9s3.1,6.9,6.9,6.9s6.9-3.1,6.9-6.9S183.5,113.3,179.7,113.3z"/>
					</g>
					<g id="Path_16_00000116931632011348965140000008977575175387492483_">
						<path class="st0" d="M193.2,145.4c-0.8,0-1.4-0.6-1.4-1.4c0-6.6-5.4-12.1-12.1-12.1s-12.1,5.4-12.1,12.1
							c0,0.8-0.6,1.4-1.4,1.4s-1.4-0.6-1.4-1.4c0-8.2,6.7-14.8,14.8-14.8c8.2,0,14.8,6.7,14.8,14.8
							C194.5,144.8,193.9,145.4,193.2,145.4z"/>
					</g>
				</g>
			</g>
		</g>
		<g>
			<g id="Group_263_00000079451728240139885160000016144193888944184212_" transform="translate(-598.5 -520.001)">
				<g id="Group_259_00000127764188463612283550000006521964521109717907_" transform="translate(549.903 487.744)">
					<g id="Ellipse_9_00000069361506329237644180000003156855241913617305_">
						<path class="st0" d="M117.5,129.8c-5.3,0-9.6-4.3-9.6-9.6s4.3-9.6,9.6-9.6s9.6,4.3,9.6,9.6S122.8,129.8,117.5,129.8z
							 M117.5,113.3c-3.8,0-6.9,3.1-6.9,6.9s3.1,6.9,6.9,6.9s6.9-3.1,6.9-6.9S121.3,113.3,117.5,113.3z"/>
					</g>
					<g id="Path_16_00000178166121897239818290000008848173879988568506_">
						<path class="st0" d="M130.9,145.4c-0.8,0-1.4-0.6-1.4-1.4c0-6.6-5.4-12.1-12.1-12.1c-6.6,0-12.1,5.4-12.1,12.1
							c0,0.8-0.6,1.4-1.4,1.4s-1.4-0.6-1.4-1.4c0-8.2,6.7-14.8,14.8-14.8c8.2,0,14.8,6.7,14.8,14.8
							C132.3,144.8,131.7,145.4,130.9,145.4z"/>
					</g>
				</g>
			</g>
		</g>
	</g>
	<g>
		<path class="st0" d="M100,172.7c-40.1,0-72.7-32.6-72.7-72.7S59.9,27.3,100,27.3s72.7,32.6,72.7,72.7S140.1,172.7,100,172.7z
			 M100,31.3c-37.9,0-68.7,30.8-68.7,68.7c0,37.9,30.8,68.7,68.7,68.7c37.9,0,68.7-30.8,68.7-68.7C168.7,62.1,137.9,31.3,100,31.3z"
			/>
	</g>
</g>
</svg>
