<?xml version="1.0" encoding="utf-8"?>
<!-- Generator: Adobe Illustrator 26.3.1, SVG Export Plug-In . SVG Version: 6.00 Build 0)  -->
<svg version="1.1" id="Layer_1" xmlns="http://www.w3.org/2000/svg" xmlns:xlink="http://www.w3.org/1999/xlink" x="0px" y="0px"
	 viewBox="0 0 200 200" style="enable-background:new 0 0 200 200;" xml:space="preserve">
<style type="text/css">
	.st0{fill:#0067FC;}
</style>
<g>
	<g>
		<g>
			<g>
				<path class="st0" d="M130.7,121.9H69.3c-3,0-5.4-2.4-5.4-5.4V74.5c0-3,2.4-5.4,5.4-5.4h61.4c3,0,5.4,2.4,5.4,5.4v41.9
					C136.2,119.5,133.7,121.9,130.7,121.9z M69.3,71.7c-1.6,0-2.9,1.3-2.9,2.9v41.9c0,1.6,1.3,2.9,2.9,2.9h61.4
					c1.6,0,2.9-1.3,2.9-2.9V74.5c0-1.6-1.3-2.9-2.9-2.9H69.3z"/>
			</g>
			<g>
				<path class="st0" d="M134.9,115.3H65.1c-0.7,0-1.3-0.6-1.3-1.3s0.6-1.3,1.3-1.3h69.7c0.7,0,1.3,0.6,1.3,1.3
					S135.6,115.3,134.9,115.3z"/>
			</g>
			<g>
				<path class="st0" d="M110.3,129.3c-0.6,0-1.1-0.4-1.3-1l-1.6-6.4H92.1l-1.6,6.4c-0.2,0.7-0.9,1.1-1.6,0.9
					c-0.7-0.2-1.1-0.9-0.9-1.6l1.8-7.3c0.1-0.6,0.7-1,1.3-1h17.4c0.6,0,1.1,0.4,1.3,1l1.8,7.3c0.2,0.7-0.2,1.4-0.9,1.6
					C110.5,129.2,110.4,129.3,110.3,129.3z"/>
			</g>
			<g>
				<path class="st0" d="M113.2,134.5H86.3c-2.1,0-3.9-1.7-3.9-3.9s1.7-3.9,3.9-3.9h26.9c2.1,0,3.9,1.7,3.9,3.9
					S115.4,134.5,113.2,134.5z M86.3,129.3c-0.7,0-1.3,0.6-1.3,1.3s0.6,1.3,1.3,1.3h26.9c0.7,0,1.3-0.6,1.3-1.3s-0.6-1.3-1.3-1.3
					H86.3z"/>
			</g>
		</g>
		<g>
			<g>
				<g>
					<path class="st0" d="M124.5,93.8c-0.7,0-1.3-0.6-1.3-1.3v-9.9c0-0.7,0.6-1.3,1.3-1.3s1.3,0.6,1.3,1.3v9.9
						C125.8,93.3,125.3,93.8,124.5,93.8z"/>
				</g>
				<g>
					<path class="st0" d="M120.1,93.8c-0.7,0-1.3-0.6-1.3-1.3v-9.3c0-0.7,0.6-1.3,1.3-1.3s1.3,0.6,1.3,1.3v9.3
						C121.4,93.3,120.8,93.8,120.1,93.8z"/>
				</g>
				<g>
					<path class="st0" d="M115.5,93.8c-0.7,0-1.3-0.6-1.3-1.3v-8.7c0-0.7,0.6-1.3,1.3-1.3s1.3,0.6,1.3,1.3v8.7
						C116.8,93.3,116.2,93.8,115.5,93.8z"/>
				</g>
				<g>
					<path class="st0" d="M111.4,93.8c-0.7,0-1.3-0.6-1.3-1.3V85c0-0.7,0.6-1.3,1.3-1.3s1.3,0.6,1.3,1.3v7.5
						C112.6,93.3,112.1,93.8,111.4,93.8z"/>
				</g>
				<g>
					<path class="st0" d="M106.7,93.8c-0.7,0-1.3-0.6-1.3-1.3v-5.5c0-0.7,0.6-1.3,1.3-1.3s1.3,0.6,1.3,1.3v5.5
						C108,93.3,107.5,93.8,106.7,93.8z"/>
				</g>
			</g>
		</g>
		<g id="Group_263_00000014623941694917828390000009623140470702439348_" transform="translate(-598.5 -520.001)">
			<g id="Group_259_00000108277389998296640250000007762774048026736813_" transform="translate(549.903 487.744)">
				<g id="Ellipse_9_00000155112799181123776610000010943519377921636745_">
					<path class="st0" d="M134.5,128.8c-4.5,0-8.2-3.7-8.2-8.2c0-4.5,3.7-8.2,8.2-8.2c4.5,0,8.2,3.7,8.2,8.2
						C142.7,125.2,139,128.8,134.5,128.8z M134.5,115.4c-2.9,0-5.2,2.3-5.2,5.2c0,2.9,2.3,5.2,5.2,5.2c2.9,0,5.2-2.3,5.2-5.2
						C139.7,117.8,137.4,115.4,134.5,115.4z"/>
				</g>
				<g id="Path_16_00000084488356824746215430000007897736798226942856_">
					<path class="st0" d="M145.4,141.5c-0.8,0-1.5-0.7-1.5-1.5c0-5.2-4.2-9.4-9.4-9.4s-9.4,4.2-9.4,9.4c0,0.8-0.7,1.5-1.5,1.5
						s-1.5-0.7-1.5-1.5c0-6.8,5.5-12.4,12.4-12.4s12.4,5.5,12.4,12.4C146.9,140.8,146.2,141.5,145.4,141.5z"/>
				</g>
			</g>
		</g>
		<g>
			<path class="st0" d="M125.5,109.1h-20c-0.7,0-1.3-0.6-1.3-1.3V97.7c0-0.7,0.6-1.3,1.3-1.3h20c0.7,0,1.3,0.6,1.3,1.3v10.1
				C126.7,108.5,126.2,109.1,125.5,109.1z M106.7,106.5h17.4V99h-17.4V106.5z"/>
		</g>
	</g>
	<g>
		<path class="st0" d="M100,172.7c-40.1,0-72.7-32.6-72.7-72.7S59.9,27.3,100,27.3s72.7,32.6,72.7,72.7S140.1,172.7,100,172.7z
			 M100,31.3c-37.9,0-68.7,30.8-68.7,68.7c0,37.9,30.8,68.7,68.7,68.7c37.9,0,68.7-30.8,68.7-68.7C168.7,62.1,137.9,31.3,100,31.3z"
			/>
	</g>
</g>
</svg>
