<?xml version="1.0" encoding="utf-8"?>
<!-- Generator: Adobe Illustrator 26.3.1, SVG Export Plug-In . SVG Version: 6.00 Build 0)  -->
<svg version="1.1" id="Layer_1" xmlns="http://www.w3.org/2000/svg" xmlns:xlink="http://www.w3.org/1999/xlink" x="0px" y="0px"
	 viewBox="0 0 200 200" style="enable-background:new 0 0 200 200;" xml:space="preserve">
<style type="text/css">
	.st0{fill:#0067FC;}
</style>
<g>
	<g>
		<g id="Group_263_00000099657673172826927510000008970316934654005400_" transform="translate(-598.5 -520.001)">
			<g id="Group_259_00000173879844898030455130000016999862137611988141_" transform="translate(549.903 487.744)">
				<g id="Ellipse_9_00000068638875572250325210000000583401346437263519_">
					<path class="st0" d="M148.6,123c-6.2,0-11.3-5.1-11.3-11.3s5.1-11.3,11.3-11.3c6.2,0,11.3,5.1,11.3,11.3S154.8,123,148.6,123z
						 M148.6,103c-4.8,0-8.8,3.9-8.8,8.8c0,4.8,3.9,8.8,8.8,8.8c4.8,0,8.8-3.9,8.8-8.8C157.4,106.9,153.4,103,148.6,103z"/>
				</g>
				<g id="Path_16_00000080166618993242406630000015896054724175783302_">
					<path class="st0" d="M164.9,142.1c-0.7,0-1.2-0.6-1.2-1.2c0-8.3-6.8-15.1-15.1-15.1c-8.3,0-15.1,6.8-15.1,15.1
						c0,0.7-0.6,1.2-1.2,1.2s-1.2-0.6-1.2-1.2c0-9.7,7.9-17.6,17.6-17.6s17.6,7.9,17.6,17.6C166.2,141.5,165.6,142.1,164.9,142.1z"
						/>
				</g>
			</g>
		</g>
	</g>
	<g>
		<g>
			<path class="st0" d="M117.1,143.3h-42c-3,0-5.5-2.5-5.5-5.5V62.2c0-3,2.5-5.5,5.5-5.5h49.8c3,0,5.5,2.5,5.5,5.5v66.3
				c0,0.3-0.1,0.6-0.3,0.8L118,142.9C117.8,143.1,117.5,143.3,117.1,143.3z M72.1,93.2v44.6c0,1.7,1.3,3,3,3h41.5l11.4-12.8V62.2
				c0-1.7-1.3-3-3-3H75.1c-1.7,0-3,1.3-3,3V93.2z"/>
		</g>
		<g>
			<path class="st0" d="M116.1,142.8c-0.7,0-1.2-0.6-1.2-1.2v-8.8c0-3,2.5-5.5,5.5-5.5h8.8c0.7,0,1.2,0.6,1.2,1.2s-0.6,1.2-1.2,1.2
				h-8.8c-1.7,0-3,1.3-3,3v8.8C117.4,142.3,116.8,142.8,116.1,142.8z"/>
		</g>
	</g>
	<g>
		<path class="st0" d="M100,172.7c-40.1,0-72.7-32.6-72.7-72.7S59.9,27.3,100,27.3s72.7,32.6,72.7,72.7S140.1,172.7,100,172.7z
			 M100,31.3c-37.9,0-68.7,30.8-68.7,68.7c0,37.9,30.8,68.7,68.7,68.7c37.9,0,68.7-30.8,68.7-68.7C168.7,62.1,137.9,31.3,100,31.3z"
			/>
	</g>
	<g>
		<path class="st0" d="M115.7,124.1H110c-1.3,0-2.5-0.7-3.1-1.7l-1.2-2H92.9l-1,1.6c-0.8,1.3-2.2,2.1-3.7,2.1H82
			c-0.7,0-1.2-0.6-1.2-1.2c0-5.6,4.6-10.2,10.2-10.2h16c5.6,0,10.2,4.6,10.2,10.2C117,123.5,116.4,124.1,115.7,124.1z M92.2,117.9
			h14.2c0.4,0,0.8,0.2,1.1,0.6l1.6,2.6c0.2,0.4,0.6,0.6,1,0.6h4.4c-0.6-3.6-3.8-6.4-7.6-6.4h-16c-3.8,0-7,2.8-7.6,6.4h4.9
			c0.7,0,1.3-0.3,1.6-0.9l1.3-2.2C91.3,118.1,91.7,117.9,92.2,117.9z"/>
	</g>
	<g>
		<path class="st0" d="M90,130.7c-0.3,0-0.6-0.1-0.9-0.3c-0.5-0.5-0.5-1.3-0.1-1.8l19.6-20.9c0.5-0.5,1.3-0.5,1.8-0.1
			c0.5,0.5,0.5,1.3,0.1,1.8l-19.6,20.9C90.6,130.5,90.3,130.7,90,130.7z"/>
	</g>
</g>
</svg>
