<?xml version="1.0" encoding="utf-8"?>
<!-- Generator: Adobe Illustrator 26.4.0, SVG Export Plug-In . SVG Version: 6.00 Build 0)  -->
<svg version="1.1" id="Layer_1" xmlns="http://www.w3.org/2000/svg" xmlns:xlink="http://www.w3.org/1999/xlink" x="0px" y="0px"
	 viewBox="0 0 200 200" style="enable-background:new 0 0 200 200;" xml:space="preserve">
<style type="text/css">
	.st0{fill:#0067FC;}
</style>
<g>
	<g>
		<path class="st0" d="M100.1,172.6c-40.1,0-72.7-32.6-72.7-72.7S60,27.2,100.1,27.2s72.7,32.6,72.7,72.7S140.2,172.6,100.1,172.6z
			 M100.1,31.2c-37.9,0-68.7,30.8-68.7,68.7c0,37.9,30.8,68.7,68.7,68.7c37.9,0,68.7-30.8,68.7-68.7C168.8,62,138,31.2,100.1,31.2z"
			/>
	</g>
	<g>
		<g id="Group_263_00000036225491276097632340000017526198186244536971_" transform="translate(-598.5 -520.001)">
			<g id="Group_259_00000070831335005242620250000004564942298939414710_" transform="translate(549.903 487.744)">
				<g id="Ellipse_9_00000178195145970496449550000011755228894817551029_">
					<path class="st0" d="M148.4,127.5c-4.4,0-8-3.6-8-8s3.6-8,8-8s8,3.6,8,8S152.8,127.5,148.4,127.5z M148.4,114
						c-3,0-5.5,2.5-5.5,5.5s2.5,5.5,5.5,5.5s5.5-2.5,5.5-5.5S151.4,114,148.4,114z"/>
				</g>
				<g id="Path_16_00000152261663688130224940000004728872845613083046_">
					<path class="st0" d="M159.4,140.4c-0.7,0-1.2-0.6-1.2-1.2c0-5.4-4.4-9.8-9.8-9.8c-5.4,0-9.8,4.4-9.8,9.8c0,0.7-0.6,1.2-1.2,1.2
						s-1.2-0.6-1.2-1.2c0-6.8,5.5-12.3,12.3-12.3s12.3,5.5,12.3,12.3C160.7,139.8,160.1,140.4,159.4,140.4z"/>
				</g>
			</g>
		</g>
	</g>
	<g>
		<path class="st0" d="M117.4,138.4H82.7c-3.3,0-5.9-2.7-5.9-5.9V67.3c0-3.3,2.7-5.9,5.9-5.9h34.7c3.3,0,5.9,2.7,5.9,5.9v65.1
			C123.3,135.7,120.7,138.4,117.4,138.4z M82.7,63.6c-2.1,0-3.7,1.7-3.7,3.7v65.1c0,2.1,1.7,3.7,3.7,3.7h34.7c2.1,0,3.7-1.7,3.7-3.7
			V67.3c0-2.1-1.7-3.7-3.7-3.7H82.7z"/>
	</g>
	<g>
		<circle class="st0" cx="100.1" cy="132.2" r="2.1"/>
	</g>
	<g>
		<path class="st0" d="M105.7,69H94.4c-0.6,0-1.2-0.5-1.2-1.2l0,0c0-0.6,0.5-1.2,1.2-1.2h11.3c0.6,0,1.2,0.5,1.2,1.2l0,0
			C106.9,68.5,106.4,69,105.7,69z"/>
	</g>
	<g>
		<g>
			<path class="st0" d="M100.1,120.2c-2.9,0-5.2-2.3-5.2-5.2c0-2.9,2.3-5.2,5.2-5.2c2.9,0,5.2,2.3,5.2,5.2
				C105.3,117.9,102.9,120.2,100.1,120.2z M100.1,111.8c-1.8,0-3.2,1.4-3.2,3.2c0,1.8,1.4,3.2,3.2,3.2c1.8,0,3.2-1.4,3.2-3.2
				C103.3,113.2,101.8,111.8,100.1,111.8z"/>
		</g>
		<g>
			<path class="st0" d="M99.3,126c-1.1,0-1.8-0.7-1.8-1.8c0-0.4-0.1-0.7-0.4-1c-0.2-0.2-0.6-0.3-0.9-0.3c-0.3,0-0.6,0.1-0.8,0.4
				c-0.8,0.8-1.8,0.8-2.6,0l-1-1c-0.8-0.8-0.8-1.8,0-2.6c0.3-0.4,0.5-0.8,0.3-1.3c-0.1-0.4-0.5-0.8-0.9-0.9c-0.1,0-0.3,0-0.4,0
				c-1,0-1.7-0.8-1.7-1.7c0-0.5,0-1,0-1.5c0-1.1,0.7-1.9,1.8-1.9c0.7,0,1.3-0.6,1.3-1.3c0-0.3-0.1-0.6-0.4-0.9
				c-0.8-0.8-0.8-1.8,0-2.6l0.3-0.3c0.3-0.3,0.5-0.5,0.8-0.8c0.2-0.2,0.4-0.3,0.6-0.4l0.1-0.1c0.2-0.1,0.4-0.2,0.7-0.1
				c0.5,0.1,0.9,0.4,1.2,0.6c0.3,0.3,0.8,0.4,1.2,0.3c0.4-0.1,0.8-0.5,0.9-0.9c0-0.1,0-0.3,0-0.4c0-1,0.8-1.7,1.7-1.7
				c0.4,0,0.7,0,1.1,0h0.4c1.1,0,1.8,0.7,1.8,1.8c0,0.4,0.1,0.7,0.4,0.9c0.2,0.2,0.6,0.4,0.9,0.4c0.3,0,0.6-0.1,0.9-0.4
				c0.8-0.8,1.8-0.8,2.6,0l1,1c0.7,0.7,0.7,1.8,0,2.5c-0.4,0.5-0.5,0.9-0.3,1.4c0.2,0.5,0.6,0.8,1.2,0.8c1,0,1.7,0.8,1.7,1.8
				c0,0.5,0,1,0,1.5c0,1-0.7,1.8-1.7,1.8c-0.6,0-1,0.3-1.2,0.8c-0.2,0.5-0.1,1,0.3,1.4c0.7,0.8,0.7,1.8,0,2.5
				c-0.3,0.4-0.7,0.7-1.1,1c-0.7,0.7-1.7,0.7-2.5,0c-0.5-0.4-0.9-0.5-1.4-0.3c-0.5,0.2-0.8,0.6-0.8,1.2c0,1-0.8,1.7-1.8,1.8H99.3z
				 M99.5,124l1.1,0c0.1-1.3,0.8-2.3,2-2.8c1.2-0.5,2.4-0.3,3.4,0.6c0.3-0.3,0.5-0.5,0.8-0.8c-0.9-1-1.1-2.2-0.6-3.4
				c0.5-1.2,1.5-1.9,2.8-2c0-0.4,0-0.7,0-1.1c-1.3-0.1-2.3-0.8-2.8-2c-0.5-1.2-0.3-2.4,0.6-3.4l-0.8-0.8c-0.6,0.5-1.3,0.8-2.1,0.8
				c-0.9,0-1.7-0.3-2.3-0.9c-0.6-0.6-1-1.3-1-2.2l-0.3,0c-0.3,0-0.6,0-0.9,0c0,0.2,0,0.4-0.1,0.6c-0.3,1.1-1.1,2-2.3,2.3
				c-1.1,0.3-2.2,0.1-3.1-0.7c-0.2,0.2-0.4,0.4-0.6,0.6l-0.2,0.2c0.5,0.6,0.8,1.3,0.8,2.1c0,1.8-1.3,3.2-3.1,3.3c0,0.4,0,0.7,0,1.1
				c0.2,0,0.4,0,0.6,0.1c1.1,0.3,2,1.1,2.3,2.3c0.3,1.1,0.1,2.2-0.7,3.1l0.8,0.8c0.6-0.5,1.3-0.8,2.1-0.8c0.9,0,1.7,0.3,2.4,0.9
				C99.1,122.4,99.5,123.2,99.5,124z M91,114.2l-1,0l0.9,0.1C91,114.3,91,114.3,91,114.2z"/>
		</g>
	</g>
</g>
</svg>
