<?xml version="1.0" encoding="utf-8"?>
<!-- Generator: Adobe Illustrator 26.3.1, SVG Export Plug-In . SVG Version: 6.00 Build 0)  -->
<svg version="1.1" id="Layer_1" xmlns="http://www.w3.org/2000/svg" xmlns:xlink="http://www.w3.org/1999/xlink" x="0px" y="0px"
	 viewBox="0 0 200 200" style="enable-background:new 0 0 200 200;" xml:space="preserve">
<style type="text/css">
	.st0{fill:#0067FC;}
</style>
<g>
	<g>
		<g>
			<path class="st0" d="M117.1,143.3h-42c-3,0-5.5-2.5-5.5-5.5V62.2c0-3,2.5-5.5,5.5-5.5h49.8c3,0,5.5,2.5,5.5,5.5v66.3
				c0,0.3-0.1,0.6-0.3,0.8L118,142.9C117.8,143.1,117.5,143.3,117.1,143.3z M72.1,93.2v44.6c0,1.7,1.3,3,3,3h41.5l11.4-12.8V62.2
				c0-1.7-1.3-3-3-3H75.1c-1.7,0-3,1.3-3,3V93.2z"/>
		</g>
		<g>
			<path class="st0" d="M116.1,142.8c-0.7,0-1.2-0.6-1.2-1.2v-8.8c0-3,2.5-5.5,5.5-5.5h8.8c0.7,0,1.2,0.6,1.2,1.2s-0.6,1.2-1.2,1.2
				h-8.8c-1.7,0-3,1.3-3,3v8.8C117.4,142.3,116.8,142.8,116.1,142.8z"/>
		</g>
	</g>
	<g>
		<path class="st0" d="M116.9,108.2H83.3c-0.7,0-1.2-0.6-1.2-1.2s0.6-1.2,1.2-1.2h33.6c0.7,0,1.2,0.6,1.2,1.2
			S117.6,108.2,116.9,108.2z"/>
	</g>
	<g>
		<path class="st0" d="M114.9,115.3H83.3c-0.7,0-1.2-0.6-1.2-1.2s0.6-1.2,1.2-1.2h31.6c0.7,0,1.2,0.6,1.2,1.2
			S115.6,115.3,114.9,115.3z"/>
	</g>
	<g>
		<path class="st0" d="M112.9,122.3H83.3c-0.7,0-1.2-0.6-1.2-1.2s0.6-1.2,1.2-1.2h29.6c0.7,0,1.2,0.6,1.2,1.2
			S113.6,122.3,112.9,122.3z"/>
	</g>
	<g>
		<path class="st0" d="M108.9,129.4H83.3c-0.7,0-1.2-0.6-1.2-1.2s0.6-1.2,1.2-1.2h25.6c0.7,0,1.2,0.6,1.2,1.2
			S109.6,129.4,108.9,129.4z"/>
	</g>
	<g>
		<path class="st0" d="M100,172.7c-40.1,0-72.7-32.6-72.7-72.7S59.9,27.3,100,27.3s72.7,32.6,72.7,72.7S140.1,172.7,100,172.7z
			 M100,31.3c-37.9,0-68.7,30.8-68.7,68.7c0,37.9,30.8,68.7,68.7,68.7c37.9,0,68.7-30.8,68.7-68.7C168.7,62.1,137.9,31.3,100,31.3z"
			/>
	</g>
	<g>
		<g id="Group_263_00000070825494838260821100000002763485604786805407_" transform="translate(-598.5 -520.001)">
			<g id="Group_259_00000017496666861593028240000005578198799384172430_" transform="translate(549.903 487.744)">
				<g id="Ellipse_9_00000131355204990054361390000007017772402328535738_">
					<path class="st0" d="M148.6,119.3c-5.3,0-9.6-4.3-9.6-9.6c0-5.3,4.3-9.6,9.6-9.6c5.3,0,9.6,4.3,9.6,9.6
						C158.2,115,153.9,119.3,148.6,119.3z M148.6,102.7c-3.9,0-7.1,3.2-7.1,7.1c0,3.9,3.2,7.1,7.1,7.1s7.1-3.2,7.1-7.1
						C155.7,105.8,152.5,102.7,148.6,102.7z"/>
				</g>
				<g id="Path_16_00000013161583779499800820000007603229530402448785_">
					<path class="st0" d="M162.2,135.1c-0.7,0-1.2-0.6-1.2-1.2c0-6.8-5.5-12.3-12.3-12.3s-12.3,5.5-12.3,12.3c0,0.7-0.6,1.2-1.2,1.2
						s-1.2-0.6-1.2-1.2c0-8.2,6.7-14.8,14.8-14.8c8.2,0,14.8,6.7,14.8,14.8C163.4,134.6,162.9,135.1,162.2,135.1z"/>
				</g>
			</g>
		</g>
	</g>
</g>
</svg>
