<?xml version="1.0" encoding="utf-8"?>
<!-- Generator: Adobe Illustrator 26.4.0, SVG Export Plug-In . SVG Version: 6.00 Build 0)  -->
<svg version="1.1" id="Layer_1" xmlns="http://www.w3.org/2000/svg" xmlns:xlink="http://www.w3.org/1999/xlink" x="0px" y="0px"
	 viewBox="0 0 200 200" style="enable-background:new 0 0 200 200;" xml:space="preserve">
<style type="text/css">
	.st0{fill:#0067FC;}
</style>
<g>
	<g>
		<g>
			<path class="st0" d="M99.9,126.1c-5.8,0-10.6-4.8-10.6-10.6s4.8-10.6,10.6-10.6c0.7,0,1.3,0.6,1.3,1.2v8.1h8.1
				c0.7,0,1.2,0.6,1.2,1.2C110.5,121.4,105.8,126.1,99.9,126.1z M98.7,107.5c-3.9,0.6-6.9,4-6.9,8c0,4.5,3.6,8.1,8.1,8.1
				c4,0,7.4-3,8-6.9h-8c-0.7,0-1.2-0.6-1.2-1.2V107.5z"/>
		</g>
		<g>
			<path class="st0" d="M102.1,103.7l0,9.4h9.4C111.5,107.9,107.3,103.7,102.1,103.7z"/>
		</g>
	</g>
	<g>
		<path class="st0" d="M117.4,138.4H82.7c-3.3,0-5.9-2.7-5.9-5.9V67.3c0-3.3,2.7-5.9,5.9-5.9h34.7c3.3,0,5.9,2.7,5.9,5.9v65.1
			C123.3,135.7,120.7,138.4,117.4,138.4z M82.7,63.6c-2.1,0-3.7,1.7-3.7,3.7v65.1c0,2.1,1.7,3.7,3.7,3.7h34.7c2.1,0,3.7-1.7,3.7-3.7
			V67.3c0-2.1-1.7-3.7-3.7-3.7H82.7z"/>
	</g>
	<g>
		<circle class="st0" cx="100.1" cy="132.2" r="2.1"/>
	</g>
	<g>
		<path class="st0" d="M105.7,69H94.4c-0.6,0-1.2-0.5-1.2-1.2l0,0c0-0.6,0.5-1.2,1.2-1.2h11.3c0.6,0,1.2,0.5,1.2,1.2l0,0
			C106.9,68.5,106.4,69,105.7,69z"/>
	</g>
	<g>
		<g>
			<g>
				<path class="st0" d="M116.5,84.8c-0.7,0-1.2-0.6-1.2-1.2v-4.2h-4.1c-0.7,0-1.2-0.6-1.2-1.2s0.6-1.2,1.2-1.2h5.4
					c0.7,0,1.2,0.6,1.2,1.2v5.5C117.8,84.3,117.2,84.8,116.5,84.8z"/>
			</g>
			<g>
				<path class="st0" d="M83.3,100.6c-0.7,0-1.2-0.6-1.2-1.2v-5.6c0-0.7,0.6-1.2,1.2-1.2s1.2,0.6,1.2,1.2v5.6
					C84.6,100,84,100.6,83.3,100.6z"/>
			</g>
			<g>
				<path class="st0" d="M91.4,100.1c-0.7,0-1.2-0.6-1.2-1.2v-2.2c0-0.7,0.6-1.2,1.2-1.2s1.2,0.6,1.2,1.2v2.2
					C92.6,99.5,92,100.1,91.4,100.1z"/>
			</g>
			<g>
				<path class="st0" d="M98.9,100.1c-0.7,0-1.2-0.6-1.2-1.2v-9.5c0-0.7,0.6-1.2,1.2-1.2s1.2,0.6,1.2,1.2v9.5
					C100.1,99.5,99.6,100.1,98.9,100.1z"/>
			</g>
			<g>
				<path class="st0" d="M107.3,100.1c-0.7,0-1.2-0.6-1.2-1.2v-7.3c0-0.7,0.6-1.2,1.2-1.2s1.2,0.6,1.2,1.2v7.3
					C108.6,99.5,108,100.1,107.3,100.1z"/>
			</g>
			<g>
				<path class="st0" d="M115.4,99.7c-0.7,0-1.2-0.6-1.2-1.2V87.6c0-0.7,0.6-1.2,1.2-1.2s1.2,0.6,1.2,1.2v10.9
					C116.6,99.2,116.1,99.7,115.4,99.7z"/>
			</g>
			<g>
				<path class="st0" d="M90.5,92.8c-0.2,0-0.4,0-0.6-0.1l-7.2-3.8c-0.6-0.3-0.8-1.1-0.5-1.7c0.3-0.6,1.1-0.8,1.7-0.5l6.4,3.3
					l7.8-7.4c0.4-0.4,0.9-0.5,1.4-0.2l7.7,3.7l7.4-7.6c0.5-0.5,1.3-0.5,1.8,0c0.5,0.5,0.5,1.3,0,1.8l-8.1,8.2
					c-0.4,0.4-1,0.5-1.4,0.3L99.1,85l-7.8,7.5C91.1,92.7,90.8,92.8,90.5,92.8z"/>
			</g>
		</g>
		<g>
			<g>
				<path class="st0" d="M116.5,84.8c-0.7,0-1.2-0.6-1.2-1.2v-4.2h-4.1c-0.7,0-1.2-0.6-1.2-1.2s0.6-1.2,1.2-1.2h5.4
					c0.7,0,1.2,0.6,1.2,1.2v5.5C117.8,84.3,117.2,84.8,116.5,84.8z"/>
			</g>
			<g>
				<path class="st0" d="M83.3,100.6c-0.7,0-1.2-0.6-1.2-1.2v-5.6c0-0.7,0.6-1.2,1.2-1.2s1.2,0.6,1.2,1.2v5.6
					C84.6,100,84,100.6,83.3,100.6z"/>
			</g>
			<g>
				<path class="st0" d="M91.4,100.1c-0.7,0-1.2-0.6-1.2-1.2v-2.2c0-0.7,0.6-1.2,1.2-1.2s1.2,0.6,1.2,1.2v2.2
					C92.6,99.5,92,100.1,91.4,100.1z"/>
			</g>
			<g>
				<path class="st0" d="M98.9,100.1c-0.7,0-1.2-0.6-1.2-1.2v-9.5c0-0.7,0.6-1.2,1.2-1.2s1.2,0.6,1.2,1.2v9.5
					C100.1,99.5,99.6,100.1,98.9,100.1z"/>
			</g>
			<g>
				<path class="st0" d="M107.3,100.1c-0.7,0-1.2-0.6-1.2-1.2v-7.3c0-0.7,0.6-1.2,1.2-1.2s1.2,0.6,1.2,1.2v7.3
					C108.6,99.5,108,100.1,107.3,100.1z"/>
			</g>
			<g>
				<path class="st0" d="M115.4,99.7c-0.7,0-1.2-0.6-1.2-1.2V87.6c0-0.7,0.6-1.2,1.2-1.2s1.2,0.6,1.2,1.2v10.9
					C116.6,99.2,116.1,99.7,115.4,99.7z"/>
			</g>
			<g>
				<path class="st0" d="M90.5,92.8c-0.2,0-0.4,0-0.6-0.1l-7.2-3.8c-0.6-0.3-0.8-1.1-0.5-1.7c0.3-0.6,1.1-0.8,1.7-0.5l6.4,3.3
					l7.8-7.4c0.4-0.4,0.9-0.5,1.4-0.2l7.7,3.7l7.4-7.6c0.5-0.5,1.3-0.5,1.8,0c0.5,0.5,0.5,1.3,0,1.8l-8.1,8.2
					c-0.4,0.4-1,0.5-1.4,0.3L99.1,85l-7.8,7.5C91.1,92.7,90.8,92.8,90.5,92.8z"/>
			</g>
		</g>
		<g>
			<g>
				<path class="st0" d="M116.5,84.8c-0.7,0-1.2-0.6-1.2-1.2v-4.2h-4.1c-0.7,0-1.2-0.6-1.2-1.2s0.6-1.2,1.2-1.2h5.4
					c0.7,0,1.2,0.6,1.2,1.2v5.5C117.8,84.3,117.2,84.8,116.5,84.8z"/>
			</g>
			<g>
				<path class="st0" d="M83.3,100.6c-0.7,0-1.2-0.6-1.2-1.2v-5.6c0-0.7,0.6-1.2,1.2-1.2s1.2,0.6,1.2,1.2v5.6
					C84.6,100,84,100.6,83.3,100.6z"/>
			</g>
			<g>
				<path class="st0" d="M91.4,100.1c-0.7,0-1.2-0.6-1.2-1.2v-2.2c0-0.7,0.6-1.2,1.2-1.2s1.2,0.6,1.2,1.2v2.2
					C92.6,99.5,92,100.1,91.4,100.1z"/>
			</g>
			<g>
				<path class="st0" d="M98.9,100.1c-0.7,0-1.2-0.6-1.2-1.2v-9.5c0-0.7,0.6-1.2,1.2-1.2s1.2,0.6,1.2,1.2v9.5
					C100.1,99.5,99.6,100.1,98.9,100.1z"/>
			</g>
			<g>
				<path class="st0" d="M107.3,100.1c-0.7,0-1.2-0.6-1.2-1.2v-7.3c0-0.7,0.6-1.2,1.2-1.2s1.2,0.6,1.2,1.2v7.3
					C108.6,99.5,108,100.1,107.3,100.1z"/>
			</g>
			<g>
				<path class="st0" d="M115.4,99.7c-0.7,0-1.2-0.6-1.2-1.2V87.6c0-0.7,0.6-1.2,1.2-1.2s1.2,0.6,1.2,1.2v10.9
					C116.6,99.2,116.1,99.7,115.4,99.7z"/>
			</g>
			<g>
				<path class="st0" d="M90.5,92.8c-0.2,0-0.4,0-0.6-0.1l-7.2-3.8c-0.6-0.3-0.8-1.1-0.5-1.7c0.3-0.6,1.1-0.8,1.7-0.5l6.4,3.3
					l7.8-7.4c0.4-0.4,0.9-0.5,1.4-0.2l7.7,3.7l7.4-7.6c0.5-0.5,1.3-0.5,1.8,0c0.5,0.5,0.5,1.3,0,1.8l-8.1,8.2
					c-0.4,0.4-1,0.5-1.4,0.3L99.1,85l-7.8,7.5C91.1,92.7,90.8,92.8,90.5,92.8z"/>
			</g>
		</g>
	</g>
	<g>
		<path class="st0" d="M100.1,172.6c-40.1,0-72.7-32.6-72.7-72.7S60,27.2,100.1,27.2s72.7,32.6,72.7,72.7S140.2,172.6,100.1,172.6z
			 M100.1,31.2c-37.9,0-68.7,30.8-68.7,68.7c0,37.9,30.8,68.7,68.7,68.7c37.9,0,68.7-30.8,68.7-68.7C168.8,62,138,31.2,100.1,31.2z"
			/>
	</g>
</g>
</svg>
