<?xml version="1.0" encoding="utf-8"?>
<!-- Generator: Adobe Illustrator 26.4.0, SVG Export Plug-In . SVG Version: 6.00 Build 0)  -->
<svg version="1.1" id="Layer_1" xmlns="http://www.w3.org/2000/svg" xmlns:xlink="http://www.w3.org/1999/xlink" x="0px" y="0px"
	 viewBox="0 0 200 200" style="enable-background:new 0 0 200 200;" xml:space="preserve">
<style type="text/css">
	.st0{fill:#0067FC;}
</style>
<g>
	<g>
		<path class="st0" d="M100,172.7c-40.1,0-72.7-32.6-72.7-72.7S59.9,27.3,100,27.3s72.7,32.6,72.7,72.7S140.1,172.7,100,172.7z
			 M100,31.3c-37.9,0-68.7,30.8-68.7,68.7c0,37.9,30.8,68.7,68.7,68.7c37.9,0,68.7-30.8,68.7-68.7C168.7,62.1,137.9,31.3,100,31.3z"
			/>
	</g>
	<g>
		<g>
			<path class="st0" d="M133.7,125.8h-24c-0.7,0-1.2-0.6-1.2-1.2v-24c0-0.7,0.6-1.2,1.2-1.2h24c0.7,0,1.2,0.6,1.2,1.2v24
				C134.9,125.2,134.4,125.8,133.7,125.8z M110.9,123.3h21.5v-21.5h-21.5V123.3z"/>
		</g>
		<g>
			<path class="st0" d="M128.4,137.8H71.6c-0.7,0-1.2-0.6-1.2-1.2v-6c0-0.7,0.6-1.2,1.2-1.2s1.2,0.6,1.2,1.2v4.8h54.3v-4.8
				c0-0.7,0.6-1.2,1.2-1.2s1.2,0.6,1.2,1.2v6C129.7,137.2,129.1,137.8,128.4,137.8z"/>
		</g>
		<g>
			<path class="st0" d="M112.9,88.7h-24c-0.7,0-1.2-0.6-1.2-1.2v-24c0-0.7,0.6-1.2,1.2-1.2h24c0.7,0,1.2,0.6,1.2,1.2v24
				C114.1,88.2,113.5,88.7,112.9,88.7z M90.1,86.2h21.5V64.7H90.1V86.2z"/>
		</g>
		<g>
			<path class="st0" d="M128.4,89.9c-0.7,0-1.2-0.6-1.2-1.2V77.9h-9.4c-0.7,0-1.2-0.6-1.2-1.2s0.6-1.2,1.2-1.2h10.6
				c0.7,0,1.2,0.6,1.2,1.2v12C129.7,89.4,129.1,89.9,128.4,89.9z"/>
		</g>
		<g>
			<path class="st0" d="M71.6,89.9c-0.7,0-1.2-0.6-1.2-1.2v-12c0-0.7,0.6-1.2,1.2-1.2h10.6c0.7,0,1.2,0.6,1.2,1.2s-0.6,1.2-1.2,1.2
				h-9.4v10.8C72.8,89.4,72.3,89.9,71.6,89.9z"/>
		</g>
		<g>
			<path class="st0" d="M90.4,125.8h-24c-0.7,0-1.2-0.6-1.2-1.2v-24c0-0.7,0.6-1.2,1.2-1.2h24c0.7,0,1.2,0.6,1.2,1.2v24
				C91.6,125.2,91.1,125.8,90.4,125.8z M67.6,123.3h21.5v-21.5H67.6V123.3z"/>
		</g>
	</g>
</g>
</svg>
