<svg xmlns="http://www.w3.org/2000/svg" xmlns:xlink="http://www.w3.org/1999/xlink" viewBox="0 0 99.26 150"><defs><style>.cls-1{fill:none;}.cls-2{clip-path:url(#clip-path);}.cls-3{fill:#0e9c56;}.cls-4{fill:#fff;}</style><clipPath id="clip-path" transform="translate(-25.37)"><rect class="cls-1" width="150" height="150"/></clipPath></defs><g id="Layer_2" data-name="Layer 2"><g id="Layer_1-2" data-name="Layer 1"><g class="cls-2"><path class="cls-3" d="M87.45,0H31.06a5.68,5.68,0,0,0-5.69,5.68V122.3A5.69,5.69,0,0,0,31.06,128h87.88a5.69,5.69,0,0,0,5.69-5.69V37.18a5.68,5.68,0,0,0-1.67-4L91.47,1.66A5.73,5.73,0,0,0,87.45,0Z" transform="translate(-25.37)"/><path class="cls-4" d="M90.8,32.8V5.63A1.13,1.13,0,0,0,89.67,4.5h0a1.13,1.13,0,0,0-1.13,1.13V35.05a1.13,1.13,0,0,0,1.13,1.13H119.1a1.12,1.12,0,0,0,1.12-1.13h0a1.13,1.13,0,0,0-1.12-1.13H91.93A1.12,1.12,0,0,1,90.8,32.8Z" transform="translate(-25.37)"/><polygon class="cls-3" points="95.14 140.44 91.64 140.44 91.64 131.85 86.91 131.85 86.91 140.44 83.42 140.44 89.28 146.3 95.14 140.44"/><polygon class="cls-3" points="91.85 144.85 89.28 147.42 86.7 144.85 79.3 144.85 79.3 150 99.25 150 99.25 144.85 91.85 144.85"/><path class="cls-4" d="M79.28,113.43l-6.2-1.05-26.63-4.62c-1.37-.24-2.73-.51-4.11-.69-.89-.11-1.12-.52-1.11-1.4,0-8.21,0-16.42,0-24.63,0-7.92,0-15.84,0-23.77,0-1,.35-1.27,1.22-1.42l35.68-6.18c.35-.06.7-.07,1.16-.11ZM53.07,91.63c1.27.09,2.41.22,3.54.2a1.27,1.27,0,0,0,.87-.68c.76-1.57,1.44-3.18,2.16-4.77l1-2.1c1,2.6,2,5,2.89,7.28.13.31.36.8.57.82,1.43.13,2.86.16,4.41.23-.21-.48-.34-.81-.48-1.13-1.44-3.18-2.87-6.37-4.34-9.53a1.94,1.94,0,0,1,0-1.8c1.42-3.22,2.79-6.47,4.18-9.71.13-.3.25-.61.42-1-1.4.09-2.62.13-3.81.27a1.2,1.2,0,0,0-.71.64c-.63,1.36-1.22,2.74-1.82,4.11l-1.42,3.21c-.23-.58-.36-.89-.48-1.21-.66-1.8-1.3-3.62-2-5.41-.11-.3-.4-.72-.62-.73-1.22-.08-2.45,0-3.87,0,1.09,2.77,1.88,5.3,3.06,7.63a6.24,6.24,0,0,1-.19,6.47C55.16,86.63,54.22,89.1,53.07,91.63Z" transform="translate(-25.37)"/><path class="cls-4" d="M90.66,60.63H81.12v-3.7c.39,0,.73-.06,1.08-.06h23.66c2,0,2.18.2,2.18,2.23v44.76c0,2-.21,2.19-2.21,2.19H81.13v-4.41h4.68c1.36,0,2.72,0,4.07,0,.27,0,.74-.36.74-.57.06-1.92,0-3.84,0-5.88H81.12V93.07c.41,0,.83-.08,1.24-.08,2.43,0,4.86,0,7.28,0,.79,0,1.06-.24,1-1-.06-1.74,0-3.49,0-5.37H81.14V84.37h9.51c0-2.05,0-4,0-5.88,0-.2-.57-.55-.88-.55-2.32,0-4.64,0-7,0-1.91,0-1.91,0-1.63-2.11h9.5c0-2.1,0-4.09,0-6.07,0-.17-.56-.45-.87-.46-2.46,0-4.92,0-7.38,0H81.12v-2.1h4.69c1.36,0,2.72,0,4.07,0,.27,0,.74-.37.74-.58C90.68,64.63,90.66,62.71,90.66,60.63Zm2.08,0c0,1.86,0,3.7,0,5.54,0,.76.24,1,1,1,3,0,6,0,9,0,.27,0,.54-.06.77-.08v-6.4Zm0,34.51c0,1.93,0,3.74,0,5.56,0,.7.22.93.92.92,2.53,0,5.06,0,7.59,0h2.25V95.18ZM103.5,69.25c-3.44,0-6.81,0-10.18,0-.19,0-.54.3-.54.47,0,2,0,4,0,6H103.5Zm0,8.66H95c-2.24,0-2.24,0-2.24,2.26v4.09h10.77ZM92.74,86.59c0,1.88,0,3.62,0,5.36,0,.81.24,1,1,1,3,0,5.92,0,8.88,0a6.74,6.74,0,0,0,.85-.1V86.59Z" transform="translate(-25.37)"/></g></g></g></svg>