<svg xmlns="http://www.w3.org/2000/svg" xmlns:xlink="http://www.w3.org/1999/xlink" viewBox="0 0 91.81 149.56"><defs><style>.cls-1{fill:none;}.cls-2{clip-path:url(#clip-path);}.cls-3{fill:#fff;}</style><clipPath id="clip-path" transform="translate(-29.1 -0.22)"><rect class="cls-1" width="150" height="150"/></clipPath></defs><g id="Layer_2" data-name="Layer 2"><g id="Layer_1-2" data-name="Layer 1"><g class="cls-2"><polygon points="87.69 140 84.2 140 84.2 131.41 79.47 131.41 79.47 140 75.97 140 81.83 145.86 87.69 140"/><polygon points="84.41 144.41 81.83 146.98 79.26 144.41 71.86 144.41 71.86 149.56 91.81 149.56 91.81 144.41 84.41 144.41"/><path d="M94.27.22a35.83,35.83,0,0,1,3.47,3c7.23,8.16,14.39,16.39,21.6,24.57a5.93,5.93,0,0,1,1.56,4.14q0,44.43,0,88.87c0,3.9-1.93,5.82-5.85,5.82H35.16c-4.17,0-6-1.86-6-6q0-57,0-114c0-3.06.95-5.26,3.93-6.35Zm-60.08,5V84.31h81.64V33h-21c-2.47,0-3.32-.86-3.32-3.35q0-11.54,0-23.08V5.23ZM62.87,99.37c.18,5.38.35,10.5.52,15.67h4.47c-.37-6.72-.74-13.34-1.11-20H60.69l-4,13.47c-1.16-4.21-2.31-8.41-3.5-12.59-.1-.36-.48-.89-.74-.9-1.84-.08-3.68,0-5.6,0l-1.27,20h4.2c.24-5.12.48-10.13.72-15.42l4,15.14h3.69ZM100,107.14c0,1.33,0,2.48,0,3.62a1.06,1.06,0,0,1-.58.75,6.54,6.54,0,0,1-7-2.67C89.52,104,92.46,98.65,98,98.56a21.22,21.22,0,0,1,3.53.47,8.88,8.88,0,0,1,1.22.32l.93-3.59A15.12,15.12,0,0,0,95.45,95c-6.1,1-9.64,5.92-8.72,12a8.7,8.7,0,0,0,6.21,7.57,18,18,0,0,0,11.34-.47V103.7H96.92v3.44Zm-29.37,7.1a13.22,13.22,0,0,0,10,.4,5.57,5.57,0,0,0,3.8-5,5.4,5.4,0,0,0-3.19-5.5c-.9-.49-1.87-.83-2.8-1.27a12.71,12.71,0,0,1-2.08-1.06,1.65,1.65,0,0,1,.34-3,3.59,3.59,0,0,1,1.67-.32c1.41.14,2.81.41,4.34.64l.93-3.4a12.07,12.07,0,0,0-7.24-.82c-3.25.6-5.15,2.54-5.47,5.35-.29,2.48,1.17,4.53,4.18,5.87,1.05.47,2.12.89,3.15,1.4s1.73,1.21,1.44,2.43a2.06,2.06,0,0,1-2.31,1.63c-1.93-.12-3.85-.43-5.93-.68Z" transform="translate(-29.1 -0.22)"/><path class="cls-3" d="M34.19,5.23H91.55V6.6q0,11.53,0,23.08c0,2.49.85,3.35,3.32,3.35h21V84.31H34.19Zm41,35.19q-10,0-20,0c-3.47,0-5.12,1.66-5.13,5.15v23.7c0,3.6,1.67,5.25,5.31,5.25H94.69c3.64,0,5.31-1.64,5.32-5.25V45.7c0-3.66-1.61-5.28-5.25-5.28Q84.95,40.4,75.14,40.42Z" transform="translate(-29.1 -0.22)"/><path class="cls-3" d="M62.87,99.37l-4.68,15.38H54.5l-4-15.14c-.24,5.29-.48,10.3-.72,15.42h-4.2l1.27-20c1.92,0,3.76,0,5.6,0,.26,0,.64.54.74.9,1.19,4.18,2.34,8.38,3.5,12.59l4-13.47h6.06c.37,6.63.74,13.25,1.11,20H63.39C63.22,109.87,63.05,104.75,62.87,99.37Z" transform="translate(-29.1 -0.22)"/><path class="cls-3" d="M100,107.14h-3V103.7h7.36v10.48a18,18,0,0,1-11.34.47,8.7,8.7,0,0,1-6.21-7.57c-.92-6.12,2.62-11,8.72-12a15.12,15.12,0,0,1,8.23.72l-.93,3.59a8.88,8.88,0,0,0-1.22-.32A21.22,21.22,0,0,0,98,98.56c-5.54.09-8.48,5.47-5.67,10.28a6.54,6.54,0,0,0,7,2.67,1.06,1.06,0,0,0,.58-.75C100,109.62,100,108.47,100,107.14Z" transform="translate(-29.1 -0.22)"/><path class="cls-3" d="M70.58,114.24l.84-3.36c2.08.25,4,.56,5.93.68a2.06,2.06,0,0,0,2.31-1.63c.29-1.22-.45-2-1.44-2.43s-2.1-.93-3.15-1.4c-3-1.34-4.47-3.39-4.18-5.87.32-2.81,2.22-4.75,5.47-5.35a12.07,12.07,0,0,1,7.24.82l-.93,3.4c-1.53-.23-2.93-.5-4.34-.64a3.59,3.59,0,0,0-1.67.32,1.65,1.65,0,0,0-.34,3,12.71,12.71,0,0,0,2.08,1.06c.93.44,1.9.78,2.8,1.27a5.4,5.4,0,0,1,3.19,5.5,5.57,5.57,0,0,1-3.8,5A13.22,13.22,0,0,1,70.58,114.24Z" transform="translate(-29.1 -0.22)"/><path d="M75.14,40.42q9.81,0,19.62,0C98.4,40.42,100,42,100,45.7V69.27c0,3.61-1.68,5.25-5.32,5.25H55.32c-3.64,0-5.3-1.65-5.31-5.25V45.57c0-3.49,1.66-5.15,5.13-5.15Q65.15,40.4,75.14,40.42Zm-21,3.68c.33.29.47.43.63.55Q64.4,51.28,74,57.94a1.21,1.21,0,0,0,1.63-.09q9.65-6.52,19.31-13c.26-.17.48-.38.9-.72ZM95.87,70.82c-.6-.43-.92-.68-1.26-.9-4.56-3.08-9.17-6.11-13.67-9.28-1.18-.82-2-.87-3.07,0s-2.05,1.87-3.08,1.87-2.1-1.13-3.09-1.85a1.26,1.26,0,0,0-1.72,0c-4.64,3.19-9.32,6.33-14,9.49-.24.16-.43.38-.78.68ZM67.62,57.9,53.7,48.32v19Zm28.74-9.65-13.7,9.23,13.7,9.25Z" transform="translate(-29.1 -0.22)"/><path class="cls-3" d="M54.12,44.1H95.87c-.42.34-.64.55-.9.72q-9.66,6.52-19.31,13a1.21,1.21,0,0,1-1.63.09q-9.61-6.67-19.28-13.29C54.59,44.53,54.45,44.39,54.12,44.1Z" transform="translate(-29.1 -0.22)"/><path class="cls-3" d="M95.87,70.82H55.22c.35-.3.54-.52.78-.68,4.66-3.16,9.34-6.3,14-9.49a1.26,1.26,0,0,1,1.72,0c1,.72,2.06,1.86,3.09,1.85s2.14-1.09,3.08-1.87,1.89-.85,3.07,0c4.5,3.17,9.11,6.2,13.67,9.28C95,70.14,95.27,70.39,95.87,70.82Z" transform="translate(-29.1 -0.22)"/><path class="cls-3" d="M67.62,57.9,53.7,67.34v-19Z" transform="translate(-29.1 -0.22)"/><path class="cls-3" d="M96.36,48.25V66.73l-13.7-9.25Z" transform="translate(-29.1 -0.22)"/></g></g></g></svg>