<?xml version="1.0" encoding="utf-8"?>
<!-- Generator: Adobe Illustrator 26.3.1, SVG Export Plug-In . SVG Version: 6.00 Build 0)  -->
<svg version="1.1" id="Layer_1" xmlns="http://www.w3.org/2000/svg" xmlns:xlink="http://www.w3.org/1999/xlink" x="0px" y="0px"
	 viewBox="0 0 200 200" style="enable-background:new 0 0 200 200;" xml:space="preserve">
<style type="text/css">
	.st0{fill:#0067FC;}
</style>
<g>
	<g>
		<g>
			<path class="st0" d="M71.7,135.7c-0.4,0-0.8-0.2-1-0.5c-0.7-0.9-16.5-21.7-16.5-31c0-9.7,7.9-17.5,17.5-17.5s17.5,7.9,17.5,17.5
				c0,9.3-15.8,30.1-16.5,31C72.4,135.5,72.1,135.7,71.7,135.7z M71.7,89.2c-8.3,0-15,6.7-15,15c0,7.2,11.5,23.4,15,28.1
				c3.5-4.7,15-20.9,15-28.1C86.7,96,79.9,89.2,71.7,89.2z"/>
		</g>
		<g>
			<path class="st0" d="M71.7,111.4c-4.6,0-8.3-3.7-8.3-8.3s3.7-8.3,8.3-8.3s8.3,3.7,8.3,8.3S76.2,111.4,71.7,111.4z M71.7,97.3
				c-3.2,0-5.8,2.6-5.8,5.8c0,3.2,2.6,5.8,5.8,5.8s5.8-2.6,5.8-5.8C77.5,99.9,74.9,97.3,71.7,97.3z"/>
		</g>
	</g>
	<g>
		<g>
			<path class="st0" d="M130.6,95.5c-0.4,0-0.8-0.2-1-0.5c-1-1.3-9.9-13.1-9.9-18.7c0-6,4.9-10.9,10.9-10.9s10.9,4.9,10.9,10.9
				c0,5.6-8.9,17.4-9.9,18.7C131.4,95.3,131,95.5,130.6,95.5z M130.6,67.9c-4.6,0-8.4,3.8-8.4,8.4c0,3.6,5.4,11.7,8.4,15.9
				c3-4.1,8.4-12.3,8.4-15.9C139,71.7,135.3,67.9,130.6,67.9z"/>
		</g>
		<g>
			<path class="st0" d="M130.6,81.1c-3,0-5.4-2.4-5.4-5.4s2.4-5.4,5.4-5.4s5.4,2.4,5.4,5.4S133.6,81.1,130.6,81.1z M130.6,72.7
				c-1.6,0-2.9,1.3-2.9,2.9s1.3,2.9,2.9,2.9s2.9-1.3,2.9-2.9S132.2,72.7,130.6,72.7z"/>
		</g>
	</g>
	<g>
		<g id="Group_263_00000167358024092765415050000006699433489865080489_" transform="translate(-598.5 -520.001)">
			<g id="Group_259_00000163760050456908295840000016109725202784524682_" transform="translate(549.903 487.744)">
				<g id="Ellipse_9_00000097460345327073011090000004760187438447456942_">
					<path class="st0" d="M165.9,157.5c-5.2,0-9.4-4.2-9.4-9.4s4.2-9.4,9.4-9.4s9.4,4.2,9.4,9.4S171.1,157.5,165.9,157.5z
						 M165.9,141.1c-3.8,0-6.9,3.1-6.9,6.9s3.1,6.9,6.9,6.9s6.9-3.1,6.9-6.9S169.7,141.1,165.9,141.1z"/>
				</g>
				<g id="Path_16_00000050634239141231938310000002138114030636784789_">
					<path class="st0" d="M179.2,173c-0.7,0-1.2-0.6-1.2-1.2c0-6.7-5.4-12.1-12.1-12.1s-12.1,5.4-12.1,12.1c0,0.7-0.6,1.2-1.2,1.2
						s-1.2-0.6-1.2-1.2c0-8,6.5-14.6,14.6-14.6s14.6,6.5,14.6,14.6C180.5,172.4,179.9,173,179.2,173z"/>
				</g>
			</g>
		</g>
	</g>
	<g>
		<g id="Group_263_00000017499569678775352250000016425581460047137709_" transform="translate(-598.5 -520.001)">
			<g id="Group_259_00000182526301768218159100000004254576814167352213_" transform="translate(549.903 487.744)">
				<g id="Ellipse_9_00000170269110303489746490000009312239381543080127_">
					<path class="st0" d="M147.4,101.8c-5.2,0-9.4-4.2-9.4-9.4c0-5.2,4.2-9.4,9.4-9.4s9.4,4.2,9.4,9.4
						C156.9,97.5,152.6,101.8,147.4,101.8z M147.4,85.4c-3.8,0-6.9,3.1-6.9,6.9s3.1,6.9,6.9,6.9s6.9-3.1,6.9-6.9
						S151.3,85.4,147.4,85.4z"/>
				</g>
				<g id="Path_16_00000085211568541963032850000015089089501939787410_">
					<path class="st0" d="M160.8,117.3c-0.7,0-1.2-0.6-1.2-1.2c0-6.7-5.4-12.1-12.1-12.1c-6.7,0-12.1,5.4-12.1,12.1
						c0,0.7-0.6,1.2-1.2,1.2s-1.2-0.6-1.2-1.2c0-8,6.5-14.6,14.6-14.6S162,108,162,116C162,116.7,161.5,117.3,160.8,117.3z"/>
				</g>
			</g>
		</g>
	</g>
	<g>
		<path class="st0" d="M100,172.7c-40.1,0-72.7-32.6-72.7-72.7S59.9,27.3,100,27.3s72.7,32.6,72.7,72.7S140.1,172.7,100,172.7z
			 M100,31.3c-37.9,0-68.7,30.8-68.7,68.7c0,37.9,30.8,68.7,68.7,68.7c37.9,0,68.7-30.8,68.7-68.7C168.7,62.1,137.9,31.3,100,31.3z"
			/>
	</g>
	<g>
		<path class="st0" d="M72.6,139.3c-0.7,0-1.2-0.5-1.2-1.2c0-0.7,0.5-1.3,1.2-1.3c9.4-0.5,16.8-9.6,20.2-17.3
			c5-11.2,8.5-14.9,11.3-17.1c12.8-10,26.4-5.6,27-5.4c0.7,0.2,1,0.9,0.8,1.6c-0.2,0.7-0.9,1-1.6,0.8c-0.2-0.1-13-4.1-24.7,5
			c-1.7,1.3-5.2,4-10.6,16.1C91.3,128.8,83.2,138.7,72.6,139.3C72.6,139.3,72.6,139.3,72.6,139.3z"/>
	</g>
</g>
</svg>
