<?xml version="1.0" encoding="utf-8"?>
<!-- Generator: Adobe Illustrator 26.3.1, SVG Export Plug-In . SVG Version: 6.00 Build 0)  -->
<svg version="1.1" id="Layer_1" xmlns="http://www.w3.org/2000/svg" xmlns:xlink="http://www.w3.org/1999/xlink" x="0px" y="0px"
	 viewBox="0 0 200 200" style="enable-background:new 0 0 200 200;" xml:space="preserve">
<style type="text/css">
	.st0{fill:#0067FC;}
</style>
<g>
	<g>
		<g>
			<path class="st0" d="M82.4,141.7c-12.2,0-22.1-9.9-22.1-22.1s9.9-22.1,22.1-22.1c12.2,0,22.1,9.9,22.1,22.1
				S94.6,141.7,82.4,141.7z M82.4,101.7c-9.9,0-17.9,8-17.9,17.9c0,9.9,8,17.9,17.9,17.9s17.9-8,17.9-17.9
				C100.4,109.7,92.3,101.7,82.4,101.7z"/>
		</g>
	</g>
	<g>
		<path class="st0" d="M119.3,71.6c-1,0-1.9-0.8-1.9-1.9V59.1c0-1,0.8-1.9,1.9-1.9s1.9,0.8,1.9,1.9v10.6
			C121.2,70.8,120.4,71.6,119.3,71.6z"/>
	</g>
	<g>
		<path class="st0" d="M75.1,71.6c-1,0-1.9-0.8-1.9-1.9V59.1c0-1,0.8-1.9,1.9-1.9S77,58,77,59.1v10.6C77,70.8,76.1,71.6,75.1,71.6z"
			/>
	</g>
	<g>
		<path class="st0" d="M134.5,133.7H100c-1,0-1.9-0.8-1.9-1.9s0.8-1.9,1.9-1.9h32.6V71.6h-67v40.1c0,1-0.8,1.9-1.9,1.9
			s-1.9-0.8-1.9-1.9v-42c0-1,0.8-1.9,1.9-1.9h70.7c1,0,1.9,0.8,1.9,1.9v62.1C136.4,132.8,135.5,133.7,134.5,133.7z"/>
	</g>
	<g>
		
			<rect x="115.9" y="81" transform="matrix(-1 -4.504143e-11 4.504143e-11 -1 241.3167 171.5035)" class="st0" width="9.6" height="9.6"/>
	</g>
	<g>
		
			<rect x="102.7" y="81" transform="matrix(-1 -4.485136e-11 4.485136e-11 -1 215.0061 171.5035)" class="st0" width="9.6" height="9.6"/>
	</g>
	<g>
		
			<rect x="89.9" y="81" transform="matrix(-1 -4.504143e-11 4.504143e-11 -1 189.3488 171.5035)" class="st0" width="9.6" height="9.6"/>
	</g>
	<g>
		
			<rect x="76.7" y="81" transform="matrix(-1 -4.485136e-11 4.485136e-11 -1 163.0382 171.5035)" class="st0" width="9.6" height="9.6"/>
	</g>
	<g>
		
			<rect x="115.9" y="96" transform="matrix(-1 -4.390100e-11 4.390100e-11 -1 241.3167 201.5293)" class="st0" width="9.6" height="9.6"/>
	</g>
	<g>
		
			<rect x="102.7" y="96" transform="matrix(-1 -4.485136e-11 4.485136e-11 -1 215.0061 201.5293)" class="st0" width="9.6" height="9.6"/>
	</g>
	<g>
		
			<rect x="115.9" y="109.3" transform="matrix(-1 -4.485136e-11 4.485136e-11 -1 241.3167 228.1047)" class="st0" width="9.6" height="9.6"/>
	</g>
	<g>
		<g id="Group_263_00000017507480818452395730000016227353218760853124_" transform="translate(-598.5 -520.001)">
			<g id="Group_259_00000013897885962097512550000017615258856393930637_" transform="translate(549.903 487.744)">
				<g id="Ellipse_9_00000111912285048942399770000009676328348656477595_">
					<path class="st0" d="M131,151.4c-3.7,0-6.6-3-6.6-6.6s3-6.6,6.6-6.6s6.6,3,6.6,6.6S134.7,151.4,131,151.4z M131,140.6
						c-2.3,0-4.1,1.9-4.1,4.1c0,2.3,1.9,4.1,4.1,4.1s4.1-1.9,4.1-4.1C135.2,142.4,133.3,140.6,131,140.6z"/>
				</g>
				<g id="Path_16_00000122705204009456160780000006375747514939984769_">
					<path class="st0" d="M139.8,161.6c-0.7,0-1.2-0.6-1.2-1.2c0-4.2-3.4-7.5-7.5-7.5s-7.5,3.4-7.5,7.5c0,0.7-0.6,1.2-1.2,1.2
						s-1.2-0.6-1.2-1.2c0-5.5,4.5-10,10-10s10,4.5,10,10C141.1,161,140.5,161.6,139.8,161.6z"/>
				</g>
			</g>
		</g>
	</g>
	<g>
		<path class="st0" d="M100,172.7c-40.1,0-72.7-32.6-72.7-72.7S59.9,27.3,100,27.3s72.7,32.6,72.7,72.7S140.1,172.7,100,172.7z
			 M100,31.3c-37.9,0-68.7,30.8-68.7,68.7c0,37.9,30.8,68.7,68.7,68.7c37.9,0,68.7-30.8,68.7-68.7C168.7,62.1,137.9,31.3,100,31.3z"
			/>
	</g>
</g>
</svg>
