<?xml version="1.0" encoding="utf-8"?>
<!-- Generator: Adobe Illustrator 26.3.1, SVG Export Plug-In . SVG Version: 6.00 Build 0)  -->
<svg version="1.1" id="Layer_1" xmlns="http://www.w3.org/2000/svg" xmlns:xlink="http://www.w3.org/1999/xlink" x="0px" y="0px"
	 viewBox="0 0 200 200" style="enable-background:new 0 0 200 200;" xml:space="preserve">
<style type="text/css">
	.st0{fill:#0067FC;}
</style>
<g>
	<g>
		<g id="Group_263_00000014599192755994263740000012889885297683869874_" transform="translate(-598.5 -520.001)">
			<g id="Group_259_00000164488468555587024540000015163296794018497939_" transform="translate(549.903 487.744)">
				<g id="Ellipse_9_00000065041439234444950460000009334931998892295318_">
					<path class="st0" d="M169.3,152c-4.1,0-7.5-3.4-7.5-7.5c0-4.1,3.4-7.5,7.5-7.5c4.1,0,7.5,3.4,7.5,7.5
						C176.8,148.7,173.5,152,169.3,152z M169.3,139.5c-2.8,0-5,2.2-5,5c0,2.8,2.2,5,5,5c2.8,0,5-2.2,5-5
						C174.3,141.8,172.1,139.5,169.3,139.5z"/>
				</g>
				<g id="Path_16_00000031177918808883577340000013633157108962477500_">
					<path class="st0" d="M179.5,163.9c-0.7,0-1.2-0.6-1.2-1.2c0-4.9-4-8.9-8.9-8.9s-8.9,4-8.9,8.9c0,0.7-0.6,1.2-1.2,1.2
						s-1.2-0.6-1.2-1.2c0-6.3,5.1-11.4,11.4-11.4s11.4,5.1,11.4,11.4C180.7,163.3,180.2,163.9,179.5,163.9z"/>
				</g>
			</g>
		</g>
	</g>
	<g>
		<g>
			<g>
				<path class="st0" d="M119.8,141.6c-12,0-21.8-9.8-21.8-21.8c0-12,9.8-21.8,21.8-21.8c12,0,21.8,9.8,21.8,21.8
					C141.6,131.8,131.8,141.6,119.8,141.6z M119.8,100.5c-10.7,0-19.3,8.7-19.3,19.3s8.7,19.3,19.3,19.3s19.3-8.7,19.3-19.3
					S130.5,100.5,119.8,100.5z"/>
			</g>
		</g>
		<g>
			<path class="st0" d="M81.7,73.7c-0.7,0-1.2-0.6-1.2-1.2V61.8c0-0.7,0.6-1.2,1.2-1.2s1.2,0.6,1.2,1.2v10.6
				C82.9,73.1,82.4,73.7,81.7,73.7z"/>
		</g>
		<g>
			<path class="st0" d="M125.9,73.7c-0.7,0-1.2-0.6-1.2-1.2V61.8c0-0.7,0.6-1.2,1.2-1.2s1.2,0.6,1.2,1.2v10.6
				C127.1,73.1,126.6,73.7,125.9,73.7z"/>
		</g>
		<g>
			<path class="st0" d="M105.4,135.7H66.5c-0.7,0-1.2-0.6-1.2-1.2V72.4c0-0.7,0.6-1.2,1.2-1.2h70.7c0.7,0,1.2,0.6,1.2,1.2v35.8
				c0,0.7-0.6,1.2-1.2,1.2s-1.2-0.6-1.2-1.2V73.7H67.8v59.6h37.7c0.7,0,1.2,0.6,1.2,1.2S106.1,135.7,105.4,135.7z"/>
		</g>
		<g>
			<rect x="75.5" y="83.7" class="st0" width="9.6" height="9.6"/>
		</g>
		<g>
			<rect x="88.7" y="83.7" class="st0" width="9.6" height="9.6"/>
		</g>
		<g>
			<path class="st0" d="M111.6,93.7H101V83.2h10.6V93.7z M102,92.7h8.6v-8.6H102V92.7z"/>
		</g>
		<g>
			<rect x="114.7" y="83.7" class="st0" width="9.6" height="9.6"/>
		</g>
		<g>
			<path class="st0" d="M85.6,108.7H75V98.2h10.6V108.7z M76,107.7h8.6v-8.6H76V107.7z"/>
		</g>
		<g>
			<rect x="88.7" y="98.7" class="st0" width="9.6" height="9.6"/>
		</g>
		<g>
			<rect x="75.5" y="112" class="st0" width="9.6" height="9.6"/>
		</g>
	</g>
	<g>
		<path class="st0" d="M100,172.7c-40.1,0-72.7-32.6-72.7-72.7S59.9,27.3,100,27.3s72.7,32.6,72.7,72.7S140.1,172.7,100,172.7z
			 M100,31.3c-37.9,0-68.7,30.8-68.7,68.7c0,37.9,30.8,68.7,68.7,68.7c37.9,0,68.7-30.8,68.7-68.7C168.7,62.1,137.9,31.3,100,31.3z"
			/>
	</g>
</g>
</svg>
