<?xml version="1.0" encoding="utf-8"?>
<!-- Generator: Adobe Illustrator 26.3.1, SVG Export Plug-In . SVG Version: 6.00 Build 0)  -->
<svg version="1.1" id="Layer_1" xmlns="http://www.w3.org/2000/svg" xmlns:xlink="http://www.w3.org/1999/xlink" x="0px" y="0px"
	 viewBox="0 0 200 200" style="enable-background:new 0 0 200 200;" xml:space="preserve">
<style type="text/css">
	.st0{fill:#0067FC;}
	.st1{fill:none;stroke:#0067FC;stroke-width:2.5;stroke-linecap:round;stroke-linejoin:round;stroke-miterlimit:10;}
</style>
<g>
	<g>
		<path class="st0" d="M106.8,140.5c-0.3,0-0.6-0.1-0.9-0.4c-0.5-0.5-0.5-1.3,0-1.8l7.9-7.9L69.6,86.1L61.7,94
			c-0.5,0.5-1.3,0.5-1.8,0s-0.5-1.3,0-1.8l8.8-8.8c0.5-0.5,1.3-0.5,1.8,0l46.1,46.1c0.5,0.5,0.5,1.3,0,1.8l-8.8,8.8
			C107.5,140.3,107.2,140.5,106.8,140.5z"/>
	</g>
	<g>
		<path class="st1" d="M80.9,123.2"/>
	</g>
	<g>
		<path class="st0" d="M67.6,133.6c-0.3,0-0.6-0.1-0.9-0.4c-0.5-0.5-0.5-1.3,0-1.8l16-16c0.5-0.5,1.3-0.5,1.8,0s0.5,1.3,0,1.8
			l-16,16C68.2,133.5,67.9,133.6,67.6,133.6z"/>
	</g>
	<g>
		<path class="st0" d="M85.8,131.3c-0.7,0-1.2-0.6-1.2-1.2v-14.9H70c-0.7,0-1.2-0.6-1.2-1.2s0.6-1.2,1.2-1.2h15.8
			c0.7,0,1.2,0.6,1.2,1.2V130C87.1,130.7,86.5,131.3,85.8,131.3z"/>
	</g>
	<g>
		<path class="st0" d="M129,118.3c-0.3,0-0.6-0.1-0.9-0.4L82,71.9c-0.2-0.2-0.4-0.6-0.4-0.9s0.1-0.6,0.4-0.9l8.8-8.8
			c0.5-0.5,1.3-0.5,1.8,0s0.5,1.3,0,1.8L84.7,71l44.3,44.3l7.9-7.9c0.5-0.5,1.3-0.5,1.8,0s0.5,1.3,0,1.8l-8.8,8.8
			C129.6,118.2,129.3,118.3,129,118.3z"/>
	</g>
	<g>
		<path class="st1" d="M117.6,78.2"/>
	</g>
	<g>
		<path class="st0" d="M115,86.4c-0.3,0-0.6-0.1-0.9-0.4c-0.5-0.5-0.5-1.3,0-1.8l16-16c0.5-0.5,1.3-0.5,1.8,0s0.5,1.3,0,1.8l-16,16
			C115.6,86.2,115.3,86.4,115,86.4z"/>
	</g>
	<g>
		<path class="st0" d="M128.5,88.8h-15.8c-0.7,0-1.2-0.6-1.2-1.2V71.4c0-0.7,0.6-1.2,1.2-1.2s1.2,0.6,1.2,1.2v14.9h14.5
			c0.7,0,1.2,0.6,1.2,1.2S129.2,88.8,128.5,88.8z"/>
	</g>
	<g>
		<path class="st0" d="M100,172.7c-40.1,0-72.7-32.6-72.7-72.7S59.9,27.3,100,27.3s72.7,32.6,72.7,72.7S140.1,172.7,100,172.7z
			 M100,31.3c-37.9,0-68.7,30.8-68.7,68.7c0,37.9,30.8,68.7,68.7,68.7c37.9,0,68.7-30.8,68.7-68.7C168.7,62.1,137.9,31.3,100,31.3z"
			/>
	</g>
</g>
</svg>
