<?xml version="1.0" encoding="utf-8"?>
<!-- Generator: Adobe Illustrator 26.3.1, SVG Export Plug-In . SVG Version: 6.00 Build 0)  -->
<svg version="1.1" id="Layer_1" xmlns="http://www.w3.org/2000/svg" xmlns:xlink="http://www.w3.org/1999/xlink" x="0px" y="0px"
	 viewBox="0 0 200 200" style="enable-background:new 0 0 200 200;" xml:space="preserve">
<style type="text/css">
	.st0{fill:#0067FC;}
</style>
<g>
	<g>
		<path class="st0" d="M113.2,119h-30c-0.7,0-1.2-0.6-1.2-1.2s0.6-1.2,1.2-1.2h30c0.7,0,1.2,0.6,1.2,1.2S113.9,119,113.2,119z"/>
	</g>
	<g>
		<path class="st0" d="M111.4,124.7H83.2c-0.7,0-1.2-0.6-1.2-1.2s0.6-1.2,1.2-1.2h28.2c0.7,0,1.2,0.6,1.2,1.2
			S112.1,124.7,111.4,124.7z"/>
	</g>
	<g>
		<path class="st0" d="M109.6,130.5H83.2c-0.7,0-1.2-0.6-1.2-1.2s0.6-1.2,1.2-1.2h26.4c0.7,0,1.2,0.6,1.2,1.2
			S110.3,130.5,109.6,130.5z"/>
	</g>
	<g>
		<g>
			<g>
				<path class="st0" d="M118.3,144h-42c-3,0-5.5-2.5-5.5-5.5V90.8c0-0.7,0.6-1.2,1.2-1.2s1.2,0.6,1.2,1.2v47.7c0,1.7,1.3,3,3,3
					h41.5l11.4-12.8v-7c0-0.7,0.6-1.2,1.2-1.2s1.2,0.6,1.2,1.2v7.5c0,0.3-0.1,0.6-0.3,0.8l-12.1,13.5C119,143.8,118.7,144,118.3,144
					z"/>
			</g>
			<g>
				<path class="st0" d="M72,95.2c-0.7,0-1.2-0.6-1.2-1.2V63c0-3,2.5-5.5,5.5-5.5h49.8c3,0,5.5,2.5,5.5,5.5v22.6
					c0,0.7-0.6,1.2-1.2,1.2s-1.2-0.6-1.2-1.2V63c0-1.7-1.3-3-3-3H76.3c-1.7,0-3,1.3-3,3v31C73.3,94.6,72.7,95.2,72,95.2z"/>
			</g>
			<g>
				<path class="st0" d="M117.3,143.5c-0.7,0-1.2-0.6-1.2-1.2v-8.8c0-3,2.5-5.5,5.5-5.5h8.8c0.7,0,1.2,0.6,1.2,1.2s-0.6,1.2-1.2,1.2
					h-8.8c-1.7,0-3,1.3-3,3v8.8C118.6,143,118,143.5,117.3,143.5z"/>
			</g>
			<g>
				<path class="st0" d="M130.4,122.3c-10,0-18.2-8.2-18.2-18.2c0-10,8.2-18.2,18.2-18.2s18.2,8.2,18.2,18.2
					C148.6,114.2,140.4,122.3,130.4,122.3z M130.4,88.3c-8.7,0-15.9,7.1-15.9,15.9s7.1,15.9,15.9,15.9s15.9-7.1,15.9-15.9
					S139.1,88.3,130.4,88.3z"/>
			</g>
		</g>
		<g>
			<path class="st0" d="M128.6,109.8C128.5,109.8,128.5,109.8,128.6,109.8c-0.4,0-0.7-0.2-0.9-0.4l-3.2-3.7
				c-0.4-0.5-0.4-1.2,0.1-1.7c0.5-0.4,1.2-0.4,1.7,0.1l2.4,2.8l8.8-8.1c0.5-0.4,1.2-0.4,1.7,0.1c0.4,0.5,0.4,1.2-0.1,1.7l-9.7,8.9
				C129.1,109.7,128.9,109.8,128.6,109.8z"/>
		</g>
	</g>
	<g>
		<path class="st0" d="M100,172.7c-40.1,0-72.7-32.6-72.7-72.7S59.9,27.3,100,27.3s72.7,32.6,72.7,72.7S140.1,172.7,100,172.7z
			 M100,31.3c-37.9,0-68.7,30.8-68.7,68.7c0,37.9,30.8,68.7,68.7,68.7c37.9,0,68.7-30.8,68.7-68.7C168.7,62.1,137.9,31.3,100,31.3z"
			/>
	</g>
	<g>
		<path class="st0" d="M109,113.3H83.5c-0.7,0-1.2-0.6-1.2-1.2V71.5c0-0.7,0.6-1.2,1.2-1.2H109c0.7,0,1.2,0.6,1.2,1.2V112
			C110.2,112.7,109.7,113.3,109,113.3z M84.7,110.8h23V72.7h-23V110.8z"/>
	</g>
	<g>
		<path class="st0" d="M98.2,93H87.5c-0.7,0-1.2-0.6-1.2-1.2V77.5c0-0.7,0.6-1.2,1.2-1.2h10.7c0.7,0,1.2,0.6,1.2,1.2v14.2
			C99.5,92.4,98.9,93,98.2,93z M88.8,90.5H97V78.8h-8.2V90.5z"/>
	</g>
	<g>
		<path class="st0" d="M102.4,100.2H88.3c-0.7,0-1.2-0.6-1.2-1.2s0.6-1.2,1.2-1.2h14.1c0.7,0,1.2,0.6,1.2,1.2
			S103.1,100.2,102.4,100.2z"/>
	</g>
	<g>
		<path class="st0" d="M101.2,105.4h-12c-0.7,0-1.2-0.6-1.2-1.2s0.6-1.2,1.2-1.2h12c0.7,0,1.2,0.6,1.2,1.2S101.9,105.4,101.2,105.4z
			"/>
	</g>
</g>
</svg>
