<?xml version="1.0" encoding="utf-8"?>
<!-- Generator: Adobe Illustrator 26.3.1, SVG Export Plug-In . SVG Version: 6.00 Build 0)  -->
<svg version="1.1" id="Layer_1" xmlns="http://www.w3.org/2000/svg" xmlns:xlink="http://www.w3.org/1999/xlink" x="0px" y="0px"
	 viewBox="0 0 200 200" style="enable-background:new 0 0 200 200;" xml:space="preserve">
<style type="text/css">
	.st0{fill:#0067FC;}
</style>
<g>
	<g>
		<g>
			<path class="st0" d="M117.2,142.9h-42c-3,0-5.5-2.5-5.5-5.5V61.9c0-3,2.5-5.5,5.5-5.5H125c3,0,5.5,2.5,5.5,5.5v66.3
				c0,0.3-0.1,0.6-0.3,0.8l-12.1,13.5C117.9,142.8,117.5,142.9,117.2,142.9z M72.1,92.8v44.6c0,1.7,1.3,3,3,3h41.5l11.4-12.8V61.9
				c0-1.7-1.3-3-3-3H75.1c-1.7,0-3,1.3-3,3V92.8z"/>
		</g>
		<g>
			<path class="st0" d="M116.2,142.5c-0.7,0-1.2-0.6-1.2-1.2v-8.8c0-3,2.5-5.5,5.5-5.5h8.8c0.7,0,1.2,0.6,1.2,1.2s-0.6,1.2-1.2,1.2
				h-8.8c-1.7,0-3,1.3-3,3v8.8C117.4,141.9,116.9,142.5,116.2,142.5z"/>
		</g>
	</g>
	<g>
		<g>
			<path class="st0" d="M117.7,115.6h-27c-0.7,0-1.2-0.6-1.2-1.2s0.6-1.2,1.2-1.2h27c0.7,0,1.2,0.6,1.2,1.2S118.4,115.6,117.7,115.6
				z"/>
		</g>
		<g>
			<path class="st0" d="M117.7,122.7h-27c-0.7,0-1.2-0.6-1.2-1.2s0.6-1.2,1.2-1.2h27c0.7,0,1.2,0.6,1.2,1.2S118.4,122.7,117.7,122.7
				z"/>
		</g>
		<g>
			<path class="st0" d="M107.7,129.7h-17c-0.7,0-1.2-0.6-1.2-1.2s0.6-1.2,1.2-1.2h17c0.7,0,1.2,0.6,1.2,1.2S108.4,129.7,107.7,129.7
				z"/>
		</g>
		<g>
			<path class="st0" d="M83.8,117c-0.3,0-0.6-0.1-0.9-0.4l-1.4-1.4c-0.5-0.5-0.5-1.3,0-1.8s1.3-0.5,1.8,0l0.5,0.5l1.9-1.9
				c0.5-0.5,1.3-0.5,1.8,0s0.5,1.3,0,1.8l-2.8,2.8C84.4,116.9,84.1,117,83.8,117z"/>
		</g>
		<g>
			<path class="st0" d="M83.8,124.1c-0.3,0-0.6-0.1-0.9-0.4l-1.4-1.4c-0.5-0.5-0.5-1.3,0-1.8s1.3-0.5,1.8,0l0.5,0.5l1.9-1.9
				c0.5-0.5,1.3-0.5,1.8,0s0.5,1.3,0,1.8l-2.8,2.8C84.4,123.9,84.1,124.1,83.8,124.1z"/>
		</g>
		<g>
			<path class="st0" d="M83.8,130.5c-0.3,0-0.6-0.1-0.9-0.4l-1.4-1.4c-0.5-0.5-0.5-1.3,0-1.8c0.5-0.5,1.3-0.5,1.8,0l0.5,0.5l1.9-1.9
				c0.5-0.5,1.3-0.5,1.8,0s0.5,1.3,0,1.8l-2.8,2.8C84.4,130.4,84.1,130.5,83.8,130.5z"/>
		</g>
	</g>
	<g>
		<path class="st0" d="M100.1,172.4c-40.1,0-72.7-32.6-72.7-72.7c0-40.1,32.6-72.7,72.7-72.7s72.7,32.6,72.7,72.7
			C172.8,139.7,140.2,172.4,100.1,172.4z M100.1,30.9c-37.9,0-68.7,30.8-68.7,68.7s30.8,68.7,68.7,68.7c37.9,0,68.7-30.8,68.7-68.7
			S138,30.9,100.1,30.9z"/>
	</g>
	<g>
		<g id="Group_263_00000028301015094419804020000004991881462233905291_" transform="translate(-598.5 -520.001)">
			<g id="Group_259_00000142887135858047058520000017915339974055488426_" transform="translate(549.903 487.744)">
				<g id="Ellipse_9_00000098220946600726699120000015547670193844484274_">
					<path class="st0" d="M148.7,116.8c-3.5,0-6.3-2.8-6.3-6.3s2.8-6.3,6.3-6.3s6.3,2.8,6.3,6.3S152.1,116.8,148.7,116.8z
						 M148.7,106.6c-2.1,0-3.8,1.7-3.8,3.8s1.7,3.8,3.8,3.8c2.1,0,3.8-1.7,3.8-3.8S150.8,106.6,148.7,106.6z"/>
				</g>
				<g id="Path_16_00000183247262929596557240000011410405020171711891_">
					<path class="st0" d="M156.9,126.4c-0.7,0-1.2-0.6-1.2-1.2c0-3.9-3.1-7-7-7s-7,3.1-7,7c0,0.7-0.6,1.2-1.2,1.2s-1.2-0.6-1.2-1.2
						c0-5.2,4.3-9.5,9.5-9.5c5.2,0,9.5,4.3,9.5,9.5C158.2,125.8,157.6,126.4,156.9,126.4z"/>
				</g>
			</g>
		</g>
	</g>
	<g>
		<path class="st0" d="M100.1,101.6c-10,0-18.2-8.2-18.2-18.2s8.2-18.2,18.2-18.2s18.2,8.2,18.2,18.2S110.1,101.6,100.1,101.6z
			 M100.1,67.5c-8.7,0-15.9,7.1-15.9,15.9s7.1,15.9,15.9,15.9c8.7,0,15.9-7.1,15.9-15.9S108.8,67.5,100.1,67.5z"/>
	</g>
</g>
</svg>
