<?xml version="1.0" encoding="utf-8"?>
<!-- Generator: Adobe Illustrator 26.3.1, SVG Export Plug-In . SVG Version: 6.00 Build 0)  -->
<svg version="1.1" id="Layer_1" xmlns="http://www.w3.org/2000/svg" xmlns:xlink="http://www.w3.org/1999/xlink" x="0px" y="0px"
	 viewBox="0 0 200 200" style="enable-background:new 0 0 200 200;" xml:space="preserve">
<style type="text/css">
	.st0{fill:#0067FC;}
</style>
<g>
	<g>
		<g>
			<path class="st0" d="M100.1,92.6c-7.3,0-13.2-5.9-13.2-13.2s5.9-13.2,13.2-13.2c7.3,0,13.2,5.9,13.2,13.2S107.3,92.6,100.1,92.6z
				 M100.1,68.6c-6,0-10.8,4.9-10.8,10.8s4.9,10.8,10.8,10.8s10.8-4.9,10.8-10.8S106,68.6,100.1,68.6z"/>
		</g>
	</g>
	<g>
		<g>
			<g id="Group_263_00000137124981343449600160000009937044480281212544_" transform="translate(-598.5 -520.001)">
				<g id="Group_259_00000100361100154951602860000009478610763259291270_" transform="translate(549.903 487.744)">
					<g id="Ellipse_9_00000168818598003164592770000013889029295918277526_">
						<path class="st0" d="M175.6,136.5c-3.5,0-6.3-2.8-6.3-6.3c0-3.5,2.8-6.3,6.3-6.3s6.3,2.8,6.3,6.3
							C181.9,133.6,179,136.5,175.6,136.5z M175.6,126.3c-2.1,0-3.8,1.7-3.8,3.8s1.7,3.8,3.8,3.8c2.1,0,3.8-1.7,3.8-3.8
							S177.7,126.3,175.6,126.3z"/>
					</g>
					<g id="Path_16_00000163050473070590775440000006337012585906708880_">
						<path class="st0" d="M183.8,146.1c-0.7,0-1.2-0.6-1.2-1.2c0-3.9-3.1-7-7-7s-7,3.1-7,7c0,0.7-0.6,1.2-1.2,1.2s-1.2-0.6-1.2-1.2
							c0-5.2,4.3-9.5,9.5-9.5c5.2,0,9.5,4.3,9.5,9.5C185.1,145.5,184.5,146.1,183.8,146.1z"/>
					</g>
				</g>
			</g>
		</g>
		<g>
			<path class="st0" d="M119.2,142.9h-42c-3,0-5.5-2.5-5.5-5.5V89.7c0-0.7,0.6-1.2,1.2-1.2s1.2,0.6,1.2,1.2v47.7c0,1.7,1.3,3,3,3
				h41.5l11.4-12.8v-7c0-0.7,0.6-1.2,1.2-1.2s1.2,0.6,1.2,1.2v7.4c0,0.3-0.1,0.6-0.3,0.8l-12.1,13.5
				C119.8,142.8,119.5,142.9,119.2,142.9z"/>
		</g>
		<g>
			<path class="st0" d="M72.9,94.1c-0.7,0-1.2-0.6-1.2-1.2v-31c0-3,2.5-5.5,5.5-5.5H127c3,0,5.5,2.5,5.5,5.5v24.8
				c0,0.7-0.6,1.2-1.2,1.2s-1.2-0.6-1.2-1.2V61.9c0-1.7-1.3-3-3-3H77.1c-1.7,0-3,1.3-3,3v31C74.1,93.5,73.6,94.1,72.9,94.1z"/>
		</g>
		<g>
			<path class="st0" d="M118.2,142.5c-0.7,0-1.2-0.6-1.2-1.2v-8.8c0-3,2.5-5.5,5.5-5.5h8.8c0.7,0,1.2,0.6,1.2,1.2s-0.6,1.2-1.2,1.2
				h-8.8c-1.7,0-3,1.3-3,3v8.8C119.4,141.9,118.8,142.5,118.2,142.5z"/>
		</g>
		<g>
			<path class="st0" d="M126.5,121.3c-10,0-18.2-8.2-18.2-18.2s8.2-18.2,18.2-18.2s18.2,8.2,18.2,18.2S136.6,121.3,126.5,121.3z
				 M126.5,87.2c-8.7,0-15.9,7.1-15.9,15.9c0,8.7,7.1,15.9,15.9,15.9s15.9-7.1,15.9-15.9C142.4,94.3,135.3,87.2,126.5,87.2z"/>
		</g>
	</g>
	<g>
		<g>
			<path class="st0" d="M110,117.6H93c-0.7,0-1.2-0.6-1.2-1.2s0.6-1.2,1.2-1.2h17c0.7,0,1.2,0.6,1.2,1.2S110.7,117.6,110,117.6z"/>
		</g>
		<g>
			<path class="st0" d="M106,124.6H93c-0.7,0-1.2-0.6-1.2-1.2s0.6-1.2,1.2-1.2h13c0.7,0,1.2,0.6,1.2,1.2S106.7,124.6,106,124.6z"/>
		</g>
		<g>
			<path class="st0" d="M102,131.7h-9c-0.7,0-1.2-0.6-1.2-1.2s0.6-1.2,1.2-1.2h9c0.7,0,1.2,0.6,1.2,1.2S102.7,131.7,102,131.7z"/>
		</g>
		<g>
			<path class="st0" d="M86.1,119c-0.3,0-0.6-0.1-0.9-0.4l-1.4-1.4c-0.5-0.5-0.5-1.3,0-1.8c0.5-0.5,1.3-0.5,1.8,0l0.5,0.5l1.9-1.9
				c0.5-0.5,1.3-0.5,1.8,0s0.5,1.3,0,1.8l-2.8,2.8C86.7,118.9,86.4,119,86.1,119z"/>
		</g>
		<g>
			<path class="st0" d="M86.1,126L86.1,126c-0.3,0-0.6-0.1-0.9-0.4l-1.4-1.4c-0.5-0.5-0.5-1.3,0-1.8s1.3-0.5,1.8,0l0.5,0.5l1.9-1.9
				c0.5-0.5,1.3-0.5,1.8,0s0.5,1.3,0,1.8l-2.8,2.8C86.7,125.9,86.4,126,86.1,126z"/>
		</g>
		<g>
			<path class="st0" d="M86.1,132.5c-0.3,0-0.6-0.1-0.9-0.4l-1.4-1.4c-0.5-0.5-0.5-1.3,0-1.8c0.5-0.5,1.3-0.5,1.8,0l0.5,0.5l1.9-1.9
				c0.5-0.5,1.3-0.5,1.8,0s0.5,1.3,0,1.8l-2.8,2.8C86.7,132.4,86.4,132.5,86.1,132.5z"/>
		</g>
	</g>
	<g>
		<path class="st0" d="M100.1,172.4c-40.1,0-72.7-32.6-72.7-72.7c0-40.1,32.6-72.7,72.7-72.7s72.7,32.6,72.7,72.7
			C172.8,139.7,140.2,172.4,100.1,172.4z M100.1,30.9c-37.9,0-68.7,30.8-68.7,68.7s30.8,68.7,68.7,68.7c37.9,0,68.7-30.8,68.7-68.7
			S138,30.9,100.1,30.9z"/>
	</g>
	<g>
		<path class="st0" d="M100.1,87.2c-0.6,0-1.2-0.5-1.2-1.2V72.2c0-0.6,0.5-1.2,1.2-1.2s1.2,0.5,1.2,1.2V86
			C101.2,86.7,100.7,87.2,100.1,87.2z"/>
	</g>
	<g>
		<path class="st0" d="M107,80.3H93.1c-0.6,0-1.2-0.5-1.2-1.2s0.5-1.2,1.2-1.2H107c0.6,0,1.2,0.5,1.2,1.2S107.7,80.3,107,80.3z"/>
	</g>
</g>
</svg>
