<?xml version="1.0" encoding="utf-8"?>
<!-- Generator: Adobe Illustrator 26.4.0, SVG Export Plug-In . SVG Version: 6.00 Build 0)  -->
<svg version="1.1" id="Layer_1" xmlns="http://www.w3.org/2000/svg" xmlns:xlink="http://www.w3.org/1999/xlink" x="0px" y="0px"
	 viewBox="0 0 200 200" style="enable-background:new 0 0 200 200;" xml:space="preserve">
<style type="text/css">
	.st0{fill:#0067FC;}
</style>
<g>
	<g>
		<path class="st0" d="M100.1,172.6c-40.1,0-72.7-32.6-72.7-72.7S60,27.2,100.1,27.2s72.7,32.6,72.7,72.7S140.2,172.6,100.1,172.6z
			 M100.1,31.2c-37.9,0-68.7,30.8-68.7,68.7c0,37.9,30.8,68.7,68.7,68.7c37.9,0,68.7-30.8,68.7-68.7C168.8,62,138,31.2,100.1,31.2z"
			/>
	</g>
	<g>
		<g>
			<path class="st0" d="M105,81.3l-3.7,25.7c-0.2,1.4-2.3,1.4-2.5,0c0,0-3.7-25.7-3.7-25.7c-0.4-2.8,1.5-5.3,4.3-5.7
				C102.6,75,105.6,78,105,81.3L105,81.3z"/>
		</g>
		<g>
			<circle class="st0" cx="100.1" cy="115.5" r="3"/>
		</g>
	</g>
	<g>
		<path class="st0" d="M100.1,137.8c-20.9,0-37.9-17-37.9-37.9c0-20.9,17-37.9,37.9-37.9C121,62,138,79,138,99.9
			C138,120.8,121,137.8,100.1,137.8z M100.1,64.5c-19.5,0-35.4,15.9-35.4,35.4c0,19.5,15.9,35.4,35.4,35.4
			c19.5,0,35.4-15.9,35.4-35.4C135.5,80.4,119.6,64.5,100.1,64.5z"/>
	</g>
</g>
</svg>
