<svg xmlns="http://www.w3.org/2000/svg" xmlns:xlink="http://www.w3.org/1999/xlink" viewBox="0 0 91.53 149.6"><defs><style>.cls-1{fill:none;}.cls-2{clip-path:url(#clip-path);}.cls-3{fill:#fff;}</style><clipPath id="clip-path" transform="translate(-29.23 -0.2)"><rect class="cls-1" width="150" height="150"/></clipPath></defs><g id="Layer_2" data-name="Layer 2"><g id="Layer_1-2" data-name="Layer 1"><g class="cls-2"><polygon points="87.42 140.04 83.92 140.04 83.92 131.45 79.19 131.45 79.19 140.04 75.7 140.04 81.56 145.9 87.42 140.04"/><polygon points="84.13 144.45 81.56 147.02 78.98 144.45 71.58 144.45 71.58 149.6 91.53 149.6 91.53 144.45 84.13 144.45"/><path d="M33.15,126.26c-3-1.08-3.92-3.28-3.92-6.33q.07-56.73,0-113.46a12.81,12.81,0,0,1,.1-2A4.85,4.85,0,0,1,34.16.24c1.89,0,3.78,0,5.67,0,17.68,0,35.36,0,53,0A4.4,4.4,0,0,1,96.5,1.81Q108,15.06,119.6,28.2a4.5,4.5,0,0,1,1.16,3.13q0,44.67,0,89.34a5.49,5.49,0,0,1-3.91,5.59Zm1.12-42.19h81.44V32.94h-1.44q-9.72,0-19.44,0c-2.49,0-3.34-.85-3.34-3.33V5.23H34.27Zm32.9,34.87c5.32.5,10.55.82,15.66-.86a11.86,11.86,0,0,0,8.3-8.79,22.59,22.59,0,0,0,.54-6.81,11.55,11.55,0,0,0-9.09-10.76,25.83,25.83,0,0,0-6.07-.78c-3.09,0-6.19.21-9.34.33ZM36,105.85a37.74,37.74,0,0,0,.64,3.88c1.2,4.8,4.09,8.15,9,9.3,5.18,1.21,10,.35,13.75-3.78,3.17-3.51,3.87-7.82,3.41-12.41C61.56,91,50.37,88.53,43.44,92,38,94.78,36.17,99.62,36,105.85Zm66.24,3.2c.69,0,1.17.07,1.66.08a17.32,17.32,0,0,0,6.85-1.16A8.48,8.48,0,0,0,116,99.11c-.37-4.4-3-7.07-7.19-7.82-3.84-.69-7.67-.33-11.52,0-1,.08-1.37.37-1.36,1.45,0,8.33,0,16.66,0,25,0,.43,0,.87.06,1.29h6.21Z" transform="translate(-29.23 -0.2)"/><path class="cls-3" d="M34.27,84.07V5.23H91.49V29.61c0,2.48.85,3.33,3.34,3.33q9.72,0,19.44,0h1.44V84.07Zm49-43.44C78,39.75,70.91,44.12,68.1,49.91a16.94,16.94,0,0,0,24,22c5.13-3.09,9.08-10.24,7.94-14.6H83.28ZM46,26.48H87.47V23H46ZM97.24,39.59a16.06,16.06,0,0,0-11.77-4.74V51.32Zm.16,3-11.68,12h16.85A17.15,17.15,0,0,0,97.4,42.59ZM76.48,34.27H46V37.8H76.48Zm-15.77,11H46v3.54h14.7ZM46,60.14h14.7V56.58H46Zm0,7.34V71h14.7V67.48Z" transform="translate(-29.23 -0.2)"/><path class="cls-3" d="M67.17,118.94V91.27c3.15-.12,6.25-.37,9.34-.33a25.83,25.83,0,0,1,6.07.78,11.55,11.55,0,0,1,9.09,10.76,22.59,22.59,0,0,1-.54,6.81,11.86,11.86,0,0,1-8.3,8.79C77.72,119.76,72.49,119.44,67.17,118.94Zm6.28-22.83c0,5.82,0,11.67,0,17.52a.93.93,0,0,0,.61.7c3.41.2,6.69-.12,9-3.06,1.84-2.32,2.13-5.08,1.92-7.92C84.54,97,79,94.82,73.45,96.11Z" transform="translate(-29.23 -0.2)"/><path class="cls-3" d="M36,105.85c.17-6.23,2-11.07,7.44-13.81,6.93-3.51,18.12-1.07,19.32,10.8.46,4.59-.24,8.9-3.41,12.41-3.72,4.13-8.57,5-13.75,3.78-4.87-1.15-7.76-4.5-9-9.3A37.74,37.74,0,0,1,36,105.85Zm6.46-.71a41.12,41.12,0,0,0,1.28,5.2,5.85,5.85,0,0,0,5.58,4.1,5.69,5.69,0,0,0,5.7-3.72,12.92,12.92,0,0,0-.37-11.94,5.88,5.88,0,0,0-10.43,0A16,16,0,0,0,42.46,105.14Z" transform="translate(-29.23 -0.2)"/><path class="cls-3" d="M102.24,109.05V119H96c0-.42-.06-.86-.06-1.29,0-8.32,0-16.65,0-25,0-1.08.32-1.37,1.36-1.45,3.85-.31,7.68-.67,11.52,0,4.21.75,6.82,3.42,7.19,7.82a8.48,8.48,0,0,1-5.26,8.86,17.32,17.32,0,0,1-6.85,1.16C103.41,109.12,102.93,109.08,102.24,109.05Zm2.43-13.43v.09c-.33,0-.66,0-1,0-1.09-.1-1.51.31-1.45,1.46.09,2,0,4.09.06,6.13,0,.33.51.94.74.92a17,17,0,0,0,4.41-.63c1.81-.64,2.54-2.45,2.28-4.55a3.69,3.69,0,0,0-3.12-3.19A17.71,17.71,0,0,0,104.67,95.62Z" transform="translate(-29.23 -0.2)"/><path d="M83.28,40.63V57.31H100c1.14,4.36-2.81,11.51-7.94,14.6a16.94,16.94,0,0,1-24-22C70.91,44.12,78,39.75,83.28,40.63Z" transform="translate(-29.23 -0.2)"/><path d="M46,26.48V23H87.47v3.53Z" transform="translate(-29.23 -0.2)"/><path d="M97.24,39.59,85.47,51.32V34.85A16.06,16.06,0,0,1,97.24,39.59Z" transform="translate(-29.23 -0.2)"/><path d="M97.4,42.59a17.15,17.15,0,0,1,5.17,12H85.72Z" transform="translate(-29.23 -0.2)"/><path d="M76.48,34.27V37.8H46V34.27Z" transform="translate(-29.23 -0.2)"/><path d="M60.71,45.29v3.54H46V45.29Z" transform="translate(-29.23 -0.2)"/><path d="M46,60.14V56.58h14.7v3.56Z" transform="translate(-29.23 -0.2)"/><path d="M46,67.48h14.7V71H46Z" transform="translate(-29.23 -0.2)"/><path d="M73.45,96.11C79,94.82,84.54,97,85,103.35c.21,2.84-.08,5.6-1.92,7.92-2.32,2.94-5.6,3.26-9,3.06a.93.93,0,0,1-.61-.7C73.45,107.78,73.45,101.93,73.45,96.11Z" transform="translate(-29.23 -0.2)"/><path d="M42.46,105.14a16,16,0,0,1,1.76-6.32,5.88,5.88,0,0,1,10.43,0A12.92,12.92,0,0,1,55,110.72a5.69,5.69,0,0,1-5.7,3.72,5.85,5.85,0,0,1-5.58-4.1A41.12,41.12,0,0,1,42.46,105.14Z" transform="translate(-29.23 -0.2)"/><path d="M104.67,95.62a17.71,17.71,0,0,1,1.94.23A3.69,3.69,0,0,1,109.73,99c.26,2.1-.47,3.91-2.28,4.55a17,17,0,0,1-4.41.63c-.23,0-.73-.59-.74-.92-.07-2,0-4.09-.06-6.13-.06-1.15.36-1.56,1.45-1.46.32,0,.65,0,1,0Z" transform="translate(-29.23 -0.2)"/></g></g></g></svg>