<svg xmlns="http://www.w3.org/2000/svg" xmlns:xlink="http://www.w3.org/1999/xlink" viewBox="0 0 92.84 150"><defs><style>.cls-1{fill:none;}.cls-2{clip-path:url(#clip-path);}.cls-3{fill:#fff;}</style><clipPath id="clip-path" transform="translate(-28.58 0)"><rect class="cls-1" width="150" height="150"/></clipPath></defs><g id="Layer_2" data-name="Layer 2"><g id="Layer_1-2" data-name="Layer 1"><g class="cls-2"><polygon points="88.72 140.44 85.22 140.44 85.22 131.85 80.49 131.85 80.49 140.44 77 140.44 82.86 146.3 88.72 140.44"/><polygon points="85.44 144.85 82.86 147.42 80.28 144.85 72.88 144.85 72.88 150 92.83 150 92.83 144.85 85.44 144.85"/><path d="M32.56,127.85c-3-1.1-4-3.32-4-6.42q.08-57.54,0-115.07a13.27,13.27,0,0,1,.1-2A4.91,4.91,0,0,1,33.58,0c1.92,0,3.83,0,5.75,0,17.93,0,35.86,0,53.8,0A4.42,4.42,0,0,1,96.8,1.64q11.67,13.41,23.43,26.76a4.5,4.5,0,0,1,1.18,3.17q0,45.3,0,90.61a5.57,5.57,0,0,1-4,5.67ZM33.73,5.09v80h82.56V33.21H95.1c-2.51,0-3.37-.87-3.37-3.39q0-11.67,0-23.33V5.09ZM67.88,92.47v26.87a46.47,46.47,0,0,0,11.9,0c4.76-.73,8.72-2.73,10.85-7.36A16.92,16.92,0,0,0,92,103.71a11.72,11.72,0,0,0-9.07-11C77.92,91.46,72.92,91.83,67.88,92.47ZM37.46,106a15.27,15.27,0,0,0,2.17,8.21c3.67,6,12.73,7.59,18.73,3.27s7.24-15,2.58-21.07a13.21,13.21,0,0,0-16-3.51C39.5,95.57,37.58,100.31,37.46,106Zm74-8.26L112.74,93c-4.45-1.61-8.85-2.11-13.11.11-5.41,2.8-5.66,9.69-.57,13a28.2,28.2,0,0,0,3.1,1.58c1.34.65,2.73,1.21,4,1.92a2.61,2.61,0,0,1-.51,4.72,8,8,0,0,1-3.17.38c-2.1-.28-4.17-.83-6.32-1.29l-1.14,4.74a17.48,17.48,0,0,0,14.26.36,7.89,7.89,0,0,0,4.13-9.54c-.88-2.73-3.06-4.14-5.51-5.24-1.59-.72-3.21-1.37-4.78-2.13A2.33,2.33,0,0,1,101.72,99a2.48,2.48,0,0,1,2.16-2,7.8,7.8,0,0,1,2.59-.15C108.1,97,109.71,97.43,111.42,97.76Z" transform="translate(-28.58 0)"/><path class="cls-3" d="M33.73,5.09h58v1.4q0,11.67,0,23.33c0,2.52.86,3.38,3.37,3.39h21.19V85.06H33.73Zm70.42,31H45.91V75.55h58.24Z" transform="translate(-28.58 0)"/><path class="cls-3" d="M67.88,92.47c5-.64,10-1,15,.2a11.72,11.72,0,0,1,9.07,11A16.92,16.92,0,0,1,90.63,112c-2.13,4.63-6.09,6.63-10.85,7.36a46.47,46.47,0,0,1-11.9,0Zm6.18,22.24c4.26.77,8.16-.64,9.94-3.51,2-3.24,1.88-8.86-.26-11.6-1.95-2.51-6.22-3.67-9.68-2.6Z" transform="translate(-28.58 0)"/><path class="cls-3" d="M37.46,106c.12-5.71,2-10.45,7.46-13.1a13.21,13.21,0,0,1,16,3.51c4.66,6.11,3.36,16.78-2.58,21.07s-15.06,2.76-18.73-3.27A15.27,15.27,0,0,1,37.46,106Zm6.54-.25a11.37,11.37,0,0,0,1.55,6.32A5.77,5.77,0,0,0,55.62,112a12.28,12.28,0,0,0,0-12.4,5.75,5.75,0,0,0-10.18,0A12.07,12.07,0,0,0,44,105.77Z" transform="translate(-28.58 0)"/><path class="cls-3" d="M111.42,97.76c-1.71-.33-3.32-.72-5-.94a7.8,7.8,0,0,0-2.59.15,2.48,2.48,0,0,0-2.16,2,2.33,2.33,0,0,0,1.44,2.64c1.57.76,3.19,1.41,4.78,2.13,2.45,1.1,4.63,2.51,5.51,5.24a7.89,7.89,0,0,1-4.13,9.54,17.48,17.48,0,0,1-14.26-.36l1.14-4.74c2.15.46,4.22,1,6.32,1.29a8,8,0,0,0,3.17-.38,2.61,2.61,0,0,0,.51-4.72c-1.31-.71-2.7-1.27-4-1.92a28.2,28.2,0,0,1-3.1-1.58c-5.09-3.31-4.84-10.2.57-13,4.26-2.22,8.66-1.72,13.11-.11Z" transform="translate(-28.58 0)"/><path d="M104.15,36.06V75.55H45.91V36.06Zm-3.58,21.77H81v4.41h19.57ZM81,47v4.46h19.51V47Zm0,9.6h19.56V52.69H81ZM100.44,68H81v4H97.22c3.77,0,3.77,0,3.35-3.8C100.57,68.22,100.53,68.18,100.44,68Zm.13-4.57H81v3.4h19.58Zm-51.1-23.4v5.81H59.3V40.06Zm30.34,5.88V40.07H70.42v5.87ZM59.32,57.85H49.38v1.7c0,2.8,0,2.8,2.8,2.8h7.14Zm20.49,0H70.4v4.44h9.41ZM59.32,47.07H49.38c0,1.34,0,2.58,0,3.82,0,.23.34.63.53.63,3.1,0,6.21,0,9.38,0Zm20.49,0h-9.4v4.41h9.4ZM69.26,57.83H60.51v4.42h8.75Zm-19.8-1.21H59.3V52.68H49.46Zm9.86,15.43v-4H49.39c0,.71,0,1.32,0,1.94,0,2.33-.3,2,2,2C54,72.06,56.64,72.05,59.32,72.05Zm1.19-25v4.41h8.71V47.05Zm19.25,9.63v-4H70.43v4Zm0,11.36h-9.4V72h9.4ZM60.48,56.64h8.76V52.71H60.48ZM59.3,66.89V63.45H49.46v3.44ZM60.52,72h8.7V68h-8.7Zm19.3-8.51H70.4v3.44h9.42Zm-19.28,0v3.43h8.7V63.45Z" transform="translate(-28.58 0)"/><path d="M74.06,114.71V97c3.46-1.07,7.73.09,9.68,2.6,2.14,2.74,2.26,8.36.26,11.6C82.22,114.07,78.32,115.48,74.06,114.71Z" transform="translate(-28.58 0)"/><path d="M44,105.77a12.07,12.07,0,0,1,1.45-6.11,5.75,5.75,0,0,1,10.18,0,12.28,12.28,0,0,1,0,12.4,5.77,5.77,0,0,1-10.07.08A11.37,11.37,0,0,1,44,105.77Z" transform="translate(-28.58 0)"/><path class="cls-3" d="M100.57,57.83v4.41H81V57.83Z" transform="translate(-28.58 0)"/><path class="cls-3" d="M81,47h19.51v4.46H81Z" transform="translate(-28.58 0)"/><path class="cls-3" d="M81,56.63V52.69h19.56v3.94Z" transform="translate(-28.58 0)"/><path class="cls-3" d="M100.44,68c.09.15.13.19.13.22.42,3.8.42,3.8-3.35,3.8H81V68Z" transform="translate(-28.58 0)"/><path class="cls-3" d="M100.57,63.46v3.4H81v-3.4Z" transform="translate(-28.58 0)"/><path class="cls-3" d="M49.47,40.06H59.3v5.81H49.47Z" transform="translate(-28.58 0)"/><path class="cls-3" d="M79.81,45.94H70.42V40.07h9.39Z" transform="translate(-28.58 0)"/><path class="cls-3" d="M59.32,57.85v4.5H52.18c-2.8,0-2.8,0-2.8-2.8v-1.7Z" transform="translate(-28.58 0)"/><path class="cls-3" d="M79.81,57.83v4.44H70.4V57.83Z" transform="translate(-28.58 0)"/><path class="cls-3" d="M59.32,47.07v4.48c-3.17,0-6.28,0-9.38,0-.19,0-.52-.4-.53-.63-.06-1.24,0-2.48,0-3.82Z" transform="translate(-28.58 0)"/><path class="cls-3" d="M79.81,47.06v4.41h-9.4V47.06Z" transform="translate(-28.58 0)"/><path class="cls-3" d="M69.26,57.83v4.42H60.51V57.83Z" transform="translate(-28.58 0)"/><path class="cls-3" d="M49.46,56.62V52.68H59.3v3.94Z" transform="translate(-28.58 0)"/><path class="cls-3" d="M59.32,72.05c-2.68,0-5.28,0-7.88,0-2.35,0-2,.28-2-2,0-.62,0-1.23,0-1.94h9.93Z" transform="translate(-28.58 0)"/><path class="cls-3" d="M60.51,47.05h8.71v4.41H60.51Z" transform="translate(-28.58 0)"/><path class="cls-3" d="M79.76,56.68H70.43v-4h9.33Z" transform="translate(-28.58 0)"/><path class="cls-3" d="M79.81,68V72h-9.4V68Z" transform="translate(-28.58 0)"/><path class="cls-3" d="M60.48,56.64V52.71h8.76v3.93Z" transform="translate(-28.58 0)"/><path class="cls-3" d="M59.3,66.89H49.46V63.45H59.3Z" transform="translate(-28.58 0)"/><path class="cls-3" d="M60.52,72V68h8.7V72Z" transform="translate(-28.58 0)"/><path class="cls-3" d="M79.82,63.45v3.44H70.4V63.45Z" transform="translate(-28.58 0)"/><path class="cls-3" d="M60.54,63.45h8.7v3.43h-8.7Z" transform="translate(-28.58 0)"/></g></g></g></svg>