<?xml version="1.0" encoding="utf-8"?>
<!-- Generator: Adobe Illustrator 26.4.0, SVG Export Plug-In . SVG Version: 6.00 Build 0)  -->
<svg version="1.1" id="Layer_1" xmlns="http://www.w3.org/2000/svg" xmlns:xlink="http://www.w3.org/1999/xlink" x="0px" y="0px"
	 viewBox="0 0 200 200" style="enable-background:new 0 0 200 200;" xml:space="preserve">
<style type="text/css">
	.st0{fill:#0067FC;}
</style>
<g>
	<g>
		<g>
			<path class="st0" d="M117.5,75.3c-0.3,0-0.6-0.1-0.9-0.4l-3.1-3.1l-3,3c-0.5,0.5-1.3,0.5-1.8,0s-0.5-1.3,0-1.8l3.9-3.9
				c0.2-0.2,0.6-0.4,0.9-0.4l0,0c0.3,0,0.6,0.1,0.9,0.4l4,4c0.5,0.5,0.5,1.3,0,1.8C118.1,75.2,117.8,75.3,117.5,75.3z"/>
		</g>
		<g>
			<path class="st0" d="M113.6,79.3c-0.7,0-1.2-0.6-1.2-1.2v-7.6c0-0.7,0.6-1.2,1.2-1.2s1.2,0.6,1.2,1.2v7.6
				C114.8,78.8,114.3,79.3,113.6,79.3z"/>
		</g>
	</g>
	<g>
		<g>
			<path class="st0" d="M104,71.3c-0.3,0-0.6-0.1-0.9-0.4l-3.1-3.1l-3,3c-0.5,0.5-1.3,0.5-1.8,0s-0.5-1.3,0-1.8l3.9-3.9
				c0.5-0.5,1.3-0.5,1.8,0l4,4c0.5,0.5,0.5,1.3,0,1.8C104.6,71.2,104.3,71.3,104,71.3z"/>
		</g>
		<g>
			<path class="st0" d="M100.1,75.3c-0.7,0-1.2-0.6-1.2-1.2v-7.6c0-0.7,0.6-1.2,1.2-1.2s1.2,0.6,1.2,1.2v7.6
				C101.3,74.8,100.7,75.3,100.1,75.3z"/>
		</g>
	</g>
	<g>
		<g>
			<path class="st0" d="M90,75.3c-0.3,0-0.6-0.1-0.9-0.4L86,71.8l-3,3c-0.5,0.5-1.3,0.5-1.8,0s-0.5-1.3,0-1.8l3.9-3.9
				c0.5-0.5,1.3-0.5,1.8,0l4,4c0.5,0.5,0.5,1.3,0,1.8C90.6,75.2,90.3,75.3,90,75.3z"/>
		</g>
		<g>
			<path class="st0" d="M86.1,79.3c-0.7,0-1.2-0.6-1.2-1.2v-7.6c0-0.7,0.6-1.2,1.2-1.2s1.2,0.6,1.2,1.2v7.6
				C87.3,78.8,86.8,79.3,86.1,79.3z"/>
		</g>
	</g>
	<g>
		<g>
			<g id="Group_263_00000005975818082485884260000009774372436664585897_" transform="translate(-598.5 -520.001)">
				<g id="Group_259_00000085209523675952879200000015936243961418621592_" transform="translate(549.903 487.744)">
					<g id="Ellipse_9_00000115481977826031003400000014937527606672678295_">
						<path class="st0" d="M148.5,119.7c-3.1,0-5.7-2.5-5.7-5.7s2.5-5.7,5.7-5.7c3.1,0,5.7,2.5,5.7,5.7S151.6,119.7,148.5,119.7z
							 M148.5,110.9c-1.8,0-3.2,1.4-3.2,3.2s1.4,3.2,3.2,3.2s3.2-1.4,3.2-3.2S150.2,110.9,148.5,110.9z"/>
					</g>
					<g id="Path_16_00000019673185664975161520000008918341009440439209_">
						<path class="st0" d="M155.7,128.1c-0.7,0-1.2-0.6-1.2-1.2c0-3.3-2.7-6-6-6s-6,2.7-6,6c0,0.7-0.6,1.2-1.2,1.2s-1.2-0.6-1.2-1.2
							c0-4.7,3.8-8.5,8.5-8.5c4.7,0,8.5,3.8,8.5,8.5C156.9,127.6,156.4,128.1,155.7,128.1z"/>
					</g>
				</g>
			</g>
		</g>
		<g>
			<g id="Group_263_00000081637097733048008830000012311191956637405337_" transform="translate(-598.5 -520.001)">
				<g id="Group_259_00000076578196972562117070000012900299973120919971_" transform="translate(549.903 487.744)">
					<g id="Ellipse_9_00000173143757856325713700000011752779743920047028_">
						<path class="st0" d="M162.1,124.2c-3.1,0-5.7-2.5-5.7-5.7s2.5-5.7,5.7-5.7s5.7,2.5,5.7,5.7S165.3,124.2,162.1,124.2z
							 M162.1,115.3c-1.8,0-3.2,1.4-3.2,3.2s1.4,3.2,3.2,3.2s3.2-1.4,3.2-3.2S163.9,115.3,162.1,115.3z"/>
					</g>
					<g id="Path_16_00000112614353835214564970000016560332097030329023_">
						<path class="st0" d="M169.3,132.6c-0.7,0-1.2-0.6-1.2-1.2c0-3.3-2.7-6-6-6c-3.3,0-6,2.7-6,6c0,0.7-0.6,1.2-1.2,1.2
							s-1.2-0.6-1.2-1.2c0-4.7,3.8-8.5,8.5-8.5s8.5,3.8,8.5,8.5C170.6,132,170,132.6,169.3,132.6z"/>
					</g>
				</g>
			</g>
		</g>
		<g>
			<g id="Group_263_00000166645394384868518850000005194212091111584139_" transform="translate(-598.5 -520.001)">
				<g id="Group_259_00000165927666898972174480000014263303018686132642_" transform="translate(549.903 487.744)">
					<g id="Ellipse_9_00000113340089728734019660000004210757677561703332_">
						<path class="st0" d="M135.1,124.4c-3.1,0-5.7-2.5-5.7-5.7c0-3.1,2.5-5.7,5.7-5.7s5.7,2.5,5.7,5.7
							C140.7,121.9,138.2,124.4,135.1,124.4z M135.1,115.6c-1.8,0-3.2,1.4-3.2,3.2c0,1.8,1.4,3.2,3.2,3.2s3.2-1.4,3.2-3.2
							C138.2,117,136.8,115.6,135.1,115.6z"/>
					</g>
					<g id="Path_16_00000152245166398310089550000000841194851211005087_">
						<path class="st0" d="M142.3,132.8c-0.7,0-1.2-0.6-1.2-1.2c0-3.3-2.7-6-6-6s-6,2.7-6,6c0,0.7-0.6,1.2-1.2,1.2s-1.2-0.6-1.2-1.2
							c0-4.7,3.8-8.5,8.5-8.5s8.5,3.8,8.5,8.5C143.5,132.2,143,132.8,142.3,132.8z"/>
					</g>
				</g>
			</g>
		</g>
	</g>
	<g>
		<g>
			<path class="st0" d="M117.1,143.3h-42c-3,0-5.5-2.5-5.5-5.5V62.2c0-3,2.5-5.5,5.5-5.5h49.8c3,0,5.5,2.5,5.5,5.5v66.3
				c0,0.3-0.1,0.6-0.3,0.8L118,142.9C117.8,143.1,117.5,143.3,117.1,143.3z M72.1,93.2v44.6c0,1.7,1.3,3,3,3h41.5l11.4-12.8V62.2
				c0-1.7-1.3-3-3-3H75.1c-1.7,0-3,1.3-3,3V93.2z"/>
		</g>
		<g>
			<path class="st0" d="M116.1,142.8c-0.7,0-1.2-0.6-1.2-1.2v-8.8c0-3,2.5-5.5,5.5-5.5h8.8c0.7,0,1.2,0.6,1.2,1.2s-0.6,1.2-1.2,1.2
				h-8.8c-1.7,0-3,1.3-3,3v8.8C117.4,142.3,116.8,142.8,116.1,142.8z"/>
		</g>
	</g>
	<g>
		<path class="st0" d="M100,172.7c-40.1,0-72.7-32.6-72.7-72.7S59.9,27.3,100,27.3s72.7,32.6,72.7,72.7S140.1,172.7,100,172.7z
			 M100,31.3c-37.9,0-68.7,30.8-68.7,68.7c0,37.9,30.8,68.7,68.7,68.7c37.9,0,68.7-30.8,68.7-68.7C168.7,62.1,137.9,31.3,100,31.3z"
			/>
	</g>
	<g>
		<path class="st0" d="M121.7,114.5H78.3c-0.7,0-1.2-0.6-1.2-1.2v-8.8c0-0.7,0.6-1.2,1.2-1.2h43.3c0.7,0,1.2,0.6,1.2,1.2v8.8
			C122.9,114,122.4,114.5,121.7,114.5z M79.6,112h40.8v-6.3H79.6V112z"/>
	</g>
	<g>
		<path class="st0" d="M91.1,133.5H79c-0.7,0-1.2-0.6-1.2-1.2v-12.8c0-0.7,0.6-1.2,1.2-1.2h12.1c0.7,0,1.2,0.6,1.2,1.2v12.8
			C92.4,133,91.8,133.5,91.1,133.5z M80.2,131h9.6v-10.3h-9.6V131z"/>
	</g>
	<g>
		<path class="st0" d="M107.9,133.5H95.8c-0.7,0-1.2-0.6-1.2-1.2v-12.8c0-0.7,0.6-1.2,1.2-1.2h12.1c0.7,0,1.2,0.6,1.2,1.2v12.8
			C109.2,133,108.6,133.5,107.9,133.5z M97,131h9.6v-10.3H97V131z"/>
	</g>
</g>
</svg>
