<?xml version="1.0" encoding="utf-8"?>
<!-- Generator: Adobe Illustrator 26.3.1, SVG Export Plug-In . SVG Version: 6.00 Build 0)  -->
<svg version="1.1" id="Layer_1" xmlns="http://www.w3.org/2000/svg" xmlns:xlink="http://www.w3.org/1999/xlink" x="0px" y="0px"
	 viewBox="0 0 200 200" style="enable-background:new 0 0 200 200;" xml:space="preserve">
<style type="text/css">
	.st0{fill:#0067FC;}
</style>
<g>
	<g>
		<g>
			<path class="st0" d="M117.2,142.9h-42c-3,0-5.5-2.5-5.5-5.5V61.9c0-3,2.5-5.5,5.5-5.5H125c3,0,5.5,2.5,5.5,5.5v66.3
				c0,0.3-0.1,0.6-0.3,0.8l-12.1,13.5C117.9,142.8,117.5,142.9,117.2,142.9z M72.1,92.8v44.6c0,1.7,1.3,3,3,3h41.5l11.4-12.8V61.9
				c0-1.7-1.3-3-3-3H75.1c-1.7,0-3,1.3-3,3V92.8z"/>
		</g>
		<g>
			<path class="st0" d="M116.2,142.5c-0.7,0-1.2-0.6-1.2-1.2v-8.8c0-3,2.5-5.5,5.5-5.5h8.8c0.7,0,1.2,0.6,1.2,1.2s-0.6,1.2-1.2,1.2
				h-8.8c-1.7,0-3,1.3-3,3v8.8C117.4,141.9,116.9,142.5,116.2,142.5z"/>
		</g>
	</g>
	<g>
		<g>
			<path class="st0" d="M117.7,113h-27c-0.7,0-1.2-0.6-1.2-1.2s0.6-1.2,1.2-1.2h27c0.7,0,1.2,0.6,1.2,1.2S118.4,113,117.7,113z"/>
		</g>
		<g>
			<path class="st0" d="M117.7,119.9h-27c-0.7,0-1.2-0.6-1.2-1.2s0.6-1.2,1.2-1.2h27c0.7,0,1.2,0.6,1.2,1.2S118.4,119.9,117.7,119.9
				z"/>
		</g>
		<g>
			<path class="st0" d="M107.7,126.9h-17c-0.7,0-1.2-0.6-1.2-1.2s0.6-1.2,1.2-1.2h17c0.7,0,1.2,0.6,1.2,1.2S108.4,126.9,107.7,126.9
				z"/>
		</g>
		<g>
			<path class="st0" d="M117.7,92.1h-27c-0.7,0-1.2-0.6-1.2-1.2s0.6-1.2,1.2-1.2h27c0.7,0,1.2,0.6,1.2,1.2S118.4,92.1,117.7,92.1z"
				/>
		</g>
		<g>
			<path class="st0" d="M117.7,99.1h-27c-0.7,0-1.2-0.6-1.2-1.2s0.6-1.2,1.2-1.2h27c0.7,0,1.2,0.6,1.2,1.2S118.4,99.1,117.7,99.1z"
				/>
		</g>
		<g>
			<path class="st0" d="M107.7,106h-17c-0.7,0-1.2-0.6-1.2-1.2s0.6-1.2,1.2-1.2h17c0.7,0,1.2,0.6,1.2,1.2S108.4,106,107.7,106z"/>
		</g>
		<g>
			<path class="st0" d="M117.7,71.2h-27c-0.7,0-1.2-0.6-1.2-1.2s0.6-1.2,1.2-1.2h27c0.7,0,1.2,0.6,1.2,1.2S118.4,71.2,117.7,71.2z"
				/>
		</g>
		<g>
			<path class="st0" d="M117.7,78.2h-27c-0.7,0-1.2-0.6-1.2-1.2s0.6-1.2,1.2-1.2h27c0.7,0,1.2,0.6,1.2,1.2S118.4,78.2,117.7,78.2z"
				/>
		</g>
		<g>
			<path class="st0" d="M107.7,85.1h-17c-0.7,0-1.2-0.6-1.2-1.2s0.6-1.2,1.2-1.2h17c0.7,0,1.2,0.6,1.2,1.2S108.4,85.1,107.7,85.1z"
				/>
		</g>
		<g>
			<path class="st0" d="M83.8,114.2c-0.3,0-0.6-0.1-0.9-0.4l-1.4-1.4c-0.5-0.5-0.5-1.3,0-1.8c0.5-0.5,1.3-0.5,1.8,0l0.5,0.5l1.9-1.9
				c0.5-0.5,1.3-0.5,1.8,0s0.5,1.3,0,1.8l-2.8,2.8C84.4,114.1,84.1,114.2,83.8,114.2z"/>
		</g>
		<g>
			<path class="st0" d="M83.8,121c-0.3,0-0.6-0.1-0.9-0.4l-1.4-1.4c-0.5-0.5-0.5-1.3,0-1.8s1.3-0.5,1.8,0l0.5,0.5l1.9-1.9
				c0.5-0.5,1.3-0.5,1.8,0s0.5,1.3,0,1.8l-2.8,2.8C84.4,120.9,84.1,121,83.8,121z"/>
		</g>
		<g>
			<path class="st0" d="M83.8,127.7c-0.3,0-0.6-0.1-0.9-0.4l-1.4-1.4c-0.5-0.5-0.5-1.3,0-1.8s1.3-0.5,1.8,0l0.5,0.5l1.9-1.9
				c0.5-0.5,1.3-0.5,1.8,0s0.5,1.3,0,1.8l-2.8,2.8C84.4,127.6,84.1,127.7,83.8,127.7z"/>
		</g>
	</g>
	<g>
		<path class="st0" d="M100.1,172.4c-40.1,0-72.7-32.6-72.7-72.7c0-40.1,32.6-72.7,72.7-72.7s72.7,32.6,72.7,72.7
			C172.8,139.7,140.2,172.4,100.1,172.4z M100.1,30.9c-37.9,0-68.7,30.8-68.7,68.7s30.8,68.7,68.7,68.7c37.9,0,68.7-30.8,68.7-68.7
			S138,30.9,100.1,30.9z"/>
	</g>
</g>
</svg>
