<?xml version="1.0" encoding="utf-8"?>
<!-- Generator: Adobe Illustrator 26.4.0, SVG Export Plug-In . SVG Version: 6.00 Build 0)  -->
<svg version="1.1" id="Layer_1" xmlns="http://www.w3.org/2000/svg" xmlns:xlink="http://www.w3.org/1999/xlink" x="0px" y="0px"
	 viewBox="0 0 200 200" style="enable-background:new 0 0 200 200;" xml:space="preserve">
<style type="text/css">
	.st0{fill:#0067FC;}
</style>
<g>
	<g>
		<path class="st0" d="M100,172.7c-40.1,0-72.7-32.6-72.7-72.7S59.9,27.3,100,27.3s72.7,32.6,72.7,72.7S140.1,172.7,100,172.7z
			 M100,31.3c-37.9,0-68.7,30.8-68.7,68.7c0,37.9,30.8,68.7,68.7,68.7c37.9,0,68.7-30.8,68.7-68.7C168.7,62.1,137.9,31.3,100,31.3z"
			/>
	</g>
	<g>
		<g>
			<path class="st0" d="M124.1,118L124.1,118c-0.3,0-0.6-0.1-0.9-0.4l-3.6-3.6c-0.5-0.5-0.5-1.3,0-1.8c0.5-0.5,1.3-0.5,1.8,0
				l2.7,2.7l2.7-2.7c0.5-0.5,1.3-0.5,1.8,0s0.5,1.3,0,1.8l-3.5,3.5C124.7,117.9,124.4,118,124.1,118z"/>
		</g>
		<g>
			<path class="st0" d="M100,118c-0.3,0-0.6-0.1-0.9-0.4l-3.6-3.6c-0.5-0.5-0.5-1.3,0-1.8s1.3-0.5,1.8,0l2.7,2.7l2.7-2.7
				c0.5-0.5,1.3-0.5,1.8,0s0.5,1.3,0,1.8l-3.5,3.5C100.7,117.9,100.4,118,100,118z"/>
		</g>
		<g>
			<path class="st0" d="M76.6,118L76.6,118c-0.3,0-0.6-0.1-0.9-0.4l-3.6-3.6c-0.5-0.5-0.5-1.3,0-1.8s1.3-0.5,1.8,0l2.7,2.7l2.7-2.7
				c0.5-0.5,1.3-0.5,1.8,0s0.5,1.3,0,1.8l-3.5,3.5C77.2,117.9,76.9,118,76.6,118z"/>
		</g>
		<g>
			<path class="st0" d="M100,140.7c-5.6,0-10.1-4.5-10.1-10.1s4.5-10.1,10.1-10.1s10.1,4.5,10.1,10.1S105.6,140.7,100,140.7z
				 M100,123c-4.2,0-7.6,3.4-7.6,7.6s3.4,7.6,7.6,7.6c4.2,0,7.6-3.4,7.6-7.6S104.2,123,100,123z"/>
		</g>
		<g>
			<path class="st0" d="M123.4,140.7c-5.6,0-10.1-4.5-10.1-10.1s4.5-10.1,10.1-10.1s10.1,4.5,10.1,10.1S129,140.7,123.4,140.7z
				 M123.4,123c-4.2,0-7.6,3.4-7.6,7.6s3.4,7.6,7.6,7.6c4.2,0,7.6-3.4,7.6-7.6S127.6,123,123.4,123z"/>
		</g>
		<g>
			<path class="st0" d="M100.2,76.9c-7.2,0-13-5.8-13-13s5.8-13,13-13c7.2,0,13,5.8,13,13S107.3,76.9,100.2,76.9z M100.2,54.2
				c-5.4,0-9.8,4.4-9.8,9.8s4.4,9.8,9.8,9.8c5.4,0,9.8-4.4,9.8-9.8S105.5,54.2,100.2,54.2z"/>
		</g>
		<g>
			<path class="st0" d="M76.6,140.7c-5.6,0-10.1-4.5-10.1-10.1s4.5-10.1,10.1-10.1c5.6,0,10.1,4.5,10.1,10.1S82.1,140.7,76.6,140.7z
				 M76.6,123c-4.2,0-7.6,3.4-7.6,7.6s3.4,7.6,7.6,7.6c4.2,0,7.6-3.4,7.6-7.6S80.7,123,76.6,123z"/>
		</g>
		<g>
			<path class="st0" d="M123.4,118c-0.7,0-1.2-0.6-1.2-1.2V99.7H77.8v17.1c0,0.7-0.6,1.2-1.2,1.2s-1.2-0.6-1.2-1.2V98.5
				c0-0.7,0.6-1.2,1.2-1.2h46.8c0.7,0,1.2,0.6,1.2,1.2v18.3C124.7,117.5,124.1,118,123.4,118z"/>
		</g>
		<g>
			<path class="st0" d="M100,118c-0.7,0-1.2-0.6-1.2-1.2V98.5c0-0.7,0.6-1.2,1.2-1.2s1.2,0.6,1.2,1.2v18.3
				C101.3,117.5,100.7,118,100,118z"/>
		</g>
		<g>
			<path class="st0" d="M103.6,85c-0.3,0-0.6-0.1-0.9-0.4l-2.7-2.7l-2.7,2.7c-0.5,0.5-1.3,0.5-1.8,0s-0.5-1.3,0-1.8l3.5-3.5
				c0.5-0.5,1.3-0.5,1.8,0l3.6,3.6c0.5,0.5,0.5,1.3,0,1.8C104.3,84.8,103.9,85,103.6,85z"/>
		</g>
		<g>
			<path class="st0" d="M100,99.6c-0.7,0-1.2-0.6-1.2-1.2V80.1c0-0.7,0.6-1.2,1.2-1.2s1.2,0.6,1.2,1.2v18.3
				C101.2,99.1,100.7,99.6,100,99.6z"/>
		</g>
	</g>
</g>
</svg>
