<?xml version="1.0" encoding="utf-8"?>
<!-- Generator: Adobe Illustrator 26.3.1, SVG Export Plug-In . SVG Version: 6.00 Build 0)  -->
<svg version="1.1" id="Layer_1" xmlns="http://www.w3.org/2000/svg" xmlns:xlink="http://www.w3.org/1999/xlink" x="0px" y="0px"
	 viewBox="0 0 200 200" style="enable-background:new 0 0 200 200;" xml:space="preserve">
<style type="text/css">
	.st0{fill:#0067FC;}
</style>
<g>
	<g>
		<g>
			<path class="st0" d="M129.2,115.7c-7.3,0-13.2-5.9-13.2-13.2c0-7.3,5.9-13.2,13.2-13.2c7.3,0,13.2,5.9,13.2,13.2
				C142.5,109.8,136.5,115.7,129.2,115.7z M129.2,91.7c-5.9,0-10.7,4.8-10.7,10.7s4.8,10.7,10.7,10.7s10.7-4.8,10.7-10.7
				S135.2,91.7,129.2,91.7z"/>
		</g>
	</g>
	<g id="Group_263_00000130642870597850900650000013875281555275955867_" transform="translate(-598.5 -520.001)">
		<g id="Group_259_00000135665239260762289170000009835800731478073784_" transform="translate(549.903 487.744)">
			<g id="Ellipse_9_00000134243932670420111920000012809421771303600548_">
				<path class="st0" d="M177.8,135c-2.2,0-4-1.8-4-4s1.8-4,4-4c2.2,0,4,1.8,4,4S180,135,177.8,135z M177.8,129.5
					c-0.8,0-1.5,0.7-1.5,1.5s0.7,1.5,1.5,1.5s1.5-0.7,1.5-1.5S178.7,129.5,177.8,129.5z"/>
			</g>
			<g id="Path_16_00000053521660857213723760000000254301270694927244_">
				<path class="st0" d="M182.3,142.5c-0.7,0-1.2-0.6-1.2-1.2c0-1.8-1.5-3.3-3.3-3.3s-3.3,1.5-3.3,3.3c0,0.7-0.6,1.2-1.2,1.2
					s-1.2-0.6-1.2-1.2c0-3.2,2.6-5.8,5.8-5.8c3.2,0,5.8,2.6,5.8,5.8C183.6,142,183,142.5,182.3,142.5z"/>
			</g>
		</g>
	</g>
	<g>
		<g>
			<path class="st0" d="M117.2,142.9h-42c-3,0-5.5-2.5-5.5-5.5V89.7c0-0.7,0.6-1.2,1.2-1.2s1.2,0.6,1.2,1.2v47.7c0,1.7,1.3,3,3,3
				h41.5l11.4-12.8v-13.2c0-0.7,0.6-1.2,1.2-1.2s1.2,0.6,1.2,1.2v13.6c0,0.3-0.1,0.6-0.3,0.8l-12.1,13.5
				C117.9,142.8,117.5,142.9,117.2,142.9z"/>
		</g>
		<g>
			<path class="st0" d="M70.9,94.1c-0.7,0-1.2-0.6-1.2-1.2v-31c0-3,2.5-5.5,5.5-5.5H125c3,0,5.5,2.5,5.5,5.5v28.6
				c0,0.7-0.6,1.2-1.2,1.2s-1.2-0.6-1.2-1.2V61.9c0-1.7-1.3-3-3-3H75.1c-1.7,0-3,1.3-3,3v31C72.1,93.5,71.6,94.1,70.9,94.1z"/>
		</g>
		<g>
			<path class="st0" d="M116.2,142.5c-0.7,0-1.2-0.6-1.2-1.2v-8.8c0-3,2.5-5.5,5.5-5.5h8.8c0.7,0,1.2,0.6,1.2,1.2s-0.6,1.2-1.2,1.2
				h-8.8c-1.7,0-3,1.3-3,3v8.8C117.4,141.9,116.9,142.5,116.2,142.5z"/>
		</g>
	</g>
	<g>
		<g>
			<path class="st0" d="M115.7,119.6h-27c-0.7,0-1.2-0.6-1.2-1.2s0.6-1.2,1.2-1.2h27c0.7,0,1.2,0.6,1.2,1.2S116.3,119.6,115.7,119.6
				z"/>
		</g>
		<g>
			<path class="st0" d="M115.7,126.6h-27c-0.7,0-1.2-0.6-1.2-1.2s0.6-1.2,1.2-1.2h27c0.7,0,1.2,0.6,1.2,1.2S116.3,126.6,115.7,126.6
				z"/>
		</g>
		<g>
			<path class="st0" d="M105.7,133.6h-17c-0.7,0-1.2-0.6-1.2-1.2s0.6-1.2,1.2-1.2h17c0.7,0,1.2,0.6,1.2,1.2S106.3,133.6,105.7,133.6
				z"/>
		</g>
		<g>
			<path class="st0" d="M81.7,121c-0.3,0-0.6-0.1-0.9-0.4l-1.4-1.4c-0.5-0.5-0.5-1.3,0-1.8s1.3-0.5,1.8,0l0.5,0.5l1.9-1.9
				c0.5-0.5,1.3-0.5,1.8,0s0.5,1.3,0,1.8l-2.8,2.8C82.4,120.9,82,121,81.7,121z"/>
		</g>
		<g>
			<path class="st0" d="M81.7,128c-0.3,0-0.6-0.1-0.9-0.4l-1.4-1.4c-0.5-0.5-0.5-1.3,0-1.8s1.3-0.5,1.8,0l0.5,0.5l1.9-1.9
				c0.5-0.5,1.3-0.5,1.8,0s0.5,1.3,0,1.8l-2.8,2.8C82.4,127.9,82,128,81.7,128z"/>
		</g>
		<g>
			<path class="st0" d="M81.7,134.5c-0.3,0-0.6-0.1-0.9-0.4l-1.4-1.4c-0.5-0.5-0.5-1.3,0-1.8c0.5-0.5,1.3-0.5,1.8,0l0.5,0.5l1.9-1.9
				c0.5-0.5,1.3-0.5,1.8,0s0.5,1.3,0,1.8l-2.8,2.8C82.3,134.4,82,134.5,81.7,134.5z"/>
		</g>
	</g>
	<g>
		<path class="st0" d="M115.6,70.4c-0.7,0-1.2-0.6-1.2-1.2v-4.2h-4.1c-0.7,0-1.2-0.6-1.2-1.2s0.6-1.2,1.2-1.2h5.4
			c0.7,0,1.2,0.6,1.2,1.2v5.5C116.9,69.8,116.3,70.4,115.6,70.4z"/>
	</g>
	<g>
		<path class="st0" d="M82.4,86.1c-0.7,0-1.2-0.6-1.2-1.2v-5.6c0-0.7,0.6-1.2,1.2-1.2s1.2,0.6,1.2,1.2v5.6
			C83.7,85.5,83.1,86.1,82.4,86.1z"/>
	</g>
	<g>
		<path class="st0" d="M90.5,85.6c-0.7,0-1.2-0.6-1.2-1.2v-2.2c0-0.7,0.6-1.2,1.2-1.2s1.2,0.6,1.2,1.2v2.2
			C91.7,85,91.1,85.6,90.5,85.6z"/>
	</g>
	<g>
		<path class="st0" d="M98,85.6c-0.7,0-1.2-0.6-1.2-1.2v-9.5c0-0.7,0.6-1.2,1.2-1.2s1.2,0.6,1.2,1.2v9.5C99.2,85,98.7,85.6,98,85.6z
			"/>
	</g>
	<g>
		<path class="st0" d="M106.4,85.6c-0.7,0-1.2-0.6-1.2-1.2V77c0-0.7,0.6-1.2,1.2-1.2s1.2,0.6,1.2,1.2v7.3
			C107.7,85,107.1,85.6,106.4,85.6z"/>
	</g>
	<g>
		<path class="st0" d="M114.5,85.3c-0.7,0-1.2-0.6-1.2-1.2V73.1c0-0.7,0.6-1.2,1.2-1.2s1.2,0.6,1.2,1.2V84
			C115.7,84.7,115.2,85.3,114.5,85.3z"/>
	</g>
	<g>
		<path class="st0" d="M89.6,78.3c-0.2,0-0.4,0-0.6-0.1l-7.2-3.8c-0.6-0.3-0.8-1.1-0.5-1.7s1.1-0.8,1.7-0.5l6.4,3.3l7.8-7.4
			c0.4-0.4,0.9-0.5,1.4-0.2l7.7,3.7l7.4-7.6c0.5-0.5,1.3-0.5,1.8,0c0.5,0.5,0.5,1.3,0,1.8l-8.1,8.2c-0.4,0.4-1,0.5-1.4,0.3l-7.7-3.7
			L90.4,78C90.2,78.2,89.9,78.3,89.6,78.3z"/>
	</g>
	<g>
		<g>
			<path class="st0" d="M100.3,112.1c-5.8,0-10.6-4.8-10.6-10.6c0-5.8,4.8-10.6,10.6-10.6c0.7,0,1.2,0.6,1.2,1.2v8.1h8.1
				c0.7,0,1.2,0.6,1.2,1.2C110.9,107.3,106.1,112.1,100.3,112.1z M99,93.5c-3.9,0.6-6.9,4-6.9,8c0,4.5,3.6,8.1,8.1,8.1
				c4,0,7.4-3,8-6.9h-8c-0.7,0-1.2-0.6-1.2-1.2V93.5z"/>
		</g>
		<g>
			<path class="st0" d="M102.5,89.7l0,9.4l9.4,0C111.8,93.8,107.6,89.7,102.5,89.7z"/>
		</g>
	</g>
	<g>
		<path class="st0" d="M100.1,172.4c-40.1,0-72.7-32.6-72.7-72.7c0-40.1,32.6-72.7,72.7-72.7s72.7,32.6,72.7,72.7
			C172.8,139.7,140.2,172.4,100.1,172.4z M100.1,30.9c-37.9,0-68.7,30.8-68.7,68.7s30.8,68.7,68.7,68.7c37.9,0,68.7-30.8,68.7-68.7
			S138,30.9,100.1,30.9z"/>
	</g>
</g>
</svg>
