<?xml version="1.0" encoding="utf-8"?>
<!-- Generator: Adobe Illustrator 26.3.1, SVG Export Plug-In . SVG Version: 6.00 Build 0)  -->
<svg version="1.1" id="Layer_1" xmlns="http://www.w3.org/2000/svg" xmlns:xlink="http://www.w3.org/1999/xlink" x="0px" y="0px"
	 viewBox="0 0 200 200" style="enable-background:new 0 0 200 200;" xml:space="preserve">
<style type="text/css">
	.st0{fill:#0067FC;}
</style>
<g>
	<g>
		<g>
			<path class="st0" d="M117.2,141.1h-42c-3,0-5.5-2.5-5.5-5.5V60.1c0-3,2.5-5.5,5.5-5.5H125c3,0,5.5,2.5,5.5,5.5v66.3
				c0,0.3-0.1,0.6-0.3,0.8l-12.1,13.5C117.9,140.9,117.5,141.1,117.2,141.1z M72.1,91v44.6c0,1.7,1.3,3,3,3h41.5l11.4-12.8V60.1
				c0-1.7-1.3-3-3-3H75.1c-1.7,0-3,1.3-3,3V91z"/>
		</g>
		<g>
			<path class="st0" d="M116.2,140.6c-0.7,0-1.2-0.6-1.2-1.2v-8.8c0-3,2.5-5.5,5.5-5.5h8.8c0.7,0,1.2,0.6,1.2,1.2s-0.6,1.2-1.2,1.2
				h-8.8c-1.7,0-3,1.3-3,3v8.8C117.4,140.1,116.9,140.6,116.2,140.6z"/>
		</g>
	</g>
	<g>
		<g>
			<path class="st0" d="M117.7,111h-27c-0.7,0-1.2-0.6-1.2-1.2s0.6-1.2,1.2-1.2h27c0.7,0,1.2,0.6,1.2,1.2S118.4,111,117.7,111z"/>
		</g>
		<g>
			<path class="st0" d="M117.7,118h-27c-0.7,0-1.2-0.6-1.2-1.2s0.6-1.2,1.2-1.2h27c0.7,0,1.2,0.6,1.2,1.2S118.4,118,117.7,118z"/>
		</g>
		<g>
			<path class="st0" d="M107.7,125.1h-17c-0.7,0-1.2-0.6-1.2-1.2s0.6-1.2,1.2-1.2h17c0.7,0,1.2,0.6,1.2,1.2S108.4,125.1,107.7,125.1
				z"/>
		</g>
		<g>
			<path class="st0" d="M83.8,112.4c-0.3,0-0.6-0.1-0.9-0.4l-1.4-1.4c-0.5-0.5-0.5-1.3,0-1.8s1.3-0.5,1.8,0l0.5,0.5l1.9-1.9
				c0.5-0.5,1.3-0.5,1.8,0s0.5,1.3,0,1.8l-2.8,2.8C84.4,112.3,84.1,112.4,83.8,112.4z"/>
		</g>
		<g>
			<path class="st0" d="M83.8,119.5c-0.3,0-0.6-0.1-0.9-0.4l-1.4-1.4c-0.5-0.5-0.5-1.3,0-1.8s1.3-0.5,1.8,0l0.5,0.5l1.9-1.9
				c0.5-0.5,1.3-0.5,1.8,0s0.5,1.3,0,1.8l-2.8,2.8C84.4,119.3,84.1,119.5,83.8,119.5z"/>
		</g>
		<g>
			<path class="st0" d="M83.8,125.9c-0.3,0-0.6-0.1-0.9-0.4l-1.4-1.4c-0.5-0.5-0.5-1.3,0-1.8c0.5-0.5,1.3-0.5,1.8,0l0.5,0.5l1.9-1.9
				c0.5-0.5,1.3-0.5,1.8,0s0.5,1.3,0,1.8l-2.8,2.8C84.4,125.8,84.1,125.9,83.8,125.9z"/>
		</g>
	</g>
	<g>
		<path class="st0" d="M100.1,172.4c-40.1,0-72.7-32.6-72.7-72.7c0-40.1,32.6-72.7,72.7-72.7s72.7,32.6,72.7,72.7
			C172.8,139.7,140.2,172.4,100.1,172.4z M100.1,30.9c-37.9,0-68.7,30.8-68.7,68.7s30.8,68.7,68.7,68.7c37.9,0,68.7-30.8,68.7-68.7
			S138,30.9,100.1,30.9z"/>
	</g>
	<g>
		<g id="Group_263_00000114045329362557104890000008799728434011485882_" transform="translate(-598.5 -520.001)">
			<g id="Group_259_00000093170677842126978510000002989716251936522372_" transform="translate(549.903 487.744)">
				<g id="Ellipse_9_00000163055938109371388420000016434435739518861232_">
					<path class="st0" d="M149.1,115.1c-3.5,0-6.3-2.8-6.3-6.3s2.8-6.3,6.3-6.3s6.3,2.8,6.3,6.3S152.6,115.1,149.1,115.1z
						 M149.1,105c-2.1,0-3.8,1.7-3.8,3.8s1.7,3.8,3.8,3.8c2.1,0,3.8-1.7,3.8-3.8S151.2,105,149.1,105z"/>
				</g>
				<g id="Path_16_00000160160339013326392100000007588343217113882549_">
					<path class="st0" d="M157.3,124.7c-0.7,0-1.2-0.6-1.2-1.2c0-3.9-3.1-7-7-7s-7,3.1-7,7c0,0.7-0.6,1.2-1.2,1.2s-1.2-0.6-1.2-1.2
						c0-5.2,4.3-9.5,9.5-9.5c5.2,0,9.5,4.3,9.5,9.5C158.6,124.2,158,124.7,157.3,124.7z"/>
				</g>
			</g>
		</g>
	</g>
	<g>
		<path class="st0" d="M100.1,100c-10.1,0-18.3-8.2-18.3-18.3s8.2-18.3,18.3-18.3s18.3,8.2,18.3,18.3S110.1,100,100.1,100z
			 M100.1,65.9c-8.7,0-15.8,7.1-15.8,15.8s7.1,15.8,15.8,15.8c8.7,0,15.8-7.1,15.8-15.8S108.8,65.9,100.1,65.9z"/>
	</g>
</g>
</svg>
