<?xml version="1.0" encoding="utf-8"?>
<!-- Generator: Adobe Illustrator 26.3.1, SVG Export Plug-In . SVG Version: 6.00 Build 0)  -->
<svg version="1.1" id="Layer_1" xmlns="http://www.w3.org/2000/svg" xmlns:xlink="http://www.w3.org/1999/xlink" x="0px" y="0px"
	 viewBox="0 0 200 200" style="enable-background:new 0 0 200 200;" xml:space="preserve">
<style type="text/css">
	.st0{fill:#0067FC;}
</style>
<g>
	<g>
		<g>
			<path class="st0" d="M117.2,142.9h-42c-3,0-5.5-2.5-5.5-5.5V61.9c0-3,2.5-5.5,5.5-5.5H125c3,0,5.5,2.5,5.5,5.5v66.3
				c0,0.3-0.1,0.6-0.3,0.8l-12.1,13.5C117.9,142.8,117.5,142.9,117.2,142.9z M72.1,92.8v44.6c0,1.7,1.3,3,3,3h41.5l11.4-12.8V61.9
				c0-1.7-1.3-3-3-3H75.1c-1.7,0-3,1.3-3,3V92.8z"/>
		</g>
		<g>
			<path class="st0" d="M116.2,142.5c-0.7,0-1.2-0.6-1.2-1.2v-8.8c0-3,2.5-5.5,5.5-5.5h8.8c0.7,0,1.2,0.6,1.2,1.2s-0.6,1.2-1.2,1.2
				h-8.8c-1.7,0-3,1.3-3,3v8.8C117.4,141.9,116.9,142.5,116.2,142.5z"/>
		</g>
	</g>
	<g>
		<g>
			<path class="st0" d="M116.2,118.5h-27c-0.7,0-1.2-0.6-1.2-1.2s0.6-1.2,1.2-1.2h27c0.7,0,1.2,0.6,1.2,1.2S116.9,118.5,116.2,118.5
				z"/>
		</g>
		<g>
			<path class="st0" d="M116.2,125.5h-27c-0.7,0-1.2-0.6-1.2-1.2s0.6-1.2,1.2-1.2h27c0.7,0,1.2,0.6,1.2,1.2S116.9,125.5,116.2,125.5
				z"/>
		</g>
		<g>
			<path class="st0" d="M106.2,132.5h-17c-0.7,0-1.2-0.6-1.2-1.2s0.6-1.2,1.2-1.2h17c0.7,0,1.2,0.6,1.2,1.2S106.9,132.5,106.2,132.5
				z"/>
		</g>
		<g>
			<path class="st0" d="M82.2,119.9L82.2,119.9c-0.3,0-0.6-0.1-0.9-0.4l-1.4-1.4c-0.5-0.5-0.5-1.3,0-1.8s1.3-0.5,1.8,0l0.5,0.5
				l1.9-1.9c0.5-0.5,1.3-0.5,1.8,0s0.5,1.3,0,1.8l-2.8,2.8C82.9,119.7,82.6,119.9,82.2,119.9z"/>
		</g>
		<g>
			<path class="st0" d="M82.2,126.9c-0.3,0-0.6-0.1-0.9-0.4l-1.4-1.4c-0.5-0.5-0.5-1.3,0-1.8c0.5-0.5,1.3-0.5,1.8,0l0.5,0.5l1.9-1.9
				c0.5-0.5,1.3-0.5,1.8,0s0.5,1.3,0,1.8l-2.8,2.8C82.9,126.8,82.5,126.9,82.2,126.9z"/>
		</g>
		<g>
			<path class="st0" d="M82.2,133.4L82.2,133.4c-0.3,0-0.6-0.1-0.9-0.4l-1.4-1.4c-0.5-0.5-0.5-1.3,0-1.8s1.3-0.5,1.8,0l0.5,0.5
				l1.9-1.9c0.5-0.5,1.3-0.5,1.8,0s0.5,1.3,0,1.8l-2.8,2.8C82.9,133.2,82.6,133.4,82.2,133.4z"/>
		</g>
	</g>
	<g>
		<path class="st0" d="M100.1,172.4c-40.1,0-72.7-32.6-72.7-72.7c0-40.1,32.6-72.7,72.7-72.7s72.7,32.6,72.7,72.7
			C172.8,139.7,140.2,172.4,100.1,172.4z M100.1,30.9c-37.9,0-68.7,30.8-68.7,68.7s30.8,68.7,68.7,68.7c37.9,0,68.7-30.8,68.7-68.7
			S138,30.9,100.1,30.9z"/>
	</g>
	<g>
		<g>
			<g>
				<path class="st0" d="M123.8,77.8c-0.4,0-0.5,0.4-0.6,0.6c0,0.2,0.2,0.5,0.3,0.8c-0.1-0.1-0.3-0.2-0.4-0.3
					c-0.1,0-0.2-0.1-0.2-0.1c-0.4,0.2-0.9,0.2-1.2,0.7c-0.2,0.3-0.4,0.6-0.7,0.7c-0.4,0.2-0.4,0.5-0.2,0.8c0.2,0.3-0.1,0.6-0.1,0.9
					c0,0.2-0.3,0.3-0.4,0.5c-0.1,0.1,0,0.3,0,0.4c0,0.1,0.1,0.3,0.1,0.4c-0.2,0.6-0.5,1.2-0.7,1.8c-0.4,0-0.8-0.1-1.1-0.1
					c0.1,0.4,0.1,0.8,0.2,1.3c0,0.1,0,0.3-0.1,0.3c-0.4,0.2-0.4,0.5-0.2,0.7c0.3,0.5,0.1,0.8-0.2,1.1c-0.1-0.2-0.3-0.4-0.4,0.1
					c-0.3-1-0.5-1.9-0.8-2.8c-0.1,0-0.3,0.1-0.3,0.1c-0.1,0.2-0.2,0.4-0.2,0.6c0,0.1,0,0.2,0,0.3c0,0.1-0.1,0.2-0.2,0.3
					c0,0-0.2-0.1-0.3-0.1c-0.1-0.2-0.3-0.3-0.4-0.5c-0.3-0.7-0.1-1.2,0.6-1.4c0.4-0.1,0.7-0.5,0.6-0.9c0-0.1,0-0.2,0-0.3
					c0.1,0,0.2,0,0.3,0.1c0,0,0-0.1,0-0.1c-0.3-0.2-0.6-0.4-1-0.3c-0.7,0.1-1.5,0.2-2.2,0.2c-0.3,0-0.6-0.1-0.9-0.1
					c-0.1-0.5,0.1-1-0.4-1.5c0,0.2,0,0.3,0,0.4c-0.6,0.3-0.6-0.5-1.1-0.5c0.1,0.1,0.1,0.1,0.2,0.2c-0.5,0.3-0.6-0.4-1-0.4
					c0,0-0.1,0.1-0.1,0.1c0.1,0,0.2,0.1,0.4,0.2c-0.2,0.2-0.3,0.3-0.5,0.5c0,0.1,0,0.3-0.1,0.4c0.3,0.2,0.7,0.4,1,0.6
					c0,0,0-0.1,0.1-0.1c0,0,0,0,0,0.1c0.2,0.4,0.2,0.4-0.2,0.5c-0.1,0-0.2,0.1-0.3,0.2c-0.1,0.2-0.1,0.3-0.4,0.2
					c-0.3,0.7-0.2,0.8,0.9,1c0,0.3,0.2,0.6-0.1,0.8c0,0,0,0.1,0,0.1c0.1,0.2,0.3,0.3,0.3,0.5c0,0.2,0,0.4,0.2,0.4
					c0.2,0.7,0.3,1.4,0.4,2c-0.1,0-0.1,0.1-0.1,0.1c-0.4-0.2-0.6,0-0.9,0.2c0,0.1-0.3-0.1-0.5-0.2c-0.2,0.5-0.7,0.6-1.2,0.8
					c-0.5,0.2-0.6,0.6-0.4,1c0.1,0.1,0.1,0.2,0,0.3c-0.1,0.2-0.1,0.4-0.2,0.6c-0.2,0.3-0.4,0.5-0.7,0.7c-0.4,0.2-0.8,0.3-1.2,0.5
					c0-0.1,0.1-0.2,0.1-0.3c-0.4,0.1-0.6,0.3-0.6,0.6c0,0.1,0,0.2-0.1,0.2c-0.4,0.6-0.9,1.2-1.4,1.7c0,0,0,0,0,0
					c-0.6,0.5-1.3,1-1.9,1.6c-0.2,0.2-0.5,0.3-0.7,0.5c-0.1,0.1-0.3,0.3-0.1,0.6c0.1,0.1,0,0.4-0.3,0.5c-0.4,0.1-0.7,0.3-1.1,0.3
					c-0.1,0-0.2,0.1-0.3,0.2c-0.1,0.1-0.2,0.3-0.2,0.5c-0.1,0.2-0.2,0.6-0.5,0.1c0,0-0.5,0.1-0.6,0.3c-0.4,0.5-0.6,1.1-0.3,1.7
					c0.1,0.2,0,0.4,0,0.6c0,0.1,0,0.2,0,0.3c0.1,0.4,0.3,0.8,0.3,1.2c0,0.5-0.1,0.9-0.2,1.4c-0.1,0.2-0.2,0.4-0.3,0.6
					c-0.2,0.4-0.3,0.9-0.2,1.4c0.1,0.5,0.1,1.1,0.1,1.7c-0.2,0-0.4,0-0.6,0c-0.3,0-0.4,0.1-0.5,0.4c0,0.2-0.2,0.3-0.3,0.5
					c-0.2,0.3-0.3,0.5,0,0.8c-0.4,0.1-0.7,0.2-1.1,0.3c-0.2,0.1-0.4,0.2-0.4,0.5c0,0.5-0.6,1.1-1.1,1.1c-0.1,0-0.3-0.1-0.4-0.1
					c-0.9-0.7-1.5-1.7-1.7-2.9c0-0.3-0.2-0.6-0.3-0.9c-0.3-0.7-0.5-1.4-0.8-2c-0.3-0.5-0.7-0.9-0.9-1.5c-0.1-0.6-0.2-1.1-0.4-1.7
					c-0.1-0.4-0.3-0.7-0.4-1c-0.1-0.4-0.3-0.9-0.6-1.2c-0.1-0.1-0.1-0.3-0.2-0.5c-0.2-0.4-0.4-0.8-0.5-1.3c-0.2-0.9-0.3-1.7-0.5-2.6
					c-0.1-0.5-0.2-1-0.3-1.5c0-0.2,0.1-0.5,0.1-0.7c0,0-0.1,0.1-0.2,0.1c-0.1-0.9-0.4-1.7,0.1-2.5c0.2-0.4,0.1-0.9-0.3-1.2
					c0.1-0.2,0.2-0.4,0.4-0.7c-0.1,0-0.2,0-0.4-0.1c0.1-0.1,0.1-0.3,0.2-0.4c-0.2-0.1-0.2-0.3-0.1-0.4c0.1,0,0.2,0,0.4,0
					c0,0,0-0.1,0-0.1c-0.3,0-0.6-0.1-0.8,0c-0.2,0.1-0.3,0.4-0.4,0.7c0.4,0.3,0.3,0.8-0.1,1.1c-0.4,0.2-0.9,0.4-1.4,0.5
					c-0.5,0.2-0.9,0-1.2-0.3c-0.6-0.6-1.1-1.2-1.6-1.9c0,0-0.1-0.1-0.1-0.2c0-0.1,0-0.2,0-0.3c0,0,0.1,0,0.1,0c0,0.1,0,0.2,0,0.2
					c1-0.2,1.8-0.5,2.3-1.4c-0.3-0.1-0.6-0.1-0.8,0.3c-0.2,0.3-1.1,0.3-1.5,0.1c-0.5-0.2-0.8-0.6-0.9-1.2c0.1-0.1,0.2-0.1,0.3-0.3
					c-0.3,0.1-0.5,0.2-0.7,0.3c0-0.1,0-0.1,0-0.2c0.1-0.1,0.1-0.3,0.2-0.3c0.2-0.1,0.4-0.1,0.7-0.2c0-0.1,0.1-0.2,0.1-0.4
					c0.5,0.1,1,0.2,1.5,0.3c0.1,0,0.3,0,0.4-0.1c0.2-0.1,0.4-0.2,0.7-0.3c0.2,0.6,0.5,0.2,0.8,0.1c-0.1-0.4-0.1-0.8-0.2-1.1
					c-0.1-0.4-0.3-0.7-0.4-1.1c-0.5,0.1-0.8-0.2-0.6-0.8c0-0.1,0-0.2,0-0.3c0-0.3,0-0.4-0.3-0.4c-0.5,0-0.8-0.4-0.5-0.8
					c0.3-0.5,0.7-0.9,1.1-1.3c0.2-0.3,0.4-0.2,0.6,0.1c0.1,0.2,0.2,0.3,0.4,0.2c0.3-0.1,0.6-0.1,0.9-0.2c0.2,0,0.4-0.1,0.5-0.4
					c0.2-0.4,0.4-0.7,0.6-1c0.1-0.1,0.2-0.1,0.3-0.2c0.5-0.2,0.8-0.5,1-1c0-0.1,0.1-0.3,0.1-0.4c0.1-0.3,0.2-0.5,0.5-0.5
					c0.2,0,0.4-0.1,0.3-0.5c0-0.1,0.1-0.3,0.2-0.4c0.5-0.5,0.9-1,0.7-1.8c-0.1-0.2,0-0.5,0.4-0.6c0.3,0,0.5-0.2,0.8-0.3
					c0,0,0-0.1,0-0.1c-0.2-0.1-0.4-0.3-0.5-0.3c-0.4,0.1-0.5-0.1-0.5-0.4c-0.4-0.2-0.7-0.4-1-0.5c-0.3-0.1-0.4-0.3-0.4-0.5
					c0-0.5-0.1-0.9-0.1-1.4c-0.1-0.5,0-0.9,0.4-1.1c0.3-0.1,0.4-0.3,0.4-0.5c0-0.1-0.3-0.2-0.4-0.4c0-0.1,0-0.2,0-0.3
					c-0.3-0.1-0.6-0.2-0.7-0.4C89,67,88.9,67.1,88.7,67c-0.1,0-0.2-0.1-0.3-0.1c0.1-0.2-0.2-0.4,0.1-0.6c0.3-0.2,0.5-0.4,0.8-0.7
					c0.2,0,0.5,0,0.8,0.1c-0.1-0.1-0.1-0.2-0.2-0.3c0.5,0.2,0.8-0.1,1.2-0.3c0.3,0,0.7,0,1,0c0,0.5,0.5,0.6,0.8,0.9
					c0.4,0.4,1,0.4,1.1,1.1c0,0.1,0.2,0.1,0.3,0.1c0.1,0.1,0.3,0.1,0.4,0.2c0.1,0.1,0.1,0.2,0.2,0.4c0.3,0,0.7,0,1-0.3
					c0.3-0.2,0.6-0.5,1.1-0.4c0,0,0.1,0,0.1,0c0.2-0.2,0.3-0.2,0.5,0c0.1,0.1,0.4,0,0.5,0.1c0.2,0.2,0.5,0.4,0.5,0.6
					c0,0.3-0.1,0.7-0.2,1c-0.1,0.3-0.4,0.5-0.7,0.7c0.2,0.7-0.5,0.5-0.9,0.7c0.1,0.3,0.3,0.5,0,0.7c0.1,0.1,0.2,0.3,0.3,0.4
					c0.1,0.1,0.2,0,0.3,0.1c0.1,0.3,0.2,0.5,0.2,0.8c0,0.1,0,0.3-0.1,0.4c-0.2,0.1-0.5,0.2-0.7,0.4c-0.1-0.2-0.2-0.3-0.2-0.5
					c-0.1,0.1-0.2,0.2-0.4,0.3c0.4,0.6,0.5,1.3,0.6,2.1c0.1-0.2,0.2-0.3,0.3-0.4c0.1,0.2,0.2,0.3,0.3,0.5c0.1,0.1,0.3,0.3,0.4,0.3
					c0.4,0.1,0.7,0.2,0.9,0.6c0,0.1,0.2,0.1,0.3,0.2c0.3,0.1,0.6,0.3,0.8,0.4c-0.3,0.4-0.8,0.5-0.9,1c-0.1,0.4-0.3,0.7-0.4,1.1
					c0,0.1,0,0.2,0.1,0.3c0.1,0.1,0.3,0.2,0.4,0.4c0.1-0.1,0.1-0.1,0.1-0.2c0.3,0.1,0.6,0.2,0.8,0.4c0.5,0.6,1.3,0.6,2,1
					c0.2,0.1,0.4,0,0.5,0.3c0,0,0.1,0.1,0.2,0.1c0.3,0,0.5,0.3,0.9,0c0.1-0.1,0.5,0.1,0.7,0c0.3-0.1,0.6,0.2,0.9,0.1
					c0,0,0.2,0.1,0.2,0.2c0,0.2,0.1,0.3,0.4,0.4c0.1,0,0.3,0.1,0.4,0.2c0.2,0.2,0.3,0.2,0.5,0.1c0.1-0.1,0.3,0,0.3,0
					c0.1,0.4,0.3,0.3,0.6,0.2c0.2,0,0.5,0,0.7,0.1c0.3,0.1,0.5,0.1,0.7-0.1c0.4,0.6,1-0.1,1.5,0.2c0-0.4,0.1-0.7,0-1
					c-0.2-0.4-0.2-0.7-0.1-1c0-0.1,0.1-0.2,0.1-0.4c0-0.3,0.5-0.6,0.8-0.5c0.1,0,0.2,0.1,0.2,0.2c0,0.4,0.1,0.8,0.1,1.1
					c-0.1,0.3,0.1,0.5,0.2,0.5c0.5,0.1,1,0.3,1.5,0.2c0.4-0.1,0.9-0.2,1.3-0.2c0.6-0.1,1.2-0.2,1.8-0.3c0-0.2-0.1-0.4-0.1-0.6
					c-0.1-0.1-0.2-0.3-0.3-0.3c-0.4,0-0.5-0.2-0.4-0.5c0.4,0,0.7-0.1,1.1-0.1c0.2,0,0.4-0.3,0.4-0.3c-0.1-0.3,0.1-0.3,0.3-0.4
					c0.2-0.1,0.4-0.2,0.5-0.5c0.1-0.3,0.3-0.4,0.6-0.4c0.2,0,0.4-0.1,0.5-0.2c0.2-0.4,0.5-0.8,0.8-1c0.5,0.1,0.9,0.2,1.1,0.2
					c0.4-0.3,0.6-0.6,0.9-0.8c0.2,0.1,0.4,0.2,0.6,0.3c-0.1,0.1-0.2,0.3-0.3,0.4c0,0,0,0,0.1,0c0.1-0.1,0.3-0.2,0.3-0.2
					c0.5,0.4,0,0.8,0,1.1c0.2,0,0.4,0,0.6,0c0.1,0,0.3,0,0.4,0c0.3,0,0.5,0,0.6,0.4C123.8,77.6,123.8,77.7,123.8,77.8z"/>
			</g>
		</g>
	</g>
</g>
</svg>
