<?xml version="1.0" encoding="utf-8"?>
<!-- Generator: Adobe Illustrator 26.4.0, SVG Export Plug-In . SVG Version: 6.00 Build 0)  -->
<svg version="1.1" id="Layer_1" xmlns="http://www.w3.org/2000/svg" xmlns:xlink="http://www.w3.org/1999/xlink" x="0px" y="0px"
	 viewBox="0 0 200 200" style="enable-background:new 0 0 200 200;" xml:space="preserve">
<style type="text/css">
	.st0{fill:#0067FC;}
</style>
<g>
	<g>
		<path class="st0" d="M100.1,172.6c-40.1,0-72.7-32.6-72.7-72.7S60,27.2,100.1,27.2s72.7,32.6,72.7,72.7S140.2,172.6,100.1,172.6z
			 M100.1,31.2c-37.9,0-68.7,30.8-68.7,68.7c0,37.9,30.8,68.7,68.7,68.7c37.9,0,68.7-30.8,68.7-68.7C168.8,62,138,31.2,100.1,31.2z"
			/>
	</g>
	<g>
		<g>
			<path class="st0" d="M128.2,134.9H71.9c-0.7,0-1.4-0.6-1.4-1.4v-11.4c0-0.7,0.6-1.4,1.4-1.4h56.2c0.7,0,1.4,0.6,1.4,1.4v11.4
				C129.5,134.3,128.9,134.9,128.2,134.9z M73.3,132.2h53.5v-8.7H73.3V132.2z"/>
		</g>
		<g>
			<g id="Group_263_00000092439580850774275450000017621774774939295893_" transform="translate(-598.5 -520.001)">
				<g id="Group_259_00000132790490708372477090000001657178269005098391_" transform="translate(549.903 487.744)">
					<g id="Ellipse_9_00000157298578623086735450000016134858450563223690_">
						<path class="st0" d="M148.7,123.7c-7.3,0-13.3-6-13.3-13.3s6-13.3,13.3-13.3s13.3,6,13.3,13.3S156,123.7,148.7,123.7z
							 M148.7,99.8c-5.8,0-10.6,4.8-10.6,10.6c0,5.8,4.8,10.6,10.6,10.6s10.6-4.8,10.6-10.6C159.2,104.6,154.5,99.8,148.7,99.8z"/>
					</g>
					<g id="Path_16_00000147210721653952790910000002513024015089749392_">
						<path class="st0" d="M168.1,146.4c-0.7,0-1.4-0.6-1.4-1.4c0-10-8.1-18.1-18.1-18.1c-10,0-18.1,8.1-18.1,18.1
							c0,0.7-0.6,1.4-1.4,1.4s-1.4-0.6-1.4-1.4c0-11.5,9.3-20.8,20.8-20.8c11.5,0,20.8,9.3,20.8,20.8
							C169.5,145.8,168.9,146.4,168.1,146.4z"/>
					</g>
				</g>
			</g>
		</g>
		<g>
			<g>
				<path class="st0" d="M86.6,126.1l-1.1,1.5v0l1.8-0.2v0.8l-1.8-0.2v0l1.2,1.4l-0.8,0.4l-0.7-1.7h0l-0.8,1.7l-0.7-0.4l1.1-1.5v0
					l-1.8,0.2v-0.8l1.8,0.2v0l-1.1-1.5l0.7-0.4l0.7,1.7h0l0.7-1.7L86.6,126.1z"/>
			</g>
			<g>
				<path class="st0" d="M91.6,126.1l-1.1,1.5v0l1.8-0.2v0.8l-1.8-0.2v0l1.2,1.4l-0.8,0.4l-0.7-1.7h0l-0.8,1.7l-0.7-0.4l1.1-1.5v0
					l-1.8,0.2v-0.8l1.8,0.2v0l-1.1-1.5l0.7-0.4l0.7,1.7h0l0.7-1.7L91.6,126.1z"/>
			</g>
			<g>
				<path class="st0" d="M96.5,126.1l-1.1,1.5v0l1.8-0.2v0.8l-1.8-0.2v0l1.2,1.4l-0.8,0.4l-0.7-1.7h0l-0.8,1.7l-0.7-0.4l1.1-1.5v0
					l-1.8,0.2v-0.8l1.8,0.2v0l-1.1-1.5l0.7-0.4l0.7,1.7h0l0.7-1.7L96.5,126.1z"/>
			</g>
			<g>
				<path class="st0" d="M101.5,126.1l-1.1,1.5v0l1.8-0.2v0.8l-1.8-0.2v0l1.2,1.4l-0.8,0.4l-0.7-1.7h0l-0.8,1.7l-0.7-0.4l1.1-1.5v0
					l-1.8,0.2v-0.8l1.8,0.2v0l-1.1-1.5l0.7-0.4l0.7,1.7h0l0.7-1.7L101.5,126.1z"/>
			</g>
			<g>
				<path class="st0" d="M106.5,126.1l-1.1,1.5v0l1.8-0.2v0.8l-1.8-0.2v0l1.2,1.4l-0.8,0.4l-0.7-1.7h0l-0.8,1.7l-0.7-0.4l1.1-1.5v0
					l-1.8,0.2v-0.8l1.8,0.2v0l-1.1-1.5l0.7-0.4l0.7,1.7h0l0.7-1.7L106.5,126.1z"/>
			</g>
			<g>
				<path class="st0" d="M111.5,126.1l-1.1,1.5v0l1.8-0.2v0.8l-1.8-0.2v0l1.2,1.4l-0.8,0.4l-0.7-1.7h0l-0.8,1.7l-0.7-0.4l1.1-1.5v0
					l-1.8,0.2v-0.8l1.8,0.2v0l-1.1-1.5l0.7-0.4l0.7,1.7h0l0.7-1.7L111.5,126.1z"/>
			</g>
			<g>
				<path class="st0" d="M116.5,126.1l-1.1,1.5v0l1.8-0.2v0.8l-1.8-0.2v0l1.2,1.4l-0.8,0.4l-0.7-1.7h0l-0.8,1.7l-0.7-0.4l1.1-1.5v0
					l-1.8,0.2v-0.8l1.8,0.2v0l-1.1-1.5l0.7-0.4l0.7,1.7h0l0.7-1.7L116.5,126.1z"/>
			</g>
		</g>
	</g>
</g>
</svg>
