<svg xmlns="http://www.w3.org/2000/svg" xmlns:xlink="http://www.w3.org/1999/xlink" viewBox="0 0 112.08 149.46"><defs><style>.cls-1{fill:none;}.cls-2{clip-path:url(#clip-path);}.cls-3{fill:#f20000;}.cls-4{fill:#fff;}</style><clipPath id="clip-path" transform="translate(-18.96 -0.27)"><rect class="cls-1" width="150" height="150"/></clipPath></defs><g id="Layer_2" data-name="Layer 2"><g id="Layer_1-2" data-name="Layer 1"><g class="cls-2"><polygon class="cls-3" points="97.91 139.9 94.41 139.9 94.41 131.31 89.68 131.31 89.68 139.9 86.19 139.9 92.05 145.76 97.91 139.9"/><polygon class="cls-3" points="94.62 144.31 92.05 146.88 89.47 144.31 82.07 144.31 82.07 149.46 102.02 149.46 102.02 144.31 94.62 144.31"/><path class="cls-3" d="M120.9,96.58v18.15c0,2.22,0,4.44,0,6.66,0,3.42-2,5.47-5.42,5.5-5.14,0-10.28,0-15.42,0H35c-3.94,0-5.88-1.94-5.89-5.87q0-11,0-22.08V96.58c-1.06,0-2,0-3,0A6.9,6.9,0,0,1,19,89.42q0-18.26,0-36.52a7,7,0,0,1,7.25-7.29H29c0-.64.08-1.21.08-1.78q0-18.91,0-37.82C29.1,2.26,31,.28,34.78.28c19.47,0,39,0,58.43,0a4.6,4.6,0,0,1,3.06,1.38Q108.09,15,119.71,28.43a5.19,5.19,0,0,1,1.14,3c.13,4,.05,8,.05,12v2.13c1.12,0,2.08,0,3,0A6.93,6.93,0,0,1,131,52.73q.06,18.27,0,36.52c0,4.46-2.87,7.25-7.33,7.33C122.84,96.59,122,96.58,120.9,96.58ZM34,45.46h81.9V33.12H114q-9.42,0-18.83,0c-2.83,0-3.55-.73-3.55-3.56q0-10.86,0-21.74V5.34H34Zm82,51.27H34.07V120.5H116ZM62.14,72.36c0,5.62,0,11.24,0,16.86,0,1,.16,1.54,1.3,1.53,4.85,0,9.74.36,14.55-.12,7-.7,12.69-3.81,15.53-10.76A23,23,0,0,0,95,70.66C94.9,61.79,89.58,55.51,80.83,54c-5.54-1-11.08-.59-16.64-.15-1.79.15-2.13.83-2.1,2.49C62.21,61.65,62.14,67,62.14,72.36ZM38.57,77.7H40.5a22.3,22.3,0,0,0,9.35-1.58,11.54,11.54,0,0,0,7-12.18c-.5-5.23-3.75-8.81-9.14-10s-10.53-.59-15.82-.13c-1.36.13-1.79.55-1.79,2,.06,11,0,21.94,0,32.91,0,.63.06,1.27.09,1.92h8.35Zm70.46,13V75.82h13.15V68.89H109.1v-8.4h14V53.76H100.58V90.68Z" transform="translate(-18.96 -0.27)"/><path class="cls-4" d="M34,45.46V5.34H91.64V7.82q0,10.88,0,21.74c0,2.83.72,3.55,3.55,3.56q9.42,0,18.83,0h1.91V45.46Z" transform="translate(-18.96 -0.27)"/><path class="cls-4" d="M116,96.73V120.5H34.07V96.73Z" transform="translate(-18.96 -0.27)"/><path class="cls-4" d="M62.14,72.36c0-5.35.07-10.71,0-16.06,0-1.66.31-2.34,2.1-2.49,5.56-.44,11.1-.84,16.64.15C89.58,55.51,94.9,61.79,95,70.66a23,23,0,0,1-1.52,9.21C90.66,86.82,85,89.93,78,90.63c-4.81.48-9.7.09-14.55.12-1.14,0-1.3-.57-1.3-1.53C62.15,83.6,62.14,78,62.14,72.36Zm8.6,12c6.29.89,11.21-1,13.55-5.14,2.56-4.49,2.29-11.86-.56-15.44-2.64-3.31-8.44-4.86-13-3.41Z" transform="translate(-18.96 -0.27)"/><path class="cls-4" d="M38.57,77.7V90.64H30.22c0-.65-.09-1.29-.09-1.92,0-11,0-21.94,0-32.91,0-1.41.43-1.83,1.79-2,5.29-.46,10.56-1,15.82.13s8.64,4.73,9.14,10a11.54,11.54,0,0,1-7,12.18A22.3,22.3,0,0,1,40.5,77.7Zm0-12.31c0,1.52,0,3,0,4.54,0,.39.47,1,.79,1.09a9.46,9.46,0,0,0,6.72-1.13,5.41,5.41,0,0,0,2.33-5.51,4.45,4.45,0,0,0-3.7-4.19,24.64,24.64,0,0,0-5.3-.21c-.3,0-.8.76-.83,1.2C38.49,62.58,38.56,64,38.55,65.39Z" transform="translate(-18.96 -0.27)"/><path class="cls-4" d="M109,90.68h-8.45V53.76h22.55v6.73h-14v8.4h13.08v6.93H109Z" transform="translate(-18.96 -0.27)"/><path class="cls-3" d="M70.74,84.32v-24c4.55-1.45,10.35.1,13,3.41,2.85,3.58,3.12,10.95.56,15.44C82,83.3,77,85.21,70.74,84.32Z" transform="translate(-18.96 -0.27)"/><path class="cls-3" d="M38.56,65.39c0-1.4-.07-2.81,0-4.21,0-.44.53-1.19.83-1.2a24.64,24.64,0,0,1,5.3.21,4.45,4.45,0,0,1,3.7,4.19,5.41,5.41,0,0,1-2.33,5.51A9.46,9.46,0,0,1,39.38,71c-.32,0-.76-.7-.79-1.09C38.5,68.42,38.55,66.91,38.56,65.39Z" transform="translate(-18.96 -0.27)"/></g></g></g></svg>