<?xml version="1.0" encoding="utf-8"?>
<!-- Generator: Adobe Illustrator 26.4.0, SVG Export Plug-In . SVG Version: 6.00 Build 0)  -->
<svg version="1.1" id="Layer_1" xmlns="http://www.w3.org/2000/svg" xmlns:xlink="http://www.w3.org/1999/xlink" x="0px" y="0px"
	 viewBox="0 0 200 200" style="enable-background:new 0 0 200 200;" xml:space="preserve">
<style type="text/css">
	.st0{fill:#0067FC;}
</style>
<g>
	<g>
		<g>
			<g id="Group_263_00000160153973664182179050000010437259199866072749_" transform="translate(-598.5 -520.001)">
				<g id="Group_259_00000035526581860357021200000007641691692953307071_" transform="translate(549.903 487.744)">
					<g id="Ellipse_9_00000111167282242219369780000014539492505343927473_">
						<path class="st0" d="M147.5,121.8c-5.9,0-10.7-4.8-10.7-10.7c0-5.9,4.8-10.7,10.7-10.7s10.7,4.8,10.7,10.7
							C158.3,117,153.4,121.8,147.5,121.8z M147.5,102.4c-4.8,0-8.7,3.9-8.7,8.7s3.9,8.7,8.7,8.7s8.7-3.9,8.7-8.7
							S152.3,102.4,147.5,102.4z"/>
					</g>
					<g id="Path_16_00000137124155079693473170000015358354270476570802_">
						<path class="st0" d="M163.3,140.2c-0.6,0-1-0.5-1-1c0-8.1-6.6-14.8-14.8-14.8c-8.1,0-14.8,6.6-14.8,14.8c0,0.6-0.5,1-1,1
							s-1-0.5-1-1c0-9.3,7.5-16.8,16.8-16.8s16.8,7.5,16.8,16.8C164.4,139.7,163.9,140.2,163.3,140.2z"/>
					</g>
				</g>
			</g>
		</g>
		<g>
			<g>
				<path class="st0" d="M98.5,127.5c-4.4,0-8.3-2.3-10.5-6.1H65.5c-0.2,0-0.4-0.1-0.6-0.2L59,117c-0.3-0.2-0.4-0.5-0.4-0.8
					c0-0.3,0.2-0.6,0.4-0.8l5.9-4.2c0.2-0.1,0.4-0.2,0.6-0.2h3.1c0.3,0,0.6,0.1,0.8,0.3l1.7,1.8l1.6-1.8c0.2-0.2,0.5-0.3,0.8-0.3
					c0.3,0,0.6,0.1,0.8,0.3L76,113l1.6-1.8c0.2-0.2,0.5-0.3,0.8-0.4c0.3,0,0.6,0.1,0.8,0.4l1.4,1.7l1.5-1.7c0.2-0.2,0.5-0.4,0.8-0.4
					h4.4c1.8-4.6,6.3-7.6,11.3-7.6c6.7,0,12.1,5.4,12.1,12.1S105.2,127.5,98.5,127.5z M65.9,119.3h22.8c0.4,0,0.7,0.2,0.9,0.6
					c1.7,3.4,5.2,5.5,8.9,5.5c5.5,0,10-4.5,10-10s-4.5-10-10-10c-4.3,0-8.2,2.8-9.5,6.9c-0.1,0.4-0.5,0.7-1,0.7h-4.7l-1.9,2.3
					c-0.2,0.2-0.5,0.4-0.8,0.4c-0.3,0-0.6-0.1-0.8-0.4l-1.4-1.7l-1.5,1.7c-0.2,0.2-0.5,0.3-0.8,0.4c-0.3,0-0.6-0.1-0.8-0.3l-1.7-1.8
					l-1.6,1.8c-0.2,0.2-0.5,0.3-0.8,0.3c-0.3,0-0.6-0.1-0.8-0.3l-2.2-2.3h-2.3l-4.5,3.2L65.9,119.3z"/>
			</g>
			<g>
				<path class="st0" d="M98.9,120.3c-2.7,0-4.9-2.2-4.9-4.9s2.2-4.9,4.9-4.9s4.9,2.2,4.9,4.9S101.6,120.3,98.9,120.3z M98.9,112.5
					c-1.6,0-2.8,1.3-2.8,2.8s1.3,2.8,2.8,2.8c1.6,0,2.8-1.3,2.8-2.8S100.5,112.5,98.9,112.5z"/>
			</g>
		</g>
	</g>
	<g>
		<path class="st0" d="M100.1,172.6c-40.1,0-72.7-32.6-72.7-72.7S60,27.2,100.1,27.2s72.7,32.6,72.7,72.7S140.2,172.6,100.1,172.6z
			 M100.1,31.2c-37.9,0-68.7,30.8-68.7,68.7c0,37.9,30.8,68.7,68.7,68.7c37.9,0,68.7-30.8,68.7-68.7C168.8,62,138,31.2,100.1,31.2z"
			/>
	</g>
</g>
</svg>
