<?xml version="1.0" encoding="utf-8"?>
<!-- Generator: Adobe Illustrator 26.3.1, SVG Export Plug-In . SVG Version: 6.00 Build 0)  -->
<svg version="1.1" id="Layer_1" xmlns="http://www.w3.org/2000/svg" xmlns:xlink="http://www.w3.org/1999/xlink" x="0px" y="0px"
	 viewBox="0 0 200 200" style="enable-background:new 0 0 200 200;" xml:space="preserve">
<style type="text/css">
	.st0{fill:#0067FC;}
</style>
<g>
	<g>
		<g id="Group_263_00000143593726441979474610000002704767492439118721_" transform="translate(-598.5 -520.001)">
			<g id="Group_259_00000121268005404346449080000000305436375031830450_" transform="translate(549.903 487.744)">
				<g id="Ellipse_9_00000000932852501932112030000002417294232416725909_">
					<path class="st0" d="M148.7,117.3c-3.6,0-6.6-3-6.6-6.6s3-6.6,6.6-6.6s6.6,3,6.6,6.6S152.3,117.3,148.7,117.3z M148.7,106.2
						c-2.4,0-4.4,2-4.4,4.4s2,4.4,4.4,4.4c2.4,0,4.4-2,4.4-4.4S151.1,106.2,148.7,106.2z"/>
				</g>
				<g id="Path_16_00000118363900727651597830000002613917482192086463_">
					<path class="st0" d="M157.6,127.7c-0.6,0-1.1-0.5-1.1-1.1c0-4.4-3.5-7.9-7.9-7.9s-7.9,3.5-7.9,7.9c0,0.6-0.5,1.1-1.1,1.1
						s-1.1-0.5-1.1-1.1c0-5.6,4.5-10.1,10.1-10.1c5.6,0,10.1,4.5,10.1,10.1C158.7,127.2,158.2,127.7,157.6,127.7z"/>
				</g>
			</g>
		</g>
	</g>
	<g>
		<g>
			<path class="st0" d="M113.3,122.3H85.1c-0.7,0-1.2-0.6-1.2-1.2s0.6-1.2,1.2-1.2h28.2c0.7,0,1.2,0.6,1.2,1.2
				S114,122.3,113.3,122.3z"/>
		</g>
		<g>
			<g>
				<path class="st0" d="M115.1,116.5h-30c-0.7,0-1.2-0.6-1.2-1.2s0.6-1.2,1.2-1.2h30c0.7,0,1.2,0.6,1.2,1.2
					S115.7,116.5,115.1,116.5z"/>
			</g>
			<g>
				<path class="st0" d="M111.5,128H85.1c-0.7,0-1.2-0.6-1.2-1.2s0.6-1.2,1.2-1.2h26.4c0.7,0,1.2,0.6,1.2,1.2S112.2,128,111.5,128z"
					/>
			</g>
		</g>
	</g>
	<g>
		<path class="st0" d="M118.3,142.9h-42c-3,0-5.5-2.5-5.5-5.5V89.7c0-0.7,0.6-1.2,1.2-1.2s1.2,0.6,1.2,1.2v47.7c0,1.7,1.3,3,3,3
			h41.5l11.4-12.8V85.7c0-0.7,0.6-1.2,1.2-1.2s1.2,0.6,1.2,1.2v42.4c0,0.3-0.1,0.6-0.3,0.8l-12.1,13.5
			C119,142.8,118.6,142.9,118.3,142.9z"/>
	</g>
	<g>
		<path class="st0" d="M72,94.1c-0.7,0-1.2-0.6-1.2-1.2v-31c0-3,2.5-5.5,5.5-5.5h49.8c3,0,5.5,2.5,5.5,5.5v27.3
			c0,0.7-0.6,1.2-1.2,1.2s-1.2-0.6-1.2-1.2V61.9c0-1.7-1.3-3-3-3H76.3c-1.7,0-3,1.3-3,3v31C73.2,93.5,72.7,94.1,72,94.1z"/>
	</g>
	<g>
		<path class="st0" d="M117.3,142.5c-0.7,0-1.2-0.6-1.2-1.2v-8.8c0-3,2.5-5.5,5.5-5.5h8.8c0.7,0,1.2,0.6,1.2,1.2s-0.6,1.2-1.2,1.2
			h-8.8c-1.7,0-3,1.3-3,3v8.8C118.5,141.9,118,142.5,117.3,142.5z"/>
	</g>
	<g>
		<g>
			<path class="st0" d="M100.1,105.1c-11.2,0-20.3-9.1-20.3-20.3c0-11.2,9.1-20.3,20.3-20.3c9.2,0,17.2,6.2,19.6,15
				c0.2,0.6-0.2,1.2-0.8,1.3c-0.6,0.2-1.2-0.2-1.3-0.8c-2.1-7.9-9.3-13.4-17.5-13.4c-10,0-18.1,8.1-18.1,18.1
				c0,10,8.1,18.1,18.1,18.1c6.1,0,11.8-3.1,15.2-8.2l1-1.7c0.3-0.5,1-0.7,1.5-0.4c0.5,0.3,0.7,1,0.4,1.5l-1,1.7
				C113.3,101.7,106.9,105.1,100.1,105.1z"/>
		</g>
		<g>
			<path class="st0" d="M119.3,95c-4.2,0-7.7-3.5-7.7-7.7c0-4.2,3.5-7.7,7.7-7.7c4.2,0,7.7,3.5,7.7,7.7C127,91.6,123.5,95,119.3,95z
				 M119.3,81.8c-3.1,0-5.5,2.5-5.5,5.5s2.5,5.5,5.5,5.5s5.5-2.5,5.5-5.5S122.3,81.8,119.3,81.8z"/>
		</g>
		<g>
			<path class="st0" d="M118.7,90.1C118.7,90.1,118.7,90.1,118.7,90.1c-0.4,0-0.6-0.2-0.8-0.4l-1.2-1.4c-0.4-0.5-0.3-1.1,0.1-1.5
				c0.5-0.4,1.1-0.3,1.5,0.1l0.5,0.6l2.9-2.7c0.4-0.4,1.1-0.4,1.5,0.1c0.4,0.4,0.4,1.1-0.1,1.5l-3.7,3.4
				C119.3,90,119,90.1,118.7,90.1z"/>
		</g>
	</g>
	<g>
		<path class="st0" d="M100.1,172.4c-40.1,0-72.7-32.6-72.7-72.7c0-40.1,32.6-72.7,72.7-72.7s72.7,32.6,72.7,72.7
			C172.8,139.7,140.2,172.4,100.1,172.4z M100.1,30.9c-37.9,0-68.7,30.8-68.7,68.7s30.8,68.7,68.7,68.7c37.9,0,68.7-30.8,68.7-68.7
			S138,30.9,100.1,30.9z"/>
	</g>
</g>
</svg>
