<svg xmlns="http://www.w3.org/2000/svg" xmlns:xlink="http://www.w3.org/1999/xlink" viewBox="0 0 122.95 149.5"><defs><style>.cls-1{fill:none;}.cls-2{clip-path:url(#clip-path);}.cls-3{fill:#fff;}</style><clipPath id="clip-path" transform="translate(-13.53 -0.25)"><rect class="cls-1" width="150" height="150"/></clipPath></defs><g id="Layer_2" data-name="Layer 2"><g id="Layer_1-2" data-name="Layer 1"><g class="cls-2"><polygon points="104.91 139.94 101.42 139.94 101.42 131.35 96.69 131.35 96.69 139.94 93.19 139.94 99.05 145.8 104.91 139.94"/><polygon points="101.63 144.35 99.05 146.92 96.48 144.35 89.08 144.35 89.08 149.5 109.03 149.5 109.03 144.35 101.63 144.35"/><path d="M136.47,57.65V97.18c-.15.32-.29.64-.46.95l-12.39,22.72a1.4,1.4,0,0,0-.15.6c0,1.69,0,3.37,0,5a2,2,0,0,1-2.19,2.19q-46.26,0-92.53,0a2.14,2.14,0,0,1-2.24-2.23c0-1.36,0-2.72,0-4.08a4.4,4.4,0,0,0-.6-2.4q-6.1-11.08-12.13-22.21a2.15,2.15,0,0,1-.26-1q0-19.35,0-38.69a2.07,2.07,0,0,1,.05-.5A2,2,0,0,1,15.7,56H26.52V2.28A2,2,0,0,1,27.94.34l.17-.09H94.87a3.3,3.3,0,0,1,1.26.83q13.19,13.22,26.39,26.39a3,3,0,0,1,1,2.31q0,12.92,0,25.85V56h10.81a2,2,0,0,1,2.14,1.55S136.46,57.62,136.47,57.65ZM30.56,4.28V56h88.85V31.29H94.67A2,2,0,0,1,92.43,29V4.65c0-.12,0-.24,0-.37Zm88.86,94.53H30.57v25.83h88.85ZM70.36,79.23h.44c2.09,0,4.17.06,6.25,0A7.13,7.13,0,0,0,76.46,65H68.57a2,2,0,0,0-2.21,2.2V87.57a2.81,2.81,0,0,0,0,.41,1.92,1.92,0,0,0,1.21,1.7,2,2,0,0,0,2.77-1.88q0-4,0-8.09Zm-31,0h.47c2.08,0,4.15,0,6.22,0A7.13,7.13,0,0,0,45.49,65H37.6a2,2,0,0,0-2.21,2.19V82.46c0,1.78,0,3.56,0,5.35a1.91,1.91,0,0,0,1.22,1.87,2,2,0,0,0,2.77-1.91c0-2.7,0-5.39,0-8.09Zm75.91,8.59a6.66,6.66,0,0,0-.19-.77q-2.94-8.44-5.9-16.88c-.45-1.28-.89-2.57-1.35-3.85a2,2,0,0,0-3.77,0L96.81,87.1a2,2,0,1,0,3.77,1.3c.57-1.63,1.15-3.27,1.71-4.92a.42.42,0,0,1,.48-.33c2.11,0,4.21,0,6.32,0a.51.51,0,0,1,.59.41c.55,1.65,1.13,3.29,1.71,4.93a2,2,0,0,0,2.22,1.32A2.06,2.06,0,0,0,115.3,87.82Zm-88.8,11H18.92l7.52,13.78.06,0Zm97,13.76.08,0,7.51-13.77h-7.59Z" transform="translate(-13.53 -0.25)"/><path class="cls-3" d="M30.56,4.28H92.41c0,.13,0,.25,0,.37V29a2,2,0,0,0,2.24,2.26h24.74V56H30.56Z" transform="translate(-13.53 -0.25)"/><path class="cls-3" d="M119.42,98.81v25.83H30.57V98.81Z" transform="translate(-13.53 -0.25)"/><path class="cls-3" d="M70.36,79.23v.48q0,4,0,8.09a2,2,0,0,1-2.77,1.88A1.92,1.92,0,0,1,66.37,88a2.81,2.81,0,0,1,0-.41V67.15A2,2,0,0,1,68.57,65h7.89a7.13,7.13,0,0,1,.59,14.23c-2.08.11-4.16,0-6.25,0Zm0-4h6.09a3.13,3.13,0,1,0,0-6.26H70.38Z" transform="translate(-13.53 -0.25)"/><path class="cls-3" d="M39.39,79.23v.45c0,2.7,0,5.39,0,8.09a2,2,0,0,1-2.77,1.91,1.91,1.91,0,0,1-1.22-1.87c0-1.79,0-3.57,0-5.35V67.14A2,2,0,0,1,37.6,65h7.89a7.13,7.13,0,0,1,.59,14.23c-2.07.1-4.14,0-6.22,0Zm0-4h6a3.13,3.13,0,1,0,0-6.26h-6Z" transform="translate(-13.53 -0.25)"/><path class="cls-3" d="M115.3,87.82a2.06,2.06,0,0,1-1.69,2,2,2,0,0,1-2.22-1.32c-.58-1.64-1.16-3.28-1.71-4.93a.51.51,0,0,0-.59-.41c-2.11,0-4.21,0-6.32,0a.42.42,0,0,0-.48.33c-.56,1.65-1.14,3.29-1.71,4.92a2,2,0,1,1-3.77-1.3l7.28-20.79a2,2,0,0,1,3.77,0c.46,1.28.9,2.57,1.35,3.85q3,8.44,5.9,16.88A6.66,6.66,0,0,1,115.3,87.82ZM106,73.11h-.08l-2.1,6h4.28Z" transform="translate(-13.53 -0.25)"/><path class="cls-3" d="M26.5,98.8v13.75l-.06,0L18.92,98.8Z" transform="translate(-13.53 -0.25)"/><path class="cls-3" d="M123.48,112.56V98.81h7.59l-7.51,13.77Z" transform="translate(-13.53 -0.25)"/><path d="M70.38,75.22V69h6.07a3.13,3.13,0,1,1,0,6.26H70.38Z" transform="translate(-13.53 -0.25)"/><path d="M39.41,75.22V69h6a3.13,3.13,0,1,1,0,6.26h-6Z" transform="translate(-13.53 -0.25)"/><path d="M106,73.11l2.1,6h-4.28l2.1-6Z" transform="translate(-13.53 -0.25)"/></g></g></g></svg>