<svg xmlns="http://www.w3.org/2000/svg" xmlns:xlink="http://www.w3.org/1999/xlink" viewBox="0 0 91.95 149.91"><defs><style>.cls-1{fill:none;}.cls-2{clip-path:url(#clip-path);}.cls-3{fill:#fff;}</style><clipPath id="clip-path" transform="translate(-29.02 0)"><rect class="cls-1" width="150" height="150"/></clipPath></defs><g id="Layer_2" data-name="Layer 2"><g id="Layer_1-2" data-name="Layer 1"><g class="cls-2"><polygon points="87.83 140.35 84.34 140.35 84.34 131.76 79.61 131.76 79.61 140.35 76.11 140.35 81.97 146.21 87.83 140.35"/><polygon points="84.55 144.76 81.97 147.33 79.4 144.76 72 144.76 72 149.91 91.95 149.91 91.95 144.76 84.55 144.76"/><path d="M33,126.63c-3-1.11-3.95-3.39-3.95-6.48q.07-56.92,0-113.85a14.37,14.37,0,0,1,.1-2A4.88,4.88,0,0,1,34,0c1.89,0,3.79,0,5.69,0C57.43,0,75.19,0,93,0A4.41,4.41,0,0,1,96.6,1.62q11.55,13.29,23.2,26.51A4.47,4.47,0,0,1,121,31.27q0,44.88,0,89.75a5.52,5.52,0,0,1-3.93,5.61ZM91.57,5.06H34.09V84.24h81.84V32.89H95.14c-2.82,0-3.57-.76-3.57-3.62V5.06ZM73.16,108.89c.65,0,1.09,0,1.54,0a15.73,15.73,0,0,0,7.22-1.32,8.46,8.46,0,0,0,4.72-8.28A7.68,7.68,0,0,0,81.33,92c-4.68-1.6-9.42-.78-14.18-.4v26.89h6Zm-23.6,0c.64,0,1.13,0,1.61,0a15.76,15.76,0,0,0,6.75-1.14A8.5,8.5,0,0,0,63.05,99c-.5-4.2-2.9-6.78-6.93-7.53-3.78-.72-7.54-.35-11.32,0-1.08.08-1.35.44-1.34,1.48,0,8.11,0,16.21,0,24.32,0,.4.05.8.08,1.23h6Zm40,8.5c5,1.91,10,2.58,14.81-.11a7.53,7.53,0,0,0,1.27-12.48,20,20,0,0,0-3.72-2.13c-1.47-.74-3-1.33-4.47-2.08a2.19,2.19,0,0,1-1.22-2.25,2.16,2.16,0,0,1,1.61-2A7.15,7.15,0,0,1,100.6,96c1.76.19,3.51.59,5.33.92l1.3-4.72c-4.5-1.65-8.93-2.12-13.21.16a7.32,7.32,0,0,0-3,10.44,10.77,10.77,0,0,0,5.15,3.86c1.51.65,3,1.3,4.47,2.06a2.62,2.62,0,0,1-.56,4.8,8,8,0,0,1-3,.34c-2.09-.29-4.15-.82-6.33-1.27C90.39,114,90,115.61,89.54,117.39Z" transform="translate(-29.02 0)"/><path class="cls-3" d="M91.57,5.06V29.27c0,2.86.75,3.62,3.57,3.62h20.79V84.24H34.09V5.06ZM87.19,59.49a3.31,3.31,0,0,0-.33-.28Q78,53.66,69.18,48.15a1.85,1.85,0,0,0-1.44,0c-6.15,2.65-12.28,5.35-18.42,8-.28.13-.54.31-.8.46A22.65,22.65,0,0,0,87.19,59.49Zm-17-36.11a7.47,7.47,0,0,0-.1.85c0,6.72,0,13.43,0,20.15a2,2,0,0,0,.9,1.37c5.67,3.6,11.36,7.15,17,10.71.3.19.62.36,1,.61,3.81-7.72,3.93-15.32-.5-22.68C84.49,27.52,78.22,24,70.19,23.38ZM47.48,54.26c.42-.16.76-.27,1.1-.42,5.84-2.56,11.67-5.14,17.52-7.66a1.51,1.51,0,0,0,1.07-1.64c0-6.51,0-13,0-19.52,0-.4,0-.8,0-1.2C52.89,24.38,41.89,39.49,47.48,54.26Zm61.3-7.18a4.84,4.84,0,0,0-.49-.93,2.55,2.55,0,0,0-4,.07,46.55,46.55,0,0,0-3.42,4c-2.6,3.58-5.38,7-7.66,10.84C90.69,65.27,87.41,69,84.59,73a29.07,29.07,0,0,0-2.39,4.56,4,4,0,0,0,0,1.5,4.31,4.31,0,0,0,1.47-.39,16.59,16.59,0,0,0,3.25-2.62c4.43-5.28,8.57-10.78,13.23-15.9,2.91-3.2,5.25-6.95,7.76-10.51A10.14,10.14,0,0,0,108.78,47.08Z" transform="translate(-29.02 0)"/><path class="cls-3" d="M73.16,108.89v9.59h-6V91.59c4.76-.38,9.5-1.2,14.18.4a7.68,7.68,0,0,1,5.31,7.3,8.46,8.46,0,0,1-4.72,8.28,15.73,15.73,0,0,1-7.22,1.32C74.25,108.88,73.81,108.89,73.16,108.89Zm0-4.53a32.82,32.82,0,0,0,4.91-.78c1.74-.56,2.5-2.16,2.4-4.16a3.32,3.32,0,0,0-2.6-3.33,16.91,16.91,0,0,0-3.9-.23,1.07,1.07,0,0,0-.78.67C73.15,99,73.18,101.45,73.18,104.36Z" transform="translate(-29.02 0)"/><path class="cls-3" d="M49.56,108.89v9.6h-6c0-.43-.08-.83-.08-1.23,0-8.11,0-16.21,0-24.32,0-1,.26-1.4,1.34-1.48,3.78-.31,7.54-.68,11.32,0,4,.75,6.43,3.33,6.93,7.53a8.5,8.5,0,0,1-5.13,8.72,15.76,15.76,0,0,1-6.75,1.14C50.69,108.88,50.2,108.89,49.56,108.89Zm0-13c0,2.61,0,5,0,7.36,0,.28.42.78.63.77a17.9,17.9,0,0,0,4.22-.46c1.81-.57,2.66-2.32,2.48-4.34A3.44,3.44,0,0,0,53.82,96,28.38,28.38,0,0,0,49.58,95.93Z" transform="translate(-29.02 0)"/><path class="cls-3" d="M89.54,117.39c.45-1.78.85-3.4,1.2-4.83,2.18.45,4.24,1,6.33,1.27a8,8,0,0,0,3-.34,2.62,2.62,0,0,0,.56-4.8c-1.45-.76-3-1.41-4.47-2.06A10.77,10.77,0,0,1,91,102.77a7.32,7.32,0,0,1,3-10.44c4.28-2.28,8.71-1.81,13.21-.16l-1.3,4.72c-1.82-.33-3.57-.73-5.33-.92a7.15,7.15,0,0,0-2.78.38,2.16,2.16,0,0,0-1.61,2,2.19,2.19,0,0,0,1.22,2.25c1.46.75,3,1.34,4.47,2.08a20,20,0,0,1,3.72,2.13,7.53,7.53,0,0,1-1.27,12.48C99.55,120,94.56,119.3,89.54,117.39Z" transform="translate(-29.02 0)"/><path d="M87.19,59.49a22.65,22.65,0,0,1-38.67-2.82c.26-.15.52-.33.8-.46,6.14-2.69,12.27-5.39,18.42-8a1.85,1.85,0,0,1,1.44,0Q78,53.64,86.86,59.21A3.31,3.31,0,0,1,87.19,59.49Z" transform="translate(-29.02 0)"/><path d="M70.19,23.38c8,.6,14.3,4.14,18.42,11,4.43,7.36,4.31,15,.5,22.68-.42-.25-.74-.42-1-.61-5.69-3.56-11.38-7.11-17-10.71a2,2,0,0,1-.9-1.37c-.06-6.72,0-13.43,0-20.15A7.47,7.47,0,0,1,70.19,23.38Z" transform="translate(-29.02 0)"/><path d="M47.48,54.26c-5.59-14.77,5.41-29.88,19.61-30.44,0,.4,0,.8,0,1.2,0,6.51,0,13,0,19.52a1.51,1.51,0,0,1-1.07,1.64c-5.85,2.52-11.68,5.1-17.52,7.66C48.24,54,47.9,54.1,47.48,54.26Z" transform="translate(-29.02 0)"/><path d="M108.78,47.08a10.14,10.14,0,0,1-.89,2.56C105.38,53.2,103,57,100.13,60.15c-4.66,5.12-8.8,10.62-13.23,15.9a16.59,16.59,0,0,1-3.25,2.62,4.31,4.31,0,0,1-1.47.39,4,4,0,0,1,0-1.5A29.07,29.07,0,0,1,84.59,73c2.82-4,6.1-7.73,8.6-11.92,2.28-3.84,5.06-7.26,7.66-10.84a46.55,46.55,0,0,1,3.42-4,2.55,2.55,0,0,1,4-.07A4.84,4.84,0,0,1,108.78,47.08Z" transform="translate(-29.02 0)"/><path d="M73.18,104.36c0-2.91,0-5.37,0-7.83a1.07,1.07,0,0,1,.78-.67,16.91,16.91,0,0,1,3.9.23,3.32,3.32,0,0,1,2.6,3.33c.1,2-.66,3.6-2.4,4.16A32.82,32.82,0,0,1,73.18,104.36Z" transform="translate(-29.02 0)"/><path d="M49.58,95.93a28.38,28.38,0,0,1,4.24,0,3.44,3.44,0,0,1,3.12,3.29c.18,2-.67,3.77-2.48,4.34a17.9,17.9,0,0,1-4.22.46c-.21,0-.63-.49-.63-.77C49.56,100.92,49.58,98.54,49.58,95.93Z" transform="translate(-29.02 0)"/></g></g></g></svg>