<svg xmlns="http://www.w3.org/2000/svg" xmlns:xlink="http://www.w3.org/1999/xlink" viewBox="0 0 132.69 149.73"><defs><style>.cls-1{fill:none;}.cls-2{clip-path:url(#clip-path);}.cls-3{fill:#d14424;}.cls-4{fill:#fff;}</style><clipPath id="clip-path" transform="translate(-8.65 -0.13)"><rect class="cls-1" width="150" height="150"/></clipPath></defs><g id="Layer_2" data-name="Layer 2"><g id="Layer_1-2" data-name="Layer 1"><g class="cls-2"><polygon class="cls-3" points="107.44 140.17 103.94 140.17 103.94 131.58 99.21 131.58 99.21 140.17 95.72 140.17 101.58 146.03 107.44 140.17"/><polygon class="cls-3" points="104.15 144.58 101.58 147.16 99 144.58 91.6 144.58 91.6 149.73 111.55 149.73 111.55 144.58 104.15 144.58"/><path class="cls-3" d="M83.81.33V13.85H134c5.1,0,7.32,2.19,7.32,7.28q0,40.46,0,80.92c0,5-2.25,7.15-7.2,7.15H83.88v17c-4.51-.82-8.7-1.55-12.88-2.34-20-3.79-40.07-7.62-60.12-11.34-1.77-.33-2.22-1-2.22-2.68q.06-46.68,0-93.37c0-1.86.61-2.41,2.4-2.74Q47.13,7,83.15.14C83.22.12,83.3.18,83.81.33Zm41.65,74.76c.08,1,.17,1.6.18,2.2.07,3.22.07,3.22-3.24,3.22H83.89v8.25c1.09,0,2.07.14,3,.14,12.07,0,24.14.08,36.21-.05,2.4,0,2.49,1.07,2.55,2.91s-.47,2.65-2.57,2.63c-12.14-.1-24.29,0-36.44,0h-2.8v11h52.2V17.72H84V38.86c4-4.67,8.46-7.39,14.63-7.45V49.5h18.09c-.14,6.76-2.9,11.86-8.35,15-9.14,5.32-17.29,3.14-24.58-4.7,0,4.51.13,8.5-.05,12.48-.09,2.22.59,2.85,2.82,2.83,12-.11,24,0,36,0ZM40.14,69.16h3.48c8.64,0,14.45-4.79,15.23-13.35.82-9-3-16.08-14.58-15.05-3,.26-6,.45-9,.59-3.18.15-3.18.11-3.18,3.18q0,13.14,0,26.27c0,3.46-.05,6.92,0,10.37,0,.63.47,1.73.84,1.78,2.3.31,4.64.39,7.13.55Z" transform="translate(-8.65 -0.13)"/><path class="cls-4" d="M125.46,75.09h-2.95c-12,0-24-.06-36,0-2.23,0-2.91-.61-2.82-2.83.18-4,.05-8,.05-12.48,7.29,7.84,15.44,10,24.58,4.7,5.45-3.17,8.21-8.27,8.35-15H98.6V31.41c-6.17.06-10.67,2.78-14.63,7.45V17.72h52.12v87.61H83.89v-11h2.8c12.15,0,24.3,0,36.44,0,2.1,0,2.63-.65,2.57-2.63s-.15-2.93-2.55-2.91c-12.07.13-24.14.06-36.21.05-1,0-2-.09-3-.14V80.51H122.4c3.31,0,3.31,0,3.24-3.22C125.63,76.69,125.54,76.09,125.46,75.09Zm-6.35-28.74c.89-8.81-8.68-18.26-17.57-17.42V46.35Z" transform="translate(-8.65 -0.13)"/><path class="cls-4" d="M40.14,69.16V83.5c-2.49-.16-4.83-.24-7.13-.55-.37,0-.83-1.15-.84-1.78-.09-3.45,0-6.91,0-10.37q0-13.12,0-26.27c0-3.07,0-3,3.18-3.18,3-.14,6-.33,9-.59,11.54-1,15.4,6.06,14.58,15.05-.78,8.56-6.59,13.4-15.23,13.35Zm.23-20.55a5.87,5.87,0,0,0-.18.89q0,4,0,8c0,4.26.06,4.31,4.39,3.74l.23,0c3-.46,4.67-2.62,4.77-6.3.1-3.51-1.41-5.82-4.41-6.3A31.56,31.56,0,0,0,40.37,48.61Z" transform="translate(-8.65 -0.13)"/><path class="cls-3" d="M119.11,46.35H101.54V28.93C110.43,28.09,120,37.54,119.11,46.35Z" transform="translate(-8.65 -0.13)"/><path class="cls-3" d="M40.37,48.61a31.56,31.56,0,0,1,4.77,0c3,.48,4.51,2.79,4.41,6.3-.1,3.68-1.74,5.84-4.77,6.3l-.23,0c-4.33.57-4.39.52-4.39-3.74q0-4,0-8A5.87,5.87,0,0,1,40.37,48.61Z" transform="translate(-8.65 -0.13)"/></g></g></g></svg>