<svg xmlns="http://www.w3.org/2000/svg" xmlns:xlink="http://www.w3.org/1999/xlink" viewBox="0 0 109.28 149.5"><defs><style>.cls-1{fill:none;}.cls-2{clip-path:url(#clip-path);}.cls-3{fill:#d14424;}.cls-4,.cls-7{fill:#fff;}.cls-4{stroke:#989898;stroke-miterlimit:10;}.cls-5{fill:#f3b79a;}.cls-6{fill:#9a9999;}.cls-8{fill:#989898;}</style><clipPath id="clip-path" transform="translate(-20.61)"><rect class="cls-1" width="150" height="150"/></clipPath></defs><g id="Layer_2" data-name="Layer 2"><g id="Layer_1-2" data-name="Layer 1"><g class="cls-2"><polygon class="cls-3" points="104.67 139.94 101.17 139.94 101.17 131.35 96.44 131.35 96.44 139.94 92.95 139.94 98.81 145.8 104.67 139.94"/><polygon class="cls-3" points="101.38 144.35 98.81 146.92 96.23 144.35 88.83 144.35 88.83 149.5 108.78 149.5 108.78 144.35 101.38 144.35"/><path class="cls-4" d="M94,.5H31.4a1.26,1.26,0,0,0-1.26,1.26V127.22a1.26,1.26,0,0,0,1.26,1.27h96.73a1.26,1.26,0,0,0,1.26-1.27V35.85A1.22,1.22,0,0,0,129,35L94.93.87A1.22,1.22,0,0,0,94,.5Z" transform="translate(-20.61)"/><rect class="cls-5" x="47.14" y="75.72" width="50.17" height="5.23"/><rect class="cls-5" x="47.14" y="87.85" width="50.17" height="5.23"/><rect class="cls-5" x="47.14" y="99.97" width="50.17" height="5.23"/><rect class="cls-5" x="34.5" y="112.1" width="62.81" height="5.23"/><rect class="cls-5" x="23.8" y="112.1" width="5.23" height="5.23"/><path class="cls-6" d="M77.57,21.19h0A20.26,20.26,0,1,0,97.77,41.45H77.57Z" transform="translate(-20.61)"/><path class="cls-5" d="M80.51,18.45V38.28h19.77A22.68,22.68,0,0,0,80.51,18.45Z" transform="translate(-20.61)"/><polygon class="cls-3" points="0 49.64 47.59 43.71 47.59 112.96 0 106.75 0 49.64"/><path class="cls-7" d="M41.23,80.32v7.79H37.28V68.56h7.2a8.57,8.57,0,0,1,3.86.8,5.49,5.49,0,0,1,3.19,5.08,6,6,0,0,1-.68,2.76,5.54,5.54,0,0,1-2.27,2.23,8.25,8.25,0,0,1-4.1.89Zm5.52-3.79a3.18,3.18,0,0,0,0-4.17,3.09,3.09,0,0,0-2.27-.77H41.23V77.3h3.25A3.13,3.13,0,0,0,46.75,76.53Z" transform="translate(-20.61)"/><path class="cls-8" d="M97.87,30.91V3.74a1.13,1.13,0,0,0-1.13-1.13h0a1.13,1.13,0,0,0-1.12,1.13V33.16a1.12,1.12,0,0,0,1.12,1.13h29.43a1.13,1.13,0,0,0,1.13-1.13h0A1.13,1.13,0,0,0,126.17,32H99A1.14,1.14,0,0,1,97.87,30.91Z" transform="translate(-20.61)"/></g></g></g></svg>