<?xml version="1.0" encoding="utf-8"?>
<!-- Generator: Adobe Illustrator 26.3.1, SVG Export Plug-In . SVG Version: 6.00 Build 0)  -->
<svg version="1.1" id="Layer_1" xmlns="http://www.w3.org/2000/svg" xmlns:xlink="http://www.w3.org/1999/xlink" x="0px" y="0px"
	 viewBox="0 0 200 200" style="enable-background:new 0 0 200 200;" xml:space="preserve">
<style type="text/css">
	.st0{fill:#0067FC;}
</style>
<g>
	<g>
		<g>
			<path class="st0" d="M124.1,142.9H74.3c-3,0-5.5-2.5-5.5-5.5V71.2c0-0.3,0.1-0.6,0.3-0.8l12.1-13.5c0.2-0.3,0.6-0.4,0.9-0.4h42
				c3,0,5.5,2.5,5.5,5.5v75.5C129.6,140.5,127.2,142.9,124.1,142.9z M71.3,71.6v65.8c0,1.7,1.3,3,3,3h49.8c1.7,0,3-1.3,3-3V61.9
				c0-1.7-1.3-3-3-3H82.7L71.3,71.6z"/>
		</g>
		<g>
			<path class="st0" d="M78.8,72.4H70c-0.7,0-1.2-0.6-1.2-1.2s0.6-1.2,1.2-1.2h8.8c1.7,0,3-1.3,3-3v-8.8c0-0.7,0.6-1.2,1.2-1.2
				s1.2,0.6,1.2,1.2v8.8C84.3,69.9,81.9,72.4,78.8,72.4z"/>
		</g>
	</g>
	<g>
		<path class="st0" d="M100.1,172.4c-40.1,0-72.7-32.6-72.7-72.7c0-40.1,32.6-72.7,72.7-72.7s72.7,32.6,72.7,72.7
			C172.8,139.7,140.2,172.4,100.1,172.4z M100.1,30.9c-37.9,0-68.7,30.8-68.7,68.7s30.8,68.7,68.7,68.7c37.9,0,68.7-30.8,68.7-68.7
			S138,30.9,100.1,30.9z"/>
	</g>
	<g>
		<g>
			<g>
				<path class="st0" d="M104.8,95.5c-4.5,0-8.2-3.7-8.2-8.2s3.7-8.2,8.2-8.2s8.2,3.7,8.2,8.2S109.3,95.5,104.8,95.5z M104.8,81.7
					c-3.1,0-5.7,2.5-5.7,5.7s2.5,5.7,5.7,5.7c3.1,0,5.7-2.5,5.7-5.7S107.9,81.7,104.8,81.7z"/>
			</g>
			<g>
				<path class="st0" d="M104.8,105.1c-0.4,0-0.8,0-1.2,0c-1.5,0-2.6-1-2.6-2.5c0-0.7-0.3-1.4-0.8-1.9c-0.5-0.5-1.1-0.7-1.8-0.7
					c-0.6,0-1.2,0.2-1.6,0.7c-1.2,1.1-2.6,1.1-3.8-0.1l-1.6-1.6c-1.1-1.1-1.2-2.5,0-3.7c0.6-0.7,0.9-1.6,0.6-2.5
					c-0.2-0.9-0.9-1.5-1.8-1.7c-0.2-0.1-0.5-0.1-0.8-0.1C88,91.1,87,90,87,88.7c0-0.9,0-1.7,0-2.6c0-1.5,1-2.5,2.5-2.6
					c1.4,0,2.6-1.1,2.5-2.5c0-0.7-0.2-1.2-0.7-1.7c-1.2-1.2-1.1-2.6,0.1-3.8l0.4-0.4c0.4-0.4,0.8-0.8,1.3-1.2
					c0.3-0.3,0.6-0.4,0.9-0.6c0.1,0,0.1-0.1,0.2-0.1c0.3-0.1,0.5-0.2,0.8-0.1c0.8,0.1,1.3,0.5,1.7,0.9c0.7,0.6,1.6,0.8,2.4,0.6
					c0.9-0.2,1.5-0.9,1.7-1.8c0.1-0.2,0.1-0.5,0.1-0.8c0.1-1.4,1.1-2.4,2.5-2.4c0.6,0,1.2,0,1.9,0l0.6,0c1.6,0,2.6,1,2.6,2.6
					c0,0.7,0.3,1.3,0.8,1.8c0.5,0.5,1.1,0.7,1.8,0.7c0.6,0,1.2-0.2,1.7-0.7c1.2-1.1,2.6-1.1,3.8,0.1l0.5,0.5
					c0.4,0.4,0.8,0.8,1.2,1.2c1.1,1.1,1.1,2.5,0,3.6c-0.8,0.9-1,1.7-0.6,2.8c0.4,1,1.2,1.5,2.4,1.6c1.4,0,2.5,1.1,2.5,2.5
					c0,0.8,0,1.7,0,2.5c0,1.5-1,2.5-2.5,2.5c-1.2,0-1.9,0.5-2.4,1.5c-0.4,1-0.2,1.9,0.6,2.8c1,1.1,1,2.5,0,3.6
					c-0.6,0.6-1.1,1.2-1.7,1.7c-1.1,1.1-2.5,1.1-3.6,0c-0.9-0.8-1.8-1-2.8-0.6c-1,0.4-1.5,1.2-1.6,2.4c0,1.5-1.1,2.5-2.6,2.5
					C105.6,105.1,105.2,105.1,104.8,105.1z M103.5,102.6C103.5,102.6,103.5,102.6,103.5,102.6c0.9,0,1.7,0,2.5,0c0,0,0.1,0,0.1,0
					c0,0,0,0,0-0.1c0.1-2.2,1.2-3.8,3.1-4.6c1.9-0.8,3.8-0.4,5.4,1c0,0,0.1,0,0.1,0.1c0,0,0,0,0.1,0c0.6-0.6,1.1-1.1,1.7-1.7
					c0,0,0,0,0.1-0.1c0,0,0-0.1-0.1-0.1c-1.5-1.6-1.8-3.5-1-5.4c0.8-1.9,2.4-3,4.6-3.1c0,0,0,0,0.1,0c0,0,0,0,0-0.1
					c0-0.8,0-1.7,0-2.5c0,0,0,0,0,0c-2.2-0.1-3.9-1.2-4.7-3.1c-0.8-1.9-0.4-3.8,1.1-5.4c0,0,0,0,0.1-0.1c0,0,0,0-0.1-0.1
					c-0.4-0.4-0.8-0.8-1.1-1.1l-0.5-0.5c-0.1-0.1-0.1-0.1-0.1-0.1c0,0-0.1,0.1-0.1,0.1c-0.9,0.9-2.1,1.3-3.3,1.4
					c-1.3,0-2.6-0.5-3.6-1.4c-1-0.9-1.5-2.2-1.6-3.6c0,0,0-0.1,0-0.1c0,0-0.1,0-0.1,0l-0.6,0c-0.6,0-1.2,0-1.8,0
					c0,0.4,0,0.8-0.2,1.3c-0.4,1.7-1.7,3.1-3.4,3.6c-1.7,0.5-3.5,0.1-4.8-1.2c0,0-0.1-0.1-0.1-0.1c0,0-0.1,0-0.1,0.1
					c-0.4,0.4-0.8,0.8-1.2,1.1l-0.5,0.5c-0.1,0.1-0.1,0.1-0.1,0.1c0,0,0.1,0.1,0.1,0.1c0.9,1,1.4,2.1,1.4,3.4c0,2.8-2.1,5-5,5.1
					c0,0-0.1,0-0.1,0c0,0,0,0,0,0.1c0,0.8,0,1.7,0,2.5c0.5,0,0.9,0,1.3,0.2c1.7,0.4,3.1,1.7,3.6,3.4c0.5,1.7,0.1,3.5-1.2,4.9
					c0,0-0.1,0.1-0.1,0.1c0,0,0.1,0.1,0.1,0.1l1.6,1.6c0.1,0.1,0.1,0.1,0.1,0.1c0,0,0.1-0.1,0.1-0.1c0.9-0.9,2-1.3,3.3-1.4
					c1.4,0,2.6,0.4,3.6,1.4C102.9,99.8,103.4,101.1,103.5,102.6C103.5,102.5,103.5,102.6,103.5,102.6z"/>
			</g>
		</g>
		<g>
			<g>
				<path class="st0" d="M88.5,119.7c-3.6,0-6.6-3-6.6-6.6s2.9-6.6,6.6-6.6s6.6,2.9,6.6,6.6S92.1,119.7,88.5,119.7z M88.5,109.1
					c-2.2,0-4.1,1.8-4.1,4.1c0,2.2,1.8,4.1,4.1,4.1s4.1-1.8,4.1-4.1C92.6,110.9,90.8,109.1,88.5,109.1z"/>
			</g>
			<g>
				<path class="st0" d="M88.5,127.1c-0.3,0-0.6,0-0.9,0c-1.3,0-2.2-0.9-2.3-2.2c0-0.5-0.2-0.9-0.5-1.2c-0.3-0.3-0.7-0.4-1.2-0.4
					c-0.4,0-0.8,0.2-1.1,0.5c-1,1-2.3,1-3.3,0l-1.2-1.2c-1-1-1-2.2,0-3.2c0.4-0.5,0.6-1,0.4-1.6c-0.2-0.6-0.6-1-1.2-1.1
					c-0.1,0-0.3,0-0.5-0.1c-1.2-0.1-2.1-1-2.1-2.2c0-0.6,0-1.2,0-1.9c0-1.4,0.9-2.3,2.2-2.3c0.9,0,1.7-0.7,1.7-1.7
					c0-0.4-0.2-0.8-0.5-1.1c-1-1-1-2.3,0.1-3.3l0.3-0.3c0.3-0.3,0.6-0.7,1-1c0.3-0.2,0.5-0.4,0.7-0.5l0.2-0.1
					c0.3-0.1,0.5-0.2,0.8-0.1c0.7,0.1,1.1,0.5,1.4,0.8c0.4,0.4,1,0.6,1.6,0.4c0.6-0.2,1-0.6,1.1-1.2c0-0.1,0-0.4,0.1-0.5
					c0.1-1.2,1-2.1,2.2-2.1c0.5,0,0.9,0,1.4,0l0.5,0c1.4,0,2.3,0.9,2.3,2.3c0,0.5,0.2,0.9,0.5,1.2c0.3,0.3,0.7,0.5,1.2,0.4
					c0.4,0,0.8-0.2,1.1-0.5c1-1,2.3-1,3.3,0.1l0.4,0.4c0.3,0.3,0.6,0.6,0.9,0.9c0.9,0.9,0.9,2.2,0,3.2c-0.6,0.6-0.7,1.1-0.4,1.8
					c0.3,0.7,0.8,1,1.6,1c1.3,0,2.2,0.9,2.2,2.2c0,0.6,0,1.3,0,1.9c0,1.3-0.9,2.2-2.2,2.2c-0.8,0-1.3,0.3-1.6,1
					c-0.3,0.7-0.2,1.2,0.4,1.8c0.9,1,0.9,2.2,0,3.2c-0.4,0.4-0.9,0.9-1.3,1.3c-0.9,0.9-2.2,0.9-3.2,0c-0.6-0.5-1.1-0.7-1.8-0.4
					c-0.7,0.3-1,0.8-1,1.6c0,1.3-1,2.2-2.3,2.2C89.1,127.1,88.8,127.1,88.5,127.1z M87.8,124.6c0.5,0,1,0,1.4,0
					c0.1-1.7,1-2.9,2.5-3.6c1.5-0.6,3.1-0.4,4.3,0.7c0.4-0.3,0.7-0.7,1-1c-1.1-1.3-1.4-2.8-0.7-4.3c0.6-1.5,1.9-2.4,3.6-2.5
					c0-0.5,0-1,0-1.4c-1.7-0.1-2.9-1-3.6-2.5c-0.6-1.5-0.4-3.1,0.7-4.3c-0.2-0.3-0.5-0.5-0.7-0.7l-0.3-0.3c-0.7,0.7-1.7,1-2.6,1
					c-1.1,0-2.2-0.4-3-1.1c-0.8-0.7-1.2-1.7-1.3-2.8l-0.3,0c-0.4,0-0.7,0-1.1,0c0,0.2,0,0.5-0.1,0.8c-0.4,1.4-1.4,2.5-2.8,2.9
					c-1.4,0.4-2.8,0.1-3.9-0.9c-0.2,0.2-0.5,0.5-0.7,0.7l-0.3,0.3c0.7,0.8,1,1.7,1,2.7c0,2.2-1.7,4-3.9,4.2c0,0.5,0,1,0,1.4
					c0.2,0,0.5,0,0.8,0.1c1.4,0.4,2.5,1.4,2.9,2.8c0.4,1.4,0.1,2.8-0.9,3.9l1,1c0.7-0.7,1.6-1,2.6-1.1c1.1-0.1,2.2,0.4,3,1.1
					C87.3,122.5,87.7,123.5,87.8,124.6z M77.1,112.2l-1.3,0l1.2,0.1C77,112.2,77.1,112.2,77.1,112.2z"/>
			</g>
		</g>
		<g>
			<g>
				<path class="st0" d="M111.2,123.9c-2.7,0-4.9-2.2-4.9-4.9c0-2.7,2.2-4.9,4.9-4.9c2.7,0,4.9,2.2,4.9,4.9
					C116.1,121.7,113.9,123.9,111.2,123.9z M111.2,116.1c-1.5,0-2.8,1.3-2.8,2.8s1.3,2.8,2.8,2.8s2.8-1.3,2.8-2.8
					S112.7,116.1,111.2,116.1z"/>
			</g>
			<g>
				<path class="st0" d="M110.5,129.2c-1.1,0-1.8-0.7-1.8-1.8c0-0.3-0.1-0.6-0.3-0.8c-0.2-0.2-0.5-0.3-0.7-0.3
					c-0.3,0-0.5,0.1-0.7,0.3c-0.8,0.8-1.8,0.8-2.6,0l-0.9-0.9c-0.8-0.8-0.8-1.8,0-2.6c0.4-0.4,0.3-0.9,0.3-1
					c-0.1-0.4-0.4-0.6-0.7-0.7c-0.1,0-0.2,0-0.4,0c-1,0-1.7-0.8-1.7-1.8c0-0.5,0-1,0-1.4c0-1,0.7-1.8,1.8-1.8c0.6,0,1.1-0.5,1.1-1
					c0-0.3-0.1-0.5-0.3-0.7c-0.8-0.8-0.8-1.8,0-2.6l0.2-0.3c0.2-0.2,0.5-0.5,0.7-0.7c0.2-0.2,0.4-0.3,0.6-0.4l0.1-0.1
					c0.2-0.1,0.5-0.2,0.7-0.1c0.5,0.1,0.9,0.4,1.1,0.6c0.4,0.4,0.8,0.3,1,0.2c0.2,0,0.6-0.2,0.7-0.7c0-0.1,0-0.2,0-0.4
					c0-1,0.8-1.7,1.8-1.7c0.4,0,0.7,0,1.1,0l0.3,0c1.1,0,1.8,0.7,1.8,1.8c0,0.3,0.1,0.6,0.3,0.8c0.2,0.2,0.4,0.3,0.7,0.3
					c0.3,0,0.5-0.1,0.7-0.3c0.8-0.8,1.8-0.8,2.6,0l0.9,0.9c0.7,0.7,0.7,1.8,0,2.5c-0.4,0.5-0.4,0.8-0.2,1.2c0.2,0.4,0.5,0.6,1,0.6
					c1,0,1.7,0.8,1.7,1.8c0,0.5,0,0.9,0,1.4c0,1-0.7,1.8-1.8,1.8c-0.5,0-0.8,0.2-1,0.6c-0.1,0.3-0.2,0.7,0.2,1.2
					c0.7,0.8,0.7,1.8,0,2.5c-0.3,0.3-0.6,0.6-1,1c-0.7,0.7-1.8,0.7-2.5,0c-0.5-0.4-0.8-0.4-1.2-0.2c-0.4,0.2-0.6,0.5-0.6,1
					c0,1-0.8,1.8-1.8,1.8L110.5,129.2z M107.6,124.3c0.8,0,1.6,0.3,2.2,0.9c0.5,0.5,0.9,1.2,1,2h0.8c0.1-1.2,0.8-2.1,1.9-2.6
					c1.1-0.5,2.3-0.3,3.2,0.5c0.2-0.2,0.4-0.4,0.5-0.5c-0.8-1-0.9-2.1-0.5-3.2c0.5-1.1,1.4-1.8,2.6-1.9c0-0.3,0-0.5,0-0.8
					c-1.2-0.1-2.1-0.8-2.6-1.9c-0.5-1.1-0.3-2.3,0.5-3.2l-0.5-0.5c-0.6,0.5-1.2,0.7-1.9,0.7c-0.8,0-1.7-0.3-2.3-0.9
					c-0.5-0.5-0.9-1.2-1-2h0c-0.3,0-0.5,0-0.8,0c0,0.1,0,0.3-0.1,0.4c-0.3,1.1-1.1,1.9-2.2,2.3c-1,0.3-2.1,0.1-2.9-0.6
					c-0.1,0.1-0.3,0.3-0.4,0.4l-0.1,0.1c0.5,0.6,0.7,1.2,0.7,2c0,1.7-1.2,3-2.8,3.2c0,0.3,0,0.5,0,0.8c0.1,0,0.3,0,0.5,0.1
					c1.1,0.3,1.9,1.1,2.3,2.2c0.3,1,0.1,2.1-0.6,2.9l0.5,0.5c0.6-0.5,1.2-0.7,1.9-0.7C107.6,124.3,107.6,124.3,107.6,124.3z
					 M102.7,119.3C102.7,119.3,102.7,119.3,102.7,119.3S102.7,119.3,102.7,119.3z M110.8,110.4L110.8,110.4L110.8,110.4z"/>
			</g>
		</g>
	</g>
</g>
</svg>
