<?xml version="1.0" encoding="utf-8"?>
<!-- Generator: Adobe Illustrator 26.4.0, SVG Export Plug-In . SVG Version: 6.00 Build 0)  -->
<svg version="1.1" id="Layer_1" xmlns="http://www.w3.org/2000/svg" xmlns:xlink="http://www.w3.org/1999/xlink" x="0px" y="0px"
	 viewBox="0 0 200 200" style="enable-background:new 0 0 200 200;" xml:space="preserve">
<style type="text/css">
	.st0{fill:#0067FC;}
</style>
<g>
	<g>
		<path class="st0" d="M100.1,172.6c-40.1,0-72.7-32.6-72.7-72.7S60,27.2,100.1,27.2s72.7,32.6,72.7,72.7S140.2,172.6,100.1,172.6z
			 M100.1,31.2c-37.9,0-68.7,30.8-68.7,68.7c0,37.9,30.8,68.7,68.7,68.7c37.9,0,68.7-30.8,68.7-68.7C168.8,62,138,31.2,100.1,31.2z"
			/>
	</g>
	<g>
		<g>
			<path class="st0" d="M97.1,125.7c-0.1,0-0.2,0-0.3,0l-29.9-8.5c-0.5-0.2-0.9-0.6-0.9-1.2V85.9c0-0.4,0.2-0.7,0.5-1
				c0.3-0.2,0.7-0.3,1-0.3L97.4,91c0.6,0.1,1,0.6,1,1.2v32.2c0,0.4-0.2,0.8-0.5,1C97.6,125.6,97.4,125.7,97.1,125.7z M68.4,114.9
				l27.4,7.8V93.2l-27.4-5.7V114.9z"/>
		</g>
		<g>
			<path class="st0" d="M97.1,126.2c-0.2,0-0.5-0.1-0.7-0.2c-0.3-0.2-0.6-0.6-0.6-1V92.2c0-0.5,0.3-1,0.9-1.2l35.8-11.9
				c0.4-0.1,0.8-0.1,1.1,0.2c0.3,0.2,0.5,0.6,0.5,1v29.4c0,0.5-0.3,1-0.8,1.2l-35.8,15.2C97.4,126.1,97.3,126.2,97.1,126.2z
				 M98.4,93.1V123l33.3-14.1V82L98.4,93.1z M132.9,109.7L132.9,109.7L132.9,109.7z"/>
		</g>
		<g>
			<path class="st0" d="M67.2,87.2c-0.5,0-1-0.4-1.2-0.9c-0.2-0.7,0.2-1.4,0.9-1.5l39.6-11.1c0.7-0.2,1.4,0.2,1.5,0.9
				c0.2,0.7-0.2,1.4-0.9,1.5L67.5,87.1C67.4,87.2,67.3,87.2,67.2,87.2z"/>
		</g>
		<g>
			<path class="st0" d="M132.9,81.5c-0.1,0-0.2,0-0.3,0l-26.2-5.4c-0.7-0.1-1.1-0.8-1-1.5c0.1-0.7,0.8-1.1,1.5-1l26.2,5.4
				c0.7,0.1,1.1,0.8,1,1.5C134,81.1,133.5,81.5,132.9,81.5z"/>
		</g>
		<g>
			<path class="st0" d="M87,109.3c-0.1,0-0.3,0-0.4-0.1l-9-2.8c-0.5-0.2-0.9-0.6-0.9-1.2l-0.2-17c0-0.4,0.2-0.7,0.5-1
				c0.3-0.2,0.7-0.3,1.1-0.3l9.3,1.9c0.6,0.1,1,0.6,1,1.2V108c0,0.4-0.2,0.8-0.5,1C87.5,109.2,87.2,109.3,87,109.3z M79.2,104.3
				l6.6,2.1V91.1L79,89.7L79.2,104.3z"/>
		</g>
		<g>
			<path class="st0" d="M103.4,115.9c-0.5,0-1-0.3-1.2-0.8c-0.3-0.6,0.1-1.4,0.7-1.6l11-4.4c0.6-0.3,1.4,0.1,1.6,0.7
				c0.3,0.6-0.1,1.4-0.7,1.6l-11,4.4C103.7,115.9,103.5,115.9,103.4,115.9z"/>
		</g>
	</g>
</g>
</svg>
