<?xml version="1.0" encoding="utf-8"?>
<!-- Generator: Adobe Illustrator 26.3.1, SVG Export Plug-In . SVG Version: 6.00 Build 0)  -->
<svg version="1.1" id="Layer_1" xmlns="http://www.w3.org/2000/svg" xmlns:xlink="http://www.w3.org/1999/xlink" x="0px" y="0px"
	 viewBox="0 0 200 200" style="enable-background:new 0 0 200 200;" xml:space="preserve">
<style type="text/css">
	.st0{fill:#0067FC;}
</style>
<g>
	<g>
		<g>
			<path class="st0" d="M120,116.8h-14c-0.6,0-1-0.5-1-1s0.5-1,1-1h14c0.6,0,1,0.5,1,1S120.5,116.8,120,116.8z"/>
		</g>
		<g>
			<path class="st0" d="M118.1,121.6H106c-0.6,0-1-0.5-1-1s0.5-1,1-1h12.1c0.6,0,1,0.5,1,1S118.6,121.6,118.1,121.6z"/>
		</g>
		<g>
			<path class="st0" d="M114.7,126H106c-0.6,0-1-0.5-1-1s0.5-1,1-1h8.8c0.6,0,1,0.5,1,1S115.3,126,114.7,126z"/>
		</g>
	</g>
	<g>
		<g>
			<path class="st0" d="M88.8,132.5c-6,0-10.8-4.9-10.8-10.8c0-6,4.9-10.8,10.8-10.8c0.6,0,1,0.5,1,1v8.7h8.7c0.6,0,1,0.5,1,1
				C99.6,127.7,94.8,132.5,88.8,132.5z M87.8,113c-4.3,0.5-7.7,4.2-7.7,8.7c0,4.8,3.9,8.7,8.7,8.7c4.5,0,8.2-3.4,8.7-7.7h-8.7
				c-0.6,0-1-0.5-1-1V113z"/>
		</g>
		<g>
			<path class="st0" d="M91.1,109.4v9.8h9.8C100.9,113.7,96.5,109.4,91.1,109.4z"/>
		</g>
	</g>
	<g>
		<g>
			<path class="st0" d="M119.8,105.7H80.2c-0.7,0-1.2-0.6-1.2-1.2v-8.9c0-0.7,0.6-1.2,1.2-1.2h39.6c0.7,0,1.2,0.6,1.2,1.2v8.9
				C121,105.2,120.5,105.7,119.8,105.7z M81.5,103.2h37.1v-6.4H81.5V103.2z"/>
		</g>
		<g>
			<path class="st0" d="M99.6,101.2H84.1c-0.7,0-1.2-0.6-1.2-1.2s0.6-1.2,1.2-1.2h15.4c0.7,0,1.2,0.6,1.2,1.2
				S100.3,101.2,99.6,101.2z"/>
		</g>
	</g>
	<g>
		<g>
			<path class="st0" d="M117.1,143.3h-42c-3,0-5.5-2.5-5.5-5.5V62.2c0-3,2.5-5.5,5.5-5.5h49.8c3,0,5.5,2.5,5.5,5.5v66.3
				c0,0.3-0.1,0.6-0.3,0.8L118,142.9C117.8,143.1,117.5,143.3,117.1,143.3z M72.1,93.2v44.6c0,1.7,1.3,3,3,3h41.5l11.4-12.8V62.2
				c0-1.7-1.3-3-3-3H75.1c-1.7,0-3,1.3-3,3V93.2z"/>
		</g>
		<g>
			<path class="st0" d="M116.1,142.8c-0.7,0-1.2-0.6-1.2-1.2v-8.8c0-3,2.5-5.5,5.5-5.5h8.8c0.7,0,1.2,0.6,1.2,1.2s-0.6,1.2-1.2,1.2
				h-8.8c-1.7,0-3,1.3-3,3v8.8C117.4,142.3,116.8,142.8,116.1,142.8z"/>
		</g>
	</g>
	<g>
		<g>
			<path class="st0" d="M116.6,74.1c-0.7,0-1.2-0.6-1.2-1.2v-4.2h-4.1c-0.7,0-1.2-0.6-1.2-1.2s0.6-1.2,1.2-1.2h5.4
				c0.7,0,1.2,0.6,1.2,1.2v5.5C117.9,73.6,117.3,74.1,116.6,74.1z"/>
		</g>
		<g>
			<path class="st0" d="M83.4,89.9c-0.7,0-1.2-0.6-1.2-1.2V83c0-0.7,0.6-1.2,1.2-1.2s1.2,0.6,1.2,1.2v5.6
				C84.6,89.3,84.1,89.9,83.4,89.9z"/>
		</g>
		<g>
			<path class="st0" d="M91.4,89.4c-0.7,0-1.2-0.6-1.2-1.2v-2.2c0-0.7,0.6-1.2,1.2-1.2s1.2,0.6,1.2,1.2v2.2
				C92.7,88.8,92.1,89.4,91.4,89.4z"/>
		</g>
		<g>
			<path class="st0" d="M99,89.4c-0.7,0-1.2-0.6-1.2-1.2v-9.5c0-0.7,0.6-1.2,1.2-1.2s1.2,0.6,1.2,1.2v9.5
				C100.2,88.8,99.7,89.4,99,89.4z"/>
		</g>
		<g>
			<path class="st0" d="M107.4,89.4c-0.7,0-1.2-0.6-1.2-1.2v-7.3c0-0.7,0.6-1.2,1.2-1.2s1.2,0.6,1.2,1.2v7.3
				C108.7,88.8,108.1,89.4,107.4,89.4z"/>
		</g>
		<g>
			<path class="st0" d="M115.5,89c-0.7,0-1.2-0.6-1.2-1.2V76.9c0-0.7,0.6-1.2,1.2-1.2s1.2,0.6,1.2,1.2v10.9
				C116.7,88.5,116.2,89,115.5,89z"/>
		</g>
		<g>
			<path class="st0" d="M90.6,82.1c-0.2,0-0.4,0-0.6-0.1l-7.2-3.8c-0.6-0.3-0.8-1.1-0.5-1.7c0.3-0.6,1.1-0.8,1.7-0.5l6.4,3.3
				l7.8-7.4c0.4-0.4,0.9-0.5,1.4-0.2l7.7,3.7l7.4-7.6c0.5-0.5,1.3-0.5,1.8,0c0.5,0.5,0.5,1.3,0,1.8l-8.1,8.2c-0.4,0.4-1,0.5-1.4,0.3
				l-7.7-3.7l-7.8,7.5C91.2,82,90.9,82.1,90.6,82.1z"/>
		</g>
	</g>
	<g>
		<path class="st0" d="M100,172.7c-40.1,0-72.7-32.6-72.7-72.7S59.9,27.3,100,27.3s72.7,32.6,72.7,72.7S140.1,172.7,100,172.7z
			 M100,31.3c-37.9,0-68.7,30.8-68.7,68.7c0,37.9,30.8,68.7,68.7,68.7c37.9,0,68.7-30.8,68.7-68.7C168.7,62.1,137.9,31.3,100,31.3z"
			/>
	</g>
</g>
</svg>
