<?xml version="1.0" encoding="utf-8"?>
<!-- Generator: Adobe Illustrator 26.3.1, SVG Export Plug-In . SVG Version: 6.00 Build 0)  -->
<svg version="1.1" id="Layer_1" xmlns="http://www.w3.org/2000/svg" xmlns:xlink="http://www.w3.org/1999/xlink" x="0px" y="0px"
	 viewBox="0 0 200 200" style="enable-background:new 0 0 200 200;" xml:space="preserve">
<style type="text/css">
	.st0{fill:#0067FC;}
</style>
<g>
	<g>
		<g>
			<path class="st0" d="M117.1,143.3h-42c-3,0-5.5-2.5-5.5-5.5V62.2c0-3,2.5-5.5,5.5-5.5h49.8c3,0,5.5,2.5,5.5,5.5v66.3
				c0,0.3-0.1,0.6-0.3,0.8L118,142.9C117.8,143.1,117.5,143.3,117.1,143.3z M72.1,93.2v44.6c0,1.7,1.3,3,3,3h41.5l11.4-12.8V62.2
				c0-1.7-1.3-3-3-3H75.1c-1.7,0-3,1.3-3,3V93.2z"/>
		</g>
		<g>
			<path class="st0" d="M116.1,142.8c-0.7,0-1.2-0.6-1.2-1.2v-8.8c0-3,2.5-5.5,5.5-5.5h8.8c0.7,0,1.2,0.6,1.2,1.2s-0.6,1.2-1.2,1.2
				h-8.8c-1.7,0-3,1.3-3,3v8.8C117.4,142.3,116.8,142.8,116.1,142.8z"/>
		</g>
	</g>
	<g>
		<g>
			<g>
				<path class="st0" d="M119.1,109.6H92c-0.7,0-1.2-0.6-1.2-1.2s0.6-1.2,1.2-1.2h27c0.7,0,1.2,0.6,1.2,1.2S119.8,109.6,119.1,109.6
					z"/>
			</g>
			<g>
				<path class="st0" d="M119.1,116.6H92c-0.7,0-1.2-0.6-1.2-1.2s0.6-1.2,1.2-1.2h27c0.7,0,1.2,0.6,1.2,1.2S119.8,116.6,119.1,116.6
					z"/>
			</g>
			<g>
				<path class="st0" d="M109.1,123.6H92c-0.7,0-1.2-0.6-1.2-1.2s0.6-1.2,1.2-1.2h17c0.7,0,1.2,0.6,1.2,1.2S109.7,123.6,109.1,123.6
					z"/>
			</g>
			<g>
				<path class="st0" d="M85.1,111c-0.3,0-0.6-0.1-0.9-0.4l-1.4-1.4c-0.5-0.5-0.5-1.3,0-1.8c0.5-0.5,1.3-0.5,1.8,0l0.5,0.5L87,106
					c0.5-0.5,1.3-0.5,1.8,0s0.5,1.3,0,1.8l-2.8,2.8C85.7,110.8,85.4,111,85.1,111z"/>
			</g>
			<g>
				<path class="st0" d="M85.1,118c-0.3,0-0.6-0.1-0.9-0.4l-1.4-1.4c-0.5-0.5-0.5-1.3,0-1.8c0.5-0.5,1.3-0.5,1.8,0l0.5,0.5L87,113
					c0.5-0.5,1.3-0.5,1.8,0s0.5,1.3,0,1.8l-2.8,2.8C85.7,117.9,85.4,118,85.1,118z"/>
			</g>
			<g>
				<path class="st0" d="M85.1,124.5L85.1,124.5c-0.3,0-0.6-0.1-0.9-0.4l-1.4-1.4c-0.5-0.5-0.5-1.3,0-1.8s1.3-0.5,1.8,0l0.5,0.5
					l1.9-1.9c0.5-0.5,1.3-0.5,1.8,0s0.5,1.3,0,1.8l-2.8,2.8C85.8,124.3,85.4,124.5,85.1,124.5z"/>
			</g>
		</g>
		<g>
			<g>
				<path class="st0" d="M119.1,79.4H92c-0.7,0-1.2-0.6-1.2-1.2s0.6-1.2,1.2-1.2h27c0.7,0,1.2,0.6,1.2,1.2S119.8,79.4,119.1,79.4z"
					/>
			</g>
			<g>
				<path class="st0" d="M119.1,86.5H92c-0.7,0-1.2-0.6-1.2-1.2S91.4,84,92,84h27c0.7,0,1.2,0.6,1.2,1.2S119.8,86.5,119.1,86.5z"/>
			</g>
			<g>
				<path class="st0" d="M109.1,93.5H92c-0.7,0-1.2-0.6-1.2-1.2S91.4,91,92,91h17c0.7,0,1.2,0.6,1.2,1.2S109.7,93.5,109.1,93.5z"/>
			</g>
			<g>
				<path class="st0" d="M85.1,80.9c-0.3,0-0.6-0.1-0.9-0.4l-1.4-1.4c-0.5-0.5-0.5-1.3,0-1.8s1.3-0.5,1.8,0l0.5,0.5l1.9-1.9
					c0.5-0.5,1.3-0.5,1.8,0s0.5,1.3,0,1.8L86,80.5C85.7,80.7,85.4,80.9,85.1,80.9z"/>
			</g>
			<g>
				<path class="st0" d="M85.1,87.9c-0.3,0-0.6-0.1-0.9-0.4l-1.4-1.4c-0.5-0.5-0.5-1.3,0-1.8s1.3-0.5,1.8,0l0.5,0.5l1.9-1.9
					c0.5-0.5,1.3-0.5,1.8,0s0.5,1.3,0,1.8L86,87.5C85.7,87.8,85.4,87.9,85.1,87.9z"/>
			</g>
			<g>
				<path class="st0" d="M85.1,94.4L85.1,94.4c-0.3,0-0.6-0.1-0.9-0.4l-1.4-1.4c-0.5-0.5-0.5-1.3,0-1.8c0.5-0.5,1.3-0.5,1.8,0
					l0.5,0.5l1.9-1.9c0.5-0.5,1.3-0.5,1.8,0s0.5,1.3,0,1.8L86,94C85.8,94.2,85.4,94.4,85.1,94.4z"/>
			</g>
		</g>
	</g>
	<g>
		<path class="st0" d="M100,172.7c-40.1,0-72.7-32.6-72.7-72.7S59.9,27.3,100,27.3s72.7,32.6,72.7,72.7S140.1,172.7,100,172.7z
			 M100,31.3c-37.9,0-68.7,30.8-68.7,68.7c0,37.9,30.8,68.7,68.7,68.7c37.9,0,68.7-30.8,68.7-68.7C168.7,62.1,137.9,31.3,100,31.3z"
			/>
	</g>
</g>
</svg>
