<svg xmlns="http://www.w3.org/2000/svg" xmlns:xlink="http://www.w3.org/1999/xlink" viewBox="0 0 91.81 149.56"><defs><style>.cls-1{fill:none;}.cls-2{clip-path:url(#clip-path);}.cls-3{fill:#fff;}</style><clipPath id="clip-path" transform="translate(-29.1 -0.22)"><rect class="cls-1" width="150" height="150"/></clipPath></defs><g id="Layer_2" data-name="Layer 2"><g id="Layer_1-2" data-name="Layer 1"><g class="cls-2"><polygon points="87.69 140 84.2 140 84.2 131.41 79.47 131.41 79.47 140 75.97 140 81.83 145.86 87.69 140"/><polygon points="84.41 144.41 81.83 146.98 79.26 144.41 71.86 144.41 71.86 149.56 91.81 149.56 91.81 144.41 84.41 144.41"/><path class="cls-3" d="M34.19,5.23H91.55V6.6q0,11.53,0,23.08c0,2.49.85,3.35,3.32,3.35h21V84.31H34.19Zm41,35.19q-10,0-20,0c-3.47,0-5.12,1.66-5.13,5.15v23.7c0,3.6,1.67,5.25,5.31,5.25H94.69c3.64,0,5.31-1.64,5.32-5.25V45.7c0-3.66-1.61-5.28-5.25-5.28Q84.95,40.4,75.14,40.42Z" transform="translate(-29.1 -0.22)"/><path class="cls-3" d="M54.12,44.1H95.87c-.42.34-.64.55-.9.72q-9.66,6.52-19.31,13a1.21,1.21,0,0,1-1.63.09q-9.61-6.67-19.28-13.29C54.59,44.53,54.45,44.39,54.12,44.1Z" transform="translate(-29.1 -0.22)"/><path class="cls-3" d="M95.87,70.82H55.22c.35-.3.54-.52.78-.68,4.66-3.16,9.34-6.3,14-9.49a1.26,1.26,0,0,1,1.72,0c1,.72,2.06,1.86,3.09,1.85s2.14-1.09,3.08-1.87,1.89-.85,3.07,0c4.5,3.17,9.11,6.2,13.67,9.28C95,70.14,95.27,70.39,95.87,70.82Z" transform="translate(-29.1 -0.22)"/><path class="cls-3" d="M67.62,57.9,53.7,67.34v-19Z" transform="translate(-29.1 -0.22)"/><path class="cls-3" d="M96.36,48.25V66.73l-13.7-9.25Z" transform="translate(-29.1 -0.22)"/><path d="M119.34,27.8C112.13,19.62,105,11.39,97.74,3.23a35.83,35.83,0,0,0-3.47-3H33c-3,1.09-3.94,3.29-3.93,6.35q.06,57,0,114.05c0,4.15,1.86,6,6,6H115c3.92,0,5.85-1.92,5.85-5.82q0-44.43,0-88.87A5.93,5.93,0,0,0,119.34,27.8Zm-3.51,56.51H34.19V5.23H91.55V6.6q0,11.53,0,23.08c0,2.49.85,3.35,3.32,3.35h21Z" transform="translate(-29.1 -0.22)"/><rect class="cls-3" x="16.97" y="34.93" width="58.21" height="43.15"/><path d="M57.69,60.79V72.18H50.55V42.88H62.11A12.61,12.61,0,0,1,68,44.14a8.85,8.85,0,0,1,3.68,3.29,8.46,8.46,0,0,1,1.23,4.43,9.21,9.21,0,0,1-1,4,8.42,8.42,0,0,1-3.4,3.47,12.44,12.44,0,0,1-6.39,1.44Zm7-6.39a3.51,3.51,0,0,0,.94-2.54,3.54,3.54,0,0,0-1-2.55,3.36,3.36,0,0,0-2.55-1H57.69v7h4.42A3.43,3.43,0,0,0,64.68,54.4Z" transform="translate(-29.1 -0.22)"/><path d="M97.18,67.94a9.45,9.45,0,0,1-3.84,3.3,12.44,12.44,0,0,1-5.61,1.23,12.84,12.84,0,0,1-8.16-2.38,8.12,8.12,0,0,1-3-6.76h7.59c.2,2.34,1.39,3.51,3.59,3.51A3.38,3.38,0,0,0,90.15,66,2.78,2.78,0,0,0,91,63.87,2.6,2.6,0,0,0,90.28,62a5.11,5.11,0,0,0-1.84-1.16c-.72-.28-1.77-.62-3.13-1a30.49,30.49,0,0,1-4.5-1.54,7.85,7.85,0,0,1-3-2.42,7,7,0,0,1-1.25-4.34A8.13,8.13,0,0,1,78,46.72a9.19,9.19,0,0,1,3.86-3.15,13,13,0,0,1,5.4-1.1A12.79,12.79,0,0,1,95,44.62q2.93,2.15,3,6.78H90.32a3.89,3.89,0,0,0-1-2.44,2.92,2.92,0,0,0-2.15-.86,3.39,3.39,0,0,0-2.23.71A2.63,2.63,0,0,0,84.06,51a2.71,2.71,0,0,0,.75,2,5,5,0,0,0,1.9,1.21,28.69,28.69,0,0,0,3.11.94,38.36,38.36,0,0,1,4.53,1.54,7.47,7.47,0,0,1,3,2.4,7.21,7.21,0,0,1,1.23,4.41A8,8,0,0,1,97.18,67.94Z" transform="translate(-29.1 -0.22)"/><path class="cls-3" d="M50.82,109v8.58H45.45V95.49h8.7a9.58,9.58,0,0,1,4.42.94,6.71,6.71,0,0,1,2.76,2.49,6.29,6.29,0,0,1,.93,3.33,7,7,0,0,1-.74,3A6.38,6.38,0,0,1,59,107.89,9.39,9.39,0,0,1,54.15,109Zm5.26-4.81a2.62,2.62,0,0,0,.71-1.91,2.66,2.66,0,0,0-.72-1.92,2.54,2.54,0,0,0-1.92-.75H50.82v5.31h3.33A2.58,2.58,0,0,0,56.08,104.16Z" transform="translate(-29.1 -0.22)"/><path class="cls-3" d="M80.56,114.36a7.27,7.27,0,0,1-2.89,2.48,9.39,9.39,0,0,1-4.23.93A9.65,9.65,0,0,1,67.3,116,6.07,6.07,0,0,1,65,110.89h5.72c.15,1.75,1.05,2.63,2.7,2.63a2.55,2.55,0,0,0,1.82-.61,2.1,2.1,0,0,0,.66-1.62,1.94,1.94,0,0,0-.56-1.44A3.93,3.93,0,0,0,74,109c-.55-.21-1.33-.46-2.36-.75a23.36,23.36,0,0,1-3.39-1.17A5.83,5.83,0,0,1,66,105.23,5.29,5.29,0,0,1,65,102a6.15,6.15,0,0,1,1.07-3.58A6.9,6.9,0,0,1,69,96a11,11,0,0,1,9.94.79,6.1,6.1,0,0,1,2.29,5.1H75.39a2.92,2.92,0,0,0-.77-1.84A2.19,2.19,0,0,0,73,99.42a2.58,2.58,0,0,0-1.68.53,2,2,0,0,0-.64,1.64,2.09,2.09,0,0,0,.56,1.49,3.94,3.94,0,0,0,1.43.91,22.49,22.49,0,0,0,2.34.71,26,26,0,0,1,3.41,1.16,5.52,5.52,0,0,1,2.23,1.81,5.37,5.37,0,0,1,.93,3.31A6.07,6.07,0,0,1,80.56,114.36Z" transform="translate(-29.1 -0.22)"/><path class="cls-3" d="M104.09,112.24a10.6,10.6,0,0,1-4.31,3.91,13.5,13.5,0,0,1-6.2,1.4H85.82V95.49h7.76a13.62,13.62,0,0,1,6.22,1.38,11,11,0,0,1,4.29,15.37Zm-5.67-.66a8.15,8.15,0,0,0,0-10.12,6.3,6.3,0,0,0-4.84-1.88H91.19v13.88h2.39A6.33,6.33,0,0,0,98.42,111.58Z" transform="translate(-29.1 -0.22)"/></g></g></g></svg>