<?xml version="1.0" encoding="utf-8"?>
<!-- Generator: Adobe Illustrator 26.3.1, SVG Export Plug-In . SVG Version: 6.00 Build 0)  -->
<svg version="1.1" id="Layer_1" xmlns="http://www.w3.org/2000/svg" xmlns:xlink="http://www.w3.org/1999/xlink" x="0px" y="0px"
	 viewBox="0 0 200 200" style="enable-background:new 0 0 200 200;" xml:space="preserve">
<style type="text/css">
	.st0{fill:#0067FC;}
</style>
<g>
	<g>
		<g>
			<path class="st0" d="M117.2,142.9h-42c-3,0-5.5-2.5-5.5-5.5V61.9c0-3,2.5-5.5,5.5-5.5H125c3,0,5.5,2.5,5.5,5.5v66.3
				c0,0.3-0.1,0.6-0.3,0.8l-12.1,13.5C117.9,142.8,117.5,142.9,117.2,142.9z M72.1,92.8v44.6c0,1.7,1.3,3,3,3h41.5l11.4-12.8V61.9
				c0-1.7-1.3-3-3-3H75.1c-1.7,0-3,1.3-3,3V92.8z"/>
		</g>
		<g>
			<path class="st0" d="M116.2,142.5c-0.7,0-1.2-0.6-1.2-1.2v-8.8c0-3,2.5-5.5,5.5-5.5h8.8c0.7,0,1.2,0.6,1.2,1.2s-0.6,1.2-1.2,1.2
				h-8.8c-1.7,0-3,1.3-3,3v8.8C117.4,141.9,116.9,142.5,116.2,142.5z"/>
		</g>
	</g>
	<g>
		<g>
			<path class="st0" d="M89.4,95.6c-7.3,0-13.2-5.9-13.2-13.2s5.9-13.2,13.2-13.2s13.2,5.9,13.2,13.2S96.7,95.6,89.4,95.6z
				 M89.4,71.6c-5.9,0-10.7,4.8-10.7,10.7s4.8,10.7,10.7,10.7s10.7-4.8,10.7-10.7S95.4,71.6,89.4,71.6z"/>
		</g>
	</g>
	<g id="Group_263_00000041293973473207896100000006626442711087466374_" transform="translate(-598.5 -520.001)">
		<g id="Group_259_00000152960630019414193950000007449641595844672181_" transform="translate(549.903 487.744)">
			<g id="Ellipse_9_00000139972018029853585660000005832957346730586025_">
				<path class="st0" d="M138,114.9c-2.2,0-4-1.8-4-4s1.8-4,4-4s4,1.8,4,4S140.2,114.9,138,114.9z M138,109.4
					c-0.8,0-1.5,0.7-1.5,1.5s0.7,1.5,1.5,1.5s1.5-0.7,1.5-1.5S138.9,109.4,138,109.4z"/>
			</g>
			<g id="Path_16_00000166654733998230868450000012103267881562016390_">
				<path class="st0" d="M142.5,122.4c-0.7,0-1.2-0.6-1.2-1.2c0-1.8-1.5-3.3-3.3-3.3s-3.3,1.5-3.3,3.3c0,0.7-0.6,1.2-1.2,1.2
					s-1.2-0.6-1.2-1.2c0-3.2,2.6-5.8,5.8-5.8s5.8,2.6,5.8,5.8C143.8,121.8,143.2,122.4,142.5,122.4z"/>
			</g>
		</g>
	</g>
	<g>
		<g>
			<path class="st0" d="M124,76.9h-9c-0.7,0-1.2-0.6-1.2-1.2s0.6-1.2,1.2-1.2h9c0.7,0,1.2,0.6,1.2,1.2S124.7,76.9,124,76.9z"/>
		</g>
		<g>
			<path class="st0" d="M124,83.9h-9c-0.7,0-1.2-0.6-1.2-1.2s0.6-1.2,1.2-1.2h9c0.7,0,1.2,0.6,1.2,1.2S124.7,83.9,124,83.9z"/>
		</g>
		<g>
			<path class="st0" d="M121,90.9h-6c-0.7,0-1.2-0.6-1.2-1.2s0.6-1.2,1.2-1.2h6c0.7,0,1.2,0.6,1.2,1.2S121.7,90.9,121,90.9z"/>
		</g>
		<g>
			<path class="st0" d="M108.1,78.3L108.1,78.3c-0.3,0-0.6-0.1-0.9-0.4l-1.4-1.4c-0.5-0.5-0.5-1.3,0-1.8c0.5-0.5,1.3-0.5,1.8,0
				l0.5,0.5l1.9-1.9c0.5-0.5,1.3-0.5,1.8,0s0.5,1.3,0,1.8l-2.8,2.8C108.7,78.2,108.4,78.3,108.1,78.3z"/>
		</g>
		<g>
			<path class="st0" d="M108.1,85.3L108.1,85.3c-0.3,0-0.6-0.1-0.9-0.4l-1.4-1.4c-0.5-0.5-0.5-1.3,0-1.8c0.5-0.5,1.3-0.5,1.8,0
				l0.5,0.5l1.9-1.9c0.5-0.5,1.3-0.5,1.8,0s0.5,1.3,0,1.8l-2.8,2.8C108.7,85.2,108.4,85.3,108.1,85.3z"/>
		</g>
		<g>
			<path class="st0" d="M108.1,91.8L108.1,91.8c-0.3,0-0.6-0.1-0.9-0.4l-1.4-1.4c-0.5-0.5-0.5-1.3,0-1.8c0.5-0.5,1.3-0.5,1.8,0
				l0.5,0.5l1.9-1.9c0.5-0.5,1.3-0.5,1.8,0s0.5,1.3,0,1.8l-2.8,2.8C108.7,91.6,108.4,91.8,108.1,91.8z"/>
		</g>
	</g>
	<g>
		<path class="st0" d="M100.1,172.4c-40.1,0-72.7-32.6-72.7-72.7c0-40.1,32.6-72.7,72.7-72.7s72.7,32.6,72.7,72.7
			C172.8,139.7,140.2,172.4,100.1,172.4z M100.1,30.9c-37.9,0-68.7,30.8-68.7,68.7s30.8,68.7,68.7,68.7c37.9,0,68.7-30.8,68.7-68.7
			S138,30.9,100.1,30.9z"/>
	</g>
	<g>
		<g>
			<path class="st0" d="M89.6,127h-4c-0.7,0-1.2-0.6-1.2-1.2v-15c0-0.7,0.6-1.2,1.2-1.2h4c0.7,0,1.2,0.6,1.2,1.2v15
				C90.8,126.4,90.3,127,89.6,127z M86.8,124.5h1.5V112h-1.5V124.5z"/>
		</g>
		<g>
			<path class="st0" d="M97.7,127h-4c-0.7,0-1.2-0.6-1.2-1.2v-20.5c0-0.7,0.6-1.2,1.2-1.2h4c0.7,0,1.2,0.6,1.2,1.2v20.5
				C99,126.4,98.4,127,97.7,127z M95,124.5h1.5v-18H95V124.5z"/>
		</g>
		<g>
			<path class="st0" d="M106.1,127h-4c-0.7,0-1.2-0.6-1.2-1.2v-11.2c0-0.7,0.6-1.2,1.2-1.2h4c0.7,0,1.2,0.6,1.2,1.2v11.2
				C107.3,126.4,106.8,127,106.1,127z M103.3,124.5h1.5v-8.7h-1.5V124.5z"/>
		</g>
		<g>
			<path class="st0" d="M114.5,127h-4c-0.7,0-1.2-0.6-1.2-1.2v-20.5c0-0.7,0.6-1.2,1.2-1.2h4c0.7,0,1.2,0.6,1.2,1.2v20.5
				C115.8,126.4,115.2,127,114.5,127z M111.8,124.5h1.5v-18h-1.5V124.5z"/>
		</g>
	</g>
</g>
</svg>
