<?xml version="1.0" encoding="UTF-8"?>
<svg id="Layer_2" data-name="Layer 2" xmlns="http://www.w3.org/2000/svg" viewBox="0 0 155 155">
  <defs>
    <style>
      .cls-1 {
        fill: none;
        stroke: #0067fc;
        stroke-miterlimit: 10;
        stroke-width: 5px;
      }

      .cls-2 {
        fill: #0067fc;
        stroke-width: 0px;
      }
    </style>
  </defs>
  <g id="Layer_1-2" data-name="Layer 1">
    <g>
      <circle class="cls-1" cx="77.5" cy="77.5" r="75"/>
      <g>
        <path class="cls-2" d="M117.98,83.26c0,13.81,0,27.61,0,41.42,0,.22,0,.44,0,.66.03.76-.27,1.35-.99,1.63-.7.28-1.34.1-1.88-.43-1.28-1.27-2.56-2.55-3.83-3.83-.58-.58-.6-.58-1.19.02-1.24,1.25-2.47,2.51-3.72,3.75-.85.84-1.75.84-2.61,0-1.31-1.3-2.63-2.61-3.92-3.93-.32-.33-.53-.34-.85,0-1.28,1.31-2.58,2.59-3.87,3.88-.94.93-1.8.93-2.75-.01-1.28-1.27-2.57-2.54-3.82-3.84-.35-.36-.58-.35-.91,0-1.28,1.31-2.58,2.59-3.87,3.88-.88.87-1.72.89-2.59.03-1.29-1.27-2.57-2.53-3.83-3.83-.39-.41-.63-.46-1.05-.02-1.25,1.3-2.54,2.57-3.82,3.84-.88.87-1.77.87-2.65,0-1.28-1.27-2.57-2.53-3.82-3.84-.42-.43-.65-.39-1.05.02-1.2,1.25-2.45,2.47-3.68,3.7-1.03,1.02-1.79,1.05-2.84.04-1.24-1.19-2.46-2.4-3.64-3.64-.45-.47-.71-.53-1.19-.02-1.17,1.25-2.43,2.43-3.63,3.66-.59.61-1.25.93-2.07.59-.81-.33-.98-1.03-.98-1.84,0-24.91,0-49.81,0-74.72,0-.24-.02-.49,0-.73.06-.55-.18-.72-.72-.72-2.33.02-4.67,0-7,0-1.65,0-2.19-.54-2.19-2.16,0-2.93.05-5.86-.01-8.79-.07-3.26,1.37-5.72,3.91-7.6,2.32-1.72,4.97-2.52,7.85-2.53,4.07-.01,8.15,0,12.22,0,14.2,0,28.41.06,42.61-.03,6.62-.04,12.9,4.7,14.16,11.68.16.87.21,1.74.21,2.63,0,13.7,0,27.39,0,41.09ZM114.73,121.61v-.91c0-26.14,0-52.28,0-78.42,0-6.33-4.78-11.14-11.1-11.14-17.49,0-34.97,0-52.46,0q-.99,0-.99.97c0,29.55,0,59.11,0,88.66,0,.21-.07.43.15.75.86-.89,1.68-1.78,2.53-2.63.91-.92,1.77-.91,2.69,0,1.3,1.29,2.6,2.57,3.87,3.88.33.33.53.32.85,0,1.28-1.31,2.57-2.6,3.87-3.88.92-.92,1.76-.91,2.69.01,1.3,1.29,2.6,2.57,3.87,3.88.35.36.56.34.9-.01,1.26-1.29,2.54-2.56,3.82-3.84.99-.98,1.8-.97,2.78,0,1.26,1.26,2.54,2.51,3.78,3.79.37.39.59.35.94-.02,1.24-1.28,2.51-2.53,3.78-3.79.98-.97,1.8-.96,2.78.02,1.25,1.24,2.51,2.47,3.73,3.75.44.46.68.4,1.09-.02,1.24-1.28,2.51-2.53,3.78-3.79.92-.91,1.76-.91,2.69.02,1.2,1.2,2.39,2.4,3.6,3.6.76.76.59.78,1.35.02,1.16-1.15,2.3-2.3,3.46-3.46,1.15-1.14,1.89-1.15,3.02-.01.8.8,1.6,1.61,2.53,2.55ZM46.94,38.53c0-2.2-.01-4.4,0-6.6,0-.48-.12-.63-.6-.5-1.29.34-2.51.84-3.57,1.65-1.4,1.07-2.43,2.41-2.48,4.24-.07,2.59,0,5.19-.03,7.79,0,.5.19.64.66.64,1.78-.02,3.56-.03,5.35,0,.52,0,.68-.15.67-.68-.03-2.18-.01-4.36-.01-6.53Z"/>
        <path class="cls-2" d="M98.89,107.12c-.07,0-.13,0-.2,0-1.32,0-1.33,0-1.39-1.31-.01-.29-.07-.51-.38-.62-2.52-.93-3.5-2.98-3.98-5.41-.02-.11-.03-.22-.04-.33-.13-.87-.07-.94.81-.98.61-.03,1.23-.06,1.84-.14.64-.08.98.12,1.04.81.04.57.24,1.12.52,1.63.52.95,1.35,1.4,2.2,1.2,1.01-.23,1.71-1.07,1.82-2.1.15-1.48-.43-2.67-1.46-3.66-1.45-1.41-3.01-2.71-4.35-4.23-1.84-2.09-2.6-4.47-1.85-7.21.47-1.72,1.47-3.06,3.19-3.71.51-.19.7-.46.63-.97-.1-.67.21-.91.86-.88.57.03,1.14.02,1.72,0,.46-.01.74.16.66.65-.12.72.23,1,.88,1.26,2.1.86,3.09,2.58,3.42,4.74.04.29-.06.46-.36.52-.93.17-1.86.34-2.79.51-.32.06-.51-.05-.55-.39-.05-.42-.17-.82-.34-1.2-.43-.97-1-1.3-2.04-1.19-.78.08-1.32.66-1.51,1.61-.36,1.71.31,3.11,1.39,4.35.74.85,1.65,1.52,2.49,2.27,1.87,1.65,3.39,3.56,3.81,6.09.47,2.79-.7,5.96-3.9,6.84-.35.1-.51.28-.5.65.05,1.26.06,1.18-1.25,1.19-.13,0-.26,0-.4,0Z"/>
        <path class="cls-2" d="M82.41,53.46c-7.27,0-14.53,0-21.8,0-.37,0-.75,0-1.11-.1-.72-.22-1.19-.84-1.18-1.57,0-.73.49-1.36,1.22-1.54.32-.08.65-.1.98-.1,14.64,0,29.28,0,43.92,0,1.38,0,2.18.62,2.16,1.67-.01,1.04-.8,1.64-2.2,1.64-7.33,0-14.66,0-21.99,0Z"/>
        <path class="cls-2" d="M82.39,75.02c-7.31,0-14.62,0-21.93,0-1.36,0-2.13-.58-2.15-1.6-.02-1.07.73-1.64,2.16-1.64,14.66,0,29.32,0,43.98,0,1.42,0,2.17.58,2.15,1.65-.02,1-.82,1.6-2.16,1.6-7.35,0-14.71,0-22.06,0Z"/>
        <path class="cls-2" d="M82.39,64.2c-7.33,0-14.66,0-21.99,0-.33,0-.67,0-.98-.08-.64-.17-1.09-.82-1.1-1.49-.02-.69.44-1.32,1.11-1.56.34-.12.69-.11,1.04-.11,14.66,0,29.32,0,43.98,0,.61,0,1.19.03,1.65.49.46.46.62,1.01.41,1.63-.21.64-.67,1.02-1.35,1.11-.26.03-.53.02-.79.02-7.33,0-14.66,0-21.99,0Z"/>
        <path class="cls-2" d="M72.24,104.15c4.07,0,8.15,0,12.22,0,1.29,0,2.09,1.11,1.62,2.22-.25.6-.74.91-1.37,1-.15.02-.31.01-.46.01-7.99,0-15.99,0-23.98,0-.52,0-1.01-.07-1.4-.45-.49-.47-.68-1.02-.46-1.68.23-.67.71-1.05,1.42-1.11.44-.03.88-.01,1.32-.01,3.7,0,7.4,0,11.1,0Z"/>
        <path class="cls-2" d="M70.06,96.57c-3.28,0-6.56,0-9.84,0-1.18,0-1.91-.63-1.9-1.63,0-.94.77-1.61,1.88-1.61,6.61,0,13.21,0,19.82,0,1.02,0,1.72.56,1.85,1.43.11.73-.34,1.45-1.06,1.72-.3.11-.61.09-.91.09-3.28,0-6.56,0-9.84,0Z"/>
        <path class="cls-2" d="M65.14,85.83c-1.56,0-3.12,0-4.68,0-.31,0-.62-.02-.91-.1-.77-.19-1.25-.84-1.23-1.59.02-.75.52-1.37,1.3-1.54.28-.06.57-.08.85-.08,3.12,0,6.24,0,9.37,0,.09,0,.18,0,.26,0,1.12.04,1.86.68,1.89,1.62.02.96-.75,1.67-1.89,1.68-1.65.02-3.3,0-4.95,0Z"/>
        <path class="cls-2" d="M67.68,41.54c.92.01,1.78.88,1.77,1.79-.02.95-.85,1.78-1.78,1.78-.96,0-1.83-.88-1.8-1.83.03-.93.88-1.76,1.81-1.75Z"/>
        <path class="cls-2" d="M63.52,43.3c.02.93-.8,1.78-1.74,1.81-.92.04-1.79-.78-1.83-1.72-.04-.95.82-1.84,1.78-1.85.93,0,1.77.82,1.79,1.76Z"/>
        <path class="cls-2" d="M89.57,43.36c-.01-.95.78-1.79,1.73-1.82.94-.03,1.8.79,1.83,1.72.03.97-.81,1.85-1.77,1.85-.97,0-1.77-.78-1.79-1.75Z"/>
        <path class="cls-2" d="M103.22,45.11c-.93.02-1.79-.8-1.82-1.74-.03-.96.81-1.83,1.78-1.83.9,0,1.74.79,1.78,1.7.04.97-.77,1.85-1.74,1.87Z"/>
        <path class="cls-2" d="M75.35,43.32c.01.95-.81,1.79-1.75,1.8-.93.01-1.79-.81-1.81-1.75-.02-.97.81-1.82,1.79-1.83.94,0,1.75.82,1.76,1.78Z"/>
        <path class="cls-2" d="M99.05,43.28c.02.96-.83,1.84-1.79,1.84-.93,0-1.76-.83-1.79-1.77-.02-.91.83-1.78,1.76-1.8.92-.02,1.8.82,1.82,1.74Z"/>
        <path class="cls-2" d="M83.67,43.31c0-.97.79-1.78,1.74-1.77,1,0,1.79.82,1.77,1.82-.02.95-.86,1.76-1.79,1.74-.98-.02-1.73-.8-1.72-1.79Z"/>
        <path class="cls-2" d="M81.25,43.33c0,.99-.77,1.77-1.74,1.78-.94,0-1.77-.81-1.77-1.76,0-1,.79-1.81,1.79-1.81.95,0,1.73.81,1.73,1.79Z"/>
      </g>
    </g>
  </g>
</svg>