<?xml version="1.0" encoding="utf-8"?>
<!-- Generator: Adobe Illustrator 26.3.1, SVG Export Plug-In . SVG Version: 6.00 Build 0)  -->
<svg version="1.1" id="Layer_1" xmlns="http://www.w3.org/2000/svg" xmlns:xlink="http://www.w3.org/1999/xlink" x="0px" y="0px"
	 viewBox="0 0 200 200" style="enable-background:new 0 0 200 200;" xml:space="preserve">
<style type="text/css">
	.st0{fill:none;stroke:#0067FC;stroke-width:2.5;stroke-linecap:round;stroke-linejoin:round;stroke-miterlimit:10;}
	.st1{fill:#0067FC;}
</style>
<g>
	<g>
		<g>
			<path class="st0" d="M106.8,86.8"/>
		</g>
		<g>
			<path class="st1" d="M110.2,95.6c-0.7,0-1.2-0.6-1.2-1.2V69.1c0-0.7,0.6-1.2,1.2-1.2s1.2,0.6,1.2,1.2v25.2
				C111.5,95,110.9,95.6,110.2,95.6z"/>
		</g>
		<g>
			<path class="st1" d="M110.2,95.6L110.2,95.6c-0.3,0-0.6-0.1-0.9-0.4l-7.3-7.3c-0.5-0.5-0.5-1.3,0-1.8c0.5-0.5,1.3-0.5,1.8,0
				l6.4,6.4l6.2-6.2c0.5-0.5,1.3-0.5,1.8,0s0.5,1.3,0,1.8l-7.1,7.1C110.9,95.5,110.5,95.6,110.2,95.6z"/>
		</g>
		<g>
			<path class="st0" d="M93.3,76.6"/>
		</g>
		<g>
			<path class="st1" d="M89.9,95.6c-0.7,0-1.2-0.6-1.2-1.2V69.1c0-0.7,0.6-1.2,1.2-1.2s1.2,0.6,1.2,1.2v25.2
				C91.2,95,90.6,95.6,89.9,95.6z"/>
		</g>
		<g>
			<path class="st1" d="M97.2,77.6c-0.3,0-0.6-0.1-0.9-0.4l-6.4-6.4l-6.2,6.2c-0.5,0.5-1.3,0.5-1.8,0s-0.5-1.3,0-1.8l7.1-7.1
				c0.5-0.5,1.3-0.5,1.8,0l7.3,7.3c0.5,0.5,0.5,1.3,0,1.8C97.8,77.5,97.5,77.6,97.2,77.6z"/>
		</g>
	</g>
	<g>
		<path class="st1" d="M100.1,172.4c-40.1,0-72.7-32.6-72.7-72.7c0-40.1,32.6-72.7,72.7-72.7s72.7,32.6,72.7,72.7
			C172.8,139.7,140.2,172.4,100.1,172.4z M100.1,30.9c-37.9,0-68.7,30.8-68.7,68.7s30.8,68.7,68.7,68.7c37.9,0,68.7-30.8,68.7-68.7
			S138,30.9,100.1,30.9z"/>
	</g>
	<g>
		<g>
			<path class="st1" d="M117.2,142.9h-42c-3,0-5.5-2.5-5.5-5.5V61.9c0-3,2.5-5.5,5.5-5.5H125c3,0,5.5,2.5,5.5,5.5v66.3
				c0,0.3-0.1,0.6-0.3,0.8l-12.1,13.5C117.9,142.8,117.5,142.9,117.2,142.9z M72.1,92.8v44.6c0,1.7,1.3,3,3,3h41.5l11.4-12.8V61.9
				c0-1.7-1.3-3-3-3H75.1c-1.7,0-3,1.3-3,3V92.8z"/>
		</g>
		<g>
			<path class="st1" d="M116.2,142.5c-0.7,0-1.2-0.6-1.2-1.2v-8.8c0-3,2.5-5.5,5.5-5.5h8.8c0.7,0,1.2,0.6,1.2,1.2s-0.6,1.2-1.2,1.2
				h-8.8c-1.7,0-3,1.3-3,3v8.8C117.4,141.9,116.9,142.5,116.2,142.5z"/>
		</g>
	</g>
	<g>
		<g>
			<path class="st1" d="M89.6,127h-4c-0.7,0-1.2-0.6-1.2-1.2v-15c0-0.7,0.6-1.2,1.2-1.2h4c0.7,0,1.2,0.6,1.2,1.2v15
				C90.8,126.4,90.3,127,89.6,127z M86.8,124.5h1.5V112h-1.5V124.5z"/>
		</g>
		<g>
			<path class="st1" d="M97.7,127h-4c-0.7,0-1.2-0.6-1.2-1.2v-20.5c0-0.7,0.6-1.2,1.2-1.2h4c0.7,0,1.2,0.6,1.2,1.2v20.5
				C99,126.4,98.4,127,97.7,127z M95,124.5h1.5v-18H95V124.5z"/>
		</g>
		<g>
			<path class="st1" d="M106.1,127h-4c-0.7,0-1.2-0.6-1.2-1.2v-11.2c0-0.7,0.6-1.2,1.2-1.2h4c0.7,0,1.2,0.6,1.2,1.2v11.2
				C107.3,126.4,106.8,127,106.1,127z M103.3,124.5h1.5v-8.7h-1.5V124.5z"/>
		</g>
		<g>
			<path class="st1" d="M114.5,127h-4c-0.7,0-1.2-0.6-1.2-1.2v-20.5c0-0.7,0.6-1.2,1.2-1.2h4c0.7,0,1.2,0.6,1.2,1.2v20.5
				C115.8,126.4,115.2,127,114.5,127z M111.8,124.5h1.5v-18h-1.5V124.5z"/>
		</g>
	</g>
</g>
</svg>
