<?xml version="1.0" encoding="utf-8"?>
<!-- Generator: Adobe Illustrator 26.3.1, SVG Export Plug-In . SVG Version: 6.00 Build 0)  -->
<svg version="1.1" id="Layer_1" xmlns="http://www.w3.org/2000/svg" xmlns:xlink="http://www.w3.org/1999/xlink" x="0px" y="0px"
	 viewBox="0 0 200 200" style="enable-background:new 0 0 200 200;" xml:space="preserve">
<style type="text/css">
	.st0{fill:#0067FC;}
</style>
<g>
	<g>
		<g>
			<path class="st0" d="M122.3,114.8H82.7c-0.7,0-1.2-0.6-1.2-1.2v-8.9c0-0.7,0.6-1.2,1.2-1.2h39.6c0.7,0,1.2,0.6,1.2,1.2v8.9
				C123.5,114.3,123,114.8,122.3,114.8z M84,112.3H121v-6.4H84V112.3z"/>
		</g>
		<g>
			<path class="st0" d="M102.1,110.3H86.6c-0.7,0-1.2-0.6-1.2-1.2s0.6-1.2,1.2-1.2h15.4c0.7,0,1.2,0.6,1.2,1.2
				S102.8,110.3,102.1,110.3z"/>
		</g>
		<g>
			<path class="st0" d="M122.3,129.5H82.7c-0.7,0-1.2-0.6-1.2-1.2v-8.9c0-0.7,0.6-1.2,1.2-1.2h39.6c0.7,0,1.2,0.6,1.2,1.2v8.9
				C123.5,128.9,123,129.5,122.3,129.5z M84,127H121v-6.4H84V127z"/>
		</g>
		<g>
			<path class="st0" d="M102.1,125H86.6c-0.7,0-1.2-0.6-1.2-1.2s0.6-1.2,1.2-1.2h15.4c0.7,0,1.2,0.6,1.2,1.2S102.8,125,102.1,125z"
				/>
		</g>
	</g>
	<g>
		<g>
			<path class="st0" d="M125,142.9H75.1c-3,0-5.5-2.5-5.5-5.5V61.9c0-3,2.5-5.5,5.5-5.5h42c0.4,0,0.7,0.2,0.9,0.4l12.1,13.5
				c0.2,0.2,0.3,0.5,0.3,0.8v66.3C130.5,140.5,128,142.9,125,142.9z M72.1,106.5v31c0,1.7,1.3,3,3,3H125c1.7,0,3-1.3,3-3V71.6
				l-11.4-12.8H75.1c-1.7,0-3,1.3-3,3V106.5z"/>
		</g>
		<g>
			<path class="st0" d="M129.2,72.4h-8.8c-3,0-5.5-2.5-5.5-5.5v-8.8c0-0.7,0.6-1.2,1.2-1.2s1.2,0.6,1.2,1.2v8.8c0,1.7,1.3,3,3,3h8.8
				c0.7,0,1.2,0.6,1.2,1.2S129.9,72.4,129.2,72.4z"/>
		</g>
	</g>
	<g>
		<g>
			<path class="st0" d="M117.7,79.3h-27c-0.7,0-1.2-0.6-1.2-1.2s0.6-1.2,1.2-1.2h27c0.7,0,1.2,0.6,1.2,1.2S118.4,79.3,117.7,79.3z"
				/>
		</g>
		<g>
			<path class="st0" d="M117.7,86.3h-27c-0.7,0-1.2-0.6-1.2-1.2s0.6-1.2,1.2-1.2h27c0.7,0,1.2,0.6,1.2,1.2S118.4,86.3,117.7,86.3z"
				/>
		</g>
		<g>
			<path class="st0" d="M107.7,93.4h-17c-0.7,0-1.2-0.6-1.2-1.2s0.6-1.2,1.2-1.2h17c0.7,0,1.2,0.6,1.2,1.2S108.4,93.4,107.7,93.4z"
				/>
		</g>
		<g>
			<path class="st0" d="M83.8,80.7c-0.3,0-0.6-0.1-0.9-0.4l-1.4-1.4c-0.5-0.5-0.5-1.3,0-1.8s1.3-0.5,1.8,0l0.5,0.5l1.9-1.9
				c0.5-0.5,1.3-0.5,1.8,0c0.5,0.5,0.5,1.3,0,1.8l-2.8,2.8C84.4,80.6,84.1,80.7,83.8,80.7z"/>
		</g>
		<g>
			<path class="st0" d="M83.8,87.7c-0.3,0-0.6-0.1-0.9-0.4L81.5,86c-0.5-0.5-0.5-1.3,0-1.8c0.5-0.5,1.3-0.5,1.8,0l0.5,0.5l1.9-1.9
				c0.5-0.5,1.3-0.5,1.8,0s0.5,1.3,0,1.8l-2.8,2.8C84.4,87.6,84.1,87.7,83.8,87.7z"/>
		</g>
		<g>
			<path class="st0" d="M83.8,94.2c-0.3,0-0.6-0.1-0.9-0.4l-1.4-1.4c-0.5-0.5-0.5-1.3,0-1.8c0.5-0.5,1.3-0.5,1.8,0l0.5,0.5l1.9-1.9
				c0.5-0.5,1.3-0.5,1.8,0s0.5,1.3,0,1.8l-2.8,2.8C84.4,94.1,84.1,94.2,83.8,94.2z"/>
		</g>
	</g>
	<g>
		<path class="st0" d="M100.1,172.4c-40.1,0-72.7-32.6-72.7-72.7c0-40.1,32.6-72.7,72.7-72.7s72.7,32.6,72.7,72.7
			C172.8,139.7,140.2,172.4,100.1,172.4z M100.1,30.9c-37.9,0-68.7,30.8-68.7,68.7s30.8,68.7,68.7,68.7c37.9,0,68.7-30.8,68.7-68.7
			S138,30.9,100.1,30.9z"/>
	</g>
</g>
</svg>
