<?xml version="1.0" encoding="utf-8"?>
<!-- Generator: Adobe Illustrator 26.2.1, SVG Export Plug-In . SVG Version: 6.00 Build 0)  -->
<svg version="1.1" id="Layer_1" xmlns="http://www.w3.org/2000/svg" xmlns:xlink="http://www.w3.org/1999/xlink" x="0px" y="0px"
	 viewBox="0 0 200 200" style="enable-background:new 0 0 200 200;" xml:space="preserve">
<style type="text/css">
	.st0{fill:#0067FC;}
</style>
<g>
	<g>
		<path class="st0" d="M100,172.7c-1,0-1.9,0-2.9-0.1c-40.1-1.6-71.4-35.5-69.8-75.5c0.8-19.4,9-37.4,23.3-50.5
			c14.3-13.2,32.8-20,52.2-19.2c19.4,0.8,37.4,9,50.5,23.3s20,32.8,19.2,52.2l0,0C171.1,142,138.8,172.7,100,172.7z M99.9,31.3
			c-17.3,0-33.8,6.4-46.6,18.2C39.9,62,32.1,78.9,31.3,97.3c-0.7,18.3,5.7,35.9,18.2,49.3c12.5,13.5,29.4,21.3,47.8,22
			c37.8,1.5,69.9-28.1,71.4-65.9l2,0.1l-2-0.1c0.7-18.3-5.7-35.9-18.2-49.3c-12.5-13.5-29.4-21.3-47.8-22
			C101.8,31.3,100.9,31.3,99.9,31.3z"/>
	</g>
	<g>
		<g>
			<g>
				<path class="st0" d="M134.9,106c-0.8,0-1.5-0.7-1.5-1.5v-8.7c0-0.8,0.7-1.5,1.5-1.5s1.5,0.7,1.5,1.5v8.7
					C136.4,105.3,135.7,106,134.9,106z"/>
			</g>
			<g>
				<path class="st0" d="M116.5,125.6H66.8c-3.3,0-5.9-2.7-5.9-5.9V95.8c0-0.8,0.7-1.5,1.5-1.5s1.5,0.7,1.5,1.5v23.8
					c0,1.6,1.3,2.9,2.9,2.9h49.7c0.8,0,1.5,0.7,1.5,1.5S117.4,125.6,116.5,125.6z"/>
			</g>
			<g>
				<path class="st0" d="M93.1,98.8c-0.1,0-0.2,0-0.4,0l-27.5-6.9c-2.5-0.6-4.3-2.9-4.3-5.5v-9c0-3.3,2.7-5.9,5.9-5.9h63.6
					c3.3,0,5.9,2.7,5.9,5.9v9c0,2.6-1.8,4.9-4.3,5.5l-26.7,6.6c-0.8,0.2-1.6-0.3-1.8-1.1c-0.2-0.8,0.3-1.6,1.1-1.8l26.7-6.6
					c1.2-0.3,2-1.4,2-2.6v-9c0-1.6-1.3-2.9-2.9-2.9H66.8c-1.6,0-2.9,1.3-2.9,2.9v9c0,1.2,0.8,2.3,2,2.6l27.5,6.9
					c0.8,0.2,1.3,1,1.1,1.8C94.4,98.3,93.8,98.8,93.1,98.8z"/>
			</g>
		</g>
		<g>
			<path class="st0" d="M104.3,106.3H93.2c-0.8,0-1.5-0.7-1.5-1.5V93.7c0-0.8,0.7-1.5,1.5-1.5h11.1c0.8,0,1.5,0.7,1.5,1.5v11.1
				C105.8,105.7,105.1,106.3,104.3,106.3z M94.7,103.3h8.1v-8.1h-8.1V103.3z"/>
		</g>
		<g>
			<path class="st0" d="M110.3,68.8c-0.8,0-1.5-0.7-1.5-1.5v-2c0-1.2-1-2.2-2.2-2.2H89.4c-1.2,0-2.2,1-2.2,2.2v2
				c0,0.8-0.7,1.5-1.5,1.5s-1.5-0.7-1.5-1.5v-2c0-2.8,2.3-5.2,5.2-5.2h17.2c2.8,0,5.2,2.3,5.2,5.2v2
				C111.8,68.1,111.1,68.8,110.3,68.8z"/>
		</g>
	</g>
	<g>
		<g>
			<path class="st0" d="M132.7,131c-5.5,0-10-4.5-10-10s4.5-10,10-10s10,4.5,10,10S138.2,131,132.7,131z M132.7,113.1
				c-4.4,0-8,3.6-8,8s3.6,8,8,8s8-3.6,8-8S137.1,113.1,132.7,113.1z"/>
		</g>
		<g>
			<path class="st0" d="M132.7,122.1c-0.2,0-0.4-0.1-0.6-0.2c-0.4-0.3-0.5-1-0.2-1.4l3.7-4.7c0.3-0.4,1-0.5,1.4-0.2
				c0.4,0.3,0.5,1,0.2,1.4l-3.7,4.7C133.3,121.9,133,122.1,132.7,122.1z"/>
		</g>
		<g>
			<path class="st0" d="M132.8,123.8c-1.5,0-2.7-1.2-2.7-2.7c0-1.5,1.2-2.7,2.7-2.7c1.5,0,2.7,1.2,2.7,2.7
				C135.5,122.5,134.3,123.8,132.8,123.8z M132.8,120.3c-0.4,0-0.7,0.3-0.7,0.7c0,0.4,0.3,0.7,0.7,0.7c0.4,0,0.7-0.3,0.7-0.7
				C133.5,120.6,133.2,120.3,132.8,120.3z"/>
		</g>
		<g>
			<path class="st0" d="M141.6,114.3c-0.2,0-0.4-0.1-0.6-0.2l-3.5-2.8c-0.4-0.3-0.5-1-0.1-1.4s1-0.5,1.4-0.1l3.5,2.8
				c0.4,0.3,0.5,1,0.1,1.4C142.2,114.2,141.9,114.3,141.6,114.3z"/>
		</g>
		<g>
			<path class="st0" d="M123.7,114.4c-0.3,0-0.6-0.1-0.8-0.4c-0.4-0.4-0.3-1.1,0.1-1.4l3.5-2.9c0.4-0.4,1.1-0.3,1.4,0.1
				c0.4,0.4,0.3,1.1-0.1,1.4l-3.5,2.9C124.2,114.3,124,114.4,123.7,114.4z"/>
		</g>
		<g>
			<path class="st0" d="M132.7,113.1c-0.6,0-1-0.4-1-1v-1.8c0-0.6,0.4-1,1-1s1,0.4,1,1v1.8C133.7,112.7,133.2,113.1,132.7,113.1z"/>
		</g>
	</g>
	<g>
		<path class="st0" d="M132.1,137.8c-9.7,0-17.5-7.9-17.5-17.5s7.9-17.5,17.5-17.5s17.5,7.9,17.5,17.5S141.8,137.8,132.1,137.8z
			 M132.1,105.7c-8,0-14.5,6.5-14.5,14.5s6.5,14.5,14.5,14.5s14.5-6.5,14.5-14.5S140.1,105.7,132.1,105.7z"/>
	</g>
</g>
</svg>
