<?xml version="1.0" encoding="utf-8"?>
<!-- Generator: Adobe Illustrator 26.4.0, SVG Export Plug-In . SVG Version: 6.00 Build 0)  -->
<svg version="1.1" id="Layer_1" xmlns="http://www.w3.org/2000/svg" xmlns:xlink="http://www.w3.org/1999/xlink" x="0px" y="0px"
	 viewBox="0 0 200 200" style="enable-background:new 0 0 200 200;" xml:space="preserve">
<style type="text/css">
	.st0{fill:#0067FC;}
</style>
<g>
	<g>
		<g>
			<g>
				<path class="st0" d="M94.5,98.1c-8.7,0-15.8-7.1-15.8-15.8s7.1-15.8,15.8-15.8c8.7,0,15.8,7.1,15.8,15.8S103.2,98.1,94.5,98.1z
					 M94.5,69c-7.3,0-13.3,6-13.3,13.3s6,13.3,13.3,13.3s13.3-6,13.3-13.3S101.9,69,94.5,69z"/>
			</g>
		</g>
		<g id="Group_263_00000046314385978037459400000000290045803121085854_" transform="translate(-598.5 -520.001)">
			<g id="Group_259_00000111875335295860205040000017966189564850323076_" transform="translate(549.903 487.744)">
				<g id="Ellipse_9_00000132069085276703556560000010228771008230626740_">
					<path class="st0" d="M143.1,114.6c-2.5,0-4.6-2.1-4.6-4.6s2.1-4.6,4.6-4.6s4.6,2.1,4.6,4.6S145.7,114.6,143.1,114.6z
						 M143.1,107.9c-1.2,0-2.1,0.9-2.1,2.1s0.9,2.1,2.1,2.1s2.1-0.9,2.1-2.1S144.3,107.9,143.1,107.9z"/>
				</g>
				<g id="Path_16_00000059284801188892731170000015234547359703444613_">
					<path class="st0" d="M148.6,123.7c-0.7,0-1.2-0.6-1.2-1.2c0-2.3-1.9-4.2-4.2-4.2s-4.2,1.9-4.2,4.2c0,0.7-0.6,1.2-1.2,1.2
						s-1.2-0.6-1.2-1.2c0-3.7,3-6.7,6.7-6.7s6.7,3,6.7,6.7C149.8,123.2,149.3,123.7,148.6,123.7z"/>
				</g>
			</g>
		</g>
	</g>
	<g>
		<g>
			<path class="st0" d="M111.1,119.2H81.5c-0.7,0-1.2-0.6-1.2-1.2s0.6-1.2,1.2-1.2h29.6c0.7,0,1.2,0.6,1.2,1.2
				S111.8,119.2,111.1,119.2z"/>
		</g>
		<g>
			<path class="st0" d="M107.1,126.2H81.5c-0.7,0-1.2-0.6-1.2-1.2s0.6-1.2,1.2-1.2h25.6c0.7,0,1.2,0.6,1.2,1.2
				S107.8,126.2,107.1,126.2z"/>
		</g>
		<g>
			<path class="st0" d="M100.1,133.3H81.5c-0.7,0-1.2-0.6-1.2-1.2s0.6-1.2,1.2-1.2h18.6c0.7,0,1.3,0.6,1.3,1.2
				S100.8,133.3,100.1,133.3z"/>
		</g>
	</g>
	<g>
		<g>
			<path class="st0" d="M117.1,143.3h-42c-3,0-5.5-2.5-5.5-5.5V90c0-0.7,0.6-1.2,1.2-1.2s1.2,0.6,1.2,1.2v47.7c0,1.7,1.3,3,3,3h41.5
				l11.4-12.8v-7c0-0.7,0.6-1.2,1.2-1.2s1.2,0.6,1.2,1.2v7.4c0,0.3-0.1,0.6-0.3,0.8L118,142.9C117.8,143.1,117.5,143.3,117.1,143.3z
				"/>
		</g>
		<g>
			<path class="st0" d="M70.8,94.4c-0.7,0-1.2-0.6-1.2-1.2v-31c0-3,2.5-5.5,5.5-5.5h49.8c3,0,5.5,2.5,5.5,5.5v22.6
				c0,0.7-0.6,1.2-1.2,1.2s-1.2-0.6-1.2-1.2V62.2c0-1.7-1.3-3-3-3H75.1c-1.7,0-3,1.3-3,3v31C72.1,93.9,71.5,94.4,70.8,94.4z"/>
		</g>
		<g>
			<path class="st0" d="M116.1,142.8c-0.7,0-1.2-0.6-1.2-1.2v-8.8c0-3,2.5-5.5,5.5-5.5h8.8c0.7,0,1.2,0.6,1.2,1.2s-0.6,1.2-1.2,1.2
				h-8.8c-1.7,0-3,1.3-3,3v8.8C117.4,142.3,116.8,142.8,116.1,142.8z"/>
		</g>
		<g>
			<path class="st0" d="M129.2,121.6c-10,0-18.2-8.2-18.2-18.2c0-10,8.2-18.2,18.2-18.2c10,0,18.2,8.2,18.2,18.2
				C147.4,113.5,139.2,121.6,129.2,121.6z M129.2,87.6c-8.7,0-15.9,7.1-15.9,15.9s7.1,15.9,15.9,15.9c8.7,0,15.9-7.1,15.9-15.9
				S137.9,87.6,129.2,87.6z"/>
		</g>
	</g>
	<g>
		<path class="st0" d="M100,172.7c-40.1,0-72.7-32.6-72.7-72.7S59.9,27.3,100,27.3s72.7,32.6,72.7,72.7S140.1,172.7,100,172.7z
			 M100,31.3c-37.9,0-68.7,30.8-68.7,68.7c0,37.9,30.8,68.7,68.7,68.7c37.9,0,68.7-30.8,68.7-68.7C168.7,62.1,137.9,31.3,100,31.3z"
			/>
	</g>
	<g>
		<g>
			<path class="st0" d="M129.7,115.8c-6.8,0-12.3-5.5-12.3-12.3s5.5-12.3,12.3-12.3s12.3,5.5,12.3,12.3S136.4,115.8,129.7,115.8z
				 M129.7,93.7c-5.4,0-9.8,4.4-9.8,9.8c0,5.4,4.4,9.8,9.8,9.8s9.8-4.4,9.8-9.8C139.5,98.1,135.1,93.7,129.7,93.7z"/>
		</g>
		<g>
			<path class="st0" d="M123.2,113.7c-0.3,0-0.5-0.1-0.7-0.2c-0.6-0.4-0.7-1.2-0.3-1.7l13-17.8c0.4-0.6,1.2-0.7,1.7-0.3
				c0.6,0.4,0.7,1.2,0.3,1.7l-13,17.8C123.9,113.5,123.5,113.7,123.2,113.7z"/>
		</g>
	</g>
</g>
</svg>
