<?xml version="1.0" encoding="utf-8"?>
<!-- Generator: Adobe Illustrator 26.3.1, SVG Export Plug-In . SVG Version: 6.00 Build 0)  -->
<svg version="1.1" id="Layer_1" xmlns="http://www.w3.org/2000/svg" xmlns:xlink="http://www.w3.org/1999/xlink" x="0px" y="0px"
	 viewBox="0 0 200 200" style="enable-background:new 0 0 200 200;" xml:space="preserve">
<style type="text/css">
	.st0{fill:#0067FC;}
</style>
<g>
	<g>
		<g>
			<g>
				<path class="st0" d="M105.3,87.9c-0.4,0-0.8-0.2-1-0.5c-0.8-1-7.5-9.9-7.5-14.2c0-4.7,3.8-8.5,8.5-8.5c4.7,0,8.5,3.8,8.5,8.5
					c0,4.3-6.7,13.2-7.5,14.2C106.1,87.8,105.7,87.9,105.3,87.9z M105.3,67.3c-3.3,0-6,2.7-6,6c0,2.3,3.3,7.7,6,11.3
					c2.6-3.7,6-9,6-11.3C111.3,70,108.6,67.3,105.3,67.3z"/>
			</g>
			<g>
				<path class="st0" d="M105.3,77.1c-2.4,0-4.4-2-4.4-4.4s2-4.4,4.4-4.4s4.4,2,4.4,4.4S107.7,77.1,105.3,77.1z M105.3,70.9
					c-1,0-1.9,0.8-1.9,1.9s0.8,1.9,1.9,1.9s1.9-0.8,1.9-1.9S106.4,70.9,105.3,70.9z"/>
			</g>
		</g>
		<g>
			<g>
				<path class="st0" d="M92.2,88.7L92.2,88.7c-0.4,0-0.8-0.2-1-0.5c-0.8-1.1-5-6.7-5-9.5c0-3.3,2.7-6,6-6c3.3,0,6,2.7,6,6
					c0,2.9-4.1,8.5-5,9.5C92.9,88.6,92.6,88.7,92.2,88.7z M92.2,75.2c-1.9,0-3.5,1.6-3.5,3.5c0,1.3,1.8,4.3,3.5,6.7
					c1.7-2.4,3.5-5.4,3.5-6.7C95.6,76.8,94.1,75.2,92.2,75.2z"/>
			</g>
			<g>
				<circle class="st0" cx="92.2" cy="78.4" r="2.1"/>
			</g>
		</g>
	</g>
	<g>
		<g>
			<path class="st0" d="M124.9,143.3H75.1c-3,0-5.5-2.5-5.5-5.5V62.2c0-3,2.5-5.5,5.5-5.5h42c0.4,0,0.7,0.2,0.9,0.4l12.1,13.5
				c0.2,0.2,0.3,0.5,0.3,0.8v66.3C130.4,140.8,128,143.3,124.9,143.3z M72.1,106.8v31c0,1.7,1.3,3,3,3h49.8c1.7,0,3-1.3,3-3V72
				l-11.4-12.8H75.1c-1.7,0-3,1.3-3,3V106.8z"/>
		</g>
		<g>
			<path class="st0" d="M129.2,72.8h-8.8c-3,0-5.5-2.5-5.5-5.5v-8.8c0-0.7,0.6-1.2,1.2-1.2s1.2,0.6,1.2,1.2v8.8c0,1.7,1.3,3,3,3h8.8
				c0.7,0,1.2,0.6,1.2,1.2S129.9,72.8,129.2,72.8z"/>
		</g>
	</g>
	<g>
		<g>
			<path class="st0" d="M117.7,94.1h-27c-0.7,0-1.2-0.6-1.2-1.2s0.6-1.2,1.2-1.2h27c0.7,0,1.2,0.6,1.2,1.2S118.4,94.1,117.7,94.1z"
				/>
		</g>
		<g>
			<path class="st0" d="M117.7,101.1h-27c-0.7,0-1.2-0.6-1.2-1.2s0.6-1.2,1.2-1.2h27c0.7,0,1.2,0.6,1.2,1.2S118.4,101.1,117.7,101.1
				z"/>
		</g>
		<g>
			<path class="st0" d="M107.7,108.2h-17c-0.7,0-1.2-0.6-1.2-1.2s0.6-1.2,1.2-1.2h17c0.7,0,1.2,0.6,1.2,1.2S108.4,108.2,107.7,108.2
				z"/>
		</g>
		<g>
			<path class="st0" d="M83.7,95.5c-0.3,0-0.6-0.1-0.9-0.4l-1.4-1.4c-0.5-0.5-0.5-1.3,0-1.8c0.5-0.5,1.3-0.5,1.8,0l0.5,0.5l1.9-1.9
				c0.5-0.5,1.3-0.5,1.8,0s0.5,1.3,0,1.8l-2.8,2.8C84.4,95.4,84,95.5,83.7,95.5z"/>
		</g>
		<g>
			<path class="st0" d="M83.7,102.5c-0.3,0-0.6-0.1-0.9-0.4l-1.4-1.4c-0.5-0.5-0.5-1.3,0-1.8s1.3-0.5,1.8,0l0.5,0.5l1.9-1.9
				c0.5-0.5,1.3-0.5,1.8,0c0.5,0.5,0.5,1.3,0,1.8l-2.8,2.8C84.4,102.4,84.1,102.5,83.7,102.5z"/>
		</g>
		<g>
			<path class="st0" d="M83.7,109c-0.3,0-0.6-0.1-0.9-0.4l-1.4-1.4c-0.5-0.5-0.5-1.3,0-1.8c0.5-0.5,1.3-0.5,1.8,0l0.5,0.5l1.9-1.9
				c0.5-0.5,1.3-0.5,1.8,0s0.5,1.3,0,1.8l-2.8,2.8C84.4,108.9,84,109,83.7,109z"/>
		</g>
	</g>
	<g>
		<path class="st0" d="M100,172.7c-40.1,0-72.7-32.6-72.7-72.7S59.9,27.3,100,27.3s72.7,32.6,72.7,72.7S140.1,172.7,100,172.7z
			 M100,31.3c-37.9,0-68.7,30.8-68.7,68.7c0,37.9,30.8,68.7,68.7,68.7c37.9,0,68.7-30.8,68.7-68.7C168.7,62.1,137.9,31.3,100,31.3z"
			/>
	</g>
	<g>
		<g>
			<path class="st0" d="M120.6,130.6H81c-0.7,0-1.2-0.6-1.2-1.2v-8.9c0-0.7,0.6-1.2,1.2-1.2h39.6c0.7,0,1.2,0.6,1.2,1.2v8.9
				C121.9,130.1,121.3,130.6,120.6,130.6z M82.3,128.1h37.1v-6.4H82.3V128.1z"/>
		</g>
		<g>
			<path class="st0" d="M100.4,126.2H85c-0.7,0-1.2-0.6-1.2-1.2s0.6-1.2,1.2-1.2h15.4c0.7,0,1.3,0.6,1.3,1.2
				S101.1,126.2,100.4,126.2z"/>
		</g>
		<g>
			<path class="st0" d="M117.8,133.1c-0.7,0-1.2-0.6-1.2-1.2v-2.5c0-0.7,0.6-1.2,1.2-1.2s1.2,0.6,1.2,1.2v2.5
				C119.1,132.6,118.5,133.1,117.8,133.1z"/>
		</g>
		<g>
			<path class="st0" d="M84.9,133.1c-0.7,0-1.2-0.6-1.2-1.2v-2.5c0-0.7,0.6-1.2,1.2-1.2s1.2,0.6,1.2,1.2v2.5
				C86.2,132.6,85.6,133.1,84.9,133.1z"/>
		</g>
		<g>
			<path class="st0" d="M117.8,120.7c-0.3,0-0.6-0.1-0.9-0.4l-7.4-7.4c-0.5-0.5-0.5-1.3,0-1.8s1.3-0.5,1.8,0l7.4,7.4
				c0.5,0.5,0.5,1.3,0,1.8C118.5,120.6,118.2,120.7,117.8,120.7z"/>
		</g>
		<g>
			<path class="st0" d="M107.7,126.8c-0.7,0-1.2-0.6-1.2-1.2v-1.4c0-0.7,0.6-1.2,1.2-1.2s1.2,0.6,1.2,1.2v1.4
				C108.9,126.2,108.4,126.8,107.7,126.8z"/>
		</g>
		<g>
			<path class="st0" d="M111.7,126.8c-0.7,0-1.2-0.6-1.2-1.2v-1.4c0-0.7,0.6-1.2,1.2-1.2s1.2,0.6,1.2,1.2v1.4
				C112.9,126.2,112.4,126.8,111.7,126.8z"/>
		</g>
		<g>
			<path class="st0" d="M115.5,126.8c-0.7,0-1.2-0.6-1.2-1.2v-1.4c0-0.7,0.6-1.2,1.2-1.2s1.2,0.6,1.2,1.2v1.4
				C116.8,126.2,116.2,126.8,115.5,126.8z"/>
		</g>
	</g>
</g>
</svg>
