<?xml version="1.0" encoding="utf-8"?>
<!-- Generator: Adobe Illustrator 26.4.0, SVG Export Plug-In . SVG Version: 6.00 Build 0)  -->
<svg version="1.1" id="Layer_1" xmlns="http://www.w3.org/2000/svg" xmlns:xlink="http://www.w3.org/1999/xlink" x="0px" y="0px"
	 viewBox="0 0 200 200" style="enable-background:new 0 0 200 200;" xml:space="preserve">
<style type="text/css">
	.st0{fill:#0067FC;}
	.st1{fill:none;stroke:#0067FC;stroke-width:2.5;stroke-linecap:round;stroke-linejoin:round;stroke-miterlimit:10;}
</style>
<g>
	<g>
		<g>
			<g>
				<path class="st0" d="M122.5,106.3c-0.7,0-1.2-0.6-1.2-1.2v-5.8H78.9v5.8c0,0.7-0.6,1.2-1.2,1.2s-1.2-0.6-1.2-1.2v-7.1
					c0-0.7,0.6-1.2,1.2-1.2h44.9c0.7,0,1.2,0.6,1.2,1.2v7.1C123.7,105.7,123.2,106.3,122.5,106.3z"/>
			</g>
			<g>
				<g id="Group_263_00000065766097857374044970000002257896339307157387_" transform="translate(-598.5 -520.001)">
					<g id="Group_259_00000080188443127366320690000016456183023526958228_" transform="translate(549.903 487.744)">
						<g id="Ellipse_9_00000073711256875761981900000001254144314404580500_">
							<path class="st0" d="M127.9,158.1c-4.6,0-8.4-3.8-8.4-8.4c0-4.6,3.8-8.4,8.4-8.4s8.4,3.8,8.4,8.4
								C136.3,154.3,132.6,158.1,127.9,158.1z M127.9,143.7c-3.3,0-5.9,2.7-5.9,5.9s2.7,5.9,5.9,5.9s5.9-2.7,5.9-5.9
								S131.2,143.7,127.9,143.7z"/>
						</g>
						<g id="Path_16_00000079450050551763939320000000043371280993323967_">
							<path class="st0" d="M139.6,171.6c-0.7,0-1.2-0.6-1.2-1.2c0-5.7-4.7-10.4-10.4-10.4s-10.4,4.7-10.4,10.4
								c0,0.7-0.6,1.2-1.2,1.2s-1.2-0.6-1.2-1.2c0-7.1,5.8-12.9,12.9-12.9c7.1,0,12.9,5.8,12.9,12.9
								C140.8,171.1,140.3,171.6,139.6,171.6z"/>
						</g>
					</g>
				</g>
			</g>
			<g>
				<g id="Group_263_00000106837048582472665590000001518682539730084998_" transform="translate(-598.5 -520.001)">
					<g id="Group_259_00000127006875119108506050000013393786377733320085_" transform="translate(549.903 487.744)">
						<g id="Ellipse_9_00000099630833883274428290000018229691814323384231_">
							<path class="st0" d="M169.4,158.1c-4.6,0-8.4-3.8-8.4-8.4c0-4.6,3.8-8.4,8.4-8.4c4.6,0,8.4,3.8,8.4,8.4
								C177.8,154.3,174,158.1,169.4,158.1z M169.4,143.7c-3.3,0-5.9,2.7-5.9,5.9s2.7,5.9,5.9,5.9s5.9-2.7,5.9-5.9
								S172.7,143.7,169.4,143.7z"/>
						</g>
						<g id="Path_16_00000031167784417171775050000016530597125903598469_">
							<path class="st0" d="M181.1,171.6c-0.7,0-1.2-0.6-1.2-1.2c0-5.7-4.7-10.4-10.4-10.4c-5.7,0-10.4,4.7-10.4,10.4
								c0,0.7-0.6,1.2-1.2,1.2s-1.2-0.6-1.2-1.2c0-7.1,5.8-12.9,12.9-12.9c7.1,0,12.9,5.8,12.9,12.9
								C182.3,171.1,181.7,171.6,181.1,171.6z"/>
						</g>
					</g>
				</g>
			</g>
			<g>
				<path class="st1" d="M97.9,123.2"/>
			</g>
			<g>
				<path class="st0" d="M122.5,108.2c-0.3,0-0.6-0.1-0.9-0.4l-2.9-2.9c-0.5-0.5-0.5-1.3,0-1.8s1.3-0.5,1.8,0l2,2l2-2
					c0.5-0.5,1.3-0.5,1.8,0s0.5,1.3,0,1.8l-2.9,2.9C123.2,108.1,122.8,108.2,122.5,108.2z"/>
			</g>
			<g>
				<path class="st0" d="M77.7,108.2c-0.3,0-0.6-0.1-0.9-0.4l-2.9-2.9c-0.5-0.5-0.5-1.3,0-1.8s1.3-0.5,1.8,0l2,2l2-2
					c0.5-0.5,1.3-0.5,1.8,0s0.5,1.3,0,1.8l-2.9,2.9C78.3,108.1,78,108.2,77.7,108.2z"/>
			</g>
		</g>
		<g>
			<path class="st1" d="M97.9,69.2"/>
		</g>
		<g>
			<g>
				<g id="Group_263_00000103982372063255876710000010193609619203899838_" transform="translate(-598.5 -520.001)">
					<g id="Group_259_00000080925986211757751400000004551022526453047179_" transform="translate(549.903 487.744)">
						<g id="Ellipse_9_00000174565164759575309300000005873026966364722819_">
							<path class="st0" d="M148.5,109.6c-4.7,0-8.4-3.8-8.4-8.4c0-4.7,3.8-8.4,8.4-8.4c4.7,0,8.4,3.8,8.4,8.4
								C156.9,105.8,153.1,109.6,148.5,109.6z M148.5,95.2c-3.3,0-5.9,2.7-5.9,5.9c0,3.3,2.7,5.9,5.9,5.9s5.9-2.7,5.9-5.9
								C154.4,97.8,151.8,95.2,148.5,95.2z"/>
						</g>
						<g id="Path_16_00000013875397799901726660000002548222634004574114_">
							<path class="st0" d="M160.2,123.2c-0.7,0-1.2-0.6-1.2-1.2c0-5.8-4.7-10.5-10.5-10.5c-5.8,0-10.5,4.7-10.5,10.5
								c0,0.7-0.6,1.2-1.2,1.2s-1.2-0.6-1.2-1.2c0-7.2,5.8-13,13-13s13,5.8,13,13C161.4,122.6,160.9,123.2,160.2,123.2z"/>
						</g>
					</g>
				</g>
			</g>
			<g>
				<g id="Group_263_00000138533214531713744010000015063195778547342258_" transform="translate(-598.5 -520.001)">
					<g id="Group_259_00000111169058571948710540000014496373576398421692_" transform="translate(549.903 487.744)">
						<g id="Ellipse_9_00000142892600388452900730000017625280602738501815_">
							<path class="st0" d="M170.6,116.8c-4.7,0-8.4-3.8-8.4-8.4c0-4.7,3.8-8.4,8.4-8.4s8.4,3.8,8.4,8.4
								C179.1,113,175.3,116.8,170.6,116.8z M170.6,102.4c-3.3,0-5.9,2.7-5.9,5.9c0,3.3,2.7,5.9,5.9,5.9s5.9-2.7,5.9-5.9
								C176.6,105,173.9,102.4,170.6,102.4z"/>
						</g>
						<g id="Path_16_00000109718043065809406940000016292831216525209490_">
							<path class="st0" d="M182.4,130.4c-0.7,0-1.2-0.6-1.2-1.2c0-5.8-4.7-10.5-10.5-10.5s-10.5,4.7-10.5,10.5
								c0,0.7-0.6,1.2-1.2,1.2s-1.2-0.6-1.2-1.2c0-7.2,5.8-13,13-13s13,5.8,13,13C183.6,129.8,183.1,130.4,182.4,130.4z"/>
						</g>
					</g>
				</g>
			</g>
			<g>
				<g id="Group_263_00000147918334634676515670000015367847625161690025_" transform="translate(-598.5 -520.001)">
					<g id="Group_259_00000154422528536385703930000003606832826828451243_" transform="translate(549.903 487.744)">
						<g id="Ellipse_9_00000076567145417765609080000006616185355116449713_">
							<path class="st0" d="M126.7,117.1c-4.7,0-8.4-3.8-8.4-8.4s3.8-8.4,8.4-8.4c4.7,0,8.4,3.8,8.4,8.4S131.3,117.1,126.7,117.1z
								 M126.7,102.7c-3.3,0-5.9,2.7-5.9,5.9s2.7,5.9,5.9,5.9c3.3,0,5.9-2.7,5.9-5.9S130,102.7,126.7,102.7z"/>
						</g>
						<g id="Path_16_00000050631779964965462480000008679291627957178517_">
							<path class="st0" d="M138.4,130.8c-0.7,0-1.2-0.6-1.2-1.2c0-5.8-4.7-10.5-10.5-10.5s-10.5,4.7-10.5,10.5
								c0,0.7-0.6,1.2-1.2,1.2s-1.2-0.6-1.2-1.2c0-7.2,5.8-13,13-13s13,5.8,13,13C139.6,130.2,139.1,130.8,138.4,130.8z"/>
						</g>
					</g>
				</g>
			</g>
		</g>
	</g>
	<g>
		<path class="st0" d="M100.1,172.6c-40.1,0-72.7-32.6-72.7-72.7S60,27.2,100.1,27.2s72.7,32.6,72.7,72.7S140.2,172.6,100.1,172.6z
			 M100.1,31.2c-37.9,0-68.7,30.8-68.7,68.7c0,37.9,30.8,68.7,68.7,68.7c37.9,0,68.7-30.8,68.7-68.7C168.8,62,138,31.2,100.1,31.2z"
			/>
	</g>
</g>
</svg>
