<?xml version="1.0" encoding="utf-8"?>
<!-- Generator: Adobe Illustrator 26.4.0, SVG Export Plug-In . SVG Version: 6.00 Build 0)  -->
<svg version="1.1" id="Layer_1" xmlns="http://www.w3.org/2000/svg" xmlns:xlink="http://www.w3.org/1999/xlink" x="0px" y="0px"
	 viewBox="0 0 200 200" style="enable-background:new 0 0 200 200;" xml:space="preserve">
<style type="text/css">
	.st0{fill:#0067FC;}
</style>
<g>
	<g>
		<path class="st0" d="M111.8,105.5c-0.7,0-1.2-0.6-1.2-1.2V90.9c0-0.7,0.6-1.2,1.2-1.2s1.2,0.6,1.2,1.2v13.4
			C113.1,104.9,112.5,105.5,111.8,105.5z"/>
	</g>
	<g>
		<path class="st0" d="M118.5,96.9c-0.3,0-0.6-0.1-0.9-0.4l-5.8-5.8l-5.7,5.7c-0.5,0.5-1.3,0.5-1.8,0s-0.5-1.3,0-1.8l6.6-6.6
			c0.5-0.5,1.3-0.5,1.8,0l6.7,6.7c0.5,0.5,0.5,1.3,0,1.8C119.1,96.8,118.8,96.9,118.5,96.9z"/>
	</g>
	<g>
		<g>
			<path class="st0" d="M117.1,143.3h-42c-3,0-5.5-2.5-5.5-5.5V62.2c0-3,2.5-5.5,5.5-5.5h49.8c3,0,5.5,2.5,5.5,5.5v66.3
				c0,0.3-0.1,0.6-0.3,0.8L118,142.9C117.8,143.1,117.5,143.3,117.1,143.3z M72.1,93.2v44.6c0,1.7,1.3,3,3,3h41.5l11.4-12.8V62.2
				c0-1.7-1.3-3-3-3H75.1c-1.7,0-3,1.3-3,3V93.2z"/>
		</g>
		<g>
			<path class="st0" d="M116.1,142.8c-0.7,0-1.2-0.6-1.2-1.2v-8.8c0-3,2.5-5.5,5.5-5.5h8.8c0.7,0,1.2,0.6,1.2,1.2s-0.6,1.2-1.2,1.2
				h-8.8c-1.7,0-3,1.3-3,3v8.8C117.4,142.3,116.8,142.8,116.1,142.8z"/>
		</g>
	</g>
	<g>
		<path class="st0" d="M100,172.7c-40.1,0-72.7-32.6-72.7-72.7S59.9,27.3,100,27.3s72.7,32.6,72.7,72.7S140.1,172.7,100,172.7z
			 M100,31.3c-37.9,0-68.7,30.8-68.7,68.7c0,37.9,30.8,68.7,68.7,68.7c37.9,0,68.7-30.8,68.7-68.7C168.7,62.1,137.9,31.3,100,31.3z"
			/>
	</g>
	<g>
		<g>
			<g>
				<path class="st0" d="M90.4,107.7L90.4,107.7c-0.3,0-0.6-0.1-0.8-0.4c-0.9-1.2-9.1-12-9.1-17.1c0-5.5,4.4-9.9,9.9-9.9
					s9.9,4.4,9.9,9.9c0,5.1-8.2,15.9-9.1,17.1C91,107.6,90.7,107.7,90.4,107.7z M90.4,82.3c-4.3,0-7.9,3.5-7.9,7.9
					c0,3.4,5.1,11,7.9,14.8c2.8-3.8,7.9-11.4,7.9-14.8C98.3,85.9,94.7,82.3,90.4,82.3z"/>
			</g>
			<g>
				<path class="st0" d="M90.4,94.5c-2.7,0-4.9-2.2-4.9-4.9s2.2-4.9,4.9-4.9s4.9,2.2,4.9,4.9S93.1,94.5,90.4,94.5z M90.4,86.7
					c-1.6,0-2.8,1.3-2.8,2.8c0,1.6,1.3,2.8,2.8,2.8c1.6,0,2.8-1.3,2.8-2.8C93.2,88,92,86.7,90.4,86.7z"/>
			</g>
		</g>
		<g>
			<g>
				<path class="st0" d="M112.7,129.1c-0.2,0-0.4-0.1-0.5-0.3c-0.6-0.8-5.9-7.9-5.9-11.2c0-3.6,2.9-6.5,6.5-6.5s6.5,2.9,6.5,6.5
					c0,3.3-5.3,10.4-5.9,11.2C113.1,129,112.9,129.1,112.7,129.1z M112.7,112.5c-2.8,0-5.1,2.3-5.1,5.1c0,2.2,3.3,7.2,5.1,9.7
					c1.8-2.5,5.1-7.5,5.1-9.7C117.8,114.8,115.5,112.5,112.7,112.5z"/>
			</g>
			<g>
				<path class="st0" d="M112.7,120.4c-1.8,0-3.2-1.4-3.2-3.2c0-1.8,1.4-3.2,3.2-3.2s3.2,1.4,3.2,3.2
					C115.9,119,114.4,120.4,112.7,120.4z M112.7,115.3c-1,0-1.8,0.8-1.8,1.9c0,1,0.8,1.8,1.8,1.8s1.8-0.8,1.8-1.8
					C114.5,116.2,113.7,115.3,112.7,115.3z"/>
			</g>
		</g>
		<g>
			<path class="st0" d="M105.4,129.7c-1.3-0.1-2.4-0.7-3.1-1.7c-0.7-1-0.9-2.2-0.5-3.4c0.1-0.3,0-0.7-0.2-1
				c-0.2-0.3-0.5-0.5-0.9-0.5l-2.8-0.1c-1.3-0.1-2.3-0.8-2.8-2c-0.5-1.2-0.2-2.5,0.6-3.4c0.1-0.2,0.1-0.3,0.1-0.4
				c0-0.1-0.1-0.2-0.3-0.3l-4.6-0.7c-0.8-0.1-1.5-0.6-2-1.3c-0.4-0.7-0.5-1.5-0.3-2.3l0.5-3.1l0.2-2.2c0-0.6,0.5-1,1.1-0.9
				c0.6,0,1,0.5,0.9,1.1l-0.2,2.3l-0.6,3.3c0,0.1,0,0.1,0,0.2c-0.1,0.2,0,0.4,0.1,0.6c0.1,0.1,0.2,0.3,0.5,0.3l4.5,0.7
				c0.9,0.1,1.6,0.8,1.9,1.6c0.3,0.9,0.1,1.8-0.5,2.5c-0.3,0.3-0.4,0.8-0.2,1.2c0.2,0.4,0.6,0.7,1,0.7l2.8,0.1
				c1,0.1,1.9,0.5,2.5,1.4c0.6,0.8,0.7,1.8,0.5,2.8c-0.2,0.5-0.1,1.1,0.3,1.6c0.3,0.5,0.8,0.8,1.4,0.8l7.2-0.2c0,0,0,0,0,0
				c0.6,0,1,0.4,1,1c0,0.6-0.4,1-1,1.1L105.4,129.7z"/>
		</g>
	</g>
</g>
</svg>
