<?xml version="1.0" encoding="utf-8"?>
<!-- Generator: Adobe Illustrator 26.4.0, SVG Export Plug-In . SVG Version: 6.00 Build 0)  -->
<svg version="1.1" id="Layer_1" xmlns="http://www.w3.org/2000/svg" xmlns:xlink="http://www.w3.org/1999/xlink" x="0px" y="0px"
	 viewBox="0 0 200 200" style="enable-background:new 0 0 200 200;" xml:space="preserve">
<style type="text/css">
	.st0{fill:#0067FC;}
	.st1{fill:none;stroke:#0067FC;stroke-width:2.5;stroke-linecap:round;stroke-linejoin:round;stroke-miterlimit:10;}
</style>
<g>
	<g>
		<path class="st0" d="M119.3,78.5c-0.7,0-1.2-0.6-1.2-1.2v-6.1H82.1v6.1c0,0.7-0.6,1.2-1.2,1.2s-1.2-0.6-1.2-1.2v-7.4
			c0-0.7,0.6-1.2,1.2-1.2h38.4c0.7,0,1.2,0.6,1.2,1.2v7.4C120.5,77.9,119.9,78.5,119.3,78.5z"/>
	</g>
	<g>
		<path class="st1" d="M101.8,81.3"/>
	</g>
	<g>
		<path class="st0" d="M100,92c-0.7,0-1.2-0.6-1.2-1.2V77.3c0-0.7,0.6-1.2,1.2-1.2s1.2,0.6,1.2,1.2v13.4C101.3,91.4,100.7,92,100,92
			z"/>
	</g>
	<g>
		<path class="st0" d="M106.7,83.4c-0.3,0-0.6-0.1-0.9-0.4l-5.8-5.8l-5.7,5.7c-0.5,0.5-1.3,0.5-1.8,0s-0.5-1.3,0-1.8l6.6-6.6
			c0.5-0.5,1.3-0.5,1.8,0l6.7,6.7c0.5,0.5,0.5,1.3,0,1.8C107.3,83.3,107,83.4,106.7,83.4z"/>
	</g>
	<g>
		<g>
			<g>
				<path class="st0" d="M90.5,122.6L90.5,122.6c-0.3,0-0.6-0.1-0.8-0.4c-0.9-1.2-9.1-12-9.1-17.2c0-5.5,4.4-9.9,9.9-9.9
					s9.9,4.4,9.9,9.9c0,5.1-8.2,15.9-9.1,17.2C91.1,122.4,90.8,122.6,90.5,122.6z M90.5,97.2c-4.3,0-7.9,3.5-7.9,7.9
					c0,3.4,5.1,11,7.9,14.8c2.8-3.8,7.9-11.4,7.9-14.8C98.3,100.7,94.8,97.2,90.5,97.2z"/>
			</g>
			<g>
				<path class="st0" d="M90.5,109.3c-2.7,0-4.9-2.2-4.9-4.9c0-2.7,2.2-4.9,4.9-4.9s4.9,2.2,4.9,4.9
					C95.4,107.1,93.2,109.3,90.5,109.3z M90.5,101.6c-1.6,0-2.8,1.3-2.8,2.8c0,1.6,1.3,2.8,2.8,2.8c1.6,0,2.8-1.3,2.8-2.8
					C93.3,102.8,92,101.6,90.5,101.6z"/>
			</g>
		</g>
		<g>
			<g>
				<path class="st0" d="M112.7,143.9c-0.2,0-0.4-0.1-0.5-0.3c-0.6-0.8-5.9-7.9-5.9-11.2c0-3.6,2.9-6.5,6.5-6.5s6.5,2.9,6.5,6.5
					c0,3.3-5.3,10.4-5.9,11.2C113.1,143.8,112.9,143.9,112.7,143.9z M112.7,127.3c-2.8,0-5.1,2.3-5.1,5.1c0,2.2,3.3,7.2,5.1,9.7
					c1.8-2.5,5.1-7.5,5.1-9.7C117.9,129.6,115.6,127.3,112.7,127.3z"/>
			</g>
			<g>
				<path class="st0" d="M112.7,135.2c-1.8,0-3.2-1.4-3.2-3.2c0-1.8,1.4-3.2,3.2-3.2s3.2,1.4,3.2,3.2
					C115.9,133.8,114.5,135.2,112.7,135.2z M112.7,130.2c-1,0-1.8,0.8-1.8,1.8c0,1,0.8,1.9,1.8,1.9s1.8-0.8,1.8-1.9
					C114.6,131,113.8,130.2,112.7,130.2z"/>
			</g>
		</g>
		<g>
			<path class="st0" d="M105.5,144.5c-1.3-0.1-2.4-0.7-3.1-1.7s-0.9-2.2-0.5-3.4c0.1-0.3,0-0.7-0.2-1c-0.2-0.3-0.5-0.5-0.9-0.5
				l-2.8-0.1c-1.3-0.1-2.3-0.8-2.8-2s-0.2-2.5,0.6-3.4c0.1-0.2,0.1-0.3,0.1-0.4c0-0.1-0.1-0.2-0.3-0.3L91,131
				c-0.8-0.1-1.5-0.6-2-1.3c-0.4-0.7-0.5-1.5-0.3-2.3l0.5-3.1l0.2-2.2c0-0.6,0.5-1,1.1-0.9c0.6,0,1,0.5,0.9,1.1l-0.2,2.3l-0.6,3.3
				c0,0.1,0,0.1,0,0.2c-0.1,0.2,0,0.4,0.1,0.6c0.1,0.1,0.2,0.3,0.5,0.3l4.6,0.7c0.9,0.1,1.6,0.8,1.9,1.6c0.3,0.9,0.1,1.8-0.5,2.5
				c-0.3,0.3-0.4,0.8-0.2,1.2s0.6,0.7,1,0.7l2.8,0.1c1,0.1,1.9,0.5,2.5,1.4s0.7,1.8,0.5,2.8c-0.2,0.5-0.1,1.1,0.3,1.6
				c0.3,0.5,0.8,0.8,1.4,0.8l7.2-0.2c0,0,0,0,0,0c0.6,0,1,0.4,1,1c0,0.6-0.4,1-1,1.1L105.5,144.5z"/>
		</g>
	</g>
	<g>
		<path class="st0" d="M100.1,172.6c-40.1,0-72.7-32.6-72.7-72.7S60,27.2,100.1,27.2s72.7,32.6,72.7,72.7S140.2,172.6,100.1,172.6z
			 M100.1,31.2c-37.9,0-68.7,30.8-68.7,68.7c0,37.9,30.8,68.7,68.7,68.7c37.9,0,68.7-30.8,68.7-68.7C168.8,62,138,31.2,100.1,31.2z"
			/>
	</g>
</g>
</svg>
