<?xml version="1.0" encoding="UTF-8"?>
<svg id="Layer_2" xmlns="http://www.w3.org/2000/svg" viewBox="0 0 145.4 145.4">
  <defs>
    <style>
      .cls-1 {
        fill: #0067fc;
      }
    </style>
  </defs>
  <g id="Layer_1-2" data-name="Layer_1">
    <g>
      <path class="cls-1" d="M72.7,145.4C32.6,145.4,0,112.8,0,72.7S32.6,0,72.7,0s72.7,32.6,72.7,72.7-32.6,72.7-72.7,72.7ZM72.7,4C34.8,4,4,34.8,4,72.7s30.8,68.7,68.7,68.7,68.7-30.8,68.7-68.7S110.6,4,72.7,4Z"/>
      <g>
        <path class="cls-1" d="M101.49,67.73c-2.62-.58-5.15-1.44-7.47-2.83-2.36-1.41-4.36-3.15-5.8-5.54-1.49-2.5-3.04-4.98-4.64-7.4-2.85-4.31-6.26-4.66-10.25-3.53-2.55.72-4.94,2-7.4,3.04-3.09,1.3-6.19,2.67-9.32,3.92-2.14.86-4.06,3.34-4.06,5.59,0,3.59.04,7.17.04,10.76,0,3.34,3.04,4.75,5.84,3.53,1.62-.7,2.22-2.16,2.23-3.83.04-2.94,0-5.85.02-8.79,0-.28.14-.74.33-.81,2.23-.91,4.5-1.76,6.86-2.65-2.16,10.94-4.31,21.75-6.45,32.56-.39,0-.67.05-.95,0-5.1-1-10.2-2-15.3-3.02-3.01-.6-5.27,1.65-4.52,4.52.46,1.74,1.62,3.09,3.32,3.55,2.39.63,4.87.93,7.3,1.39,2.51.47,5.05.91,7.56,1.48,2.6.56,5.06.6,7.44-.88,1.67-1.05,2.9-2.44,3.45-4.31.63-2.13,1.02-4.32,1.55-6.49.32-1.34.67-2.67,1.04-4.1.62.53,1.14.91,1.6,1.37,2.14,2.07,4.29,4.15,6.4,6.24.28.28.51.77.51,1.16.04,6.26,0,12.54.04,18.81,0,.65,0,1.34.23,1.92.91,2.39,2.62,2.81,4.68,2.55,1.64-.21,3.11-2.22,3.11-4.1v-22.2c0-2.99-1.35-5.17-3.69-7-1.67-1.3-3.11-2.9-4.64-4.38-.11-.11-.11-.35-.07-.53.58-3.06,1.16-6.12,1.76-9.18.16-.77.37-1.55.55-2.34,1.34,1.18,2.46,2.3,3.73,3.23,1.76,1.27,3.55,2.53,5.47,3.53,2.39,1.25,4.96,2.07,7.61,2.64,1.71.37,3.69-.16,4.54-1.37,1.79-2.58.49-5.8-2.62-6.49l.02-.04Z"/>
        <path class="cls-1" d="M82.71,45.44c4.36.05,8.12-3.38,8.12-8.02,0-4.4-3.23-8.12-8.46-8.03-4.24.07-7.68,3.55-7.7,8.03,0,4.36,3.62,8.1,8.03,8.02Z"/>
      </g>
    </g>
  </g>
</svg>