<?xml version="1.0" encoding="UTF-8"?>
<svg id="Layer_2" data-name="Layer 2" xmlns="http://www.w3.org/2000/svg" xmlns:xlink="http://www.w3.org/1999/xlink" viewBox="0 0 50 50">
  <defs>
    <style>
      .cls-1, .cls-2 {
        fill: none;
      }

      .cls-3 {
        fill: #0067fc;
      }

      .cls-2 {
        clip-path: url(#clippath);
      }
    </style>
    <clipPath id="clippath">
      <rect class="cls-1" width="50" height="50"/>
    </clipPath>
  </defs>
  <g id="Layer_1-2" data-name="Layer 1">
    <g class="cls-2">
      <g>
        <path class="cls-3" d="m41.37,22.18c-1.49-.33-2.93-.82-4.25-1.61-1.34-.8-2.48-1.79-3.3-3.15-.85-1.42-1.73-2.83-2.64-4.21-1.62-2.45-3.56-2.65-5.83-2.01-1.45.41-2.81,1.14-4.21,1.73-1.76.74-3.52,1.52-5.3,2.23-1.22.49-2.31,1.9-2.31,3.18,0,2.04.02,4.08.02,6.12,0,1.9,1.73,2.7,3.32,2.01.92-.4,1.26-1.23,1.27-2.18.02-1.67,0-3.33.01-5,0-.16.08-.42.19-.46,1.27-.52,2.56-1,3.9-1.51-1.23,6.22-2.45,12.37-3.67,18.52-.22,0-.38.03-.54,0-2.9-.57-5.8-1.14-8.7-1.72-1.71-.34-3,.94-2.57,2.57.26.99.92,1.76,1.89,2.02,1.36.36,2.77.53,4.15.79,1.43.27,2.87.52,4.3.84,1.48.32,2.88.34,4.23-.5.95-.6,1.65-1.39,1.96-2.45.36-1.21.58-2.46.88-3.69.18-.76.38-1.52.59-2.33.35.3.65.52.91.78,1.22,1.18,2.44,2.36,3.64,3.55.16.16.29.44.29.66.02,3.56,0,7.13.02,10.7,0,.37,0,.76.13,1.09.52,1.36,1.49,1.6,2.66,1.45.93-.12,1.77-1.26,1.77-2.33,0-4.21,0-8.42,0-12.63,0-1.7-.77-2.94-2.1-3.98-.95-.74-1.77-1.65-2.64-2.49-.06-.06-.06-.2-.04-.3.33-1.74.66-3.48,1-5.22.09-.44.21-.88.31-1.33.76.67,1.4,1.31,2.12,1.84,1,.72,2.02,1.44,3.11,2.01,1.36.71,2.82,1.18,4.33,1.5.97.21,2.1-.09,2.58-.78,1.02-1.47.28-3.3-1.49-3.69Z"/>
        <path class="cls-3" d="m30.69,9.5c2.48.03,4.62-1.92,4.62-4.56,0-2.5-1.84-4.62-4.81-4.57-2.41.04-4.37,2.02-4.38,4.57,0,2.48,2.06,4.61,4.57,4.56Z"/>
      </g>
    </g>
  </g>
</svg>