<?xml version="1.0" encoding="utf-8"?>
<!-- Generator: Adobe Illustrator 26.3.1, SVG Export Plug-In . SVG Version: 6.00 Build 0)  -->
<svg version="1.1" id="Layer_1" xmlns="http://www.w3.org/2000/svg" xmlns:xlink="http://www.w3.org/1999/xlink" x="0px" y="0px"
	 viewBox="0 0 200 200" style="enable-background:new 0 0 200 200;" xml:space="preserve">
<style type="text/css">
	.st0{fill:#0067FC;}
</style>
<g>
	<g>
		<g>
			<path class="st0" d="M100.1,134.2c-9.6,0-17.4-7.8-17.4-17.4s7.8-17.4,17.4-17.4c9.6,0,17.4,7.8,17.4,17.4
				S109.7,134.2,100.1,134.2z M100.1,101.8c-8.2,0-14.9,6.7-14.9,14.9s6.7,14.9,14.9,14.9S115,125,115,116.7
				S108.3,101.8,100.1,101.8z"/>
		</g>
	</g>
	<g id="Group_263_00000179607991362409496810000001164870083160425918_" transform="translate(-598.5 -520.001)">
		<g id="Group_259_00000147202769814567763410000015129786911088181932_" transform="translate(549.903 487.744)">
			<g id="Ellipse_9_00000180343237238846655610000011958251441755999379_">
				<path class="st0" d="M148.7,148.9c-2.7,0-5-2.2-5-5s2.2-5,5-5s5,2.2,5,5S151.4,148.9,148.7,148.9z M148.7,141.4
					c-1.4,0-2.5,1.1-2.5,2.5c0,1.4,1.1,2.5,2.5,2.5c1.4,0,2.5-1.1,2.5-2.5C151.1,142.6,150,141.4,148.7,141.4z"/>
			</g>
			<g id="Path_16_00000023997399980523967630000015531957998983241909_">
				<path class="st0" d="M154.7,159c-0.7,0-1.2-0.6-1.2-1.2c0-2.7-2.2-4.8-4.8-4.8c-2.7,0-4.8,2.2-4.8,4.8c0,0.7-0.6,1.2-1.2,1.2
					s-1.2-0.6-1.2-1.2c0-4,3.3-7.3,7.3-7.3c4,0,7.3,3.3,7.3,7.3C156,158.5,155.4,159,154.7,159z"/>
			</g>
		</g>
	</g>
	<g>
		<g>
			<path class="st0" d="M117.2,142.9h-42c-3,0-5.5-2.5-5.5-5.5V61.9c0-3,2.5-5.5,5.5-5.5H125c3,0,5.5,2.5,5.5,5.5v66.3
				c0,0.3-0.1,0.6-0.3,0.8l-12.1,13.5C117.9,142.8,117.5,142.9,117.2,142.9z M72.1,92.8v44.6c0,1.7,1.3,3,3,3h41.5l11.4-12.8V61.9
				c0-1.7-1.3-3-3-3H75.1c-1.7,0-3,1.3-3,3V92.8z"/>
		</g>
		<g>
			<path class="st0" d="M116.2,142.5c-0.7,0-1.2-0.6-1.2-1.2v-8.8c0-3,2.5-5.5,5.5-5.5h8.8c0.7,0,1.2,0.6,1.2,1.2s-0.6,1.2-1.2,1.2
				h-8.8c-1.7,0-3,1.3-3,3v8.8C117.4,141.9,116.9,142.5,116.2,142.5z"/>
		</g>
	</g>
	<g>
		<g>
			<path class="st0" d="M117.7,79h-27c-0.7,0-1.2-0.6-1.2-1.2s0.6-1.2,1.2-1.2h27c0.7,0,1.2,0.6,1.2,1.2S118.4,79,117.7,79z"/>
		</g>
		<g>
			<path class="st0" d="M117.7,86h-27c-0.7,0-1.2-0.6-1.2-1.2s0.6-1.2,1.2-1.2h27c0.7,0,1.2,0.6,1.2,1.2S118.4,86,117.7,86z"/>
		</g>
		<g>
			<path class="st0" d="M107.7,93.1h-17c-0.7,0-1.2-0.6-1.2-1.2s0.6-1.2,1.2-1.2h17c0.7,0,1.2,0.6,1.2,1.2S108.4,93.1,107.7,93.1z"
				/>
		</g>
		<g>
			<path class="st0" d="M83.8,80.4c-0.3,0-0.6-0.1-0.9-0.4l-1.4-1.4c-0.5-0.5-0.5-1.3,0-1.8s1.3-0.5,1.8,0l0.5,0.5l1.9-1.9
				c0.5-0.5,1.3-0.5,1.8,0c0.5,0.5,0.5,1.3,0,1.8L84.7,80C84.4,80.3,84.1,80.4,83.8,80.4z"/>
		</g>
		<g>
			<path class="st0" d="M83.8,87.4c-0.3,0-0.6-0.1-0.9-0.4l-1.4-1.4c-0.5-0.5-0.5-1.3,0-1.8c0.5-0.5,1.3-0.5,1.8,0l0.5,0.5l1.9-1.9
				c0.5-0.5,1.3-0.5,1.8,0s0.5,1.3,0,1.8l-2.8,2.8C84.4,87.3,84.1,87.4,83.8,87.4z"/>
		</g>
		<g>
			<path class="st0" d="M83.8,93.9c-0.3,0-0.6-0.1-0.9-0.4l-1.4-1.4c-0.5-0.5-0.5-1.3,0-1.8c0.5-0.5,1.3-0.5,1.8,0l0.5,0.5l1.9-1.9
				c0.5-0.5,1.3-0.5,1.8,0s0.5,1.3,0,1.8l-2.8,2.8C84.4,93.8,84.1,93.9,83.8,93.9z"/>
		</g>
	</g>
	<g>
		<path class="st0" d="M100.1,172.4c-40.1,0-72.7-32.6-72.7-72.7c0-40.1,32.6-72.7,72.7-72.7s72.7,32.6,72.7,72.7
			C172.8,139.7,140.2,172.4,100.1,172.4z M100.1,30.9c-37.9,0-68.7,30.8-68.7,68.7s30.8,68.7,68.7,68.7c37.9,0,68.7-30.8,68.7-68.7
			S138,30.9,100.1,30.9z"/>
	</g>
</g>
</svg>
