<?xml version="1.0" encoding="utf-8"?>
<!-- Generator: Adobe Illustrator 26.3.1, SVG Export Plug-In . SVG Version: 6.00 Build 0)  -->
<svg version="1.1" id="Layer_1" xmlns="http://www.w3.org/2000/svg" xmlns:xlink="http://www.w3.org/1999/xlink" x="0px" y="0px"
	 viewBox="0 0 200 200" style="enable-background:new 0 0 200 200;" xml:space="preserve">
<style type="text/css">
	.st0{fill:#0067FC;}
	.st1{fill:none;stroke:#0067FC;stroke-width:2.5732;stroke-linecap:round;stroke-linejoin:round;stroke-miterlimit:10;}
</style>
<g>
	<g>
		<g>
			<path class="st0" d="M117.2,143.2h-42c-3,0-5.5-2.5-5.5-5.5V62.1c0-3,2.5-5.5,5.5-5.5H125c3,0,5.5,2.5,5.5,5.5v66.3
				c0,0.3-0.1,0.6-0.3,0.8l-12.1,13.5C117.9,143,117.5,143.2,117.2,143.2z M72.1,93.1v44.6c0,1.7,1.3,3,3,3h41.5l11.4-12.8V62.1
				c0-1.7-1.3-3-3-3H75.1c-1.7,0-3,1.3-3,3V93.1z"/>
		</g>
		<g>
			<path class="st0" d="M116.2,142.7c-0.7,0-1.2-0.6-1.2-1.2v-8.8c0-3,2.5-5.5,5.5-5.5h8.8c0.7,0,1.2,0.6,1.2,1.2s-0.6,1.2-1.2,1.2
				h-8.8c-1.7,0-3,1.3-3,3v8.8C117.4,142.1,116.9,142.7,116.2,142.7z"/>
		</g>
	</g>
	<g>
		<g>
			<path class="st0" d="M119,115.4h-24c-0.5,0-0.9-0.4-0.9-0.9s0.4-0.9,0.9-0.9h24c0.5,0,0.9,0.4,0.9,0.9S119.5,115.4,119,115.4z"/>
		</g>
		<g>
			<path class="st0" d="M117.5,120.6H95.1c-0.5,0-0.9-0.4-0.9-0.9s0.4-0.9,0.9-0.9h22.5c0.5,0,0.9,0.4,0.9,0.9
				S118,120.6,117.5,120.6z"/>
		</g>
		<g>
			<path class="st0" d="M114.5,125.8H95.1c-0.5,0-0.9-0.4-0.9-0.9s0.4-0.9,0.9-0.9h19.4c0.5,0,0.9,0.4,0.9,0.9
				S115,125.8,114.5,125.8z"/>
		</g>
	</g>
	<g>
		<g>
			<path class="st1" d="M91.5,79.3"/>
		</g>
		<g>
			<path class="st0" d="M90.3,102.9c-0.7,0-1.3-0.6-1.3-1.3V69.8c0-0.7,0.6-1.3,1.3-1.3s1.3,0.6,1.3,1.3v31.8
				C91.6,102.3,91,102.9,90.3,102.9z"/>
		</g>
		<g>
			<path class="st0" d="M99.5,80.3c-0.3,0-0.7-0.1-0.9-0.4l-8.3-8.3l-8.1,8.1c-0.5,0.5-1.3,0.5-1.8,0c-0.5-0.5-0.5-1.3,0-1.8l9-9
				c0.2-0.2,0.6-0.4,0.9-0.4l0,0c0.3,0,0.7,0.1,0.9,0.4l9.2,9.2c0.5,0.5,0.5,1.3,0,1.8C100.1,80.1,99.8,80.3,99.5,80.3z"/>
		</g>
		<g>
			<path class="st1" d="M108.6,92.1"/>
		</g>
		<g>
			<path class="st0" d="M109.9,102.9c-0.7,0-1.3-0.6-1.3-1.3V69.8c0-0.7,0.6-1.3,1.3-1.3s1.3,0.6,1.3,1.3v31.8
				C111.1,102.3,110.6,102.9,109.9,102.9z"/>
		</g>
		<g>
			<path class="st0" d="M109.9,102.9c-0.3,0-0.7-0.1-0.9-0.4l-9.2-9.2c-0.5-0.5-0.5-1.3,0-1.8c0.5-0.5,1.3-0.5,1.8,0l8.3,8.3
				l8.1-8.1c0.5-0.5,1.3-0.5,1.8,0c0.5,0.5,0.5,1.3,0,1.8l-9,9C110.5,102.8,110.2,102.9,109.9,102.9z"/>
		</g>
	</g>
	<g>
		<path class="st0" d="M100.1,172.6c-40.1,0-72.7-32.6-72.7-72.7S60,27.2,100.1,27.2s72.7,32.6,72.7,72.7S140.2,172.6,100.1,172.6z
			 M100.1,31.2c-37.9,0-68.7,30.8-68.7,68.7c0,37.9,30.8,68.7,68.7,68.7c37.9,0,68.7-30.8,68.7-68.7C168.8,62,138,31.2,100.1,31.2z"
			/>
	</g>
	<g>
		<g>
			<g>
				<path class="st0" d="M84.3,126.8c-3.9,0-7.1-3.2-7.1-7.1s3.2-7.1,7.1-7.1s7.1,3.2,7.1,7.1S88.2,126.8,84.3,126.8z M84.3,114.3
					c-2.9,0-5.3,2.4-5.3,5.3s2.4,5.3,5.3,5.3c2.9,0,5.3-2.4,5.3-5.3S87.2,114.3,84.3,114.3z"/>
			</g>
		</g>
		<g>
			<path class="st0" d="M81,125.9c-0.2,0-0.3,0-0.5-0.1c-0.4-0.3-0.6-0.8-0.3-1.2l6.4-10.7c0.3-0.4,0.8-0.6,1.2-0.3
				c0.4,0.3,0.6,0.8,0.3,1.2l-6.4,10.7C81.6,125.7,81.3,125.9,81,125.9z"/>
		</g>
	</g>
</g>
</svg>
