<?xml version="1.0" encoding="utf-8"?>
<!-- Generator: Adobe Illustrator 26.3.1, SVG Export Plug-In . SVG Version: 6.00 Build 0)  -->
<svg version="1.1" id="Layer_1" xmlns="http://www.w3.org/2000/svg" xmlns:xlink="http://www.w3.org/1999/xlink" x="0px" y="0px"
	 viewBox="0 0 200 200" style="enable-background:new 0 0 200 200;" xml:space="preserve">
<style type="text/css">
	.st0{fill:#0067FC;}
</style>
<g>
	<g>
		<g>
			<path class="st0" d="M117.2,143.2h-42c-3,0-5.5-2.5-5.5-5.5V62.1c0-3,2.5-5.5,5.5-5.5H125c3,0,5.5,2.5,5.5,5.5v66.3
				c0,0.3-0.1,0.6-0.3,0.8l-12.1,13.5C117.9,143,117.5,143.2,117.2,143.2z M72.1,93.1v44.6c0,1.7,1.3,3,3,3h41.5l11.4-12.8V62.1
				c0-1.7-1.3-3-3-3H75.1c-1.7,0-3,1.3-3,3V93.1z"/>
		</g>
		<g>
			<path class="st0" d="M116.2,142.7c-0.7,0-1.2-0.6-1.2-1.2v-8.8c0-3,2.5-5.5,5.5-5.5h8.8c0.7,0,1.2,0.6,1.2,1.2s-0.6,1.2-1.2,1.2
				h-8.8c-1.7,0-3,1.3-3,3v8.8C117.4,142.1,116.9,142.7,116.2,142.7z"/>
		</g>
	</g>
	<g>
		<g>
			<path class="st0" d="M116.9,106.1H83.3c-0.7,0-1.2-0.6-1.2-1.2s0.6-1.2,1.2-1.2h33.6c0.7,0,1.2,0.6,1.2,1.2
				S117.5,106.1,116.9,106.1z"/>
		</g>
		<g>
			<path class="st0" d="M114.9,113.2H83.3c-0.7,0-1.2-0.6-1.2-1.2s0.6-1.2,1.2-1.2h31.6c0.7,0,1.2,0.6,1.2,1.2
				S115.5,113.2,114.9,113.2z"/>
		</g>
		<g>
			<path class="st0" d="M112.9,120.3H83.3c-0.7,0-1.2-0.6-1.2-1.2s0.6-1.2,1.2-1.2h29.6c0.7,0,1.2,0.6,1.2,1.2
				S113.5,120.3,112.9,120.3z"/>
		</g>
		<g>
			<path class="st0" d="M108.8,127.3H83.3c-0.7,0-1.2-0.6-1.2-1.2s0.6-1.2,1.2-1.2h25.6c0.7,0,1.2,0.6,1.2,1.2
				S109.5,127.3,108.8,127.3z"/>
		</g>
		<g>
			<path class="st0" d="M101.8,134.4H83.3c-0.7,0-1.2-0.6-1.2-1.2s0.6-1.2,1.2-1.2h18.6c0.7,0,1.2,0.6,1.2,1.2
				S102.5,134.4,101.8,134.4z"/>
		</g>
	</g>
	<g>
		<path class="st0" d="M100.1,172.6c-40.1,0-72.7-32.6-72.7-72.7S60,27.2,100.1,27.2s72.7,32.6,72.7,72.7S140.2,172.6,100.1,172.6z
			 M100.1,31.2c-37.9,0-68.7,30.8-68.7,68.7c0,37.9,30.8,68.7,68.7,68.7c37.9,0,68.7-30.8,68.7-68.7C168.8,62,138,31.2,100.1,31.2z"
			/>
	</g>
	<g>
		<g>
			<path class="st0" d="M99.9,94.6c-3.3,0-6.7-1.3-9.2-3.8c-5.1-5.1-5.1-13.3,0-18.4c5.1-5.1,13.3-5.1,18.4,0
				c5.1,5.1,5.1,13.3,0,18.4C106.6,93.4,103.2,94.6,99.9,94.6z M99.9,71.1c-2.7,0-5.4,1-7.4,3.1c-4.1,4.1-4.1,10.8,0,14.8
				c4.1,4.1,10.8,4.1,14.8,0c4.1-4.1,4.1-10.8,0-14.8C105.3,72.2,102.6,71.1,99.9,71.1z"/>
		</g>
		<g>
			<path class="st0" d="M116.9,99.8c-0.3,0-0.6-0.1-0.9-0.4l-8.2-8.2c-0.5-0.5-0.5-1.3,0-1.8c0.5-0.5,1.3-0.5,1.8,0l8.2,8.2
				c0.5,0.5,0.5,1.3,0,1.8C117.5,99.7,117.2,99.8,116.9,99.8z"/>
		</g>
	</g>
</g>
</svg>
