<?xml version="1.0" encoding="utf-8"?>
<!-- Generator: Adobe Illustrator 26.4.0, SVG Export Plug-In . SVG Version: 6.00 Build 0)  -->
<svg version="1.1" id="Layer_1" xmlns="http://www.w3.org/2000/svg" xmlns:xlink="http://www.w3.org/1999/xlink" x="0px" y="0px"
	 viewBox="0 0 200 200" style="enable-background:new 0 0 200 200;" xml:space="preserve">
<style type="text/css">
	.st0{fill:#0067FC;}
</style>
<g>
	<g>
		<path class="st0" d="M108.4,76.8c-0.3,0-0.6-0.1-0.9-0.4c-0.5-0.5-0.5-1.3,0-1.8l5.8-5.8l-5.7-5.7c-0.5-0.5-0.5-1.3,0-1.8
			s1.3-0.5,1.8,0L116,68c0.5,0.5,0.5,1.3,0,1.8l-6.7,6.7C109.1,76.7,108.8,76.8,108.4,76.8z"/>
	</g>
	<g>
		<path class="st0" d="M100,172.7c-40.1,0-72.7-32.6-72.7-72.7S59.9,27.3,100,27.3s72.7,32.6,72.7,72.7S140.1,172.7,100,172.7z
			 M100,31.3c-37.9,0-68.7,30.8-68.7,68.7c0,37.9,30.8,68.7,68.7,68.7c37.9,0,68.7-30.8,68.7-68.7C168.7,62.1,137.9,31.3,100,31.3z"
			/>
	</g>
	<g>
		<g>
			<path class="st0" d="M133.9,127.3H66.1c-0.8,0-1.4-0.6-1.4-1.4V91.4c0-0.8,0.6-1.4,1.4-1.4h67.8c0.8,0,1.4,0.6,1.4,1.4v34.5
				C135.3,126.7,134.7,127.3,133.9,127.3z M67.5,124.5h65V92.8h-65V124.5z"/>
		</g>
		<g>
			<path class="st0" d="M100,113c-0.5,0-0.9-0.2-1.2-0.7c-0.4-0.7-0.2-1.5,0.5-1.9l33.9-20.2c0.7-0.4,1.5-0.2,1.9,0.5
				c0.4,0.7,0.2,1.5-0.5,1.9l-33.9,20.2C100.5,112.9,100.2,113,100,113z"/>
		</g>
		<g>
			<path class="st0" d="M100,113c-0.2,0-0.5-0.1-0.7-0.2L65.4,92.6c-0.7-0.4-0.9-1.3-0.5-1.9c0.4-0.7,1.3-0.9,1.9-0.5l33.9,20.2
				c0.7,0.4,0.9,1.3,0.5,1.9C100.9,112.7,100.5,113,100,113z"/>
		</g>
		<g>
			<path class="st0" d="M133.9,127.3c-0.3,0-0.6-0.1-0.9-0.3l-23.8-20.3c-0.6-0.5-0.7-1.4-0.2-2c0.5-0.6,1.4-0.7,2-0.2l23.8,20.3
				c0.6,0.5,0.7,1.4,0.2,2C134.7,127.1,134.3,127.3,133.9,127.3z"/>
		</g>
		<g>
			<path class="st0" d="M66.1,127.3c-0.4,0-0.8-0.2-1-0.5c-0.5-0.6-0.5-1.5,0.1-2l23.4-20.6c0.6-0.5,1.5-0.5,2,0.1
				c0.5,0.6,0.5,1.5-0.1,2L67,126.9C66.8,127.2,66.4,127.3,66.1,127.3z"/>
		</g>
	</g>
	<g>
		<path class="st0" d="M100,85.6c-0.8,0-1.4-0.6-1.4-1.4V68.9c0-0.8,0.6-1.4,1.4-1.4h14.2c0.8,0,1.4,0.6,1.4,1.4s-0.6,1.4-1.4,1.4
			h-12.8v14C101.4,85,100.8,85.6,100,85.6z"/>
	</g>
</g>
</svg>
