<?xml version="1.0" encoding="utf-8"?>
<!-- Generator: Adobe Illustrator 26.3.1, SVG Export Plug-In . SVG Version: 6.00 Build 0)  -->
<svg version="1.1" id="Layer_1" xmlns="http://www.w3.org/2000/svg" xmlns:xlink="http://www.w3.org/1999/xlink" x="0px" y="0px"
	 viewBox="0 0 200 200" style="enable-background:new 0 0 200 200;" xml:space="preserve">
<style type="text/css">
	.st0{fill:#0067FC;}
</style>
<g>
	<g>
		<g>
			<path class="st0" d="M117.2,143.2h-42c-3,0-5.5-2.5-5.5-5.5V62.1c0-3,2.5-5.5,5.5-5.5H125c3,0,5.5,2.5,5.5,5.5v66.3
				c0,0.3-0.1,0.6-0.3,0.8l-12.1,13.5C117.9,143,117.5,143.2,117.2,143.2z M72.1,93.1v44.6c0,1.7,1.3,3,3,3h41.5l11.4-12.8V62.1
				c0-1.7-1.3-3-3-3H75.1c-1.7,0-3,1.3-3,3V93.1z"/>
		</g>
		<g>
			<path class="st0" d="M116.2,142.7c-0.7,0-1.2-0.6-1.2-1.2v-8.8c0-3,2.5-5.5,5.5-5.5h8.8c0.7,0,1.2,0.6,1.2,1.2s-0.6,1.2-1.2,1.2
				h-8.8c-1.7,0-3,1.3-3,3v8.8C117.4,142.1,116.9,142.7,116.2,142.7z"/>
		</g>
	</g>
	<g>
		<g>
			<path class="st0" d="M100.1,133.1c-11.3,0-20.6-9.2-20.6-20.6s9.2-20.6,20.6-20.6c11.3,0,20.6,9.2,20.6,20.6
				S111.4,133.1,100.1,133.1z M100.1,94.4c-10,0-18.1,8.1-18.1,18.1s8.1,18.1,18.1,18.1s18.1-8.1,18.1-18.1S110,94.4,100.1,94.4z"/>
		</g>
		<g>
			<g id="Group_263_00000049928083650488525160000008925068961012842670_" transform="translate(-598.5 -520.001)">
				<g id="Group_259_00000088124649593155532360000014779288753037894282_" transform="translate(549.903 487.744)">
					<g id="Ellipse_9_00000159444932795269960480000004892195180149826484_">
						<path class="st0" d="M149.5,144.5c-4.1,0-7.4-3.3-7.4-7.4c0-4.1,3.3-7.4,7.4-7.4s7.4,3.3,7.4,7.4
							C156.9,141.2,153.6,144.5,149.5,144.5z M149.5,132.2c-2.7,0-4.9,2.2-4.9,4.9s2.2,4.9,4.9,4.9c2.7,0,4.9-2.2,4.9-4.9
							S152.2,132.2,149.5,132.2z"/>
					</g>
					<g id="Path_16_00000178918618333551566370000006085739127109987469_">
						<path class="st0" d="M159.5,156c-0.7,0-1.2-0.6-1.2-1.2c0-4.8-3.9-8.7-8.7-8.7s-8.7,3.9-8.7,8.7c0,0.7-0.6,1.2-1.2,1.2
							s-1.2-0.6-1.2-1.2c0-6.2,5-11.2,11.2-11.2c6.2,0,11.2,5,11.2,11.2C160.7,155.5,160.2,156,159.5,156z"/>
					</g>
				</g>
			</g>
		</g>
	</g>
	<g>
		<path class="st0" d="M100.1,172.6c-40.1,0-72.7-32.6-72.7-72.7S60,27.2,100.1,27.2s72.7,32.6,72.7,72.7S140.2,172.6,100.1,172.6z
			 M100.1,31.2c-37.9,0-68.7,30.8-68.7,68.7c0,37.9,30.8,68.7,68.7,68.7c37.9,0,68.7-30.8,68.7-68.7C168.8,62,138,31.2,100.1,31.2z"
			/>
	</g>
	<g>
		<path class="st0" d="M117.6,84.2H83.5c-0.7,0-1.2-0.6-1.2-1.2V68c0-0.7,0.6-1.2,1.2-1.2h34.1c0.7,0,1.2,0.6,1.2,1.2V83
			C118.9,83.7,118.3,84.2,117.6,84.2z M84.8,81.7h31.6V69.3H84.8V81.7z"/>
	</g>
	<g>
		<path class="st0" d="M107.9,91.9c-0.2,0-0.3,0-0.5-0.1c-0.5-0.2-0.8-0.6-0.8-1.2V83c0-0.7,0.6-1.2,1.2-1.2h7.8
			c0.5,0,1,0.3,1.2,0.8s0.1,1-0.3,1.4l-7.8,7.7C108.5,91.8,108.2,91.9,107.9,91.9z M109.1,84.2v3.5l3.5-3.5H109.1z"/>
	</g>
	<g>
		<path class="st0" d="M107.9,74.7H89.3c-0.7,0-1.2-0.6-1.2-1.2s0.6-1.2,1.2-1.2h18.6c0.7,0,1.2,0.6,1.2,1.2S108.6,74.7,107.9,74.7z
			"/>
	</g>
	<g>
		<path class="st0" d="M103.5,79.4H89.3c-0.7,0-1.2-0.6-1.2-1.2s0.6-1.2,1.2-1.2h14.2c0.7,0,1.2,0.6,1.2,1.2S104.2,79.4,103.5,79.4z
			"/>
	</g>
</g>
</svg>
