<?xml version="1.0" encoding="utf-8"?>
<!-- Generator: Adobe Illustrator 26.3.1, SVG Export Plug-In . SVG Version: 6.00 Build 0)  -->
<svg version="1.1" id="Layer_1" xmlns="http://www.w3.org/2000/svg" xmlns:xlink="http://www.w3.org/1999/xlink" x="0px" y="0px"
	 viewBox="0 0 200 200" style="enable-background:new 0 0 200 200;" xml:space="preserve">
<style type="text/css">
	.st0{fill:#0067FC;}
</style>
<g>
	<g>
		<path class="st0" d="M121.8,78.9h-16.6c-0.7,0-1.2-0.6-1.2-1.2v-8.9c0-0.7,0.6-1.2,1.2-1.2h16.6c0.7,0,1.2,0.6,1.2,1.2v8.9
			C123.1,78.4,122.5,78.9,121.8,78.9z M106.5,76.4h14.1V70h-14.1V76.4z"/>
	</g>
	<g>
		<path class="st0" d="M114.6,74.4h-5.4c-0.7,0-1.2-0.6-1.2-1.2s0.6-1.2,1.2-1.2h5.4c0.7,0,1.2,0.6,1.2,1.2S115.3,74.4,114.6,74.4z"
			/>
	</g>
	<g>
		<path class="st0" d="M121.8,93.6h-16.6c-0.7,0-1.2-0.6-1.2-1.2v-8.9c0-0.7,0.6-1.2,1.2-1.2h16.6c0.7,0,1.2,0.6,1.2,1.2v8.9
			C123.1,93,122.5,93.6,121.8,93.6z M106.5,91.1h14.1v-6.4h-14.1V91.1z"/>
	</g>
	<g>
		<path class="st0" d="M114.6,89.1h-5.4c-0.7,0-1.2-0.6-1.2-1.2s0.6-1.2,1.2-1.2h5.4c0.7,0,1.2,0.6,1.2,1.2S115.3,89.1,114.6,89.1z"
			/>
	</g>
	<g>
		<path class="st0" d="M84.6,125.7h-7.7c-0.6,0-1.2-0.5-1.2-1.2v-11.1c0-0.6,0.5-1.2,1.2-1.2h7.7c0.6,0,1.2,0.5,1.2,1.2v11.1
			C85.8,125.2,85.3,125.7,84.6,125.7z M78.1,123.4h5.4v-8.8h-5.4V123.4z"/>
	</g>
	<g>
		<path class="st0" d="M97.2,125.7h-7.7c-0.6,0-1.2-0.5-1.2-1.2v-17.1c0-0.6,0.5-1.2,1.2-1.2h7.7c0.6,0,1.2,0.5,1.2,1.2v17.1
			C98.3,125.2,97.8,125.7,97.2,125.7z M90.6,123.4H96v-14.8h-5.4V123.4z"/>
	</g>
	<g>
		<path class="st0" d="M109.3,125.7h-7.7c-0.6,0-1.2-0.5-1.2-1.2v-22c0-0.6,0.5-1.2,1.2-1.2h7.7c0.6,0,1.2,0.5,1.2,1.2v22
			C110.4,125.2,109.9,125.7,109.3,125.7z M102.7,123.4h5.4v-19.7h-5.4V123.4z"/>
	</g>
	<g>
		<path class="st0" d="M121.7,125.9H114c-0.7,0-1.3-0.6-1.3-1.3V98c0-0.7,0.6-1.3,1.3-1.3h7.7c0.7,0,1.3,0.6,1.3,1.3v26.6
			C123,125.3,122.4,125.9,121.7,125.9z M115.3,123.3h5.2V99.2h-5.2V123.3z"/>
	</g>
	<g>
		<g>
			<g>
				<path class="st0" d="M117.2,143.2h-42c-3,0-5.5-2.5-5.5-5.5V62.1c0-3,2.5-5.5,5.5-5.5H125c3,0,5.5,2.5,5.5,5.5v66.3
					c0,0.3-0.1,0.6-0.3,0.8l-12.1,13.5C117.9,143,117.5,143.2,117.2,143.2z M72.1,93.1v44.6c0,1.7,1.3,3,3,3h41.5l11.4-12.8V62.1
					c0-1.7-1.3-3-3-3H75.1c-1.7,0-3,1.3-3,3V93.1z"/>
			</g>
			<g>
				<path class="st0" d="M116.2,142.7c-0.7,0-1.2-0.6-1.2-1.2v-8.8c0-3,2.5-5.5,5.5-5.5h8.8c0.7,0,1.2,0.6,1.2,1.2s-0.6,1.2-1.2,1.2
					h-8.8c-1.7,0-3,1.3-3,3v8.8C117.4,142.1,116.9,142.7,116.2,142.7z"/>
			</g>
		</g>
	</g>
	<g>
		<g>
			<path class="st0" d="M90,92.9c-6.3,0-11.3-5.1-11.3-11.3c0-6.3,5.1-11.3,11.3-11.3c0.7,0,1.2,0.6,1.2,1.2v8.8h8.8
				c0.7,0,1.2,0.6,1.2,1.2C101.4,87.8,96.3,92.9,90,92.9z M88.8,72.8c-4.3,0.6-7.6,4.3-7.6,8.8c0,4.9,4,8.8,8.8,8.8
				c4.5,0,8.1-3.3,8.8-7.6H90c-0.7,0-1.2-0.6-1.2-1.2V72.8z"/>
		</g>
		<g>
			<path class="st0" d="M92.4,68.9V79h10.1C102.5,73.4,98,68.9,92.4,68.9z"/>
		</g>
	</g>
	<g>
		<path class="st0" d="M100.1,172.6c-40.1,0-72.7-32.6-72.7-72.7S60,27.2,100.1,27.2s72.7,32.6,72.7,72.7S140.2,172.6,100.1,172.6z
			 M100.1,31.2c-37.9,0-68.7,30.8-68.7,68.7c0,37.9,30.8,68.7,68.7,68.7c37.9,0,68.7-30.8,68.7-68.7C168.8,62,138,31.2,100.1,31.2z"
			/>
	</g>
</g>
</svg>
