<?xml version="1.0" encoding="utf-8"?>
<!-- Generator: Adobe Illustrator 26.3.1, SVG Export Plug-In . SVG Version: 6.00 Build 0)  -->
<svg version="1.1" id="Layer_1" xmlns="http://www.w3.org/2000/svg" xmlns:xlink="http://www.w3.org/1999/xlink" x="0px" y="0px"
	 viewBox="0 0 200 200" style="enable-background:new 0 0 200 200;" xml:space="preserve">
<style type="text/css">
	.st0{fill:#0067FC;}
</style>
<g>
	<g>
		<g>
			<g>
				<path class="st0" d="M100.1,101.3c-10,0-18.2-8.2-18.2-18.2s8.2-18.2,18.2-18.2c10,0,18.2,8.2,18.2,18.2
					S110.1,101.3,100.1,101.3z M100.1,67.4c-8.7,0-15.7,7-15.7,15.7s7,15.7,15.7,15.7s15.7-7,15.7-15.7S108.7,67.4,100.1,67.4z"/>
			</g>
		</g>
		<g id="Group_263_00000171712525654300207910000015858392144033855874_" transform="translate(-598.5 -520.001)">
			<g id="Group_259_00000107590744612336831420000005446138933190215578_" transform="translate(549.903 487.744)">
				<g id="Ellipse_9_00000173130669180089429520000010559729614992800690_">
					<path class="st0" d="M148.7,115.2c-2.8,0-5.2-2.3-5.2-5.2c0-2.8,2.3-5.2,5.2-5.2c2.8,0,5.2,2.3,5.2,5.2
						C153.8,112.9,151.5,115.2,148.7,115.2z M148.7,107.4c-1.5,0-2.7,1.2-2.7,2.7c0,1.5,1.2,2.7,2.7,2.7c1.5,0,2.7-1.2,2.7-2.7
						C151.3,108.6,150.1,107.4,148.7,107.4z"/>
				</g>
				<g id="Path_16_00000013174294375314268540000014778500674831362999_">
					<path class="st0" d="M155,125.8c-0.7,0-1.2-0.6-1.2-1.2c0-2.8-2.3-5.1-5.1-5.1c-2.8,0-5.1,2.3-5.1,5.1c0,0.7-0.6,1.2-1.2,1.2
						s-1.2-0.6-1.2-1.2c0-4.2,3.4-7.6,7.6-7.6s7.6,3.4,7.6,7.6C156.3,125.3,155.7,125.8,155,125.8z"/>
				</g>
			</g>
		</g>
	</g>
	<g>
		<g>
			<path class="st0" d="M122,110.8h-10c-0.7,0-1.2-0.6-1.2-1.2s0.6-1.2,1.2-1.2h10c0.7,0,1.2,0.6,1.2,1.2S122.7,110.8,122,110.8z"/>
		</g>
		<g>
			<path class="st0" d="M122,117.9h-10c-0.7,0-1.2-0.6-1.2-1.2s0.6-1.2,1.2-1.2h10c0.7,0,1.2,0.6,1.2,1.2S122.7,117.9,122,117.9z"/>
		</g>
		<g>
			<path class="st0" d="M117,124.9h-5c-0.7,0-1.2-0.6-1.2-1.2s0.6-1.2,1.2-1.2h5c0.7,0,1.2,0.6,1.2,1.2S117.7,124.9,117,124.9z"/>
		</g>
		<g>
			<path class="st0" d="M105.1,112.2L105.1,112.2c-0.3,0-0.6-0.1-0.9-0.4l-1.4-1.4c-0.5-0.5-0.5-1.3,0-1.8c0.5-0.5,1.3-0.5,1.8,0
				l0.5,0.5l1.9-1.9c0.5-0.5,1.3-0.5,1.8,0s0.5,1.3,0,1.8l-2.8,2.8C105.7,112.1,105.4,112.2,105.1,112.2z"/>
		</g>
		<g>
			<path class="st0" d="M105.1,119.3L105.1,119.3c-0.3,0-0.6-0.1-0.9-0.4l-1.4-1.4c-0.5-0.5-0.5-1.3,0-1.8c0.5-0.5,1.3-0.5,1.8,0
				l0.5,0.5l1.9-1.9c0.5-0.5,1.3-0.5,1.8,0s0.5,1.3,0,1.8l-2.8,2.8C105.7,119.1,105.4,119.3,105.1,119.3z"/>
		</g>
		<g>
			<path class="st0" d="M105.1,125.7L105.1,125.7c-0.3,0-0.6-0.1-0.9-0.4l-1.4-1.4c-0.5-0.5-0.5-1.3,0-1.8c0.5-0.5,1.3-0.5,1.8,0
				l0.5,0.5l1.9-1.9c0.5-0.5,1.3-0.5,1.8,0s0.5,1.3,0,1.8l-2.8,2.8C105.7,125.6,105.4,125.7,105.1,125.7z"/>
		</g>
	</g>
	<g>
		<g>
			<path class="st0" d="M87.2,127.6c-5.8,0-10.6-4.8-10.6-10.6s4.8-10.6,10.6-10.6c0.7,0,1.2,0.6,1.2,1.2v8.1h8.1
				c0.7,0,1.2,0.6,1.2,1.2C97.8,122.9,93.1,127.6,87.2,127.6z M86,109c-3.9,0.6-6.9,4-6.9,8c0,4.5,3.6,8.1,8.1,8.1c4,0,7.4-3,8-6.9
				h-8c-0.7,0-1.2-0.6-1.2-1.2V109z"/>
		</g>
		<g>
			<path class="st0" d="M89.4,105.2l0,9.4h9.4C98.8,109.4,94.6,105.2,89.4,105.2z"/>
		</g>
	</g>
	<g>
		<g>
			<path class="st0" d="M117.2,143.2h-42c-3,0-5.5-2.5-5.5-5.5V62.1c0-3,2.5-5.5,5.5-5.5H125c3,0,5.5,2.5,5.5,5.5v66.3
				c0,0.3-0.1,0.6-0.3,0.8l-12.1,13.5C117.9,143,117.5,143.2,117.2,143.2z M72.1,93.1v44.6c0,1.7,1.3,3,3,3h41.5l11.4-12.8V62.1
				c0-1.7-1.3-3-3-3H75.1c-1.7,0-3,1.3-3,3V93.1z"/>
		</g>
		<g>
			<path class="st0" d="M116.2,142.7c-0.7,0-1.2-0.6-1.2-1.2v-8.8c0-3,2.5-5.5,5.5-5.5h8.8c0.7,0,1.2,0.6,1.2,1.2s-0.6,1.2-1.2,1.2
				h-8.8c-1.7,0-3,1.3-3,3v8.8C117.4,142.1,116.9,142.7,116.2,142.7z"/>
		</g>
	</g>
	<g>
		<path class="st0" d="M100.1,172.6c-40.1,0-72.7-32.6-72.7-72.7S60,27.2,100.1,27.2s72.7,32.6,72.7,72.7S140.2,172.6,100.1,172.6z
			 M100.1,31.2c-37.9,0-68.7,30.8-68.7,68.7c0,37.9,30.8,68.7,68.7,68.7c37.9,0,68.7-30.8,68.7-68.7C168.8,62,138,31.2,100.1,31.2z"
			/>
	</g>
</g>
</svg>
