<?xml version="1.0" encoding="utf-8"?>
<!-- Generator: Adobe Illustrator 26.3.1, SVG Export Plug-In . SVG Version: 6.00 Build 0)  -->
<svg version="1.1" id="Layer_1" xmlns="http://www.w3.org/2000/svg" xmlns:xlink="http://www.w3.org/1999/xlink" x="0px" y="0px"
	 viewBox="0 0 200 200" style="enable-background:new 0 0 200 200;" xml:space="preserve">
<style type="text/css">
	.st0{fill:#0067FC;}
</style>
<g>
	<g>
		<g>
			<path class="st0" d="M117.1,143.3h-42c-3,0-5.5-2.5-5.5-5.5V62.2c0-3,2.5-5.5,5.5-5.5h49.8c3,0,5.5,2.5,5.5,5.5v66.3
				c0,0.3-0.1,0.6-0.3,0.8L118,142.9C117.8,143.1,117.5,143.3,117.1,143.3z M72.1,93.2v44.6c0,1.7,1.3,3,3,3h41.5l11.4-12.8V62.2
				c0-1.7-1.3-3-3-3H75.1c-1.7,0-3,1.3-3,3V93.2z"/>
		</g>
		<g>
			<path class="st0" d="M116.1,142.8c-0.7,0-1.2-0.6-1.2-1.2v-8.8c0-3,2.5-5.5,5.5-5.5h8.8c0.7,0,1.2,0.6,1.2,1.2s-0.6,1.2-1.2,1.2
				h-8.8c-1.7,0-3,1.3-3,3v8.8C117.4,142.3,116.8,142.8,116.1,142.8z"/>
		</g>
	</g>
	<g>
		<path class="st0" d="M83.6,101.2c-0.3,0-0.6-0.1-0.9-0.4l-4.5-4.5c-0.5-0.5-0.5-1.3,0-1.8s1.3-0.5,1.8,0l3.6,3.6l3.5-3.5
			c0.5-0.5,1.3-0.5,1.8,0s0.5,1.3,0,1.8l-4.4,4.4C84.2,101.1,83.9,101.2,83.6,101.2z"/>
	</g>
	<g>
		<path class="st0" d="M100,117.6c-5.6,0-10.8-2.6-14.1-7.1c-0.4-0.6-0.3-1.3,0.2-1.8c0.6-0.4,1.3-0.3,1.8,0.2
			c2.9,3.9,7.3,6.1,12.1,6.1c8.4,0,15.1-6.8,15.1-15.1s-6.8-15.1-15.1-15.1S84.9,91.6,84.9,100c0,0.7-0.6,1.2-1.2,1.2
			s-1.2-0.6-1.2-1.2c0-9.7,7.9-17.6,17.6-17.6c9.7,0,17.6,7.9,17.6,17.6C117.6,109.7,109.7,117.6,100,117.6z"/>
	</g>
	<g>
		<path class="st0" d="M100,172.7c-40.1,0-72.7-32.6-72.7-72.7S59.9,27.3,100,27.3s72.7,32.6,72.7,72.7S140.1,172.7,100,172.7z
			 M100,31.3c-37.9,0-68.7,30.8-68.7,68.7c0,37.9,30.8,68.7,68.7,68.7c37.9,0,68.7-30.8,68.7-68.7C168.7,62.1,137.9,31.3,100,31.3z"
			/>
	</g>
	<g>
		<path class="st0" d="M104.3,105.2c-0.3,0-0.6-0.1-0.8-0.3l-4.3-4c-0.5-0.5-0.5-1.3-0.1-1.8c0.5-0.5,1.3-0.5,1.8-0.1l4.3,4
			c0.5,0.5,0.5,1.3,0.1,1.8C105,105.1,104.7,105.2,104.3,105.2z"/>
	</g>
	<g>
		<path class="st0" d="M100,101.2c-0.7,0-1.2-0.6-1.2-1.2V89.8c0-0.7,0.6-1.2,1.2-1.2s1.2,0.6,1.2,1.2V100
			C101.2,100.7,100.7,101.2,100,101.2z"/>
	</g>
</g>
</svg>
