<svg xmlns="http://www.w3.org/2000/svg" xmlns:xlink="http://www.w3.org/1999/xlink" viewBox="0 0 99.26 150"><defs><style>.cls-1{fill:none;}.cls-2{clip-path:url(#clip-path);}.cls-3{fill:#0e9c56;}.cls-4{fill:#fff;}</style><clipPath id="clip-path" transform="translate(-25.37)"><rect class="cls-1" width="150" height="150"/></clipPath></defs><g id="Layer_2" data-name="Layer 2"><g id="Layer_1-2" data-name="Layer 1"><g class="cls-2"><path class="cls-3" d="M87.45,0H31.06a5.68,5.68,0,0,0-5.69,5.68V122.3A5.69,5.69,0,0,0,31.06,128h87.88a5.69,5.69,0,0,0,5.69-5.69V37.18a5.68,5.68,0,0,0-1.67-4L91.47,1.66A5.73,5.73,0,0,0,87.45,0Z" transform="translate(-25.37)"/><path class="cls-4" d="M90.8,32.8V5.63A1.13,1.13,0,0,0,89.67,4.5h0a1.13,1.13,0,0,0-1.13,1.13V35.05a1.13,1.13,0,0,0,1.13,1.13H119.1a1.12,1.12,0,0,0,1.12-1.13h0a1.13,1.13,0,0,0-1.12-1.13H91.93A1.12,1.12,0,0,1,90.8,32.8Z" transform="translate(-25.37)"/><polygon class="cls-3" points="95.14 140.44 91.64 140.44 91.64 131.85 86.91 131.85 86.91 140.44 83.42 140.44 89.28 146.3 95.14 140.44"/><polygon class="cls-3" points="91.85 144.85 89.28 147.42 86.7 144.85 79.3 144.85 79.3 150 99.25 150 99.25 144.85 91.85 144.85"/><path class="cls-4" d="M42.54,49.12v48.7h64.92V49.12Zm61.68,14.66H76.62V52.37h27.6ZM76.62,67h27.6V79.14H76.62ZM73.38,79.14H45.78V67h27.6Zm0-26.77V63.78H45.78V52.37Zm-27.6,30h27.6V94.57H45.78ZM76.62,94.57V82.38h27.6V94.57Z" transform="translate(-25.37)"/><rect class="cls-4" x="17.16" y="102.58" width="64.93" height="19.91" rx="2.26"/><path class="cls-3" d="M54.14,117.66a4.62,4.62,0,0,1-1.84,1.58,6,6,0,0,1-2.69.59,6.16,6.16,0,0,1-3.91-1.14,3.87,3.87,0,0,1-1.45-3.24h3.64a1.58,1.58,0,0,0,1.72,1.68,1.64,1.64,0,0,0,1.16-.39,1.35,1.35,0,0,0,.42-1,1.24,1.24,0,0,0-.36-.92,2.42,2.42,0,0,0-.88-.56,15.2,15.2,0,0,0-1.5-.48,15.23,15.23,0,0,1-2.16-.74,3.82,3.82,0,0,1-1.44-1.16,3.34,3.34,0,0,1-.6-2.08,3.91,3.91,0,0,1,.68-2.28A4.32,4.32,0,0,1,46.78,106a7,7,0,0,1,6.33.5,3.91,3.91,0,0,1,1.46,3.25H50.85a1.86,1.86,0,0,0-.49-1.17,1.37,1.37,0,0,0-1-.41,1.6,1.6,0,0,0-1.07.34,1.27,1.27,0,0,0-.41,1,1.32,1.32,0,0,0,.36,1,2.54,2.54,0,0,0,.91.58,14.21,14.21,0,0,0,1.49.45,17.3,17.3,0,0,1,2.17.74,3.31,3.31,0,0,1,2,3.26A3.88,3.88,0,0,1,54.14,117.66Z" transform="translate(-25.37)"/><path class="cls-3" d="M69.75,105.65v14H66.33v-5.82H60.91v5.82H57.49v-14h3.42v5.62h5.42v-5.62Z" transform="translate(-25.37)"/><path class="cls-3" d="M76.17,108.21v3h4.48v2.6H76.17v3.26h5.08v2.6h-8.5V105.61h8.5v2.6Z" transform="translate(-25.37)"/><path class="cls-3" d="M87.61,108.21v3h4.48v2.6H87.61v3.26h5.08v2.6h-8.5V105.61h8.5v2.6Z" transform="translate(-25.37)"/><path class="cls-3" d="M105.75,105.65v2.6h-3.84v11.44H98.49V108.25H94.67v-2.6Z" transform="translate(-25.37)"/></g></g></g></svg>