<?xml version="1.0" encoding="utf-8"?>
<!-- Generator: Adobe Illustrator 26.3.1, SVG Export Plug-In . SVG Version: 6.00 Build 0)  -->
<svg version="1.1" id="Layer_1" xmlns="http://www.w3.org/2000/svg" xmlns:xlink="http://www.w3.org/1999/xlink" x="0px" y="0px"
	 viewBox="0 0 200 200" style="enable-background:new 0 0 200 200;" xml:space="preserve">
<style type="text/css">
	.st0{fill:#0067FC;}
</style>
<g>
	<g>
		<g>
			<path class="st0" d="M117.1,143.3h-42c-3,0-5.5-2.5-5.5-5.5V62.2c0-3,2.5-5.5,5.5-5.5h49.8c3,0,5.5,2.5,5.5,5.5v66.3
				c0,0.3-0.1,0.6-0.3,0.8L118,142.9C117.8,143.1,117.5,143.3,117.1,143.3z M72.1,93.2v44.6c0,1.7,1.3,3,3,3h41.5l11.4-12.8V62.2
				c0-1.7-1.3-3-3-3H75.1c-1.7,0-3,1.3-3,3V93.2z"/>
		</g>
		<g>
			<path class="st0" d="M116.1,142.8c-0.7,0-1.2-0.6-1.2-1.2v-8.8c0-3,2.5-5.5,5.5-5.5h8.8c0.7,0,1.2,0.6,1.2,1.2s-0.6,1.2-1.2,1.2
				h-8.8c-1.7,0-3,1.3-3,3v8.8C117.4,142.3,116.8,142.8,116.1,142.8z"/>
		</g>
	</g>
	<g>
		<g>
			<path class="st0" d="M117.6,76.3c-0.7,0-1.2-0.6-1.2-1.2v-4.2h-4.1c-0.7,0-1.2-0.6-1.2-1.2s0.6-1.2,1.2-1.2h5.4
				c0.7,0,1.2,0.6,1.2,1.2V75C118.9,75.7,118.3,76.3,117.6,76.3z"/>
		</g>
		<g>
			<path class="st0" d="M84.4,92c-0.7,0-1.2-0.6-1.2-1.2v-5.6c0-0.7,0.6-1.2,1.2-1.2s1.2,0.6,1.2,1.2v5.6C85.6,91.4,85.1,92,84.4,92
				z"/>
		</g>
		<g>
			<path class="st0" d="M92.4,91.5c-0.7,0-1.2-0.6-1.2-1.2V88c0-0.7,0.6-1.2,1.2-1.2s1.2,0.6,1.2,1.2v2.2
				C93.7,91,93.1,91.5,92.4,91.5z"/>
		</g>
		<g>
			<path class="st0" d="M100,91.5c-0.7,0-1.2-0.6-1.2-1.2v-9.5c0-0.7,0.6-1.2,1.2-1.2s1.3,0.6,1.3,1.2v9.5
				C101.2,91,100.7,91.5,100,91.5z"/>
		</g>
		<g>
			<path class="st0" d="M108.4,91.5c-0.7,0-1.2-0.6-1.2-1.2v-7.3c0-0.7,0.6-1.2,1.2-1.2s1.2,0.6,1.2,1.2v7.3
				C109.7,91,109.1,91.5,108.4,91.5z"/>
		</g>
		<g>
			<path class="st0" d="M116.5,91.2c-0.7,0-1.2-0.6-1.2-1.2V79c0-0.7,0.6-1.2,1.2-1.2s1.2,0.6,1.2,1.2v10.9
				C117.7,90.6,117.2,91.2,116.5,91.2z"/>
		</g>
		<g>
			<path class="st0" d="M91.6,84.2c-0.2,0-0.4,0-0.6-0.1l-7.2-3.8c-0.6-0.3-0.8-1.1-0.5-1.7c0.3-0.6,1.1-0.8,1.7-0.5l6.4,3.3
				l7.8-7.4c0.4-0.4,0.9-0.5,1.4-0.2l7.7,3.7l7.4-7.6c0.5-0.5,1.3-0.5,1.8,0c0.5,0.5,0.5,1.3,0,1.8l-8.1,8.2c-0.4,0.4-1,0.5-1.4,0.3
				l-7.7-3.7l-7.8,7.5C92.2,84.1,91.9,84.2,91.6,84.2z"/>
		</g>
	</g>
	<g>
		<path class="st0" d="M100,172.7c-40.1,0-72.7-32.6-72.7-72.7S59.9,27.3,100,27.3s72.7,32.6,72.7,72.7S140.1,172.7,100,172.7z
			 M100,31.3c-37.9,0-68.7,30.8-68.7,68.7c0,37.9,30.8,68.7,68.7,68.7c37.9,0,68.7-30.8,68.7-68.7C168.7,62.1,137.9,31.3,100,31.3z"
			/>
	</g>
	<g>
		<g>
			<circle class="st0" cx="94.9" cy="107.5" r="1"/>
		</g>
		<g>
			<path class="st0" d="M107.8,127.4c-0.5,0-1-0.3-1.2-0.8c-0.2-0.6,0-1.2,0.6-1.5c0.9-0.5,3.2-2.2,3.4-4c0.1-1-0.4-2.1-1.6-3.1
				c-0.5-0.4-1.1-0.7-1.7-0.8c-1.3-0.2-5.8-0.1-6.9,0c-7.8,0.8-13.1-2.3-14.9-8.8c0,0,0-0.1,0-0.1l-0.5-3.3
				c-0.5-0.2-0.9-0.5-1.1-0.8c-1-1.1-1-2.6-1-2.7c0-2.8,2-3.9,3-4.2c0.1,0,0.2,0,0.3,0h16.2c0.7,0,1.2,0.6,1.2,1.2s-0.6,1.2-1.2,1.2
				h-16c-0.3,0.1-1,0.5-1,1.8c0,0.2,0,0.7,0.3,1c0.2,0.2,0.5,0.3,1,0.3h20.8c0,0,0.1,0,0.1,0c0.1,0,11.7,1.3,11.7,12.6
				c0,0,0.2,9.5-11.2,12.1C108,127.4,107.9,127.4,107.8,127.4z M104.8,114.4c1.2,0,2.3,0,3,0.2c1.1,0.2,2.2,0.7,3,1.4
				c1.8,1.6,2.6,3.4,2.4,5.3c-0.1,0.5-0.2,1-0.4,1.4c4.2-2.9,4.1-7.2,4.1-7.5c0-8.9-8.6-10.1-9.4-10.2H87.6l0.4,2.5
				c1.5,5.3,5.6,7.6,12.2,6.9C100.8,114.5,102.9,114.4,104.8,114.4z"/>
		</g>
		<g>
			<path class="st0" d="M96.7,117.1c-0.3,0-0.6-0.1-0.9-0.4c-0.5-0.5-0.5-1.3,0-1.8c4.8-4.8,0.7-9.5,0.3-10
				c-0.5-0.5-0.4-1.3,0.1-1.8c0.5-0.5,1.3-0.4,1.8,0.1c2.2,2.4,4.9,8.2-0.3,13.5C97.3,117,97,117.1,96.7,117.1z"/>
		</g>
		<g>
			<path class="st0" d="M106,116.9c-0.3,0-0.6-0.1-0.8-0.3c-0.5-0.5-0.6-1.2-0.1-1.8c4-4.5,0.4-9.8,0.2-10c-0.4-0.6-0.3-1.3,0.3-1.7
				s1.3-0.3,1.7,0.3c1.7,2.4,3.8,8.3-0.4,13.1C106.7,116.8,106.3,116.9,106,116.9z"/>
		</g>
		<g>
			<path class="st0" d="M110.4,118.7c-0.5,0-1-0.3-1.2-0.8c-0.2-0.6,0.1-1.4,0.7-1.6c5.6-2.1,4.9-7.3,4.9-7.5
				c-0.1-0.7,0.4-1.3,1.1-1.4c0.7-0.1,1.3,0.4,1.4,1.1c0.4,2.5-0.5,7.9-6.5,10.2C110.7,118.7,110.5,118.7,110.4,118.7z"/>
		</g>
		<g>
			<path class="st0" d="M86.6,108.7h-4.7c-0.7,0-1.2-0.6-1.2-1.2s0.6-1.2,1.2-1.2h4.7c0.7,0,1.2,0.6,1.2,1.2S87.3,108.7,86.6,108.7z
				"/>
		</g>
		<g>
			<path class="st0" d="M107.5,127.4h-4c-1.6,0-3.2-0.7-4.3-1.8c-1.1-1.2-1.6-2.7-1.5-4.3l0-0.2c0.1-0.6,0.6-1.1,1.2-1.1h3.6
				c3.4,0,6.2,2.7,6.2,6l0,0.1C108.7,126.8,108.2,127.4,107.5,127.4z M100.3,122.5c0.1,0.5,0.4,1,0.8,1.4c0.6,0.7,1.5,1.1,2.4,1.1
				h2.6c-0.5-1.4-1.9-2.4-3.5-2.4H100.3z"/>
		</g>
		<g>
			<path class="st0" d="M102.5,132.3h-3.6c-0.6,0-1.2-0.5-1.2-1.1l0-0.2c-0.1-1.6,0.4-3.1,1.5-4.3c1.1-1.2,2.6-1.8,4.3-1.8h4
				c0.7,0,1.2,0.6,1.2,1.2l0,0.2C108.7,129.6,105.9,132.3,102.5,132.3z M100.3,129.8h2.3c1.6,0,3-1,3.5-2.4h-2.6
				c-0.9,0-1.8,0.4-2.4,1.1C100.6,128.8,100.4,129.3,100.3,129.8z"/>
		</g>
	</g>
</g>
</svg>
