<?xml version="1.0" encoding="utf-8"?>
<!-- Generator: Adobe Illustrator 26.3.1, SVG Export Plug-In . SVG Version: 6.00 Build 0)  -->
<svg version="1.1" id="Layer_1" xmlns="http://www.w3.org/2000/svg" xmlns:xlink="http://www.w3.org/1999/xlink" x="0px" y="0px"
	 viewBox="0 0 200 200" style="enable-background:new 0 0 200 200;" xml:space="preserve">
<style type="text/css">
	.st0{fill:#0067FC;}
</style>
<g>
	<g>
		<g>
			<path class="st0" d="M117,143.6H75c-3,0-5.5-2.5-5.5-5.5V62.6c0-3,2.5-5.5,5.5-5.5h49.8c3,0,5.5,2.5,5.5,5.5v66.3
				c0,0.3-0.1,0.6-0.3,0.8L118,143.2C117.7,143.5,117.4,143.6,117,143.6z M72,93.6v44.6c0,1.7,1.3,3,3,3h41.5l11.4-12.8V62.6
				c0-1.7-1.3-3-3-3H75c-1.7,0-3,1.3-3,3V93.6z"/>
		</g>
		<g>
			<path class="st0" d="M116,143.2c-0.7,0-1.2-0.6-1.2-1.2v-8.8c0-3,2.5-5.5,5.5-5.5h8.8c0.7,0,1.2,0.6,1.2,1.2s-0.6,1.2-1.2,1.2
				h-8.8c-1.7,0-3,1.3-3,3v8.8C117.3,142.6,116.7,143.2,116,143.2z"/>
		</g>
	</g>
	<g>
		<g>
			<path class="st0" d="M99.9,106.1c-7.3,0-13.2-5.9-13.2-13.2s5.9-13.2,13.2-13.2s13.2,5.9,13.2,13.2S107.2,106.1,99.9,106.1z
				 M99.9,82.1c-5.9,0-10.7,4.8-10.7,10.7c0,5.9,4.8,10.7,10.7,10.7c5.9,0,10.7-4.8,10.7-10.7C110.7,86.9,105.9,82.1,99.9,82.1z"/>
		</g>
	</g>
	<g id="Group_263_00000144306267707327140010000016750865007710492056_" transform="translate(-598.5 -520.001)">
		<g id="Group_259_00000103980740159842758380000016708871116828685481_" transform="translate(549.903 487.744)">
			<g id="Ellipse_9_00000103954821015785319690000011953528440199004838_">
				<path class="st0" d="M148.5,125.3c-2.2,0-4-1.8-4-4s1.8-4,4-4c2.2,0,4,1.8,4,4S150.7,125.3,148.5,125.3z M148.5,119.8
					c-0.8,0-1.5,0.7-1.5,1.5s0.7,1.5,1.5,1.5s1.5-0.7,1.5-1.5S149.4,119.8,148.5,119.8z"/>
			</g>
			<g id="Path_16_00000170255125740459920960000008966722467772895644_">
				<path class="st0" d="M153,132.9c-0.7,0-1.2-0.6-1.2-1.2c0-1.8-1.5-3.3-3.3-3.3c-1.8,0-3.3,1.5-3.3,3.3c0,0.7-0.6,1.2-1.2,1.2
					s-1.2-0.6-1.2-1.2c0-3.2,2.6-5.8,5.8-5.8s5.8,2.6,5.8,5.8C154.3,132.3,153.7,132.9,153,132.9z"/>
			</g>
		</g>
	</g>
	<g>
		<g>
			<path class="st0" d="M99.9,128.8c-0.4,0-0.8-0.2-1-0.5c-0.8-1-18.9-24.8-18.9-35.4C80,81.9,89,73,99.9,73
				c11,0,19.9,8.9,19.9,19.9c0,10.6-18.1,34.4-18.9,35.4C100.7,128.6,100.3,128.8,99.9,128.8z M99.9,75.5c-9.6,0-17.4,7.8-17.4,17.4
				c0,8.4,13.6,27.4,17.4,32.6c3.8-5.2,17.4-24.1,17.4-32.6C117.3,83.3,109.5,75.5,99.9,75.5z"/>
		</g>
	</g>
	<g>
		<path class="st0" d="M100.1,173.1c-40.1,0-72.7-32.6-72.7-72.7S60,27.7,100.1,27.7s72.7,32.6,72.7,72.7S140.2,173.1,100.1,173.1z
			 M100.1,31.7c-37.9,0-68.7,30.8-68.7,68.7c0,37.9,30.8,68.7,68.7,68.7c37.9,0,68.7-30.8,68.7-68.7C168.8,62.5,138,31.7,100.1,31.7
			z"/>
	</g>
</g>
</svg>
