<?xml version="1.0" encoding="utf-8"?>
<!-- Generator: Adobe Illustrator 26.3.1, SVG Export Plug-In . SVG Version: 6.00 Build 0)  -->
<svg version="1.1" id="Layer_1" xmlns="http://www.w3.org/2000/svg" xmlns:xlink="http://www.w3.org/1999/xlink" x="0px" y="0px"
	 viewBox="0 0 200 200" style="enable-background:new 0 0 200 200;" xml:space="preserve">
<style type="text/css">
	.st0{fill:#0067FC;}
</style>
<g>
	<g>
		<g>
			<path class="st0" d="M117.1,143.3h-42c-3,0-5.5-2.5-5.5-5.5V62.2c0-3,2.5-5.5,5.5-5.5h49.8c3,0,5.5,2.5,5.5,5.5v66.3
				c0,0.3-0.1,0.6-0.3,0.8L118,142.9C117.8,143.1,117.5,143.3,117.1,143.3z M72.1,93.2v44.6c0,1.7,1.3,3,3,3h41.5l11.4-12.8V62.2
				c0-1.7-1.3-3-3-3H75.1c-1.7,0-3,1.3-3,3V93.2z"/>
		</g>
		<g>
			<path class="st0" d="M116.1,142.8c-0.7,0-1.2-0.6-1.2-1.2v-8.8c0-3,2.5-5.5,5.5-5.5h8.8c0.7,0,1.2,0.6,1.2,1.2s-0.6,1.2-1.2,1.2
				h-8.8c-1.7,0-3,1.3-3,3v8.8C117.4,142.3,116.8,142.8,116.1,142.8z"/>
		</g>
	</g>
	<g>
		<g>
			<path class="st0" d="M99.3,75.1H79.7c-0.7,0-1.2-0.6-1.2-1.2s0.6-1.2,1.2-1.2h19.6c0.7,0,1.2,0.6,1.2,1.2S100,75.1,99.3,75.1z"/>
		</g>
		<g>
			<path class="st0" d="M95.3,82.1H79.7c-0.7,0-1.2-0.6-1.2-1.2s0.6-1.2,1.2-1.2h15.6c0.7,0,1.2,0.6,1.2,1.2S96,82.1,95.3,82.1z"/>
		</g>
		<g>
			<path class="st0" d="M88.3,89.2h-8.6c-0.7,0-1.2-0.6-1.2-1.2s0.6-1.2,1.2-1.2h8.6c0.7,0,1.2,0.6,1.2,1.2S89,89.2,88.3,89.2z"/>
		</g>
	</g>
	<g>
		<path class="st0" d="M100,172.7c-40.1,0-72.7-32.6-72.7-72.7S59.9,27.3,100,27.3s72.7,32.6,72.7,72.7S140.1,172.7,100,172.7z
			 M100,31.3c-37.9,0-68.7,30.8-68.7,68.7c0,37.9,30.8,68.7,68.7,68.7c37.9,0,68.7-30.8,68.7-68.7C168.7,62.1,137.9,31.3,100,31.3z"
			/>
	</g>
	<g>
		<path class="st0" d="M121.4,89.2h-14.1c-0.7,0-1.2-0.6-1.2-1.2V73.8c0-0.7,0.6-1.2,1.2-1.2h14.1c0.7,0,1.2,0.6,1.2,1.2v14.1
			C122.6,88.6,122.1,89.2,121.4,89.2z M108.5,86.7h11.6V75.1h-11.6V86.7z"/>
	</g>
	<g>
		<path class="st0" d="M121.4,120.7H79c-0.7,0-1.2-0.6-1.2-1.2V94.7c0-0.7,0.6-1.2,1.2-1.2h42.4c0.7,0,1.2,0.6,1.2,1.2v24.7
			C122.6,120.1,122.1,120.7,121.4,120.7z M80.2,118.2h39.9V96H80.2V118.2z"/>
	</g>
	<g>
		<path class="st0" d="M107.3,120.7c-0.7,0-1.2-0.6-1.2-1.2V94.7c0-0.7,0.6-1.2,1.2-1.2s1.2,0.6,1.2,1.2v24.7
			C108.5,120.1,108,120.7,107.3,120.7z"/>
	</g>
	<g>
		<path class="st0" d="M114.3,120.2c-0.7,0-1.2-0.6-1.2-1.2V94.7c0-0.7,0.6-1.2,1.2-1.2s1.2,0.6,1.2,1.2V119
			C115.6,119.7,115,120.2,114.3,120.2z"/>
	</g>
	<g>
		<path class="st0" d="M100,130.6H81.7c-0.7,0-1.2-0.6-1.2-1.2s0.6-1.2,1.2-1.2H100c0.7,0,1.2,0.6,1.2,1.2S100.7,130.6,100,130.6z"
			/>
	</g>
</g>
</svg>
