<?xml version="1.0" encoding="utf-8"?>
<!-- Generator: Adobe Illustrator 26.3.1, SVG Export Plug-In . SVG Version: 6.00 Build 0)  -->
<svg version="1.1" id="Layer_1" xmlns="http://www.w3.org/2000/svg" xmlns:xlink="http://www.w3.org/1999/xlink" x="0px" y="0px"
	 viewBox="0 0 200 200" style="enable-background:new 0 0 200 200;" xml:space="preserve">
<style type="text/css">
	.st0{fill:none;stroke:#0067FC;stroke-width:2.2514;stroke-linecap:round;stroke-linejoin:round;stroke-miterlimit:10;}
	.st1{fill:none;stroke:#0067FC;stroke-width:2.5;stroke-linecap:round;stroke-linejoin:round;stroke-miterlimit:10;}
	.st2{fill:none;stroke:#0067FC;stroke-width:4;stroke-linecap:round;stroke-linejoin:round;stroke-miterlimit:10;}
</style>
<g>
	<g>
		<g>
			<circle class="st0" cx="88.5" cy="79.9" r="10.8"/>
		</g>
		<g id="Group_263_00000030478731557493701180000008931892892379348099_" transform="translate(-598.5 -520.001)">
			<g id="Group_259_00000140008390091573052470000010335087671302259860_" transform="translate(549.903 487.744)">
				<circle id="Ellipse_9_00000180356566246905736990000012372619141312516996_" class="st0" cx="137.1" cy="108.7" r="2.5"/>
				<path id="Path_16_00000083078407800872938120000014606387059630828951_" class="st0" d="M133.1,118c0-2.2,1.8-4.1,4.1-4.1
					s4.1,1.8,4.1,4.1l0,0"/>
			</g>
		</g>
	</g>
	<g>
		<path class="st1" d="M70.8,93.2v-31c0-2.3,1.9-4.3,4.3-4.3h49.8c2.3,0,4.3,1.9,4.3,4.3v66.3L117.1,142h-42c-2.3,0-4.3-1.9-4.3-4.3
			V90"/>
		<path class="st1" d="M129.2,128.5h-8.8c-2.3,0-4.3,1.9-4.3,4.3v8.8"/>
	</g>
	<g>
		<line class="st1" x1="111.3" y1="72.1" x2="123.3" y2="72.1"/>
		<line class="st1" x1="111.3" y1="79.2" x2="123.3" y2="79.2"/>
		<line class="st1" x1="111.3" y1="86.2" x2="119.3" y2="86.2"/>
		<polyline class="st1" points="102.9,72.1 104.3,73.5 107.2,70.7 		"/>
		<polyline class="st1" points="102.9,79.2 104.3,80.6 107.2,77.7 		"/>
		<polyline class="st1" points="102.9,85.6 104.3,87 107.2,84.2 		"/>
	</g>
	<circle class="st2" cx="100" cy="100" r="70.7"/>
	<g>
		<path class="st1" d="M79.7,101.5v5.7c0,0.4,0.1,0.7,0.4,1l2.2,2.5c0.5,0.6,0.5,1.5-0.1,2.1l-2.1,2.1c-0.3,0.3-0.4,0.7-0.4,1.1v6.3
			c0,0.8,0.7,1.5,1.5,1.5h37.5c0.8,0,1.5-0.7,1.5-1.5v-5.7c0-0.4-0.1-0.7-0.4-1l-2.2-2.5c-0.5-0.6-0.5-1.5,0.1-2.1l2.1-2.1
			c0.3-0.3,0.4-0.7,0.4-1.1v-6.3c0-0.8-0.7-1.5-1.5-1.5H81.3C80.4,100,79.7,100.7,79.7,101.5z"/>
		<line class="st1" x1="86.9" y1="107" x2="100.6" y2="107"/>
		<line class="st1" x1="86.9" y1="112.1" x2="100.6" y2="112.1"/>
		<line class="st1" x1="86.9" y1="117.2" x2="100.6" y2="117.2"/>
		<line class="st1" x1="111.5" y1="107" x2="114.2" y2="107"/>
		<line class="st1" x1="111.5" y1="112.1" x2="114.2" y2="112.1"/>
		<line class="st1" x1="111.5" y1="117.2" x2="114.2" y2="117.2"/>
		<line class="st1" x1="106.1" y1="123.9" x2="106.1" y2="100.4"/>
	</g>
	<path class="st0" d="M121.3,107c1.5,0,2.6-1.2,2.6-2.6v-5.9c0-1.5-1.2-2.6-2.6-2.6H88.2c-1.4,0-2.5,1.1-2.5,2.5v1.6"/>
</g>
</svg>
