<?xml version="1.0" encoding="utf-8"?>
<!-- Generator: Adobe Illustrator 26.3.1, SVG Export Plug-In . SVG Version: 6.00 Build 0)  -->
<svg version="1.1" id="Layer_1" xmlns="http://www.w3.org/2000/svg" xmlns:xlink="http://www.w3.org/1999/xlink" x="0px" y="0px"
	 viewBox="0 0 200 200" style="enable-background:new 0 0 200 200;" xml:space="preserve">
<style type="text/css">
	.st0{fill:#0067FC;}
	.st1{fill:none;stroke:#0067FC;stroke-width:2.5;stroke-linecap:round;stroke-linejoin:round;stroke-miterlimit:10;}
</style>
<g>
	<g>
		<g>
			<path class="st0" d="M117.2,143.6h-42c-3,0-5.5-2.5-5.5-5.5V62.6c0-3,2.5-5.5,5.5-5.5H125c3,0,5.5,2.5,5.5,5.5v66.3
				c0,0.3-0.1,0.6-0.3,0.8l-12.1,13.5C117.9,143.5,117.5,143.6,117.2,143.6z M72.1,93.6v44.6c0,1.7,1.3,3,3,3h41.5l11.4-12.8V62.6
				c0-1.7-1.3-3-3-3H75.1c-1.7,0-3,1.3-3,3V93.6z"/>
		</g>
		<g>
			<path class="st0" d="M116.2,143.2c-0.7,0-1.2-0.6-1.2-1.2v-8.8c0-3,2.5-5.5,5.5-5.5h8.8c0.7,0,1.2,0.6,1.2,1.2s-0.6,1.2-1.2,1.2
				h-8.8c-1.7,0-3,1.3-3,3v8.8C117.4,142.6,116.9,143.2,116.2,143.2z"/>
		</g>
	</g>
	<g>
		<g>
			<path class="st1" d="M105.6,77.7"/>
		</g>
		<g>
			<path class="st0" d="M113.7,75.3H92.9c-0.7,0-1.2-0.6-1.2-1.2s0.6-1.2,1.2-1.2h20.8c0.7,0,1.2,0.6,1.2,1.2S114.4,75.3,113.7,75.3
				z"/>
		</g>
		<g>
			<path class="st0" d="M105.8,83.2c-0.3,0-0.6-0.1-0.9-0.4c-0.5-0.5-0.5-1.3,0-1.8l7-7l-6.8-6.8c-0.5-0.5-0.5-1.3,0-1.8
				s1.3-0.5,1.8,0l7.7,7.7c0.2,0.2,0.4,0.6,0.4,0.9s-0.1,0.6-0.4,0.9l-7.9,7.9C106.5,83.1,106.2,83.2,105.8,83.2z"/>
		</g>
		<g>
			<path class="st1" d="M94.6,92.4"/>
		</g>
		<g>
			<path class="st0" d="M107.2,90.5H86.4c-0.7,0-1.2-0.6-1.2-1.2s0.6-1.2,1.2-1.2h20.8c0.7,0,1.2,0.6,1.2,1.2S107.9,90.5,107.2,90.5
				z"/>
		</g>
		<g>
			<path class="st0" d="M94.1,98.2c-0.3,0-0.6-0.1-0.9-0.4l-7.7-7.7c-0.5-0.5-0.5-1.3,0-1.8l7.9-7.9c0.5-0.5,1.3-0.5,1.8,0
				s0.5,1.3,0,1.8l-7,7l6.8,6.8c0.5,0.5,0.5,1.3,0,1.8C94.8,98.1,94.4,98.2,94.1,98.2z"/>
		</g>
	</g>
	<g>
		<g>
			<path class="st0" d="M100.1,130.9c-8.4,0-15.2-6.8-15.2-15.2s6.8-15.2,15.2-15.2s15.2,6.8,15.2,15.2S108.4,130.9,100.1,130.9z
				 M100.1,103.1c-7,0-12.7,5.7-12.7,12.7c0,7,5.7,12.7,12.7,12.7c7,0,12.7-5.7,12.7-12.7C112.7,108.8,107,103.1,100.1,103.1z"/>
		</g>
		<g>
			<path class="st0" d="M98.6,120.7C98.6,120.7,98.5,120.7,98.6,120.7c-0.4,0-0.7-0.2-1-0.4l-2.6-3c-0.4-0.5-0.4-1.3,0.1-1.8
				c0.5-0.4,1.3-0.4,1.8,0.1l1.7,2l7-6.4c0.5-0.5,1.3-0.4,1.8,0.1c0.5,0.5,0.4,1.3-0.1,1.8l-7.9,7.3
				C99.2,120.6,98.9,120.7,98.6,120.7z"/>
		</g>
	</g>
	<g>
		<path class="st0" d="M100.1,173.1c-40.1,0-72.7-32.6-72.7-72.7S60,27.7,100.1,27.7s72.7,32.6,72.7,72.7S140.2,173.1,100.1,173.1z
			 M100.1,31.7c-37.9,0-68.7,30.8-68.7,68.7c0,37.9,30.8,68.7,68.7,68.7c37.9,0,68.7-30.8,68.7-68.7C168.8,62.5,138,31.7,100.1,31.7
			z"/>
	</g>
</g>
</svg>
