<?xml version="1.0" encoding="utf-8"?>
<!-- Generator: Adobe Illustrator 26.3.1, SVG Export Plug-In . SVG Version: 6.00 Build 0)  -->
<svg version="1.1" id="Layer_1" xmlns="http://www.w3.org/2000/svg" xmlns:xlink="http://www.w3.org/1999/xlink" x="0px" y="0px"
	 viewBox="0 0 200 200" style="enable-background:new 0 0 200 200;" xml:space="preserve">
<style type="text/css">
	.st0{fill:#0067FC;}
</style>
<g>
	<g>
		<path class="st0" d="M100,172.7c-40.1,0-72.7-32.6-72.7-72.7S59.9,27.3,100,27.3s72.7,32.6,72.7,72.7S140.1,172.7,100,172.7z
			 M100,31.3c-37.9,0-68.7,30.8-68.7,68.7c0,37.9,30.8,68.7,68.7,68.7c37.9,0,68.7-30.8,68.7-68.7C168.7,62.1,137.9,31.3,100,31.3z"
			/>
	</g>
	<g>
		<g>
			<path class="st0" d="M97.7,121.4H85.2c-0.6,0-1.2-0.5-1.2-1.2v-5.7c0-0.6,0.5-1.2,1.2-1.2h12.5c0.6,0,1.2,0.5,1.2,1.2v5.7
				C98.9,120.9,98.4,121.4,97.7,121.4z M86.4,119.1h10.2v-3.4H86.4V119.1z"/>
		</g>
		<g>
			<path class="st0" d="M114.8,121.4h-12.5c-0.6,0-1.2-0.5-1.2-1.2v-5.7c0-0.6,0.5-1.2,1.2-1.2h12.5c0.6,0,1.2,0.5,1.2,1.2v5.7
				C115.9,120.9,115.4,121.4,114.8,121.4z M103.4,119.1h10.2v-3.4h-10.2V119.1z"/>
		</g>
		<g>
			<g id="Group_263_00000011742061421915716080000017127086673690431365_" transform="translate(-598.5 -520.001)">
				<g id="Group_259_00000085961012706718843190000000532685958151106206_" transform="translate(549.903 487.744)">
					<g id="Ellipse_9_00000021824301014725614400000009144941238340173723_">
						<path class="st0" d="M148.3,127.6c-4.4,0-8-3.6-8-8s3.6-8,8-8s8,3.6,8,8S152.7,127.6,148.3,127.6z M148.3,114.1
							c-3,0-5.5,2.5-5.5,5.5s2.5,5.5,5.5,5.5s5.5-2.5,5.5-5.5S151.4,114.1,148.3,114.1z"/>
					</g>
					<g id="Path_16_00000023238725096066858110000004352851787757887127_">
						<path class="st0" d="M159.3,140.5c-0.7,0-1.2-0.6-1.2-1.2c0-5.4-4.4-9.8-9.8-9.8c-5.4,0-9.8,4.4-9.8,9.8
							c0,0.7-0.6,1.2-1.2,1.2s-1.2-0.6-1.2-1.2c0-6.8,5.5-12.3,12.3-12.3s12.3,5.5,12.3,12.3C160.6,139.9,160,140.5,159.3,140.5z"/>
					</g>
				</g>
			</g>
		</g>
		<g>
			<path class="st0" d="M117.3,138.5H82.7c-3.3,0-5.9-2.7-5.9-5.9V67.5c0-3.3,2.7-5.9,5.9-5.9h34.7c3.3,0,5.9,2.7,5.9,5.9v65.1
				C123.3,135.8,120.6,138.5,117.3,138.5z M82.7,63.7c-2.1,0-3.7,1.7-3.7,3.7v65.1c0,2.1,1.7,3.7,3.7,3.7h34.7
				c2.1,0,3.7-1.7,3.7-3.7V67.5c0-2.1-1.7-3.7-3.7-3.7H82.7z"/>
		</g>
		<g>
			<circle class="st0" cx="100" cy="132.3" r="2.1"/>
		</g>
		<g>
			<path class="st0" d="M105.6,69.1H94.4c-0.6,0-1.2-0.5-1.2-1.2v0c0-0.6,0.5-1.2,1.2-1.2h11.3c0.6,0,1.2,0.5,1.2,1.2v0
				C106.8,68.6,106.3,69.1,105.6,69.1z"/>
		</g>
	</g>
</g>
</svg>
