<?xml version="1.0" encoding="utf-8"?>
<!-- Generator: Adobe Illustrator 26.3.1, SVG Export Plug-In . SVG Version: 6.00 Build 0)  -->
<svg version="1.1" id="Layer_1" xmlns="http://www.w3.org/2000/svg" xmlns:xlink="http://www.w3.org/1999/xlink" x="0px" y="0px"
	 viewBox="0 0 200 200" style="enable-background:new 0 0 200 200;" xml:space="preserve">
<style type="text/css">
	.st0{fill:#0067FC;}
</style>
<g>
	<g>
		<g>
			<path class="st0" d="M117.1,143.3h-42c-3,0-5.5-2.5-5.5-5.5V62.2c0-3,2.5-5.5,5.5-5.5h49.8c3,0,5.5,2.5,5.5,5.5v66.3
				c0,0.3-0.1,0.6-0.3,0.8L118,142.9C117.8,143.1,117.5,143.3,117.1,143.3z M72.1,93.2v44.6c0,1.7,1.3,3,3,3h41.5l11.4-12.8V62.2
				c0-1.7-1.3-3-3-3H75.1c-1.7,0-3,1.3-3,3V93.2z"/>
		</g>
		<g>
			<path class="st0" d="M116.1,142.8c-0.7,0-1.2-0.6-1.2-1.2v-8.8c0-3,2.5-5.5,5.5-5.5h8.8c0.7,0,1.2,0.6,1.2,1.2s-0.6,1.2-1.2,1.2
				h-8.8c-1.7,0-3,1.3-3,3v8.8C117.4,142.3,116.8,142.8,116.1,142.8z"/>
		</g>
	</g>
	<g>
		<g>
			<path class="st0" d="M100,135.2c-10,0-18.2-8.2-18.2-18.2S90,98.8,100,98.8s18.2,8.2,18.2,18.2S110,135.2,100,135.2z M100,101.2
				c-8.7,0-15.9,7.1-15.9,15.9s7.1,15.9,15.9,15.9c8.7,0,15.9-7.1,15.9-15.9S108.7,101.2,100,101.2z"/>
		</g>
		<g>
			<path class="st0" d="M98.2,122.7C98.2,122.7,98.1,122.7,98.2,122.7c-0.4,0-0.7-0.2-0.9-0.4l-3.2-3.7c-0.4-0.5-0.4-1.2,0.1-1.7
				c0.5-0.4,1.2-0.4,1.7,0.1l2.4,2.8l8.8-8.1c0.5-0.4,1.2-0.4,1.7,0.1c0.4,0.5,0.4,1.2-0.1,1.7l-9.7,8.9
				C98.8,122.5,98.5,122.7,98.2,122.7z"/>
		</g>
	</g>
	<g>
		<path class="st0" d="M100,172.7c-40.1,0-72.7-32.6-72.7-72.7S59.9,27.3,100,27.3s72.7,32.6,72.7,72.7S140.1,172.7,100,172.7z
			 M100,31.3c-37.9,0-68.7,30.8-68.7,68.7c0,37.9,30.8,68.7,68.7,68.7c37.9,0,68.7-30.8,68.7-68.7C168.7,62.1,137.9,31.3,100,31.3z"
			/>
	</g>
	<g>
		<path class="st0" d="M110.7,90H82.6c-0.7,0-1.2-0.6-1.2-1.2V71.5c0-0.7,0.6-1.2,1.2-1.2h36c0.7,0,1.2,0.6,1.2,1.2V82
			c0,0.4-0.2,0.7-0.4,1l-7.9,6.7C111.3,89.9,111,90,110.7,90z M83.8,87.5h26.4l7.1-6v-8.8H83.8V87.5z"/>
	</g>
	<g>
		<path class="st0" d="M104.9,79.2H88.1c-0.7,0-1.2-0.6-1.2-1.2s0.6-1.2,1.2-1.2h16.8c0.7,0,1.2,0.6,1.2,1.2S105.6,79.2,104.9,79.2z
			"/>
	</g>
	<g>
		<path class="st0" d="M99.6,84.5H88.1c-0.7,0-1.2-0.6-1.2-1.2s0.6-1.2,1.2-1.2h11.5c0.7,0,1.2,0.6,1.2,1.2S100.3,84.5,99.6,84.5z"
			/>
	</g>
</g>
</svg>
