<?xml version="1.0" encoding="utf-8"?>
<!-- Generator: Adobe Illustrator 26.3.1, SVG Export Plug-In . SVG Version: 6.00 Build 0)  -->
<svg version="1.1" id="Layer_1" xmlns="http://www.w3.org/2000/svg" xmlns:xlink="http://www.w3.org/1999/xlink" x="0px" y="0px"
	 viewBox="0 0 200 200" style="enable-background:new 0 0 200 200;" xml:space="preserve">
<style type="text/css">
	.st0{fill:#0067FC;}
	.st1{fill:none;stroke:#0067FC;stroke-width:2.5;stroke-linecap:round;stroke-linejoin:round;stroke-miterlimit:10;}
</style>
<g>
	<g>
		<path class="st0" d="M100.1,173.1c-40.1,0-72.7-32.6-72.7-72.7S60,27.7,100.1,27.7s72.7,32.6,72.7,72.7S140.2,173.1,100.1,173.1z
			 M100.1,31.7c-37.9,0-68.7,30.8-68.7,68.7c0,37.9,30.8,68.7,68.7,68.7c37.9,0,68.7-30.8,68.7-68.7C168.8,62.5,138,31.7,100.1,31.7
			z"/>
	</g>
	<g>
		<g>
			<g>
				<path class="st0" d="M117.2,143.6h-42c-3,0-5.5-2.5-5.5-5.5V62.6c0-3,2.5-5.5,5.5-5.5H125c3,0,5.5,2.5,5.5,5.5v66.3
					c0,0.3-0.1,0.6-0.3,0.8l-12.1,13.5C117.9,143.5,117.5,143.6,117.2,143.6z M72.1,93.6v44.6c0,1.7,1.3,3,3,3h41.5l11.4-12.8V62.6
					c0-1.7-1.3-3-3-3H75.1c-1.7,0-3,1.3-3,3V93.6z"/>
			</g>
			<g>
				<path class="st0" d="M116.2,143.2c-0.7,0-1.2-0.6-1.2-1.2v-8.8c0-3,2.5-5.5,5.5-5.5h8.8c0.7,0,1.2,0.6,1.2,1.2s-0.6,1.2-1.2,1.2
					h-8.8c-1.7,0-3,1.3-3,3v8.8C117.4,142.6,116.9,143.2,116.2,143.2z"/>
			</g>
		</g>
		<g>
			<path class="st0" d="M117.4,120.2H77.8c-0.7,0-1.2-0.6-1.2-1.2V110c0-0.7,0.6-1.2,1.2-1.2h39.6c0.7,0,1.2,0.6,1.2,1.2v8.9
				C118.6,119.7,118.1,120.2,117.4,120.2z M79.1,117.7h37.1v-6.4H79.1V117.7z"/>
		</g>
		<g>
			<path class="st0" d="M97.2,115.7H81.7c-0.7,0-1.2-0.6-1.2-1.2s0.6-1.2,1.2-1.2h15.4c0.7,0,1.2,0.6,1.2,1.2S97.9,115.7,97.2,115.7
				z"/>
		</g>
		<g>
			<path class="st0" d="M110,134.9H77.8c-0.7,0-1.2-0.6-1.2-1.2v-8.9c0-0.7,0.6-1.2,1.2-1.2H110c0.7,0,1.2,0.6,1.2,1.2v8.9
				C111.3,134.3,110.7,134.9,110,134.9z M79.1,132.4h29.7v-6.4H79.1V132.4z"/>
		</g>
		<g>
			<path class="st0" d="M97.2,130.4H81.7c-0.7,0-1.2-0.6-1.2-1.2s0.6-1.2,1.2-1.2h15.4c0.7,0,1.2,0.6,1.2,1.2S97.9,130.4,97.2,130.4
				z"/>
		</g>
		<g>
			<g>
				<path class="st1" d="M103.9,96.2"/>
			</g>
			<g>
				<g>
					<path class="st0" d="M108.6,82.2c-0.3,0-0.6-0.1-0.9-0.4c-0.5-0.5-0.5-1.3,0-1.8l9.4-9.4c0.5-0.5,1.3-0.5,1.8,0s0.5,1.3,0,1.8
						l-9.4,9.4C109.2,82.1,108.9,82.2,108.6,82.2z"/>
				</g>
				<g>
					<path class="st0" d="M119.3,80.8c-0.7,0-1.2-0.6-1.2-1.2v-8.3H110c-0.7,0-1.2-0.6-1.2-1.2s0.6-1.2,1.2-1.2h9.3
						c0.7,0,1.2,0.6,1.2,1.2v9.5C120.6,80.3,120,80.8,119.3,80.8z"/>
				</g>
			</g>
			<g>
				<g>
					<path class="st0" d="M86.2,78.3c-0.3,0-0.6-0.1-0.9-0.4c-0.5-0.5-0.5-1.3,0-1.8l9.4-9.4c0.5-0.5,1.3-0.5,1.8,0
						c0.5,0.5,0.5,1.3,0,1.8L87.1,78C86.8,78.2,86.5,78.3,86.2,78.3z"/>
				</g>
				<g>
					<path class="st0" d="M94.2,79.8h-9.3c-0.7,0-1.2-0.6-1.2-1.2V69c0-0.7,0.6-1.2,1.2-1.2s1.2,0.6,1.2,1.2v8.3h8.1
						c0.7,0,1.2,0.6,1.2,1.2S94.9,79.8,94.2,79.8z"/>
				</g>
			</g>
			<g>
				<g>
					<g id="Group_263_00000151510309725966016640000018080512315132634258_" transform="translate(-598.5 -520.001)">
						<g id="Group_259_00000080890630105631808180000015007888231133005453_" transform="translate(549.903 487.744)">
							<g id="Ellipse_9_00000160164701393754449370000013220823419451033253_">
								<path class="st0" d="M148.9,124c-3.1,0-5.7-2.5-5.7-5.7s2.5-5.7,5.7-5.7s5.7,2.5,5.7,5.7S152,124,148.9,124z M148.9,115.1
									c-1.8,0-3.2,1.4-3.2,3.2s1.4,3.2,3.2,3.2c1.8,0,3.2-1.4,3.2-3.2S150.7,115.1,148.9,115.1z"/>
							</g>
							<g id="Path_16_00000145021619130666236140000011145088183221448615_">
								<path class="st0" d="M156.1,132.4c-0.7,0-1.2-0.6-1.2-1.2c0-3.3-2.7-6-6-6c-3.3,0-6,2.7-6,6c0,0.7-0.6,1.2-1.2,1.2
									s-1.2-0.6-1.2-1.2c0-4.7,3.8-8.5,8.5-8.5s8.5,3.8,8.5,8.5C157.4,131.8,156.8,132.4,156.1,132.4z"/>
							</g>
						</g>
					</g>
				</g>
				<g>
					<g id="Group_263_00000067948521191376392570000002065453648765371802_" transform="translate(-598.5 -520.001)">
						<g id="Group_259_00000079459375015929523760000015816157099039641762_" transform="translate(549.903 487.744)">
							<g id="Ellipse_9_00000161610818678007172260000006169788118926330756_">
								<path class="st0" d="M162.6,128.4c-3.1,0-5.7-2.5-5.7-5.7s2.5-5.7,5.7-5.7s5.7,2.5,5.7,5.7S165.7,128.4,162.6,128.4z
									 M162.6,119.6c-1.8,0-3.2,1.4-3.2,3.2s1.4,3.2,3.2,3.2s3.2-1.4,3.2-3.2S164.3,119.6,162.6,119.6z"/>
							</g>
							<g id="Path_16_00000157299182073910642120000007290225390798896555_">
								<path class="st0" d="M169.8,136.8c-0.7,0-1.2-0.6-1.2-1.2c0-3.3-2.7-6-6-6c-3.3,0-6,2.7-6,6c0,0.7-0.6,1.2-1.2,1.2
									s-1.2-0.6-1.2-1.2c0-4.7,3.8-8.5,8.5-8.5s8.5,3.8,8.5,8.5C171,136.2,170.5,136.8,169.8,136.8z"/>
							</g>
						</g>
					</g>
				</g>
				<g>
					<g id="Group_263_00000045611587353758910720000006833485526721287054_" transform="translate(-598.5 -520.001)">
						<g id="Group_259_00000108997238128665998990000000312311606501907364_" transform="translate(549.903 487.744)">
							<g id="Ellipse_9_00000163760758266213034380000013841086339089498500_">
								<path class="st0" d="M135.5,128.6c-3.1,0-5.7-2.5-5.7-5.7s2.5-5.7,5.7-5.7s5.7,2.5,5.7,5.7S138.6,128.6,135.5,128.6z
									 M135.5,119.8c-1.8,0-3.2,1.4-3.2,3.2s1.4,3.2,3.2,3.2s3.2-1.4,3.2-3.2S137.3,119.8,135.5,119.8z"/>
							</g>
							<g id="Path_16_00000104706063485979364140000009540200722803374268_">
								<path class="st0" d="M142.7,137c-0.7,0-1.2-0.6-1.2-1.2c0-3.3-2.7-6-6-6s-6,2.7-6,6c0,0.7-0.6,1.2-1.2,1.2s-1.2-0.6-1.2-1.2
									c0-4.7,3.8-8.5,8.5-8.5s8.5,3.8,8.5,8.5C144,136.5,143.4,137,142.7,137z"/>
							</g>
						</g>
					</g>
				</g>
			</g>
		</g>
	</g>
</g>
</svg>
