<?xml version="1.0" encoding="utf-8"?>
<!-- Generator: Adobe Illustrator 26.3.1, SVG Export Plug-In . SVG Version: 6.00 Build 0)  -->
<svg version="1.1" id="Layer_1" xmlns="http://www.w3.org/2000/svg" xmlns:xlink="http://www.w3.org/1999/xlink" x="0px" y="0px"
	 viewBox="0 0 200 200" style="enable-background:new 0 0 200 200;" xml:space="preserve">
<style type="text/css">
	.st0{fill:#0067FC;}
</style>
<g>
	<g>
		<g>
			<path class="st0" d="M117.2,143.6h-42c-3,0-5.5-2.5-5.5-5.5V62.6c0-3,2.5-5.5,5.5-5.5H125c3,0,5.5,2.5,5.5,5.5v66.3
				c0,0.3-0.1,0.6-0.3,0.8l-12.1,13.5C117.9,143.5,117.5,143.6,117.2,143.6z M72.1,93.6v44.6c0,1.7,1.3,3,3,3h41.5l11.4-12.8V62.6
				c0-1.7-1.3-3-3-3H75.1c-1.7,0-3,1.3-3,3V93.6z"/>
		</g>
		<g>
			<path class="st0" d="M116.2,143.2c-0.7,0-1.2-0.6-1.2-1.2v-8.8c0-3,2.5-5.5,5.5-5.5h8.8c0.7,0,1.2,0.6,1.2,1.2s-0.6,1.2-1.2,1.2
				h-8.8c-1.7,0-3,1.3-3,3v8.8C117.4,142.6,116.9,143.2,116.2,143.2z"/>
		</g>
	</g>
	<g>
		<g>
			<path class="st0" d="M99.6,133.2c-8.4,0-15.3-6.9-15.3-15.3s6.9-15.3,15.3-15.3c8.4,0,15.3,6.9,15.3,15.3S108,133.2,99.6,133.2z
				 M99.6,105.1c-7.1,0-12.8,5.7-12.8,12.8s5.7,12.8,12.8,12.8s12.8-5.7,12.8-12.8S106.6,105.1,99.6,105.1z"/>
		</g>
	</g>
	<g id="Group_263_00000140704987338132384150000002475439658972098201_" transform="translate(-598.5 -520.001)">
		<g id="Group_259_00000051380887183148897450000012498025379106953656_" transform="translate(549.903 487.744)">
			<g id="Ellipse_9_00000036250005918696893500000006143714242692157871_">
				<path class="st0" d="M148.2,150.3c-2.5,0-4.5-2-4.5-4.5s2-4.5,4.5-4.5s4.5,2,4.5,4.5S150.7,150.3,148.2,150.3z M148.2,143.8
					c-1.1,0-2,0.9-2,2s0.9,2,2,2s2-0.9,2-2S149.3,143.8,148.2,143.8z"/>
			</g>
			<g id="Path_16_00000017474081105219844650000002475028412577123508_">
				<path class="st0" d="M153.5,159c-0.7,0-1.2-0.6-1.2-1.2c0-2.2-1.8-4-4-4c-2.2,0-4,1.8-4,4c0,0.7-0.6,1.2-1.2,1.2
					s-1.2-0.6-1.2-1.2c0-3.6,2.9-6.5,6.5-6.5s6.5,2.9,6.5,6.5C154.7,158.5,154.1,159,153.5,159z"/>
			</g>
		</g>
	</g>
	<g>
		<g>
			<g>
				<path class="st0" d="M107.9,93.7L107.9,93.7c-0.3,0-0.6-0.1-0.8-0.4c-0.9-1.2-9.1-12-9.1-17.2c0-5.5,4.4-9.9,9.9-9.9
					s9.9,4.4,9.9,9.9c0,5.1-8.2,15.9-9.1,17.2C108.5,93.5,108.2,93.7,107.9,93.7z M107.9,68.3c-4.3,0-7.9,3.5-7.9,7.9
					c0,3.4,5.1,11,7.9,14.8c2.8-3.8,7.9-11.4,7.9-14.8C115.7,71.8,112.2,68.3,107.9,68.3z"/>
			</g>
			<g>
				<path class="st0" d="M107.9,80.4c-2.7,0-4.9-2.2-4.9-4.9s2.2-4.9,4.9-4.9s4.9,2.2,4.9,4.9S110.6,80.4,107.9,80.4z M107.9,72.7
					c-1.6,0-2.8,1.3-2.8,2.8c0,1.6,1.3,2.8,2.8,2.8s2.8-1.3,2.8-2.8C110.7,73.9,109.4,72.7,107.9,72.7z"/>
			</g>
		</g>
		<g>
			<g>
				<path class="st0" d="M89.2,98.8c-0.2,0-0.4-0.1-0.5-0.3c-0.6-0.8-5.9-7.9-5.9-11.2c0-3.6,2.9-6.5,6.5-6.5s6.5,2.9,6.5,6.5
					c0,3.3-5.3,10.4-5.9,11.2C89.6,98.7,89.4,98.8,89.2,98.8z M89.2,82.2c-2.8,0-5.1,2.3-5.1,5.1c0,2.2,3.3,7.2,5.1,9.7
					c1.8-2.5,5.1-7.5,5.1-9.7C94.3,84.5,92,82.2,89.2,82.2z"/>
			</g>
			<g>
				<path class="st0" d="M89.2,90.1c-1.8,0-3.2-1.4-3.2-3.2c0-1.8,1.4-3.2,3.2-3.2s3.2,1.4,3.2,3.2C92.4,88.7,90.9,90.1,89.2,90.1z
					 M89.2,85.1c-1,0-1.9,0.8-1.9,1.8s0.8,1.9,1.9,1.9S91,88,91,87S90.2,85.1,89.2,85.1z"/>
			</g>
		</g>
	</g>
	<g>
		<path class="st0" d="M100.1,173.1c-40.1,0-72.7-32.6-72.7-72.7S60,27.7,100.1,27.7s72.7,32.6,72.7,72.7S140.2,173.1,100.1,173.1z
			 M100.1,31.7c-37.9,0-68.7,30.8-68.7,68.7c0,37.9,30.8,68.7,68.7,68.7c37.9,0,68.7-30.8,68.7-68.7C168.8,62.5,138,31.7,100.1,31.7
			z"/>
	</g>
	<g>
		<path class="st0" d="M90.6,100.2c-0.3,0-0.5-0.2-0.6-0.4c-0.1-0.3,0-0.7,0.4-0.9l7.9-3.2c0.2-0.1,0.5-0.1,0.7,0.1l3.9,2.9l6.4-3.5
			c0.3-0.2,0.7-0.1,0.9,0.3c0.2,0.3,0.1,0.7-0.3,0.9l-6.8,3.7c-0.2,0.1-0.5,0.1-0.7-0.1l-3.9-2.9l-7.5,3
			C90.8,100.2,90.7,100.2,90.6,100.2z"/>
	</g>
</g>
</svg>
