<?xml version="1.0" encoding="utf-8"?>
<!-- Generator: Adobe Illustrator 26.4.0, SVG Export Plug-In . SVG Version: 6.00 Build 0)  -->
<svg version="1.1" id="Layer_1" xmlns="http://www.w3.org/2000/svg" xmlns:xlink="http://www.w3.org/1999/xlink" x="0px" y="0px"
	 viewBox="0 0 200 200" style="enable-background:new 0 0 200 200;" xml:space="preserve">
<style type="text/css">
	.st0{fill:#0067FC;}
</style>
<g>
	<g>
		<g>
			<g>
				<path class="st0" d="M117.1,143.3h-42c-3,0-5.5-2.5-5.5-5.5V62.2c0-3,2.5-5.5,5.5-5.5h49.8c3,0,5.5,2.5,5.5,5.5v66.3
					c0,0.3-0.1,0.6-0.3,0.8L118,142.9C117.8,143.1,117.5,143.3,117.1,143.3z M72.1,93.2v44.6c0,1.7,1.3,3,3,3h41.5l11.4-12.8V62.2
					c0-1.7-1.3-3-3-3H75.1c-1.7,0-3,1.3-3,3V93.2z"/>
			</g>
			<g>
				<path class="st0" d="M116.1,142.8c-0.7,0-1.2-0.6-1.2-1.2v-8.8c0-3,2.5-5.5,5.5-5.5h8.8c0.7,0,1.2,0.6,1.2,1.2s-0.6,1.2-1.2,1.2
					h-8.8c-1.7,0-3,1.3-3,3v8.8C117.4,142.3,116.8,142.8,116.1,142.8z"/>
			</g>
		</g>
		<g>
			<path class="st0" d="M116.9,99.2H83.3c-0.7,0-1.2-0.6-1.2-1.2s0.6-1.2,1.2-1.2h33.6c0.7,0,1.2,0.6,1.2,1.2S117.6,99.2,116.9,99.2
				z"/>
		</g>
		<g>
			<path class="st0" d="M116.9,92.1H83.3c-0.7,0-1.2-0.6-1.2-1.2s0.6-1.2,1.2-1.2h33.6c0.7,0,1.2,0.6,1.2,1.2S117.6,92.1,116.9,92.1
				z"/>
		</g>
		<g>
			<path class="st0" d="M116.9,78h-25c-0.7,0-1.2-0.6-1.2-1.2s0.6-1.2,1.2-1.2h25c0.7,0,1.2,0.6,1.2,1.2S117.6,78,116.9,78z"/>
		</g>
		<g>
			<path class="st0" d="M116.9,85.1h-25c-0.7,0-1.2-0.6-1.2-1.2s0.6-1.2,1.2-1.2h25c0.7,0,1.2,0.6,1.2,1.2S117.6,85.1,116.9,85.1z"
				/>
		</g>
		<g>
			<path class="st0" d="M114.9,106.3H83.3c-0.7,0-1.2-0.6-1.2-1.2s0.6-1.2,1.2-1.2h31.6c0.7,0,1.2,0.6,1.2,1.2
				S115.6,106.3,114.9,106.3z"/>
		</g>
		<g>
			<path class="st0" d="M112.9,113.3H83.3c-0.7,0-1.2-0.6-1.2-1.2s0.6-1.2,1.2-1.2h29.6c0.7,0,1.2,0.6,1.2,1.2
				S113.6,113.3,112.9,113.3z"/>
		</g>
		<g>
			<path class="st0" d="M108.9,120.4H83.3c-0.7,0-1.2-0.6-1.2-1.2s0.6-1.2,1.2-1.2h25.6c0.7,0,1.2,0.6,1.2,1.2
				S109.6,120.4,108.9,120.4z"/>
		</g>
		<g>
			<path class="st0" d="M101.9,127.4H83.3c-0.7,0-1.2-0.6-1.2-1.2s0.6-1.2,1.2-1.2h18.6c0.7,0,1.2,0.6,1.2,1.2
				S102.6,127.4,101.9,127.4z"/>
		</g>
		<g>
			<path class="st0" d="M85.4,86.6c-0.3,0-0.6-0.1-0.9-0.4l-1-1c-0.5-0.5-0.5-1.3,0-1.8s1.3-0.5,1.8,0l0,0l1.2-1.5
				c0.4-0.6,1.2-0.7,1.8-0.2c0.6,0.4,0.7,1.2,0.2,1.8l-2,2.7C86.1,86.4,85.8,86.6,85.4,86.6C85.4,86.6,85.4,86.6,85.4,86.6z"/>
		</g>
		<g>
			<path class="st0" d="M85.4,79.4c-0.3,0-0.6-0.1-0.9-0.4l-1-1c-0.5-0.5-0.5-1.3,0-1.8s1.3-0.5,1.8,0l0,0l1.2-1.5
				c0.4-0.6,1.2-0.7,1.8-0.2c0.6,0.4,0.7,1.2,0.2,1.8l-2,2.7C86.1,79.2,85.8,79.3,85.4,79.4C85.4,79.4,85.4,79.4,85.4,79.4z"/>
		</g>
	</g>
	<g>
		<path class="st0" d="M100,172.7c-40.1,0-72.7-32.6-72.7-72.7S59.9,27.3,100,27.3s72.7,32.6,72.7,72.7S140.1,172.7,100,172.7z
			 M100,31.3c-37.9,0-68.7,30.8-68.7,68.7c0,37.9,30.8,68.7,68.7,68.7c37.9,0,68.7-30.8,68.7-68.7C168.7,62.1,137.9,31.3,100,31.3z"
			/>
	</g>
	<g>
		<g>
			<path class="st0" d="M69.8,138c-3,0-5.5-2.5-5.5-5.5V57c0-3,2.5-5.5,5.5-5.5h49.8c3,0,5.5,2.5,5.5,5.5c0,0.7-0.6,1.2-1.2,1.2
				s-1.2-0.6-1.2-1.2c0-1.7-1.3-3-3-3H69.8c-1.7,0-3,1.3-3,3v75.5c0,1.7,1.3,3,3,3c0.7,0,1.2,0.6,1.2,1.2S70.5,138,69.8,138z"/>
		</g>
	</g>
</g>
</svg>
