<?xml version="1.0" encoding="utf-8"?>
<!-- Generator: Adobe Illustrator 26.3.1, SVG Export Plug-In . SVG Version: 6.00 Build 0)  -->
<svg version="1.1" id="Layer_1" xmlns="http://www.w3.org/2000/svg" xmlns:xlink="http://www.w3.org/1999/xlink" x="0px" y="0px"
	 viewBox="0 0 200 200" style="enable-background:new 0 0 200 200;" xml:space="preserve">
<style type="text/css">
	.st0{fill:#0067FC;}
</style>
<g>
	<g>
		<g>
			<path class="st0" d="M117.1,143.3h-42c-3,0-5.5-2.5-5.5-5.5V62.2c0-3,2.5-5.5,5.5-5.5h49.8c3,0,5.5,2.5,5.5,5.5v66.3
				c0,0.3-0.1,0.6-0.3,0.8L118,142.9C117.8,143.1,117.5,143.3,117.1,143.3z M72.1,93.2v44.6c0,1.7,1.3,3,3,3h41.5l11.4-12.8V62.2
				c0-1.7-1.3-3-3-3H75.1c-1.7,0-3,1.3-3,3V93.2z"/>
		</g>
		<g>
			<path class="st0" d="M116.1,142.8c-0.7,0-1.2-0.6-1.2-1.2v-8.8c0-3,2.5-5.5,5.5-5.5h8.8c0.7,0,1.2,0.6,1.2,1.2s-0.6,1.2-1.2,1.2
				h-8.8c-1.7,0-3,1.3-3,3v8.8C117.4,142.3,116.8,142.8,116.1,142.8z"/>
		</g>
	</g>
	<g>
		<path class="st0" d="M100,172.7c-40.1,0-72.7-32.6-72.7-72.7S59.9,27.3,100,27.3s72.7,32.6,72.7,72.7S140.1,172.7,100,172.7z
			 M100,31.3c-37.9,0-68.7,30.8-68.7,68.7c0,37.9,30.8,68.7,68.7,68.7c37.9,0,68.7-30.8,68.7-68.7C168.7,62.1,137.9,31.3,100,31.3z"
			/>
	</g>
	<g>
		<g>
			<path class="st0" d="M90.4,123.8c-1.1,0-2.1-0.4-2.9-1.2l-9.2-9.2c-0.8-0.8-1.2-1.8-1.2-2.9s0.4-2.2,1.2-2.9l22.6-22.6
				c0.9-0.9,2.2-1.4,3.5-1.4l9.1,0.2c2,0,3.7,1.7,3.7,3.7l0.2,9.1c0,1.3-0.5,2.6-1.4,3.5l-22.6,22.6
				C92.5,123.4,91.5,123.8,90.4,123.8z M104.2,86c-0.6,0-1.2,0.2-1.6,0.7L80,109.2c-0.3,0.3-0.5,0.7-0.5,1.2s0.2,0.9,0.5,1.2
				l9.2,9.2c0.7,0.7,1.7,0.7,2.4,0l22.6-22.6c0.4-0.4,0.7-1,0.7-1.6l-0.2-9.1c0-0.7-0.6-1.3-1.3-1.3L104.2,86L104.2,86
				C104.2,86,104.2,86,104.2,86z"/>
		</g>
		<g>
			<circle class="st0" cx="110.3" cy="90.8" r="2.3"/>
		</g>
		<g>
			<g>
				<path class="st0" d="M91.3,117.4c-0.3,0-0.6-0.1-0.9-0.4c-0.5-0.5-0.5-1.3,0-1.8l14.8-14.8c0.5-0.5,1.3-0.5,1.8,0s0.5,1.3,0,1.8
					L92.1,117C91.9,117.3,91.6,117.4,91.3,117.4z"/>
			</g>
			<g>
				<path class="st0" d="M88.7,113.6c-0.3,0-0.6-0.1-0.9-0.4c-0.5-0.5-0.5-1.3,0-1.8l9.9-9.9c0.5-0.5,1.3-0.5,1.8,0s0.5,1.3,0,1.8
					l-9.9,9.9C89.3,113.4,89,113.6,88.7,113.6z"/>
			</g>
			<g>
				<path class="st0" d="M84.8,111c-0.3,0-0.6-0.1-0.9-0.4c-0.5-0.5-0.5-1.3,0-1.8L95.8,97c0.5-0.5,1.3-0.5,1.8,0
					c0.5,0.5,0.5,1.3,0,1.8l-11.8,11.8C85.5,110.8,85.2,111,84.8,111z"/>
			</g>
		</g>
	</g>
</g>
</svg>
