<?xml version="1.0" encoding="utf-8"?>
<!-- Generator: Adobe Illustrator 26.3.1, SVG Export Plug-In . SVG Version: 6.00 Build 0)  -->
<svg version="1.1" id="Layer_1" xmlns="http://www.w3.org/2000/svg" xmlns:xlink="http://www.w3.org/1999/xlink" x="0px" y="0px"
	 viewBox="0 0 200 200" style="enable-background:new 0 0 200 200;" xml:space="preserve">
<style type="text/css">
	.st0{fill:#0067FC;}
</style>
<g>
	<g>
		<g>
			<path class="st0" d="M117.1,143.3h-42c-3,0-5.5-2.5-5.5-5.5V62.2c0-3,2.5-5.5,5.5-5.5h49.8c3,0,5.5,2.5,5.5,5.5v66.3
				c0,0.3-0.1,0.6-0.3,0.8L118,142.9C117.8,143.1,117.5,143.3,117.1,143.3z M72.1,93.2v44.6c0,1.7,1.3,3,3,3h41.5l11.4-12.8V62.2
				c0-1.7-1.3-3-3-3H75.1c-1.7,0-3,1.3-3,3V93.2z"/>
		</g>
		<g>
			<path class="st0" d="M116.1,142.8c-0.7,0-1.2-0.6-1.2-1.2v-8.8c0-3,2.5-5.5,5.5-5.5h8.8c0.7,0,1.2,0.6,1.2,1.2s-0.6,1.2-1.2,1.2
				h-8.8c-1.7,0-3,1.3-3,3v8.8C117.4,142.3,116.8,142.8,116.1,142.8z"/>
		</g>
	</g>
	<g>
		<path class="st0" d="M100,103.5c-9.7,0-17.6-7.9-17.6-17.6s7.9-17.6,17.6-17.6c2.5,0,4.9,0.5,7.1,1.5c0.6,0.3,0.9,1,0.6,1.6
			c-0.3,0.6-1,0.9-1.6,0.6c-1.9-0.9-4-1.3-6.1-1.3c-8.4,0-15.1,6.8-15.1,15.1S91.6,101,100,101s15.1-6.8,15.1-15.1
			c0-3.4-1.1-6.6-3.2-9.3c-0.4-0.5-0.3-1.3,0.2-1.8c0.5-0.4,1.3-0.3,1.8,0.2c2.4,3.1,3.7,6.8,3.7,10.8
			C117.6,95.5,109.7,103.5,100,103.5z"/>
	</g>
	<g>
		<path class="st0" d="M100,97.8c-6.6,0-12-5.4-12-12c0-6.6,5.4-12,12-12c1,0,2.1,0.1,3.1,0.4c0.7,0.2,1.1,0.9,0.9,1.5
			c-0.2,0.7-0.9,1.1-1.5,0.9c-0.8-0.2-1.6-0.3-2.4-0.3c-5.2,0-9.5,4.3-9.5,9.5c0,5.2,4.3,9.5,9.5,9.5s9.5-4.3,9.5-9.5
			c0-1.5-0.3-3-1-4.3c-0.3-0.6-0.1-1.4,0.5-1.7c0.6-0.3,1.4-0.1,1.7,0.5c0.9,1.7,1.3,3.5,1.3,5.4C112,92.4,106.6,97.8,100,97.8z"/>
	</g>
	<g>
		<path class="st0" d="M114.8,115.7H85.2c-0.7,0-1.2-0.6-1.2-1.2s0.6-1.2,1.2-1.2h29.6c0.7,0,1.2,0.6,1.2,1.2
			S115.5,115.7,114.8,115.7z"/>
	</g>
	<g>
		<path class="st0" d="M110.8,122.7H85.2c-0.7,0-1.2-0.6-1.2-1.2s0.6-1.2,1.2-1.2h25.6c0.7,0,1.2,0.6,1.2,1.2
			S111.5,122.7,110.8,122.7z"/>
	</g>
	<g>
		<path class="st0" d="M103.8,129.8H85.2c-0.7,0-1.2-0.6-1.2-1.2s0.6-1.2,1.2-1.2h18.6c0.7,0,1.2,0.6,1.2,1.2
			S104.5,129.8,103.8,129.8z"/>
	</g>
	<g>
		<path class="st0" d="M100,172.7c-40.1,0-72.7-32.6-72.7-72.7S59.9,27.3,100,27.3s72.7,32.6,72.7,72.7S140.1,172.7,100,172.7z
			 M100,31.3c-37.9,0-68.7,30.8-68.7,68.7c0,37.9,30.8,68.7,68.7,68.7c37.9,0,68.7-30.8,68.7-68.7C168.7,62.1,137.9,31.3,100,31.3z"
			/>
	</g>
	<g>
		<path class="st0" d="M100,90.5c-2.6,0-4.7-2.1-4.7-4.7c0-2.6,2.1-4.7,4.7-4.7c2.6,0,4.7,2.1,4.7,4.7
			C104.7,88.4,102.6,90.5,100,90.5z M100,83.6c-1.2,0-2.2,1-2.2,2.2s1,2.2,2.2,2.2s2.2-1,2.2-2.2S101.2,83.6,100,83.6z"/>
	</g>
	<g>
		<g>
			<path class="st0" d="M103.8,81.5c-0.2,0-0.5-0.1-0.7-0.3c-0.2-0.2-0.3-0.5-0.2-0.8c2.4-9.4,9.8-11.1,10.1-11.2
				c0.3-0.1,0.6,0,0.8,0.3c0.2,0.2,0.3,0.6,0.2,0.9c-3.5,10.2-9.9,11.1-10.2,11.1C103.9,81.5,103.8,81.5,103.8,81.5z M111.8,71.6
				c-1.9,0.9-5,3.1-6.6,7.7C106.8,78.6,109.6,76.6,111.8,71.6z"/>
		</g>
		<g>
			<path class="st0" d="M113.3,70.9c-0.2,0-0.3-0.1-0.5-0.2c-0.2-0.2-0.3-0.4-0.3-0.7l0.8-5.8c0-0.3,0.3-0.6,0.6-0.6
				c0.3-0.1,0.6,0,0.8,0.3l1.6,2.3l2.9,0.8c0.3,0.1,0.5,0.4,0.5,0.7c0,0.3-0.2,0.6-0.5,0.7l-5.6,2.4
				C113.5,70.8,113.4,70.9,113.3,70.9z M114.5,66.4l-0.3,2.5l2.5-1l-1.1-0.3c-0.2,0-0.3-0.2-0.4-0.3L114.5,66.4z"/>
		</g>
		<g>
			<path class="st0" d="M102.2,82.9c-0.2,0-0.4-0.1-0.6-0.3c-0.3-0.3-0.3-0.9,0-1.2L103,80c0.3-0.3,0.9-0.3,1.2,0
				c0.3,0.3,0.3,0.9,0,1.2l-1.4,1.4C102.7,82.8,102.5,82.9,102.2,82.9z"/>
		</g>
	</g>
</g>
</svg>
