<?xml version="1.0" encoding="utf-8"?>
<!-- Generator: Adobe Illustrator 26.4.0, SVG Export Plug-In . SVG Version: 6.00 Build 0)  -->
<svg version="1.1" id="Layer_1" xmlns="http://www.w3.org/2000/svg" xmlns:xlink="http://www.w3.org/1999/xlink" x="0px" y="0px"
	 viewBox="0 0 200 200" style="enable-background:new 0 0 200 200;" xml:space="preserve">
<style type="text/css">
	.st0{fill:#0067FC;}
</style>
<g>
	<g>
		<path class="st0" d="M100,172.7c-40.1,0-72.7-32.6-72.7-72.7S59.9,27.3,100,27.3s72.7,32.6,72.7,72.7S140.1,172.7,100,172.7z
			 M100,31.3c-37.9,0-68.7,30.8-68.7,68.7c0,37.9,30.8,68.7,68.7,68.7c37.9,0,68.7-30.8,68.7-68.7C168.7,62.1,137.9,31.3,100,31.3z"
			/>
	</g>
	<g>
		<path class="st0" d="M100,143.2c-23.8,0-43.2-19.4-43.2-43.2S76.2,56.8,100,56.8c7,0,14,1.7,20.2,5c0.6,0.3,0.8,1.1,0.5,1.7
			c-0.3,0.6-1.1,0.8-1.7,0.5c-5.8-3.1-12.4-4.7-19-4.7c-22.5,0-40.7,18.3-40.7,40.7c0,22.5,18.3,40.7,40.7,40.7
			c22.5,0,40.7-18.3,40.7-40.7c0-6.8-1.7-13.5-4.9-19.4c-0.3-0.6-0.1-1.4,0.5-1.7c0.6-0.3,1.4-0.1,1.7,0.5
			c3.4,6.3,5.2,13.4,5.2,20.6C143.2,123.8,123.8,143.2,100,143.2z"/>
	</g>
	<g>
		<path class="st0" d="M100,134.1c-18.8,0-34.1-15.3-34.1-34.1c0-18.8,15.3-34.1,34.1-34.1c7.3,0,14.3,2.3,20.2,6.7
			c0.6,0.4,0.7,1.2,0.3,1.7c-0.4,0.6-1.2,0.7-1.7,0.3c-5.5-4-11.9-6.2-18.7-6.2c-17.4,0-31.6,14.2-31.6,31.6s14.2,31.6,31.6,31.6
			s31.6-14.2,31.6-31.6c0-7-2.3-13.7-6.5-19.2c-0.4-0.5-0.3-1.3,0.2-1.8c0.5-0.4,1.3-0.3,1.8,0.2c4.6,6,7,13.2,7,20.7
			C134.1,118.8,118.8,134.1,100,134.1z"/>
	</g>
	<g>
		<path class="st0" d="M100,126.2c-14.5,0-26.2-11.8-26.2-26.2c0-14.5,11.8-26.2,26.2-26.2c5.1,0,10.1,1.5,14.4,4.3
			c0.6,0.4,0.7,1.2,0.4,1.7c-0.4,0.6-1.2,0.7-1.7,0.4c-3.9-2.5-8.4-3.9-13-3.9c-13.1,0-23.8,10.7-23.8,23.8s10.7,23.8,23.8,23.8
			s23.8-10.7,23.8-23.8c0-4.5-1.3-9-3.7-12.8c-0.4-0.6-0.2-1.4,0.4-1.7c0.6-0.4,1.4-0.2,1.7,0.4c2.7,4.2,4.1,9.1,4.1,14.1
			C126.2,114.5,114.5,126.2,100,126.2z"/>
	</g>
	<g>
		<g>
			<path class="st0" d="M100.5,101.7c-0.5,0-1-0.2-1.4-0.6c-0.8-0.8-0.8-2,0-2.8l26.4-26.4c0.8-0.8,2-0.8,2.8,0c0.8,0.8,0.8,2,0,2.8
				l-26.4,26.4C101.6,101.5,101,101.7,100.5,101.7z"/>
		</g>
		<g>
			<path class="st0" d="M137.9,76.4c-0.1,0-0.1,0-0.2,0l-10.9-1c-0.9-0.1-1.7-0.8-1.8-1.8l-1.3-11.2c-0.1-0.6,0.1-1.2,0.6-1.6
				l11.6-11.6c0.5-0.5,1.3-0.7,2.1-0.5c0.7,0.3,1.2,0.9,1.3,1.7l1.1,9.6l9.3,0.9c0.8,0.1,1.4,0.6,1.7,1.3s0.1,1.5-0.5,2.1
				l-11.6,11.6C138.9,76.2,138.4,76.4,137.9,76.4z M128.7,71.5l8.4,0.8l7.9-7.9l-6.7-0.6c-0.9-0.1-1.7-0.8-1.8-1.8l-0.8-7.1l-8,8
				L128.7,71.5z"/>
		</g>
	</g>
</g>
</svg>
