<?xml version="1.0" encoding="UTF-8"?>
<svg id="Layer_2" xmlns="http://www.w3.org/2000/svg" viewBox="0 0 145.4 145.4">
  <defs>
    <style>
      .cls-1 {
        fill: #0067fc;
      }
    </style>
  </defs>
  <g id="Layer_1-2" data-name="Layer_1">
    <g>
      <path class="cls-1" d="M72.7,145.4C32.6,145.4,0,112.8,0,72.7S32.6,0,72.7,0s72.7,32.6,72.7,72.7-32.6,72.7-72.7,72.7ZM72.7,4C34.8,4,4,34.8,4,72.7s30.8,68.7,68.7,68.7,68.7-30.8,68.7-68.7S110.6,4,72.7,4Z"/>
      <g>
        <path class="cls-1" d="M72.18,116.21c-23.8,0-43.2-19.4-43.2-43.2s19.4-43.2,43.2-43.2c7,0,14,1.7,20.2,5,.6.3.8,1.1.5,1.7-.3.6-1.1.8-1.7.5-5.8-3.1-12.4-4.7-19-4.7-22.5,0-40.7,18.3-40.7,40.7s18.3,40.7,40.7,40.7,40.7-18.3,40.7-40.7c0-6.8-1.7-13.5-4.9-19.4-.3-.6-.1-1.4.5-1.7.6-.3,1.4-.1,1.7.5,3.4,6.3,5.2,13.4,5.2,20.6,0,23.8-19.4,43.2-43.2,43.2Z"/>
        <path class="cls-1" d="M72.18,107.11c-18.8,0-34.1-15.3-34.1-34.1s15.3-34.1,34.1-34.1c7.3,0,14.3,2.3,20.2,6.7.6.4.7,1.2.3,1.7-.4.6-1.2.7-1.7.3-5.5-4-11.9-6.2-18.7-6.2-17.4,0-31.6,14.2-31.6,31.6s14.2,31.6,31.6,31.6,31.6-14.2,31.6-31.6c0-7-2.3-13.7-6.5-19.2-.4-.5-.3-1.3.2-1.8.5-.4,1.3-.3,1.8.2,4.6,6,7,13.2,7,20.7-.1,18.9-15.4,34.2-34.2,34.2Z"/>
        <path class="cls-1" d="M72.18,99.21c-14.5,0-26.2-11.8-26.2-26.2s11.8-26.2,26.2-26.2c5.1,0,10.1,1.5,14.4,4.3.6.4.7,1.2.4,1.7-.4.6-1.2.7-1.7.4-3.9-2.5-8.4-3.9-13-3.9-13.1,0-23.8,10.7-23.8,23.8s10.7,23.8,23.8,23.8,23.8-10.7,23.8-23.8c0-4.5-1.3-9-3.7-12.8-.4-.6-.2-1.4.4-1.7.6-.4,1.4-.2,1.7.4,2.7,4.2,4.1,9.1,4.1,14.1-.2,14.4-11.9,26.1-26.4,26.1Z"/>
        <g>
          <path class="cls-1" d="M72.68,74.71c-.5,0-1-.2-1.4-.6-.8-.8-.8-2,0-2.8l26.4-26.4c.8-.8,2-.8,2.8,0s.8,2,0,2.8l-26.4,26.4c-.3.4-.9.6-1.4.6Z"/>
          <path class="cls-1" d="M110.08,49.41h-.2l-10.9-1c-.9-.1-1.7-.8-1.8-1.8l-1.3-11.2c-.1-.6.1-1.2.6-1.6l11.6-11.6c.5-.5,1.3-.7,2.1-.5.7.3,1.2.9,1.3,1.7l1.1,9.6,9.3.9c.8.1,1.4.6,1.7,1.3s.1,1.5-.5,2.1l-11.6,11.6c-.4.3-.9.5-1.4.5ZM100.88,44.51l8.4.8,7.9-7.9-6.7-.6c-.9-.1-1.7-.8-1.8-1.8l-.8-7.1-8,8,1,8.6Z"/>
        </g>
      </g>
    </g>
  </g>
</svg>