<?xml version="1.0" encoding="utf-8"?>
<!-- Generator: Adobe Illustrator 26.3.1, SVG Export Plug-In . SVG Version: 6.00 Build 0)  -->
<svg version="1.1" id="Layer_1" xmlns="http://www.w3.org/2000/svg" xmlns:xlink="http://www.w3.org/1999/xlink" x="0px" y="0px"
	 viewBox="0 0 200 200" style="enable-background:new 0 0 200 200;" xml:space="preserve">
<style type="text/css">
	.st0{fill:#0067FC;}
</style>
<g>
	<g>
		<g>
			<path class="st0" d="M116.6,74.8c-0.7,0-1.2-0.6-1.2-1.2v-4.2h-4.1c-0.7,0-1.2-0.6-1.2-1.2s0.6-1.2,1.2-1.2h5.4
				c0.7,0,1.2,0.6,1.2,1.2v5.5C117.9,74.3,117.3,74.8,116.6,74.8z"/>
		</g>
		<g>
			<path class="st0" d="M83.4,90.5c-0.7,0-1.2-0.6-1.2-1.2v-5.6c0-0.7,0.6-1.2,1.2-1.2s1.2,0.6,1.2,1.2v5.6
				C84.6,90,84.1,90.5,83.4,90.5z"/>
		</g>
		<g>
			<path class="st0" d="M91.4,90.1c-0.7,0-1.2-0.6-1.2-1.2v-2.2c0-0.7,0.6-1.2,1.2-1.2s1.2,0.6,1.2,1.2v2.2
				C92.7,89.5,92.1,90.1,91.4,90.1z"/>
		</g>
		<g>
			<path class="st0" d="M99,90.1c-0.7,0-1.2-0.6-1.2-1.2v-9.5c0-0.7,0.6-1.2,1.2-1.2s1.2,0.6,1.2,1.2v9.5
				C100.2,89.5,99.7,90.1,99,90.1z"/>
		</g>
		<g>
			<path class="st0" d="M107.4,90.1c-0.7,0-1.2-0.6-1.2-1.2v-7.3c0-0.7,0.6-1.2,1.2-1.2s1.2,0.6,1.2,1.2v7.3
				C108.7,89.5,108.1,90.1,107.4,90.1z"/>
		</g>
		<g>
			<path class="st0" d="M115.5,89.7c-0.7,0-1.2-0.6-1.2-1.2V77.6c0-0.7,0.6-1.2,1.2-1.2s1.2,0.6,1.2,1.2v10.9
				C116.7,89.2,116.2,89.7,115.5,89.7z"/>
		</g>
		<g>
			<path class="st0" d="M90.6,82.8c-0.2,0-0.4,0-0.6-0.1l-7.2-3.8c-0.6-0.3-0.8-1.1-0.5-1.7c0.3-0.6,1.1-0.8,1.7-0.5l6.4,3.3
				l7.8-7.4c0.4-0.4,0.9-0.5,1.4-0.2l7.7,3.7l7.4-7.6c0.5-0.5,1.3-0.5,1.8,0c0.5,0.5,0.5,1.3,0,1.8l-8.1,8.2c-0.4,0.4-1,0.5-1.4,0.3
				L99.2,75l-7.8,7.5C91.2,82.7,90.9,82.8,90.6,82.8z"/>
		</g>
	</g>
	<g>
		<path class="st0" d="M100,172.7c-40.1,0-72.7-32.6-72.7-72.7S59.9,27.3,100,27.3s72.7,32.6,72.7,72.7S140.1,172.7,100,172.7z
			 M100,31.3c-37.9,0-68.7,30.8-68.7,68.7c0,37.9,30.8,68.7,68.7,68.7c37.9,0,68.7-30.8,68.7-68.7C168.7,62.1,137.9,31.3,100,31.3z"
			/>
	</g>
	<g>
		<g>
			<path class="st0" d="M117.1,143.3h-42c-3,0-5.5-2.5-5.5-5.5V62.2c0-3,2.5-5.5,5.5-5.5h49.8c3,0,5.5,2.5,5.5,5.5v66.3
				c0,0.3-0.1,0.6-0.3,0.8L118,142.9C117.8,143.1,117.5,143.3,117.1,143.3z M72.1,93.2v44.6c0,1.7,1.3,3,3,3h41.5l11.4-12.8V62.2
				c0-1.7-1.3-3-3-3H75.1c-1.7,0-3,1.3-3,3V93.2z"/>
		</g>
		<g>
			<path class="st0" d="M116.1,142.8c-0.7,0-1.2-0.6-1.2-1.2v-8.8c0-3,2.5-5.5,5.5-5.5h8.8c0.7,0,1.2,0.6,1.2,1.2s-0.6,1.2-1.2,1.2
				h-8.8c-1.7,0-3,1.3-3,3v8.8C117.4,142.3,116.8,142.8,116.1,142.8z"/>
		</g>
	</g>
	<g>
		<g>
			<path class="st0" d="M98.7,131.6c-9.7,0-17.6-7.9-17.6-17.6c0-9.7,7.9-17.6,17.6-17.6c2.5,0,4.9,0.5,7.1,1.5
				c0.6,0.3,0.9,1,0.6,1.6c-0.3,0.6-1,0.9-1.6,0.6c-1.9-0.9-4-1.3-6.1-1.3c-8.4,0-15.1,6.8-15.1,15.1s6.8,15.1,15.1,15.1
				c8.4,0,15.1-6.8,15.1-15.1c0-3.4-1.1-6.6-3.2-9.3c-0.4-0.5-0.3-1.3,0.2-1.8s1.3-0.3,1.8,0.2c2.4,3.1,3.7,6.8,3.7,10.8
				C116.4,123.6,108.5,131.6,98.7,131.6z"/>
		</g>
		<g>
			<path class="st0" d="M98.7,125.9c-6.6,0-12-5.4-12-12c0-6.6,5.4-12,12-12c1,0,2.1,0.1,3.1,0.4c0.7,0.2,1.1,0.9,0.9,1.5
				c-0.2,0.7-0.9,1.1-1.5,0.9c-0.8-0.2-1.6-0.3-2.4-0.3c-5.2,0-9.5,4.3-9.5,9.5s4.3,9.5,9.5,9.5c5.2,0,9.5-4.3,9.5-9.5
				c0-1.5-0.3-3-1-4.3c-0.3-0.6-0.1-1.4,0.5-1.7c0.6-0.3,1.4-0.1,1.7,0.5c0.9,1.7,1.3,3.5,1.3,5.4
				C110.7,120.5,105.4,125.9,98.7,125.9z"/>
		</g>
		<g>
			<path class="st0" d="M98.7,118.6c-2.6,0-4.7-2.1-4.7-4.7s2.1-4.7,4.7-4.7s4.7,2.1,4.7,4.7S101.3,118.6,98.7,118.6z M98.7,111.7
				c-1.2,0-2.2,1-2.2,2.2s1,2.2,2.2,2.2s2.2-1,2.2-2.2S100,111.7,98.7,111.7z"/>
		</g>
		<g>
			<g>
				<path class="st0" d="M102.6,109.6c-0.2,0-0.5-0.1-0.7-0.3c-0.2-0.2-0.3-0.5-0.2-0.8c2.4-9.4,9.8-11.1,10.1-11.2
					c0.3-0.1,0.6,0,0.8,0.3c0.2,0.2,0.3,0.6,0.2,0.9c-3.5,10.2-9.9,11.1-10.2,11.1C102.6,109.6,102.6,109.6,102.6,109.6z
					 M110.5,99.7c-1.9,0.9-5,3.1-6.6,7.7C105.6,106.7,108.4,104.7,110.5,99.7z"/>
			</g>
			<g>
				<path class="st0" d="M112,99c-0.2,0-0.3-0.1-0.5-0.2c-0.2-0.2-0.3-0.4-0.3-0.7l0.8-5.8c0-0.3,0.3-0.6,0.6-0.6
					c0.3-0.1,0.6,0,0.8,0.3l1.6,2.3l2.9,0.8c0.3,0.1,0.5,0.4,0.5,0.7c0,0.3-0.2,0.6-0.5,0.7l-5.6,2.4C112.2,99,112.1,99,112,99z
					 M113.3,94.5l-0.3,2.5l2.5-1l-1.1-0.3c-0.2,0-0.3-0.2-0.4-0.3L113.3,94.5z"/>
			</g>
			<g>
				<path class="st0" d="M101,111c-0.2,0-0.4-0.1-0.6-0.3c-0.3-0.3-0.3-0.9,0-1.2l1.4-1.4c0.3-0.3,0.9-0.3,1.2,0s0.3,0.9,0,1.2
					l-1.4,1.4C101.4,111,101.2,111,101,111z"/>
			</g>
		</g>
	</g>
</g>
</svg>
