<?xml version="1.0" encoding="UTF-8"?>
<svg id="Layer_2" xmlns="http://www.w3.org/2000/svg" viewBox="0 0 145.4 145.4">
  <defs>
    <style>
      .cls-1 {
        fill: #0067fc;
      }
    </style>
  </defs>
  <g id="Layer_1-2" data-name="Layer_1">
    <g>
      <path class="cls-1" d="M136.27,37.44l-3.21,2.47c5.32,9.75,8.34,20.92,8.34,32.79,0,37.9-30.8,68.7-68.7,68.7S4,110.6,4,72.7,34.8,4,72.7,4c11.53,0,22.4,2.85,31.94,7.88l2.32-3.29C96.75,3.11,85.08,0,72.7,0,32.6,0,0,32.6,0,72.7s32.6,72.7,72.7,72.7,72.7-32.6,72.7-72.7c0-12.79-3.32-24.81-9.13-35.26Z"/>
      <path class="cls-1" d="M126.91,72.69c0,29.42-23.98,53.4-53.39,53.4s-53.4-23.98-53.4-53.4,23.98-53.39,53.4-53.39c8.1,0,16.2,1.84,23.48,5.42l-1.81,2.57c-6.72-3.24-14.2-4.9-21.67-4.9-27.81,0-50.31,22.62-50.31,50.3s22.62,50.31,50.31,50.31,50.3-22.62,50.3-50.31c0-7.45-1.65-14.8-4.78-21.45l2.5-1.93c3.52,7.26,5.37,15.26,5.37,23.38Z"/>
      <path class="cls-1" d="M115.79,72.57c-.13,23.36-19.04,42.27-42.27,42.27s-42.15-18.91-42.15-42.15,18.91-42.14,42.15-42.14c5.87,0,11.58,1.2,16.86,3.55l-1.8,2.56c-4.69-1.97-9.72-3.02-14.94-3.02-21.51,0-39.06,17.55-39.06,39.05s17.55,39.06,39.06,39.06,39.06-17.55,39.06-39.06c0-5.01-.95-9.89-2.76-14.43l2.58-1.99c2.16,5.13,3.27,10.65,3.27,16.3Z"/>
      <path class="cls-1" d="M106.15,72.82c-.25,17.8-14.71,32.26-32.63,32.26s-32.39-14.59-32.39-32.39,14.59-32.38,32.39-32.38c3.79,0,7.55.67,11.09,1.97l-1.85,2.62c-2.93-.98-6.01-1.5-9.12-1.5-16.19,0-29.42,13.23-29.42,29.42s13.23,29.41,29.42,29.41,29.42-13.22,29.42-29.41c0-2.81-.41-5.62-1.21-8.32l2.62-2.02c1.11,3.31,1.68,6.81,1.68,10.34Z"/>
      <g>
        <path class="cls-1" d="M97.55,58.76c.36.36.84.6,1.15.82.95-.12,1.4-.69,1.89-1.15,6.76-6.45,14.08-13.5,22.16-21.12,1.92-1.81,1.8-2.93.4-4.22-3.7-3.41-7.33-6.89-10.91-10.42-1.24-1.22-2.29-1.41-3.95.47-7.35,8.32-14.14,15.89-20.39,22.83-1.09,1.21-1.16,2.09-.11,3.11,3.28,3.19,6.5,6.46,9.76,9.67Z"/>
        <path class="cls-1" d="M116.4,17.65c2.93,2.7,5.68,5.59,8.64,8.27,5.41,4.88,3.48,5.95,11.8-2.12,3.03-2.94,3.58-5.63,1.3-7.8-3.15-3-6.33-5.96-9.51-8.92-.83-.77-1.78-1.35-4.34-.84-2.8.91-4.84,4.71-7.52,7.36-1.68,1.66-1.65,2.88-.38,4.06Z"/>
        <path class="cls-1" d="M93.13,63.47c-3.3-3.32-6.62-6.63-9.96-9.92-.67-.67-1.38-.75-1.71.47-1.3,4.85-2.52,9.52-3.7,14,.06,1.18.49,1.78,1.68,1.4,4.21-1.34,8.57-2.77,13.12-4.24,1.09-.35,1.3-.96.56-1.71Z"/>
      </g>
    </g>
  </g>
</svg>