<?xml version="1.0" encoding="utf-8"?>
<!-- Generator: Adobe Illustrator 26.3.1, SVG Export Plug-In . SVG Version: 6.00 Build 0)  -->
<svg version="1.1" id="Layer_1" xmlns="http://www.w3.org/2000/svg" xmlns:xlink="http://www.w3.org/1999/xlink" x="0px" y="0px"
	 viewBox="0 0 200 200" style="enable-background:new 0 0 200 200;" xml:space="preserve">
<style type="text/css">
	.st0{fill:#0067FC;}
</style>
<g>
	<g>
		<g>
			<path class="st0" d="M117.1,143.3h-42c-3,0-5.5-2.5-5.5-5.5V62.2c0-3,2.5-5.5,5.5-5.5h49.8c3,0,5.5,2.5,5.5,5.5v66.3
				c0,0.3-0.1,0.6-0.3,0.8L118,142.9C117.8,143.1,117.5,143.3,117.1,143.3z M72.1,93.2v44.6c0,1.7,1.3,3,3,3h41.5l11.4-12.8V62.2
				c0-1.7-1.3-3-3-3H75.1c-1.7,0-3,1.3-3,3V93.2z"/>
		</g>
		<g>
			<path class="st0" d="M116.1,142.8c-0.7,0-1.2-0.6-1.2-1.2v-8.8c0-3,2.5-5.5,5.5-5.5h8.8c0.7,0,1.2,0.6,1.2,1.2s-0.6,1.2-1.2,1.2
				h-8.8c-1.7,0-3,1.3-3,3v8.8C117.4,142.3,116.8,142.8,116.1,142.8z"/>
		</g>
	</g>
	<g>
		<g>
			<g>
				<path class="st0" d="M100,95.3c-7.3,0-13.2-5.9-13.2-13.2s5.9-13.2,13.2-13.2c7.3,0,13.2,5.9,13.2,13.2S107.3,95.3,100,95.3z
					 M100,71.3c-5.9,0-10.7,4.8-10.7,10.7c0,5.9,4.8,10.7,10.7,10.7s10.7-4.8,10.7-10.7C110.7,76.1,105.9,71.3,100,71.3z"/>
			</g>
		</g>
		<g>
			<path class="st0" d="M95.4,86.2c-0.4,0-0.8-0.2-1-0.5c-0.4-0.6-0.2-1.3,0.3-1.7l4.1-2.8v-5.8c0-0.7,0.6-1.2,1.2-1.2
				s1.2,0.6,1.2,1.2v6.5c0,0.4-0.2,0.8-0.5,1L96.1,86C95.9,86.1,95.6,86.2,95.4,86.2z"/>
		</g>
	</g>
	<g>
		<path class="st0" d="M100,172.7c-40.1,0-72.7-32.6-72.7-72.7S59.9,27.3,100,27.3s72.7,32.6,72.7,72.7S140.1,172.7,100,172.7z
			 M100,31.3c-37.9,0-68.7,30.8-68.7,68.7c0,37.9,30.8,68.7,68.7,68.7c37.9,0,68.7-30.8,68.7-68.7C168.7,62.1,137.9,31.3,100,31.3z"
			/>
	</g>
	<g>
		<path class="st0" d="M104.2,110.9c-0.7,0-1.4-0.1-2.1-0.4c-1.4-0.6-2.5-1.6-3-3s-0.6-2.9,0-4.3c1.1-2.9,4.4-4.2,7.2-3.1
			c1.4,0.6,2.5,1.6,3,3s0.6,2.9,0,4.3c-0.6,1.4-1.6,2.5-3,3C105.7,110.8,105,110.9,104.2,110.9z M104.2,102.3
			c-0.4,0-0.8,0.1-1.2,0.2c-0.8,0.3-1.3,0.9-1.6,1.7c-0.3,0.8-0.3,1.6,0,2.4c0.3,0.8,0.9,1.3,1.7,1.6c1.6,0.6,3.4-0.1,4-1.7l0,0
			c0.3-0.8,0.3-1.6,0-2.4s-0.9-1.3-1.7-1.6C105,102.3,104.6,102.3,104.2,102.3z"/>
	</g>
	<g>
		<path class="st0" d="M95.7,132.2c-0.7,0-1.4-0.1-2.1-0.4c-1.4-0.6-2.5-1.6-3-3s-0.6-2.9,0-4.3c1.1-2.9,4.4-4.2,7.2-3.1
			c1.4,0.6,2.5,1.6,3,3c0.6,1.4,0.6,2.9,0,4.3c-0.6,1.4-1.6,2.5-3,3C97.2,132.1,96.4,132.2,95.7,132.2z M95.7,123.6
			c-1.2,0-2.4,0.7-2.9,1.9c-0.3,0.8-0.3,1.6,0,2.4s0.9,1.3,1.7,1.6c1.6,0.6,3.4-0.1,4-1.7c0,0,0,0,0,0c0.3-0.8,0.3-1.6,0-2.4
			c-0.3-0.8-0.9-1.3-1.7-1.6C96.5,123.6,96.1,123.6,95.7,123.6z"/>
	</g>
	<g>
		<circle class="st0" cx="100.3" cy="115.1" r="3.4"/>
	</g>
	<g>
		<path class="st0" d="M111.4,125.3c-0.7,0-1.4-0.1-2.1-0.4c-1.4-0.6-2.5-1.6-3-3s-0.6-2.9,0-4.3s1.6-2.5,3-3c1.4-0.6,2.9-0.6,4.3,0
			c1.4,0.6,2.5,1.6,3,3s0.6,2.9,0,4.3s-1.6,2.5-3,3C112.9,125.2,112.1,125.3,111.4,125.3z M111.4,116.7c-1.2,0-2.4,0.7-2.9,1.9
			c-0.6,1.6,0.1,3.4,1.7,4c0.8,0.3,1.6,0.3,2.4,0c0.8-0.3,1.3-0.9,1.6-1.7s0.3-1.6,0-2.4c-0.3-0.8-0.9-1.3-1.7-1.6
			C112.2,116.7,111.8,116.7,111.4,116.7z"/>
	</g>
	<g>
		<path class="st0" d="M88.2,116c-0.7,0-1.4-0.1-2.1-0.4c-1.4-0.6-2.5-1.6-3-3s-0.6-2.9,0-4.3c1.1-2.9,4.4-4.2,7.2-3.1
			c2.9,1.1,4.2,4.4,3.1,7.2c0,0,0,0,0,0C92.5,114.7,90.4,116,88.2,116z M88.2,107.4c-1.2,0-2.4,0.7-2.9,1.9c-0.3,0.8-0.3,1.6,0,2.4
			s0.9,1.3,1.7,1.6c1.6,0.6,3.4-0.1,4-1.7l0,0c0.6-1.6-0.1-3.4-1.7-4C89,107.4,88.6,107.4,88.2,107.4z M92.2,112L92.2,112L92.2,112z
			"/>
	</g>
	<g>
		<path class="st0" d="M107.4,119.4c-0.2,0-0.3,0-0.5-0.1l-15.1-6.1c-0.6-0.3-1-1-0.7-1.6c0.3-0.6,1-1,1.6-0.7l15.1,6.1
			c0.6,0.3,1,1,0.7,1.6C108.3,119.1,107.9,119.4,107.4,119.4z"/>
	</g>
	<g>
		<path class="st0" d="M97.3,123.9c-0.2,0-0.3,0-0.5-0.1c-0.6-0.3-1-1-0.7-1.6l5.3-13.3c0.3-0.6,1-1,1.6-0.7c0.6,0.3,1,1,0.7,1.6
			l-5.3,13.3C98.3,123.6,97.8,123.9,97.3,123.9z"/>
	</g>
	<g>
		<path class="st0" d="M100,94.7c-0.7,0-1.2-0.6-1.2-1.2v-1.6c0-0.7,0.6-1.2,1.2-1.2s1.2,0.6,1.2,1.2v1.6
			C101.2,94.1,100.7,94.7,100,94.7z"/>
	</g>
	<g>
		<path class="st0" d="M100,72.9c-0.7,0-1.2-0.6-1.2-1.2v-1.6c0-0.7,0.6-1.2,1.2-1.2s1.2,0.6,1.2,1.2v1.6
			C101.2,72.3,100.7,72.9,100,72.9z"/>
	</g>
	<g>
		<path class="st0" d="M111.7,82.2h-1.6c-0.7,0-1.2-0.6-1.2-1.2s0.6-1.2,1.2-1.2h1.6c0.7,0,1.2,0.6,1.2,1.2S112.4,82.2,111.7,82.2z"
			/>
	</g>
	<g>
		<path class="st0" d="M89.8,82.2h-1.6c-0.7,0-1.2-0.6-1.2-1.2s0.6-1.2,1.2-1.2h1.6c0.7,0,1.2,0.6,1.2,1.2S90.5,82.2,89.8,82.2z"/>
	</g>
</g>
</svg>
