<?xml version="1.0" encoding="utf-8"?>
<!-- Generator: Adobe Illustrator 26.3.1, SVG Export Plug-In . SVG Version: 6.00 Build 0)  -->
<svg version="1.1" id="Layer_1" xmlns="http://www.w3.org/2000/svg" xmlns:xlink="http://www.w3.org/1999/xlink" x="0px" y="0px"
	 viewBox="0 0 200 200" style="enable-background:new 0 0 200 200;" xml:space="preserve">
<style type="text/css">
	.st0{fill:#0067FC;}
</style>
<g>
	<g>
		<g>
			<path class="st0" d="M98.3,103.3c-8.7,0-15.8-7.1-15.8-15.8s7.1-15.8,15.8-15.8c0.7,0,1.2,0.6,1.2,1.2v13.3h13.3
				c0.7,0,1.2,0.6,1.2,1.2C114.1,96.2,107,103.3,98.3,103.3z M97,74.3c-6.7,0.6-12,6.3-12,13.2c0,7.3,6,13.3,13.3,13.3
				c6.9,0,12.6-5.3,13.2-12H98.3c-0.7,0-1.2-0.6-1.2-1.2V74.3z"/>
		</g>
		<g>
			<path class="st0" d="M101.7,69.2v14.5h14.5C116.2,75.7,109.7,69.2,101.7,69.2z"/>
		</g>
	</g>
	<g>
		<g>
			<path class="st0" d="M118,113.1c-0.7,0-1.2-0.6-1.2-1.2v-4.2h-4.1c-0.7,0-1.2-0.6-1.2-1.2s0.6-1.2,1.2-1.2h5.4
				c0.7,0,1.2,0.6,1.2,1.2v5.5C119.2,112.5,118.7,113.1,118,113.1z"/>
		</g>
		<g>
			<path class="st0" d="M84.8,128.8c-0.7,0-1.2-0.6-1.2-1.2V122c0-0.7,0.6-1.2,1.2-1.2s1.2,0.6,1.2,1.2v5.6
				C86,128.3,85.5,128.8,84.8,128.8z"/>
		</g>
		<g>
			<path class="st0" d="M92.8,128.3c-0.7,0-1.2-0.6-1.2-1.2v-2.2c0-0.7,0.6-1.2,1.2-1.2s1.2,0.6,1.2,1.2v2.2
				C94.1,127.8,93.5,128.3,92.8,128.3z"/>
		</g>
		<g>
			<path class="st0" d="M100.3,128.3c-0.7,0-1.2-0.6-1.2-1.2v-9.5c0-0.7,0.6-1.2,1.2-1.2c0.7,0,1.3,0.6,1.3,1.2v9.5
				C101.6,127.8,101,128.3,100.3,128.3z"/>
		</g>
		<g>
			<path class="st0" d="M108.8,128.3c-0.7,0-1.2-0.6-1.2-1.2v-7.3c0-0.7,0.6-1.2,1.2-1.2s1.2,0.6,1.2,1.2v7.3
				C110.1,127.8,109.5,128.3,108.8,128.3z"/>
		</g>
		<g>
			<path class="st0" d="M116.9,128c-0.7,0-1.2-0.6-1.2-1.2v-10.9c0-0.7,0.6-1.2,1.2-1.2s1.2,0.6,1.2,1.2v10.9
				C118.1,127.4,117.6,128,116.9,128z"/>
		</g>
		<g>
			<path class="st0" d="M91.9,121.1c-0.2,0-0.4,0-0.6-0.1l-7.2-3.8c-0.6-0.3-0.8-1.1-0.5-1.7c0.3-0.6,1.1-0.8,1.7-0.5l6.4,3.3
				l7.8-7.4c0.4-0.4,0.9-0.5,1.4-0.2l7.7,3.7l7.4-7.6c0.5-0.5,1.3-0.5,1.8,0c0.5,0.5,0.5,1.3,0,1.8l-8.1,8.2c-0.4,0.4-1,0.5-1.4,0.3
				l-7.7-3.7l-7.8,7.5C92.6,121,92.3,121.1,91.9,121.1z"/>
		</g>
	</g>
	<g>
		<g>
			<path class="st0" d="M117.1,143.3h-42c-3,0-5.5-2.5-5.5-5.5V62.2c0-3,2.5-5.5,5.5-5.5h49.8c3,0,5.5,2.5,5.5,5.5v66.3
				c0,0.3-0.1,0.6-0.3,0.8L118,142.9C117.8,143.1,117.5,143.3,117.1,143.3z M72.1,93.2v44.6c0,1.7,1.3,3,3,3h41.5l11.4-12.8V62.2
				c0-1.7-1.3-3-3-3H75.1c-1.7,0-3,1.3-3,3V93.2z"/>
		</g>
		<g>
			<path class="st0" d="M116.1,142.8c-0.7,0-1.2-0.6-1.2-1.2v-8.8c0-3,2.5-5.5,5.5-5.5h8.8c0.7,0,1.2,0.6,1.2,1.2s-0.6,1.2-1.2,1.2
				h-8.8c-1.7,0-3,1.3-3,3v8.8C117.4,142.3,116.8,142.8,116.1,142.8z"/>
		</g>
	</g>
	<g>
		<path class="st0" d="M100,172.7c-40.1,0-72.7-32.6-72.7-72.7S59.9,27.3,100,27.3s72.7,32.6,72.7,72.7S140.1,172.7,100,172.7z
			 M100,31.3c-37.9,0-68.7,30.8-68.7,68.7c0,37.9,30.8,68.7,68.7,68.7c37.9,0,68.7-30.8,68.7-68.7C168.7,62.1,137.9,31.3,100,31.3z"
			/>
	</g>
</g>
</svg>
