<?xml version="1.0" encoding="utf-8"?>
<!-- Generator: Adobe Illustrator 26.4.0, SVG Export Plug-In . SVG Version: 6.00 Build 0)  -->
<svg version="1.1" id="Layer_1" xmlns="http://www.w3.org/2000/svg" xmlns:xlink="http://www.w3.org/1999/xlink" x="0px" y="0px"
	 viewBox="0 0 200 200" style="enable-background:new 0 0 200 200;" xml:space="preserve">
<style type="text/css">
	.st0{fill:#0067FC;}
</style>
<g>
	<g>
		<g>
			<path class="st0" d="M100,141.4c-0.4,0-0.8-0.2-1-0.5c-1.2-1.5-28.4-37.2-28.4-53c0-16.2,13.2-29.3,29.3-29.3
				c16.2,0,29.3,13.2,29.3,29.3c0,15.8-27.2,51.5-28.4,53C100.8,141.2,100.4,141.4,100,141.4z M100,61.1c-14.8,0-26.8,12-26.8,26.8
				c0,13.3,21.9,43.5,26.8,50.2c5-6.7,26.8-36.9,26.8-50.2C126.8,73.1,114.8,61.1,100,61.1z"/>
		</g>
		<g>
			<path class="st0" d="M100,99.4c-7.4,0-13.5-6-13.5-13.5c0-7.4,6-13.5,13.5-13.5s13.5,6,13.5,13.5C113.5,93.4,107.4,99.4,100,99.4
				z M100,75c-6,0-11,4.9-11,11s4.9,11,11,11s11-4.9,11-11S106,75,100,75z"/>
		</g>
	</g>
	<g>
		<path class="st0" d="M100,172.7c-40.1,0-72.7-32.6-72.7-72.7S59.9,27.3,100,27.3s72.7,32.6,72.7,72.7S140.1,172.7,100,172.7z
			 M100,31.3c-37.9,0-68.7,30.8-68.7,68.7c0,37.9,30.8,68.7,68.7,68.7c37.9,0,68.7-30.8,68.7-68.7C168.7,62.1,137.9,31.3,100,31.3z"
			/>
	</g>
	<g>
		<path class="st0" d="M101,147.9c-13.1,0-24.7-2.9-28.9-7.3c-1.2-1.3-1.8-2.7-1.8-4.1c0.2-5,8.5-8.5,16.1-10.2
			c0.7-0.1,1.3,0.3,1.5,1s-0.3,1.3-1,1.5c-9.2,1.9-14.1,5.4-14.2,7.8c0,0.7,0.3,1.5,1.1,2.3c3.7,3.9,14.9,6.6,27.1,6.6
			c13.3,0,22.1-3.4,24.6-6.5c0.7-0.9,1-1.7,0.8-2.6c-0.6-2.8-5.5-5.5-12.7-7.2c-0.7-0.2-1.1-0.8-0.9-1.5c0.2-0.7,0.8-1.1,1.5-0.9
			c8.4,1.9,13.7,5.3,14.6,9.1c0.4,1.6-0.1,3.3-1.3,4.7C124,145,113.5,147.9,101,147.9z"/>
	</g>
</g>
</svg>
