<svg xmlns="http://www.w3.org/2000/svg" xmlns:xlink="http://www.w3.org/1999/xlink" viewBox="0 0 274 295.42"><defs><style>.cls-1,.cls-8{fill:none;}.cls-2{clip-path:url(#clip-path);}.cls-3,.cls-4{fill:#c9c9c9;}.cls-17,.cls-4{opacity:0.3;}.cls-5{fill:#4bbc3b;}.cls-18,.cls-6{fill:#e5e5e5;}.cls-6{fill-rule:evenodd;}.cls-7{fill:#fff;}.cls-8{stroke:#4bbc3b;stroke-miterlimit:10;stroke-width:6px;}.cls-9{fill:#ffbf9d;}.cls-10{fill:#ff9a6c;}.cls-11{fill:#263238;}.cls-12{fill:#262626;}.cls-13{fill:#455a64;}.cls-14{fill:#e0e0e0;}.cls-15{opacity:0.6;}.cls-16{fill:#0067fc;}</style><clipPath id="clip-path" transform="translate(-13 -2.29)"><rect class="cls-1" width="300" height="300"/></clipPath></defs><g id="Layer_2" data-name="Layer 2"><g id="Character"><g class="cls-2"><path class="cls-3" d="M78.49,155.59c.05,0,1-3.65,1-3.89.38-2.77-.5-8.35-3.32-9.72a3.71,3.71,0,0,0-5,2.24c-.75,2.08.21,4.63,1.34,6.38C73.83,152.66,78.49,155.59,78.49,155.59Z" transform="translate(-13 -2.29)"/><path class="cls-3" d="M22.86,154.38c2.25,1,7.75.86,7.76.86s-1.19-3.6-1.29-3.82c-1.21-2.52-5-6.69-8.13-6.27a3.71,3.71,0,0,0-3,4.65C18.74,152,21,153.55,22.86,154.38Z" transform="translate(-13 -2.29)"/><path class="cls-3" d="M94.91,135.66c-3.12-.33-6.82,3.94-8,6.49-.09.22-1.24,3.86-1.18,3.86h.07c-.59.67-1.22,1.4-1.88,2.2-1.22,1.5-2.58,3.2-3.94,5.16a64.8,64.8,0,0,0-4.09,6.51,48.92,48.92,0,0,0-3.49,7.85l0,.1c0-.92,0-3.48,0-3.68-.36-2.77-2.68-7.92-5.76-8.49a3.71,3.71,0,0,0-4.28,3.48c-.18,2.21,1.42,4.41,3,5.81,1.75,1.57,6.63,3.09,7,3.21a65.66,65.66,0,0,0-2.06,8.51c-.3,1.68-.55,3.37-.78,5.08,0-.8,0-1.51,0-1.6-.36-2.78-2.68-7.93-5.76-8.5a3.71,3.71,0,0,0-4.28,3.49c-.18,2.2,1.42,4.41,3,5.8s5.71,2.79,6.81,3.14c-.08.66-.17,1.31-.25,2-.37,3.14-.73,6.28-1.18,9.35-.16,1.08-.36,2.14-.55,3.2,0-.7,0-1.3,0-1.39-.36-2.77-2.69-7.92-5.77-8.49a3.71,3.71,0,0,0-4.28,3.49c-.18,2.2,1.42,4.41,3,5.8s5.31,2.66,6.62,3.08c-.23,1.08-.46,2.16-.73,3.2-.2.7-.34,1.39-.59,2.09l-.66,2.06c-.47,1.29-1,2.63-1.44,3.88-.33.87-.67,1.7-1,2.53.16-1.08.45-3.19.46-3.37a14.47,14.47,0,0,0-1.93-7,4.53,4.53,0,0,0-.06-.82,3.71,3.71,0,0,0-4.53-3.15c-3,.81-5,6.13-5.09,8.92,0,.16.1,2,.18,3.1-.15-.66-.29-1.3-.45-2-.32-1.34-.68-2.67-1.06-4.1-.2-.68-.41-1.37-.62-2.07s-.49-1.4-.73-2.11c-.6-1.64-1.29-3.27-2-4.9,1.18-.28,5.32-1.34,7-2.62s3.41-3.35,3.4-5.56a3.71,3.71,0,0,0-4-3.8c-3.11.34-5.81,5.3-6.38,8,0,.17-.22,2.19-.3,3.29-.45-1-.88-2-1.37-2.92-1.39-2.8-2.89-5.6-4.37-8.39l-1.34-2.57c.42-.1,5.38-1.25,7.24-2.68,1.66-1.27,3.42-3.35,3.4-5.56a3.71,3.71,0,0,0-4-3.8c-3.12.34-5.82,5.3-6.39,8,0,.21-.3,3.1-.33,3.84-1-1.89-1.94-3.78-2.81-5.68a65.84,65.84,0,0,1-3.06-7.9c.19,0,5.37-1.22,7.28-2.69,1.66-1.27,3.42-3.35,3.4-5.56a3.71,3.71,0,0,0-4-3.8c-3.12.34-5.82,5.3-6.38,8,0,.18-.24,2.39-.31,3.44l-.18,0a48.09,48.09,0,0,1-1.6-8.37c-.17-1.55-.25-3-.29-4.51,1-.12,5.49-.72,7.35-1.85s3.77-3,4-5.16a3.7,3.7,0,0,0-3.56-4.21c-3.13,0-6.37,4.63-7.23,7.29-.05.14-.36,1.67-.57,2.78,0-.66,0-1.34,0-2,0-2.37.15-4.54.3-6.46.09-1.09.2-2.07.31-3,.9-.63,4.53-3.18,5.64-5s2-4.36,1.17-6.42a3.72,3.72,0,0,0-5.11-2.1c-2.78,1.44-3.51,7.05-3.05,9.81,0,.23,1.09,3.89,1.14,3.86l.05,0c-.12.89-.24,1.84-.35,2.87-.19,1.93-.39,4.1-.45,6.48a65.28,65.28,0,0,0,.19,7.68,47.83,47.83,0,0,0,1.42,8.48l0,.1c-.49-.78-1.94-2.9-2.07-3.05-1.83-2.11-6.61-5.13-9.5-3.9a3.71,3.71,0,0,0-1.64,5.27c1.06,1.94,3.62,2.89,5.68,3.2,2.34.34,7.24-1.09,7.63-1.2a67.35,67.35,0,0,0,3,8.23c.68,1.57,1.4,3.12,2.15,4.67-.44-.66-.85-1.24-.91-1.32-1.83-2.11-6.62-5.12-9.5-3.9a3.7,3.7,0,0,0-1.64,5.27c1.06,1.94,3.61,2.9,5.68,3.2s6.31-.83,7.42-1.14c.29.59.58,1.18.88,1.77,1.42,2.83,2.85,5.65,4.17,8.46.46,1,.88,2,1.31,3-.4-.58-.74-1.07-.8-1.14-1.83-2.11-6.61-5.13-9.5-3.9A3.72,3.72,0,0,0,33,197.56c1.07,1.93,3.62,2.89,5.69,3.19s5.89-.71,7.21-1.08c.41,1,.82,2.06,1.16,3.07.22.7.48,1.35.67,2.07s.39,1.39.58,2.08c.32,1.34.66,2.72.94,4,.2.92.38,1.79.56,2.67-.45-1-1.38-2.91-1.47-3.06-1.49-2.37-5.76-6.07-8.8-5.3a3.7,3.7,0,0,0-2.42,5c.76,2.08,3.13,3.41,5.13,4,2.2.67,7.07.06,7.68,0,.29,1.45.56,2.87.8,4.21.82,4.66,1.32,8.56,1.64,11.3.06.48.1.92.15,1.33H43.08L46,287.17h17.2L66,231H57.25c.06-.14.13-.26.19-.41,1.21-2.51,2.88-6.12,4.69-10.53.57-1.4,1.16-2.9,1.74-4.45.59.13,5.41,1.11,7.66.6,2-.46,4.51-1.61,5.42-3.63a3.71,3.71,0,0,0-2-5.12c-3-1-7.5,2.37-9.16,4.62-.1.14-1,1.7-1.55,2.69.23-.63.47-1.25.7-1.9.48-1.29.91-2.6,1.39-4,.2-.68.41-1.37.62-2.07s.37-1.44.55-2.17c.41-1.7.74-3.44,1-5.19,1.13.41,5.17,1.81,7.27,1.67s4.69-.92,5.9-2.77A3.72,3.72,0,0,0,80.41,193c-2.79-1.43-7.78,1.22-9.77,3.19-.12.12-1.38,1.7-2.06,2.58.17-1.06.34-2.12.47-3.19.39-3.11.68-6.27,1-9.41.09-1,.2-1.93.3-2.89.4.15,5.17,1.93,7.51,1.76,2.09-.14,4.7-.91,5.91-2.76a3.71,3.71,0,0,0-1.25-5.38c-2.78-1.43-7.77,1.21-9.76,3.19-.15.15-2,2.42-2.4,3,.23-2.12.47-4.23.79-6.29A67,67,0,0,1,73,168.53c.19.07,5.16,1.95,7.56,1.78,2.08-.15,4.7-.91,5.91-2.77a3.7,3.7,0,0,0-1.25-5.37c-2.79-1.44-7.78,1.21-9.76,3.18-.13.13-1.52,1.86-2.16,2.7L73.1,168a48,48,0,0,1,3.28-7.85c.71-1.4,1.47-2.69,2.24-3.93.89.44,5,2.43,7.16,2.51s4.77-.39,6.17-2.1a3.7,3.7,0,0,0-.65-5.48c-2.61-1.73-7.86.35-10,2.1-.12.09-1.22,1.19-2,2,.35-.55.71-1.13,1.06-1.66,1.31-2,2.63-3.7,3.82-5.22.68-.86,1.31-1.62,1.91-2.33,1.1,0,5.53-.15,7.47-1.06s4-2.55,4.51-4.71A3.72,3.72,0,0,0,94.91,135.66Zm-34.49,83.7c-1.89,4.34-3.62,7.88-4.86,10.33L54.87,231h-.21c-.06-.48-.13-1-.21-1.6-.38-2.75-1-6.69-1.91-11.37-.29-1.48-.63-3.05-1-4.66a42.17,42.17,0,0,0,4.28-2c1.61,1.74,5.72,3.77,6.25,4C61.52,216.78,61,218.12,60.42,219.36Z" transform="translate(-13 -2.29)"/><path class="cls-4" d="M22.86,154.38c2.25,1,7.75.86,7.76.86s-1.19-3.6-1.29-3.82c-1.21-2.52-5-6.69-8.13-6.27a3.71,3.71,0,0,0-3,4.65C18.74,152,21,153.55,22.86,154.38Z" transform="translate(-13 -2.29)"/><path class="cls-4" d="M78.49,155.59c.05,0,1-3.65,1-3.89.38-2.77-.5-8.35-3.32-9.72a3.71,3.71,0,0,0-5,2.24c-.75,2.08.21,4.63,1.34,6.38C73.83,152.66,78.49,155.59,78.49,155.59Z" transform="translate(-13 -2.29)"/><path class="cls-3" d="M287,287c0,.14-61.34.26-137,.26S13,287.12,13,287s61.33-.26,137-.26S287,286.83,287,287Z" transform="translate(-13 -2.29)"/><circle class="cls-5" cx="166.09" cy="101.63" r="42.61"/><path class="cls-6" d="M228.94,2.29h-99.7a15.86,15.86,0,0,0-15.85,15.86V237.8a15.86,15.86,0,0,0,15.85,15.86h99.7a15.86,15.86,0,0,0,15.85-15.86V18.15A15.86,15.86,0,0,0,228.94,2.29Zm11.57,26v208.1c0,7-6.12,12.78-13.61,12.78H131.28c-7.49,0-13.61-5.75-13.61-12.78V19.61c0-7,6.12-12.78,13.61-12.78h20.48a3.67,3.67,0,0,1,3.77,3.53v2.51a4.58,4.58,0,0,0,4.71,4.42h37.7a4.59,4.59,0,0,0,4.71-4.42V10.36a3.66,3.66,0,0,1,3.77-3.53H226.9c7.49,0,13.61,5.75,13.61,12.78Z" transform="translate(-13 -2.29)"/><rect class="cls-7" x="137.27" y="76.21" width="57.63" height="76.78" rx="6.49"/><polyline class="cls-8" points="150.93 101.96 160.78 112.45 183.36 94.15"/><rect class="cls-3" x="144.17" y="82.84" width="43.28" height="2.39"/><rect class="cls-3" x="141.36" y="120.11" width="43.28" height="2.39"/><rect class="cls-3" x="141.36" y="125.12" width="43.28" height="2.39"/><rect class="cls-3" x="141.36" y="130.08" width="43.28" height="2.39"/><rect class="cls-3" x="144.17" y="89.29" width="31.14" height="2.39"/><path class="cls-9" d="M239,77.63a11.69,11.69,0,0,1,12.4-9.88l.61,0c6.48.86,9.38,6.84,8.34,13.3L258.11,104l-.11,4.73-15.44,1.4.33-10s-6.19-1.43-5.81-7.69C237.26,89.42,238.14,83.23,239,77.63Z" transform="translate(-13 -2.29)"/><path class="cls-10" d="M242.84,100.13a15.23,15.23,0,0,0,8.37-1.8s-2.17,4.51-8.38,3.5Z" transform="translate(-13 -2.29)"/><path class="cls-11" d="M241.43,83.87a.9.9,0,0,0,.8,1,.86.86,0,0,0,1-.74.89.89,0,0,0-.79-1A.87.87,0,0,0,241.43,83.87Z" transform="translate(-13 -2.29)"/><path class="cls-11" d="M240.13,80.79c.1.12.82-.33,1.78-.26s1.63.61,1.74.5,0-.27-.33-.52a2.51,2.51,0,0,0-1.39-.54,2.36,2.36,0,0,0-1.42.35C240.2,80.53,240.08,80.73,240.13,80.79Z" transform="translate(-13 -2.29)"/><path class="cls-11" d="M250.45,84.73a.88.88,0,0,0,.79,1,.86.86,0,0,0,1-.74.89.89,0,0,0-.79-1A.85.85,0,0,0,250.45,84.73Z" transform="translate(-13 -2.29)"/><path class="cls-11" d="M249.57,81.65c.1.13.82-.32,1.78-.25s1.63.6,1.74.49,0-.26-.33-.51a2.51,2.51,0,0,0-1.39-.54,2.3,2.3,0,0,0-1.42.35C249.64,81.39,249.52,81.6,249.57,81.65Z" transform="translate(-13 -2.29)"/><path class="cls-11" d="M245.56,88.53a6.5,6.5,0,0,0-1.54-.39c-.24,0-.47-.11-.5-.28a1.22,1.22,0,0,1,.22-.72l.86-1.82a33.36,33.36,0,0,0,2-4.77,30.9,30.9,0,0,0-2.37,4.6L243.39,87a1.39,1.39,0,0,0-.2,1,.6.6,0,0,0,.38.38,1.39,1.39,0,0,0,.41.09A6.21,6.21,0,0,0,245.56,88.53Z" transform="translate(-13 -2.29)"/><path class="cls-11" d="M248.34,89.4c-.15,0-.23,1-1.18,1.7s-2,.48-2.07.63.24.22.7.26a2.64,2.64,0,0,0,1.73-.46,2.25,2.25,0,0,0,.92-1.43C248.51,89.67,248.42,89.4,248.34,89.4Z" transform="translate(-13 -2.29)"/><path class="cls-11" d="M249.6,77.87c.07.26,1,.21,2.16.43s2,.59,2.18.37-.07-.37-.42-.65a3.62,3.62,0,0,0-1.58-.68,3.67,3.67,0,0,0-1.72.07C249.79,77.55,249.57,77.74,249.6,77.87Z" transform="translate(-13 -2.29)"/><path class="cls-11" d="M240.69,78c.15.23.83,0,1.63.1s1.46.25,1.63,0,0-.33-.29-.56a2.39,2.39,0,0,0-2.63-.11C240.73,77.7,240.62,77.92,240.69,78Z" transform="translate(-13 -2.29)"/><path class="cls-9" d="M258.91,87.11a1.71,1.71,0,0,1,2-1.51c1.16.2,2.41,1,2.15,3.36-.44,4.27-4.64,2.94-4.63,2.82S258.71,88.89,258.91,87.11Z" transform="translate(-13 -2.29)"/><path class="cls-10" d="M259.49,90.27s.06.06.18.13a.76.76,0,0,0,.56.07,1.85,1.85,0,0,0,1-1.56,2.59,2.59,0,0,0-.09-1.09.9.9,0,0,0-.5-.63.38.38,0,0,0-.46.16c-.07.11-.05.2-.08.21s-.08-.09,0-.26a.51.51,0,0,1,.2-.25.54.54,0,0,1,.42-.06,1,1,0,0,1,.71.74,2.58,2.58,0,0,1,.13,1.22,2,2,0,0,1-1.28,1.73.81.81,0,0,1-.67-.19C259.48,90.37,259.47,90.27,259.49,90.27Z" transform="translate(-13 -2.29)"/><path class="cls-12" d="M262.33,82.75c-.35,1.23-.22,3.26-1.32,3-2.17-.54-1.65,3.91-2.69,3.47s-1.93-1.7-2-4.43c-.08-3.48,1.32-6-.05-10a5.28,5.28,0,0,0-4.39-2.73,5.37,5.37,0,0,0-4.62,2.45c-.19-1.22-.78-3-1.86-3.63a3.14,3.14,0,0,0-3.45.29,2.54,2.54,0,0,0-.46,3.32,1.23,1.23,0,0,1-1.36-.49,2.05,2.05,0,0,0,.54,1.56,1.91,1.91,0,0,1-1.1-.77c.11.5.21,1,.32,1.51-1.83,0-3.62-1.73-4.13-3.3a8.17,8.17,0,0,1,1.16-6.93,7.54,7.54,0,0,1,6.24-3.61A5.81,5.81,0,0,1,248.75,66a8.08,8.08,0,0,1,6.74-.72,5.84,5.84,0,0,1,3.34,4.64,3.49,3.49,0,0,1,3.46.68l.24.2A5.21,5.21,0,0,1,264,75.61c-.13.7-.37,1.42-.51,2C263.1,79.25,262.33,82.75,262.33,82.75Z" transform="translate(-13 -2.29)"/><path class="cls-13" d="M239.84,73.89s-.05,0-.14-.11a2.59,2.59,0,0,1-.36-.4,3.61,3.61,0,0,1-.72-1.81,3.49,3.49,0,0,1,.85-2.74,3.77,3.77,0,0,1,3.27-1.24,4.24,4.24,0,0,1,1.73.68,6,6,0,0,1,1.28,1.17A6.82,6.82,0,0,1,247.06,72a6.61,6.61,0,0,1,.21,2c0,.23,0,.41-.05.53a1.32,1.32,0,0,1,0,.18,8.12,8.12,0,0,0-.25-2.63,6.87,6.87,0,0,0-1.32-2.51,4.77,4.77,0,0,0-2.9-1.77,3.61,3.61,0,0,0-3.11,1.16,3.39,3.39,0,0,0-.85,2.61,3.77,3.77,0,0,0,.65,1.79C239.66,73.71,239.86,73.88,239.84,73.89Z" transform="translate(-13 -2.29)"/><path class="cls-13" d="M239,75.81a.72.72,0,0,1-.13-.21c-.08-.14-.2-.35-.34-.62a12.85,12.85,0,0,1-1-2.38,6.9,6.9,0,0,1-.29-1.78,5.17,5.17,0,0,1,.38-2,3.88,3.88,0,0,1,1.46-1.74,4.78,4.78,0,0,1,2.32-.77,5.89,5.89,0,0,1,2.42.38,7.63,7.63,0,0,1,2,1.13A6,6,0,0,1,248,70.93a4.38,4.38,0,0,1-.13,2.57,4.45,4.45,0,0,1-.32.63,1.5,1.5,0,0,1-.15.19,5.76,5.76,0,0,0,.4-.85,4.35,4.35,0,0,0,.07-2.51,5.91,5.91,0,0,0-2.14-3,6.53,6.53,0,0,0-4.28-1.46,4.65,4.65,0,0,0-2.24.73,3.73,3.73,0,0,0-1.4,1.66,4.78,4.78,0,0,0-.38,2,7.15,7.15,0,0,0,.25,1.74,15.07,15.07,0,0,0,1,2.39l.3.63A2,2,0,0,1,239,75.81Z" transform="translate(-13 -2.29)"/><path class="cls-13" d="M260.82,80s.4-.32.92-.94A6.29,6.29,0,0,0,263,73.16c-.23-.78-.5-1.21-.46-1.23a1.74,1.74,0,0,1,.2.3,6.33,6.33,0,0,1,.39.89,6,6,0,0,1-1.25,6,6.26,6.26,0,0,1-.71.66A1.37,1.37,0,0,1,260.82,80Z" transform="translate(-13 -2.29)"/><path class="cls-13" d="M256.93,79.87s.21-.1.55-.33a3,3,0,0,0,1.08-1.3l.18-.41,0,.45c-.05.6-.12,1.29-.18,2l-.14-.08a5.46,5.46,0,0,0,1.39-1.37,5.39,5.39,0,0,0,1-2.25,5.85,5.85,0,0,0,0-2,7.78,7.78,0,0,0-.61-1.77s0,0,.08.11a3.06,3.06,0,0,1,.2.33,5.5,5.5,0,0,1,.46,1.31,5.58,5.58,0,0,1,0,2.06,5.46,5.46,0,0,1-1,2.33,5.85,5.85,0,0,1-1.45,1.41l-.16.11,0-.19c.08-.75.15-1.45.22-2l.14,0a3.13,3.13,0,0,1-1.17,1.31,2.36,2.36,0,0,1-.44.21Z" transform="translate(-13 -2.29)"/><path class="cls-13" d="M255.74,70.86a3.92,3.92,0,0,0-1-1.23,3.69,3.69,0,0,0-1.53-.72,3.8,3.8,0,0,0-2.06.19,4.47,4.47,0,0,0-1.73,1.16,5.28,5.28,0,0,0-.92,1.45,10.47,10.47,0,0,0-.47,1.53,1.63,1.63,0,0,1,0-.44,5.53,5.53,0,0,1,.31-1.14,5.11,5.11,0,0,1,.93-1.51,4.37,4.37,0,0,1,1.78-1.23,4,4,0,0,1,2.16-.18,3.66,3.66,0,0,1,1.59.79,3.24,3.24,0,0,1,.75.92,2.7,2.7,0,0,1,.13.3C255.74,70.82,255.75,70.86,255.74,70.86Z" transform="translate(-13 -2.29)"/><path class="cls-13" d="M254.74,67.6a6.32,6.32,0,0,0-1.17-.46,4.29,4.29,0,0,0-2.94.42,5.29,5.29,0,0,0-2.08,2.16c-.37.69-.49,1.17-.52,1.16a1,1,0,0,1,.06-.34,6,6,0,0,1,.34-.88,5.19,5.19,0,0,1,2.11-2.27A4.19,4.19,0,0,1,253.6,67a3,3,0,0,1,.87.37C254.66,67.51,254.75,67.59,254.74,67.6Z" transform="translate(-13 -2.29)"/><path class="cls-11" d="M241,269.31l.43,11.71s-11.77,4.38-11.9,6.55l22.75,0,.07-18.28Z" transform="translate(-13 -2.29)"/><path class="cls-14" d="M248.46,280a.93.93,0,0,1,.64,1.06.89.89,0,0,1-1,.65,1,1,0,0,1-.68-1.13.93.93,0,0,1,1.16-.55" transform="translate(-13 -2.29)"/><path class="cls-11" d="M252.28,287.55l-.07-1.84-21.78.7s-1,.45-.9,1.16Z" transform="translate(-13 -2.29)"/><path class="cls-7" d="M241.06,280.91c0,.11.56.16,1.1.52s.84.82.94.78-.06-.69-.73-1.11S241,280.81,241.06,280.91Z" transform="translate(-13 -2.29)"/><path class="cls-7" d="M238.67,281.9c0,.11.46.29.84.76s.48,1,.59,1,.18-.63-.3-1.2S238.68,281.79,238.67,281.9Z" transform="translate(-13 -2.29)"/><path class="cls-7" d="M237.32,284.75c.1,0,.26-.53,0-1.14s-.81-.85-.85-.75.27.41.5.92S237.21,284.74,237.32,284.75Z" transform="translate(-13 -2.29)"/><path class="cls-7" d="M241.26,278.23c0,.1.55-.05,1.18,0s1.12.24,1.17.14-.41-.49-1.15-.53S241.2,278.14,241.26,278.23Z" transform="translate(-13 -2.29)"/><path class="cls-11" d="M267.09,270.38l.91,14.16-2.51,11.4a1.46,1.46,0,0,0,1.2,1.75h0a1.44,1.44,0,0,0,1.26-.43c2.08-2.16,9.68-10.16,9.56-11.19-.15-1.19,0-15,0-15Z" transform="translate(-13 -2.29)"/><path class="cls-11" d="M266.69,297.69l10.78-12.58,0,.61a2.19,2.19,0,0,1-.46,1.43c-.85,1.1-3.28,4.07-9,10.11a1.46,1.46,0,0,1-1.3.43Z" transform="translate(-13 -2.29)"/><g class="cls-15"><path class="cls-7" d="M274.37,280.66a.88.88,0,0,0-.19,1.16.83.83,0,0,0,1.14.2.91.91,0,0,0,.2-1.22.87.87,0,0,0-1.21-.08" transform="translate(-13 -2.29)"/></g><path class="cls-7" d="M269.68,291.36a4.53,4.53,0,0,0-1.29-1.05,4.23,4.23,0,0,0-1.65-.24s.17-.16.5-.22a2.25,2.25,0,0,1,1.27.18,2.16,2.16,0,0,1,1,.83C269.68,291.14,269.71,291.35,269.68,291.36Z" transform="translate(-13 -2.29)"/><path class="cls-7" d="M268.74,293.3a11.59,11.59,0,0,0-1.28-.56c-.73-.19-1.36,0-1.39-.12a1.62,1.62,0,0,1,1.47-.18C268.39,292.65,268.82,293.26,268.74,293.3Z" transform="translate(-13 -2.29)"/><path class="cls-7" d="M271.46,288.85a15.27,15.27,0,0,0-1.92-1,15.94,15.94,0,0,0-2.12-.41,3.26,3.26,0,0,1,2.22.11A3.33,3.33,0,0,1,271.46,288.85Z" transform="translate(-13 -2.29)"/><path class="cls-7" d="M271.54,284.53c0,.08-.83-.21-1.85-.21s-1.82.29-1.85.2a3.58,3.58,0,0,1,3.7,0Z" transform="translate(-13 -2.29)"/><path class="cls-7" d="M271.38,280.37a6.94,6.94,0,0,0-1.92-.27,7.16,7.16,0,0,0-1.86.55s.12-.21.44-.41a3.12,3.12,0,0,1,1.39-.45,3.2,3.2,0,0,1,1.45.23C271.23,280.17,271.4,280.33,271.38,280.37Z" transform="translate(-13 -2.29)"/><path class="cls-7" d="M269.45,279.31a1.13,1.13,0,0,1,0-.53,3.85,3.85,0,0,1,.37-1.43,1.64,1.64,0,0,1,.67-.81.58.58,0,0,1,.67.1,1,1,0,0,1,.25.63,2.06,2.06,0,0,1-1.72,2,2.37,2.37,0,0,1-2.39-1.15.8.8,0,0,1-.07-.68.57.57,0,0,1,.59-.33,2.06,2.06,0,0,1,1,.45,4.17,4.17,0,0,1,1,1.06c.19.29.26.47.24.48a6.79,6.79,0,0,0-1.38-1.36,1.77,1.77,0,0,0-.84-.37.3.3,0,0,0-.32.17.58.58,0,0,0,.07.45,2.15,2.15,0,0,0,2.09,1,1.79,1.79,0,0,0,1.48-1.66.67.67,0,0,0-.16-.45.32.32,0,0,0-.36-.06,1.57,1.57,0,0,0-.59.68A5.49,5.49,0,0,0,269.45,279.31Z" transform="translate(-13 -2.29)"/><path class="cls-11" d="M231,170.3a50.23,50.23,0,0,0-1.44,14.78c.17,3.15,10.29,94.23,10.29,94.23l12.89-1.16L250.54,193l.54.48s7.67,35.82,8.18,41.49c.46,5.09,6.58,46,6.58,46l12.5-.6-2.83-51.7-3.79-46.93-1.52-13.67Z" transform="translate(-13 -2.29)"/><path class="cls-13" d="M253,185.65a3.08,3.08,0,0,1-.61.33,6.79,6.79,0,0,1-1.79.58,3.92,3.92,0,0,1-1.32,0,2.77,2.77,0,0,1-1.37-.7,3.24,3.24,0,0,1-.8-1.48,15.75,15.75,0,0,1-.34-1.74c-.41-2.37-.67-4.53-.81-6.1-.07-.78-.12-1.42-.14-1.86a3.11,3.11,0,0,1,0-.69,3.32,3.32,0,0,1,.12.68c.06.5.14,1.12.23,1.85.2,1.56.49,3.71.9,6.07a5.65,5.65,0,0,0,1,3.07,2.94,2.94,0,0,0,2.46.7,8.09,8.09,0,0,0,1.78-.47A3.72,3.72,0,0,1,253,185.65Z" transform="translate(-13 -2.29)"/><path class="cls-13" d="M249,174.46s.09-.07.29-.08a1.27,1.27,0,0,1,.8.27,1.45,1.45,0,0,1,.58,1.12,1.43,1.43,0,0,1-2.44.86,1.47,1.47,0,0,1-.25-1.24,1.28,1.28,0,0,1,.45-.71c.17-.12.28-.14.29-.12a1.57,1.57,0,0,0-.53.87,1.27,1.27,0,0,0,.25,1,1.17,1.17,0,0,0,1.95-.68,1.25,1.25,0,0,0-.44-1A1.52,1.52,0,0,0,249,174.46Z" transform="translate(-13 -2.29)"/><path class="cls-13" d="M271.54,180.88a1.4,1.4,0,0,1-.49.07,8.86,8.86,0,0,1-1.34,0,12.88,12.88,0,0,1-4.3-1.1,13.17,13.17,0,0,1-3.68-2.47,9.5,9.5,0,0,1-.9-1c-.2-.25-.3-.39-.28-.41s.49.51,1.33,1.25a15.14,15.14,0,0,0,3.66,2.36,14.85,14.85,0,0,0,4.19,1.16C270.84,180.85,271.54,180.83,271.54,180.88Z" transform="translate(-13 -2.29)"/><path class="cls-13" d="M236.82,174.44a6.33,6.33,0,0,1-.78,1.45,16.51,16.51,0,0,1-2.56,3,15.87,15.87,0,0,1-3.21,2.33,6.17,6.17,0,0,1-1.49.67,12.84,12.84,0,0,1,1.39-.86,20.08,20.08,0,0,0,3.11-2.36,19.4,19.4,0,0,0,2.58-2.93A16.21,16.21,0,0,1,236.82,174.44Z" transform="translate(-13 -2.29)"/><path class="cls-9" d="M224,123c-1.92,5.59-1.7,5.11-5.29,21.8-.66,3.08.51,7.89,3.29,9.38s7.71-.15,9.36-2.83l2.66-25.19Z" transform="translate(-13 -2.29)"/><path class="cls-16" d="M270.21,153.26,270.14,140l.05-1.3,13.47-3.15s-2.64-8.71-5.07-18.07c-1.4-5.41-6.06-8.12-7.19-8.71h0l-.24-.11h0l-13-5.49c-2.62,2.79-6.43,5-10.11,4a11.5,11.5,0,0,1-5.33-3.64l-8.74,3h0a11.3,11.3,0,0,0-6,4.9c-1.83,3.23-7.67,18.06-7.77,18.39l10.82,1s-1.92,35.1-1.24,41.37c0,0,2.63,1.82,9.26,2.13,13.45.63,33.46-.32,33.46-.32-.32-2-.65-5.41-.83-7.12Z" transform="translate(-13 -2.29)"/><path class="cls-11" d="M231.39,117.66c.06,0-.23,8.37-.64,18.69S230,155,229.91,155s.23-8.37.64-18.69S231.34,117.66,231.39,117.66Z" transform="translate(-13 -2.29)"/><path class="cls-11" d="M268.73,120c-.1,0,.18,7.43.61,16.59s.86,16.57,1,16.57-.17-7.43-.6-16.59S268.83,120,268.73,120Z" transform="translate(-13 -2.29)"/><path class="cls-9" d="M283.72,141.86c-.44-3.29-.8-6.21-.8-6.21l-10.77,2.5.46,1.74-8.33-8.46-1.32.11-4.19,4.36s3.65,7.72,5.78,10.72c2.76,3.91,7.11,9.87,13.06,9.37C283.11,155.53,284.51,147.77,283.72,141.86Z" transform="translate(-13 -2.29)"/><path class="cls-10" d="M277.89,143.83a9.68,9.68,0,0,0-2.37-2.17,9.44,9.44,0,0,0-2.82-1.56c0,.09,1.19.81,2.61,1.84S277.82,143.9,277.89,143.83Z" transform="translate(-13 -2.29)"/><path class="cls-9" d="M249.74,120.39l3.7-1.89,4.8,1.53,2.38,2.19,3.66,9.21,2.93,3.71L262,141.87l-3.27-6a10.23,10.23,0,0,1-3.88-3c-1.11-1.75-1.62-2.7-1.62-2.7s-1.6-.77-1.9-1.51a3.81,3.81,0,0,1-.28-1.32l.81-1.18a2.92,2.92,0,0,1,.25-1.51,1.48,1.48,0,0,1,.64-.51s-.24-1,.13-1.35a11.57,11.57,0,0,1,2.22-1h0l-1.62-.92S249.94,122,249.74,120.39Z" transform="translate(-13 -2.29)"/><path class="cls-10" d="M255.24,123.74s-.57.06-1.25.2-1.2.36-1.22.32a2.68,2.68,0,0,1,1.19-.47A2.83,2.83,0,0,1,255.24,123.74Z" transform="translate(-13 -2.29)"/><path class="cls-10" d="M254.13,125.8a9.14,9.14,0,0,1-1.07.14c-.59.09-1.05.23-1.06.19a2.18,2.18,0,0,1,1-.35A2.41,2.41,0,0,1,254.13,125.8Z" transform="translate(-13 -2.29)"/><path class="cls-10" d="M252.56,129s-.07-.21-.07-.47,0-.47.09-.47.08.21.07.47S252.61,129,252.56,129Z" transform="translate(-13 -2.29)"/><path class="cls-10" d="M253.27,130a2.16,2.16,0,0,0-.34-.85,2,2,0,0,0-.75-.54s.12,0,.3,0a1.28,1.28,0,0,1,.84,1.07C253.33,129.93,253.29,130,253.27,130Z" transform="translate(-13 -2.29)"/><path class="cls-10" d="M256.16,127.09a2.35,2.35,0,0,0-.64-.64,2.25,2.25,0,0,0-.88-.21s.1-.07.28-.08a1.18,1.18,0,0,1,.68.16,1.21,1.21,0,0,1,.49.49C256.17,127,256.18,127.08,256.16,127.09Z" transform="translate(-13 -2.29)"/><path class="cls-10" d="M257.85,125s-.19-.36-.59-.62a2.52,2.52,0,0,0-.81-.27s.1-.06.27-.06a1.21,1.21,0,0,1,.62.2,1.28,1.28,0,0,1,.45.49C257.86,124.93,257.87,125,257.85,125Z" transform="translate(-13 -2.29)"/><path class="cls-10" d="M259,124a2.31,2.31,0,0,1,0-.32,1.44,1.44,0,0,0-.27-.68,1.41,1.41,0,0,0-.57-.45c-.17-.08-.3-.11-.29-.13s.13,0,.33,0a1.36,1.36,0,0,1,.66.47,1.26,1.26,0,0,1,.25.76C259.05,123.92,259,124,259,124Z" transform="translate(-13 -2.29)"/><path class="cls-10" d="M257.41,121.63c0,.05-.77.07-1.71.21a15.2,15.2,0,0,0-1.66.43,3.74,3.74,0,0,1,1.64-.59,7.34,7.34,0,0,1,1.22-.09A1.53,1.53,0,0,1,257.41,121.63Z" transform="translate(-13 -2.29)"/><g class="cls-17"><path d="M246.87,142.43a6.62,6.62,0,0,0-.91-3.07c-1.08-1.53-3.21-1.85-5.08-1.76s-3.81.46-5.56-.18L230.07,153a7.76,7.76,0,0,0,4.74-3.45,8.34,8.34,0,0,1,1.73-2.5c1.12-.86,2.67-.74,4.08-.75a16.48,16.48,0,0,0,4.36-.64,3,3,0,0,0,1.6-.91A3.23,3.23,0,0,0,246.87,142.43Z" transform="translate(-13 -2.29)"/></g><path class="cls-11" d="M233.36,124.19,235,141.53a2.41,2.41,0,0,0,1.07,2l10.52-.22a4.12,4.12,0,0,0,.8-3l-1.16-16.6c-.07-1-.45-1.71-.9-1.72l-11.07-.26C233.68,121.76,233.24,123,233.36,124.19Z" transform="translate(-13 -2.29)"/><path class="cls-9" d="M231.83,127.67a1.52,1.52,0,0,1,0-1.88,2.36,2.36,0,0,1,1.81-.8,5.07,5.07,0,0,1,2,.46,13.44,13.44,0,0,1,2.22,1.17A2.12,2.12,0,0,1,239,128c.08.58-.57,1.24-1.07.93a2.49,2.49,0,0,1,1.41,1.76c.09.75-.32,1.13-1,1.33a1.11,1.11,0,0,1,.61,1.44,1.26,1.26,0,0,1-1.61.45,3.66,3.66,0,0,1-1.37-1.2,4.24,4.24,0,0,1,.19,2.64c-1.57-.58-3.12-2.32-2.65-4a2.24,2.24,0,0,1-.63-2.68,2.24,2.24,0,0,1-1.27-1.87" transform="translate(-13 -2.29)"/><path class="cls-9" d="M231.65,126.16l-.12,7.41-1.92,2.9-8.82,7.88s1.31,10.71,5.29,9.54,4.94-1.93,7.29-6.25c1.26-2.32,2-6.08,2.76-8.24.43-1.27.06-5.35.06-5.35Z" transform="translate(-13 -2.29)"/><path class="cls-10" d="M238.24,132a7,7,0,0,1-.67-.54,4.52,4.52,0,0,0-1.78-1,2.57,2.57,0,0,0-1.1,0,2.1,2.1,0,0,0-.81.38,2.56,2.56,0,0,0-.54.65.57.57,0,0,1,.07-.23,1.57,1.57,0,0,1,.39-.51,2.13,2.13,0,0,1,.85-.44,2.48,2.48,0,0,1,1.18,0,4.14,4.14,0,0,1,1.82,1A3.33,3.33,0,0,1,238.24,132Z" transform="translate(-13 -2.29)"/><path class="cls-10" d="M238.13,129a3.69,3.69,0,0,1-.82-.37c-.25-.12-.54-.27-.87-.4a7.14,7.14,0,0,0-1.13-.32,3.28,3.28,0,0,0-1.16,0,2.12,2.12,0,0,0-.86.35,2.32,2.32,0,0,0-.58.65.57.57,0,0,1,.07-.23,1.67,1.67,0,0,1,.43-.52,2.13,2.13,0,0,1,.91-.41,3.15,3.15,0,0,1,1.22,0,6,6,0,0,1,1.15.34,6.48,6.48,0,0,1,.88.45A5.71,5.71,0,0,1,238.13,129Z" transform="translate(-13 -2.29)"/><path class="cls-10" d="M221.74,148.61a7.31,7.31,0,0,1-.11-2.76,8.39,8.39,0,0,1,1-2.81,13.7,13.7,0,0,1,2.33-2.85c.95-.92,1.93-1.72,2.8-2.47a27.56,27.56,0,0,0,2.22-2.1,12.22,12.22,0,0,0,1.29-1.62,4.18,4.18,0,0,0,.37-.66s-.17.21-.46.59a16.72,16.72,0,0,1-1.35,1.55c-.6.61-1.37,1.3-2.25,2s-1.86,1.53-2.82,2.46a13.15,13.15,0,0,0-2.36,2.93,7.92,7.92,0,0,0-1,2.91,5.86,5.86,0,0,0,.06,2.07,2.9,2.9,0,0,0,.17.54C221.7,148.55,221.73,148.61,221.74,148.61Z" transform="translate(-13 -2.29)"/><rect class="cls-18" x="116.38" y="187.17" width="100.14" height="6.81"/><rect class="cls-18" x="128.81" y="200.45" width="81.7" height="6.81"/><rect class="cls-18" x="116.38" y="213.72" width="100.52" height="6.81"/><rect class="cls-18" x="128.81" y="227" width="81.7" height="6.81"/></g></g></g></svg>