<?xml version="1.0" encoding="utf-8"?>
<!-- Generator: Adobe Illustrator 26.3.1, SVG Export Plug-In . SVG Version: 6.00 Build 0)  -->
<svg version="1.1" id="Layer_1" xmlns="http://www.w3.org/2000/svg" xmlns:xlink="http://www.w3.org/1999/xlink" x="0px" y="0px"
	 viewBox="0 0 200 200" style="enable-background:new 0 0 200 200;" xml:space="preserve">
<style type="text/css">
	.st0{fill:#0067FC;}
</style>
<g>
	<g>
		<path class="st0" d="M115.6,83.6H93c-0.7,0-1.2-0.6-1.2-1.2s0.6-1.2,1.2-1.2h22.6c0.7,0,1.2,0.6,1.2,1.2S116.3,83.6,115.6,83.6z"
			/>
	</g>
	<g>
		<path class="st0" d="M108.6,90.7H93c-0.7,0-1.2-0.6-1.2-1.2s0.6-1.2,1.2-1.2h15.6c0.7,0,1.2,0.6,1.2,1.2S109.3,90.7,108.6,90.7z"
			/>
	</g>
	<g>
		<path class="st0" d="M117.4,138.9H82.7c-3.3,0-5.9-2.7-5.9-5.9V67.8c0-3.3,2.7-5.9,5.9-5.9h34.7c3.3,0,5.9,2.7,5.9,5.9v65.1
			C123.3,136.2,120.7,138.9,117.4,138.9z M82.7,64.1c-2.1,0-3.7,1.7-3.7,3.7v65.1c0,2.1,1.7,3.7,3.7,3.7h34.7c2.1,0,3.7-1.7,3.7-3.7
			V67.8c0-2.1-1.7-3.7-3.7-3.7H82.7z"/>
	</g>
	<g>
		<circle class="st0" cx="100.1" cy="132.7" r="2.1"/>
	</g>
	<g>
		<path class="st0" d="M105.7,69.5H94.4c-0.6,0-1.2-0.5-1.2-1.2l0,0c0-0.6,0.5-1.2,1.2-1.2h11.3c0.6,0,1.2,0.5,1.2,1.2l0,0
			C106.9,68.9,106.4,69.5,105.7,69.5z"/>
	</g>
	<g>
		<path class="st0" d="M100.1,173.1c-40.1,0-72.7-32.6-72.7-72.7S60,27.7,100.1,27.7s72.7,32.6,72.7,72.7S140.2,173.1,100.1,173.1z
			 M100.1,31.7c-37.9,0-68.7,30.8-68.7,68.7c0,37.9,30.8,68.7,68.7,68.7c37.9,0,68.7-30.8,68.7-68.7C168.8,62.5,138,31.7,100.1,31.7
			z"/>
	</g>
	<g>
		<g>
			<path class="st0" d="M115.6,121.3H84.5c-1.3,0-2.4-1.1-2.4-2.4v-5.3c0-0.6,0.3-1.2,0.7-1.7l1.7-1.7c0.1-0.1,0.1-0.2,0-0.2
				l-1.8-2.1c-0.4-0.4-0.6-1-0.6-1.5v-4.7c0-1.3,1.1-2.4,2.4-2.4h31.1c1.3,0,2.4,1.1,2.4,2.4v5.3c0,0.6-0.3,1.2-0.7,1.7l-1.7,1.7
				c-0.1,0.1-0.1,0.2,0,0.2l1.8,2.1c0.4,0.4,0.6,1,0.6,1.5v4.7C118,120.2,116.9,121.3,115.6,121.3z M84.5,101.5
				c-0.1,0-0.2,0.1-0.2,0.2v4.7c0,0,0,0.1,0,0.1l1.8,2.1c0.8,0.9,0.8,2.3-0.1,3.2l-1.7,1.7c0,0,0,0.1,0,0.1v5.3
				c0,0.1,0.1,0.2,0.2,0.2h31.1c0.1,0,0.2-0.1,0.2-0.2v-4.7c0,0,0-0.1,0-0.1l-1.8-2.1c-0.8-0.9-0.8-2.3,0.1-3.2l1.7-1.7
				c0,0,0-0.1,0-0.1v-5.3c0-0.1-0.1-0.2-0.2-0.2H84.5z"/>
		</g>
		<g>
			<path class="st0" d="M100.6,107.2H89.2c-0.6,0-1.1-0.5-1.1-1.1s0.5-1.1,1.1-1.1h11.4c0.6,0,1.1,0.5,1.1,1.1
				S101.2,107.2,100.6,107.2z"/>
		</g>
		<g>
			<path class="st0" d="M100.6,111.5H89.2c-0.6,0-1.1-0.5-1.1-1.1s0.5-1.1,1.1-1.1h11.4c0.6,0,1.1,0.5,1.1,1.1
				S101.2,111.5,100.6,111.5z"/>
		</g>
		<g>
			<path class="st0" d="M100.6,115.7H89.2c-0.6,0-1.1-0.5-1.1-1.1s0.5-1.1,1.1-1.1h11.4c0.6,0,1.1,0.5,1.1,1.1
				S101.2,115.7,100.6,115.7z"/>
		</g>
		<g>
			<path class="st0" d="M111.9,107.2h-2.2c-0.6,0-1.1-0.5-1.1-1.1s0.5-1.1,1.1-1.1h2.2c0.6,0,1.1,0.5,1.1,1.1
				S112.5,107.2,111.9,107.2z"/>
		</g>
		<g>
			<path class="st0" d="M111.9,111.5h-2.2c-0.6,0-1.1-0.5-1.1-1.1s0.5-1.1,1.1-1.1h2.2c0.6,0,1.1,0.5,1.1,1.1
				S112.5,111.5,111.9,111.5z"/>
		</g>
		<g>
			<path class="st0" d="M111.9,115.7h-2.2c-0.6,0-1.1-0.5-1.1-1.1s0.5-1.1,1.1-1.1h2.2c0.6,0,1.1,0.5,1.1,1.1
				S112.5,115.7,111.9,115.7z"/>
		</g>
		<g>
			<path class="st0" d="M105.1,121.3c-0.6,0-1.1-0.5-1.1-1.1v-19.5c0-0.6,0.5-1.1,1.1-1.1s1.1,0.5,1.1,1.1v19.5
				C106.2,120.8,105.7,121.3,105.1,121.3z"/>
		</g>
	</g>
	<g>
		<path class="st0" d="M86.5,92.1C86.5,92.1,86.5,92.1,86.5,92.1c-0.5,0-0.8-0.2-1.1-0.6l-0.9-1.5c-0.4-0.6-0.2-1.4,0.4-1.7
			c0.5-0.3,1.2-0.2,1.6,0.3l1-1.4c0.4-0.6,1.2-0.7,1.7-0.3c0.6,0.4,0.7,1.2,0.3,1.7l-2,2.9C87.3,91.9,86.9,92.1,86.5,92.1z"/>
	</g>
	<g>
		<path class="st0" d="M86.5,85.3C86.5,85.3,86.5,85.3,86.5,85.3c-0.5,0-0.8-0.2-1.1-0.6l-0.9-1.5c-0.4-0.6-0.2-1.4,0.4-1.7
			c0.5-0.3,1.2-0.2,1.6,0.3l1-1.4c0.4-0.6,1.2-0.7,1.7-0.3c0.6,0.4,0.7,1.2,0.3,1.7l-2,2.9C87.3,85.1,86.9,85.3,86.5,85.3z"/>
	</g>
</g>
</svg>
