<?xml version="1.0" encoding="utf-8"?>
<!-- Generator: Adobe Illustrator 26.3.1, SVG Export Plug-In . SVG Version: 6.00 Build 0)  -->
<svg version="1.1" id="Layer_1" xmlns="http://www.w3.org/2000/svg" xmlns:xlink="http://www.w3.org/1999/xlink" x="0px" y="0px"
	 viewBox="0 0 200 200" style="enable-background:new 0 0 200 200;" xml:space="preserve">
<style type="text/css">
	.st0{fill:#0067FC;}
</style>
<g>
	<g>
		<g>
			<path class="st0" d="M122.1,100.7h-10c-0.7,0-1.2-0.6-1.2-1.2s0.6-1.2,1.2-1.2h10c0.7,0,1.2,0.6,1.2,1.2S122.7,100.7,122.1,100.7
				z"/>
		</g>
		<g>
			<path class="st0" d="M122.1,107.8h-10c-0.7,0-1.2-0.6-1.2-1.2s0.6-1.2,1.2-1.2h10c0.7,0,1.2,0.6,1.2,1.2S122.7,107.8,122.1,107.8
				z"/>
		</g>
		<g>
			<path class="st0" d="M118,114.8h-6c-0.7,0-1.2-0.6-1.2-1.2s0.6-1.2,1.2-1.2h6c0.7,0,1.2,0.6,1.2,1.2S118.7,114.8,118,114.8z"/>
		</g>
		<g>
			<path class="st0" d="M105.1,102.1c-0.3,0-0.6-0.1-0.9-0.4l-1.4-1.4c-0.5-0.5-0.5-1.3,0-1.8s1.3-0.5,1.8,0l0.5,0.5l1.9-1.9
				c0.5-0.5,1.3-0.5,1.8,0c0.5,0.5,0.5,1.3,0,1.8l-2.8,2.8C105.8,102,105.4,102.1,105.1,102.1z"/>
		</g>
		<g>
			<path class="st0" d="M105.1,109.2c-0.3,0-0.6-0.1-0.9-0.4l-1.4-1.4c-0.5-0.5-0.5-1.3,0-1.8s1.3-0.5,1.8,0l0.5,0.5l1.9-1.9
				c0.5-0.5,1.3-0.5,1.8,0s0.5,1.3,0,1.8l-2.8,2.8C105.8,109.1,105.4,109.2,105.1,109.2z"/>
		</g>
		<g>
			<path class="st0" d="M105.1,115.6c-0.3,0-0.6-0.1-0.9-0.4l-1.4-1.4c-0.5-0.5-0.5-1.3,0-1.8c0.5-0.5,1.3-0.5,1.8,0l0.5,0.5
				l1.9-1.9c0.5-0.5,1.3-0.5,1.8,0s0.5,1.3,0,1.8l-2.8,2.8C105.8,115.5,105.4,115.6,105.1,115.6z"/>
		</g>
	</g>
	<g>
		<g>
			<path class="st0" d="M90.6,126.6h-10c-0.7,0-1.2-0.6-1.2-1.2s0.6-1.2,1.2-1.2h10c0.7,0,1.2,0.6,1.2,1.2S91.3,126.6,90.6,126.6z"
				/>
		</g>
	</g>
	<g>
		<g>
			<path class="st0" d="M90.6,132.3h-10c-0.7,0-1.2-0.6-1.2-1.2s0.6-1.2,1.2-1.2h10c0.7,0,1.2,0.6,1.2,1.2S91.3,132.3,90.6,132.3z"
				/>
		</g>
	</g>
	<g>
		<g>
			<path class="st0" d="M118.1,75.8c-0.7,0-1.2-0.6-1.2-1.2v-4.2h-4.1c-0.7,0-1.2-0.6-1.2-1.2s0.6-1.2,1.2-1.2h5.4
				c0.7,0,1.2,0.6,1.2,1.2v5.5C119.3,75.2,118.7,75.8,118.1,75.8z"/>
		</g>
		<g>
			<path class="st0" d="M84.8,91.5c-0.7,0-1.2-0.6-1.2-1.2v-5.6c0-0.7,0.6-1.2,1.2-1.2s1.2,0.6,1.2,1.2v5.6
				C86.1,90.9,85.5,91.5,84.8,91.5z"/>
		</g>
		<g>
			<path class="st0" d="M92.9,91c-0.7,0-1.2-0.6-1.2-1.2v-2.2c0-0.7,0.6-1.2,1.2-1.2s1.2,0.6,1.2,1.2v2.2C94.1,90.5,93.6,91,92.9,91
				z"/>
		</g>
		<g>
			<path class="st0" d="M100.4,91c-0.7,0-1.2-0.6-1.2-1.2v-9.5c0-0.7,0.6-1.2,1.2-1.2c0.7,0,1.3,0.6,1.3,1.2v9.5
				C101.7,90.5,101.1,91,100.4,91z"/>
		</g>
		<g>
			<path class="st0" d="M108.9,91c-0.7,0-1.2-0.6-1.2-1.2v-7.3c0-0.7,0.6-1.2,1.2-1.2s1.2,0.6,1.2,1.2v7.3
				C110.1,90.5,109.6,91,108.9,91z"/>
		</g>
		<g>
			<path class="st0" d="M116.9,90.7c-0.7,0-1.2-0.6-1.2-1.2V78.5c0-0.7,0.6-1.2,1.2-1.2s1.2,0.6,1.2,1.2v10.9
				C118.2,90.1,117.6,90.7,116.9,90.7z"/>
		</g>
		<g>
			<path class="st0" d="M92,83.7c-0.2,0-0.4,0-0.6-0.1l-7.2-3.8c-0.6-0.3-0.8-1.1-0.5-1.7c0.3-0.6,1.1-0.8,1.7-0.5l6.4,3.3l7.8-7.4
				c0.4-0.4,0.9-0.5,1.4-0.2l7.7,3.7l7.4-7.6c0.5-0.5,1.3-0.5,1.8,0c0.5,0.5,0.5,1.3,0,1.8l-8.1,8.2c-0.4,0.4-1,0.5-1.4,0.3
				l-7.7-3.7l-7.8,7.5C92.6,83.6,92.3,83.7,92,83.7z"/>
		</g>
	</g>
	<g>
		<g>
			<path class="st0" d="M117.2,143.6h-42c-3,0-5.5-2.5-5.5-5.5V62.6c0-3,2.5-5.5,5.5-5.5H125c3,0,5.5,2.5,5.5,5.5v66.3
				c0,0.3-0.1,0.6-0.3,0.8l-12.1,13.5C117.9,143.5,117.5,143.6,117.2,143.6z M72.1,93.6v44.6c0,1.7,1.3,3,3,3h41.5l11.4-12.8V62.6
				c0-1.7-1.3-3-3-3H75.1c-1.7,0-3,1.3-3,3V93.6z"/>
		</g>
		<g>
			<path class="st0" d="M116.2,143.2c-0.7,0-1.2-0.6-1.2-1.2v-8.8c0-3,2.5-5.5,5.5-5.5h8.8c0.7,0,1.2,0.6,1.2,1.2s-0.6,1.2-1.2,1.2
				h-8.8c-1.7,0-3,1.3-3,3v8.8C117.4,142.6,116.9,143.2,116.2,143.2z"/>
		</g>
	</g>
	<g>
		<path class="st0" d="M100.1,173.1c-40.1,0-72.7-32.6-72.7-72.7S60,27.7,100.1,27.7s72.7,32.6,72.7,72.7S140.2,173.1,100.1,173.1z
			 M100.1,31.7c-37.9,0-68.7,30.8-68.7,68.7c0,37.9,30.8,68.7,68.7,68.7c37.9,0,68.7-30.8,68.7-68.7C168.8,62.5,138,31.7,100.1,31.7
			z"/>
	</g>
	<g>
		<g>
			<path class="st0" d="M86.3,116.5c-5.4,0-9.8-4.4-9.8-9.8s4.4-9.8,9.8-9.8c0.7,0,1.2,0.6,1.2,1.2v7.3h7.3c0.7,0,1.2,0.6,1.2,1.2
				C96.1,112.1,91.7,116.5,86.3,116.5z M85,99.4c-3.5,0.6-6.1,3.6-6.1,7.2c0,4,3.3,7.3,7.3,7.3c3.6,0,6.6-2.6,7.2-6.1h-7.2
				c-0.7,0-1.2-0.6-1.2-1.2V99.4z"/>
		</g>
		<g>
			<path class="st0" d="M88.3,95.8l0,8.6h8.6C96.9,99.7,93,95.8,88.3,95.8z"/>
		</g>
	</g>
	<g>
		<g>
			<g>
				<path class="st0" d="M103.7,137.5c-5.5,0-9.9-4.5-9.9-9.9s4.5-9.9,9.9-9.9c5.5,0,9.9,4.5,9.9,9.9S109.1,137.5,103.7,137.5z
					 M103.7,120.1c-4.1,0-7.4,3.3-7.4,7.4s3.3,7.4,7.4,7.4s7.4-3.3,7.4-7.4S107.8,120.1,103.7,120.1z"/>
			</g>
		</g>
		<g>
			<path class="st0" d="M103.7,128.8h-4.4c-0.7,0-1.2-0.6-1.2-1.2s0.6-1.2,1.2-1.2h3.2v-4.6c0-0.7,0.6-1.2,1.2-1.2s1.2,0.6,1.2,1.2
				v5.8C104.9,128.2,104.3,128.8,103.7,128.8z"/>
		</g>
	</g>
</g>
</svg>
