<?xml version="1.0" encoding="utf-8"?>
<!-- Generator: Adobe Illustrator 26.3.1, SVG Export Plug-In . SVG Version: 6.00 Build 0)  -->
<svg version="1.1" id="Layer_1" xmlns="http://www.w3.org/2000/svg" xmlns:xlink="http://www.w3.org/1999/xlink" x="0px" y="0px"
	 viewBox="0 0 200 200" style="enable-background:new 0 0 200 200;" xml:space="preserve">
<style type="text/css">
	.st0{fill:#0067FC;}
</style>
<g>
	<g>
		<g>
			<path class="st0" d="M117.1,143.3h-42c-3,0-5.5-2.5-5.5-5.5V62.2c0-3,2.5-5.5,5.5-5.5h49.8c3,0,5.5,2.5,5.5,5.5v66.3
				c0,0.3-0.1,0.6-0.3,0.8L118,142.9C117.8,143.1,117.5,143.3,117.1,143.3z M72.1,93.2v44.6c0,1.7,1.3,3,3,3h41.5l11.4-12.8V62.2
				c0-1.7-1.3-3-3-3H75.1c-1.7,0-3,1.3-3,3V93.2z"/>
		</g>
		<g>
			<path class="st0" d="M116.1,142.8c-0.7,0-1.2-0.6-1.2-1.2v-8.8c0-3,2.5-5.5,5.5-5.5h8.8c0.7,0,1.2,0.6,1.2,1.2s-0.6,1.2-1.2,1.2
				h-8.8c-1.7,0-3,1.3-3,3v8.8C117.4,142.3,116.8,142.8,116.1,142.8z"/>
		</g>
	</g>
	<g>
		<path class="st0" d="M107.8,75.9H82.2c-0.7,0-1.2-0.6-1.2-1.2s0.6-1.2,1.2-1.2h25.6c0.7,0,1.2,0.6,1.2,1.2S108.5,75.9,107.8,75.9z
			"/>
	</g>
	<g>
		<path class="st0" d="M100.8,80.9H82.2c-0.7,0-1.2-0.6-1.2-1.2s0.6-1.2,1.2-1.2h18.6c0.7,0,1.3,0.6,1.3,1.2S101.5,80.9,100.8,80.9z
			"/>
	</g>
	<g>
		<path class="st0" d="M92.8,128.3H82.2c-0.7,0-1.2-0.6-1.2-1.2s0.6-1.2,1.2-1.2h10.6c0.7,0,1.2,0.6,1.2,1.2S93.4,128.3,92.8,128.3z
			"/>
	</g>
	<g>
		<path class="st0" d="M100,172.7c-40.1,0-72.7-32.6-72.7-72.7S59.9,27.3,100,27.3s72.7,32.6,72.7,72.7S140.1,172.7,100,172.7z
			 M100,31.3c-37.9,0-68.7,30.8-68.7,68.7c0,37.9,30.8,68.7,68.7,68.7c37.9,0,68.7-30.8,68.7-68.7C168.7,62.1,137.9,31.3,100,31.3z"
			/>
	</g>
	<g>
		<path class="st0" d="M120.5,122.7H82.2c-0.7,0-1.2-0.6-1.2-1.2V85.8c0-0.7,0.6-1.2,1.2-1.2h38.3c0.7,0,1.2,0.6,1.2,1.2v35.7
			C121.8,122.2,121.2,122.7,120.5,122.7z M83.4,120.2h35.8V87.1H83.4V120.2z"/>
	</g>
	<g>
		<path class="st0" d="M108.7,122.7c-0.7,0-1.2-0.6-1.2-1.2V85.8c0-0.7,0.6-1.2,1.2-1.2s1.2,0.6,1.2,1.2v35.7
			C109.9,122.2,109.4,122.7,108.7,122.7z"/>
	</g>
</g>
</svg>
