<?xml version="1.0" encoding="utf-8"?>
<!-- Generator: Adobe Illustrator 26.3.1, SVG Export Plug-In . SVG Version: 6.00 Build 0)  -->
<svg version="1.1" id="Layer_1" xmlns="http://www.w3.org/2000/svg" xmlns:xlink="http://www.w3.org/1999/xlink" x="0px" y="0px"
	 viewBox="0 0 200 200" style="enable-background:new 0 0 200 200;" xml:space="preserve">
<style type="text/css">
	.st0{fill:none;stroke:#0067FC;stroke-width:2.5;stroke-linecap:round;stroke-linejoin:round;stroke-miterlimit:10;}
	.st1{fill:none;stroke:#0067FC;stroke-width:4;stroke-linecap:round;stroke-linejoin:round;stroke-miterlimit:10;}
</style>
<g>
	<g>
		<polyline class="st0" points="108,106.4 113.4,106.4 113.4,111.9 		"/>
		<line class="st0" x1="80.1" y1="127.6" x2="80.1" y2="122.1"/>
		<line class="st0" x1="88.2" y1="127.2" x2="88.2" y2="124.9"/>
		<line class="st0" x1="95.7" y1="127.2" x2="95.7" y2="117.6"/>
		<line class="st0" x1="104.2" y1="127.2" x2="104.2" y2="119.8"/>
		<line class="st0" x1="112.2" y1="126.8" x2="112.2" y2="115.9"/>
		<polyline class="st0" points="80.1,116.1 87.3,119.9 95.7,111.8 104.2,115.9 112.2,107.7 		"/>
	</g>
	<path class="st0" d="M128.7,115.5V128l-12.1,13.5h-42c-2.3,0-4.3-1.9-4.3-4.3V89.5"/>
	<path class="st0" d="M70.4,92.7v-31c0-2.3,1.9-4.3,4.3-4.3h49.8c2.3,0,4.3,1.9,4.3,4.3v28.6"/>
	<path class="st0" d="M128.7,128h-8.8c-2.3,0-4.3,1.9-4.3,4.3v8.8"/>
	<circle class="st0" cx="128.7" cy="102.9" r="12"/>
	<g>
		<polyline class="st0" points="108,106.4 113.4,106.4 113.4,111.9 		"/>
		<line class="st0" x1="80.1" y1="127.6" x2="80.1" y2="122.1"/>
		<line class="st0" x1="88.2" y1="127.2" x2="88.2" y2="124.9"/>
		<line class="st0" x1="95.7" y1="127.2" x2="95.7" y2="117.6"/>
		<line class="st0" x1="104.2" y1="127.2" x2="104.2" y2="119.8"/>
		<line class="st0" x1="112.2" y1="126.8" x2="112.2" y2="115.9"/>
		<polyline class="st0" points="80.1,116.1 87.3,119.9 95.7,111.8 104.2,115.9 112.2,107.7 		"/>
	</g>
	<g>
		<polyline class="st0" points="108,106.4 113.4,106.4 113.4,111.9 		"/>
		<line class="st0" x1="80.1" y1="127.6" x2="80.1" y2="122.1"/>
		<line class="st0" x1="88.2" y1="127.2" x2="88.2" y2="124.9"/>
		<line class="st0" x1="95.7" y1="127.2" x2="95.7" y2="117.6"/>
		<line class="st0" x1="104.2" y1="127.2" x2="104.2" y2="119.8"/>
		<line class="st0" x1="112.2" y1="126.8" x2="112.2" y2="115.9"/>
		<polyline class="st0" points="80.1,116.1 87.3,119.9 95.7,111.8 104.2,115.9 112.2,107.7 		"/>
	</g>
	<circle class="st1" cx="99.5" cy="99.5" r="70.7"/>
	<g>
		<g>
			<g id="Group_263_00000156567176262096547590000005873131262844123817_" transform="translate(-598.5 -520.001)">
				<g id="Group_259_00000148629350346111522860000016145132504743633298_" transform="translate(549.903 487.744)">
					<circle id="Ellipse_9_00000102514588979884580220000007519866492331833022_" class="st0" cx="146.6" cy="104.1" r="4.4"/>
					<path id="Path_16_00000119081997331164937320000008265592235289753737_" class="st0" d="M139.4,116.9c0-4,3.2-7.2,7.2-7.2
						c4,0,7.2,3.2,7.2,7.2l0,0"/>
				</g>
			</g>
		</g>
		<g>
			<g id="Group_263_00000076579247172713323300000014992558684048908986_" transform="translate(-598.5 -520.001)">
				<g id="Group_259_00000064334538331092791890000007411527481387904945_" transform="translate(549.903 487.744)">
					<circle id="Ellipse_9_00000113336756331952289750000001242296167672126857_" class="st0" cx="160.2" cy="108.6" r="4.4"/>
					<path id="Path_16_00000121243351282068500740000014101847316965667477_" class="st0" d="M153,121.4c0-4,3.2-7.2,7.2-7.2
						c4,0,7.2,3.2,7.2,7.2l0,0"/>
				</g>
			</g>
		</g>
		<g>
			<g id="Group_263_00000018940445821175341380000001643878565225228675_" transform="translate(-598.5 -520.001)">
				<g id="Group_259_00000083054253263444786170000007467870357503612033_" transform="translate(549.903 487.744)">
					<circle id="Ellipse_9_00000182512965817675072370000017920744199909259139_" class="st0" cx="133.2" cy="108.8" r="4.4"/>
					<path id="Path_16_00000168810651442406635650000014186792726770340023_" class="st0" d="M126,121.6c0-4,3.2-7.2,7.2-7.2
						c4,0,7.2,3.2,7.2,7.2l0,0"/>
				</g>
			</g>
		</g>
	</g>
	<line class="st0" x1="128.7" y1="95.6" x2="128.7" y2="103.3"/>
	<line class="st0" x1="133.5" y1="103.3" x2="128.7" y2="103.3"/>
</g>
</svg>
