<?xml version="1.0" encoding="utf-8"?>
<!-- Generator: Adobe Illustrator 26.3.1, SVG Export Plug-In . SVG Version: 6.00 Build 0)  -->
<svg version="1.1" id="Layer_1" xmlns="http://www.w3.org/2000/svg" xmlns:xlink="http://www.w3.org/1999/xlink" x="0px" y="0px"
	 viewBox="0 0 200 200" style="enable-background:new 0 0 200 200;" xml:space="preserve">
<style type="text/css">
	.st0{fill:#0067FC;}
</style>
<g>
	<g>
		<g>
			<path class="st0" d="M117.2,143.6h-42c-3,0-5.5-2.5-5.5-5.5V62.6c0-3,2.5-5.5,5.5-5.5H125c3,0,5.5,2.5,5.5,5.5v66.3
				c0,0.3-0.1,0.6-0.3,0.8l-12.1,13.5C117.9,143.5,117.5,143.6,117.2,143.6z M72.1,93.6v44.6c0,1.7,1.3,3,3,3h41.5l11.4-12.8V62.6
				c0-1.7-1.3-3-3-3H75.1c-1.7,0-3,1.3-3,3V93.6z"/>
		</g>
		<g>
			<path class="st0" d="M116.2,143.2c-0.7,0-1.2-0.6-1.2-1.2v-8.8c0-3,2.5-5.5,5.5-5.5h8.8c0.7,0,1.2,0.6,1.2,1.2s-0.6,1.2-1.2,1.2
				h-8.8c-1.7,0-3,1.3-3,3v8.8C117.4,142.6,116.9,143.2,116.2,143.2z"/>
		</g>
	</g>
	<g>
		<g>
			<g>
				<path class="st0" d="M110,102c-4.8,0-8.7-3.9-8.7-8.7s3.9-8.7,8.7-8.7s8.7,3.9,8.7,8.7S114.8,102,110,102z M110,87.2
					c-3.4,0-6.2,2.8-6.2,6.2s2.8,6.2,6.2,6.2s6.2-2.8,6.2-6.2S113.4,87.2,110,87.2z"/>
			</g>
		</g>
		<g>
			<path class="st0" d="M89.8,71.3c-0.7,0-1.2-0.6-1.2-1.2v-5c0-0.7,0.6-1.2,1.2-1.2s1.2,0.6,1.2,1.2v5C91,70.8,90.5,71.3,89.8,71.3
				z"/>
		</g>
		<g>
			<path class="st0" d="M110.4,71.3c-0.7,0-1.2-0.6-1.2-1.2v-5c0-0.7,0.6-1.2,1.2-1.2s1.2,0.6,1.2,1.2v5
				C111.7,70.8,111.1,71.3,110.4,71.3z"/>
		</g>
		<g>
			<path class="st0" d="M104.9,100.3H82.7c-0.7,0-1.2-0.6-1.2-1.2V70.1c0-0.7,0.6-1.2,1.2-1.2h33c0.7,0,1.2,0.6,1.2,1.2v18.4
				c0,0.7-0.6,1.2-1.2,1.2s-1.2-0.6-1.2-1.2V71.3H84v26.4h21c0.7,0,1.2,0.6,1.2,1.2S105.6,100.3,104.9,100.3z"/>
		</g>
		<g>
			<rect x="86.9" y="75.3" class="st0" width="4.5" height="4.5"/>
		</g>
		<g>
			<rect x="93.1" y="75.3" class="st0" width="4.5" height="4.5"/>
		</g>
		<g>
			<rect x="99.1" y="75.3" class="st0" width="4.5" height="4.5"/>
		</g>
		<g>
			<rect x="105.2" y="75.3" class="st0" width="4.5" height="4.5"/>
		</g>
		<g>
			<rect x="86.9" y="82.3" class="st0" width="4.5" height="4.5"/>
		</g>
		<g>
			<rect x="93.1" y="82.3" class="st0" width="4.5" height="4.5"/>
		</g>
		<g>
			<rect x="99.1" y="82.3" class="st0" width="4.5" height="4.5"/>
		</g>
		<g>
			<rect x="86.9" y="88.5" class="st0" width="4.5" height="4.5"/>
		</g>
		<g>
			<rect x="93.1" y="88.5" class="st0" width="4.5" height="4.5"/>
		</g>
		<g>
			<path class="st0" d="M109,96.6C109,96.6,109,96.6,109,96.6c-0.4,0-0.7-0.2-1-0.4l-1.5-1.7c-0.4-0.5-0.4-1.3,0.1-1.8
				c0.5-0.4,1.3-0.4,1.8,0.1l0.6,0.7l3.6-3.3c0.5-0.5,1.3-0.4,1.8,0.1c0.5,0.5,0.4,1.3-0.1,1.8l-4.5,4.2
				C109.7,96.5,109.4,96.6,109,96.6z"/>
		</g>
	</g>
	<g>
		<g>
			<path class="st0" d="M116.7,111.9c-0.7,0-1.2-0.6-1.2-1.2v-4.2h-4.1c-0.7,0-1.2-0.6-1.2-1.2s0.6-1.2,1.2-1.2h5.4
				c0.7,0,1.2,0.6,1.2,1.2v5.5C117.9,111.4,117.4,111.9,116.7,111.9z"/>
		</g>
		<g>
			<path class="st0" d="M83.4,127.7c-0.7,0-1.2-0.6-1.2-1.2v-5.6c0-0.7,0.6-1.2,1.2-1.2s1.2,0.6,1.2,1.2v5.6
				C84.7,127.1,84.1,127.7,83.4,127.7z"/>
		</g>
		<g>
			<path class="st0" d="M91.5,127.2c-0.7,0-1.2-0.6-1.2-1.2v-2.2c0-0.7,0.6-1.2,1.2-1.2s1.2,0.6,1.2,1.2v2.2
				C92.8,126.6,92.2,127.2,91.5,127.2z"/>
		</g>
		<g>
			<path class="st0" d="M99,127.2c-0.7,0-1.2-0.6-1.2-1.2v-9.5c0-0.7,0.6-1.2,1.2-1.2s1.2,0.6,1.2,1.2v9.5
				C100.3,126.6,99.7,127.2,99,127.2z"/>
		</g>
		<g>
			<path class="st0" d="M107.5,127.2c-0.7,0-1.2-0.6-1.2-1.2v-7.3c0-0.7,0.6-1.2,1.2-1.2s1.2,0.6,1.2,1.2v7.3
				C108.7,126.6,108.2,127.2,107.5,127.2z"/>
		</g>
		<g>
			<path class="st0" d="M115.5,126.8c-0.7,0-1.2-0.6-1.2-1.2v-10.9c0-0.7,0.6-1.2,1.2-1.2s1.2,0.6,1.2,1.2v10.9
				C116.8,126.3,116.2,126.8,115.5,126.8z"/>
		</g>
		<g>
			<path class="st0" d="M90.6,119.9c-0.2,0-0.4,0-0.6-0.1l-7.2-3.8c-0.6-0.3-0.8-1.1-0.5-1.7c0.3-0.6,1.1-0.8,1.7-0.5l6.4,3.3
				l7.8-7.4c0.4-0.4,0.9-0.5,1.4-0.2l7.7,3.7l7.4-7.6c0.5-0.5,1.3-0.5,1.8,0c0.5,0.5,0.5,1.3,0,1.8l-8.1,8.2c-0.4,0.4-1,0.5-1.4,0.3
				l-7.7-3.7l-7.8,7.5C91.3,119.8,90.9,119.9,90.6,119.9z"/>
		</g>
	</g>
	<g>
		<path class="st0" d="M100.1,173.1c-40.1,0-72.7-32.6-72.7-72.7S60,27.7,100.1,27.7s72.7,32.6,72.7,72.7S140.2,173.1,100.1,173.1z
			 M100.1,31.7c-37.9,0-68.7,30.8-68.7,68.7c0,37.9,30.8,68.7,68.7,68.7c37.9,0,68.7-30.8,68.7-68.7C168.8,62.5,138,31.7,100.1,31.7
			z"/>
	</g>
</g>
</svg>
