<?xml version="1.0" encoding="utf-8"?>
<!-- Generator: Adobe Illustrator 26.4.0, SVG Export Plug-In . SVG Version: 6.00 Build 0)  -->
<svg version="1.1" id="Layer_1" xmlns="http://www.w3.org/2000/svg" xmlns:xlink="http://www.w3.org/1999/xlink" x="0px" y="0px"
	 viewBox="0 0 200 200" style="enable-background:new 0 0 200 200;" xml:space="preserve">
<style type="text/css">
	.st0{fill:#0067FC;}
</style>
<g>
	<g>
		<g>
			<path class="st0" d="M100.1,147.2c-0.6,0-1.1-0.3-1.5-0.7c-1.3-1.7-32.3-42.5-32.3-60.5c0-18.6,15.2-33.8,33.8-33.8
				c18.6,0,33.8,15.2,33.8,33.8c0,18.1-31,58.8-32.3,60.5C101.2,146.9,100.6,147.2,100.1,147.2z M100.1,55.9
				C83.5,55.9,70,69.3,70,85.9c0,14.7,23.8,47.8,30.1,56.3c6.3-8.5,30.1-41.6,30.1-56.3C130.1,69.3,116.6,55.9,100.1,55.9z"/>
		</g>
		<g>
			<path class="st0" d="M100.1,102.4c-10.3,0-18.7-8.4-18.7-18.7c0-10.3,8.4-18.7,18.7-18.7s18.7,8.4,18.7,18.7
				C118.8,94,110.4,102.4,100.1,102.4z M100.1,68.7c-8.2,0-14.9,6.7-14.9,14.9c0,8.2,6.7,14.9,14.9,14.9c8.2,0,14.9-6.7,14.9-14.9
				C115,75.4,108.3,68.7,100.1,68.7z"/>
		</g>
	</g>
	<g>
		<path class="st0" d="M100.1,172.4c-40.1,0-72.7-32.6-72.7-72.7c0-40.1,32.6-72.7,72.7-72.7s72.7,32.6,72.7,72.7
			C172.8,139.7,140.2,172.4,100.1,172.4z M100.1,30.9c-37.9,0-68.7,30.8-68.7,68.7s30.8,68.7,68.7,68.7c37.9,0,68.7-30.8,68.7-68.7
			S138,30.9,100.1,30.9z"/>
	</g>
	<g>
		<path class="st0" d="M100.1,85.5c-1,0-1.9-0.8-1.9-1.9v-7.9c0-1,0.8-1.9,1.9-1.9s1.9,0.8,1.9,1.9v7.9
			C101.9,84.7,101.1,85.5,100.1,85.5z"/>
	</g>
	<g>
		<path class="st0" d="M105.9,85.5h-5.8c-1,0-1.9-0.8-1.9-1.9s0.8-1.9,1.9-1.9h5.8c1,0,1.9,0.8,1.9,1.9S106.9,85.5,105.9,85.5z"/>
	</g>
	<g>
		<path class="st0" d="M100.2,154.7c-11.7,0-20.5-4.4-20.5-10.3c0-2.9,2.1-5.6,6-7.5c0.9-0.5,2.1-0.1,2.5,0.9s0.1,2.1-0.9,2.5
			c-2.5,1.2-3.9,2.7-3.9,4.1c0,3.1,7.1,6.6,16.7,6.6s16.7-3.5,16.7-6.6c0-1.6-2.1-3.4-5.4-4.7c-1-0.4-1.4-1.5-1.1-2.4
			c0.4-1,1.5-1.4,2.4-1.1c5,1.9,7.8,4.9,7.8,8.2C120.7,150.2,111.9,154.7,100.2,154.7z"/>
	</g>
</g>
</svg>
