<?xml version="1.0" encoding="utf-8"?>
<!-- Generator: Adobe Illustrator 26.2.1, SVG Export Plug-In . SVG Version: 6.00 Build 0)  -->
<svg version="1.1" id="Layer_1" xmlns="http://www.w3.org/2000/svg" xmlns:xlink="http://www.w3.org/1999/xlink" x="0px" y="0px"
	 viewBox="0 0 200 200" style="enable-background:new 0 0 200 200;" xml:space="preserve">
<style type="text/css">
	.st0{fill:#0067FC;}
</style>
<g>
	<g>
		<g>
			<path class="st0" d="M100.4,172.6c-1,0-1.9,0-2.9-0.1c-40.1-1.6-71.4-35.5-69.8-75.5c1.6-40.1,35.5-71.4,75.5-69.8
				c19.4,0.8,37.4,9,50.5,23.3c13.2,14.3,20,32.8,19.2,52.2l0,0C171.5,141.8,139.2,172.6,100.4,172.6z M100.3,31.2
				c-36.6,0-67.2,29.1-68.6,66C30.2,135,59.8,167,97.6,168.5c37.9,1.5,69.9-28.1,71.4-65.9l2,0.1l-2-0.1
				c0.7-18.3-5.7-35.9-18.2-49.3c-12.5-13.5-29.4-21.3-47.8-22C102.1,31.2,101.2,31.2,100.3,31.2z"/>
		</g>
		<g>
			<path class="st0" d="M135.7,137.2H65.3c-1.1,0-2-0.9-2-2V64.8c0-1.1,0.9-2,2-2h70.4c1.1,0,2,0.9,2,2v70.4
				C137.7,136.3,136.8,137.2,135.7,137.2z M67.3,133.2h66.4V66.8H67.3V133.2z"/>
		</g>
		<g>
			<path class="st0" d="M135.7,78.3H65.3c-1.1,0-2-0.9-2-2s0.9-2,2-2h70.4c1.1,0,2,0.9,2,2S136.8,78.3,135.7,78.3z"/>
		</g>
		<g>
			<circle class="st0" cx="73.4" cy="70.8" r="1.8"/>
		</g>
		<g>
			<circle class="st0" cx="78.3" cy="70.8" r="1.8"/>
		</g>
		<g>
			<circle class="st0" cx="83.3" cy="70.8" r="1.8"/>
		</g>
		<g>
			<path class="st0" d="M126.9,87.8H75.2c-1.1,0-2-0.9-2-2s0.9-2,2-2h51.7c1.1,0,2,0.9,2,2S128,87.8,126.9,87.8z"/>
		</g>
		<g>
			<path class="st0" d="M95.4,95.7H78.4c-1.1,0-2-0.9-2-2s0.9-2,2-2h16.9c1.1,0,2,0.9,2,2S96.5,95.7,95.4,95.7z"/>
		</g>
	</g>
	<g>
		<g>
			<path class="st0" d="M113.4,120.1c-4.3,0-7.8-3.7-7.8-8.2s3.5-8.2,7.8-8.2c4.3,0,7.8,3.7,7.8,8.2S117.7,120.1,113.4,120.1z
				 M113.4,106.4c-2.9,0-5.3,2.5-5.3,5.6s2.4,5.6,5.3,5.6c2.9,0,5.3-2.5,5.3-5.6S116.3,106.4,113.4,106.4z"/>
		</g>
		<g>
			<path class="st0" d="M113.5,129.6c-0.4,0-0.8,0-1.3,0c-1.5,0-2.5-1-2.5-2.6c0-0.7-0.3-1.4-0.8-1.9c-0.4-0.4-1-0.6-1.6-0.6
				c-0.6,0-1,0.2-1.5,0.7c-0.6,0.6-1.2,0.9-1.9,0.9c-0.7,0-1.3-0.3-1.9-0.9l-1.5-1.6c-1.1-1.2-1.1-2.5,0-3.7
				c0.6-0.7,0.8-1.6,0.6-2.5c-0.2-0.8-0.8-1.4-1.6-1.6c-0.2-0.1-0.4-0.1-0.7-0.1c-1.4-0.1-2.3-1.1-2.4-2.5c0-0.8,0-1.7,0-2.5
				c0-1.5,1-2.5,2.5-2.6c1.3,0,2.3-1.1,2.3-2.5c0-0.7-0.2-1.2-0.7-1.7c-1.1-1.2-1.1-2.5,0.1-3.7l0.4-0.4c0.4-0.4,0.8-0.8,1.2-1.2
				c0.3-0.3,0.6-0.4,0.8-0.6c0.1,0,0.1-0.1,0.2-0.1l0.4-0.2l0.5,0.1c0.8,0.1,1.3,0.5,1.7,0.9c0.6,0.6,1.4,0.8,2.1,0.6
				c0.8-0.2,1.4-0.9,1.6-1.8c0-0.2,0.1-0.5,0.1-0.8c0.1-1.4,1.1-2.4,2.4-2.4c0.6,0,1.2,0,1.8,0l0.5,0c1.6,0,2.5,1,2.6,2.6
				c0,0.7,0.3,1.4,0.8,1.8c0.4,0.4,1,0.6,1.5,0.6c0.6,0,1.1-0.2,1.5-0.7c0.6-0.6,1.2-0.9,1.9-0.9c0.7,0,1.3,0.3,1.9,0.9l0.5,0.5
				c0.4,0.4,0.7,0.7,1.1,1.1c1,1.1,1,2.5,0,3.6c-0.8,0.9-0.9,1.7-0.5,2.7c0.4,1,1.1,1.5,2.2,1.5c1.4,0,2.4,1.1,2.4,2.5
				c0,0.8,0,1.7,0,2.5c0,1.5-1,2.5-2.4,2.6c-1.1,0-1.7,0.5-2.1,1.5c-0.4,1-0.2,1.9,0.5,2.8c1,1.1,1,2.5,0,3.6
				c-0.5,0.6-1.1,1.1-1.6,1.7c-0.6,0.7-1.3,0.8-1.8,0.8c-0.4,0-1.1-0.1-1.8-0.8c-0.8-0.8-1.5-0.9-2.5-0.5c-0.6,0.3-1.4,0.8-1.4,2.3
				c0,1.5-1.1,2.5-2.5,2.5C114.2,129.6,113.8,129.6,113.5,129.6z M112.3,127.1c0.7,0,1.5,0,2.2,0c0,0,0,0,0,0
				c0.1-2.1,1.1-3.8,2.9-4.6c1.9-0.8,3.7-0.5,5.2,1c0.5-0.5,1-1.1,1.6-1.6c0,0,0,0,0.1-0.1c0,0,0-0.1-0.1-0.1
				c-1.4-1.6-1.7-3.5-1-5.4c0.8-1.9,2.3-3,4.4-3.1c0,0,0,0,0,0c0-0.8,0-1.6,0-2.5c0,0,0,0,0,0c-2.1-0.1-3.6-1.2-4.4-3.1
				c-0.8-1.9-0.4-3.8,1-5.4c0,0,0,0,0.1-0.1c0,0,0,0,0-0.1c-0.3-0.4-0.7-0.7-1-1.1l-0.5-0.5c0,0,0,0,0,0c0,0,0,0,0,0
				c-0.9,0.9-2,1.4-3.2,1.4c-1.2,0-2.4-0.4-3.4-1.3c-1-0.9-1.5-2.2-1.6-3.6c0,0,0-0.1,0-0.1c0,0,0,0,0,0l-0.5,0c-0.6,0-1.1,0-1.7,0
				c0,0.4-0.1,0.8-0.2,1.2c-0.4,1.8-1.7,3.1-3.4,3.6c-1.6,0.5-3.4,0-4.6-1.2c0,0,0,0,0,0c-0.4,0.4-0.7,0.7-1.1,1.1l-0.4,0.5
				c-0.1,0.1-0.1,0.1-0.1,0.1c0,0,0.1,0.1,0.1,0.1c0.8,0.9,1.3,2.1,1.3,3.4c0,2.8-2.1,5-4.8,5.1c0,0,0,0,0,0c0,0.8,0,1.6,0,2.5
				c0.4,0,0.8,0,1.2,0.2c1.6,0.4,2.9,1.7,3.4,3.3c0.5,1.7,0.1,3.6-1.1,4.9c0,0-0.1,0.1-0.1,0.1c0,0,0,0.1,0.1,0.1l1.5,1.6
				c0,0,0,0,0,0c0,0,0,0,0,0c0.9-0.9,2-1.4,3.2-1.4c1.3,0,2.5,0.4,3.4,1.3C111.7,124.3,112.2,125.6,112.3,127.1
				C112.3,127,112.3,127.1,112.3,127.1z"/>
		</g>
	</g>
	<g>
		<g>
			<path class="st0" d="M88.2,109.4c-2.2,0-4.1-1.9-4.1-4.2c0-2.3,1.8-4.2,4.1-4.2s4.1,1.9,4.1,4.2
				C92.3,107.5,90.5,109.4,88.2,109.4z M88.2,102.2c-1.5,0-2.7,1.3-2.7,2.9c0,1.6,1.2,2.9,2.7,2.9s2.7-1.3,2.7-2.9
				C90.9,103.5,89.7,102.2,88.2,102.2z"/>
		</g>
		<g>
			<path class="st0" d="M88.2,114.3c-0.2,0-0.4,0-0.6,0c-0.8,0-1.3-0.5-1.3-1.3c0-0.4-0.1-0.7-0.4-1c-0.2-0.1-0.4-0.3-0.8-0.3
				c-0.3,0-0.5,0.1-0.8,0.3c-0.3,0.3-0.6,0.5-1,0.5c-0.3,0-0.7-0.2-1-0.5l-0.8-0.8c-0.6-0.6-0.6-1.3,0-1.9c0.3-0.4,0.4-0.8,0.3-1.3
				c-0.1-0.4-0.4-0.7-0.8-0.8c-0.1,0-0.2,0-0.4,0c-0.7,0-1.2-0.6-1.2-1.3c0-0.4,0-0.9,0-1.3c0-0.8,0.5-1.3,1.3-1.3
				c0.7,0,1.2-0.6,1.2-1.3c0-0.3-0.1-0.6-0.3-0.9c-0.6-0.6-0.6-1.3,0-1.9l0.2-0.2c0.2-0.2,0.4-0.4,0.6-0.6c0.1-0.1,0.3-0.2,0.4-0.3
				l0.3-0.2l0.2,0c0.4,0.1,0.7,0.3,0.9,0.5c0.3,0.3,0.7,0.4,1.1,0.3c0.4-0.1,0.7-0.5,0.8-0.9c0-0.1,0-0.3,0-0.4
				c0-0.7,0.6-1.3,1.3-1.3c0.3,0,0.6,0,0.9,0l0.3,0c0.8,0,1.3,0.5,1.3,1.4c0,0.4,0.2,0.7,0.4,1c0.2,0.2,0.5,0.3,0.8,0.3
				c0.3,0,0.6-0.1,0.8-0.3c0.3-0.3,0.7-0.5,1-0.4c0.3,0,0.7,0.2,1,0.5l0.8,0.8c0.5,0.6,0.5,1.3,0,1.9c-0.4,0.4-0.5,0.9-0.3,1.4
				c0.2,0.5,0.6,0.8,1.1,0.8c0.7,0,1.3,0.6,1.3,1.3c0,0.4,0,0.9,0,1.3c0,0.8-0.5,1.3-1.3,1.3c-0.6,0-0.9,0.3-1.1,0.8
				c-0.2,0.5-0.1,1,0.3,1.4c0.5,0.6,0.5,1.3,0,1.9c-0.3,0.3-0.6,0.6-0.8,0.9c-0.3,0.3-0.7,0.4-0.9,0.4c-0.2,0-0.6-0.1-0.9-0.4
				c-0.4-0.4-0.8-0.5-1.3-0.3c-0.3,0.1-0.7,0.4-0.7,1.2c0,0.8-0.6,1.3-1.3,1.3C88.6,114.3,88.4,114.3,88.2,114.3z M85.1,110.4
				c0.6,0,1.2,0.2,1.7,0.7c0.5,0.5,0.8,1.2,0.8,1.9c0.4,0,0.8,0,1.2,0c0-1.1,0.6-2,1.5-2.4c1-0.4,1.9-0.2,2.7,0.5
				c0.3-0.3,0.6-0.6,0.8-0.9c-0.7-0.9-0.9-1.9-0.5-2.9c0.4-1,1.2-1.6,2.3-1.6c0-0.4,0-0.9,0-1.3c-1.1,0-1.9-0.6-2.3-1.6
				c-0.4-1-0.2-2,0.5-2.8l-0.8-0.9c0,0,0,0,0,0c0,0,0,0,0,0c-0.5,0.5-1,0.7-1.7,0.7c-0.6,0-1.3-0.2-1.8-0.7
				c-0.5-0.5-0.8-1.2-0.8-1.9c0,0,0,0,0,0l-0.3,0c-0.3,0-0.6,0-0.9,0c0,0.2,0,0.4,0,0.6c-0.2,0.9-0.9,1.6-1.8,1.9
				c-0.9,0.2-1.7,0-2.4-0.6c0,0,0,0,0,0c-0.2,0.2-0.4,0.4-0.6,0.6l-0.2,0.2c0,0-0.1,0.1-0.1,0.1c0,0,0,0,0.1,0.1
				c0.4,0.5,0.7,1.1,0.7,1.7c0,1.4-1.1,2.6-2.5,2.6c0,0.4,0,0.9,0,1.3c0.1,0,0.4,0,0.6,0.1c0.8,0.2,1.5,0.9,1.8,1.7
				c0.3,0.9,0.1,1.9-0.6,2.6c0,0,0,0-0.1,0.1c0,0,0,0,0,0.1l0.8,0.8c0,0,0,0,0,0c0,0,0,0,0,0C83.8,110.7,84.4,110.4,85.1,110.4
				C85.1,110.4,85.1,110.4,85.1,110.4z"/>
		</g>
	</g>
	<g>
		<g>
			<path class="st0" d="M86.4,126.2l-0.5-1.5h-3.5l-0.5,1.5h-1.8l2.9-8.4h2.1l3,8.4H86.4z M83,123.2h2.4l-1.2-3.4L83,123.2z"/>
		</g>
		<g>
			<path class="st0" d="M92,117.8c0.8,0,1.5,0.3,2,0.8c0.6,0.5,0.8,1.2,0.8,2s-0.3,1.5-0.8,2c-0.6,0.5-1.2,0.8-2,0.8h-1.5v2.8h-1.7
				v-8.4H92z M92,121.9c0.4,0,0.6-0.1,0.9-0.4c0.2-0.2,0.3-0.5,0.3-0.9c0-0.4-0.1-0.7-0.3-0.9c-0.2-0.2-0.5-0.4-0.9-0.4h-1.5v2.5H92
				z"/>
		</g>
		<g>
			<path class="st0" d="M96,117.8h1.7v8.4H96V117.8z"/>
		</g>
	</g>
</g>
</svg>
