<?xml version="1.0" encoding="utf-8"?>
<!-- Generator: Adobe Illustrator 26.3.1, SVG Export Plug-In . SVG Version: 6.00 Build 0)  -->
<svg version="1.1" id="Layer_1" xmlns="http://www.w3.org/2000/svg" xmlns:xlink="http://www.w3.org/1999/xlink" x="0px" y="0px"
	 viewBox="0 0 200 200" style="enable-background:new 0 0 200 200;" xml:space="preserve">
<style type="text/css">
	.st0{fill:#0067FC;}
</style>
<g>
	<g>
		<g>
			<path class="st0" d="M117.2,143.6h-42c-3,0-5.5-2.5-5.5-5.5V62.6c0-3,2.5-5.5,5.5-5.5H125c3,0,5.5,2.5,5.5,5.5v66.3
				c0,0.3-0.1,0.6-0.3,0.8l-12.1,13.5C117.9,143.5,117.5,143.6,117.2,143.6z M72.1,93.6v44.6c0,1.7,1.3,3,3,3h41.5l11.4-12.8V62.6
				c0-1.7-1.3-3-3-3H75.1c-1.7,0-3,1.3-3,3V93.6z"/>
		</g>
		<g>
			<path class="st0" d="M116.2,143.2c-0.7,0-1.2-0.6-1.2-1.2v-8.8c0-3,2.5-5.5,5.5-5.5h8.8c0.7,0,1.2,0.6,1.2,1.2s-0.6,1.2-1.2,1.2
				h-8.8c-1.7,0-3,1.3-3,3v8.8C117.4,142.6,116.9,143.2,116.2,143.2z"/>
		</g>
	</g>
	<g>
		<g>
			<path class="st0" d="M91.2,101.4c-0.3,0-0.6-0.1-0.8-0.4c-0.9-1.2-9.1-12-9.1-17.1c0-5.5,4.4-9.9,9.9-9.9s9.9,4.4,9.9,9.9
				c0,5.1-8.2,15.9-9.1,17.1C91.8,101.3,91.5,101.4,91.2,101.4z M91.2,76c-4.3,0-7.9,3.5-7.9,7.9c0,3.4,5.1,11,7.9,14.8
				c2.8-3.8,7.9-11.4,7.9-14.8C99,79.5,95.5,76,91.2,76z"/>
		</g>
		<g>
			<path class="st0" d="M91.2,88.1c-2.7,0-4.9-2.2-4.9-4.9s2.2-4.9,4.9-4.9s4.9,2.2,4.9,4.9S93.9,88.1,91.2,88.1z M91.2,80.4
				c-1.6,0-2.8,1.3-2.8,2.8s1.3,2.8,2.8,2.8c1.6,0,2.8-1.3,2.8-2.8S92.7,80.4,91.2,80.4z"/>
		</g>
	</g>
	<g>
		<g>
			<path class="st0" d="M113.5,122.7c-0.2,0-0.4-0.1-0.5-0.3c-0.6-0.8-5.9-7.9-5.9-11.2c0-3.6,2.9-6.5,6.5-6.5s6.5,2.9,6.5,6.5
				c0,3.3-5.3,10.4-5.9,11.2C113.9,122.6,113.7,122.7,113.5,122.7z M113.5,106.1c-2.8,0-5.1,2.3-5.1,5.1c0,2.2,3.3,7.2,5.1,9.7
				c1.8-2.5,5.1-7.5,5.1-9.7C118.6,108.4,116.3,106.1,113.5,106.1z"/>
		</g>
		<g>
			<path class="st0" d="M113.5,114c-1.8,0-3.2-1.4-3.2-3.2c0-1.8,1.4-3.2,3.2-3.2c1.8,0,3.2,1.4,3.2,3.2
				C116.6,112.6,115.2,114,113.5,114z M113.5,109c-1,0-1.9,0.8-1.9,1.9c0,1,0.8,1.8,1.9,1.8c1,0,1.8-0.8,1.8-1.8
				C115.3,109.8,114.5,109,113.5,109z"/>
		</g>
	</g>
	<g>
		<path class="st0" d="M100.1,173.1c-40.1,0-72.7-32.6-72.7-72.7S60,27.7,100.1,27.7s72.7,32.6,72.7,72.7S140.2,173.1,100.1,173.1z
			 M100.1,31.7c-37.9,0-68.7,30.8-68.7,68.7c0,37.9,30.8,68.7,68.7,68.7c37.9,0,68.7-30.8,68.7-68.7C168.8,62.5,138,31.7,100.1,31.7
			z"/>
	</g>
	<g>
		<path class="st0" d="M106.2,123.3c-1.3-0.1-2.4-0.7-3.1-1.7s-0.9-2.2-0.5-3.4c0.1-0.3,0-0.7-0.2-1s-0.5-0.5-0.9-0.5l-2.8-0.1
			c-1.3-0.1-2.3-0.8-2.8-2c-0.5-1.2-0.2-2.5,0.6-3.4c0.1-0.2,0.1-0.3,0.1-0.4c0-0.1-0.1-0.2-0.3-0.3l-4.6-0.7
			c-0.8-0.1-1.5-0.6-2-1.3c-0.4-0.7-0.5-1.5-0.3-2.3l0.5-3.1l0.2-2.2c0-0.6,0.5-1,1.1-0.9c0.6,0,1,0.5,0.9,1.1l-0.2,2.3l-0.6,3.3
			c0,0.1,0,0.1,0,0.2c-0.1,0.2,0,0.4,0.1,0.6c0.1,0.1,0.2,0.3,0.5,0.3l4.6,0.7c0.9,0.1,1.6,0.8,1.9,1.6c0.3,0.9,0.1,1.8-0.5,2.5
			c-0.3,0.3-0.4,0.8-0.2,1.2c0.2,0.4,0.6,0.7,1,0.7l2.8,0.1c1,0.1,1.9,0.5,2.5,1.4c0.6,0.8,0.7,1.8,0.5,2.8
			c-0.2,0.5-0.1,1.1,0.3,1.6c0.3,0.5,0.8,0.8,1.4,0.8l7.2-0.2c0,0,0,0,0,0c0.6,0,1,0.4,1,1c0,0.6-0.4,1-1,1.1L106.2,123.3z"/>
	</g>
</g>
</svg>
