<?xml version="1.0" encoding="utf-8"?>
<!-- Generator: Adobe Illustrator 26.4.0, SVG Export Plug-In . SVG Version: 6.00 Build 0)  -->
<svg version="1.1" id="Layer_1" xmlns="http://www.w3.org/2000/svg" xmlns:xlink="http://www.w3.org/1999/xlink" x="0px" y="0px"
	 viewBox="0 0 200 200" style="enable-background:new 0 0 200 200;" xml:space="preserve">
<style type="text/css">
	.st0{fill:#0067FC;}
</style>
<g>
	<g>
		<path class="st0" d="M100,172.7c-40.1,0-72.7-32.6-72.7-72.7S59.9,27.3,100,27.3s72.7,32.6,72.7,72.7S140.1,172.7,100,172.7z
			 M100,31.3c-37.9,0-68.7,30.8-68.7,68.7c0,37.9,30.8,68.7,68.7,68.7c37.9,0,68.7-30.8,68.7-68.7C168.7,62.1,137.9,31.3,100,31.3z"
			/>
	</g>
	<g>
		<g>
			<path class="st0" d="M90.5,101.2H76.9c-0.7,0-1.2-0.6-1.2-1.2V85.6c0-15.1,5-23.2,14.7-24c0.3,0,0.7,0.1,1,0.3
				c0.3,0.2,0.4,0.6,0.4,0.9v7.9c0,0.5-0.3,1-0.8,1.1c-2.5,1.1-3.8,3.3-4,6.8h3.6c0.7,0,1.2,0.6,1.2,1.2V100
				C91.7,100.7,91.2,101.2,90.5,101.2z M78.1,98.7h11.1V81.1h-3.6c-0.7,0-1.2-0.6-1.2-1.2c0-4.9,1.6-8.3,4.8-10v-5.7
				c-7.5,1.4-11.1,8.4-11.1,21.4V98.7z M71.7,101.2H58.1c-0.7,0-1.2-0.6-1.2-1.2V85.6c0-15.1,5-23.2,14.7-24c0.3,0,0.7,0.1,1,0.3
				c0.3,0.2,0.4,0.6,0.4,0.9v7.9c0,0.5-0.3,1-0.8,1.2c-2.5,1.1-3.9,3.3-4.1,6.8h3.6c0.7,0,1.2,0.6,1.2,1.2V100
				C73,100.7,72.4,101.2,71.7,101.2z M59.4,98.7h11.1V81.1h-3.7c-0.7,0-1.2-0.6-1.2-1.2c0-4.9,1.7-8.3,4.9-10v-5.6
				c-7.5,1.4-11.1,8.4-11.1,21.4V98.7z"/>
		</g>
	</g>
	<g>
		<g>
			<path class="st0" d="M109.5,138.4c-0.3,0-0.6-0.1-0.8-0.3c-0.3-0.2-0.4-0.6-0.4-0.9v-7.9c0-0.5,0.3-1,0.8-1.1
				c2.5-1.1,3.8-3.3,4-6.8h-3.6c-0.7,0-1.2-0.6-1.2-1.2V100c0-0.7,0.6-1.2,1.2-1.2h13.6c0.7,0,1.2,0.6,1.2,1.2v14.4
				c0,15.1-5,23.2-14.7,24C109.6,138.4,109.6,138.4,109.5,138.4z M110.8,130.1v5.7c7.5-1.4,11.1-8.4,11.1-21.4v-13.1h-11.1v17.6h3.6
				c0.7,0,1.2,0.6,1.2,1.2C115.6,125,114,128.4,110.8,130.1z M128.3,138.4c-0.3,0-0.6-0.1-0.8-0.3c-0.3-0.2-0.4-0.6-0.4-0.9v-7.9
				c0-0.5,0.3-1,0.8-1.2c2.5-1.1,3.9-3.3,4.1-6.8h-3.6c-0.7,0-1.2-0.6-1.2-1.2V100c0-0.7,0.6-1.2,1.2-1.2h13.6
				c0.7,0,1.2,0.6,1.2,1.2v14.4c0,15.1-5,23.2-14.7,24C128.4,138.4,128.3,138.4,128.3,138.4z M129.5,130.1v5.6
				c7.5-1.4,11.1-8.4,11.1-21.4v-13.1h-11.1v17.6h3.7c0.7,0,1.2,0.6,1.2,1.2C134.5,125,132.8,128.4,129.5,130.1z"/>
		</g>
	</g>
</g>
</svg>
