<?xml version="1.0" encoding="utf-8"?>
<!-- Generator: Adobe Illustrator 26.4.0, SVG Export Plug-In . SVG Version: 6.00 Build 0)  -->
<svg version="1.1" id="Layer_1" xmlns="http://www.w3.org/2000/svg" xmlns:xlink="http://www.w3.org/1999/xlink" x="0px" y="0px"
	 viewBox="0 0 200 200" style="enable-background:new 0 0 200 200;" xml:space="preserve">
<style type="text/css">
	.st0{fill:#0067FC;}
</style>
<g>
	<g>
		<g>
			<path class="st0" d="M117.1,143.3h-42c-3,0-5.5-2.5-5.5-5.5V62.2c0-3,2.5-5.5,5.5-5.5h49.8c3,0,5.5,2.5,5.5,5.5v66.3
				c0,0.3-0.1,0.6-0.3,0.8L118,142.9C117.8,143.1,117.5,143.3,117.1,143.3z M72.1,93.2v44.6c0,1.7,1.3,3,3,3h41.5l11.4-12.8V62.2
				c0-1.7-1.3-3-3-3H75.1c-1.7,0-3,1.3-3,3V93.2z"/>
		</g>
		<g>
			<path class="st0" d="M116.1,142.8c-0.7,0-1.2-0.6-1.2-1.2v-8.8c0-3,2.5-5.5,5.5-5.5h8.8c0.7,0,1.2,0.6,1.2,1.2s-0.6,1.2-1.2,1.2
				h-8.8c-1.7,0-3,1.3-3,3v8.8C117.4,142.3,116.8,142.8,116.1,142.8z"/>
		</g>
	</g>
	<g>
		<path class="st0" d="M97.9,101.2H81.3c-0.7,0-1.2-0.6-1.2-1.2s0.6-1.2,1.2-1.2h16.6c0.7,0,1.2,0.6,1.2,1.2S98.6,101.2,97.9,101.2z
			"/>
	</g>
	<g>
		<path class="st0" d="M90.9,94.3h-9.6c-0.7,0-1.2-0.6-1.2-1.2s0.6-1.2,1.2-1.2h9.6c0.7,0,1.2,0.6,1.2,1.2S91.6,94.3,90.9,94.3z"/>
	</g>
	<g>
		<path class="st0" d="M114.9,80.5H81.3c-0.7,0-1.2-0.6-1.2-1.2s0.6-1.2,1.2-1.2h33.6c0.7,0,1.2,0.6,1.2,1.2S115.6,80.5,114.9,80.5z
			"/>
	</g>
	<g>
		<path class="st0" d="M114.9,73.5H81.3c-0.7,0-1.2-0.6-1.2-1.2s0.6-1.2,1.2-1.2h33.6c0.7,0,1.2,0.6,1.2,1.2S115.6,73.5,114.9,73.5z
			"/>
	</g>
	<g>
		<path class="st0" d="M104.9,87.4H81.3c-0.7,0-1.2-0.6-1.2-1.2s0.6-1.2,1.2-1.2h23.6c0.7,0,1.2,0.6,1.2,1.2S105.6,87.4,104.9,87.4z
			"/>
	</g>
	<g>
		<g id="Group_263_00000150095933439577615030000014703352183219594392_" transform="translate(-598.5 -520.001)">
			<g id="Group_259_00000050636014386831055690000004880297944755041167_" transform="translate(549.903 487.744)">
				<g id="Ellipse_9_00000147915614334592217720000003101506266251632270_">
					<path class="st0" d="M162.5,133.7c-3.7,0-6.6-3-6.6-6.6s3-6.6,6.6-6.6s6.6,3,6.6,6.6S166.1,133.7,162.5,133.7z M162.5,123
						c-2.3,0-4.1,1.9-4.1,4.1s1.9,4.1,4.1,4.1c2.3,0,4.1-1.9,4.1-4.1S164.8,123,162.5,123z"/>
				</g>
				<g id="Path_16_00000027571334907421663240000015972973644753262509_">
					<path class="st0" d="M171.2,143.9c-0.7,0-1.2-0.6-1.2-1.2c0-4.1-3.4-7.5-7.5-7.5s-7.5,3.4-7.5,7.5c0,0.7-0.6,1.2-1.2,1.2
						s-1.2-0.6-1.2-1.2c0-5.5,4.5-10,10-10s10,4.5,10,10C172.5,143.4,171.9,143.9,171.2,143.9z"/>
				</g>
			</g>
		</g>
	</g>
	<g>
		<path class="st0" d="M100,172.7c-40.1,0-72.7-32.6-72.7-72.7S59.9,27.3,100,27.3s72.7,32.6,72.7,72.7S140.1,172.7,100,172.7z
			 M100,31.3c-37.9,0-68.7,30.8-68.7,68.7c0,37.9,30.8,68.7,68.7,68.7c37.9,0,68.7-30.8,68.7-68.7C168.7,62.1,137.9,31.3,100,31.3z"
			/>
	</g>
	<g>
		<g>
			<g>
				<path class="st0" d="M93.1,134.9c-0.7,0-1.2-0.6-1.2-1.2v-9.3c0-0.6-0.5-1-1-1h-3c-2.4,0-4.3-1.9-4.3-4.3v-6.2
					c0-0.7,0.6-1.2,1.2-1.2s1.2,0.6,1.2,1.2v6.2c0,1,0.8,1.8,1.8,1.8h3c2,0,3.5,1.6,3.5,3.5v9.3C94.4,134.4,93.8,134.9,93.1,134.9z"
					/>
			</g>
			<g>
				<path class="st0" d="M84.5,134.9c-0.7,0-1.2-0.6-1.2-1.2v-9.3c0-2,1.6-3.5,3.5-3.5h3c1,0,1.8-0.8,1.8-1.8v-6.2
					c0-0.7,0.6-1.2,1.2-1.2s1.2,0.6,1.2,1.2v6.2c0,2.4-1.9,4.3-4.3,4.3h-3c-0.6,0-1,0.5-1,1v9.3C85.7,134.4,85.1,134.9,84.5,134.9z"
					/>
			</g>
			<g>
				<path class="st0" d="M88.6,136.2c-2.1,0-7.1-0.2-7.1-2.2s4.9-2.2,7.1-2.2c2.1,0,7.1,0.2,7.1,2.2S90.7,136.2,88.6,136.2z
					 M83.7,134c0.8,0.3,2.5,0.6,4.9,0.6s4.1-0.3,4.9-0.6c-0.8-0.3-2.5-0.6-4.9-0.6S84.5,133.7,83.7,134z M94.1,134.3L94.1,134.3
					L94.1,134.3z"/>
			</g>
		</g>
		<g>
			<path class="st0" d="M88.6,113c-2.1,0-7.1-0.2-7.1-2.2c0-2,4.9-2.2,7.1-2.2c2.1,0,7.1,0.2,7.1,2.2C95.7,112.8,90.7,113,88.6,113z
				 M83.7,110.8c0.8,0.3,2.5,0.6,4.9,0.6s4.1-0.3,4.9-0.6c-0.8-0.3-2.5-0.6-4.9-0.6S84.5,110.6,83.7,110.8z M94.1,111.1L94.1,111.1
				L94.1,111.1z"/>
		</g>
	</g>
</g>
</svg>
