<?xml version="1.0" encoding="UTF-8"?>
<svg id="Layer_2" xmlns="http://www.w3.org/2000/svg" viewBox="0 0 145.4 145.4">
  <defs>
    <style>
      .cls-1 {
        fill: #0067fc;
      }
    </style>
  </defs>
  <g id="Layer_1-2" data-name="Layer_1">
    <g>
      <path class="cls-1" d="M72.7,145.4C32.6,145.4,0,112.8,0,72.7S32.6,0,72.7,0s72.7,32.6,72.7,72.7-32.6,72.7-72.7,72.7ZM72.7,4C34.8,4,4,34.8,4,72.7s30.8,68.7,68.7,68.7,68.7-30.8,68.7-68.7S110.6,4,72.7,4Z"/>
      <g>
        <g>
          <path class="cls-1" d="M97.76,78.8c-10.17,0-18.45-8.29-18.45-18.45s8.29-18.45,18.45-18.45c2.99,0,5.98.73,8.63,2.14.26.13.34.47.21.73-.13.26-.47.34-.73.21-2.48-1.32-5.3-2.01-8.12-2.01-9.61,0-17.39,7.82-17.39,17.39s7.82,17.39,17.39,17.39,17.39-7.82,17.39-17.39c0-2.9-.73-5.77-2.09-8.29-.13-.26-.04-.6.21-.73.26-.13.6-.04.73.21,1.45,2.69,2.22,5.72,2.22,8.8,0,10.17-8.29,18.45-18.45,18.45Z"/>
          <path class="cls-1" d="M97.76,74.91c-8.03,0-14.57-6.54-14.57-14.57s6.54-14.57,14.57-14.57c3.12,0,6.11.98,8.63,2.86.26.17.3.51.13.73-.17.26-.51.3-.73.13-2.35-1.71-5.08-2.65-7.99-2.65-7.43,0-13.5,6.07-13.5,13.5s6.07,13.5,13.5,13.5,13.5-6.07,13.5-13.5c0-2.99-.98-5.85-2.78-8.2-.17-.21-.13-.56.09-.77.21-.17.56-.13.77.09,1.97,2.56,2.99,5.64,2.99,8.84-.04,8.07-6.58,14.61-14.61,14.61Z"/>
          <path class="cls-1" d="M97.76,71.53c-6.19,0-11.19-5.04-11.19-11.19s5.04-11.19,11.19-11.19c2.18,0,4.31.64,6.15,1.84.26.17.3.51.17.73-.17.26-.51.3-.73.17-1.67-1.07-3.59-1.67-5.55-1.67-5.6,0-10.17,4.57-10.17,10.17s4.57,10.17,10.17,10.17,10.17-4.57,10.17-10.17c0-1.92-.56-3.84-1.58-5.47-.17-.26-.09-.6.17-.73.26-.17.6-.09.73.17,1.15,1.79,1.75,3.89,1.75,6.02-.09,6.15-5.08,11.15-11.28,11.15Z"/>
          <path class="cls-1" d="M97.77,68.12c-4.31,0-7.78-3.5-7.78-7.78s3.5-7.78,7.78-7.78c1.51,0,3,.45,4.28,1.28.18.12.21.36.12.5-.12.18-.36.21-.5.12-1.16-.74-2.5-1.16-3.86-1.16-3.89,0-7.07,3.18-7.07,7.07s3.18,7.07,7.07,7.07,7.07-3.18,7.07-7.07c0-1.34-.39-2.67-1.1-3.8-.12-.18-.06-.42.12-.5.18-.12.42-.06.5.12.8,1.25,1.22,2.7,1.22,4.19-.06,4.28-3.53,7.75-7.84,7.75Z"/>
          <g>
            <path class="cls-1" d="M97.97,61.07c-.21,0-.43-.09-.6-.26-.34-.34-.34-.85,0-1.2l11.28-11.28c.34-.34.85-.34,1.2,0s.34.85,0,1.2l-11.28,11.28c-.13.17-.38.26-.6.26Z"/>
            <path class="cls-1" d="M113.95,50.26h-.09l-4.66-.43c-.38-.04-.73-.34-.77-.77l-.56-4.78c-.04-.26.04-.51.26-.68l4.96-4.96c.21-.21.56-.3.9-.21.3.13.51.38.56.73l.47,4.1,3.97.38c.34.04.6.26.73.56s.04.64-.21.9l-4.96,4.96c-.17.13-.38.21-.6.21ZM110.02,48.17l3.59.34,3.37-3.37-2.86-.26c-.38-.04-.73-.34-.77-.77l-.34-3.03-3.42,3.42.43,3.67Z"/>
          </g>
        </g>
        <g>
          <path class="cls-1" d="M58.77,113.86c-8.67.18-16.99-.29-25.2-2.13-1.88-.42-3.72-.97-5.59-1.43-1.31-.32-2.05-1.16-2.16-2.46-.66-8.27.21-16.3,3.8-23.9,1.31-2.76,3.35-4.67,6.21-5.82,3.53-1.41,7.14-2.62,10.52-4.39,1.2-.63,2.34.16,2.36,1.63.04,2.58,0,5.17-.03,7.75-.02,1.1.16,2.13.55,3.16,2.83,7.51,5.64,15.04,8.46,22.55.16.43.34.89.64,1.24.59.7,1.3.78,1.88-.01.33-.45.57-.97.77-1.49,2.83-7.51,5.64-15.03,8.46-22.55.43-1.16.57-2.32.49-3.58-.15-2.34-.16-4.69-.13-7.04.02-1.57,1.24-2.29,2.63-1.51,3.05,1.72,6.31,2.88,9.61,3.99,3.55,1.2,5.96,3.66,7.4,7.08,2,4.76,3.13,9.72,3.32,14.9.08,2.11.27,4.22.24,6.33-.03,2.63-.78,3.64-3.25,4.42-5.41,1.73-10.98,2.39-16.61,2.81-4.87.36-9.74.58-14.34.45Z"/>
          <path class="cls-1" d="M73.24,40.32c0,2,.06,3.84.69,5.49.94,2.46,1.01,5.07,1.7,7.57.55,1.96-.1,4.01-.98,5.86-.38.81-.7,1.63-.94,2.49-1.42,5.07-4.1,9.27-8.62,12.09-4.37,2.73-8.68,2.29-12.74-.72-3.92-2.9-6.43-6.79-7.6-11.51-.19-.78-.49-1.5-.81-2.24-1.05-2.36-1.62-4.76-.63-7.34.57-1.48-.2-2.97-.43-4.42-1.25-7.73,6.65-18.5,17.64-15.62,3.87,1.01,7.72,2.02,10.92,4.63,1.28,1.04,2.33,2.09,1.81,3.7Z"/>
          <path class="cls-1" d="M55.16,78c2.84.76,5.44.77,8.36-.02-.74,1.62-1.56,2.84-2.46,3.97-.89,1.13-1,1.96.21,2.91,1.57,1.24,1.94,2.82,1.55,4.86-1.06,5.62-1.89,11.28-2.83,16.92-.09.56-.01,1.5-.71,1.5-.71,0-.64-.95-.73-1.5-1.05-6.2-2.04-12.4-3.09-18.6-.18-1.08.46-1.65,1.03-2.32,1.96-2.28,1.94-2.27.31-4.8-.55-.85-1.27-1.61-1.63-2.92Z"/>
        </g>
      </g>
    </g>
  </g>
</svg>