<?xml version="1.0" encoding="utf-8"?>
<!-- Generator: Adobe Illustrator 26.3.1, SVG Export Plug-In . SVG Version: 6.00 Build 0)  -->
<svg version="1.1" id="Layer_1" xmlns="http://www.w3.org/2000/svg" xmlns:xlink="http://www.w3.org/1999/xlink" x="0px" y="0px"
	 viewBox="0 0 200 200" style="enable-background:new 0 0 200 200;" xml:space="preserve">
<style type="text/css">
	.st0{fill:#0067FC;}
</style>
<g>
	<g>
		<g>
			<path class="st0" d="M117.2,143.6h-42c-3,0-5.5-2.5-5.5-5.5V62.6c0-3,2.5-5.5,5.5-5.5H125c3,0,5.5,2.5,5.5,5.5v66.3
				c0,0.3-0.1,0.6-0.3,0.8l-12.1,13.5C117.9,143.5,117.5,143.6,117.2,143.6z M72.1,93.6v44.6c0,1.7,1.3,3,3,3h41.5l11.4-12.8V62.6
				c0-1.7-1.3-3-3-3H75.1c-1.7,0-3,1.3-3,3V93.6z"/>
		</g>
		<g>
			<path class="st0" d="M116.2,143.2c-0.7,0-1.2-0.6-1.2-1.2v-8.8c0-3,2.5-5.5,5.5-5.5h8.8c0.7,0,1.2,0.6,1.2,1.2s-0.6,1.2-1.2,1.2
				h-8.8c-1.7,0-3,1.3-3,3v8.8C117.4,142.6,116.9,143.2,116.2,143.2z"/>
		</g>
	</g>
	<g>
		<g>
			<g>
				<path class="st0" d="M116.7,113.2c-0.7,0-1.2-0.6-1.2-1.2v-4.2h-4.1c-0.7,0-1.2-0.6-1.2-1.2s0.6-1.2,1.2-1.2h5.4
					c0.7,0,1.2,0.6,1.2,1.2v5.5C117.9,112.6,117.4,113.2,116.7,113.2z"/>
			</g>
			<g>
				<path class="st0" d="M83.4,128.9c-0.7,0-1.2-0.6-1.2-1.2v-5.6c0-0.7,0.6-1.2,1.2-1.2s1.2,0.6,1.2,1.2v5.6
					C84.7,128.3,84.1,128.9,83.4,128.9z"/>
			</g>
			<g>
				<path class="st0" d="M91.5,128.4c-0.7,0-1.2-0.6-1.2-1.2v-2.2c0-0.7,0.6-1.2,1.2-1.2s1.2,0.6,1.2,1.2v2.2
					C92.8,127.9,92.2,128.4,91.5,128.4z"/>
			</g>
			<g>
				<path class="st0" d="M99,128.4c-0.7,0-1.2-0.6-1.2-1.2v-9.5c0-0.7,0.6-1.2,1.2-1.2s1.2,0.6,1.2,1.2v9.5
					C100.3,127.9,99.7,128.4,99,128.4z"/>
			</g>
			<g>
				<path class="st0" d="M107.5,128.4c-0.7,0-1.2-0.6-1.2-1.2v-7.3c0-0.7,0.6-1.2,1.2-1.2s1.2,0.6,1.2,1.2v7.3
					C108.7,127.9,108.2,128.4,107.5,128.4z"/>
			</g>
			<g>
				<path class="st0" d="M115.5,128.1c-0.7,0-1.2-0.6-1.2-1.2v-10.9c0-0.7,0.6-1.2,1.2-1.2s1.2,0.6,1.2,1.2v10.9
					C116.8,127.5,116.2,128.1,115.5,128.1z"/>
			</g>
			<g>
				<path class="st0" d="M90.6,121.1c-0.2,0-0.4,0-0.6-0.1l-7.2-3.8c-0.6-0.3-0.8-1.1-0.5-1.7s1.1-0.8,1.7-0.5l6.4,3.3l7.8-7.4
					c0.4-0.4,0.9-0.5,1.4-0.2l7.7,3.7l7.4-7.6c0.5-0.5,1.3-0.5,1.8,0c0.5,0.5,0.5,1.3,0,1.8l-8.1,8.2c-0.4,0.4-1,0.5-1.4,0.3
					l-7.7-3.7l-7.8,7.5C91.3,121,90.9,121.1,90.6,121.1z"/>
			</g>
		</g>
		<g>
			<g>
				<path class="st0" d="M116.7,113.2c-0.7,0-1.2-0.6-1.2-1.2v-4.2h-4.1c-0.7,0-1.2-0.6-1.2-1.2s0.6-1.2,1.2-1.2h5.4
					c0.7,0,1.2,0.6,1.2,1.2v5.5C117.9,112.6,117.4,113.2,116.7,113.2z"/>
			</g>
			<g>
				<path class="st0" d="M83.4,128.9c-0.7,0-1.2-0.6-1.2-1.2v-5.6c0-0.7,0.6-1.2,1.2-1.2s1.2,0.6,1.2,1.2v5.6
					C84.7,128.3,84.1,128.9,83.4,128.9z"/>
			</g>
			<g>
				<path class="st0" d="M91.5,128.4c-0.7,0-1.2-0.6-1.2-1.2v-2.2c0-0.7,0.6-1.2,1.2-1.2s1.2,0.6,1.2,1.2v2.2
					C92.8,127.9,92.2,128.4,91.5,128.4z"/>
			</g>
			<g>
				<path class="st0" d="M99,128.4c-0.7,0-1.2-0.6-1.2-1.2v-9.5c0-0.7,0.6-1.2,1.2-1.2s1.2,0.6,1.2,1.2v9.5
					C100.3,127.9,99.7,128.4,99,128.4z"/>
			</g>
			<g>
				<path class="st0" d="M107.5,128.4c-0.7,0-1.2-0.6-1.2-1.2v-7.3c0-0.7,0.6-1.2,1.2-1.2s1.2,0.6,1.2,1.2v7.3
					C108.7,127.9,108.2,128.4,107.5,128.4z"/>
			</g>
			<g>
				<path class="st0" d="M115.5,128.1c-0.7,0-1.2-0.6-1.2-1.2v-10.9c0-0.7,0.6-1.2,1.2-1.2s1.2,0.6,1.2,1.2v10.9
					C116.8,127.5,116.2,128.1,115.5,128.1z"/>
			</g>
			<g>
				<path class="st0" d="M90.6,121.1c-0.2,0-0.4,0-0.6-0.1l-7.2-3.8c-0.6-0.3-0.8-1.1-0.5-1.7s1.1-0.8,1.7-0.5l6.4,3.3l7.8-7.4
					c0.4-0.4,0.9-0.5,1.4-0.2l7.7,3.7l7.4-7.6c0.5-0.5,1.3-0.5,1.8,0c0.5,0.5,0.5,1.3,0,1.8l-8.1,8.2c-0.4,0.4-1,0.5-1.4,0.3
					l-7.7-3.7l-7.8,7.5C91.3,121,90.9,121.1,90.6,121.1z"/>
			</g>
		</g>
		<g>
			<g>
				<path class="st0" d="M116.7,113.2c-0.7,0-1.2-0.6-1.2-1.2v-4.2h-4.1c-0.7,0-1.2-0.6-1.2-1.2s0.6-1.2,1.2-1.2h5.4
					c0.7,0,1.2,0.6,1.2,1.2v5.5C117.9,112.6,117.4,113.2,116.7,113.2z"/>
			</g>
			<g>
				<path class="st0" d="M83.4,128.9c-0.7,0-1.2-0.6-1.2-1.2v-5.6c0-0.7,0.6-1.2,1.2-1.2s1.2,0.6,1.2,1.2v5.6
					C84.7,128.3,84.1,128.9,83.4,128.9z"/>
			</g>
			<g>
				<path class="st0" d="M91.5,128.4c-0.7,0-1.2-0.6-1.2-1.2v-2.2c0-0.7,0.6-1.2,1.2-1.2s1.2,0.6,1.2,1.2v2.2
					C92.8,127.9,92.2,128.4,91.5,128.4z"/>
			</g>
			<g>
				<path class="st0" d="M99,128.4c-0.7,0-1.2-0.6-1.2-1.2v-9.5c0-0.7,0.6-1.2,1.2-1.2s1.2,0.6,1.2,1.2v9.5
					C100.3,127.9,99.7,128.4,99,128.4z"/>
			</g>
			<g>
				<path class="st0" d="M107.5,128.4c-0.7,0-1.2-0.6-1.2-1.2v-7.3c0-0.7,0.6-1.2,1.2-1.2s1.2,0.6,1.2,1.2v7.3
					C108.7,127.9,108.2,128.4,107.5,128.4z"/>
			</g>
			<g>
				<path class="st0" d="M115.5,128.1c-0.7,0-1.2-0.6-1.2-1.2v-10.9c0-0.7,0.6-1.2,1.2-1.2s1.2,0.6,1.2,1.2v10.9
					C116.8,127.5,116.2,128.1,115.5,128.1z"/>
			</g>
			<g>
				<path class="st0" d="M90.6,121.1c-0.2,0-0.4,0-0.6-0.1l-7.2-3.8c-0.6-0.3-0.8-1.1-0.5-1.7s1.1-0.8,1.7-0.5l6.4,3.3l7.8-7.4
					c0.4-0.4,0.9-0.5,1.4-0.2l7.7,3.7l7.4-7.6c0.5-0.5,1.3-0.5,1.8,0c0.5,0.5,0.5,1.3,0,1.8l-8.1,8.2c-0.4,0.4-1,0.5-1.4,0.3
					l-7.7-3.7l-7.8,7.5C91.3,121,90.9,121.1,90.6,121.1z"/>
			</g>
		</g>
	</g>
	<g>
		<path class="st0" d="M100.1,173.1c-40.1,0-72.7-32.6-72.7-72.7S60,27.7,100.1,27.7s72.7,32.6,72.7,72.7S140.2,173.1,100.1,173.1z
			 M100.1,31.7c-37.9,0-68.7,30.8-68.7,68.7c0,37.9,30.8,68.7,68.7,68.7c37.9,0,68.7-30.8,68.7-68.7C168.8,62.5,138,31.7,100.1,31.7
			z"/>
	</g>
	<g>
		<g>
			<path class="st0" d="M108.8,101.3c-4.1,0-7.4-3.3-7.4-7.4s3.3-7.4,7.4-7.4s7.4,3.3,7.4,7.4S112.8,101.3,108.8,101.3z M108.8,89.1
				c-2.7,0-4.9,2.2-4.9,4.9s2.2,4.9,4.9,4.9s4.9-2.2,4.9-4.9S111.5,89.1,108.8,89.1z"/>
		</g>
		<g>
			<path class="st0" d="M91.3,87.7c-4.1,0-7.4-3.3-7.4-7.4s3.3-7.4,7.4-7.4s7.4,3.3,7.4,7.4S95.4,87.7,91.3,87.7z M91.3,75.5
				c-2.7,0-4.9,2.2-4.9,4.9s2.2,4.9,4.9,4.9s4.9-2.2,4.9-4.9S94,75.5,91.3,75.5z"/>
		</g>
		<g>
			<path class="st0" d="M93.9,101.5c-0.2,0-0.4,0-0.5-0.1c-0.6-0.3-0.9-1-0.6-1.7L104,75.6c0.3-0.6,1-0.9,1.7-0.6
				c0.6,0.3,0.9,1,0.6,1.7l-11.2,24.2C94.9,101.3,94.4,101.5,93.9,101.5z"/>
		</g>
	</g>
</g>
</svg>
