<?xml version="1.0" encoding="utf-8"?>
<!-- Generator: Adobe Illustrator 26.3.1, SVG Export Plug-In . SVG Version: 6.00 Build 0)  -->
<svg version="1.1" id="Layer_1" xmlns="http://www.w3.org/2000/svg" xmlns:xlink="http://www.w3.org/1999/xlink" x="0px" y="0px"
	 viewBox="0 0 200 200" style="enable-background:new 0 0 200 200;" xml:space="preserve">
<style type="text/css">
	.st0{fill:#0067FC;}
</style>
<g>
	<g>
		<g>
			<path class="st0" d="M117.2,143.6h-42c-3,0-5.5-2.5-5.5-5.5V62.6c0-3,2.5-5.5,5.5-5.5H125c3,0,5.5,2.5,5.5,5.5v66.3
				c0,0.3-0.1,0.6-0.3,0.8l-12.1,13.5C117.9,143.5,117.5,143.6,117.2,143.6z M72.1,93.6v44.6c0,1.7,1.3,3,3,3h41.5l11.4-12.8V62.6
				c0-1.7-1.3-3-3-3H75.1c-1.7,0-3,1.3-3,3V93.6z"/>
		</g>
		<g>
			<path class="st0" d="M116.2,143.2c-0.7,0-1.2-0.6-1.2-1.2v-8.8c0-3,2.5-5.5,5.5-5.5h8.8c0.7,0,1.2,0.6,1.2,1.2s-0.6,1.2-1.2,1.2
				h-8.8c-1.7,0-3,1.3-3,3v8.8C117.4,142.6,116.9,143.2,116.2,143.2z"/>
		</g>
	</g>
	<g>
		<g>
			<path class="st0" d="M117.7,106.9h-27c-0.7,0-1.2-0.6-1.2-1.2s0.6-1.2,1.2-1.2h27c0.7,0,1.2,0.6,1.2,1.2S118.4,106.9,117.7,106.9
				z"/>
		</g>
		<g>
			<path class="st0" d="M117.7,113.9h-27c-0.7,0-1.2-0.6-1.2-1.2s0.6-1.2,1.2-1.2h27c0.7,0,1.2,0.6,1.2,1.2S118.4,113.9,117.7,113.9
				z"/>
		</g>
		<g>
			<path class="st0" d="M107.7,120.9h-17c-0.7,0-1.2-0.6-1.2-1.2s0.6-1.2,1.2-1.2h17c0.7,0,1.2,0.6,1.2,1.2S108.4,120.9,107.7,120.9
				z"/>
		</g>
		<g>
			<path class="st0" d="M83.8,108.3c-0.3,0-0.6-0.1-0.9-0.4l-1.4-1.4c-0.5-0.5-0.5-1.3,0-1.8c0.5-0.5,1.3-0.5,1.8,0l0.5,0.5l1.9-1.9
				c0.5-0.5,1.3-0.5,1.8,0s0.5,1.3,0,1.8l-2.8,2.8C84.4,108.2,84.1,108.3,83.8,108.3z"/>
		</g>
		<g>
			<path class="st0" d="M83.8,115.3c-0.3,0-0.6-0.1-0.9-0.4l-1.4-1.4c-0.5-0.5-0.5-1.3,0-1.8s1.3-0.5,1.8,0l0.5,0.5l1.9-1.9
				c0.5-0.5,1.3-0.5,1.8,0s0.5,1.3,0,1.8l-2.8,2.8C84.4,115.2,84.1,115.3,83.8,115.3z"/>
		</g>
		<g>
			<path class="st0" d="M83.8,121.8c-0.3,0-0.6-0.1-0.9-0.4l-1.4-1.4c-0.5-0.5-0.5-1.3,0-1.8c0.5-0.5,1.3-0.5,1.8,0l0.5,0.5l1.9-1.9
				c0.5-0.5,1.3-0.5,1.8,0s0.5,1.3,0,1.8l-2.8,2.8C84.4,121.7,84.1,121.8,83.8,121.8z"/>
		</g>
	</g>
	<g>
		<path class="st0" d="M100.1,173.1c-40.1,0-72.7-32.6-72.7-72.7S60,27.7,100.1,27.7s72.7,32.6,72.7,72.7S140.2,173.1,100.1,173.1z
			 M100.1,31.7c-37.9,0-68.7,30.8-68.7,68.7c0,37.9,30.8,68.7,68.7,68.7c37.9,0,68.7-30.8,68.7-68.7C168.8,62.5,138,31.7,100.1,31.7
			z"/>
	</g>
	<g>
		<g>
			<path class="st0" d="M100.8,87.9c-0.3,0-0.5,0-0.8,0c0,0,0,0,0,0c-14.3,0-21.2-8.6-21.4-9c-0.3-0.4-0.4-1-0.1-1.4
				c0.3-0.4,6.3-9.6,21.6-9.1c15.6,0.4,21.3,8.7,21.5,9.1c0.3,0.5,0.3,1.1-0.1,1.5C121.1,79.3,113,87.9,100.8,87.9z M100.1,85.4
				c9.4,0.3,16.5-5.3,18.8-7.4c-1.8-2-7.4-6.8-18.9-7.2C88.5,70.5,82.9,76,81.2,78C83.1,80,89.3,85.4,100.1,85.4
				C100,85.4,100.1,85.4,100.1,85.4z"/>
		</g>
		<g>
			<path class="st0" d="M100.1,84.3c-3.4,0-6.2-2.8-6.2-6.2s2.8-6.2,6.2-6.2s6.2,2.8,6.2,6.2S103.5,84.3,100.1,84.3z M100.1,74.4
				c-2,0-3.7,1.7-3.7,3.7s1.7,3.7,3.7,3.7c2,0,3.7-1.7,3.7-3.7S102.1,74.4,100.1,74.4z"/>
		</g>
	</g>
</g>
</svg>
