<?xml version="1.0" encoding="utf-8"?>
<!-- Generator: Adobe Illustrator 26.3.1, SVG Export Plug-In . SVG Version: 6.00 Build 0)  -->
<svg version="1.1" id="Layer_1" xmlns="http://www.w3.org/2000/svg" xmlns:xlink="http://www.w3.org/1999/xlink" x="0px" y="0px"
	 viewBox="0 0 200 200" style="enable-background:new 0 0 200 200;" xml:space="preserve">
<style type="text/css">
	.st0{fill:#0067FC;}
</style>
<g>
	<g id="Group_263_00000147218801846291256490000001831011414033494449_" transform="translate(-598.5 -520.001)">
		<g id="Group_259_00000054230736149181386560000008626777527103997063_" transform="translate(549.903 487.744)">
			<g id="Ellipse_9_00000168836392424393229540000004989665613719290256_">
				<path class="st0" d="M148.7,116.2c-2.6,0-4.8-2.2-4.8-4.8s2.2-4.8,4.8-4.8s4.8,2.2,4.8,4.8S151.3,116.2,148.7,116.2z
					 M148.7,109.1c-1.3,0-2.3,1-2.3,2.3s1,2.3,2.3,2.3c1.3,0,2.3-1,2.3-2.3S149.9,109.1,148.7,109.1z"/>
			</g>
			<g id="Path_16_00000137844948294618198970000001445449584197527991_">
				<path class="st0" d="M154.4,125.8c-0.7,0-1.2-0.6-1.2-1.2c0-2.5-2-4.5-4.5-4.5c-2.5,0-4.5,2-4.5,4.5c0,0.7-0.6,1.2-1.2,1.2
					s-1.2-0.6-1.2-1.2c0-3.9,3.2-7,7-7s7,3.2,7,7C155.7,125.3,155.1,125.8,154.4,125.8z"/>
			</g>
		</g>
	</g>
	<g>
		<path class="st0" d="M85.8,130c-5.4,0-9.7-4.4-9.7-9.7c0-5.4,4.4-9.7,9.7-9.7c5.4,0,9.7,4.4,9.7,9.7C95.6,125.7,91.2,130,85.8,130
			z M85.8,113.1c-4,0-7.2,3.2-7.2,7.2c0,4,3.2,7.2,7.2,7.2s7.2-3.2,7.2-7.2C93.1,116.3,89.8,113.1,85.8,113.1z"/>
	</g>
	<g>
		<path class="st0" d="M100.1,101.6c-9.7,0-17.6-7.9-17.6-17.6s7.9-17.6,17.6-17.6c9.7,0,17.6,7.9,17.6,17.6
			S109.8,101.6,100.1,101.6z M100.1,68.8c-8.4,0-15.1,6.8-15.1,15.1s6.8,15.1,15.1,15.1s15.1-6.8,15.1-15.1S108.4,68.8,100.1,68.8z"
			/>
	</g>
	<g>
		<path class="st0" d="M117.2,143.6h-42c-3,0-5.5-2.5-5.5-5.5V62.6c0-3,2.5-5.5,5.5-5.5H125c3,0,5.5,2.5,5.5,5.5v66.3
			c0,0.3-0.1,0.6-0.3,0.8l-12.1,13.5C117.9,143.5,117.5,143.6,117.2,143.6z M72.1,93.6v44.6c0,1.7,1.3,3,3,3h41.5l11.4-12.8V62.6
			c0-1.7-1.3-3-3-3H75.1c-1.7,0-3,1.3-3,3V93.6z"/>
	</g>
	<g>
		<path class="st0" d="M116.2,143.2c-0.7,0-1.2-0.6-1.2-1.2v-8.8c0-3,2.5-5.5,5.5-5.5h8.8c0.7,0,1.2,0.6,1.2,1.2s-0.6,1.2-1.2,1.2
			h-8.8c-1.7,0-3,1.3-3,3v8.8C117.4,142.6,116.9,143.2,116.2,143.2z"/>
	</g>
	<g>
		<g>
			<path class="st0" d="M123.6,117.6h-23c-0.7,0-1.2-0.6-1.2-1.2s0.6-1.2,1.2-1.2h23c0.7,0,1.2,0.6,1.2,1.2S124.2,117.6,123.6,117.6
				z"/>
		</g>
		<g>
			<path class="st0" d="M116.5,124.6h-16c-0.7,0-1.2-0.6-1.2-1.2s0.6-1.2,1.2-1.2h16c0.7,0,1.2,0.6,1.2,1.2S117.2,124.6,116.5,124.6
				z"/>
		</g>
	</g>
	<g>
		<path class="st0" d="M100.1,173.1c-40.1,0-72.7-32.6-72.7-72.7S60,27.7,100.1,27.7s72.7,32.6,72.7,72.7S140.2,173.1,100.1,173.1z
			 M100.1,31.7c-37.9,0-68.7,30.8-68.7,68.7c0,37.9,30.8,68.7,68.7,68.7c37.9,0,68.7-30.8,68.7-68.7C168.8,62.5,138,31.7,100.1,31.7
			z"/>
	</g>
	<g>
		<path class="st0" d="M84.2,124.7C84.2,124.7,84.2,124.7,84.2,124.7c-0.4,0-0.7-0.2-1-0.5l-1.4-1.7c-0.4-0.5-0.4-1.3,0.2-1.8
			c0.5-0.4,1.3-0.4,1.8,0.2l0.6,0.7l4.5-4.2c0.5-0.5,1.3-0.4,1.8,0.1c0.5,0.5,0.4,1.3-0.1,1.8l-5.5,5.1
			C84.8,124.6,84.5,124.7,84.2,124.7z"/>
	</g>
</g>
</svg>
