<?xml version="1.0" encoding="UTF-8"?>
<svg id="Layer_2" xmlns="http://www.w3.org/2000/svg" viewBox="0 0 145.4 145.4">
  <defs>
    <style>
      .cls-1 {
        fill: #0067fc;
      }
    </style>
  </defs>
  <g id="Layer_1-2" data-name="Layer_1">
    <g>
      <g>
        <path class="cls-1" d="M26.66,71.7c10.19-10.27,21.95-17.88,36.23-21.06,9.4-2.1,18.61-1.06,27.58,2.34,9.98,3.78,18.66,9.57,26.35,16.92.31.29.61.59.9.9,1.35,1.41,1.37,2.47,0,3.85-3.44,3.51-7.22,6.6-11.27,9.37-7.05,4.82-14.57,8.6-22.94,10.56-9.15,2.14-18.14,1.54-27.02-1.51-9.14-3.15-17.2-8.13-24.55-14.33-1.86-1.57-3.56-3.29-5.29-4.99v-2.04ZM72.61,55.41c-9.48-.03-17.26,7.7-17.28,17.16-.02,9.72,7.6,17.44,17.23,17.47,9.6.03,17.39-7.65,17.4-17.17.01-9.78-7.59-17.43-17.35-17.46ZM57.97,56.7c-.52.14-.72.19-.91.24-.2.06-.41.12-.61.19-8.73,3.35-16.4,8.4-23.39,14.54-1.16,1.01-1.13,1.07.04,2.11,4.89,4.33,10.18,8.11,15.97,11.16,2.77,1.46,5.59,2.84,8.78,3.76-10.37-10.16-8.18-24.28.12-32.01ZM87.65,88.68c.55-.19,1.11-.37,1.66-.59,8.56-3.32,16.05-8.34,22.93-14.34,1.15-1,1.13-1.06-.06-2.12-5.05-4.48-10.54-8.34-16.53-11.45-2.58-1.34-5.21-2.61-8.21-3.45,9.8,9.47,8.85,23.51.23,31.94Z"/>
        <path class="cls-1" d="M84.15,72.77c-.1,6.36-5.34,11.52-11.64,11.47-6.12-.05-11.42-5.4-11.37-11.49.06-6.41,5.36-11.63,11.71-11.52,6.14.1,11.4,5.48,11.31,11.55Z"/>
      </g>
      <path class="cls-1" d="M72.7,145.4C32.6,145.4,0,112.8,0,72.7S32.6,0,72.7,0s72.7,32.6,72.7,72.7-32.6,72.7-72.7,72.7ZM72.7,4C34.8,4,4,34.8,4,72.7s30.8,68.7,68.7,68.7,68.7-30.8,68.7-68.7S110.6,4,72.7,4Z"/>
    </g>
  </g>
</svg>