<?xml version="1.0" encoding="utf-8"?>
<!-- Generator: Adobe Illustrator 26.3.1, SVG Export Plug-In . SVG Version: 6.00 Build 0)  -->
<svg version="1.1" id="Layer_1" xmlns="http://www.w3.org/2000/svg" xmlns:xlink="http://www.w3.org/1999/xlink" x="0px" y="0px"
	 viewBox="0 0 200 200" style="enable-background:new 0 0 200 200;" xml:space="preserve">
<style type="text/css">
	.st0{fill:#0067FC;}
</style>
<g>
	<g>
		<g>
			<path class="st0" d="M117.2,143.6h-42c-3,0-5.5-2.5-5.5-5.5V62.6c0-3,2.5-5.5,5.5-5.5H125c3,0,5.5,2.5,5.5,5.5v66.3
				c0,0.3-0.1,0.6-0.3,0.8l-12.1,13.5C117.9,143.5,117.5,143.6,117.2,143.6z M72.1,93.6v44.6c0,1.7,1.3,3,3,3h41.5l11.4-12.8V62.6
				c0-1.7-1.3-3-3-3H75.1c-1.7,0-3,1.3-3,3V93.6z"/>
		</g>
		<g>
			<path class="st0" d="M116.2,143.2c-0.7,0-1.2-0.6-1.2-1.2v-8.8c0-3,2.5-5.5,5.5-5.5h8.8c0.7,0,1.2,0.6,1.2,1.2s-0.6,1.2-1.2,1.2
				h-8.8c-1.7,0-3,1.3-3,3v8.8C117.4,142.6,116.9,143.2,116.2,143.2z"/>
		</g>
	</g>
	<g>
		<g>
			<path class="st0" d="M117.7,111.8h-27c-0.7,0-1.2-0.6-1.2-1.2s0.6-1.2,1.2-1.2h27c0.7,0,1.2,0.6,1.2,1.2S118.4,111.8,117.7,111.8
				z"/>
		</g>
		<g>
			<path class="st0" d="M117.7,118.9h-27c-0.7,0-1.2-0.6-1.2-1.2s0.6-1.2,1.2-1.2h27c0.7,0,1.2,0.6,1.2,1.2S118.4,118.9,117.7,118.9
				z"/>
		</g>
		<g>
			<path class="st0" d="M107.7,125.9h-17c-0.7,0-1.2-0.6-1.2-1.2s0.6-1.2,1.2-1.2h17c0.7,0,1.2,0.6,1.2,1.2S108.4,125.9,107.7,125.9
				z"/>
		</g>
		<g>
			<path class="st0" d="M83.8,113.2c-0.3,0-0.6-0.1-0.9-0.4l-1.4-1.4c-0.5-0.5-0.5-1.3,0-1.8c0.5-0.5,1.3-0.5,1.8,0l0.5,0.5l1.9-1.9
				c0.5-0.5,1.3-0.5,1.8,0s0.5,1.3,0,1.8l-2.8,2.8C84.4,113.1,84.1,113.2,83.8,113.2z"/>
		</g>
		<g>
			<path class="st0" d="M83.8,120.3c-0.3,0-0.6-0.1-0.9-0.4l-1.4-1.4c-0.5-0.5-0.5-1.3,0-1.8s1.3-0.5,1.8,0l0.5,0.5l1.9-1.9
				c0.5-0.5,1.3-0.5,1.8,0s0.5,1.3,0,1.8l-2.8,2.8C84.4,120.2,84.1,120.3,83.8,120.3z"/>
		</g>
		<g>
			<path class="st0" d="M83.8,126.7c-0.3,0-0.6-0.1-0.9-0.4l-1.4-1.4c-0.5-0.5-0.5-1.3,0-1.8c0.5-0.5,1.3-0.5,1.8,0l0.5,0.5l1.9-1.9
				c0.5-0.5,1.3-0.5,1.8,0s0.5,1.3,0,1.8l-2.8,2.8C84.4,126.6,84.1,126.7,83.8,126.7z"/>
		</g>
	</g>
	<g>
		<g>
			<path class="st0" d="M117.7,80.4h-27c-0.7,0-1.2-0.6-1.2-1.2s0.6-1.2,1.2-1.2h27c0.7,0,1.2,0.6,1.2,1.2S118.4,80.4,117.7,80.4z"
				/>
		</g>
		<g>
			<path class="st0" d="M117.7,87.4h-27c-0.7,0-1.2-0.6-1.2-1.2s0.6-1.2,1.2-1.2h27c0.7,0,1.2,0.6,1.2,1.2S118.4,87.4,117.7,87.4z"
				/>
		</g>
		<g>
			<path class="st0" d="M107.7,94.5h-17c-0.7,0-1.2-0.6-1.2-1.2S90,92,90.7,92h17c0.7,0,1.2,0.6,1.2,1.2S108.4,94.5,107.7,94.5z"/>
		</g>
		<g>
			<path class="st0" d="M83.8,81.8c-0.3,0-0.6-0.1-0.9-0.4L81.5,80c-0.5-0.5-0.5-1.3,0-1.8s1.3-0.5,1.8,0l0.5,0.5l1.9-1.9
				c0.5-0.5,1.3-0.5,1.8,0c0.5,0.5,0.5,1.3,0,1.8l-2.8,2.8C84.4,81.7,84.1,81.8,83.8,81.8z"/>
		</g>
		<g>
			<path class="st0" d="M83.8,88.8c-0.3,0-0.6-0.1-0.9-0.4l-1.4-1.4c-0.5-0.5-0.5-1.3,0-1.8c0.5-0.5,1.3-0.5,1.8,0l0.5,0.5l1.9-1.9
				c0.5-0.5,1.3-0.5,1.8,0s0.5,1.3,0,1.8l-2.8,2.8C84.4,88.7,84.1,88.8,83.8,88.8z"/>
		</g>
		<g>
			<path class="st0" d="M83.8,95.3c-0.3,0-0.6-0.1-0.9-0.4l-1.4-1.4c-0.5-0.5-0.5-1.3,0-1.8c0.5-0.5,1.3-0.5,1.8,0l0.5,0.5l1.9-1.9
				c0.5-0.5,1.3-0.5,1.8,0s0.5,1.3,0,1.8l-2.8,2.8C84.4,95.2,84.1,95.3,83.8,95.3z"/>
		</g>
	</g>
	<g>
		<path class="st0" d="M100.1,173.1c-40.1,0-72.7-32.6-72.7-72.7S60,27.7,100.1,27.7s72.7,32.6,72.7,72.7S140.2,173.1,100.1,173.1z
			 M100.1,31.7c-37.9,0-68.7,30.8-68.7,68.7c0,37.9,30.8,68.7,68.7,68.7c37.9,0,68.7-30.8,68.7-68.7C168.8,62.5,138,31.7,100.1,31.7
			z"/>
	</g>
</g>
</svg>
