<?xml version="1.0" encoding="utf-8"?>
<!-- Generator: Adobe Illustrator 26.4.0, SVG Export Plug-In . SVG Version: 6.00 Build 0)  -->
<svg version="1.1" id="Layer_1" xmlns="http://www.w3.org/2000/svg" xmlns:xlink="http://www.w3.org/1999/xlink" x="0px" y="0px"
	 viewBox="0 0 200 200" style="enable-background:new 0 0 200 200;" xml:space="preserve">
<style type="text/css">
	.st0{fill:#0067FC;}
</style>
<g>
	<g>
		<g>
			<g>
				<path class="st0" d="M88.6,121.4c-1.8,0-3.7-0.7-5.1-2.1c-2.8-2.8-2.8-7.4,0-10.2l0,0c0,0,0,0,0,0c1.4-1.4,3.2-2.1,5.1-2.1
					c1.9,0,3.7,0.8,5.1,2.1c1.4,1.4,2.1,3.2,2.1,5.1s-0.8,3.7-2.1,5.1C92.3,120.7,90.5,121.4,88.6,121.4z M88.6,108.5
					c-1.5,0-2.9,0.6-4,1.7l0,0c-2.2,2.2-2.2,5.8,0,8c2.2,2.2,5.8,2.2,8,0c1.1-1.1,1.7-2.5,1.7-4c0-1.5-0.6-2.9-1.7-4
					S90.1,108.5,88.6,108.5z M84.1,109.7L84.1,109.7L84.1,109.7z"/>
			</g>
			<g>
				<path class="st0" d="M88.4,130.4c-0.3,0-0.6,0-0.9,0c-0.3,0-0.6-0.1-0.8-0.2c-0.1,0-0.2-0.1-0.2-0.1c-0.2,0-0.3-0.2-0.4-0.3
					c-0.4-0.5-0.4-1-0.4-1.5c0-1-0.6-1.9-1.4-2.3c-0.8-0.5-1.9-0.4-2.7,0.1c-0.2,0.1-0.4,0.3-0.6,0.5c-0.8,0.7-1.9,0.7-2.7,0
					c-0.5-0.4-0.9-0.9-1.4-1.4l-0.3-0.3c-0.9-0.9-0.9-2,0-2.9c0.5-0.5,0.8-1.2,0.8-2c0-0.7-0.3-1.4-0.8-1.9
					c-0.5-0.5-1.1-0.7-1.8-0.8c-1.3,0-2-0.8-2-2.1l0-0.7c0-0.5,0-1,0-1.5c0-1.2,0.8-2,2-2c1.3,0,2.1-0.6,2.5-1.7
					c0.5-1.1,0.2-2.1-0.6-3c-0.8-0.8-0.8-1.9,0-2.7c0.5-0.6,1.1-1.1,1.6-1.7c0.8-0.8,1.9-0.8,2.8,0c0.9,0.9,1.9,1.1,3,0.6
					c1.1-0.4,1.6-1.3,1.7-2.5c0-1.2,0.8-2,2-2c0.8,0,1.5,0,2.3,0c1.2,0,1.9,0.8,2,1.9c0,1.3,0.6,2.1,1.7,2.5c1.1,0.4,2.1,0.2,3-0.6
					c0.9-0.8,2-0.8,2.8,0c0.5,0.5,1.1,1.1,1.6,1.6c0.9,0.9,0.9,1.9,0,2.8c-0.5,0.6-0.8,1.3-0.8,2c0,0.7,0.3,1.4,0.9,1.9
					c0.5,0.5,1.1,0.7,1.8,0.7c1.3,0,2,0.8,2.1,2.1l0,2.1c0,1.3-0.7,2-2,2.1c-1,0-1.9,0.6-2.4,1.4c-0.5,0.8-0.4,1.8,0.1,2.7
					c0.1,0.2,0.3,0.4,0.5,0.6c0.7,0.8,0.7,1.9,0,2.7c-0.6,0.6-1.1,1.1-1.7,1.7c-0.8,0.8-1.9,0.8-2.8,0c-1.1-1.1-2.8-1.1-3.9,0
					c-0.5,0.5-0.8,1.1-0.8,1.8c0,1.3-0.8,2-2.1,2l-0.6,0C88.8,130.3,88.6,130.4,88.4,130.4z M87.1,128.7c0.2,0.1,0.3,0.1,0.4,0.1
					c0.5,0,1,0,1.5,0l0.6,0c0.5,0,0.6-0.1,0.6-0.6c0-1.1,0.4-2.1,1.2-2.9c1.7-1.7,4.3-1.7,6.1,0c0.3,0.3,0.4,0.2,0.6,0
					c0.6-0.6,1.1-1.1,1.7-1.7c0.1-0.1,0.2-0.3,0-0.6c-0.3-0.3-0.5-0.6-0.7-0.9c-0.8-1.3-0.8-2.9-0.1-4.2c0.7-1.3,2.1-2.2,3.7-2.2
					c0.5,0,0.5-0.1,0.5-0.5l0-2.1c0-0.5-0.1-0.6-0.6-0.6c-1.1,0-2-0.4-2.8-1.1c-0.8-0.8-1.3-1.9-1.4-3c0-1.2,0.4-2.3,1.2-3.1
					c0.3-0.3,0.3-0.4,0-0.7c-0.5-0.5-1.1-1.1-1.6-1.6c-0.3-0.3-0.4-0.3-0.7,0c-1.4,1.3-3,1.6-4.6,0.9c-1.7-0.7-2.6-2-2.6-3.9
					c0-0.4-0.1-0.5-0.5-0.5c-0.7,0-1.5,0-2.2,0c-0.4,0-0.5,0.1-0.5,0.5c-0.1,1.9-1,3.2-2.7,3.9c-1.7,0.7-3.3,0.4-4.6-0.9
					c-0.2-0.2-0.4-0.2-0.6,0c-0.5,0.5-1.1,1.1-1.6,1.6c-0.2,0.2-0.2,0.4,0,0.6c1.3,1.4,1.6,3,0.9,4.7c-0.7,1.7-2,2.6-3.9,2.6
					c-0.4,0-0.5,0.1-0.5,0.5c0,0.5,0,1,0,1.5l0,0.7c0,0.5,0.1,0.6,0.6,0.6c1.1,0,2.1,0.4,2.8,1.2c0.8,0.8,1.3,1.8,1.3,3
					c0,1.2-0.4,2.2-1.2,3.1c-0.3,0.3-0.3,0.4,0,0.7l0.3,0.3c0.4,0.4,0.9,0.9,1.3,1.3c0.1,0.1,0.3,0.2,0.6,0c0.3-0.3,0.6-0.5,0.9-0.7
					c1.3-0.8,2.9-0.8,4.2-0.1c1.3,0.7,2.2,2.1,2.2,3.6C87,128.4,87,128.6,87.1,128.7z"/>
			</g>
		</g>
		<g>
			<g>
				<path class="st0" d="M115.1,113.5c-1.5,0-2.9-0.6-4-1.7c-1.1-1.1-1.7-2.5-1.7-4s0.6-3,1.7-4c2.2-2.2,5.9-2.2,8.1,0
					c1.1,1.1,1.7,2.5,1.7,4s-0.6,3-1.7,4C118,112.9,116.5,113.5,115.1,113.5z M115.1,103.6c-1.1,0-2.1,0.4-3,1.2l0,0
					c-0.8,0.8-1.2,1.8-1.2,3s0.4,2.2,1.2,3c1.6,1.6,4.3,1.6,5.9,0c0.8-0.8,1.2-1.8,1.2-3s-0.4-2.2-1.2-3
					C117.2,104,116.1,103.6,115.1,103.6z M111.6,104.3L111.6,104.3L111.6,104.3z"/>
			</g>
			<g>
				<path class="st0" d="M114.9,120.3c-0.2,0-0.5,0-0.7,0c-0.3,0-0.5-0.1-0.7-0.2l-0.2-0.1c-0.2,0-0.3-0.2-0.4-0.3
					c-0.3-0.4-0.4-0.9-0.4-1.2c0-0.7-0.4-1.3-1-1.6c-0.6-0.3-1.3-0.3-1.9,0c-0.1,0.1-0.3,0.2-0.5,0.4c-0.7,0.6-1.6,0.6-2.3,0
					c-0.3-0.3-0.7-0.7-1-1l-0.2-0.2c-0.8-0.8-0.8-1.7,0-2.5c0.4-0.4,0.6-0.9,0.6-1.4c0-0.5-0.2-1-0.6-1.3c-0.4-0.3-0.8-0.5-1.3-0.5
					c-1.1,0-1.7-0.7-1.7-1.8l0-0.5c0-0.4,0-0.7,0-1.1c0-1,0.7-1.7,1.7-1.7c0.9,0,1.5-0.4,1.8-1.2c0.3-0.8,0.2-1.5-0.4-2.1
					c-0.7-0.7-0.7-1.7,0-2.4c0.4-0.4,0.8-0.8,1.3-1.3c0.7-0.7,1.7-0.7,2.4,0c0.7,0.6,1.3,0.8,2.1,0.4c0.8-0.3,1.2-0.9,1.2-1.8
					c0-1,0.7-1.7,1.7-1.7c0.6,0,1.2,0,1.7,0c1,0,1.7,0.7,1.7,1.7c0,0.9,0.4,1.5,1.2,1.8c0.8,0.3,1.5,0.2,2.1-0.4
					c0.7-0.7,1.7-0.7,2.4,0c0.4,0.4,0.8,0.8,1.2,1.2c0.7,0.7,0.7,1.7,0,2.4c-0.4,0.4-0.6,0.9-0.6,1.4c0,0.5,0.2,1,0.6,1.3
					c0.4,0.3,0.8,0.5,1.3,0.5c1.1,0,1.7,0.7,1.8,1.8v1.6c0,1.1-0.6,1.7-1.7,1.8c-0.7,0-1.3,0.4-1.7,1c-0.3,0.6-0.3,1.3,0,1.9
					c0.1,0.1,0.2,0.3,0.4,0.5c0.6,0.7,0.6,1.6,0,2.3c-0.4,0.4-0.8,0.8-1.2,1.2l-0.1,0.1c-0.7,0.7-1.7,0.7-2.4,0
					c-0.8-0.8-2-0.8-2.7,0c-0.4,0.4-0.5,0.8-0.5,1.3c0,1.1-0.7,1.7-1.8,1.7l-0.5,0C115.2,120.3,115,120.3,114.9,120.3z M114,118.8
					c0.1,0,0.1,0,0.2,0c0.4,0,0.8,0,1.2,0l0.5,0c0.2,0,0.2,0,0.3,0c0,0,0-0.1,0-0.2c0-0.9,0.4-1.7,1-2.3c1.3-1.4,3.5-1.4,4.9,0
					c0.1,0.1,0.1,0.1,0.1,0.1c0,0,0,0,0.1-0.1l0.1-0.1c0.4-0.4,0.8-0.8,1.2-1.2c0.1-0.1,0.1-0.1,0-0.2c-0.2-0.2-0.4-0.4-0.5-0.7
					c-0.6-1.1-0.7-2.3-0.1-3.4c0.6-1.1,1.7-1.8,3-1.8c0.1,0,0.2,0,0.2,0c0,0,0-0.1,0-0.2V107c0-0.2,0-0.2,0-0.3c0,0-0.1,0-0.2,0
					c-0.9,0-1.6-0.3-2.3-0.9c-0.7-0.6-1.1-1.5-1.1-2.4c0-0.9,0.3-1.8,1-2.5c0.1-0.1,0.1-0.1,0.1-0.1c0,0,0,0-0.1-0.1
					c-0.4-0.4-0.8-0.8-1.2-1.2c-0.1-0.1-0.1-0.1-0.1-0.1c0,0,0,0-0.1,0.1c-1.1,1-2.4,1.3-3.7,0.7c-1.3-0.6-2.1-1.6-2.1-3.2
					c0-0.1,0-0.2,0-0.2c0,0,0,0-0.2,0c-0.6,0-1.1,0-1.7,0c-0.1,0-0.2,0-0.2,0c0,0,0,0.1,0,0.2c-0.1,1.5-0.8,2.6-2.2,3.2
					c-1.3,0.5-2.7,0.3-3.7-0.8c-0.1-0.1-0.1-0.1-0.1-0.1c0,0,0,0-0.1,0.1c-0.4,0.4-0.8,0.8-1.3,1.3c-0.1,0.1-0.1,0.1-0.1,0.1
					c0,0,0,0,0.1,0.1c1.1,1.1,1.3,2.4,0.8,3.8c-0.6,1.3-1.6,2.1-3.2,2.1c-0.1,0-0.2,0-0.2,0c0,0,0,0,0,0.2c0,0.4,0,0.7,0,1.1l0,0.6
					c0,0.2,0,0.2,0,0.3c0,0,0.1,0,0.2,0c0.9,0,1.7,0.3,2.3,1c0.7,0.6,1,1.5,1.1,2.4c0,0.9-0.3,1.8-1,2.5c-0.1,0.1-0.1,0.1-0.1,0.2
					c0,0,0,0.1,0.1,0.1l0.2,0.3c0.3,0.3,0.7,0.7,1,1c0.1,0.1,0.1,0.1,0.2,0c0.2-0.2,0.4-0.4,0.7-0.5c1.1-0.6,2.3-0.7,3.4-0.1
					c1.1,0.6,1.7,1.7,1.8,2.9C114,118.6,114,118.7,114,118.8z"/>
			</g>
		</g>
		<g>
			<g>
				<path class="st0" d="M103.5,93.2c-1.3,0-2.6-0.5-3.5-1.5c-1.9-1.9-1.9-5.1,0-7.1c0,0,0,0,0,0c1.9-1.9,5.1-1.9,7.1,0
					c1.9,1.9,1.9,5.1,0,7.1C106.1,92.8,104.8,93.2,103.5,93.2z M101.1,85.8c-0.7,0.7-1,1.5-1,2.4c0,0.9,0.4,1.8,1,2.4
					c1.3,1.3,3.5,1.3,4.9,0c0.7-0.7,1-1.5,1-2.4c0-0.9-0.4-1.8-1-2.4C104.6,84.5,102.4,84.5,101.1,85.8L101.1,85.8z"/>
			</g>
			<g>
				<path class="st0" d="M103.4,99.1c-0.2,0-0.4,0-0.6,0c-0.2,0-0.4-0.1-0.6-0.1l-0.1,0c-0.2,0-0.3-0.2-0.4-0.3
					c-0.3-0.4-0.3-0.8-0.3-1.1c0-0.6-0.3-1-0.8-1.3c-0.5-0.3-1-0.2-1.5,0c-0.1,0.1-0.3,0.2-0.4,0.3c-0.6,0.6-1.5,0.6-2.1,0
					c-0.3-0.3-0.6-0.6-0.8-0.8l-0.2-0.2c-0.7-0.7-0.7-1.6,0-2.3c0.3-0.3,0.4-0.7,0.4-1.1c0-0.4-0.2-0.8-0.5-1.1
					c-0.3-0.3-0.6-0.4-1-0.4c-1,0-1.6-0.6-1.6-1.7l0-0.4l0-1c0-0.9,0.6-1.5,1.5-1.6c0.7,0,1.2-0.3,1.4-0.9c0.3-0.6,0.1-1.2-0.4-1.7
					c-0.6-0.6-0.6-1.5,0-2.2c0.4-0.4,0.7-0.7,1.1-1.1c0.6-0.6,1.5-0.6,2.2,0c0.5,0.5,1.1,0.6,1.7,0.4c0.6-0.3,0.9-0.7,0.9-1.4
					c0-0.9,0.7-1.5,1.6-1.5c0.5,0,1,0,1.5,0c0.9,0,1.5,0.6,1.6,1.5c0,0.7,0.3,1.2,0.9,1.4c0.6,0.3,1.2,0.1,1.7-0.3
					c0.7-0.6,1.5-0.6,2.2,0c0.4,0.3,0.7,0.7,1,1c0.7,0.7,0.7,1.5,0,2.2c-0.3,0.3-0.5,0.7-0.5,1.1c0,0.4,0.2,0.8,0.5,1.1
					c0.3,0.3,0.6,0.4,1,0.4c1,0,1.6,0.6,1.6,1.7V89c0,1-0.6,1.6-1.6,1.6c-0.6,0-1.1,0.3-1.3,0.8c-0.3,0.5-0.2,1,0,1.5
					c0.1,0.1,0.2,0.2,0.3,0.4c0.6,0.6,0.6,1.5,0,2.1c-0.3,0.3-0.7,0.7-1,1l-0.1,0.1c-0.7,0.6-1.5,0.7-2.2,0c-0.6-0.6-1.6-0.6-2.2,0
					c-0.3,0.3-0.4,0.6-0.4,1c0,1-0.6,1.6-1.7,1.6l-0.4,0C103.6,99.1,103.5,99.1,103.4,99.1z M102.7,97.5
					C102.8,97.5,102.8,97.5,102.7,97.5c0.4,0,0.7,0,1,0l0.4,0c0,0,0.1,0,0.1,0c0,0,0-0.1,0-0.1c0-0.8,0.3-1.5,0.9-2.1
					c1.2-1.2,3.1-1.2,4.3,0l0.1-0.1c0.3-0.3,0.7-0.7,1-1c-0.2-0.2-0.3-0.4-0.5-0.6c-0.6-0.9-0.6-2.1-0.1-3c0.5-1,1.5-1.6,2.6-1.6
					c0,0,0.1,0,0.1,0c0,0,0,0,0-0.1v-1.4c0,0,0-0.1,0-0.1c0,0-0.1,0-0.1,0c-0.8,0-1.5-0.3-2-0.8c-0.6-0.6-1-1.3-1-2.1
					c0-0.8,0.3-1.6,0.9-2.2c-0.3-0.4-0.7-0.8-1-1.1c-1,0.9-2.2,1.1-3.4,0.6c-1.2-0.5-1.8-1.5-1.9-2.8c0-0.1,0-0.1,0-0.1
					c-0.5,0-1,0-1.5,0c0,0-0.1,0-0.1,0.1c-0.1,1.3-0.7,2.3-1.9,2.8c-1.2,0.5-2.4,0.2-3.3-0.7c-0.4,0.4-0.8,0.7-1.1,1.1
					c0.9,1,1.2,2.2,0.7,3.4c-0.5,1.2-1.5,1.8-2.8,1.9l-0.1,1l0,0.4c0,0,0,0.1,0,0.1c0,0,0.1,0,0.1,0c0.8,0,1.5,0.3,2,0.8
					c0.6,0.6,0.9,1.3,0.9,2.1c0,0.8-0.3,1.6-0.9,2.2c0,0,0,0,0,0.1c0,0,0,0,0,0.1l0.2,0.2c0.3,0.3,0.5,0.5,0.8,0.8
					c0.2-0.2,0.4-0.3,0.6-0.5c0.9-0.6,2.1-0.6,3-0.1c1,0.5,1.5,1.5,1.6,2.6C102.7,97.5,102.7,97.5,102.7,97.5z"/>
			</g>
		</g>
	</g>
	<g>
		<path class="st0" d="M100.1,172.6c-40.1,0-72.7-32.6-72.7-72.7S60,27.2,100.1,27.2s72.7,32.6,72.7,72.7S140.2,172.6,100.1,172.6z
			 M100.1,31.2c-37.9,0-68.7,30.8-68.7,68.7c0,37.9,30.8,68.7,68.7,68.7c37.9,0,68.7-30.8,68.7-68.7C168.8,62,138,31.2,100.1,31.2z"
			/>
	</g>
	<g>
		<g>
			<path class="st0" d="M135.6,136.6h-71c-0.7,0-1.2-0.6-1.2-1.2v-71c0-0.7,0.6-1.2,1.2-1.2h71c0.7,0,1.2,0.6,1.2,1.2v71
				C136.8,136.1,136.3,136.6,135.6,136.6z M65.8,134.1h68.5V65.6H65.8V134.1z"/>
		</g>
		<g>
			<path class="st0" d="M134.7,74.2H64.6c-0.7,0-1.2-0.6-1.2-1.2s0.6-1.2,1.2-1.2h70.2c0.7,0,1.2,0.6,1.2,1.2S135.4,74.2,134.7,74.2
				z"/>
		</g>
		<g>
			<circle class="st0" cx="72" cy="68.7" r="1.4"/>
		</g>
		<g>
			<circle class="st0" cx="75.4" cy="68.7" r="1.4"/>
		</g>
		<g>
			<circle class="st0" cx="78.9" cy="68.7" r="1.4"/>
		</g>
	</g>
	<g>
		<path class="st0" d="M126.9,130.2H107c-0.4,0-0.8-0.3-0.8-0.8s0.3-0.8,0.8-0.8h19.8c0.4,0,0.8,0.3,0.8,0.8
			S127.3,130.2,126.9,130.2z"/>
	</g>
	<g>
		<path class="st0" d="M122.3,124.7H107c-0.4,0-0.8-0.3-0.8-0.8s0.3-0.8,0.8-0.8h15.3c0.4,0,0.8,0.3,0.8,0.8
			S122.8,124.7,122.3,124.7z"/>
	</g>
</g>
</svg>
