<?xml version="1.0" encoding="utf-8"?>
<!-- Generator: Adobe Illustrator 26.4.0, SVG Export Plug-In . SVG Version: 6.00 Build 0)  -->
<svg version="1.1" id="Layer_1" xmlns="http://www.w3.org/2000/svg" xmlns:xlink="http://www.w3.org/1999/xlink" x="0px" y="0px"
	 viewBox="0 0 200 200" style="enable-background:new 0 0 200 200;" xml:space="preserve">
<style type="text/css">
	.st0{fill:#0067FC;}
</style>
<g>
	<g>
		<g>
			<path class="st0" d="M99.6,100.9c-0.3,0-0.6-0.1-0.9-0.4c-0.5-0.5-0.5-1.3,0-1.8l17.5-17.5c0.5-0.5,1.3-0.5,1.8,0s0.5,1.3,0,1.8
				l-17.5,17.5C100.3,100.8,100,100.9,99.6,100.9z"/>
		</g>
		<g>
			<path class="st0" d="M118.5,91.5c-0.7,0-1.2-0.6-1.2-1.2v-8.3h-8.1c-0.7,0-1.2-0.6-1.2-1.2s0.6-1.2,1.2-1.2h9.3
				c0.7,0,1.2,0.6,1.2,1.2v9.5C119.7,90.9,119.2,91.5,118.5,91.5z"/>
		</g>
	</g>
	<g>
		<path class="st0" d="M100,172.7c-40.1,0-72.7-32.6-72.7-72.7S59.9,27.3,100,27.3s72.7,32.6,72.7,72.7S140.1,172.7,100,172.7z
			 M100,31.3c-37.9,0-68.7,30.8-68.7,68.7c0,37.9,30.8,68.7,68.7,68.7c37.9,0,68.7-30.8,68.7-68.7C168.7,62.1,137.9,31.3,100,31.3z"
			/>
	</g>
	<g>
		<path class="st0" d="M126.2,127.4H73.8c-0.7,0-1.2-0.6-1.2-1.2V73.8c0-0.7,0.6-1.2,1.2-1.2h32.3c0.7,0,1.2,0.6,1.2,1.2
			s-0.6,1.2-1.2,1.2H75.1v49.8h49.8V94.1c0-0.7,0.6-1.2,1.2-1.2s1.2,0.6,1.2,1.2v32C127.4,126.9,126.9,127.4,126.2,127.4z"/>
	</g>
</g>
</svg>
