<?xml version="1.0" encoding="utf-8"?>
<!-- Generator: Adobe Illustrator 26.3.1, SVG Export Plug-In . SVG Version: 6.00 Build 0)  -->
<svg version="1.1" id="Layer_1" xmlns="http://www.w3.org/2000/svg" xmlns:xlink="http://www.w3.org/1999/xlink" x="0px" y="0px"
	 viewBox="0 0 200 200" style="enable-background:new 0 0 200 200;" xml:space="preserve">
<style type="text/css">
	.st0{fill:#0067FC;}
	.st1{fill:none;stroke:#0067FC;stroke-width:4;stroke-linecap:round;stroke-linejoin:round;stroke-miterlimit:10;}
</style>
<g>
	<g>
		<g>
			<g>
				<path class="st0" d="M117.2,143.6h-42c-3,0-5.5-2.5-5.5-5.5V62.6c0-3,2.5-5.5,5.5-5.5H125c3,0,5.5,2.5,5.5,5.5v66.3
					c0,0.3-0.1,0.6-0.3,0.8l-12.1,13.5C117.9,143.5,117.5,143.6,117.2,143.6z M72.1,93.6v44.6c0,1.7,1.3,3,3,3h41.5l11.4-12.8V62.6
					c0-1.7-1.3-3-3-3H75.1c-1.7,0-3,1.3-3,3V93.6z"/>
			</g>
			<g>
				<path class="st0" d="M116.2,143.2c-0.7,0-1.2-0.6-1.2-1.2v-8.8c0-3,2.5-5.5,5.5-5.5h8.8c0.7,0,1.2,0.6,1.2,1.2s-0.6,1.2-1.2,1.2
					h-8.8c-1.7,0-3,1.3-3,3v8.8C117.4,142.6,116.9,143.2,116.2,143.2z"/>
			</g>
		</g>
		<g>
			<g>
				<path class="st0" d="M117.7,113.6h-27c-0.7,0-1.2-0.6-1.2-1.2s0.6-1.2,1.2-1.2h27c0.7,0,1.2,0.6,1.2,1.2
					S118.4,113.6,117.7,113.6z"/>
			</g>
			<g>
				<path class="st0" d="M117.7,120.6h-27c-0.7,0-1.2-0.6-1.2-1.2s0.6-1.2,1.2-1.2h27c0.7,0,1.2,0.6,1.2,1.2
					S118.4,120.6,117.7,120.6z"/>
			</g>
			<g>
				<path class="st0" d="M107.7,127.6h-17c-0.7,0-1.2-0.6-1.2-1.2s0.6-1.2,1.2-1.2h17c0.7,0,1.2,0.6,1.2,1.2
					S108.4,127.6,107.7,127.6z"/>
			</g>
			<g>
				<path class="st0" d="M83.8,115c-0.3,0-0.6-0.1-0.9-0.4l-1.4-1.4c-0.5-0.5-0.5-1.3,0-1.8s1.3-0.5,1.8,0l0.5,0.5l1.9-1.9
					c0.5-0.5,1.3-0.5,1.8,0s0.5,1.3,0,1.8l-2.8,2.8C84.4,114.8,84.1,115,83.8,115z"/>
			</g>
			<g>
				<path class="st0" d="M83.8,122c-0.3,0-0.6-0.1-0.9-0.4l-1.4-1.4c-0.5-0.5-0.5-1.3,0-1.8s1.3-0.5,1.8,0l0.5,0.5l1.9-1.9
					c0.5-0.5,1.3-0.5,1.8,0s0.5,1.3,0,1.8l-2.8,2.8C84.4,121.9,84.1,122,83.8,122z"/>
			</g>
			<g>
				<path class="st0" d="M83.8,128.5c-0.3,0-0.6-0.1-0.9-0.4l-1.4-1.4c-0.5-0.5-0.5-1.3,0-1.8s1.3-0.5,1.8,0l0.5,0.5l1.9-1.9
					c0.5-0.5,1.3-0.5,1.8,0s0.5,1.3,0,1.8l-2.8,2.8C84.4,128.3,84.1,128.5,83.8,128.5z"/>
			</g>
		</g>
	</g>
	<g>
		<path class="st1" d="M114.3,86.1"/>
	</g>
	<g>
		<path class="st1" d="M97.4,108.6"/>
	</g>
	<g>
		<g>
			<path class="st0" d="M95.6,85.4c-0.4,0-0.7-0.1-1-0.4c-0.6-0.6-0.6-1.5,0-2l7.6-7.6l-7.4-7.4c-0.6-0.6-0.6-1.5,0-2
				c0.6-0.6,1.5-0.6,2,0l8.5,8.5c0.6,0.6,0.6,1.5,0,2L96.6,85C96.3,85.3,96,85.4,95.6,85.4z"/>
		</g>
		<g>
			<path class="st0" d="M104,100.5c-0.4,0-0.7-0.1-1-0.4l-8.5-8.5c-0.3-0.3-0.4-0.6-0.4-1s0.2-0.7,0.4-1l8.6-8.6
				c0.6-0.6,1.5-0.6,2,0c0.6,0.6,0.6,1.5,0,2l-7.6,7.6l7.4,7.4c0.6,0.6,0.6,1.5,0,2C104.8,100.4,104.4,100.5,104,100.5z"/>
		</g>
	</g>
	<g>
		<path class="st0" d="M100.1,173.1c-40.1,0-72.7-32.6-72.7-72.7S60,27.7,100.1,27.7s72.7,32.6,72.7,72.7S140.2,173.1,100.1,173.1z
			 M100.1,31.7c-37.9,0-68.7,30.8-68.7,68.7c0,37.9,30.8,68.7,68.7,68.7c37.9,0,68.7-30.8,68.7-68.7C168.8,62.5,138,31.7,100.1,31.7
			z"/>
	</g>
</g>
</svg>
