<?xml version="1.0" encoding="utf-8"?>
<!-- Generator: Adobe Illustrator 26.4.0, SVG Export Plug-In . SVG Version: 6.00 Build 0)  -->
<svg version="1.1" id="Layer_1" xmlns="http://www.w3.org/2000/svg" xmlns:xlink="http://www.w3.org/1999/xlink" x="0px" y="0px"
	 viewBox="0 0 200 200" style="enable-background:new 0 0 200 200;" xml:space="preserve">
<style type="text/css">
	.st0{fill:#0067FC;}
</style>
<g>
	<g>
		<path class="st0" d="M100.1,172.6c-40.1,0-72.7-32.6-72.7-72.7S60,27.2,100.1,27.2s72.7,32.6,72.7,72.7S140.2,172.6,100.1,172.6z
			 M100.1,31.2c-37.9,0-68.7,30.8-68.7,68.7c0,37.9,30.8,68.7,68.7,68.7c37.9,0,68.7-30.8,68.7-68.7C168.8,62,138,31.2,100.1,31.2z"
			/>
	</g>
	<g>
		<g>
			<path class="st0" d="M110.2,133.6H90c-5.4,0-9.8-4.4-9.8-9.8v-42c0-0.7,0.6-1.2,1.2-1.2s1.2,0.6,1.2,1.2v42c0,4,3.3,7.3,7.3,7.3
				h20.2c4,0,7.3-3.3,7.3-7.3v-42c0-0.7,0.6-1.2,1.2-1.2s1.2,0.6,1.2,1.2v42C120,129.2,115.6,133.6,110.2,133.6z"/>
		</g>
		<g>
			<path class="st0" d="M122,81.6H78.2c-2.1,0-3.8-1.7-3.8-3.8v-1.4c0-2.1,1.7-3.8,3.8-3.8H122c2.1,0,3.8,1.7,3.8,3.8v1.4
				C125.7,80,124,81.6,122,81.6z M78.2,75.2c-0.7,0-1.3,0.6-1.3,1.3v1.4c0,0.7,0.6,1.3,1.3,1.3H122c0.7,0,1.3-0.6,1.3-1.3v-1.4
				c0-0.7-0.6-1.3-1.3-1.3H78.2z"/>
		</g>
		<g>
			<g>
				<path class="st0" d="M92,123.4c-0.7,0-1.2-0.6-1.2-1.2V90.6c0-0.7,0.6-1.2,1.2-1.2s1.2,0.6,1.2,1.2v31.5
					C93.2,122.8,92.6,123.4,92,123.4z"/>
			</g>
			<g>
				<path class="st0" d="M100.1,123.4c-0.7,0-1.2-0.6-1.2-1.2V90.6c0-0.7,0.6-1.2,1.2-1.2s1.2,0.6,1.2,1.2v31.5
					C101.4,122.8,100.8,123.4,100.1,123.4z"/>
			</g>
			<g>
				<path class="st0" d="M108.2,123.4c-0.7,0-1.2-0.6-1.2-1.2V90.6c0-0.7,0.6-1.2,1.2-1.2s1.2,0.6,1.2,1.2v31.5
					C109.4,122.8,108.9,123.4,108.2,123.4z"/>
			</g>
		</g>
		<g>
			<path class="st0" d="M107,75.2H93.2c-0.7,0-1.2-0.6-1.2-1.2v-3.3c0-2.5,2-4.5,4.5-4.5h7.4c2.5,0,4.5,2,4.5,4.5v3.3
				C108.2,74.6,107.7,75.2,107,75.2z M94.4,72.7h11.3v-2c0-1.1-0.9-2-2-2h-7.4c-1.1,0-2,0.9-2,2V72.7z"/>
		</g>
	</g>
</g>
</svg>
