<?xml version="1.0" encoding="utf-8"?>
<!-- Generator: Adobe Illustrator 26.4.0, SVG Export Plug-In . SVG Version: 6.00 Build 0)  -->
<svg version="1.1" id="Layer_1" xmlns="http://www.w3.org/2000/svg" xmlns:xlink="http://www.w3.org/1999/xlink" x="0px" y="0px"
	 viewBox="0 0 200 200" style="enable-background:new 0 0 200 200;" xml:space="preserve">
<style type="text/css">
	.st0{fill:#0067FC;}
</style>
<g>
	<g>
		<g>
			<path class="st0" d="M117.2,143.2h-42c-3,0-5.5-2.5-5.5-5.5V62.1c0-3,2.5-5.5,5.5-5.5H125c3,0,5.5,2.5,5.5,5.5v66.3
				c0,0.3-0.1,0.6-0.3,0.8l-12.1,13.5C117.9,143,117.5,143.2,117.2,143.2z M72.1,93.1v44.6c0,1.7,1.3,3,3,3h41.5l11.4-12.8V62.1
				c0-1.7-1.3-3-3-3H75.1c-1.7,0-3,1.3-3,3V93.1z"/>
		</g>
		<g>
			<path class="st0" d="M116.2,142.7c-0.7,0-1.2-0.6-1.2-1.2v-8.8c0-3,2.5-5.5,5.5-5.5h8.8c0.7,0,1.2,0.6,1.2,1.2s-0.6,1.2-1.2,1.2
				h-8.8c-1.7,0-3,1.3-3,3v8.8C117.4,142.1,116.9,142.7,116.2,142.7z"/>
		</g>
	</g>
	<g>
		<g>
			<path class="st0" d="M119.8,97.4H80.3c-0.7,0-1.2-0.6-1.2-1.2v-8.9c0-0.7,0.6-1.2,1.2-1.2h39.6c0.7,0,1.2,0.6,1.2,1.2v8.9
				C121.1,96.9,120.5,97.4,119.8,97.4z M81.5,94.9h37.1v-6.4H81.5V94.9z"/>
		</g>
		<g>
			<path class="st0" d="M99.6,92.9H84.2c-0.7,0-1.2-0.6-1.2-1.2s0.6-1.2,1.2-1.2h15.4c0.7,0,1.2,0.6,1.2,1.2S100.3,92.9,99.6,92.9z"
				/>
		</g>
		<g>
			<path class="st0" d="M119.8,112.1H80.3c-0.7,0-1.2-0.6-1.2-1.2v-8.9c0-0.7,0.6-1.2,1.2-1.2h39.6c0.7,0,1.2,0.6,1.2,1.2v8.9
				C121.1,111.5,120.5,112.1,119.8,112.1z M81.5,109.6h37.1v-6.4H81.5V109.6z"/>
		</g>
		<g>
			<path class="st0" d="M99.6,107.6H84.2c-0.7,0-1.2-0.6-1.2-1.2s0.6-1.2,1.2-1.2h15.4c0.7,0,1.2,0.6,1.2,1.2
				S100.3,107.6,99.6,107.6z"/>
		</g>
	</g>
	<g>
		<path class="st0" d="M100.1,172.6c-40.1,0-72.7-32.6-72.7-72.7S60,27.2,100.1,27.2s72.7,32.6,72.7,72.7S140.2,172.6,100.1,172.6z
			 M100.1,31.2c-37.9,0-68.7,30.8-68.7,68.7c0,37.9,30.8,68.7,68.7,68.7c37.9,0,68.7-30.8,68.7-68.7C168.8,62,138,31.2,100.1,31.2z"
			/>
	</g>
	<g>
		<path class="st0" d="M97.5,82.1H80.3c-0.7,0-1.2-0.6-1.2-1.2V68.4c0-0.7,0.6-1.2,1.2-1.2h17.2c0.7,0,1.2,0.6,1.2,1.2v12.5
			C98.7,81.6,98.2,82.1,97.5,82.1z M81.5,79.6h14.7v-10H81.5V79.6z"/>
	</g>
	<g>
		<path class="st0" d="M119.8,82.1h-16.7c-0.7,0-1.2-0.6-1.2-1.2V68.4c0-0.7,0.6-1.2,1.2-1.2h16.7c0.7,0,1.2,0.6,1.2,1.2v12.5
			C121.1,81.6,120.5,82.1,119.8,82.1z M104.4,79.6h14.2v-10h-14.2V79.6z"/>
	</g>
	<g>
		<path class="st0" d="M97.5,125.5H80.3c-0.7,0-1.2-0.6-1.2-1.2v-7.1c0-0.7,0.6-1.2,1.2-1.2h17.2c0.7,0,1.2,0.6,1.2,1.2v7.1
			C98.7,125,98.2,125.5,97.5,125.5z M81.5,123h14.7v-4.6H81.5V123z"/>
	</g>
	<g>
		<path class="st0" d="M110.5,137.5H80.3c-0.7,0-1.2-0.6-1.2-1.2v-7.1c0-0.7,0.6-1.2,1.2-1.2h30.2c0.7,0,1.2,0.6,1.2,1.2v7.1
			C111.7,136.9,111.1,137.5,110.5,137.5z M81.5,135h27.7v-4.6H81.5V135z"/>
	</g>
	<g>
		<path class="st0" d="M119.8,125.5h-16.7c-0.7,0-1.2-0.6-1.2-1.2v-7.1c0-0.7,0.6-1.2,1.2-1.2h16.7c0.7,0,1.2,0.6,1.2,1.2v7.1
			C121.1,125,120.5,125.5,119.8,125.5z M104.4,123h14.2v-4.6h-14.2V123z"/>
	</g>
</g>
</svg>
