<?xml version="1.0" encoding="utf-8"?>
<!-- Generator: Adobe Illustrator 26.4.0, SVG Export Plug-In . SVG Version: 6.00 Build 0)  -->
<svg version="1.1" id="Layer_1" xmlns="http://www.w3.org/2000/svg" xmlns:xlink="http://www.w3.org/1999/xlink" x="0px" y="0px"
	 viewBox="0 0 200 200" style="enable-background:new 0 0 200 200;" xml:space="preserve">
<style type="text/css">
	.st0{fill:#0067FC;}
</style>
<g>
	<g>
		<g>
			<path class="st0" d="M119.8,91H80.3c-0.7,0-1.2-0.6-1.2-1.2v-8.9c0-0.7,0.6-1.2,1.2-1.2h39.6c0.7,0,1.2,0.6,1.2,1.2v8.9
				C121.1,90.4,120.5,91,119.8,91z M81.5,88.5h37.1V82H81.5V88.5z"/>
		</g>
		<g>
			<path class="st0" d="M99.6,86.5H84.2c-0.7,0-1.2-0.6-1.2-1.2s0.6-1.2,1.2-1.2h15.4c0.7,0,1.2,0.6,1.2,1.2S100.3,86.5,99.6,86.5z"
				/>
		</g>
		<g>
			<path class="st0" d="M119.8,105.6H80.3c-0.7,0-1.2-0.6-1.2-1.2v-8.9c0-0.7,0.6-1.2,1.2-1.2h39.6c0.7,0,1.2,0.6,1.2,1.2v8.9
				C121.1,105.1,120.5,105.6,119.8,105.6z M81.5,103.1h37.1v-6.4H81.5V103.1z"/>
		</g>
		<g>
			<path class="st0" d="M99.6,101.1H84.2c-0.7,0-1.2-0.6-1.2-1.2s0.6-1.2,1.2-1.2h15.4c0.7,0,1.2,0.6,1.2,1.2
				S100.3,101.1,99.6,101.1z"/>
		</g>
		<g>
			<path class="st0" d="M119.8,120.3H80.3c-0.7,0-1.2-0.6-1.2-1.2v-8.9c0-0.7,0.6-1.2,1.2-1.2h39.6c0.7,0,1.2,0.6,1.2,1.2v8.9
				C121.1,119.7,120.5,120.3,119.8,120.3z M81.5,117.8h37.1v-6.4H81.5V117.8z"/>
		</g>
		<g>
			<path class="st0" d="M99.6,115.8H84.2c-0.7,0-1.2-0.6-1.2-1.2s0.6-1.2,1.2-1.2h15.4c0.7,0,1.2,0.6,1.2,1.2
				S100.3,115.8,99.6,115.8z"/>
		</g>
	</g>
	<g>
		<path class="st0" d="M94.8,72.2c-0.4,0-0.7-0.1-1-0.4c-0.5-0.5-0.5-1.4,0-2l6.5-6.5l-6.4-6.4c-0.5-0.5-0.5-1.4,0-2
			c0.5-0.5,1.4-0.5,2,0l7.4,7.4c0.5,0.5,0.5,1.4,0,2l-7.5,7.5C95.5,72,95.1,72.2,94.8,72.2z"/>
	</g>
	<g>
		<path class="st0" d="M100.1,172.6c-40.1,0-72.7-32.6-72.7-72.7S60,27.2,100.1,27.2s72.7,32.6,72.7,72.7S140.2,172.6,100.1,172.6z
			 M100.1,31.2c-37.9,0-68.7,30.8-68.7,68.7c0,37.9,30.8,68.7,68.7,68.7c37.9,0,68.7-30.8,68.7-68.7C168.8,62,138,31.2,100.1,31.2z"
			/>
	</g>
	<g>
		<path class="st0" d="M100.3,138.1c-21.1,0-38.3-17.2-38.3-38.3c0-18,12.2-33.4,29.8-37.4c2.8-0.6,5.7-1,8.6-1
			c0.8,0,1.4,0.6,1.4,1.4s-0.6,1.4-1.4,1.4c-2.7,0-5.3,0.3-7.9,0.9c-16.3,3.7-27.6,18-27.6,34.6c0,19.6,15.9,35.5,35.5,35.5
			c19.6,0,35.5-15.9,35.5-35.5c0-9.5-3.7-18.4-10.4-25.1c-0.5-0.5-0.5-1.4,0-2c0.5-0.5,1.4-0.5,2,0c7.2,7.2,11.2,16.9,11.2,27.1
			C138.6,120.9,121.4,138.1,100.3,138.1z"/>
	</g>
</g>
</svg>
