<?xml version="1.0" encoding="utf-8"?>
<!-- Generator: Adobe Illustrator 26.4.0, SVG Export Plug-In . SVG Version: 6.00 Build 0)  -->
<svg version="1.1" id="Layer_1" xmlns="http://www.w3.org/2000/svg" xmlns:xlink="http://www.w3.org/1999/xlink" x="0px" y="0px"
	 viewBox="0 0 200 200" style="enable-background:new 0 0 200 200;" xml:space="preserve">
<style type="text/css">
	.st0{fill:#0067FC;}
	.st1{fill:none;stroke:#0067FC;stroke-width:2.5;stroke-linecap:round;stroke-linejoin:round;stroke-miterlimit:10;}
</style>
<g>
	<g>
		<path class="st0" d="M100,172.7c-40.1,0-72.7-32.6-72.7-72.7S59.9,27.3,100,27.3s72.7,32.6,72.7,72.7S140.1,172.7,100,172.7z
			 M100,31.3c-37.9,0-68.7,30.8-68.7,68.7c0,37.9,30.8,68.7,68.7,68.7c37.9,0,68.7-30.8,68.7-68.7C168.7,62.1,137.9,31.3,100,31.3z"
			/>
	</g>
	<g>
		<g>
			<g>
				<path class="st1" d="M98.2,65.6"/>
			</g>
			<g>
				<path class="st0" d="M100,70.8c-0.7,0-1.2-0.6-1.2-1.2V56.2c0-0.7,0.6-1.2,1.2-1.2s1.2,0.6,1.2,1.2v13.4
					C101.2,70.2,100.7,70.8,100,70.8z"/>
			</g>
			<g>
				<path class="st0" d="M100.1,72.7c-0.3,0-0.6-0.1-0.9-0.4l-6.7-6.7c-0.5-0.5-0.5-1.3,0-1.8s1.3-0.5,1.8,0l5.8,5.8l5.7-5.7
					c0.5-0.5,1.3-0.5,1.8,0s0.5,1.3,0,1.8l-6.6,6.6C100.7,72.6,100.4,72.7,100.1,72.7z"/>
			</g>
		</g>
		<g>
			<g>
				<path class="st0" d="M110.1,145.1H89.9c-5.4,0-9.8-4.4-9.8-9.8v-42c0-0.7,0.6-1.2,1.2-1.2s1.2,0.6,1.2,1.2v42
					c0,4,3.3,7.3,7.3,7.3h20.2c4,0,7.3-3.3,7.3-7.3v-42c0-0.7,0.6-1.2,1.2-1.2s1.2,0.6,1.2,1.2v42
					C119.9,140.7,115.5,145.1,110.1,145.1z"/>
			</g>
			<g>
				<path class="st0" d="M121.9,93.1H78.1c-2.1,0-3.8-1.7-3.8-3.8v-1.4c0-2.1,1.7-3.8,3.8-3.8h43.8c2.1,0,3.8,1.7,3.8,3.8v1.4
					C125.7,91.4,124,93.1,121.9,93.1z M78.1,86.6c-0.7,0-1.3,0.6-1.3,1.3v1.4c0,0.7,0.6,1.3,1.3,1.3h43.8c0.7,0,1.3-0.6,1.3-1.3
					v-1.4c0-0.7-0.6-1.3-1.3-1.3H78.1z"/>
			</g>
			<g>
				<g>
					<path class="st0" d="M91.9,134.8c-0.7,0-1.2-0.6-1.2-1.2v-31.5c0-0.7,0.6-1.2,1.2-1.2s1.2,0.6,1.2,1.2v31.5
						C93.1,134.3,92.6,134.8,91.9,134.8z"/>
				</g>
				<g>
					<path class="st0" d="M100.1,134.8c-0.7,0-1.2-0.6-1.2-1.2v-31.5c0-0.7,0.6-1.2,1.2-1.2s1.2,0.6,1.2,1.2v31.5
						C101.3,134.3,100.7,134.8,100.1,134.8z"/>
				</g>
				<g>
					<path class="st0" d="M108.1,134.8c-0.7,0-1.2-0.6-1.2-1.2v-31.5c0-0.7,0.6-1.2,1.2-1.2s1.2,0.6,1.2,1.2v31.5
						C109.4,134.3,108.8,134.8,108.1,134.8z"/>
				</g>
			</g>
			<g>
				<path class="st0" d="M106.9,86.6H93.1c-0.7,0-1.2-0.6-1.2-1.2v-3.3c0-2.5,2-4.5,4.5-4.5h7.4c2.5,0,4.5,2,4.5,4.5v3.3
					C108.1,86.1,107.6,86.6,106.9,86.6z M94.4,84.1h11.3v-2c0-1.1-0.9-2-2-2h-7.4c-1.1,0-2,0.9-2,2V84.1z"/>
			</g>
		</g>
	</g>
</g>
</svg>
