<?xml version="1.0" encoding="utf-8"?>
<!-- Generator: Adobe Illustrator 26.3.1, SVG Export Plug-In . SVG Version: 6.00 Build 0)  -->
<svg version="1.1" id="Layer_1" xmlns="http://www.w3.org/2000/svg" xmlns:xlink="http://www.w3.org/1999/xlink" x="0px" y="0px"
	 viewBox="0 0 200 200" style="enable-background:new 0 0 200 200;" xml:space="preserve">
<style type="text/css">
	.st0{fill:#0067FC;}
	.st1{fill:none;stroke:#0067FC;stroke-width:2.5;stroke-linecap:round;stroke-linejoin:round;stroke-miterlimit:10;}
</style>
<g>
	<g>
		<g>
			<path class="st0" d="M117.2,143.6h-42c-3,0-5.5-2.5-5.5-5.5V62.6c0-3,2.5-5.5,5.5-5.5H125c3,0,5.5,2.5,5.5,5.5v66.3
				c0,0.3-0.1,0.6-0.3,0.8l-12.1,13.5C117.9,143.5,117.5,143.6,117.2,143.6z M72.1,93.6v44.6c0,1.7,1.3,3,3,3h41.5l11.4-12.8V62.6
				c0-1.7-1.3-3-3-3H75.1c-1.7,0-3,1.3-3,3V93.6z"/>
		</g>
		<g>
			<path class="st0" d="M116.2,143.2c-0.7,0-1.2-0.6-1.2-1.2v-8.8c0-3,2.5-5.5,5.5-5.5h8.8c0.7,0,1.2,0.6,1.2,1.2s-0.6,1.2-1.2,1.2
				h-8.8c-1.7,0-3,1.3-3,3v8.8C117.4,142.6,116.9,143.2,116.2,143.2z"/>
		</g>
	</g>
	<g>
		<g>
			<path class="st0" d="M131.4,124.7h-2.2c-0.7,0-1.2-0.6-1.2-1.2s0.6-1.2,1.2-1.2h2.2c1.3,0,2.3-1,2.3-2.3V80.1
				c0-0.7,0.6-1.2,1.2-1.2s1.2,0.6,1.2,1.2v39.8C136.2,122.5,134.1,124.7,131.4,124.7z"/>
		</g>
		<g>
			<path class="st0" d="M135,84c-0.7,0-1.2-0.6-1.2-1.2V56.9c0-1.3-1-2.3-2.3-2.3H83.9c-1.3,0-2.3,1-2.3,2.3c0,0.7-0.6,1.2-1.2,1.2
				s-1.2-0.6-1.2-1.2c0-2.6,2.2-4.8,4.8-4.8h47.5c2.6,0,4.8,2.2,4.8,4.8v25.8C136.2,83.4,135.7,84,135,84z"/>
		</g>
	</g>
	<g>
		<path class="st0" d="M100.1,173.1c-40.1,0-72.7-32.6-72.7-72.7S60,27.7,100.1,27.7s72.7,32.6,72.7,72.7S140.2,173.1,100.1,173.1z
			 M100.1,31.7c-37.9,0-68.7,30.8-68.7,68.7c0,37.9,30.8,68.7,68.7,68.7c37.9,0,68.7-30.8,68.7-68.7C168.8,62.5,138,31.7,100.1,31.7
			z"/>
	</g>
	<g>
		<g>
			<path class="st1" d="M106.1,92.4"/>
		</g>
		<g>
			<path class="st0" d="M115,89.6H85.2c-0.7,0-1.2-0.6-1.2-1.2s0.6-1.2,1.2-1.2H115c0.7,0,1.2,0.6,1.2,1.2S115.7,89.6,115,89.6z"/>
		</g>
		<g>
			<path class="st0" d="M106.4,98.2c-0.3,0-0.6-0.1-0.9-0.4c-0.5-0.5-0.5-1.3,0-1.8l7.7-7.7l-7.5-7.5c-0.5-0.5-0.5-1.3,0-1.8
				s1.3-0.5,1.8,0l8.4,8.4c0.5,0.5,0.5,1.3,0,1.8l-8.6,8.6C107,98.1,106.7,98.2,106.4,98.2z"/>
		</g>
		<g>
			<path class="st1" d="M94.1,108.4"/>
		</g>
		<g>
			<path class="st0" d="M115,113.6H85.2c-0.7,0-1.2-0.6-1.2-1.2s0.6-1.2,1.2-1.2H115c0.7,0,1.2,0.6,1.2,1.2S115.7,113.6,115,113.6z"
				/>
		</g>
		<g>
			<path class="st0" d="M93.6,122c-0.3,0-0.6-0.1-0.9-0.4l-8.4-8.4c-0.2-0.2-0.4-0.6-0.4-0.9s0.1-0.6,0.4-0.9l8.6-8.6
				c0.5-0.5,1.3-0.5,1.8,0s0.5,1.3,0,1.8l-7.7,7.7l7.5,7.5c0.5,0.5,0.5,1.3,0,1.8C94.2,121.9,93.9,122,93.6,122z"/>
		</g>
	</g>
</g>
</svg>
