<?xml version="1.0" encoding="utf-8"?>
<!-- Generator: Adobe Illustrator 26.4.0, SVG Export Plug-In . SVG Version: 6.00 Build 0)  -->
<svg version="1.1" id="Layer_1" xmlns="http://www.w3.org/2000/svg" xmlns:xlink="http://www.w3.org/1999/xlink" x="0px" y="0px"
	 viewBox="0 0 200 200" style="enable-background:new 0 0 200 200;" xml:space="preserve">
<style type="text/css">
	.st0{fill:#0067FC;}
</style>
<g>
	<g>
		<path class="st0" d="M122.8,72.6h-9.5c-0.7,0-1.2-0.6-1.2-1.2s0.6-1.2,1.2-1.2h8.3V62c0-0.7,0.6-1.2,1.2-1.2s1.2,0.6,1.2,1.2v9.3
			C124,72,123.5,72.6,122.8,72.6z"/>
	</g>
	<g>
		<path class="st0" d="M77.5,139c-0.7,0-1.2-0.6-1.2-1.2v-9.3c0-0.7,0.6-1.2,1.2-1.2H87c0.7,0,1.2,0.6,1.2,1.2s-0.6,1.2-1.2,1.2
			h-8.3v8.1C78.8,138.5,78.2,139,77.5,139z"/>
	</g>
	<g>
		<path class="st0" d="M100,172.7c-40.1,0-72.7-32.6-72.7-72.7S59.9,27.3,100,27.3s72.7,32.6,72.7,72.7S140.1,172.7,100,172.7z
			 M100,31.3c-37.9,0-68.7,30.8-68.7,68.7c0,37.9,30.8,68.7,68.7,68.7c37.9,0,68.7-30.8,68.7-68.7C168.7,62.1,137.9,31.3,100,31.3z"
			/>
	</g>
	<g>
		<g>
			<path class="st0" d="M100,111.7c-6.5,0-11.7-5.3-11.7-11.7c0-6.5,5.3-11.7,11.7-11.7c6.5,0,11.7,5.3,11.7,11.7
				C111.7,106.5,106.5,111.7,100,111.7z M100,90.8c-5.1,0-9.2,4.1-9.2,9.2s4.1,9.2,9.2,9.2s9.2-4.1,9.2-9.2S105.1,90.8,100,90.8z"/>
		</g>
		<g>
			<path class="st0" d="M100,126.2c-0.6,0-1.2,0-1.8,0c-2,0-3.2-1.2-3.3-3.2c0-1.3-0.5-2.4-1.4-3.3c-0.9-0.8-2-1.2-3.2-1.2
				c-1.1,0-2.1,0.4-2.9,1.2c-1.6,1.5-3.2,1.5-4.8-0.1c-0.8-0.8-1.6-1.6-2.4-2.4c-1.5-1.5-1.5-3.2-0.1-4.7c1.1-1.2,1.5-2.8,1.1-4.4
				c-0.4-1.5-1.6-2.6-3.2-3c-0.4-0.1-0.8-0.1-1.3-0.1c-1.8-0.1-3-1.4-3-3.1c0-1.3,0-2.6,0-3.9c0-1.9,1.3-3.2,3.2-3.2
				c2.5,0,4.5-2,4.5-4.5c0-1.2-0.4-2.2-1.2-3c-1.5-1.6-1.5-3.2,0.1-4.8l0.7-0.7c0.6-0.6,1.2-1.2,1.9-1.8c0.4-0.3,0.8-0.6,1.2-0.7
				c0.1-0.1,0.2-0.1,0.4-0.2c0.3-0.1,0.5-0.2,0.8-0.1c1,0.2,1.7,0.7,2.2,1.2c1.2,1.1,2.8,1.5,4.3,1c1.5-0.4,2.6-1.6,3-3.2
				c0.1-0.4,0.1-0.9,0.1-1.3c0.1-1.8,1.4-3,3.1-3c1,0,1.9,0,2.9,0l0.8,0c2.1,0,3.3,1.2,3.3,3.3c0,1.2,0.5,2.4,1.4,3.2
				c0.9,0.8,2,1.2,3.1,1.2c1.1,0,2.1-0.4,3-1.2c1.6-1.5,3.2-1.5,4.8,0.1l0.8,0.8c0.6,0.6,1.1,1.1,1.7,1.7c1.4,1.4,1.4,3.1,0,4.5
				c-1.4,1.5-1.7,3.1-1,4.9c0.7,1.8,2.1,2.7,4.2,2.7c1.9,0,3.1,1.3,3.1,3.2c0,1.3,0,2.5,0,3.8c0,1.9-1.2,3.2-3.1,3.2
				c-2.1,0.1-3.4,0.9-4.2,2.7c-0.7,1.8-0.4,3.4,1,4.9c1.3,1.4,1.3,3.2-0.1,4.6c-0.9,0.9-1.7,1.7-2.6,2.6c-1.4,1.3-3.1,1.4-4.5,0
				c-1.5-1.4-3.1-1.7-4.9-1c-1.8,0.7-2.7,2.1-2.7,4.1c-0.1,1.9-1.3,3.2-3.3,3.2C101.2,126.2,100.6,126.2,100,126.2z M90.5,116.1
				c1.8,0,3.5,0.7,4.8,1.9c1.4,1.3,2.1,3.1,2.2,5c0,0.6,0.2,0.8,0.8,0.8c1.2,0,2.4,0,3.7,0c0.6,0,0.7-0.2,0.8-0.7
				c0.1-3,1.6-5.2,4.3-6.4c2.7-1.1,5.3-0.6,7.5,1.5c0.5,0.4,0.7,0.4,1.1,0c0.9-0.9,1.7-1.7,2.6-2.6c0.4-0.4,0.5-0.6,0-1.1
				c-2.1-2.2-2.6-4.9-1.4-7.5c1.1-2.7,3.3-4.2,6.4-4.2c0.5,0,0.7-0.2,0.7-0.7c0-1.3,0-2.5,0-3.8c0-0.5-0.2-0.7-0.7-0.7
				c-3.1-0.1-5.3-1.6-6.4-4.3c-1.1-2.7-0.6-5.3,1.5-7.5c0.4-0.4,0.4-0.7,0-1.1c-0.6-0.6-1.1-1.1-1.7-1.7l-0.8-0.8
				c-0.6-0.6-0.7-0.6-1.3,0c-1.3,1.2-2.9,1.9-4.6,1.9c-1.8,0.1-3.6-0.6-4.9-1.9c-1.4-1.3-2.1-3.1-2.2-4.9c0-0.7-0.1-0.8-0.8-0.8
				l-0.8,0c-1,0-1.9,0-2.9,0c-0.3,0-0.6,0.1-0.6,0.7c0,0.5-0.1,1.2-0.2,1.8c-0.6,2.4-2.4,4.3-4.8,4.9c-2.4,0.7-4.9,0.1-6.7-1.6
				c-0.2-0.2-0.4-0.4-0.6-0.4c-0.2,0.1-0.5,0.2-0.6,0.3c-0.6,0.6-1.2,1.1-1.8,1.7L82,84.4c-0.6,0.6-0.6,0.7,0,1.3
				c1.2,1.3,1.9,2.9,1.9,4.7c0.1,3.9-3,6.9-6.9,7c-0.6,0-0.7,0.2-0.8,0.7c0,1.3,0,2.6,0,3.8c0,0.3,0.1,0.6,0.7,0.6
				c0.6,0,1.2,0.1,1.8,0.2c2.4,0.6,4.3,2.4,4.9,4.8c0.7,2.4,0.1,4.9-1.7,6.8c-0.5,0.6-0.5,0.7,0,1.2c0.8,0.8,1.6,1.6,2.4,2.4
				c0.6,0.6,0.7,0.6,1.3,0c1.3-1.2,2.8-1.9,4.5-1.9C90.3,116.1,90.4,116.1,90.5,116.1z"/>
		</g>
	</g>
	<g>
		<path class="st0" d="M69.7,122.1c-0.4,0-0.8-0.2-1-0.5c-4.4-6.3-6.7-13.8-6.7-21.5c0-21,17.1-38,38-38c8.2,0,16,2.6,22.5,7.4
			c0.6,0.4,0.7,1.2,0.3,1.7c-0.4,0.6-1.2,0.7-1.7,0.3c-6.1-4.5-13.4-6.9-21-6.9c-19.6,0-35.5,15.9-35.5,35.5
			c0,7.2,2.2,14.2,6.2,20.1c0.4,0.6,0.2,1.3-0.3,1.7C70.1,122,69.9,122.1,69.7,122.1z"/>
	</g>
	<g>
		<path class="st0" d="M100,138c-7.8,0-15.3-2.4-21.7-6.8c-0.6-0.4-0.7-1.2-0.3-1.7c0.4-0.6,1.2-0.7,1.7-0.3c6,4.2,13,6.4,20.3,6.4
			c19.6,0,35.5-15.9,35.5-35.5c0-6.1-1.6-12.1-4.5-17.3c-0.3-0.6-0.1-1.4,0.5-1.7c0.6-0.3,1.4-0.1,1.7,0.5c3.2,5.6,4.8,12,4.8,18.5
			C138,121,121,138,100,138z"/>
	</g>
</g>
</svg>
