<?xml version="1.0" encoding="utf-8"?>
<!-- Generator: Adobe Illustrator 26.3.1, SVG Export Plug-In . SVG Version: 6.00 Build 0)  -->
<svg version="1.1" id="Layer_1" xmlns="http://www.w3.org/2000/svg" xmlns:xlink="http://www.w3.org/1999/xlink" x="0px" y="0px"
	 viewBox="0 0 200 200" style="enable-background:new 0 0 200 200;" xml:space="preserve">
<style type="text/css">
	.st0{fill:#0067FC;}
</style>
<g>
	<g>
		<g>
			<path class="st0" d="M71.9,111.2c-0.7,0-1.2-0.6-1.2-1.2V62.2c0-3,2.5-5.5,5.5-5.5h42c0.4,0,0.7,0.2,0.9,0.4l12.1,13.5
				c0.2,0.2,0.3,0.5,0.3,0.8V79c0,0.7-0.6,1.2-1.2,1.2S129,79.6,129,79v-7l-11.4-12.8H76.2c-1.7,0-3,1.3-3,3V110
				C73.2,110.7,72.6,111.2,71.9,111.2z"/>
		</g>
		<g>
			<path class="st0" d="M126,143.3H76.2c-3,0-5.5-2.5-5.5-5.5v-31c0-0.7,0.6-1.2,1.2-1.2s1.2,0.6,1.2,1.2v31c0,1.7,1.3,3,3,3H126
				c1.7,0,3-1.3,3-3v-22.6c0-0.7,0.6-1.2,1.2-1.2s1.2,0.6,1.2,1.2v22.6C131.5,140.8,129.1,143.3,126,143.3z"/>
		</g>
		<g>
			<path class="st0" d="M130.3,72.8h-8.8c-3,0-5.5-2.5-5.5-5.5v-8.8c0-0.7,0.6-1.2,1.2-1.2s1.2,0.6,1.2,1.2v8.8c0,1.7,1.3,3,3,3h8.8
				c0.7,0,1.2,0.6,1.2,1.2S131,72.8,130.3,72.8z"/>
		</g>
		<g>
			<path class="st0" d="M130.3,114.8c-10,0-18.2-8.2-18.2-18.2c0-10,8.2-18.2,18.2-18.2s18.2,8.2,18.2,18.2
				C148.5,106.6,140.3,114.8,130.3,114.8z M130.3,80.7c-8.7,0-15.9,7.1-15.9,15.9s7.1,15.9,15.9,15.9s15.9-7.1,15.9-15.9
				S139,80.7,130.3,80.7z"/>
		</g>
		<g>
			<path class="st0" d="M128.5,102.2C128.4,102.2,128.4,102.2,128.5,102.2c-0.4,0-0.7-0.2-0.9-0.4l-3.2-3.7
				c-0.4-0.5-0.4-1.2,0.1-1.7c0.5-0.4,1.2-0.4,1.7,0.1l2.4,2.8l8.8-8.1c0.5-0.4,1.2-0.4,1.7,0.1c0.4,0.5,0.4,1.2-0.1,1.7l-9.7,8.9
				C129,102.1,128.8,102.2,128.5,102.2z"/>
		</g>
	</g>
	<g>
		<g>
			<path class="st0" d="M117.7,75.6h-27c-0.7,0-1.2-0.6-1.2-1.2s0.6-1.2,1.2-1.2h27c0.7,0,1.2,0.6,1.2,1.2S118.4,75.6,117.7,75.6z"
				/>
		</g>
		<g>
			<path class="st0" d="M107.7,82.7h-17c-0.7,0-1.2-0.6-1.2-1.2s0.6-1.2,1.2-1.2h17c0.7,0,1.2,0.6,1.2,1.2S108.4,82.7,107.7,82.7z"
				/>
		</g>
		<g>
			<path class="st0" d="M83.7,77.1c-0.3,0-0.6-0.1-0.9-0.4l-1.4-1.4c-0.5-0.5-0.5-1.3,0-1.8c0.5-0.5,1.3-0.5,1.8,0l0.5,0.5l1.9-1.9
				c0.5-0.5,1.3-0.5,1.8,0s0.5,1.3,0,1.8l-2.8,2.8C84.4,76.9,84,77.1,83.7,77.1z"/>
		</g>
		<g>
			<path class="st0" d="M83.7,83.5c-0.3,0-0.6-0.1-0.9-0.4l-1.4-1.4c-0.5-0.5-0.5-1.3,0-1.8c0.5-0.5,1.3-0.5,1.8,0l0.5,0.5l1.9-1.9
				c0.5-0.5,1.3-0.5,1.8,0s0.5,1.3,0,1.8l-2.8,2.8C84.4,83.4,84,83.5,83.7,83.5z"/>
		</g>
	</g>
	<g>
		<path class="st0" d="M100,172.7c-40.1,0-72.7-32.6-72.7-72.7S59.9,27.3,100,27.3s72.7,32.6,72.7,72.7S140.1,172.7,100,172.7z
			 M100,31.3c-37.9,0-68.7,30.8-68.7,68.7c0,37.9,30.8,68.7,68.7,68.7c37.9,0,68.7-30.8,68.7-68.7C168.7,62.1,137.9,31.3,100,31.3z"
			/>
	</g>
	<g>
		<g>
			<g>
				<path class="st0" d="M93.5,106.1c-3.4,0-6.2-2.8-6.2-6.2s2.8-6.2,6.2-6.2c3.4,0,6.2,2.8,6.2,6.2S96.9,106.1,93.5,106.1z
					 M93.5,96c-2.1,0-3.8,1.7-3.8,3.8c0,2.1,1.7,3.8,3.8,3.8c2.1,0,3.8-1.7,3.8-3.8C97.4,97.8,95.6,96,93.5,96z"/>
			</g>
			<g>
				<path class="st0" d="M93.5,113c-0.3,0-0.6,0-0.9,0c-1.2,0-2.1-0.8-2.1-2.1c0-0.8-0.3-1.2-1-1.5c-0.6-0.3-1.2-0.2-1.7,0.4
					c-0.9,0.8-2.1,0.8-3,0c-0.4-0.4-0.8-0.8-1.2-1.2c-0.9-0.9-0.9-2.1,0-3c0.5-0.6,0.6-1.1,0.4-1.7c-0.3-0.6-0.7-0.9-1.5-1
					c-1.2,0-2.1-0.9-2.1-2.1c0-0.6,0-1.2,0-1.8c0-1.2,0.8-2.1,2-2.1c0.8,0,1.2-0.3,1.5-1c0.3-0.6,0.2-1.2-0.4-1.7
					c-0.8-0.9-0.8-2.1,0-3c0.3-0.3,0.5-0.5,0.8-0.8l0.4-0.4c1-1,2.1-1,3.1-0.1c0.3,0.3,0.6,0.4,1,0.4c0.4,0,0.8-0.1,1.1-0.4
					c0.3-0.3,0.5-0.7,0.5-1.1c0-1.3,0.9-2.1,2.2-2.1l0.4,0c0.5,0,0.9,0,1.4,0c1.1,0,2,0.8,2.1,2c0,0.2,0,0.4,0.1,0.5
					c0.1,0.5,0.5,0.9,1.1,1.1c0.5,0.2,1.1,0,1.5-0.4c0.3-0.3,0.7-0.6,1.4-0.7c0.3,0,0.5,0,0.8,0.1l0.1,0.1c0.2,0.1,0.4,0.2,0.7,0.4
					c0.3,0.3,0.6,0.6,0.9,0.9l0.3,0.3c1,1,1,2.1,0.1,3.1c-0.3,0.3-0.4,0.6-0.4,1.1c0,0.9,0.7,1.5,1.6,1.6c1.2,0,2.1,0.9,2.1,2.1
					c0,0.6,0,1.2,0,1.9c0,1.1-0.9,2-2,2.1c-0.2,0-0.4,0-0.5,0.1c-0.5,0.1-0.9,0.5-1.1,1.1c-0.2,0.5,0,1.1,0.4,1.5
					c0.9,1,0.9,2.1,0,3.1l-1.1,1.1c-1,1-2.1,1-3.1,0c-0.3-0.3-0.6-0.4-1-0.4c-0.4,0-0.8,0.1-1.1,0.4c-0.3,0.3-0.5,0.7-0.5,1.1
					c0,1.3-0.9,2.1-2.1,2.1C94.1,113,93.8,113,93.5,113z M92.8,110.6c0.5,0,0.9,0,1.4,0c0.1-1,0.5-1.9,1.2-2.6
					c0.8-0.7,1.7-1.1,2.8-1.1c0.9,0,1.8,0.4,2.5,1l1-1c-0.9-1-1.2-2.4-0.8-3.7c0.4-1.3,1.4-2.3,2.8-2.7c0.3-0.1,0.5-0.1,0.7-0.1
					c0-0.5,0-0.9,0-1.4c-2.1-0.2-3.7-1.8-3.7-3.9c0-1,0.4-1.8,1-2.5l-0.3-0.3c-0.2-0.2-0.5-0.5-0.7-0.7c-1,0.9-2.4,1.2-3.7,0.8
					c-1.3-0.4-2.3-1.4-2.7-2.8c-0.1-0.3-0.1-0.5-0.1-0.7c-0.4,0-0.8,0-1.1,0l-0.2,0c-0.1,1-0.5,1.9-1.2,2.6
					c-0.8,0.7-1.7,1.1-2.8,1.1c-0.9,0-1.8-0.4-2.5-1l-1,1c1,1.2,1.3,2.6,0.7,4.1c-0.6,1.4-1.8,2.3-3.4,2.4c0,0.5,0,0.9,0,1.4
					c1.6,0.1,2.8,1,3.4,2.4c0.6,1.4,0.4,2.9-0.7,4.1c0.3,0.3,0.6,0.6,1,1c1.2-1,2.7-1.3,4.1-0.7C91.9,107.9,92.7,109.1,92.8,110.6z"
					/>
			</g>
		</g>
		<g>
			<g>
				<path class="st0" d="M106,127.7c-3.4,0-6.2-2.8-6.2-6.2s2.8-6.2,6.2-6.2s6.2,2.8,6.2,6.2S109.4,127.7,106,127.7z M106,117.7
					c-2.1,0-3.8,1.7-3.8,3.8s1.7,3.8,3.8,3.8s3.8-1.7,3.8-3.8S108.1,117.7,106,117.7z"/>
			</g>
			<g>
				<path class="st0" d="M106,134.7c-0.3,0-0.6,0-0.9,0c-1.2,0-2.1-0.8-2.1-2.1c0-0.8-0.3-1.2-1-1.5c-0.6-0.3-1.2-0.2-1.7,0.4
					c-0.9,0.8-2.1,0.8-3,0c-0.4-0.4-0.8-0.8-1.2-1.2c-0.9-0.9-0.9-2.1,0-3c0.5-0.6,0.6-1.1,0.4-1.7c-0.3-0.6-0.7-0.9-1.5-0.9
					c-1.2,0-2.1-0.9-2.1-2.1c0-0.6,0-1.2,0-1.8c0-1.2,0.8-2.1,2-2.1c0.8,0,1.2-0.3,1.5-1c0.3-0.6,0.2-1.2-0.4-1.7
					c-0.8-0.9-0.8-2.1,0-3c0.3-0.3,0.5-0.5,0.8-0.8l0.4-0.4c1-1,2.1-1,3.1-0.1c0.3,0.3,0.6,0.4,1,0.4c0.4,0,0.8-0.1,1.1-0.4
					c0.3-0.3,0.5-0.7,0.5-1.1c0-1.3,0.9-2.1,2.2-2.1l0.5,0c0.4,0,0.9,0,1.3,0c1.1,0,2,0.8,2.1,2c0,0.2,0,0.4,0.1,0.5
					c0.1,0.5,0.5,0.9,1.1,1.1c0.5,0.2,1.1,0,1.5-0.4c0.3-0.3,0.7-0.6,1.4-0.7c0.3,0,0.5,0,0.8,0.1l0.1,0.1c0.2,0.1,0.4,0.2,0.7,0.4
					c0.3,0.3,0.6,0.6,0.9,0.9l0.3,0.3c1,1,1,2.1,0.1,3.1c-0.3,0.3-0.4,0.6-0.4,1.1c0,0.9,0.7,1.5,1.6,1.6c1.2,0,2.1,0.9,2.1,2.1
					c0,0.6,0,1.2,0,1.9c0,1.1-0.9,2-2,2.1c-0.2,0-0.4,0-0.5,0.1c-0.5,0.1-0.9,0.5-1.1,1.1c-0.2,0.5,0,1.1,0.4,1.5
					c0.9,1,0.9,2.1,0,3.1l-1.1,1.1c-1,1-2.1,1-3.1,0c-0.3-0.3-0.6-0.4-1-0.4c-0.5,0-0.8,0.1-1.1,0.4c-0.3,0.3-0.5,0.7-0.5,1.1
					c0,1.3-0.9,2.1-2.1,2.1C106.6,134.7,106.3,134.7,106,134.7z M105.3,132.3c0.5,0,0.9,0,1.4,0c0.1-1,0.5-1.9,1.2-2.6
					c0.8-0.7,1.8-1.1,2.8-1.1c0.9,0,1.8,0.4,2.5,1l1-1c-0.9-1-1.2-2.4-0.8-3.7c0.4-1.3,1.4-2.3,2.8-2.7c0.3-0.1,0.5-0.1,0.7-0.1
					c0-0.5,0-0.9,0-1.4c-2.1-0.2-3.7-1.8-3.7-3.9c0-0.9,0.4-1.8,1-2.5l-0.3-0.3c-0.2-0.2-0.5-0.5-0.7-0.7c-1,0.9-2.4,1.2-3.7,0.8
					c-1.3-0.4-2.3-1.4-2.7-2.8c-0.1-0.3-0.1-0.5-0.1-0.7c-0.3,0-0.7,0-1,0l-0.3,0c-0.1,1-0.5,1.9-1.2,2.6c-0.8,0.7-1.7,1.1-2.8,1.1
					c-0.9,0-1.8-0.4-2.5-1l-0.3,0.3c-0.2,0.2-0.4,0.4-0.6,0.6c1,1.2,1.3,2.6,0.7,4.1c-0.6,1.4-1.8,2.3-3.4,2.4c0,0.5,0,0.9,0,1.4
					c1.6,0.1,2.8,1,3.4,2.4c0.6,1.4,0.4,2.9-0.7,4.1c0.3,0.3,0.6,0.6,1,1c1.2-1,2.7-1.3,4.1-0.7
					C104.3,129.6,105.2,130.8,105.3,132.3z"/>
			</g>
		</g>
	</g>
</g>
</svg>
