<?xml version="1.0" encoding="utf-8"?>
<!-- Generator: Adobe Illustrator 26.3.1, SVG Export Plug-In . SVG Version: 6.00 Build 0)  -->
<svg version="1.1" id="Layer_1" xmlns="http://www.w3.org/2000/svg" xmlns:xlink="http://www.w3.org/1999/xlink" x="0px" y="0px"
	 viewBox="0 0 200 200" style="enable-background:new 0 0 200 200;" xml:space="preserve">
<style type="text/css">
	.st0{fill:#0067FC;}
</style>
<g>
	<g>
		<g>
			<path class="st0" d="M117.2,143.6h-42c-3,0-5.5-2.5-5.5-5.5V62.6c0-3,2.5-5.5,5.5-5.5H125c3,0,5.5,2.5,5.5,5.5v66.3
				c0,0.3-0.1,0.6-0.3,0.8l-12.1,13.5C117.9,143.5,117.5,143.6,117.2,143.6z M72.1,93.6v44.6c0,1.7,1.3,3,3,3h41.5l11.4-12.8V62.6
				c0-1.7-1.3-3-3-3H75.1c-1.7,0-3,1.3-3,3V93.6z"/>
		</g>
		<g>
			<path class="st0" d="M116.2,143.2c-0.7,0-1.2-0.6-1.2-1.2v-8.8c0-3,2.5-5.5,5.5-5.5h8.8c0.7,0,1.2,0.6,1.2,1.2s-0.6,1.2-1.2,1.2
				h-8.8c-1.7,0-3,1.3-3,3v8.8C117.4,142.6,116.9,143.2,116.2,143.2z"/>
		</g>
	</g>
	<g>
		<g>
			<path class="st0" d="M70.9,132.4h-2.3c-2.9,0-5.2-2.3-5.2-5.2V82.8c0-0.7,0.6-1.2,1.2-1.2s1.2,0.6,1.2,1.2v44.4
				c0,1.5,1.2,2.7,2.7,2.7h2.3c0.7,0,1.2,0.6,1.2,1.2S71.6,132.4,70.9,132.4z"/>
		</g>
		<g>
			<path class="st0" d="M64.6,87c-0.7,0-1.2-0.6-1.2-1.2V56.9c0-2.9,2.3-5.2,5.2-5.2H115c2.9,0,5.2,2.3,5.2,5.2v1.4
				c0,0.7-0.6,1.2-1.2,1.2s-1.2-0.6-1.2-1.2v-1.4c0-1.5-1.2-2.7-2.7-2.7H68.6c-1.5,0-2.7,1.2-2.7,2.7v28.8
				C65.9,86.4,65.3,87,64.6,87z"/>
		</g>
	</g>
	<g>
		<g>
			<path class="st0" d="M117.7,112.4h-27c-0.7,0-1.2-0.6-1.2-1.2s0.6-1.2,1.2-1.2h27c0.7,0,1.2,0.6,1.2,1.2S118.4,112.4,117.7,112.4
				z"/>
		</g>
		<g>
			<path class="st0" d="M117.7,119.4h-27c-0.7,0-1.2-0.6-1.2-1.2s0.6-1.2,1.2-1.2h27c0.7,0,1.2,0.6,1.2,1.2S118.4,119.4,117.7,119.4
				z"/>
		</g>
		<g>
			<path class="st0" d="M107.7,126.5h-17c-0.7,0-1.2-0.6-1.2-1.2s0.6-1.2,1.2-1.2h17c0.7,0,1.2,0.6,1.2,1.2S108.4,126.5,107.7,126.5
				z"/>
		</g>
		<g>
			<path class="st0" d="M83.8,113.8c-0.3,0-0.6-0.1-0.9-0.4l-1.4-1.4c-0.5-0.5-0.5-1.3,0-1.8s1.3-0.5,1.8,0l0.5,0.5l1.9-1.9
				c0.5-0.5,1.3-0.5,1.8,0s0.5,1.3,0,1.8l-2.8,2.8C84.4,113.7,84.1,113.8,83.8,113.8z"/>
		</g>
		<g>
			<path class="st0" d="M83.8,120.8c-0.3,0-0.6-0.1-0.9-0.4l-1.4-1.4c-0.5-0.5-0.5-1.3,0-1.8s1.3-0.5,1.8,0l0.5,0.5l1.9-1.9
				c0.5-0.5,1.3-0.5,1.8,0s0.5,1.3,0,1.8l-2.8,2.8C84.4,120.7,84.1,120.8,83.8,120.8z"/>
		</g>
		<g>
			<path class="st0" d="M83.8,127.3c-0.3,0-0.6-0.1-0.9-0.4l-1.4-1.4c-0.5-0.5-0.5-1.3,0-1.8s1.3-0.5,1.8,0l0.5,0.5l1.9-1.9
				c0.5-0.5,1.3-0.5,1.8,0s0.5,1.3,0,1.8l-2.8,2.8C84.4,127.2,84.1,127.3,83.8,127.3z"/>
		</g>
	</g>
	<g>
		<path class="st0" d="M100.1,173.1c-40.1,0-72.7-32.6-72.7-72.7S60,27.7,100.1,27.7s72.7,32.6,72.7,72.7S140.2,173.1,100.1,173.1z
			 M100.1,31.7c-37.9,0-68.7,30.8-68.7,68.7c0,37.9,30.8,68.7,68.7,68.7c37.9,0,68.7-30.8,68.7-68.7C168.8,62.5,138,31.7,100.1,31.7
			z"/>
	</g>
	<g>
		<g>
			<path class="st0" d="M112,79c-0.1,0-0.3,0-0.4-0.1c-0.7-0.2-1-0.9-0.8-1.6l0.7-2.1l-2-0.7c-0.7-0.2-1-0.9-0.8-1.6
				c0.2-0.7,0.9-1,1.6-0.8l3.2,1c0.7,0.2,1,0.9,0.8,1.6l-1.1,3.3C113,78.7,112.5,79,112,79z"/>
		</g>
		<g>
			<g>
				<path class="st0" d="M111.5,100.2c-0.7,0-1.2-0.6-1.2-1.2V82.1c0-0.7,0.6-1.2,1.2-1.2s1.2,0.6,1.2,1.2v16.8
					C112.8,99.6,112.2,100.2,111.5,100.2z"/>
			</g>
			<g>
				<path class="st0" d="M103.7,100.2c-0.7,0-1.2-0.6-1.2-1.2V85.1c0-0.7,0.6-1.2,1.2-1.2s1.2,0.6,1.2,1.2v13.8
					C104.9,99.6,104.4,100.2,103.7,100.2z"/>
			</g>
			<g>
				<path class="st0" d="M95.8,100.2c-0.7,0-1.2-0.6-1.2-1.2V87c0-0.7,0.6-1.2,1.2-1.2s1.2,0.6,1.2,1.2v12
					C97.1,99.6,96.5,100.2,95.8,100.2z"/>
			</g>
			<g>
				<path class="st0" d="M88,100.2c-0.7,0-1.2-0.6-1.2-1.2v-6.3c0-0.7,0.6-1.2,1.2-1.2s1.2,0.6,1.2,1.2v6.3
					C89.2,99.6,88.7,100.2,88,100.2z"/>
			</g>
		</g>
		<g>
			<path class="st0" d="M87.1,90.2c-0.3,0-0.6-0.1-0.9-0.4c-0.5-0.5-0.5-1.3,0-1.8l7.7-7.7c0.2-0.2,0.4-0.3,0.7-0.4l7.8-1l9-4.8
				c0.6-0.3,1.4-0.1,1.7,0.5s0.1,1.4-0.5,1.7l-9.2,4.9c-0.1,0.1-0.3,0.1-0.4,0.1l-7.6,1l-7.4,7.4C87.7,90.1,87.4,90.2,87.1,90.2z"/>
		</g>
	</g>
</g>
</svg>
