<?xml version="1.0" encoding="utf-8"?>
<!-- Generator: Adobe Illustrator 26.4.0, SVG Export Plug-In . SVG Version: 6.00 Build 0)  -->
<svg version="1.1" id="Layer_1" xmlns="http://www.w3.org/2000/svg" xmlns:xlink="http://www.w3.org/1999/xlink" x="0px" y="0px"
	 viewBox="0 0 200 200" style="enable-background:new 0 0 200 200;" xml:space="preserve">
<style type="text/css">
	.st0{fill:#0067FC;}
</style>
<g>
	<g>
		<path class="st0" d="M118.4,143.2h-42c-3,0-5.5-2.5-5.5-5.5V89.9c0-0.7,0.6-1.2,1.2-1.2s1.2,0.6,1.2,1.2v47.7c0,1.7,1.3,3,3,3
			h41.5l11.4-12.8v-7c0-0.7,0.6-1.2,1.2-1.2s1.2,0.6,1.2,1.2v7.4c0,0.3-0.1,0.6-0.3,0.8l-12.1,13.5
			C119.1,143,118.8,143.2,118.4,143.2z"/>
	</g>
	<g>
		<path class="st0" d="M72.2,94.3c-0.7,0-1.2-0.6-1.2-1.2v-31c0-3,2.5-5.5,5.5-5.5h49.8c3,0,5.5,2.5,5.5,5.5v22.6
			c0,0.7-0.6,1.2-1.2,1.2s-1.2-0.6-1.2-1.2V62.1c0-1.7-1.3-3-3-3H76.4c-1.7,0-3,1.3-3,3v31C73.4,93.8,72.8,94.3,72.2,94.3z"/>
	</g>
	<g>
		<path class="st0" d="M117.4,142.7c-0.7,0-1.2-0.6-1.2-1.2v-8.8c0-3,2.5-5.5,5.5-5.5h8.8c0.7,0,1.2,0.6,1.2,1.2s-0.6,1.2-1.2,1.2
			h-8.8c-1.7,0-3,1.3-3,3v8.8C118.7,142.1,118.1,142.7,117.4,142.7z"/>
	</g>
	<g>
		<path class="st0" d="M130.5,121.5c-10,0-18.2-8.2-18.2-18.2c0-10,8.2-18.2,18.2-18.2s18.2,8.2,18.2,18.2
			C148.7,113.3,140.5,121.5,130.5,121.5z M130.5,87.5c-8.7,0-15.9,7.1-15.9,15.9c0,8.7,7.1,15.9,15.9,15.9s15.9-7.1,15.9-15.9
			C146.3,94.6,139.2,87.5,130.5,87.5z"/>
	</g>
	<g>
		<g>
			<path class="st0" d="M105.9,116.6h-17c-0.7,0-1.2-0.6-1.2-1.2s0.6-1.2,1.2-1.2h17c0.7,0,1.2,0.6,1.2,1.2S106.6,116.6,105.9,116.6
				z"/>
		</g>
		<g>
			<path class="st0" d="M99.9,123.6h-11c-0.7,0-1.2-0.6-1.2-1.2s0.6-1.2,1.2-1.2h11c0.7,0,1.2,0.6,1.2,1.2S100.6,123.6,99.9,123.6z"
				/>
		</g>
		<g>
			<path class="st0" d="M105.9,130.6h-17c-0.7,0-1.2-0.6-1.2-1.2s0.6-1.2,1.2-1.2h17c0.7,0,1.2,0.6,1.2,1.2S106.6,130.6,105.9,130.6
				z"/>
		</g>
		<g>
			<path class="st0" d="M82,118c-0.3,0-0.6-0.1-0.9-0.4l-1.4-1.4c-0.5-0.5-0.5-1.3,0-1.8s1.3-0.5,1.8,0l0.5,0.5l1.9-1.9
				c0.5-0.5,1.3-0.5,1.8,0s0.5,1.3,0,1.8l-2.8,2.8C82.6,117.8,82.3,118,82,118z"/>
		</g>
		<g>
			<path class="st0" d="M108.2,109H88.9c-0.7,0-1.2-0.6-1.2-1.2s0.6-1.2,1.2-1.2h19.3c0.7,0,1.2,0.6,1.2,1.2S108.9,109,108.2,109z"
				/>
		</g>
		<g>
			<path class="st0" d="M82,110.4c-0.3,0-0.6-0.1-0.9-0.4l-1.4-1.4c-0.5-0.5-0.5-1.3,0-1.8s1.3-0.5,1.8,0l0.5,0.5l1.9-1.9
				c0.5-0.5,1.3-0.5,1.8,0s0.5,1.3,0,1.8l-2.8,2.8C82.6,110.3,82.3,110.4,82,110.4z"/>
		</g>
		<g>
			<path class="st0" d="M82,125c-0.3,0-0.6-0.1-0.9-0.4l-1.4-1.4c-0.5-0.5-0.5-1.3,0-1.8s1.3-0.5,1.8,0L82,122l1.9-1.9
				c0.5-0.5,1.3-0.5,1.8,0s0.5,1.3,0,1.8l-2.8,2.8C82.6,124.9,82.3,125,82,125z"/>
		</g>
		<g>
			<path class="st0" d="M82,131.5c-0.3,0-0.6-0.1-0.9-0.4l-1.4-1.4c-0.5-0.5-0.5-1.3,0-1.8s1.3-0.5,1.8,0l0.5,0.5l1.9-1.9
				c0.5-0.5,1.3-0.5,1.8,0s0.5,1.3,0,1.8l-2.8,2.8C82.6,131.3,82.3,131.5,82,131.5z"/>
		</g>
	</g>
	<g>
		<path class="st0" d="M100.1,172.6c-40.1,0-72.7-32.6-72.7-72.7S60,27.2,100.1,27.2s72.7,32.6,72.7,72.7S140.2,172.6,100.1,172.6z
			 M100.1,31.2c-37.9,0-68.7,30.8-68.7,68.7c0,37.9,30.8,68.7,68.7,68.7c37.9,0,68.7-30.8,68.7-68.7C168.8,62,138,31.2,100.1,31.2z"
			/>
	</g>
	<g>
		<g>
			<path class="st0" d="M130.5,109.2c-1.6,0-3.1-0.6-4.2-1.7c-2.3-2.3-2.3-6.1,0-8.4c0,0,0,0,0,0c1.1-1.1,2.6-1.7,4.2-1.7
				c1.6,0,3.1,0.6,4.2,1.7c1.1,1.1,1.7,2.6,1.7,4.2c0,1.6-0.6,3.1-1.7,4.2C133.6,108.6,132.1,109.2,130.5,109.2z M128,100.8
				c-1.4,1.4-1.4,3.7,0,5.1c1.4,1.4,3.7,1.4,5.1,0c0.7-0.7,1.1-1.6,1.1-2.5s-0.4-1.9-1.1-2.5C131.7,99.4,129.3,99.4,128,100.8
				L128,100.8z"/>
		</g>
		<g>
			<path class="st0" d="M130.3,115.8c-0.2,0-0.5,0-0.7,0c-0.3,0-0.6-0.1-0.8-0.2l-0.1,0c-0.3-0.1-0.5-0.2-0.6-0.5
				c-0.4-0.5-0.4-1-0.4-1.4c0-0.5-0.3-1-0.7-1.2c-0.4-0.2-1-0.2-1.4,0c-0.1,0.1-0.2,0.2-0.4,0.3c-0.8,0.8-2,0.7-2.8,0
				c-0.3-0.3-0.6-0.6-0.9-0.9l-0.3-0.3c-0.9-0.9-0.9-2.1,0-3c0.3-0.3,0.4-0.6,0.4-1c0-0.4-0.2-0.7-0.4-1c-0.3-0.3-0.6-0.4-1-0.4
				c-1.3,0-2.1-0.9-2.1-2.2l0-0.5c0-0.4,0-0.7,0-1.1c0-1.2,0.8-2,2-2.1c0.7,0,1.1-0.3,1.3-0.9c0.2-0.6,0.1-1.1-0.3-1.6
				c-0.8-0.8-0.8-2,0-2.9c0.4-0.4,0.8-0.8,1.2-1.2c0.8-0.8,2-0.8,2.9,0c0.5,0.5,1,0.6,1.6,0.3c0.6-0.2,0.9-0.6,0.9-1.3
				c0-1.2,0.9-2,2.1-2c0.6,0,1.1,0,1.7,0c1.2,0,2,0.8,2.1,2c0,0.7,0.3,1.1,0.9,1.3c0.6,0.2,1.1,0.1,1.6-0.3c0.9-0.8,2-0.8,2.9,0
				c0.4,0.4,0.8,0.8,1.2,1.2c0.9,0.9,0.9,2,0,2.9c-0.3,0.3-0.4,0.7-0.4,1.1c0,0.4,0.2,0.7,0.5,1c0.3,0.2,0.6,0.4,0.9,0.4
				c1.3,0,2.1,0.8,2.1,2.2l0,1.5c0,1.3-0.8,2.1-2.1,2.1c-0.5,0-1,0.3-1.2,0.7c-0.2,0.4-0.2,0.9,0,1.4c0.1,0.1,0.2,0.3,0.3,0.4
				c0.8,0.8,0.7,2,0,2.8c-0.4,0.4-0.8,0.8-1.2,1.2c-0.8,0.8-2,0.8-2.9,0c-0.6-0.6-1.5-0.6-2,0c-0.3,0.3-0.4,0.6-0.4,1
				c0,1.3-0.9,2.1-2.2,2.1l-0.5,0C130.6,115.8,130.5,115.8,130.3,115.8z M129.9,113.5c0.3,0,0.6,0,0.9,0l0.3,0
				c0.1-0.9,0.4-1.7,1.1-2.3c1.4-1.4,3.6-1.5,5.1-0.2c0.3-0.3,0.6-0.6,0.8-0.8c-0.1-0.2-0.3-0.3-0.4-0.5c-0.7-1.2-0.7-2.5-0.1-3.7
				c0.6-1.1,1.7-1.8,3-1.9l0-1.2c-0.9-0.1-1.7-0.4-2.3-1c-0.7-0.7-1.2-1.6-1.2-2.6c0-0.9,0.3-1.8,0.9-2.6c-0.3-0.3-0.6-0.6-0.8-0.8
				c-1.2,1-2.5,1.2-3.9,0.6c-1.4-0.6-2.2-1.7-2.3-3.2c-0.4,0-0.8,0-1.2,0c-0.1,1.5-1,2.6-2.3,3.2c-1.4,0.6-2.7,0.3-3.9-0.6
				c-0.3,0.3-0.6,0.6-0.8,0.8c1,1.1,1.2,2.5,0.6,3.9c-0.6,1.4-1.7,2.2-3.2,2.3c0,0.3,0,0.5,0,0.8l0,0.4c0.9,0.1,1.7,0.4,2.3,1
				c0.7,0.7,1.1,1.6,1.2,2.6c0,0.9-0.3,1.8-0.9,2.5l0.1,0.1c0.2,0.2,0.5,0.5,0.7,0.7c0.2-0.1,0.3-0.3,0.5-0.4
				c1.2-0.7,2.5-0.7,3.7-0.1C129.1,111.1,129.8,112.2,129.9,113.5z"/>
		</g>
	</g>
	<g>
		<g>
			<path class="st0" d="M92.2,97c-7.1,0-12.8-5.8-12.8-12.8c0-7.1,5.8-12.8,12.8-12.8c0.7,0,1.2,0.6,1.2,1.2v10.3h10.3
				c0.7,0,1.2,0.6,1.2,1.2C105,91.2,99.3,97,92.2,97z M90.9,73.9c-5.1,0.6-9.1,5-9.1,10.3c0,5.7,4.6,10.3,10.3,10.3
				c5.3,0,9.6-4,10.3-9.1H92.2c-0.7,0-1.2-0.6-1.2-1.2V73.9z"/>
		</g>
		<g>
			<path class="st0" d="M94.9,69.5v11.6l11.6,0C106.5,74.7,101.3,69.5,94.9,69.5z"/>
		</g>
	</g>
</g>
</svg>
