<svg xmlns="http://www.w3.org/2000/svg" xmlns:xlink="http://www.w3.org/1999/xlink" viewBox="0 0 107.71 150"><defs><style>.cls-1{fill:none;}.cls-2{clip-path:url(#clip-path);}.cls-3{fill:#287c14;}.cls-4,.cls-5{fill:#fff;}.cls-5{stroke:#287c14;stroke-miterlimit:10;stroke-width:0.5px;}</style><clipPath id="clip-path" transform="translate(-21.02)"><rect class="cls-1" width="150" height="150"/></clipPath></defs><g id="Layer_2" data-name="Layer 2"><g id="Layer_1-2" data-name="Layer 1"><g class="cls-2"><path class="cls-3" d="M91.55,0H35.16a5.68,5.68,0,0,0-5.68,5.68V122.3A5.68,5.68,0,0,0,35.16,128h87.89a5.68,5.68,0,0,0,5.68-5.69V37.18a5.71,5.71,0,0,0-1.66-4L95.57,1.66A5.71,5.71,0,0,0,91.55,0Z" transform="translate(-21.02)"/><rect class="cls-4" x="48.17" y="45.23" width="21.86" height="5.61" rx="2.47"/><rect class="cls-4" x="48.17" y="59.54" width="52.72" height="5.61" rx="2.47"/><rect class="cls-4" x="48.17" y="73.86" width="52.72" height="5.61" rx="2.47"/><rect class="cls-4" x="21.47" y="88.18" width="79.42" height="5.61" rx="2.47"/><rect class="cls-4" x="21.47" y="102.5" width="79.42" height="5.61" rx="2.47"/><rect class="cls-4" x="17.2" y="8.83" width="41.79" height="16.45" rx="3"/><path class="cls-3" d="M52.88,17.07l3,4.77H53.69l-2-3.14-1.83,3.14H47.73l3-4.77-3-4.76h2.16l2,3.14,1.84-3.14h2.16Z" transform="translate(-21.02)"/><path class="cls-3" d="M59.48,20.38h3.06v1.46h-5V12.31h1.92Z" transform="translate(-21.02)"/><path class="cls-3" d="M70.09,20.48a3,3,0,0,1-1.19,1.06,3.9,3.9,0,0,1-1.79.39,4,4,0,0,1-2.52-.73,2.43,2.43,0,0,1-1-2.05h2.05a1.31,1.31,0,0,0,.41.93,1.45,1.45,0,0,0,1,.32,1.5,1.5,0,0,0,1-.34,1.13,1.13,0,0,0,.38-.88,1,1,0,0,0-.27-.71,1.72,1.72,0,0,0-.65-.43c-.26-.1-.63-.21-1.1-.34A10.24,10.24,0,0,1,65,17.23a2.54,2.54,0,0,1-1-.78A2.26,2.26,0,0,1,63.63,15a2.65,2.65,0,0,1,.43-1.51,2.77,2.77,0,0,1,1.19-1A4,4,0,0,1,67,12.18a3.86,3.86,0,0,1,2.38.67,2.64,2.64,0,0,1,1,2.06h-2.1a1.33,1.33,0,0,0-.41-.87,1.36,1.36,0,0,0-.92-.32A1.49,1.49,0,0,0,66,14a1.1,1.1,0,0,0-.36.9,1,1,0,0,0,.27.73,1.89,1.89,0,0,0,.66.43,9.06,9.06,0,0,0,1.09.32,11.47,11.47,0,0,1,1.49.48,2.39,2.39,0,0,1,1,.77,2.29,2.29,0,0,1,.41,1.43A2.53,2.53,0,0,1,70.09,20.48Z" transform="translate(-21.02)"/><rect class="cls-5" x="0.25" y="38.85" width="41.79" height="40.82" rx="3"/><path class="cls-3" d="M45,59.26l7.74,12.4H47.1L42,63.49l-4.76,8.17H31.58l7.78-12.4-7.78-12.4h5.65L42.34,55l4.8-8.17h5.61Z" transform="translate(-21.02)"/><path class="cls-4" d="M94.9,32.8V5.63A1.12,1.12,0,0,0,93.77,4.5h0a1.12,1.12,0,0,0-1.12,1.13V35.05a1.12,1.12,0,0,0,1.12,1.13H123.2a1.13,1.13,0,0,0,1.13-1.13h0a1.14,1.14,0,0,0-1.13-1.13H96A1.13,1.13,0,0,1,94.9,32.8Z" transform="translate(-21.02)"/><polygon class="cls-3" points="103.6 140.44 100.1 140.44 100.1 131.85 95.37 131.85 95.37 140.44 91.88 140.44 97.74 146.3 103.6 140.44"/><polygon class="cls-3" points="100.31 144.85 97.74 147.42 95.16 144.85 87.76 144.85 87.76 150 107.71 150 107.71 144.85 100.31 144.85"/></g></g></g></svg>