<svg xmlns="http://www.w3.org/2000/svg" xmlns:xlink="http://www.w3.org/1999/xlink" viewBox="0 0 113.24 149.5"><defs><style>.cls-1{fill:none;}.cls-2{clip-path:url(#clip-path);}.cls-3{fill:#1f7246;}.cls-4,.cls-7{fill:#fff;}.cls-4{stroke:#989898;stroke-miterlimit:10;}.cls-5{fill:#989898;}.cls-6{fill:#85be9f;}</style><clipPath id="clip-path" transform="translate(-18.63)"><rect class="cls-1" width="150" height="150"/></clipPath></defs><g id="Layer_2" data-name="Layer 2"><g id="Layer_1-2" data-name="Layer 1"><g class="cls-2"><polygon class="cls-3" points="108.62 139.94 105.13 139.94 105.13 131.35 100.4 131.35 100.4 139.94 96.9 139.94 102.76 145.8 108.62 139.94"/><polygon class="cls-3" points="105.34 144.35 102.76 146.92 100.19 144.35 92.78 144.35 92.78 149.5 112.74 149.5 112.74 144.35 105.34 144.35"/><path class="cls-4" d="M96,.5H33.38a1.27,1.27,0,0,0-1.27,1.26V127.22a1.27,1.27,0,0,0,1.27,1.27h96.73a1.27,1.27,0,0,0,1.26-1.27V35.85A1.22,1.22,0,0,0,131,35L96.91.87A1.24,1.24,0,0,0,96,.5Z" transform="translate(-18.63)"/><path class="cls-5" d="M99.85,30.91V3.74a1.13,1.13,0,0,0-1.13-1.13h0a1.14,1.14,0,0,0-1.13,1.13V33.16a1.13,1.13,0,0,0,1.13,1.13h29.43a1.13,1.13,0,0,0,1.13-1.13h0A1.13,1.13,0,0,0,128.15,32H101A1.14,1.14,0,0,1,99.85,30.91Z" transform="translate(-18.63)"/><rect class="cls-6" x="49.94" y="110.81" width="22.98" height="10.22"/><rect class="cls-6" x="49.94" y="93.65" width="22.98" height="10.22"/><rect class="cls-6" x="49.94" y="76.49" width="22.98" height="10.22"/><rect class="cls-6" x="49.94" y="59.33" width="22.98" height="10.22"/><rect class="cls-6" x="49.94" y="42.17" width="22.98" height="10.22"/><rect class="cls-6" x="49.94" y="25.01" width="22.98" height="10.22"/><rect class="cls-5" x="49.94" y="7.84" width="22.98" height="10.22"/><rect class="cls-5" x="21.86" y="110.81" width="22.98" height="10.22"/><rect class="cls-5" x="21.86" y="93.65" width="22.98" height="10.22"/><rect class="cls-5" x="21.86" y="76.49" width="22.98" height="10.22"/><rect class="cls-5" x="21.86" y="59.33" width="22.98" height="10.22"/><rect class="cls-5" x="21.86" y="42.17" width="22.98" height="10.22"/><rect class="cls-5" x="21.86" y="25.01" width="22.98" height="10.22"/><rect class="cls-5" x="21.86" y="7.84" width="22.98" height="10.22"/><rect class="cls-6" x="78.03" y="110.81" width="22.98" height="10.22"/><rect class="cls-6" x="78.03" y="93.65" width="22.98" height="10.22"/><rect class="cls-6" x="78.03" y="76.49" width="22.98" height="10.22"/><rect class="cls-6" x="78.03" y="59.33" width="22.98" height="10.22"/><rect class="cls-6" x="78.03" y="42.17" width="22.98" height="10.22"/><polygon class="cls-3" points="0 46.12 47.59 40.19 47.59 109.44 0 103.24 0 46.12"/><path class="cls-7" d="M45.27,74.82,53,87.22H47.37l-5.12-8.17-4.76,8.17H31.84l7.78-12.4-7.78-12.4h5.65l5.12,8.17,4.79-8.17H53Z" transform="translate(-18.63)"/></g></g></g></svg>