<svg xmlns="http://www.w3.org/2000/svg" xmlns:xlink="http://www.w3.org/1999/xlink" viewBox="0 0 112.08 149.46"><defs><style>.cls-1{fill:none;}.cls-2{clip-path:url(#clip-path);}.cls-3{fill:#fff;}.cls-4{fill:#f20000;}</style><clipPath id="clip-path" transform="translate(-18.96 -0.27)"><rect class="cls-1" width="150" height="150"/></clipPath></defs><g id="Layer_2" data-name="Layer 2"><g id="Layer_1-2" data-name="Layer 1"><g class="cls-2"><polygon points="97.91 139.9 94.41 139.9 94.41 131.31 89.68 131.31 89.68 139.9 86.19 139.9 92.05 145.76 97.91 139.9"/><polygon points="94.62 144.31 92.05 146.88 89.47 144.31 82.07 144.31 82.07 149.46 102.02 149.46 102.02 144.31 94.62 144.31"/><path class="cls-3" d="M34,45.46V5.34H91.64V7.82q0,10.88,0,21.74c0,2.83.72,3.55,3.55,3.56q9.42,0,18.83,0h1.91V45.46Z" transform="translate(-18.96 -0.27)"/><path class="cls-3" d="M116,96.73V120.5H34.07V96.73Z" transform="translate(-18.96 -0.27)"/><path class="cls-4" d="M70.74,84.32v-24c4.55-1.45,10.35.1,13,3.41,2.85,3.58,3.12,10.95.56,15.44C82,83.3,77,85.21,70.74,84.32Z" transform="translate(-18.96 -0.27)"/><path class="cls-4" d="M38.56,65.39c0-1.4-.07-2.81,0-4.21,0-.44.53-1.19.83-1.2a24.64,24.64,0,0,1,5.3.21,4.45,4.45,0,0,1,3.7,4.19,5.41,5.41,0,0,1-2.33,5.51A9.46,9.46,0,0,1,39.38,71c-.32,0-.76-.7-.79-1.09C38.5,68.42,38.55,66.91,38.56,65.39Z" transform="translate(-18.96 -0.27)"/><path d="M131,52.73a6.93,6.93,0,0,0-7.08-7.11c-1,0-1.91,0-3,0V43.48c0-4,.08-8-.05-12a5.19,5.19,0,0,0-1.14-3Q108.09,15,96.27,1.71A4.6,4.6,0,0,0,93.21.33c-19.48-.08-39-.06-58.43,0C31,.28,29.1,2.26,29.1,6q0,18.92,0,37.82c0,.57-.05,1.14-.08,1.78H26.22A7,7,0,0,0,19,52.9q0,18.25,0,36.52a6.9,6.9,0,0,0,7.16,7.16c.95,0,1.9,0,3,0V99q0,11,0,22.08c0,3.93,1.95,5.87,5.89,5.87h65.08c5.14,0,10.28,0,15.42,0,3.45,0,5.41-2.08,5.42-5.5,0-2.22,0-4.44,0-6.66V96.58c1.08,0,1.94,0,2.79,0,4.46-.08,7.31-2.87,7.33-7.33Q131.07,71,131,52.73ZM34,5.34H91.64V7.82q0,10.88,0,21.74c0,2.83.72,3.55,3.55,3.56q9.42,0,18.83,0h1.91V45.46H34ZM116,120.5H34.07V96.73H116Z" transform="translate(-18.96 -0.27)"/><path class="cls-3" d="M48.2,81.65H63v6.43H38.47V81.65L53.24,59.81H38.47V53.39H63v6.42Z" transform="translate(-18.96 -0.27)"/><path class="cls-3" d="M77.6,53.39V88.08H69.15V53.39Z" transform="translate(-18.96 -0.27)"/><path class="cls-3" d="M93.46,74.59V88.08H85V53.39H98.7a15,15,0,0,1,6.94,1.48A10.53,10.53,0,0,1,110,58.78,10,10,0,0,1,111.44,64a10.8,10.8,0,0,1-1.16,4.77,9.8,9.8,0,0,1-4,4.1,14.67,14.67,0,0,1-7.56,1.71ZM101.73,67a4.1,4.1,0,0,0,1.12-3,4.18,4.18,0,0,0-1.14-3,4,4,0,0,0-3-1.19H93.46v8.35H98.7A4,4,0,0,0,101.73,67Z" transform="translate(-18.96 -0.27)"/></g></g></g></svg>