<?xml version="1.0" encoding="utf-8"?>
<!-- Generator: Adobe Illustrator 26.3.1, SVG Export Plug-In . SVG Version: 6.00 Build 0)  -->
<svg version="1.1" id="Layer_1" xmlns="http://www.w3.org/2000/svg" xmlns:xlink="http://www.w3.org/1999/xlink" x="0px" y="0px"
	 viewBox="0 0 200 200" style="enable-background:new 0 0 200 200;" xml:space="preserve">
<style type="text/css">
	.st0{fill:#0067FC;}
</style>
<g>
	<g>
		<g>
			<path class="st0" d="M117.2,143.6h-42c-3,0-5.5-2.5-5.5-5.5V62.6c0-3,2.5-5.5,5.5-5.5H125c3,0,5.5,2.5,5.5,5.5v66.3
				c0,0.3-0.1,0.6-0.3,0.8l-12.1,13.5C117.9,143.5,117.5,143.6,117.2,143.6z M72.1,93.6v44.6c0,1.7,1.3,3,3,3h41.5l11.4-12.8V62.6
				c0-1.7-1.3-3-3-3H75.1c-1.7,0-3,1.3-3,3V93.6z"/>
		</g>
		<g>
			<path class="st0" d="M116.2,143.2c-0.7,0-1.2-0.6-1.2-1.2v-8.8c0-3,2.5-5.5,5.5-5.5h8.8c0.7,0,1.2,0.6,1.2,1.2s-0.6,1.2-1.2,1.2
				h-8.8c-1.7,0-3,1.3-3,3v8.8C117.4,142.6,116.9,143.2,116.2,143.2z"/>
		</g>
	</g>
	<g>
		<g>
			<g>
				<path class="st0" d="M87.5,98.8c-6.1,0-11.1-5-11.1-11.1c0-6.1,5-11.1,11.1-11.1c6.1,0,11.1,5,11.1,11.1
					C98.6,93.9,93.6,98.8,87.5,98.8z M87.5,79.2c-4.7,0-8.6,3.9-8.6,8.6c0,4.7,3.9,8.6,8.6,8.6c4.7,0,8.6-3.9,8.6-8.6
					C96.1,83,92.2,79.2,87.5,79.2z"/>
			</g>
		</g>
		<g id="Group_263_00000005263880382188426380000014825171957184512129_" transform="translate(-598.5 -520.001)">
			<g id="Group_259_00000168802169354279750330000004084412288012635562_" transform="translate(549.903 487.744)">
				<g id="Ellipse_9_00000152221843638351136500000017202822471824022162_">
					<path class="st0" d="M136.1,120.5c-1.9,0-3.5-1.6-3.5-3.5s1.6-3.5,3.5-3.5s3.5,1.6,3.5,3.5S138,120.5,136.1,120.5z
						 M136.1,115.9c-0.6,0-1,0.5-1,1s0.5,1,1,1s1-0.5,1-1S136.6,115.9,136.1,115.9z"/>
				</g>
				<g id="Path_16_00000111889874496336798950000010982214866106881932_">
					<path class="st0" d="M139.8,126.6c-0.7,0-1.2-0.6-1.2-1.2c0-1.3-1.1-2.4-2.4-2.4c-1.3,0-2.4,1.1-2.4,2.4c0,0.7-0.6,1.2-1.2,1.2
						s-1.2-0.6-1.2-1.2c0-2.7,2.2-4.9,4.9-4.9s4.9,2.2,4.9,4.9C141,126.1,140.4,126.6,139.8,126.6z"/>
				</g>
			</g>
		</g>
		<g>
			<g>
				<path class="st0" d="M120.5,85.5h-18.6c-0.7,0-1.2-0.6-1.2-1.2s0.6-1.2,1.2-1.2h18.6c0.7,0,1.2,0.6,1.2,1.2
					S121.2,85.5,120.5,85.5z"/>
			</g>
			<g>
				<path class="st0" d="M113.5,92.5h-11.6c-0.7,0-1.2-0.6-1.2-1.2s0.6-1.2,1.2-1.2h11.6c0.7,0,1.2,0.6,1.2,1.2
					S114.2,92.5,113.5,92.5z"/>
			</g>
		</g>
	</g>
	<g>
		<path class="st0" d="M100.1,173.1c-40.1,0-72.7-32.6-72.7-72.7S60,27.7,100.1,27.7s72.7,32.6,72.7,72.7S140.2,173.1,100.1,173.1z
			 M100.1,31.7c-37.9,0-68.7,30.8-68.7,68.7c0,37.9,30.8,68.7,68.7,68.7c37.9,0,68.7-30.8,68.7-68.7C168.8,62.5,138,31.7,100.1,31.7
			z"/>
	</g>
	<g>
		<g>
			<path class="st0" d="M89.6,126.8h-4c-0.7,0-1.2-0.6-1.2-1.2v-15c0-0.7,0.6-1.2,1.2-1.2h4c0.7,0,1.2,0.6,1.2,1.2v15
				C90.8,126.2,90.3,126.8,89.6,126.8z M86.8,124.3h1.5v-12.5h-1.5V124.3z"/>
		</g>
		<g>
			<path class="st0" d="M97.7,126.8h-4c-0.7,0-1.2-0.6-1.2-1.2V105c0-0.7,0.6-1.2,1.2-1.2h4c0.7,0,1.2,0.6,1.2,1.2v20.5
				C99,126.2,98.4,126.8,97.7,126.8z M95,124.3h1.5v-18H95V124.3z"/>
		</g>
		<g>
			<path class="st0" d="M106.1,126.8h-4c-0.7,0-1.2-0.6-1.2-1.2v-11.2c0-0.7,0.6-1.2,1.2-1.2h4c0.7,0,1.2,0.6,1.2,1.2v11.2
				C107.3,126.2,106.8,126.8,106.1,126.8z M103.3,124.3h1.5v-8.7h-1.5V124.3z"/>
		</g>
		<g>
			<path class="st0" d="M114.5,126.8h-4c-0.7,0-1.2-0.6-1.2-1.2V105c0-0.7,0.6-1.2,1.2-1.2h4c0.7,0,1.2,0.6,1.2,1.2v20.5
				C115.8,126.2,115.2,126.8,114.5,126.8z M111.8,124.3h1.5v-18h-1.5V124.3z"/>
		</g>
	</g>
</g>
</svg>
