<?xml version="1.0" encoding="UTF-8"?>
<svg id="Layer_2" data-name="Layer 2" xmlns="http://www.w3.org/2000/svg" xmlns:xlink="http://www.w3.org/1999/xlink" viewBox="0 0 150 150">
  <defs>
    <style>
      .cls-1 {
        fill: none;
      }

      .cls-1, .cls-2 {
        stroke-width: 0px;
      }

      .cls-2 {
        fill: #0067fc;
      }

      .cls-3 {
        clip-path: url(#clippath);
      }
    </style>
    <clipPath id="clippath">
      <circle class="cls-1" cx="75" cy="75" r="75"/>
    </clipPath>
  </defs>
  <g id="Layer_1-2" data-name="Layer 1">
    <g class="cls-3">
      <path class="cls-2" d="M53.17,71.5c0,9.76.09,19.51-.02,29.26-.12,10.31,7.31,19.63,17.83,21.67,11.87,2.3,23.77-6.01,25.61-17.96.22-1.45.25-2.9.25-4.35,0-14.94,0-29.87,0-44.81,0-1.36.11-2.67,1.13-3.72,1.22-1.27,2.67-1.66,4.31-1.06,1.59.58,2.43,1.81,2.64,3.48.03.28.02.57.02.85,0,15.38.03,30.76,0,46.14-.03,12.92-8.37,24.32-20.68,28.38-17.2,5.68-35.86-5.62-38.74-23.44-.29-1.8-.46-3.61-.46-5.43,0-19.59,0-39.18,0-58.77,0-11.26,7.46-20.21,18.53-22.26,11.96-2.22,24.06,6.64,25.57,18.72.13,1.04.24,2.09.24,3.14,0,18.5,0,37,0,55.49,0,7.02-4.71,12.79-11.56,14.28-8.47,1.84-17.14-4.87-17.19-13.54-.1-16.96-.04-33.92-.03-50.88,0-2.36,1.6-4.06,3.84-4.22,2.05-.14,3.88,1.48,4.19,3.75.08.56.06,1.13.06,1.7,0,16.23,0,32.46,0,48.69,0,3.48,1.76,5.8,4.94,6.59,3.58.89,7.39-1.9,7.61-5.57.02-.28.02-.57.02-.85,0-18.54.02-37.08-.01-55.62-.01-6.52-4.47-12.05-10.79-13.57-8.7-2.09-17.24,4.47-17.3,13.42-.07,10.16-.02,20.32-.02,30.48h0Z"/>
    </g>
  </g>
</svg>