<?xml version="1.0" encoding="UTF-8"?>
<svg id="Layer_2" data-name="Layer 2" xmlns="http://www.w3.org/2000/svg" viewBox="0 0 155 155">
  <defs>
    <style>
      .cls-1 {
        fill: none;
        stroke: #0067fc;
        stroke-miterlimit: 10;
        stroke-width: 5px;
      }

      .cls-2 {
        fill: #0067fc;
        stroke-width: 0px;
      }
    </style>
  </defs>
  <g id="Layer_1-2" data-name="Layer 1">
    <g>
      <circle class="cls-1" cx="77.5" cy="77.5" r="75"/>
      <g>
        <g>
          <path class="cls-2" d="M38.82,70.12c-3.8-5.52-5.56-11.36-4.46-17.75.97-5.65,6.67-9.93,12.05-9.49,6.03.5,10.6,5.43,10.74,11.58.11,4.86-.66,9.57-3.42,13.65-1.31,1.94-.73,2.54,1.11,3.16,4.77,1.61,9.08,3.92,12.51,7.75,5.1,5.68,4.73,12.48,4.04,19.28-.24,2.33-2.31,3.58-4.47,4.05-1.91.42-2.81,1.35-2.82,3.26,0,2.31-1.23,3.13-3.48,3.11-9.84-.07-19.67-.06-29.51,0-2.22.01-3.57-.68-3.39-3.11.13-1.78-.54-2.77-2.34-3.29-3.31-.94-4.99-3.25-5.07-6.74-.03-1.21-.28-2.41-.39-3.63-.68-7.47,2.7-12.85,8.69-16.91,3.12-2.11,6.62-3.39,10.22-4.94ZM46,82.05c-4.67,0-9.34.14-13.99-.05-2.85-.12-3.8.86-3.49,3.68.53,4.93.9,9.89,1.17,14.84.11,2.02.72,2.83,2.9,2.8,8.31-.12,16.63-.05,24.95-.06,4.05,0,4.36-.24,4.67-4.17.39-4.95.59-9.91,1.04-14.86.18-2-.85-2.19-2.34-2.19-4.97.01-9.94,0-14.91,0ZM45.94,70.92c1.45.08,2.74-.7,3.91-1.71,2.4-2.08,3.5-4.85,4.34-7.83.7-2.5.87-4.48-2.23-5.4-.79-.23-1.55-1.03-2.02-1.77-1.06-1.68-1.99-1.94-3.47-.41-1.64,1.7-3.81,2.66-5.97,3.54-4.25,1.72-4.27,1.74-2.69,6.25.82,2.34,2.04,4.39,4.02,5.95,1.15.9,2.42,1.46,4.1,1.39ZM64.6,79.73c-1.87-2.28-4.05-3.28-6.07-4.53-2.46-1.51-4.39-1.24-6.86.44-7.33,4.99-4.44,4.87-12.11.05-1.16-.73-2.17-2.14-3.73-1.66-3.43,1.05-6.45,2.83-9.23,5.7h38.01ZM45.5,45.07c-4.39.12-8.69,4.11-9.09,8.36-.19,2.03.33,2.92,2.51,2.09,3.18-1.2,6.02-2.86,8.25-5.47,1.39-1.63,2.56-2.01,3.36.51.44,1.39,1.39,2.46,2.53,3.34.47.36,1.06.85,1.59.31.27-.27.25-.95.19-1.42-.51-3.93-5.26-7.85-9.34-7.74ZM65.88,80.65c-.52,6.18-1.03,11.68-1.43,17.2-.17,2.38.74,2.92,2.85,1.9,1.06-.51,1.98-1.29,2.06-2.44.43-5.65.56-11.27-3.49-16.66ZM25.67,81.05c-3.44,3.69-4.53,13.82-2.23,17.36.22.33.51.63.83.88.82.65,1.81,1.25,2.78.71.87-.48.17-1.47.15-2.24-.04-1.22-.03-2.44-.19-3.64-.55-4.18-.27-8.46-1.33-13.08Z"/>
          <path class="cls-2" d="M45.91,97.6c-2.64-.03-4.82-2.21-4.83-4.82,0-2.59,2.19-4.81,4.8-4.85,2.58-.04,4.82,2.17,4.86,4.79.04,2.45-2.38,4.9-4.83,4.87Z"/>
        </g>
        <g>
          <path class="cls-2" d="M102.22,70.12c-3.8-5.52-5.56-11.36-4.46-17.75.97-5.65,6.67-9.93,12.05-9.49,6.03.5,10.6,5.43,10.74,11.58.11,4.86-.66,9.57-3.42,13.65-1.31,1.94-.73,2.54,1.11,3.16,4.77,1.61,9.08,3.92,12.51,7.75,5.1,5.68,4.73,12.48,4.04,19.28-.24,2.33-2.31,3.58-4.47,4.05-1.91.42-2.81,1.35-2.82,3.26,0,2.31-1.23,3.13-3.48,3.11-9.84-.07-19.67-.06-29.51,0-2.22.01-3.57-.68-3.39-3.11.13-1.78-.54-2.77-2.34-3.29-3.31-.94-4.99-3.25-5.07-6.74-.03-1.21-.28-2.41-.39-3.63-.68-7.47,2.7-12.85,8.69-16.91,3.12-2.11,6.62-3.39,10.22-4.94ZM109.4,82.05c-4.67,0-9.34.14-13.99-.05-2.85-.12-3.8.86-3.49,3.68.53,4.93.9,9.89,1.17,14.84.11,2.02.72,2.83,2.9,2.8,8.31-.12,16.63-.05,24.95-.06,4.05,0,4.36-.24,4.67-4.17.39-4.95.59-9.91,1.04-14.86.18-2-.85-2.19-2.34-2.19-4.97.01-9.94,0-14.91,0ZM109.34,70.92c1.45.08,2.74-.7,3.91-1.71,2.4-2.08,3.5-4.85,4.34-7.83.7-2.5.87-4.48-2.23-5.4-.79-.23-1.55-1.03-2.02-1.77-1.06-1.68-1.99-1.94-3.47-.41-1.64,1.7-3.81,2.66-5.97,3.54-4.25,1.72-4.27,1.74-2.69,6.25.82,2.34,2.04,4.39,4.02,5.95,1.15.9,2.42,1.46,4.1,1.39ZM128,79.73c-1.87-2.28-4.05-3.28-6.07-4.53-2.46-1.51-4.39-1.24-6.86.44-7.33,4.99-4.44,4.87-12.11.05-1.16-.73-2.17-2.14-3.73-1.66-3.43,1.05-6.45,2.83-9.23,5.7h38.01ZM108.9,45.07c-4.39.12-8.69,4.11-9.09,8.36-.19,2.03.33,2.92,2.51,2.09,3.18-1.2,6.02-2.86,8.25-5.47,1.39-1.63,2.56-2.01,3.36.51.44,1.39,1.39,2.46,2.53,3.34.47.36,1.06.85,1.59.31.27-.27.25-.95.19-1.42-.51-3.93-5.26-7.85-9.34-7.74ZM129.28,80.65c-.52,6.18-1.03,11.68-1.43,17.2-.17,2.38.74,2.92,2.85,1.9,1.06-.51,1.98-1.29,2.06-2.44.43-5.65.56-11.27-3.49-16.66ZM89.07,81.05c-3.44,3.69-4.53,13.82-2.23,17.36.22.33.51.63.83.88.82.65,1.81,1.25,2.78.71.87-.48.17-1.47.15-2.24-.04-1.22-.03-2.44-.19-3.64-.55-4.18-.27-8.46-1.33-13.08Z"/>
          <path class="cls-2" d="M109.31,97.6c-2.64-.03-4.82-2.21-4.83-4.82,0-2.59,2.19-4.81,4.8-4.85,2.58-.04,4.82,2.17,4.86,4.79.04,2.45-2.38,4.9-4.83,4.87Z"/>
        </g>
        <g>
          <path class="cls-2" d="M72.86,45.34c-2.38-3.46-3.48-7.11-2.79-11.11.61-3.54,4.17-6.22,7.54-5.94,3.77.31,6.63,3.4,6.72,7.25.07,3.04-.41,5.99-2.14,8.54-.82,1.21-.46,1.59.69,1.98,2.98,1,5.68,2.45,7.83,4.85,3.19,3.55,2.96,7.81,2.53,12.07-.15,1.46-1.45,2.24-2.8,2.54-1.2.26-1.76.84-1.76,2.04,0,1.45-.77,1.96-2.18,1.95-6.16-.04-12.31-.04-18.47,0-1.39,0-2.23-.42-2.12-1.94.08-1.11-.34-1.74-1.47-2.06-2.07-.59-3.13-2.03-3.17-4.22-.02-.76-.18-1.51-.24-2.27-.42-4.67,1.69-8.04,5.44-10.58,1.95-1.32,4.14-2.12,6.4-3.09ZM77.35,52.81c-2.92,0-5.84.09-8.76-.03-1.78-.07-2.38.54-2.19,2.3.33,3.09.56,6.19.73,9.29.07,1.27.45,1.77,1.81,1.75,5.2-.08,10.41-.03,15.61-.04,2.54,0,2.73-.15,2.92-2.61.24-3.1.37-6.2.65-9.3.11-1.25-.53-1.37-1.46-1.37-3.11,0-6.22,0-9.33,0ZM77.32,45.84c.91.05,1.71-.44,2.45-1.07,1.5-1.3,2.19-3.03,2.72-4.9.44-1.56.54-2.8-1.39-3.38-.49-.15-.97-.65-1.26-1.11-.66-1.05-1.24-1.22-2.17-.25-1.02,1.06-2.38,1.67-3.74,2.21-2.66,1.07-2.67,1.09-1.68,3.91.52,1.47,1.28,2.75,2.52,3.72.72.57,1.52.91,2.56.87ZM89,51.35c-1.17-1.43-2.53-2.05-3.8-2.83-1.54-.94-2.75-.78-4.29.27-4.59,3.13-2.78,3.05-7.58.03-.73-.46-1.36-1.34-2.34-1.04-2.15.66-4.03,1.77-5.77,3.57h23.79ZM77.04,29.66c-2.75.07-5.44,2.57-5.69,5.23-.12,1.27.2,1.83,1.57,1.31,1.99-.75,3.77-1.79,5.17-3.42.87-1.02,1.6-1.26,2.1.32.27.87.87,1.54,1.58,2.09.29.23.67.53.99.2.17-.17.16-.59.12-.89-.32-2.46-3.29-4.91-5.85-4.84ZM89.79,51.93c-.33,3.86-.65,7.31-.89,10.76-.11,1.49.46,1.82,1.78,1.19.66-.32,1.24-.81,1.29-1.53.27-3.54.35-7.05-2.18-10.42ZM64.63,52.18c-2.15,2.31-2.84,8.65-1.4,10.87.14.21.32.4.52.55.51.41,1.13.78,1.74.45.55-.3.11-.92.09-1.4-.02-.76-.02-1.53-.12-2.28-.35-2.62-.17-5.29-.83-8.18Z"/>
          <path class="cls-2" d="M77.3,62.54c-1.65-.02-3.02-1.38-3.02-3.02,0-1.62,1.37-3.01,3-3.03,1.62-.02,3.01,1.36,3.04,3,.03,1.53-1.49,3.07-3.02,3.05Z"/>
        </g>
      </g>
    </g>
  </g>
</svg>