<?xml version="1.0" encoding="UTF-8"?>
<svg id="Layer_2" data-name="Layer 2" xmlns="http://www.w3.org/2000/svg" xmlns:xlink="http://www.w3.org/1999/xlink" viewBox="0 0 150 150">
  <defs>
    <style>
      .cls-1 {
        fill: none;
      }

      .cls-1, .cls-2 {
        stroke-width: 0px;
      }

      .cls-2 {
        fill: #0067fc;
      }

      .cls-3 {
        clip-path: url(#clippath);
      }
    </style>
    <clipPath id="clippath">
      <circle class="cls-1" cx="75" cy="75" r="75"/>
    </clipPath>
  </defs>
  <g id="Layer_1-2" data-name="Layer 1">
    <g class="cls-3">
      <g>
        <path class="cls-2" d="M92.6,49.36c-.58-2.11-1.95-3.47-3.89-4.5-2.34-1.24-4.54-2.77-6.79-4.19-.87-.55-1.42-1.45-1.58-2.35-.19-1,.77-1.77,1.49-2.29,1.95-1.38,2.69-3.34,3.08-5.53.09-.49.06-1.06-.25-1.4-.71-.78-.47-1.59-.34-2.47.23-1.59.65-3.4-.55-4.64-1.09-1.13-1.53-2.82-3.16-3.48-1.75-.71-3.56-.98-5.43-1.03-.2,0-.4,0-.69,0-1.59-.08-3.22.15-4.75.86-2.64,1.24-4.17,4.04-3.9,7.05.06.72.12,1.45.21,2.17.04.33.11.64-.16.91-.93.94-.8,2.09-.48,3.18.51,1.74,1.2,3.34,2.89,4.43,1.84,1.19,1.65,3.44-.28,4.68-2.23,1.44-4.46,2.92-6.8,4.16-1.83.97-3.08,2.31-3.71,4.23-.06.17-.11.31-.16.41,4.11,5.21,10.48,8.54,17.63,8.54s13.55-3.35,17.66-8.57c-.02-.05-.03-.1-.05-.16ZM69.16,35.1c-.12-.24-.28-.53-.51-.65-1.57-.83-2.55-2.79-2.19-4.47.4.23.35.7.54,1.03.15.26.34.46.67.42.34-.05.47-.3.49-.6.04-.44.03-.89.05-1.33.11-2.02,1.22-2.98,3.27-2.72,1.25.16,2.47.28,3.72,0,1.48-.34,2.72-1.05,3.54-2.33.47-.74.71-.7,1.13,0,1.01,1.73,1.69,3.55,1.86,5.56.04.49-.18,1.19.5,1.34.77.18.83-.57,1.06-1.06.1-.2.09-.48.39-.54.38,1.64-.64,3.95-2.09,4.6-.34.15-.44.45-.62.7-.74,1.05-1.47,2.1-2.55,2.87-2.32,1.67-4.92,1.61-7.09-.26-.85-.74-1.65-1.53-2.17-2.56ZM80.68,42.19c-.78,2.13-3.04,3.56-5.96,3.57-1.84-.22-3.8-.76-4.98-2.82-.56-.98-.05-3.39.88-3.99.26-.17.46-.05.66.08,2.44,1.54,4.9,1.62,7.38.1.15-.09.39-.16.56-.11.56.15,1.66,2.61,1.46,3.18Z"/>
        <g>
          <path class="cls-2" d="M47.03,109.8c-.58-2.11-1.95-3.47-3.89-4.5-2.34-1.24-4.54-2.77-6.79-4.19-.87-.55-1.42-1.45-1.58-2.35-.19-1,.77-1.77,1.49-2.29,1.95-1.38,2.69-3.34,3.08-5.53.09-.49.06-1.06-.25-1.4-.71-.78-.47-1.59-.34-2.47.23-1.59.65-3.4-.55-4.64-1.09-1.13-1.53-2.82-3.16-3.48-1.75-.71-3.56-.98-5.43-1.03-.2,0-.4,0-.69,0-1.59-.08-3.22.15-4.75.86-2.64,1.24-4.17,4.04-3.9,7.05.06.72.12,1.45.21,2.17.04.33.11.64-.16.91-.93.94-.8,2.09-.48,3.18.51,1.74,1.2,3.34,2.89,4.43,1.84,1.19,1.65,3.44-.28,4.68-2.23,1.44-4.46,2.92-6.8,4.16-1.83.97-3.08,2.31-3.71,4.23-.06.17-.11.31-.16.41,4.11,5.21,10.48,8.54,17.63,8.54s13.55-3.35,17.66-8.57c-.02-.05-.03-.1-.05-.16ZM23.59,95.54c-.12-.24-.28-.53-.51-.65-1.57-.83-2.55-2.79-2.19-4.47.4.23.35.7.54,1.03.15.26.34.46.67.42.34-.05.47-.3.49-.6.04-.44.03-.89.05-1.33.11-2.02,1.22-2.98,3.27-2.72,1.25.16,2.47.28,3.72,0,1.48-.34,2.72-1.05,3.54-2.33.47-.74.71-.7,1.13,0,1.01,1.73,1.69,3.55,1.86,5.56.04.49-.18,1.19.5,1.34.77.18.83-.57,1.06-1.06.1-.2.09-.48.39-.54.38,1.64-.64,3.95-2.09,4.6-.34.15-.44.45-.62.7-.74,1.05-1.47,2.1-2.55,2.87-2.32,1.67-4.92,1.61-7.09-.26-.85-.74-1.65-1.53-2.17-2.56ZM35.11,102.63c-.78,2.13-3.04,3.56-5.96,3.57-1.84-.22-3.8-.76-4.98-2.82-.56-.98-.05-3.39.88-3.99.26-.17.46-.05.66.08,2.44,1.54,4.9,1.62,7.38.1.15-.09.39-.16.56-.11.56.15,1.66,2.61,1.46,3.18Z"/>
          <path class="cls-2" d="M92.6,109.8c-.58-2.11-1.95-3.47-3.89-4.5-2.34-1.24-4.54-2.77-6.79-4.19-.87-.55-1.42-1.45-1.58-2.35-.19-1,.77-1.77,1.49-2.29,1.95-1.38,2.69-3.34,3.08-5.53.09-.49.06-1.06-.25-1.4-.71-.78-.47-1.59-.34-2.47.23-1.59.65-3.4-.55-4.64-1.09-1.13-1.53-2.82-3.16-3.48-1.75-.71-3.56-.98-5.43-1.03-.2,0-.4,0-.69,0-1.59-.08-3.22.15-4.75.86-2.64,1.24-4.17,4.04-3.9,7.05.06.72.12,1.45.21,2.17.04.33.11.64-.16.91-.93.94-.8,2.09-.48,3.18.51,1.74,1.2,3.34,2.89,4.43,1.84,1.19,1.65,3.44-.28,4.68-2.23,1.44-4.46,2.92-6.8,4.16-1.83.97-3.08,2.31-3.71,4.23-.06.17-.11.31-.16.41,4.11,5.21,10.48,8.54,17.63,8.54s13.55-3.35,17.66-8.57c-.02-.05-.03-.1-.05-.16ZM69.16,95.54c-.12-.24-.28-.53-.51-.65-1.57-.83-2.55-2.79-2.19-4.47.4.23.35.7.54,1.03.15.26.34.46.67.42.34-.05.47-.3.49-.6.04-.44.03-.89.05-1.33.11-2.02,1.22-2.98,3.27-2.72,1.25.16,2.47.28,3.72,0,1.48-.34,2.72-1.05,3.54-2.33.47-.74.71-.7,1.13,0,1.01,1.73,1.69,3.55,1.86,5.56.04.49-.18,1.19.5,1.34.77.18.83-.57,1.06-1.06.1-.2.09-.48.39-.54.38,1.64-.64,3.95-2.09,4.6-.34.15-.44.45-.62.7-.74,1.05-1.47,2.1-2.55,2.87-2.32,1.67-4.92,1.61-7.09-.26-.85-.74-1.65-1.53-2.17-2.56ZM80.68,102.63c-.78,2.13-3.04,3.56-5.96,3.57-1.84-.22-3.8-.76-4.98-2.82-.56-.98-.05-3.39.88-3.99.26-.17.46-.05.66.08,2.44,1.54,4.9,1.62,7.38.1.15-.09.39-.16.56-.11.56.15,1.66,2.61,1.46,3.18Z"/>
          <path class="cls-2" d="M138.17,109.8c-.58-2.11-1.95-3.47-3.89-4.5-2.34-1.24-4.54-2.77-6.79-4.19-.87-.55-1.42-1.45-1.58-2.35-.19-1,.77-1.77,1.49-2.29,1.95-1.38,2.69-3.34,3.08-5.53.09-.49.06-1.06-.25-1.4-.71-.78-.47-1.59-.34-2.47.23-1.59.65-3.4-.55-4.64-1.09-1.13-1.53-2.82-3.16-3.48-1.75-.71-3.56-.98-5.43-1.03-.2,0-.4,0-.69,0-1.59-.08-3.22.15-4.75.86-2.64,1.24-4.17,4.04-3.9,7.05.06.72.12,1.45.21,2.17.04.33.11.64-.16.91-.93.94-.8,2.09-.48,3.18.51,1.74,1.2,3.34,2.89,4.43,1.84,1.19,1.65,3.44-.28,4.68-2.23,1.44-4.46,2.92-6.8,4.16-1.83.97-3.08,2.31-3.71,4.23-.06.17-.11.31-.16.41,4.11,5.21,10.48,8.54,17.63,8.54s13.55-3.35,17.66-8.57c-.02-.05-.03-.1-.05-.16ZM114.73,95.54c-.12-.24-.28-.53-.51-.65-1.57-.83-2.55-2.79-2.19-4.47.4.23.35.7.54,1.03.15.26.34.46.67.42.34-.05.47-.3.49-.6.04-.44.03-.89.05-1.33.11-2.02,1.22-2.98,3.27-2.72,1.25.16,2.47.28,3.72,0,1.48-.34,2.72-1.05,3.54-2.33.47-.74.71-.7,1.13,0,1.01,1.73,1.69,3.55,1.86,5.56.04.49-.18,1.19.5,1.34.77.18.83-.57,1.06-1.06.1-.2.09-.48.39-.54.38,1.64-.64,3.95-2.09,4.6-.34.15-.44.45-.62.7-.74,1.05-1.47,2.1-2.55,2.87-2.32,1.67-4.92,1.61-7.09-.26-.85-.74-1.65-1.53-2.17-2.56ZM126.25,102.63c-.78,2.13-3.04,3.56-5.96,3.57-1.84-.22-3.8-.76-4.98-2.82-.56-.98-.05-3.39.88-3.99.26-.17.46-.05.66.08,2.44,1.54,4.9,1.62,7.38.1.15-.09.39-.16.56-.11.56.15,1.66,2.61,1.46,3.18Z"/>
        </g>
        <path class="cls-2" d="M75.04,75.92c-.8,0-1.45-.65-1.45-1.45v-17.97c0-.8.65-1.45,1.45-1.45s1.45.65,1.45,1.45v17.97c0,.8-.65,1.45-1.45,1.45Z"/>
        <path class="cls-2" d="M40.58,79.73c-.37,0-.74-.14-1.03-.43-.57-.57-.57-1.49,0-2.05l23.8-23.8c.57-.57,1.49-.57,2.05,0s.57,1.49,0,2.05l-23.8,23.8c-.28.28-.65.43-1.03.43Z"/>
        <path class="cls-2" d="M109.5,79.49c-.37,0-.74-.14-1.03-.43l-23.8-23.8c-.57-.57-.57-1.49,0-2.05.57-.57,1.49-.57,2.05,0l23.8,23.8c.57.57.57,1.49,0,2.05-.28.28-.65.43-1.03.43Z"/>
      </g>
    </g>
  </g>
</svg>