<?xml version="1.0" encoding="UTF-8"?>
<svg id="Layer_2" data-name="Layer 2" xmlns="http://www.w3.org/2000/svg" xmlns:xlink="http://www.w3.org/1999/xlink" viewBox="0 0 150 150">
  <defs>
    <style>
      .cls-1 {
        fill: none;
      }

      .cls-1, .cls-2 {
        stroke-width: 0px;
      }

      .cls-2 {
        fill: #0067fc;
      }

      .cls-3 {
        clip-path: url(#clippath);
      }
    </style>
    <clipPath id="clippath">
      <circle class="cls-1" cx="75" cy="75" r="75"/>
    </clipPath>
  </defs>
  <g id="Layer_1-2" data-name="Layer 1">
    <g class="cls-3">
      <g>
        <path class="cls-2" d="M60.47,27.54c1.59.94,3.17,1.89,4.77,2.81.73.42.88.74.03,1.22-3.77,2.15-7.52,4.32-11.27,6.5-.77.45-1.02.21-1.01-.6,0-1.14,0-2.27,0-3.41,0-1.35-.05-1.41-1.41-1.07-5.84,1.44-9.98,4.93-12.35,10.47-.91,2.12-1.28,4.36-1.3,6.65-.03,3.48.03,6.97-.03,10.45-.02,1,.33,1.36,1.29,1.49,6.51.84,11.7,3.95,15.61,9.2,5.4,7.25,5.7,17.99.7,25.47-5.03,7.52-12.13,10.95-21.09,10.38-10.29-.65-19.22-9.22-20.47-19.44-1.52-12.47,6.32-23.19,18.66-25.5q2.2-.41,2.2-2.66c0-3.27-.02-6.54,0-9.81.09-9.75,6.85-17.95,16.4-19.91q1.78-.36,1.8-2.24c2.49,0,4.98,0,7.47,0ZM35.93,68.46c.25,0,.43,0,.61,0,1.64.05,3.24.29,4.78.91,1.44.58,1.83,2.07,2.79,3.07,1.06,1.09.69,2.69.48,4.09-.11.78-.32,1.49.3,2.18.27.3.3.8.22,1.23-.34,1.93-.99,3.66-2.71,4.88-.64.45-1.48,1.13-1.32,2.02.14.79.63,1.59,1.4,2.07,1.98,1.25,3.92,2.6,5.98,3.69,1.71.91,2.92,2.11,3.43,3.97.18.66.43.66.8.13.14-.2.3-.39.45-.6,6.1-8.69,4.37-20.77-3.93-27.4-7.56-6.04-17.87-6.19-25.41-.14-5.44,4.37-8.07,10.14-7.7,17.18.21,3.98,1.51,7.56,3.88,10.76.47.63.7.7.97-.14.55-1.7,1.65-2.87,3.27-3.73,2.07-1.1,4.03-2.4,6-3.67,1.7-1.1,1.87-3.08.24-4.13-1.49-.96-2.1-2.37-2.55-3.9-.28-.96-.4-1.97.42-2.8.24-.24.17-.51.14-.8-.07-.64-.12-1.27-.18-1.91-.24-2.66,1.11-5.12,3.44-6.22,1.34-.63,2.78-.84,4.18-.76ZM28.85,79.47c-.32,1.48.55,3.21,1.93,3.94.2.1.34.36.45.57.46.91,1.17,1.61,1.92,2.26,1.91,1.65,4.2,1.7,6.25.23.95-.68,1.59-1.61,2.25-2.53.16-.22.25-.48.55-.62,1.28-.57,2.18-2.61,1.84-4.05-.27.05-.26.3-.34.48-.21.43-.26,1.09-.94.93-.59-.14-.4-.75-.44-1.18-.15-1.77-.75-3.38-1.64-4.91-.37-.63-.58-.65-.99,0-.72,1.13-1.82,1.75-3.12,2.05-1.1.26-2.17.15-3.28,0-1.81-.23-2.79.61-2.89,2.39-.02.39-.01.78-.04,1.17-.02.26-.14.49-.44.53-.29.04-.45-.13-.59-.37-.17-.29-.12-.7-.48-.9ZM36.13,93.39c2.57,0,4.56-1.27,5.25-3.15.18-.5-.79-2.67-1.28-2.8-.15-.04-.35.02-.49.1-2.19,1.34-4.35,1.27-6.51-.09-.18-.11-.35-.22-.58-.07-.82.53-1.27,2.66-.78,3.52,1.04,1.81,2.77,2.29,4.39,2.49Z"/>
        <path class="cls-2" d="M90.97,122.46c0-1.46-.08-2.92,0-4.37.06-1-.34-1.33-1.28-1.5-5.47-.96-9.85-3.74-13.1-8.22-2.39-3.29-3.77-6.99-3.81-11.11-.03-3.23,0-6.46-.03-9.7,0-.67.16-.95.85-.73.34.11.71.21,1.05.08,1.07-.4,1.24.09,1.25,1.05.03,3.44-.26,6.9.16,10.33.73,5.96,3.82,10.35,9.01,13.31,1.46.83,3.04,1.36,4.67,1.77.87.21,1.26-.05,1.23-1-.05-1.21,0-2.42-.01-3.62,0-.73.18-1.02.93-.59,3.84,2.23,7.68,4.45,11.53,6.67.87.5.39.77-.13,1.08-3.54,2.04-7.07,4.09-10.61,6.13-.21.12-.41.27-.62.41h-1.07Z"/>
        <path class="cls-2" d="M110.54,36.65c15.7.09,26.46,11.57,25.66,25.47-.65,11.35-9.54,20.82-20.86,22.22q-1.5.19-1.5,1.7c0,3.31-.02,6.61,0,9.92.04,5.95-2.05,11.04-6.23,15.26-.6.6-1.32,1.07-1.99,1.6-.28.22-.6.29-.89.09-.76-.51-2-.67-2.2-1.51-.16-.65,1.04-.98,1.62-1.47,3.92-3.3,6.16-7.43,6.46-12.6.22-3.77.04-7.53.15-11.3.03-1.15-.45-1.53-1.52-1.69-8.07-1.15-14.26-5.23-18.05-12.44-4.41-8.41-3.99-16.84,1.27-24.76,4.67-7.01,11.5-10.32,18.08-10.49ZM112.3,81.52c11.66,0,20.9-9.31,20.91-21.06.01-11.2-9.08-20.93-21.05-20.86-11.69.07-20.85,9.34-20.9,20.94-.05,11.78,9.68,21.16,21.03,20.98Z"/>
        <path class="cls-2" d="M75.88,59.2c0,3.48.02,6.96-.01,10.45,0,.87.25,1.22,1.15,1.18,1.28-.05,2.56,0,3.84-.01.74,0,1.01.2.59.94-2.2,3.78-4.39,7.55-6.55,11.35-.44.77-.73.71-1.14,0-2.18-3.79-4.36-7.57-6.56-11.34-.44-.75-.11-.95.59-.94,1.31,0,2.63-.03,3.94,0,.78.02,1.06-.31,1.06-1.08-.02-6.61.08-13.22-.04-19.82-.1-5.69-2.47-10.35-7.02-13.85-.93-.71-.92-.78.07-1.37q2.16-1.29,3.92.49c4.06,4.11,6.16,9.04,6.16,14.84,0,3.06,0,6.11,0,9.17Z"/>
        <path class="cls-2" d="M109.1,74.92c-.61-.02-1.11-.27-1.48-.73-2.34-2.86-4.68-5.72-7.01-8.58-.09-.11-.22-.26-.2-.36.2-1.16,1.31-1.48,2.05-2.12.54-.46.9.06,1.21.44,1.36,1.68,2.72,3.37,4.07,5.07,1.19,1.48,1.16,1.47,2.14-.07,4.09-6.41,8.19-12.81,12.28-19.22.38-.6.69-.75,1.35-.32,2.28,1.48,2.27,1.44.81,3.71-4.48,6.96-8.94,13.93-13.4,20.91-.44.69-.94,1.25-1.83,1.28Z"/>
      </g>
    </g>
  </g>
</svg>