<?xml version="1.0" encoding="UTF-8"?>
<svg id="Layer_2" data-name="Layer 2" xmlns="http://www.w3.org/2000/svg" xmlns:xlink="http://www.w3.org/1999/xlink" viewBox="0 0 150 150">
  <defs>
    <style>
      .cls-1 {
        fill: none;
      }

      .cls-1, .cls-2 {
        stroke-width: 0px;
      }

      .cls-2 {
        fill: #0067fc;
      }

      .cls-3 {
        clip-path: url(#clippath);
      }
    </style>
    <clipPath id="clippath">
      <circle class="cls-1" cx="75" cy="75" r="75"/>
    </clipPath>
  </defs>
  <g id="Layer_1-2" data-name="Layer 1">
    <g class="cls-3">
      <g>
        <path class="cls-2" d="M89.12,19.33c1.83.64,3.57,1.43,4.91,2.99,1.79,2.08,2.61,4.52,2.55,7.34-.05,2.64,0,2.64,2.45,2.64,4.27,0,8.53-.04,12.8.01,4.01.05,6.95,2.07,8.54,5.94,1.56,3.78.94,7.37-1.62,10.52-.86,1.06-1.91,1.86-3.13,2.39-.57.25-.81.61-.86,1.29-.57,7.53-1.2,15.06-1.78,22.59-.44,5.69-.84,11.39-1.29,17.08-.44,5.66-.92,11.31-1.37,16.97-.31,3.89-.64,7.78-.86,11.68-.33,5.83-4.29,9.89-9.8,9.89-16.45,0-32.91,0-49.36,0-5.55,0-9.45-4.1-9.81-10-.35-5.84-.9-11.67-1.36-17.51-.37-4.79-.72-9.59-1.09-14.38-.38-4.83-.78-9.65-1.16-14.48-.37-4.76-.72-9.52-1.09-14.27-.2-2.59-.43-5.19-.6-7.78-.05-.71-.48-.88-.95-1.11-2.83-1.44-4.59-3.79-5.27-7.04-1.19-5.75,3.1-11.65,8.65-11.75,4.85-.09,9.69-.06,14.54,0,1.01,0,1.3-.33,1.25-1.36-.1-1.99-.07-3.99.77-5.85,1.22-2.73,3.15-4.59,5.9-5.45.26-.08.51-.21.76-.32,9.42,0,18.85,0,28.27,0ZM74.97,124c7.99,0,15.98,0,23.97,0,.62,0,1.23-.02,1.83-.18,1.18-.32,2.12-1.38,2.22-2.68.43-5.33.84-10.67,1.25-16,.3-3.78.59-7.57.88-11.35.38-4.83.77-9.66,1.15-14.48.31-3.93.59-7.86.9-11.79.37-4.72.74-9.44,1.15-14.16.09-1.03-.19-1.38-1.21-1.38-21.41.03-42.81.02-64.22.02-1.27,0-1.33.04-1.23,1.42.26,3.64.55,7.28.84,10.92.52,6.56,1.06,13.11,1.58,19.67.44,5.66.85,11.32,1.28,16.98.46,6.06.94,12.11,1.42,18.16.06.72.11,1.44.22,2.16.26,1.7,1.6,2.67,3.69,2.67,8.09,0,16.18,0,24.27,0ZM75,45.33c11.91,0,23.82,0,35.73,0,.65,0,1.3-.01,1.93-.2,1.44-.42,2.35-1.96,2.08-3.51-.31-1.77-1.52-2.66-3.68-2.66-24.06,0-48.12,0-72.18,0-.51,0-1.02.06-1.52.19-1.3.33-2.23,1.64-2.21,3.03.02,1.37.93,2.59,2.18,2.95.63.18,1.28.19,1.93.19,11.91,0,23.82,0,35.73,0ZM74.91,32.29h12.8q2.76,0,2.56-2.96c-.14-2.07-1.23-3.24-3.18-3.4-.37-.03-.75-.01-1.13-.01-7.17,0-14.33,0-21.5,0-4,0-4.77.85-4.79,5.09,0,.99.25,1.31,1.21,1.3,4.68-.05,9.35-.02,14.03-.02Z"/>
        <path class="cls-2" d="M62.76,113.2c-.02.68.08,1.38-.11,2.05-.45,1.56-1.81,2.51-3.39,2.36-1.41-.14-2.6-1.33-2.76-2.9-.17-1.69-.28-3.39-.38-5.08-.3-5.34-.57-10.69-.88-16.03-.44-7.47-.92-14.94-1.36-22.41-.18-3.03-.35-6.07-.46-9.1-.07-2.11,1.1-3.57,2.82-3.7,1.9-.15,3.27,1.09,3.45,3.28.24,2.99.4,5.99.59,8.98.4,6.64.79,13.28,1.18,19.92.23,3.9.44,7.8.67,11.7.21,3.65.42,7.29.63,10.94Z"/>
        <path class="cls-2" d="M87.21,112.98c.32-5.25.66-10.73.99-16.22.23-3.83.43-7.65.66-11.48.32-5.52.66-11.05.99-16.57.14-2.42.25-4.84.45-7.25.16-1.98,1.59-3.21,3.42-3.08,1.66.12,2.92,1.55,2.83,3.47-.2,4.52-.49,9.03-.74,13.54-.16,2.74-.31,5.49-.48,8.23-.33,5.52-.67,11.04-.99,16.57-.23,3.94-.44,7.87-.66,11.81-.05.94-.1,1.88-.22,2.81-.23,1.74-1.65,2.91-3.35,2.81-1.6-.09-2.84-1.46-2.9-3.2-.01-.4,0-.8,0-1.44Z"/>
        <path class="cls-2" d="M71.84,87.89c0-8.65,0-17.31,0-25.96,0-2.06,1.23-3.49,2.99-3.55,1.98-.07,3.29,1.37,3.29,3.66,0,12.53,0,25.06,0,37.59,0,4.89,0,9.78,0,14.66,0,1.7-1.1,3.05-2.58,3.3-1.59.27-3.04-.66-3.56-2.24-.18-.57-.15-1.14-.15-1.72,0-8.58,0-17.16,0-25.74Z"/>
      </g>
    </g>
  </g>
</svg>