<?xml version="1.0" encoding="UTF-8"?>
<svg id="Layer_2" data-name="Layer 2" xmlns="http://www.w3.org/2000/svg" xmlns:xlink="http://www.w3.org/1999/xlink" viewBox="0 0 150 150">
  <defs>
    <style>
      .cls-1 {
        fill: none;
      }

      .cls-1, .cls-2, .cls-3 {
        stroke-width: 0px;
      }

      .cls-2 {
        fill: red;
      }

      .cls-3 {
        fill: #0067fc;
      }

      .cls-4 {
        clip-path: url(#clippath);
      }
    </style>
    <clipPath id="clippath">
      <circle class="cls-1" cx="75" cy="75" r="75"/>
    </clipPath>
  </defs>
  <g id="Layer_1-2" data-name="Layer 1">
    <g class="cls-4">
      <g>
        <path class="cls-3" d="M115.65,119.65c-5.8,3.35-12.12,4.98-18.55,6.12-17.88,3.17-35.73,2.97-53.49-.94-6.08-1.34-11.97-3.24-17.22-6.77-2.01-1.35-3.15-3.06-3.46-5.52-.6-4.77-.32-9.38,1.84-13.75,1.83-3.71,4.9-6.1,8.55-7.84,8.23-3.91,16.97-6.17,26.09-8.22,2.34,10.22,6.22,19.65,13.07,28.16,6.78-8.39,9.92-18.1,12.42-28.32,1.07.25,2.01.48,3.16.75-2.88,9.3-1.71,17.91,4.19,25.55,5.86,7.58,13.87,10.79,23.39,10.78Z"/>
        <path class="cls-3" d="M49.55,45.76c0-4.34-.48-8.49.1-12.49,1.23-8.43,7.92-14.14,17.16-15.04,5.77-.57,11.42-.07,16.36,3.49.33.24.73.44,1.12.5,6.49,1.02,10.71,6.47,11.21,14.2.19,3,.03,6.02.03,9.22,2.25.82,2.46,2.97,1.84,5.01-.65,2.12-1.9,4.06-2.94,6.04-1.11,2.12-2.32,4.18-3.41,6.3-1.57,3.04-2.74,6.36-4.67,9.14-7.28,10.49-20.49,10.55-27.76.04-2.25-3.25-3.52-7.18-5.28-10.78-.8-1.63-1.8-3.16-2.54-4.81-1.08-2.4-2.24-4.8-2.94-7.32-.46-1.68.21-3.33,1.71-3.5Z"/>
        <path class="cls-2" d="M135.34,92.32c.04,12.04-9.65,21.85-21.64,21.93-12.12.08-22-9.74-22-21.84,0-11.98,9.81-21.79,21.79-21.8,12.04,0,21.81,9.71,21.85,21.72ZM113.33,109.58c9.61.06,17.3-7.54,17.39-17.16.08-9.31-7.73-17.17-17.12-17.21-9.42-.04-17.13,7.6-17.24,17.07-.11,9.43,7.56,17.24,16.97,17.3Z"/>
        <path class="cls-2" d="M102.88,99.08c2.46-2.13,4.92-4.27,7.83-6.8-2.82-2.45-5.28-4.58-7.86-6.82,1.35-1.38,2.32-2.38,3.71-3.8,2.28,2.66,4.4,5.13,6.88,8.02,2.58-2.92,4.74-5.36,6.95-7.86,1.31,1.38,2.27,2.39,3.57,3.76-2.34,2.07-4.77,4.21-7.53,6.65,2.91,2.54,5.35,4.68,8.02,7.01-1.67,1.35-2.76,2.23-4.05,3.28-1.94-2.1-4.14-4.48-6.57-7.1-2.53,2.85-4.69,5.27-7.04,7.92-1.36-1.66-2.25-2.74-3.14-3.82-.26-.15-.52-.29-.78-.44Z"/>
      </g>
    </g>
  </g>
</svg>