<?xml version="1.0" encoding="UTF-8"?>
<svg id="Layer_2" data-name="Layer 2" xmlns="http://www.w3.org/2000/svg" xmlns:xlink="http://www.w3.org/1999/xlink" viewBox="0 0 150 150">
  <defs>
    <style>
      .cls-1 {
        fill: none;
      }

      .cls-1, .cls-2 {
        stroke-width: 0px;
      }

      .cls-2 {
        fill: #0067fc;
      }

      .cls-3 {
        clip-path: url(#clippath);
      }
    </style>
    <clipPath id="clippath">
      <circle class="cls-1" cx="75" cy="75" r="75"/>
    </clipPath>
  </defs>
  <g id="Layer_1-2" data-name="Layer 1">
    <g class="cls-3">
      <g>
        <path class="cls-2" d="M38.55,74.92c0-14.96,0-29.93,0-44.89,0-4.93,3.05-8.75,7.83-9.87.64-.15,1.28-.16,1.92-.16,13.46,0,26.91-.01,40.37,0,5.54,0,9.85,4.29,9.85,9.82.01,30.07.01,60.14,0,90.21,0,5.69-4.28,9.92-9.97,9.92-13.28.01-26.56-.09-39.83.05-5.23.06-10.25-4.15-10.22-10.3.09-14.93.03-29.86.03-44.78ZM93.95,74.98c0-7.11,0-14.21,0-21.32,0-7.93.01-15.86-.02-23.79,0-2.87-1.68-4.77-4.5-5.31-.93-.18-1.87,0-2.79-.13-1.5-.21-2.33.27-2.86,1.78-.66,1.87-2.16,2.96-4.21,2.96-7.36.03-14.71.01-22.07,0-1.38,0-2.48-.6-3.41-1.59-.64-.67-.94-1.52-1.27-2.35-.19-.47-.4-.82-.99-.8-1.5.06-3.01-.11-4.51.18-1.54.3-2.68,1.14-3.49,2.46-.66,1.06-.71,2.23-.71,3.43,0,14.03,0,28.06,0,42.09,0,15.68,0,31.36,0,47.05,0,.9.02,1.79.41,2.63,1.09,2.35,3.06,3.2,5.5,3.21,5.53.01,11.05,0,16.58,0,7.46,0,14.93,0,22.39,0,2.97,0,4.98-1.38,5.72-3.81.26-.84.19-1.71.19-2.56,0-14.71,0-29.43,0-44.14Z"/>
        <path class="cls-2" d="M102.53,116.28c-14.74.25-27.07-12.46-26.82-27.18.26-14.73,12.1-26.59,27-26.55,14.92.04,26.8,11.96,26.78,26.89-.02,15.02-11.9,26.86-26.96,26.84ZM99.69,94.93c0,1.62-.04,3.23.01,4.85.07,2.07,1.1,3.23,2.82,3.26,1.78.04,2.92-1.01,2.98-3.08.1-3.28.1-6.57,0-9.85-.06-1.98-1.21-3.07-2.86-3.06-1.71.01-2.86,1.21-2.94,3.18-.06,1.56-.01,3.13-.01,4.7ZM105.55,79.92c0-2.66-.82-3.96-2.61-4.12-2.15-.19-3.26,1.19-3.26,4.07,0,2.8,1.05,4.3,2.98,4.27,1.87-.04,2.88-1.51,2.88-4.22Z"/>
      </g>
    </g>
  </g>
</svg>