<?xml version="1.0" encoding="UTF-8"?>
<svg id="Layer_2" data-name="Layer 2" xmlns="http://www.w3.org/2000/svg" xmlns:xlink="http://www.w3.org/1999/xlink" viewBox="0 0 150 150">
  <defs>
    <style>
      .cls-1 {
        fill: none;
      }

      .cls-1, .cls-2 {
        stroke-width: 0px;
      }

      .cls-2 {
        fill: #0067fc;
      }

      .cls-3 {
        clip-path: url(#clippath);
      }
    </style>
    <clipPath id="clippath">
      <circle class="cls-1" cx="75" cy="75" r="75"/>
    </clipPath>
  </defs>
  <g id="Layer_1-2" data-name="Layer 1">
    <g class="cls-3">
      <g>
        <path class="cls-2" d="M24.47,111.9c.05-.85.52-1.4.93-1.98,2.79-3.87,5.58-7.76,8.41-11.6.53-.72.56-1.27.15-2.04-1.23-2.29-2.25-4.68-3-7.18-.28-.93-.79-1.36-1.74-1.51-4.72-.73-9.43-1.5-14.14-2.25-1.96-.31-2.49-.92-2.49-2.92,0-4.99,0-9.97,0-14.96,0-1.89.56-2.51,2.46-2.82,4.71-.75,9.42-1.53,14.14-2.25.94-.14,1.48-.54,1.76-1.48.74-2.49,1.74-4.9,2.99-7.18.41-.75.42-1.3-.12-2.03-2.79-3.77-5.51-7.59-8.27-11.39-1.52-2.09-1.49-2.73.3-4.52,3.34-3.35,6.69-6.7,10.04-10.04,1.63-1.62,2.37-1.66,4.24-.3,3.87,2.8,7.75,5.58,11.59,8.42.68.5,1.2.54,1.92.14,2.32-1.28,4.76-2.28,7.29-3.04.89-.27,1.28-.77,1.42-1.67.73-4.76,1.51-9.51,2.27-14.26.3-1.9.9-2.43,2.84-2.43,5.03,0,10.06,0,15.08,0,1.9,0,2.5.55,2.8,2.47.76,4.75,1.53,9.51,2.27,14.26.13.84.48,1.35,1.33,1.6,2.58.76,5.05,1.8,7.41,3.09.75.41,1.26.3,1.92-.18,3.85-2.83,7.73-5.61,11.6-8.42,1.87-1.36,2.56-1.32,4.22.34,3.38,3.37,6.76,6.75,10.13,10.13,1.64,1.65,1.71,2.34.35,4.23-2.74,3.81-5.48,7.62-8.27,11.39-.6.81-.74,1.44-.22,2.35,1.26,2.23,2.21,4.61,2.94,7.06.28.95.82,1.33,1.76,1.47,4.76.73,9.51,1.5,14.26,2.26,1.75.28,2.34.92,2.34,2.66.01,5.11,0,10.22,0,15.33,0,1.76-.58,2.42-2.3,2.7-4.75.76-9.5,1.54-14.26,2.26-1,.15-1.54.57-1.83,1.56-.74,2.49-1.75,4.89-3,7.17-.4.72-.37,1.24.13,1.92,2.83,3.84,5.61,7.73,8.42,11.59,1.36,1.87,1.32,2.61-.3,4.24-3.37,3.38-6.75,6.76-10.13,10.13-1.67,1.67-2.39,1.69-4.34.28-3.83-2.78-7.69-5.53-11.49-8.34-.73-.54-1.29-.53-2.04-.12-2.29,1.25-4.69,2.25-7.18,2.99-.94.28-1.34.82-1.49,1.76-.72,4.72-1.5,9.43-2.25,14.14-.3,1.9-.93,2.46-2.82,2.46-5.03,0-10.06,0-15.08,0-1.83,0-2.49-.58-2.78-2.36-.76-4.71-1.53-9.42-2.25-14.14-.15-.98-.52-1.56-1.52-1.87-2.53-.78-4.97-1.78-7.29-3.05-.68-.37-1.18-.33-1.82.14-3.85,2.83-7.73,5.61-11.6,8.41-1.92,1.4-2.65,1.36-4.34-.32-3.38-3.37-6.75-6.75-10.14-10.13-.63-.63-1.18-1.3-1.23-2.17ZM120.4,38.6c0-.61-.37-.86-.66-1.15-2.31-2.32-4.66-4.58-6.91-6.96-.88-.93-1.51-.94-2.52-.19-3.69,2.76-7.46,5.41-11.18,8.13-1.03.75-2.01.85-3.14.19-3.15-1.87-6.53-3.24-10.06-4.18-1.37-.37-2-1.2-2.2-2.55-.72-4.67-1.51-9.34-2.22-14.01-.13-.85-.47-1.14-1.29-1.13-3.48.02-6.95.02-10.43,0-.79,0-1.19.22-1.33,1.09-.7,4.64-1.51,9.25-2.19,13.89-.23,1.6-1.03,2.45-2.55,2.83-3.35.84-6.52,2.16-9.49,3.92-1.3.77-2.36.72-3.57-.18-3.77-2.79-7.6-5.5-11.37-8.29-.72-.53-1.15-.52-1.78.13-2.33,2.41-4.69,4.79-7.12,7.1-.91.87-.85,1.48-.14,2.43,2.75,3.7,5.41,7.46,8.13,11.18.75,1.03.89,2.01.22,3.13-1.85,3.11-3.22,6.45-4.14,9.94-.39,1.48-1.27,2.12-2.72,2.34-4.64.71-9.26,1.5-13.89,2.2-.84.13-1.15.47-1.14,1.3.02,3.48.02,6.95,0,10.43,0,.88.31,1.24,1.2,1.38,4.55.69,9.09,1.5,13.64,2.16,1.69.24,2.59,1.01,3,2.67.82,3.31,2.16,6.44,3.9,9.37.77,1.3.72,2.35-.18,3.56-2.79,3.77-5.5,7.6-8.28,11.38-.53.72-.53,1.15.12,1.78,2.5,2.42,4.96,4.88,7.38,7.38.68.7,1.13.66,1.88.11,3.77-2.79,7.6-5.5,11.38-8.28,1.12-.82,2.13-.94,3.35-.22,3.04,1.81,6.3,3.14,9.72,4.04,1.51.39,2.22,1.26,2.45,2.77.69,4.6,1.49,9.17,2.18,13.77.14.96.55,1.26,1.47,1.25,3.39-.03,6.79-.04,10.18,0,1.01.01,1.36-.37,1.51-1.35.69-4.6,1.47-9.18,2.18-13.77.22-1.4.85-2.26,2.29-2.62,3.31-.83,6.48-2.09,9.39-3.85,1.64-1,2.87-.81,4.33.29,3.51,2.65,7.12,5.16,10.65,7.79.91.68,1.51.71,2.33-.15,2.23-2.33,4.5-4.62,6.84-6.84.89-.85.91-1.45.18-2.42-2.76-3.69-5.42-7.45-8.14-11.17-.75-1.02-.92-2-.25-3.13,1.87-3.15,3.24-6.53,4.19-10.06.38-1.42,1.23-2.06,2.64-2.27,4.64-.7,9.26-1.49,13.89-2.19.9-.14,1.2-.51,1.19-1.38-.03-3.43-.04-6.87,0-10.31.01-.97-.37-1.28-1.29-1.42-4.55-.69-9.09-1.49-13.64-2.14-1.66-.24-2.5-1.05-2.91-2.62-.85-3.3-2.13-6.45-3.88-9.38-.8-1.35-.75-2.43.17-3.68,2.7-3.63,5.32-7.31,7.98-10.98.27-.37.51-.76.7-1.05Z"/>
        <path class="cls-2" d="M74.96,110.26c-19.54-.01-35.24-15.79-35.22-35.38.02-19.47,15.79-35.13,35.35-35.12,19.49.02,35.17,15.77,35.15,35.31-.02,19.49-15.77,35.2-35.28,35.19ZM75.02,106.14c17.36-.27,31.02-13.84,31.03-31.1.01-17.38-13.76-31.11-31.11-31.09-17.33.01-31.01,13.79-31.03,31.04-.01,17.34,13.77,30.93,31.11,31.14Z"/>
        <path class="cls-2" d="M47.05,74.94c0-15.34,12.57-27.88,27.95-27.88,15.42,0,27.96,12.56,27.94,28.01-.01,15.4-12.61,27.91-28.07,27.88-15.33-.03-27.82-12.61-27.82-28.01ZM75.03,98.66c12.63.31,23.75-10.52,23.64-23.6-.11-13.26-10.42-23.58-23.66-23.73-13.04-.15-23.75,10.96-23.74,23.7,0,12.84,10.86,23.98,23.76,23.64Z"/>
        <path class="cls-2" d="M77.05,70.19c0,1.5-.01,3.01,0,4.51.01,1.02-.4,1.78-1.28,2.28-1.99,1.15-3.97,2.31-5.99,3.41-1.35.74-2.56.44-3.14-.68-.58-1.1-.14-2.24,1.18-3.02,1.37-.8,2.74-1.61,4.13-2.37.71-.39.99-.91.97-1.72-.04-2.3-.02-4.6,0-6.9.01-1.64.8-2.58,2.1-2.55,1.26.03,2,.93,2.02,2.51.02,1.5,0,3.01,0,4.51h0Z"/>
        <path class="cls-2" d="M60.39,58.4c1.3-.02,3.71,2.34,3.71,3.65,0,1.39-1.43,2.49-2.7,1.93-1.32-.59-2.37-1.62-2.92-2.97-.51-1.24.56-2.59,1.91-2.61Z"/>
        <path class="cls-2" d="M91.61,60.35c-.02,1.42-2.39,3.81-3.67,3.77-.8-.02-1.44-.39-1.82-1.13-.38-.73-.37-1.5.16-2.12.64-.76,1.35-1.47,2.12-2.11.62-.51,1.39-.52,2.12-.13.73.39,1.07,1.02,1.1,1.71Z"/>
        <path class="cls-2" d="M60.39,91.62c-1.46-.02-2.48-1.54-1.82-2.84.57-1.13,1.5-2.04,2.6-2.64,1.32-.72,2.93.36,2.92,1.85,0,1.3-2.41,3.66-3.71,3.64Z"/>
        <path class="cls-2" d="M91.6,89.62c-.04,1.56-1.74,2.54-3.09,1.7-.93-.57-1.68-1.39-2.31-2.28-.47-.67-.44-1.43-.02-2.14.4-.67,1.02-1,1.78-1,1.31,0,3.66,2.42,3.63,3.72Z"/>
        <path class="cls-2" d="M77.05,55.49c0,.42.03.84,0,1.25-.1,1.19-.9,1.95-2.02,1.97-1.18.01-2.01-.78-2.08-2.04-.04-.71-.04-1.42,0-2.13.06-1.34.91-2.2,2.09-2.18,1.14.02,1.93.85,2.02,2.13.02.33,0,.67,0,1Z"/>
        <path class="cls-2" d="M94.34,77.08c-.21,0-.42,0-.63,0-1.57-.03-2.43-.78-2.42-2.08,0-1.29.88-2.02,2.46-2.05.63,0,1.26-.03,1.88.02,1.19.09,1.99.91,2.01,2,.03,1.14-.8,2-2.05,2.1-.42.03-.84,0-1.25,0h0Z"/>
        <path class="cls-2" d="M77.03,94.53c.02,2.13-.61,3.09-2,3.12-1.44.03-2.1-.96-2.1-3.17,0-.42-.02-.84.03-1.25.13-1.2.93-1.93,2.06-1.92,1.12.01,1.9.76,2.01,1.97.04.41,0,.83,0,1.25Z"/>
        <path class="cls-2" d="M55.42,77.06c-2.11,0-3.1-.67-3.07-2.09.02-1.38.98-2.02,3.02-2.03.42,0,.84-.02,1.26.01,1.29.1,2.09.92,2.06,2.07-.04,1.17-.84,1.94-2.13,2.02-.38.02-.75,0-1.13,0Z"/>
      </g>
    </g>
  </g>
</svg>