<?xml version="1.0" encoding="UTF-8"?>
<svg id="Layer_2" data-name="Layer 2" xmlns="http://www.w3.org/2000/svg" xmlns:xlink="http://www.w3.org/1999/xlink" viewBox="0 0 150 150">
  <defs>
    <style>
      .cls-1 {
        fill: none;
      }

      .cls-1, .cls-2 {
        stroke-width: 0px;
      }

      .cls-2 {
        fill: #0067fc;
      }

      .cls-3 {
        clip-path: url(#clippath);
      }
    </style>
    <clipPath id="clippath">
      <circle class="cls-1" cx="75" cy="75" r="75"/>
    </clipPath>
  </defs>
  <g id="Layer_1-2" data-name="Layer 1">
    <g class="cls-3">
      <g>
        <g>
          <g>
            <path class="cls-2" d="M65.37,36.49v3.99h12.38c2.43,0,4.39,1.97,4.39,4.39v33.72c0,2.43-1.97,4.39-4.39,4.39h-12.38v3.99h16.37c2.43,0,4.39-1.97,4.39-4.39v-41.7c0-2.43-1.97-4.39-4.39-4.39h-16.37Z"/>
            <rect class="cls-2" x="73.69" y="51.27" width="20.93" height="20.93" rx="3.45" ry="3.45"/>
          </g>
          <g>
            <path class="cls-2" d="M52.3,27.18v3.99h-12.38c-2.43,0-4.39,1.97-4.39,4.39v33.72c0,2.43,1.97,4.39,4.39,4.39h12.38v3.99h-16.37c-2.43,0-4.39-1.97-4.39-4.39V31.58c0-2.43,1.97-4.39,4.39-4.39h16.37Z"/>
            <rect class="cls-2" x="23.05" y="41.96" width="20.93" height="20.93" rx="3.45" ry="3.45" transform="translate(67.04 104.85) rotate(180)"/>
          </g>
          <rect class="cls-2" x="49.66" y="24.29" width="18.16" height="20.93" rx="3.45" ry="3.45"/>
          <rect class="cls-2" x="49.66" y="69.66" width="18.16" height="20.93" rx="3.45" ry="3.45"/>
        </g>
        <path class="cls-2" d="M122.89,116.22c-.63-2.3-2.12-3.77-4.22-4.89-2.55-1.35-4.93-3.01-7.37-4.55-.94-.59-1.54-1.58-1.72-2.55-.2-1.09.83-1.92,1.62-2.48,2.12-1.49,2.92-3.62,3.34-6,.09-.53.06-1.15-.27-1.52-.77-.85-.51-1.73-.37-2.69.25-1.73.71-3.69-.59-5.04-1.18-1.22-1.66-3.06-3.43-3.78-1.9-.77-3.87-1.06-5.89-1.12-.22,0-.44,0-.75,0-1.73-.09-3.5.16-5.15.94-2.87,1.35-4.53,4.39-4.24,7.66.07.79.13,1.57.22,2.35.04.35.12.69-.18.99-1.01,1.02-.86,2.28-.52,3.45.56,1.89,1.3,3.62,3.14,4.81,2,1.29,1.79,3.73-.3,5.08-2.43,1.57-4.84,3.17-7.39,4.52-1.99,1.06-3.35,2.5-4.03,4.6-.06.18-.12.33-.18.45,4.47,5.65,11.39,9.28,19.15,9.28s14.71-3.64,19.18-9.31c-.02-.06-.04-.11-.06-.18ZM97.44,100.73c-.13-.27-.31-.58-.55-.7-1.7-.91-2.77-3.03-2.38-4.86.44.25.38.76.59,1.11.17.29.37.5.72.45.37-.05.51-.33.54-.65.04-.48.03-.96.06-1.44.12-2.2,1.32-3.24,3.55-2.95,1.36.18,2.68.31,4.04,0,1.61-.37,2.96-1.14,3.85-2.53.51-.8.78-.76,1.22,0,1.1,1.88,1.84,3.86,2.02,6.04.04.53-.19,1.29.54,1.46.84.2.9-.62,1.16-1.15.11-.22.1-.53.42-.59.42,1.78-.7,4.29-2.27,4.99-.37.17-.48.49-.68.76-.81,1.14-1.6,2.28-2.77,3.12-2.52,1.81-5.35,1.74-7.7-.29-.92-.8-1.8-1.67-2.36-2.79ZM109.95,108.43c-.85,2.32-3.31,3.87-6.47,3.88-2-.24-4.13-.83-5.41-3.07-.6-1.06-.06-3.68.96-4.34.28-.18.5-.05.72.09,2.65,1.67,5.32,1.76,8.02.11.17-.1.42-.17.6-.12.61.16,1.81,2.83,1.58,3.45Z"/>
      </g>
    </g>
  </g>
</svg>