<?xml version="1.0" encoding="UTF-8"?>
<svg id="Layer_2" data-name="Layer 2" xmlns="http://www.w3.org/2000/svg" xmlns:xlink="http://www.w3.org/1999/xlink" viewBox="0 0 150 150">
  <defs>
    <style>
      .cls-1 {
        fill: none;
      }

      .cls-1, .cls-2 {
        stroke-width: 0px;
      }

      .cls-2 {
        fill: #0067fc;
      }

      .cls-3 {
        clip-path: url(#clippath);
      }
    </style>
    <clipPath id="clippath">
      <circle class="cls-1" cx="75" cy="75" r="75"/>
    </clipPath>
  </defs>
  <g id="Layer_1-2" data-name="Layer 1">
    <g class="cls-3">
      <g>
        <g>
          <path class="cls-2" d="M139.6,61.45c-.02,5.65-1.77,9.86-4.85,13.57-.77.92-1.56,1.83-2.53,2.55-.48.37-.58.76-.31,1.33.99,2.13,1.94,4.27,2.89,6.41.11.25.38.53.15.78-.24.24-.54-.02-.79-.11-2.92-1.09-5.84-2.18-8.74-3.31-.6-.23-1.12-.25-1.73-.03-8.77,3.15-17.42,2.87-25.8-1.23-5.66-2.77-10.01-6.95-12.07-13.07-2.26-6.72-.94-12.89,3.45-18.36,4.49-5.6,10.54-8.55,17.51-9.72,6.57-1.1,12.96-.34,18.99,2.51,6.07,2.87,10.68,7.2,12.9,13.73.63,1.85.97,3.76.93,4.95ZM125.72,67.55c2.49,0,4.49-1.94,4.53-4.41.04-2.44-1.98-4.48-4.45-4.5-2.53-.02-4.54,1.94-4.58,4.47-.04,2.4,2.02,4.44,4.5,4.45ZM98.63,67.55c2.48,0,4.49-1.97,4.51-4.43.03-2.47-2.02-4.49-4.55-4.49-2.47,0-4.5,2.04-4.47,4.48.03,2.48,2.02,4.43,4.51,4.43ZM112.17,67.55c2.49,0,4.49-1.94,4.53-4.41.04-2.47-2.01-4.51-4.54-4.5-2.47,0-4.5,2.02-4.49,4.47.01,2.46,2.01,4.44,4.49,4.45Z"/>
          <path class="cls-2" d="M60.53,48.22c.08,5.25,1.9,9.68,5.22,13.52,1.24,1.43,2.62,2.72,4.13,3.86.58.44.63.82.32,1.44-.61,1.23-1.15,2.49-1.7,3.75-.1.22-.33.48-.14.71.21.25.49,0,.71-.08,1.87-.7,3.75-1.41,5.61-2.14.6-.23,1.13-.24,1.73.02,2.38,1.01,4.85,1.71,7.39,2.14.44.07.72.26.92.65.27.54.59,1.04.88,1.57.12.21.4.43.21.68-.17.21-.49.11-.74.07-1.07-.17-2.15-.33-3.21-.56-1.88-.4-3.72-.9-5.5-1.64-.56-.23-1.07-.24-1.64-.02-3.6,1.39-7.21,2.75-10.82,4.11-.25.09-.56.36-.78.1-.18-.2.07-.48.17-.71,1.17-2.61,2.31-5.23,3.52-7.82.31-.66.25-1.05-.31-1.54-4.79-4.18-7.89-9.33-8.57-15.73-.63-5.89,1.01-11.22,4.55-15.94,4.24-5.67,9.96-9.23,16.68-11.13,9.82-2.78,19.36-1.98,28.46,2.79,4.81,2.52,8.7,6.08,11.45,10.81.14.24.43.5.26.77-.19.29-.52.03-.79.03-1.67,0-2.72-.83-3.75-2.17-4.13-5.32-9.74-8.41-16.19-9.99-7.58-1.85-15.05-1.37-22.27,1.66-6.01,2.52-10.84,6.45-13.8,12.39-1.34,2.68-1.94,5.55-1.99,8.38Z"/>
        </g>
        <path class="cls-2" d="M70.83,111.41c-.86-3.12-2.87-5.13-5.74-6.65-3.46-1.83-6.69-4.09-10.01-6.18-1.28-.81-2.1-2.15-2.34-3.47-.27-1.48,1.13-2.61,2.21-3.37,2.88-2.03,3.96-4.92,4.54-8.16.13-.72.09-1.56-.37-2.06-1.05-1.16-.7-2.35-.51-3.65.34-2.35.96-5.01-.81-6.85-1.61-1.66-2.25-4.16-4.66-5.13-2.59-1.05-5.26-1.44-8.01-1.52-.3-.01-.6,0-1.02,0-2.35-.12-4.76.22-7,1.27-3.9,1.83-6.15,5.96-5.76,10.4.09,1.07.18,2.13.3,3.19.05.48.16.94-.24,1.34-1.37,1.38-1.17,3.09-.71,4.69.76,2.57,1.77,4.92,4.27,6.53,2.72,1.75,2.44,5.07-.41,6.9-3.29,2.13-6.58,4.31-10.04,6.14-2.71,1.43-4.55,3.4-5.47,6.24-.08.25-.16.45-.24.61,6.07,7.68,15.47,12.61,26.02,12.61s19.99-4.95,26.06-12.65c-.02-.07-.05-.15-.07-.24ZM36.24,90.37c-.18-.36-.42-.78-.75-.96-2.31-1.23-3.76-4.12-3.23-6.6.6.34.52,1.03.8,1.51.22.39.5.68.98.61.5-.07.69-.44.73-.88.05-.65.04-1.31.07-1.96.17-2.99,1.8-4.4,4.83-4.01,1.84.24,3.64.42,5.48-.01,2.18-.51,4.02-1.55,5.23-3.43.69-1.09,1.05-1.04,1.66.01,1.49,2.55,2.49,5.24,2.74,8.21.06.72-.26,1.75.73,1.98,1.14.27,1.23-.85,1.57-1.56.14-.3.13-.71.57-.8.57,2.42-.95,5.83-3.08,6.79-.51.23-.65.66-.92,1.03-1.1,1.55-2.17,3.1-3.76,4.24-3.43,2.46-7.26,2.37-10.45-.39-1.26-1.09-2.44-2.26-3.21-3.78ZM53.24,100.83c-1.15,3.15-4.49,5.26-8.79,5.27-2.71-.33-5.61-1.13-7.35-4.17-.82-1.44-.07-5,1.3-5.89.38-.25.68-.07.97.12,3.6,2.27,7.22,2.39,10.89.14.23-.14.57-.23.82-.17.82.22,2.46,3.85,2.15,4.69Z"/>
      </g>
    </g>
  </g>
</svg>