<?xml version="1.0" encoding="UTF-8"?>
<svg id="Layer_2" data-name="Layer 2" xmlns="http://www.w3.org/2000/svg" xmlns:xlink="http://www.w3.org/1999/xlink" viewBox="0 0 150 150">
  <defs>
    <style>
      .cls-1 {
        fill: none;
      }

      .cls-1, .cls-2 {
        stroke-width: 0px;
      }

      .cls-2 {
        fill: #0067fc;
      }

      .cls-3 {
        clip-path: url(#clippath);
      }
    </style>
    <clipPath id="clippath">
      <circle class="cls-1" cx="75" cy="75" r="75"/>
    </clipPath>
  </defs>
  <g id="Layer_1-2" data-name="Layer 1">
    <g class="cls-3">
      <g>
        <path class="cls-2" d="M106.06,35.28c-.03-4.44-2.59-6.91-6.94-6.96-3.31-.04-6.61-.04-9.92,0-1.27,0-1.88-.41-1.99-1.79-.27-3.23-.4-3.89-2.67-3.96-.3,0-.65,0-1.05,0-.2,0-.42,0-.64.01-.25,0-.48,0-.7-.01h-34.29c-.21,0-.44,0-.67,0-.14,0-.27,0-.4,0-.32,0-.61,0-.88,0-2.36.07-2.65.73-2.83,3.75-.09,1.65-.84,2.04-2.29,2.01-2.74-.05-5.48-.01-8.22,0-6.26,0-8.36,2.12-8.36,8.47,0,13.06,0,26.13,0,39.19,0,13.31-.02,26.61,0,39.92,0,5.18,2.42,7.56,7.56,7.56,20.64,0,41.29,0,61.93,0,.73,0,1.46,0,2.18-.07.98-.11,1.7-.65,1.81-1.66.12-1.14-.57-1.86-1.63-2.06-1.02-.18-2.08-.21-3.13-.21-20.16,0-40.32,0-60.49-.01-3.83,0-4.22-.39-4.23-4.11,0-6.37,0-12.74,0-19.11,0-20,0-40,0-60,0-3.3.49-3.83,3.48-3.86,2.9-.03,5.81.08,8.71-.04,2-.08,2.68.7,2.67,2.68-.02,3.33.5,3.76,3.81,3.76,12.01,0,24.03,0,36.05,0,3.86,0,4.2-.24,4.24-4.05.02-1.8.7-2.44,2.44-2.39,2.66.08,5.32.01,7.99.02,4.12,0,4.4.28,4.4,4.39,0,10.73,0,21.45,0,32.18,0,1.45.19,2.99,2.01,2.99s2.02-1.55,2.02-3c0-11.21.05-22.42-.02-33.63ZM83.22,29.63c-.23,5.64.6,5.07-5.04,5.1-4.35.02-8.71,0-13.06,0-5.16,0-10.31-.05-15.47.02-1.81.02-2.63-.53-2.58-2.48.15-6.66-.77-5.62,5.62-5.66,9.1-.06,18.21.05,27.32-.06,2.36-.03,3.32.54,3.21,3.08Z"/>
        <path class="cls-2" d="M44.92,110.27c-2.82,0-5.64.04-8.46,0-2.75-.04-3.49-.75-3.54-3.43-.06-3.47-.06-6.93.01-10.4.06-2.59.77-3.24,3.4-3.25,5.88-.03,11.77.03,17.65-.03,2.22-.02,3.28.89,3.26,3.16-.05,3.55.02,7.09-.02,10.64-.03,2.56-.71,3.24-3.36,3.3-2.98.06-5.97.01-8.95.02ZM44.95,106.24s0,0,0,0c.64,0,1.29.01,1.93,0,7.4-.18,6.17,1.37,6.33-6.62.04-1.75-.59-2.47-2.38-2.43-3.86.08-7.72.06-11.59,0-1.59-.02-2.42.47-2.32,2.21.09,1.6.07,3.22,0,4.83-.05,1.43.52,2.06,1.98,2.02,2.01-.06,4.02-.01,6.03-.01Z"/>
        <path class="cls-2" d="M45.17,70.9c2.98,0,5.96.05,8.94-.02,2.13-.04,3.14.88,3.12,3.02-.03,3.71-.03,7.41,0,11.12.01,1.92-.95,2.87-2.79,2.88-6.2.04-12.41.04-18.61.02-1.99,0-2.91-1.14-2.92-3.08,0-3.63,0-7.25,0-10.88,0-2.07.9-3.13,3.08-3.08,3.06.06,6.12.02,9.19.02ZM45.56,74.88s0,0,0,0c-2.17,0-4.35.02-6.52,0-1.36-.02-2.13.46-2.09,1.96.05,1.77.03,3.54,0,5.32-.02,1.18.43,1.81,1.69,1.8,4.27-.02,8.54,0,12.81-.01.76,0,1.59-.1,1.64-1.03.12-2.56.85-5.38-.32-7.58-.7-1.32-3.29-.26-5.03-.44-.72-.07-1.45-.01-2.17-.01Z"/>
        <path class="cls-2" d="M45.04,65.4c-2.98,0-5.97-.06-8.95.02-2.13.06-3.18-.85-3.18-2.97,0-3.63,0-7.26,0-10.89,0-2.13,1.05-3,3.18-2.98,6.05.06,12.1.06,18.14,0,2.02-.02,3.01.81,3,2.85-.02,3.71-.02,7.42,0,11.13,0,2.04-.98,2.9-3,2.85-3.06-.07-6.13-.02-9.19-.02ZM45.13,61.66c2.09,0,4.19-.02,6.28,0,1.2.02,1.79-.5,1.78-1.72-.02-1.93-.03-3.87,0-5.8.02-1.35-.62-1.84-1.93-1.83-4.19.03-8.37.03-12.56,0-1.21,0-1.78.5-1.76,1.73.03,1.85.07,3.71-.02,5.55-.07,1.6.63,2.14,2.16,2.08,2.01-.08,4.03-.02,6.04-.02Z"/>
        <path class="cls-2" d="M68.29,110.12c-1.85-.02-6.4-6.85-5.72-8.38.56-1.25,1.54-1.59,2.76-.86.33.2.59.54.84.85q2.71,3.31,5.97.54c1.78-1.51,3.58-2.99,5.39-4.46.98-.79,2.06-1.08,2.98.03.81.98.53,2.03-.36,2.79-3.54,3.04-7.13,6.03-10.72,9-.35.29-.87.38-1.15.5Z"/>
        <path class="cls-2" d="M67.96,60.9c-.22-.1-.68-.17-.93-.44-1.85-2.04-3.34-4.34-4.52-6.81-.38-.8.08-1.58.84-2.06.8-.51,1.6-.36,2.21.27.61.63,1.18,1.35,1.57,2.13.98,1.96,1.99,1.82,3.47.44,2.06-1.92,4.29-3.67,6.46-5.47,1.04-.86,2.19-1.69,3.37-.37,1.18,1.32.27,2.39-.77,3.28-3.26,2.77-6.53,5.51-9.81,8.26-.5.42-1.03.78-1.89.79Z"/>
        <path class="cls-2" d="M64.45,75.89c1.38.18,1.98,1.44,2.54,2.53,1.1,2.15,2.14,2.04,3.76.48,2.02-1.94,4.27-3.65,6.44-5.44.97-.8,2.06-1.51,3.18-.33,1.22,1.3.4,2.39-.64,3.27-3.3,2.81-6.64,5.58-9.97,8.36-1.18.98-2.39,1.05-3.33-.27-1.3-1.83-2.58-3.69-3.68-5.64-.8-1.42.14-2.98,1.71-2.97Z"/>
        <path class="cls-2" d="M118.41,104.24c-.41-1.51-1.39-2.48-2.78-3.22-1.67-.89-3.24-1.98-4.85-2.99-.62-.39-1.02-1.04-1.13-1.68-.13-.72.55-1.26,1.07-1.63,1.39-.98,1.92-2.38,2.2-3.95.06-.35.04-.75-.18-1-.51-.56-.34-1.14-.25-1.77.17-1.14.47-2.43-.39-3.31-.78-.81-1.09-2.01-2.26-2.48-1.25-.51-2.54-.7-3.87-.74-.14,0-.29,0-.49,0-1.14-.06-2.3.11-3.39.62-1.89.89-2.98,2.88-2.79,5.04.04.52.09,1.03.15,1.55.03.23.08.45-.12.65-.67.67-.57,1.5-.34,2.27.37,1.24.86,2.38,2.06,3.16,1.32.85,1.18,2.45-.2,3.34-1.59,1.03-3.18,2.09-4.86,2.97-1.31.69-2.2,1.65-2.65,3.02-.04.12-.08.22-.12.29,2.94,3.72,7.49,6.1,12.59,6.1s9.67-2.39,12.61-6.12c-.01-.04-.02-.07-.04-.12ZM101.68,94.05c-.09-.17-.2-.38-.36-.46-1.12-.6-1.82-1.99-1.56-3.19.29.17.25.5.39.73.11.19.24.33.48.3.24-.03.34-.21.35-.43.03-.31.02-.63.04-.95.08-1.45.87-2.13,2.34-1.94.89.12,1.76.2,2.65,0,1.06-.25,1.94-.75,2.53-1.66.33-.53.51-.5.81,0,.72,1.24,1.21,2.54,1.33,3.97.03.35-.13.85.35.96.55.13.59-.41.76-.76.07-.14.06-.35.28-.39.27,1.17-.46,2.82-1.49,3.28-.25.11-.32.32-.44.5-.53.75-1.05,1.5-1.82,2.05-1.66,1.19-3.52,1.15-5.06-.19-.61-.53-1.18-1.1-1.55-1.83ZM109.9,99.12c-.56,1.52-2.17,2.54-4.25,2.55-1.31-.16-2.71-.55-3.56-2.02-.4-.7-.04-2.42.63-2.85.18-.12.33-.03.47.06,1.74,1.1,3.5,1.16,5.27.07.11-.07.28-.11.4-.08.4.11,1.19,1.86,1.04,2.27Z"/>
        <path class="cls-2" d="M106.1,120.02c-13.07,0-23.7-10.63-23.7-23.7s10.63-23.7,23.7-23.7,23.7,10.63,23.7,23.7-10.63,23.7-23.7,23.7ZM106.1,75.54c-11.46,0-20.79,9.33-20.79,20.79s9.33,20.79,20.79,20.79,20.79-9.33,20.79-20.79-9.33-20.79-20.79-20.79Z"/>
      </g>
    </g>
  </g>
</svg>