<?xml version="1.0" encoding="UTF-8"?>
<svg id="Layer_2" data-name="Layer 2" xmlns="http://www.w3.org/2000/svg" viewBox="0 0 155 155">
  <defs>
    <style>
      .cls-1 {
        fill: none;
        stroke: #0067fc;
        stroke-miterlimit: 10;
        stroke-width: 5px;
      }

      .cls-2 {
        fill: #0067fc;
      }

      .cls-2, .cls-3 {
        stroke-width: 0px;
      }

      .cls-3 {
        fill: #ff0049;
      }
    </style>
  </defs>
  <g id="Layer_1-2" data-name="Layer 1">
    <g>
      <circle class="cls-1" cx="77.5" cy="77.5" r="75"/>
      <g>
        <g>
          <path class="cls-2" d="M30.41,62.29c1.01-3.68,2.61-7.09,4.64-10.31,4.27-6.78,9.88-12.18,16.8-16.21,5.44-3.17,11.3-5.14,17.54-5.99,2.17-.3,4.36-.47,6.55-.46,10.37.02,19.72,2.92,27.94,8.9.6.44,1.19.89,1.78,1.36-1.82.8-3.45,1.94-4.82,3.34-.55-.4-1.1-.78-1.66-1.15-5.02-3.28-10.6-5.43-16.75-6.43-7.41-1.2-14.62-.38-21.62,2.33-6.07,2.34-11.31,5.9-15.78,10.61-3.31,3.5-5.92,7.46-7.93,11.83-.23.5-.48.99-.79,1.45-.74,1.1-1.78,1.57-3.07,1.42-.8-.09-1.59-.1-2.38-.09-.57.01-.6-.04-.45-.6Z"/>
          <path class="cls-2" d="M124.11,76.6c0,8.25-1.5,14.74-4.34,20.93-2.71,5.89-6.45,11.03-11.21,15.41-7.12,6.54-15.48,10.6-25.04,12.14-2.48.39-4.98.6-7.48.6-8.66-.01-16.8-2.05-24.29-6.47-8.64-5.11-15.16-12.18-19.43-21.29-.79-1.68-1.42-3.41-1.95-5.19-.18-.59-.14-.64.5-.64,1.09-.01,2.17-.09,3.26-.03,1.15.05,1.84.6,2.29,1.57.69,1.5,1.4,3,2.22,4.44,2.37,4.21,5.34,7.93,8.95,11.14,3.76,3.34,7.93,6.04,12.62,7.93,3.66,1.47,7.45,2.38,11.38,2.75,6.53.61,12.86-.25,19-2.49,5.12-1.87,9.74-4.58,13.83-8.19,4.12-3.61,7.4-7.86,9.8-12.79,2.08-4.28,3.32-8.81,3.93-13.52.36-2.8.47-5.61.28-8.42-.09-1.38-.25-2.75-.48-4.1-.1-.67-.23-1.34-.38-2,1.81-.69,3.45-1.72,4.87-2.99.07.21.13.42.18.63.13.51.25,1.02.37,1.52.76,3.42,1.14,6.75,1.12,9.06Z"/>
          <path class="cls-2" d="M75.99,102.91c-5.42,0-10.85,0-16.27,0-1.34,0-2.66-.19-3.9-.71-2.49-1.06-3.8-3.04-4.18-5.64-.3-2.02-.32-4.07.05-6.09.38-2.05,1.5-3.43,3.55-4.11,4.21-1.4,8.41-2.84,12.65-4.15.94-.29,1.86-.34,2.8-.11,1.63.4,3.25.76,4.95.8,1.95.04,3.86-.19,5.71-.81.97-.33,1.9-.31,2.84,0,3.96,1.27,7.92,2.57,11.83,3.98,2.34.85,3.97,2.4,4.22,4.95.21,2.1.32,4.25-.2,6.34-.76,3.08-3.09,5.08-6.24,5.45-1.43.17-2.86.09-4.3.1-4.51.02-9.02,0-13.53,0h0Z"/>
          <path class="cls-2" d="M76.27,79.8c-8.06-.04-14.15-6.09-14.11-13.99.04-7.71,6.21-13.81,14-13.7,7.37.1,13.56,5.93,13.56,13.78,0,9.11-7.72,14.04-13.45,13.91Z"/>
          <path class="cls-2" d="M31.26,79.68c-5.74,0-11.47,0-17.21,0q-.74,0-.74-.74c0-1.38.03-2.76-.01-4.15-.02-.55.18-.66.68-.66,4.27.02,8.53,0,12.8,0,6.62,0,13.23,0,19.85,0,.14,0,.28,0,.41,0,.2,0,.44.05.54-.2.11-.25-.1-.38-.24-.52-1.69-1.7-3.39-3.4-5.08-5.11-.4-.4-.8-.81-1.11-1.3-.74-1.14-.6-2.5.33-3.41.97-.94,2.42-1.08,3.52-.32.21.15.42.31.6.49,3.1,3.1,6.22,6.19,9.3,9.32,1.22,1.24,2.35,2.57,3.54,3.86.24.27.26.45,0,.73-3.67,3.9-7.27,7.86-11,11.71-.57.58-1.15,1.15-1.73,1.71-.55.52-1.18.91-1.94,1.01-1.19.16-2.1-.33-2.72-1.33-.59-.93-.49-1.88.08-2.79.32-.52.74-.96,1.18-1.37,2.25-2.1,4.34-4.36,6.52-6.53.1-.1.31-.19.22-.36-.08-.15-.28-.07-.43-.07-5.79,0-11.57,0-17.36,0Z"/>
        </g>
        <path class="cls-2" d="M111.97,36.24c-2.92,0-5.67.71-8.09,1.98-1.76.91-3.35,2.12-4.7,3.55-2.99,3.15-4.81,7.4-4.81,12.07,0,9.7,7.89,17.59,17.6,17.59,2.1,0,4.11-.37,5.98-1.05,1.85-.66,3.55-1.63,5.04-2.84,4.01-3.23,6.57-8.17,6.57-13.7,0-9.7-7.89-17.6-17.59-17.6ZM122.44,65.39c-1.42,1.27-3.06,2.3-4.87,2.99-1.73.68-3.62,1.05-5.6,1.05-8.6,0-15.6-6.99-15.6-15.59,0-4.25,1.71-8.1,4.47-10.92,1.37-1.4,3-2.54,4.82-3.34,1.93-.86,4.06-1.34,6.31-1.34,8.59,0,15.59,7,15.59,15.6,0,4.57-1.98,8.69-5.12,11.55Z"/>
        <g>
          <polygon class="cls-3" points="122.33 61.65 120.12 63.84 112.32 56.03 110.13 53.84 104.81 48.53 102.32 46.04 103.88 44.46 104.51 43.83 122.33 61.65"/>
          <polygon class="cls-3" points="122.33 46.04 114.52 53.84 112.32 56.03 104.51 63.84 102.32 61.65 110.13 53.84 112.32 51.64 120.12 43.83 122.33 46.04"/>
        </g>
      </g>
    </g>
  </g>
</svg>