<?xml version="1.0" encoding="UTF-8"?>
<svg id="Layer_2" data-name="Layer 2" xmlns="http://www.w3.org/2000/svg" xmlns:xlink="http://www.w3.org/1999/xlink" viewBox="0 0 155 155">
  <defs>
    <style>
      .cls-1 {
        stroke: #0067fc;
        stroke-miterlimit: 10;
        stroke-width: 5px;
      }

      .cls-1, .cls-2 {
        fill: none;
      }

      .cls-2, .cls-3 {
        stroke-width: 0px;
      }

      .cls-3 {
        fill: #0067fc;
      }

      .cls-4 {
        clip-path: url(#clippath);
      }
    </style>
    <clipPath id="clippath">
      <circle class="cls-2" cx="77.5" cy="77.5" r="75"/>
    </clipPath>
  </defs>
  <g id="Layer_1-2" data-name="Layer 1">
    <g>
      <circle class="cls-1" cx="77.5" cy="77.5" r="75"/>
      <g class="cls-4">
        <g>
          <path class="cls-3" d="M61.26,93.83c-3.03,6.32-3.97,6.78-9.79,4.96-16.39-5.12-26.58-21.55-24.01-38.68,2.52-16.75,17.05-29.06,34.26-29.3,7.36-.1,14.08,1.61,20.1,5.79,1.32.92,3.98,1.91,2.47,4-1.42,1.98-3.54,4.13-6.69,2.05-4.68-3.08-9.83-4.45-15.48-4.36-14.12.22-25.39,10.34-27.18,24.61-1.63,13.06,7.44,26.06,20.59,29.49,1.89.49,3.79.95,5.73,1.44Z"/>
          <path class="cls-3" d="M127.84,108.39c-1.05-3.82-3.52-6.28-7.03-8.15-4.24-2.25-8.2-5.01-12.27-7.58-1.57-.99-2.57-2.63-2.87-4.25-.34-1.82,1.39-3.2,2.7-4.13,3.53-2.49,4.86-6.03,5.56-10,.16-.89.1-1.91-.45-2.52-1.29-1.42-.86-2.88-.62-4.48.42-2.88,1.18-6.14-.99-8.39-1.97-2.04-2.76-5.1-5.71-6.29-3.17-1.28-6.44-1.77-9.81-1.86-.36-.01-.73,0-1.25,0-2.88-.15-5.83.27-8.58,1.56-4.78,2.25-7.54,7.3-7.06,12.75.11,1.31.22,2.62.37,3.92.07.59.19,1.15-.29,1.64-1.68,1.7-1.44,3.79-.87,5.75.93,3.15,2.17,6.03,5.23,8.01,3.33,2.15,2.99,6.21-.5,8.46-4.04,2.61-8.06,5.28-12.3,7.52-3.32,1.76-5.57,4.17-6.71,7.65-.1.31-.2.56-.29.74,7.44,9.41,18.96,15.45,31.89,15.45s24.5-6.06,31.94-15.5c-.03-.09-.06-.19-.09-.3ZM85.46,82.6c-.22-.44-.51-.96-.91-1.17-2.83-1.51-4.61-5.05-3.95-8.09.73.42.63,1.26.98,1.85.28.48.61.83,1.2.75.62-.08.85-.54.89-1.08.07-.8.05-1.6.09-2.4.21-3.66,2.2-5.39,5.92-4.91,2.26.29,4.46.51,6.72-.01,2.67-.62,4.92-1.89,6.4-4.21.84-1.33,1.29-1.27,2.04.01,1.82,3.13,3.06,6.43,3.36,10.06.07.88-.32,2.14.9,2.43,1.39.33,1.5-1.04,1.92-1.92.18-.36.16-.87.7-.98.7,2.97-1.16,7.14-3.78,8.32-.62.28-.8.81-1.12,1.26-1.34,1.9-2.66,3.8-4.61,5.2-4.2,3.01-8.9,2.9-12.81-.48-1.54-1.33-2.99-2.77-3.93-4.64ZM106.29,95.43c-1.41,3.86-5.5,6.44-10.77,6.46-3.32-.41-6.87-1.38-9-5.11-1.01-1.77-.09-6.12,1.59-7.22.47-.3.83-.08,1.19.15,4.41,2.78,8.85,2.93,13.35.18.28-.17.7-.28,1.01-.21,1.01.27,3.01,4.72,2.63,5.75Z"/>
          <polygon class="cls-3" points="66.78 70.9 42.23 70.9 42.23 66.9 62.78 66.9 62.78 48.56 66.78 48.56 66.78 70.9"/>
        </g>
      </g>
    </g>
  </g>
</svg>