<?xml version="1.0" encoding="UTF-8"?>
<svg id="Layer_2" data-name="Layer 2" xmlns="http://www.w3.org/2000/svg" xmlns:xlink="http://www.w3.org/1999/xlink" viewBox="0 0 150 150">
  <defs>
    <style>
      .cls-1 {
        fill: none;
      }

      .cls-1, .cls-2 {
        stroke-width: 0px;
      }

      .cls-2 {
        fill: #0067fc;
      }

      .cls-3 {
        clip-path: url(#clippath);
      }
    </style>
    <clipPath id="clippath">
      <circle class="cls-1" cx="75" cy="75" r="75"/>
    </clipPath>
  </defs>
  <g id="Layer_1-2" data-name="Layer 1">
    <g class="cls-3">
      <g>
        <path class="cls-2" d="M26.97,61.67c-.88-.66-1.71-.39-2.47-.38-2.46.03-3.52-1.16-3.48-3.56.05-2.34,0-4.68,0-7.02.03-3.98.43-4.39,4.33-4.52.48-.02.96-.06,1.56-.09q-4.42-4.95.47-9.84c.72-.72,1.44-1.44,2.16-2.16,3.24-3.22,3.62-3.32,7.44-.7,1.88,1.29,2.34.85,2.39-1.28.09-3.83.56-4.37,4.26-4.2,4.97.22,9.19-1.15,13.79-3.36,16.54-7.93,33.12-8.04,48.4,3.33,7.21,5.37,10.94,12.96,10.91,22.17-.03,11.5.04,23-.04,34.5-.01,2.06.49,2.96,2.7,3.46,6.47,1.49,10.29,7.37,9.48,14.02-.71,5.88-6.05,10.45-12.35,10.52-4.07.05-8.14.04-12.21,0-1.33,0-2.33.27-2.87,1.69-2.92,7.69-9.13,11.28-16.71,12.61-7.49,1.31-14.6,0-20.79-4.79-2.47-1.91-4.39-4.29-5.41-7.23-.61-1.76-1.61-2.34-3.39-2.3-3.97.09-7.94.06-11.91.01-6.3-.07-11.65-4.64-12.36-10.49-.79-6.57,2.92-12.27,9.13-14.05,1.25-.36,3.32-.02,2.94-2.19-.39-2.2,1.74-5.18-1.93-6.5-1.96-.7-1.68-2.6-1.64-4.2.05-2.11-.64-2.24-2.29-1.15-4.04,2.69-4.25,2.63-7.66-.78-1.37-1.37-2.76-2.71-4.1-4.11-2.56-2.66-2.49-3.9.29-6.24.44-.37.88-.76,1.37-1.19ZM66.4,61.26c.81.75,1.15,1.09,1.51,1.4,3.12,2.62,3.19,3.75.36,6.64-1.49,1.53-3.09,2.96-4.51,4.55-2.06,2.32-4.14,2.7-6.58.57-.63-.55-1.35-1.56-2.33-.99-.78.45-.41,1.49-.41,2.27,0,1.86-.26,3.87-2.52,3.76-3.41-.17-3.89,1.53-3.62,4.27.14,1.41.03,2.85.02,4.27-.01,4.58-.07,4.64-4.73,5.07-5.61.52-8.7,4.9-6.77,9.72,1.49,3.72,4.71,4.46,8.25,4.47,19.83,0,39.66,0,59.49,0,3.66,0,7.32.06,10.98-.03,3.24-.08,6.04-1.11,7.35-4.42,1.97-4.94-1.22-9.32-7.06-9.76-4.17-.31-4.43-.56-4.43-4.73-.01-12.2.03-24.41-.02-36.61-.05-11.56-5.72-19.45-16.15-23.95-7.48-3.23-15.36-3.65-23.33-2.32-5.46.91-10.67,2.62-15.24,5.87-.96.69-2.34,1.26-1.98,3.02q6.74-3.01,11.89,2.14,4.71,4.71.15,9.74c1.12,0,2,0,2.88,0,1.96,0,3.07.96,3.09,2.96.03,3.05.04,6.1,0,9.15-.03,2-1.15,2.94-3.11,2.95-.87,0-1.75,0-3.21,0ZM34.12,38.35c-1.48.2-2.23,1.24-2.89,2.21-.76,1.12.41,1.6,1.07,2.13,2.23,1.81,1.03,3.85.47,5.86-.52,1.86-1.54,3.07-3.66,2.95-1.54-.08-2.8.05-2.81,2.18-.01,2.05,1.08,2.39,2.71,2.28,2.08-.14,3.21.95,3.73,2.85.55,2.01,1.83,4.07-.4,5.87-1,.81-2.01,1.5-.63,2.88,1.16,1.17,2.05,1.96,3.85.73,4.09-2.79,8.34-.77,9.08,4.22.22,1.52,1.02,1.77,2.28,1.78,1.3,0,2.02-.35,2.22-1.84.66-4.92,4.98-6.92,9.13-4.12,1.84,1.25,2.7.32,3.83-.81,1.41-1.42.22-2.08-.72-2.87-2.19-1.84-.89-3.89-.33-5.89.49-1.74,1.48-2.87,3.46-2.79,1.65.07,3.01-.02,2.97-2.34-.05-2.16-1.36-2.18-2.86-2.13-1.76.05-2.94-.71-3.41-2.42-.54-1.98-2.02-3.96-.14-5.99.88-.95,2.61-1.47.93-3.32-1.56-1.72-2.69-1.33-4.38-.18-3.33,2.25-8.15-.17-8.47-4.15-.12-1.47-.5-2.24-2.12-2.27-1.68-.02-2.46.58-2.37,2.31.06,1.23-.01,2.43-1.12,3.32-2.03,1.62-5.7,1.86-7.93.47-.51-.32-1.02-.63-1.48-.91ZM79.85,112.58c-4.47,0-8.94-.02-13.41.02-.77,0-1.81-.39-2.25.43-.51.95.38,1.73.95,2.37.93,1.06,1.94,2.1,3.08,2.92,6.4,4.59,16.85,4.6,23.28.03,1.14-.81,2.14-1.86,3.09-2.91.58-.65,1.4-1.46.93-2.4-.43-.85-1.47-.44-2.24-.44-4.47-.04-8.94-.02-13.41-.02Z"/>
        <path class="cls-2" d="M47.04,43.76c5.71.06,9.91,4.41,9.82,10.2-.08,5.69-4.48,9.86-10.28,9.75-5.57-.11-9.7-4.4-9.67-10.05.03-5.74,4.34-9.95,10.12-9.9ZM46.78,58.27c2.25.07,4.53-2.07,4.65-4.36.11-2.24-1.99-4.55-4.28-4.72-2.33-.17-4.78,2.12-4.8,4.5-.02,2.26,2.15,4.5,4.43,4.57Z"/>
      </g>
    </g>
  </g>
</svg>