<?xml version="1.0" encoding="UTF-8"?>
<svg id="Layer_2" data-name="Layer 2" xmlns="http://www.w3.org/2000/svg" xmlns:xlink="http://www.w3.org/1999/xlink" viewBox="0 0 150 150">
  <defs>
    <style>
      .cls-1 {
        fill: none;
      }

      .cls-1, .cls-2 {
        stroke-width: 0px;
      }

      .cls-2 {
        fill: #0067fc;
      }

      .cls-3 {
        clip-path: url(#clippath);
      }
    </style>
    <clipPath id="clippath">
      <circle class="cls-1" cx="75" cy="75" r="75"/>
    </clipPath>
  </defs>
  <g id="Layer_1-2" data-name="Layer 1">
    <g class="cls-3">
      <g>
        <path class="cls-2" d="M106.51,37.23c-7.92,0-15.85,0-23.77,0s-15.93,0-23.9,0c-3.73,0-6.07,2.16-6.15,5.89-.09,3.96-.09,7.92,0,11.88.08,3.44,2.44,5.7,5.88,5.83q2.98.11,3.49,3.15c.01.09.03.18.05.26.3,1.3.94,1.64,2.12,1.01,2.16-1.16,4.31-2.32,6.42-3.57,1.04-.62,2.09-.85,3.29-.85,10.82.02,21.63.02,32.45,0,4.08,0,6.4-2.3,6.43-6.36.03-3.65.02-7.3,0-10.95-.02-4.06-2.26-6.29-6.29-6.29ZM110.53,54.23c-.03,3.14-1.22,4.22-4.3,4.21-10.86-.03-21.72,0-32.58-.02-1.64,0-3.02.63-4.38,1.42-1.31.76-2.65,1.47-3.95,2.23-.71.42-1.1.42-1.18-.56-.21-2.36-.44-3.09-3.76-3.09-.71,0-1.43.02-2.14-.02-1.99-.09-3.13-1.2-3.15-3.21-.04-4.09-.04-8.19,0-12.28.02-2.23,1.27-3.41,3.54-3.41,8.06-.01,16.11,0,24.17,0,7.83,0,15.67,0,23.5,0,3.02,0,4.22,1.17,4.24,4.18.03,3.52.03,7.03,0,10.55Z"/>
        <path class="cls-2" d="M123.23,41.42c-.75-.07-1.5-.09-2.25-.12,0,.03,0,.06,0,.09-.84,0-1.68-.03-2.51.01-.51.03-.97.26-.96.88.01.54.42.77.89.81,1.63.13,3.26.15,4.89-.02.47-.05.87-.28.84-.84-.03-.53-.42-.77-.89-.81Z"/>
        <path class="cls-2" d="M107.81,32.5c.46-.04.71-.39.73-.82.03-.8,0-1.59,0-2.39,0,0,0,0,0,0,0-.84.02-1.68,0-2.52-.01-.43-.22-.8-.68-.87-.53-.07-.9.3-.91.76-.06,1.68-.06,3.36-.03,5.04,0,.48.34.85.88.8Z"/>
        <path class="cls-2" d="M115.49,27.96c-.12.06-.33.1-.43.23-1.12,1.5-2.04,3.12-2.82,4.82-.16.35.06.7.43.87.37.17.75.1.95-.24.89-1.49,1.78-2.98,2.59-4.51.29-.56.02-1.03-.72-1.17Z"/>
        <path class="cls-2" d="M121.97,34.82c.17-.32.11-.6-.1-.86-.22-.26-.53-.38-.83-.24-1.64.77-3.2,1.68-4.68,2.73-.26.18-.35.51-.21.84.14.31.38.47.72.51.43.03,4.9-2.59,5.11-2.97Z"/>
        <path class="cls-2" d="M68.47,48.53c-.75-.77-.86-1.63-.93-2.63-.13-1.78-1.49-3-3.03-2.95-1.63.05-2.81,1.37-2.82,3.25,0,.79-.2,1.39-.75,2.02-1.19,1.35-.49,5,1.11,5.86,1.62.87,3.37.9,5.01.06,1.46-.74,1.71-2.17,1.68-3.67-.03-.66.21-1.46-.26-1.94ZM64.49,47.65c-1.05.18-1.4-.32-1.34-1.34.05-1.02.36-1.76,1.51-1.74,1.21.03,1.29.93,1.35,1.87.08,1.17-.6,1.31-1.52,1.21Z"/>
        <path class="cls-2" d="M78.89,47.49c.26-.64.87-1.29.06-1.91-.74-.57-1.2.17-1.79.44-.22-.65-.31-1.43-1.16-1.45-.74-.02-.89.54-1,1.17-.12.67-.5.19-.79.09-.86-.28-1.59.15-1.42.89.09.39.39.74.61,1.13-.7.22-1.46.33-1.45,1.2,0,.93.88.82,1.53,1.06-.23.65-.82,1.31-.05,1.93.73.59,1.21-.11,1.75-.4.44,1.15.76,1.48,1.33,1.43.93-.09.57-1.27,1.07-1.42.51-.15,1.17.7,1.79-.01.65-.74-.07-1.27-.4-1.87.74-.2,1.48-.34,1.46-1.21-.02-.91-.9-.8-1.54-1.06Z"/>
        <path class="cls-2" d="M91.47,47.62c-.32-.04-.34-.27-.2-.49.38-.6.49-1.17-.18-1.62-.69-.47-1.13.19-1.67.46-.31-.62-.36-1.53-1.34-1.41-.87.11-.79.94-.98,1.57-.58-.14-1.05-.84-1.7-.29-.62.53-.42,1.08-.02,1.64.18.25,0,.4-.23.48-.59.21-1.06.53-.93,1.25.14.81.96.61,1.58.93-.44.61-.86,1.26-.12,1.88.74.61,1.18-.19,1.79-.46.26.63.26,1.52,1.21,1.49.92-.03.86-.86,1.07-1.55.64.31,1.29.84,1.91.07.59-.73-.17-1.2-.44-1.84.63-.16,1.35-.23,1.43-.99.08-.8-.49-1.05-1.18-1.13Z"/>
        <path class="cls-2" d="M103.22,47.51c.36-.58.97-1.51.26-1.73-1.09-.35-2.23-.49-3.17-1.22-.67,1-1.74,1.15-2.79,1.51-.75.26,0,1.14.22,1.73-.58.32-1.39.39-1.3,1.31.09.93.94.75,1.54.98-.2.62-.82,1.19-.22,1.85.52.58,1.03.28,1.53-.06.24-.16.44-.03.51.21.19.59.47,1.1,1.21.96.77-.15.77-.88,1-1.51.6.26,1.19.79,1.8.11.62-.69,0-1.21-.32-1.84.66-.25,1.51-.36,1.38-1.31-.11-.9-.97-.74-1.65-.97Z"/>
        <path class="cls-2" d="M88.79,113.38c-1.5-.41-3.13.19-4.01,1.48-.17.25-.32.52-.48.78-.17-.89-.13-1.75-.18-2.6-.12-2.05-1.77-3.53-3.82-3.43-1.66.08-2.71,1.03-3.45,2.5.13-2.19-.4-4.05-2.67-4.73-2.08-.62-3.6.34-4.71,2.44,0-.68,0-1.06,0-1.44,0-.64,0-1.64,0-2.85,1.22-.01,2.45-.03,3.67-.04,3.34-.03,6.68,0,10.02-.06,5.08-.09,8.33-3.41,8.3-8.47-.07-10.73-.19-21.45-.25-32.18,0-1.21-.4-1.64-1.62-1.63-1.21,0-1.51.48-1.49,1.6.06,4.27.02,8.55.06,12.82.06,6.41.17,12.82.22,19.22.03,3.56-1.78,5.39-5.28,5.39-4.54,0-9.07,0-13.61,0,0-4.02,0-8.64-.05-10.41-.03-.88-.35-1.86-.83-2.6-.83-1.28-2.53-1.69-3.99-1.21-1.53.5-2.5,1.83-2.51,3.55,0,2.54,0,6.51-.01,10.67-.79,0-1.58,0-2.37,0,0,.1,0,.19,0,.29-3.83,0-7.66.03-11.48-.01-2.35-.03-4.03-1.56-4.36-3.88-.12-.83-.18-1.68-.19-2.53-.12-9.52-.01-19.05-.25-28.57-.16-6.45-.06-12.91-.11-19.36-.07-9.88-.19-19.76-.23-29.64-.01-3.12,1.74-4.86,4.75-4.89,11.53-.11,23.05-.2,34.58-.29,3.41-.02,5.14,1.73,5.17,5.18.03,4.9.08,9.79.06,14.69,0,1.23.46,1.58,1.66,1.59,1.26,0,1.62-.46,1.59-1.65-.11-5.25-.17-10.5-.24-15.75-.01-.91-.22-1.77-.61-2.58-1.54-3.24-4.14-4.76-7.69-4.73-6.59.07-13.17.12-19.76.22-5.29.08-10.6-.17-15.88.24-3.4.27-6.41,3.04-6.61,6.46-.23,3.87-.83,7.72-.65,11.61.06,1.28.7,2.43.64,3.77-.05,1.03-.76,1.77-.72,2.8.12,3.95.17,7.91.16,11.87-.01,3.47-.39,6.99.76,10.38.1,13.17.21,26.35.3,39.52.04,5.64,3.29,8.86,8.91,8.8,4.19-.04,8.39-.09,12.58-.13,0,4.48,0,8.81,0,11.53,0,.41,0,.82,0,1.22-.08.02-.16.03-.24.05-.84-1.74-1.65-3.49-2.52-5.22-.95-1.86-3.02-2.59-4.86-1.76-1.81.82-2.62,2.91-1.83,4.82,3.7,8.96,7.42,17.91,11.11,26.87.24.59.53.83,1.2.83,7.34-.03,14.68-.02,22.02,0,.63,0,.89-.17,1.01-.82.74-3.94,1.54-7.86,2.31-11.8.4-2.06.98-4.11,1.13-6.19.19-2.77.07-5.56.04-8.34-.02-1.62-1.13-2.99-2.68-3.41Z"/>
        <path class="cls-2" d="M72.98,86.77c-.34.38-.51.87-.06,1.3.39.38.84.25,1.2-.06,1.25-1.06,2.42-2.2,3.45-3.47.3-.37.41-.82,0-1.19-.4-.35-.84-.25-1.21.06-.58.48-1.12,1-1.68,1.5.02.02.04.05.07.07-.59.59-1.21,1.16-1.77,1.79Z"/>
        <path class="cls-2" d="M55.61,83.43c-.31-.3-.72-.42-1.09-.13-.43.33-.42.85-.11,1.18,1.15,1.23,2.33,2.42,3.55,3.58.34.33.84.36,1.19-.06.29-.35.23-.78-.07-1.1-.54-.59-1.12-1.13-1.68-1.7,0,0,0,0,0,0-.6-.6-1.18-1.2-1.79-1.78Z"/>
        <path class="cls-2" d="M63.56,85.54c.38-.14.6-.46.5-.84-.42-1.68-.85-3.36-1.36-5.02-.19-.6-.72-.74-1.34-.32-.04.13-.16.31-.14.46.27,1.85.76,3.65,1.42,5.4.13.36.54.46.92.31Z"/>
        <path class="cls-2" d="M69.29,85.35c.32-.29,1.64-5.3,1.51-5.71-.11-.34-.34-.5-.68-.53-.34-.03-.65.11-.76.42-.62,1.7-1.07,3.45-1.38,5.24-.05.31.11.61.44.74.31.12.61.06.87-.15Z"/>
      </g>
    </g>
  </g>
</svg>