<?xml version="1.0" encoding="UTF-8"?>
<svg id="Layer_2" data-name="Layer 2" xmlns="http://www.w3.org/2000/svg" xmlns:xlink="http://www.w3.org/1999/xlink" viewBox="0 0 150 150">
  <defs>
    <style>
      .cls-1 {
        fill: none;
      }

      .cls-1, .cls-2 {
        stroke-width: 0px;
      }

      .cls-2 {
        fill: #0067fc;
      }

      .cls-3 {
        clip-path: url(#clippath);
      }
    </style>
    <clipPath id="clippath">
      <circle class="cls-1" cx="75" cy="75" r="75"/>
    </clipPath>
  </defs>
  <g id="Layer_1-2" data-name="Layer 1">
    <g class="cls-3">
      <g>
        <path class="cls-2" d="M115.08,113.23c-.95,0-1.88-.07-2.8-.18v8.68c0,.79-.64,1.43-1.43,1.43H38.8c-.79,0-1.43-.64-1.43-1.43V28.27c0-.79.64-1.43,1.43-1.43h72.06c.79,0,1.43.64,1.43,1.43v40.57c.92-.11,1.85-.18,2.8-.18.86,0,1.72.05,2.55.15V24.34c0-1.58-1.28-2.85-2.85-2.85H34.87c-1.58,0-2.85,1.28-2.85,2.85v101.31c0,1.58,1.28,2.85,2.85,2.85h79.91c1.58,0,2.85-1.28,2.85-2.85v-12.58c-.84.1-1.69.15-2.55.15Z"/>
        <path class="cls-2" d="M115.08,67.91c-12.64,0-22.9,10.25-22.9,22.9s10.25,22.9,22.9,22.9,22.9-10.25,22.9-22.9-10.25-22.9-22.9-22.9ZM115.08,109.77c-10.47,0-18.97-8.49-18.97-18.97s8.49-18.97,18.97-18.97,18.97,8.49,18.97,18.97-8.49,18.97-18.97,18.97Z"/>
        <path class="cls-2" d="M127.86,99c-.76-5.23-4.66-9.45-9.72-10.67,1.78-1.05,2.98-2.98,2.98-5.2,0-3.33-2.7-6.03-6.03-6.03s-6.03,2.7-6.03,6.03c0,2.22,1.2,4.15,2.98,5.2-5.07,1.23-8.96,5.44-9.72,10.67-.14.99.63,1.87,1.63,1.87h22.3c1,0,1.77-.88,1.63-1.87Z"/>
        <path class="cls-2" d="M46.64,93.13v3.98h40.63c-.29-1.29-.49-2.62-.6-3.98h-40.02Z"/>
        <path class="cls-2" d="M93.12,108.99c-1.03-1.24-1.96-2.57-2.77-3.98h-43.71v3.98h46.48Z"/>
        <rect class="cls-2" x="46.64" y="43.21" width="53.97" height="3.5"/>
        <rect class="cls-2" x="46.64" y="53.15" width="53.97" height="3.5"/>
        <rect class="cls-2" x="46.64" y="63.09" width="53.97" height="3.5"/>
        <rect class="cls-2" x="46.64" y="73.11" width="43.97" height="3.5"/>
        <rect class="cls-2" x="46.64" y="82.43" width="39.92" height="3.5"/>
      </g>
    </g>
  </g>
</svg>