<?xml version="1.0" encoding="UTF-8"?>
<svg id="Layer_2" data-name="Layer 2" xmlns="http://www.w3.org/2000/svg" viewBox="0 0 155 155">
  <defs>
    <style>
      .cls-1 {
        fill: none;
        stroke: #0067fc;
        stroke-miterlimit: 10;
        stroke-width: 5px;
      }

      .cls-2 {
        fill: #0067fc;
        stroke-width: 0px;
      }
    </style>
  </defs>
  <g id="Layer_1-2" data-name="Layer 1">
    <g>
      <circle class="cls-1" cx="77.5" cy="77.5" r="75"/>
      <g>
        <path class="cls-2" d="M77.8,28.01c14.23.62,25.1,6.91,31.21,19.95,5.93,12.65,3.67,24.58-4.9,35.47-8.15,10.35-16.23,20.76-24.34,31.15-2.27,2.9-2.54,2.96-4.66.22-8.67-11.18-17.59-22.18-25.89-33.62-15.05-20.75-2.2-47.71,21.13-52.43,2.44-.49,4.9-.84,7.45-.73ZM77.59,77.53c10.6-.06,18.81-8,18.8-18.17-.01-10.33-8.35-18.24-19.13-18.15-10.44.09-18.72,8.04-18.72,17.98,0,10.22,8.5,18.4,19.06,18.35Z"/>
        <path class="cls-2" d="M48.61,118.17c19.33,3.82,38.32,3.79,57.37-.42-4.78-2.2-9.88-2.58-14.94-3.07-1.83-.18-3.67-.14-5.5-.32-.82-.08-2.08-.37-1.36-1.53,1.28-2.07,2.51-4.53,5.56-4.23,6.23.61,12.49,1.06,18.48,3.09,1.32.45,2.63,1.02,3.8,1.77,3.73,2.39,3.64,6.24-.2,8.5-2.93,1.72-6.23,2.45-9.54,2.98-17.53,2.8-35.03,2.86-52.5-.58-2.35-.46-4.59-1.24-6.65-2.48-3.81-2.3-3.89-6.13-.13-8.51,3.46-2.19,7.43-2.88,11.38-3.5,3.09-.48,6.21-.81,9.31-1.17,1.17-.13,2.5-.49,3.44.38,1.39,1.3,3.73,2.67,3.37,4.39-.35,1.67-2.98.98-4.61,1.09-4.96.32-9.89.8-14.74,1.98-.81.2-1.73.16-2.55,1.61Z"/>
      </g>
    </g>
  </g>
</svg>