<?xml version="1.0" encoding="UTF-8"?>
<svg id="Layer_2" data-name="Layer 2" xmlns="http://www.w3.org/2000/svg" xmlns:xlink="http://www.w3.org/1999/xlink" viewBox="0 0 155 155">
  <defs>
    <style>
      .cls-1 {
        stroke: #0067fc;
        stroke-width: 5px;
      }

      .cls-1, .cls-2, .cls-3 {
        fill: none;
      }

      .cls-1, .cls-3 {
        stroke-miterlimit: 10;
      }

      .cls-2, .cls-4 {
        stroke-width: 0px;
      }

      .cls-4 {
        fill: #0067fc;
      }

      .cls-5 {
        clip-path: url(#clippath);
      }

      .cls-3 {
        stroke: #ff0049;
        stroke-width: 6px;
      }
    </style>
    <clipPath id="clippath">
      <circle class="cls-2" cx="77.5" cy="77.5" r="75"/>
    </clipPath>
  </defs>
  <g id="Layer_1-2" data-name="Layer 1">
    <g>
      <circle class="cls-1" cx="77.5" cy="77.5" r="75"/>
      <g class="cls-5">
        <g>
          <g>
            <path class="cls-4" d="M112.1,27.72v99.56c-1.39,4.88-4.44,8.17-9.31,9.71h-50.59c-4.86-1.55-7.94-4.82-9.31-9.71V27.72c1.38-4.89,4.45-8.16,9.31-9.71h50.59c4.85,1.56,7.92,4.83,9.31,9.71ZM46.21,75.29c0,12,.03,24-.03,36.01,0,1.91.61,2.63,2.56,2.61,7.35-.08,14.7-.03,22.05-.04.58,0,1.37.25,1.7-.31.41-.71-.37-1.22-.73-1.73-1.71-2.51-3.48-4.97-5.21-7.46-1.09-1.57-1.98-3.23-2.06-5.19-.14-3.39,2.44-5.13,5.5-3.69.6.28,1.13.73,1.7,1.08.84.51,1.58,1.95,2.38,1.52.91-.49.34-1.97.38-3.01.16-3.9-.33-7.83.32-11.71.42-2.53,2.39-4.24,4.66-4.32,2.25-.07,4.23,1.58,4.9,4.06.39,1.46.36,2.94.34,4.42-.02,1.17.38,1.69,1.62,2.09,2.58.82,4.44,3.16,7.25,3.65.35.06.67.65.87,1.06.41.8,1,1.13,1.9,1.26,2.41.36,3.76,1.44,3.94,3.89.31,4.27,1.05,8.62-.69,12.78-.59,1.41.01,1.66,1.21,1.64,1.75-.02,3.51,0,5.26,0,2.59-.02,2.73-.15,2.73-2.77,0-23.87,0-47.74,0-71.61,0-2.62-.1-2.71-2.76-2.71-19.01,0-38.03,0-57.04,0-2.71,0-2.77.07-2.77,2.9,0,11.87,0,23.73,0,35.6ZM77.7,117.27c-.81,0-1.62,0-2.43,0-8.9,0-17.81.03-26.71-.02-1.74-.01-2.47.59-2.38,2.35.1,1.88-.02,3.78.05,5.66.17,4.69,3.7,8.41,8.39,8.44,15.24.09,30.49.09,45.73,0,4.68-.03,8.21-3.75,8.4-8.44.07-1.75.04-3.51.03-5.26-.01-2.62-.12-2.72-2.76-2.73-9.44,0-18.89,0-28.33,0ZM77.39,33.4c6.33,0,12.66,0,19,0,3.44,0,6.87,0,10.31-.01,1.11,0,1.93-.24,2.11-1.61.76-5.76-3.12-10.5-8.95-10.53-14.89-.08-29.77-.07-44.66,0-5.41.02-8.9,3.69-8.97,9.1-.04,2.88.12,3.05,3.09,3.05,9.36,0,18.73,0,28.09,0ZM77.03,93.88h-.04c0,3.1,0,6.2,0,9.31,0,.78-.17,1.56-1.05,1.75-.83.18-1.28-.42-1.37-1.14-.44-3.31-3.41-4.29-5.56-5.97-1.11-.86-2.09-.13-2.05,1.32.04,1.19.59,2.22,1.23,3.17,2.36,3.45,4.77,6.86,7.13,10.32.65.96,1.52,1.22,2.6,1.21,5.33-.02,10.66-.04,15.98.02,1.49.02,2.36-.57,3.01-1.87,2.05-4.08,1-8.32.73-12.51-.02-.3-.28-.61-.49-.87-.36-.43-.82-.74-1.41-.58-.61.17-.79.69-.84,1.25-.05.6-.04,1.22-.11,1.82-.09.74-.44,1.31-1.29,1.26-.87-.05-1.1-.72-1.12-1.42-.02-.74.11-1.48.13-2.22.03-1.01.1-2.03-.39-2.98-.29-.57-.71-1.03-1.41-.93-.67.09-.78.66-.86,1.21-.1.73-.18,1.47-.26,2.21-.08.74-.38,1.37-1.2,1.36-.98,0-1.16-.76-1.16-1.56,0-.67.05-1.35.03-2.02-.02-1,.17-2.03-.31-2.98-.3-.59-.77-.97-1.44-.92-.86.05-.82.74-.86,1.35-.02.34,0,.68-.03,1.01-.11.97.07,2.3-1.4,2.21-1.29-.08-1.15-1.3-1.16-2.22-.03-3.17.02-6.34-.04-9.51-.04-2.12-1-3.31-2.5-3.3-1.49,0-2.43,1.2-2.47,3.33-.05,2.97-.01,5.93-.01,8.9Z"/>
            <path class="cls-4" d="M77.75,124.31c1.88,0,3.76,0,5.64,0,1.15,0,2.31.2,2.38,1.58.07,1.4-1.09,1.76-2.23,1.77-3.96.04-7.92.05-11.88,0-1.13-.01-2.25-.4-2.16-1.83.08-1.3,1.13-1.52,2.21-1.53,2.01,0,4.03,0,6.04,0Z"/>
            <path class="cls-4" d="M77.74,24.8c1.25.21,2.18.95,2.16,2.47-.02,1.51-.92,2.34-2.37,2.45-1.37.11-2.5-1.16-2.44-2.58.05-1.34,1.15-2.38,2.65-2.34Z"/>
            <path class="cls-4" d="M67.31,27.31c.09-1.47.87-2.42,2.36-2.48,1.51-.05,2.42.84,2.47,2.35.05,1.52-.84,2.46-2.32,2.52-1.49.06-2.33-.87-2.52-2.39Z"/>
            <path class="cls-4" d="M85.17,24.77c1.46.16,2.38.89,2.5,2.38.11,1.38-1.12,2.67-2.48,2.56-1.46-.11-2.35-.96-2.36-2.46-.01-1.53.93-2.25,2.35-2.48Z"/>
          </g>
          <g>
            <line class="cls-3" x1="60.41" y1="46.14" x2="94.86" y2="80.58"/>
            <line class="cls-3" x1="94.86" y1="46.14" x2="60.41" y2="80.58"/>
          </g>
        </g>
      </g>
    </g>
  </g>
</svg>