<?xml version="1.0" encoding="UTF-8"?>
<svg id="Layer_2" data-name="Layer 2" xmlns="http://www.w3.org/2000/svg" viewBox="0 0 155 155">
  <defs>
    <style>
      .cls-1 {
        fill: none;
        stroke: #0067fc;
        stroke-miterlimit: 10;
        stroke-width: 5px;
      }

      .cls-2 {
        fill: #0067fc;
        stroke-width: 0px;
      }
    </style>
  </defs>
  <g id="Layer_1-2" data-name="Layer 1">
    <g>
      <circle class="cls-1" cx="77.5" cy="77.5" r="75"/>
      <g>
        <path class="cls-2" d="M72.36,62.95c-12.26,0-24.53,0-36.79,0q-1.55,0-1.56,1.55c0,14.43,0,28.85,0,43.28,0,3.32,1.57,5.51,4.47,6.32.73.2,1.47.16,2.21.17,11.81,0,23.62.01,35.44-.02.99,0,1.65.22,2.04,1.19.25.62.65,1.18,1.01,1.76.35.56.14.76-.44.77-.16,0-.32,0-.48,0-13.17,0-26.34,0-39.5,0-3.87,0-6.89-2.19-8.01-5.7-.33-1.03-.39-2.1-.39-3.16,0-20.11,0-40.21-.01-60.32,0-3.06.98-5.63,3.58-7.42,1.23-.84,2.58-1.31,4.08-1.32,2.23-.01,4.45.02,6.68-.03.78-.02,1.01.25,1,1-.03,2.81-.02,5.62,0,8.42.02,4.93,3.79,8.82,8.74,9.06,3.56.17,6.53-.99,8.7-3.9,1.21-1.62,1.6-3.5,1.61-5.48.02-2.68.03-5.36,0-8.04-.01-.77.17-1.07,1.01-1.06,4.26.04,8.52.04,12.78,0,.82,0,1.06.27,1.05,1.06-.03,2.71.06,5.42-.03,8.13-.17,5.06,3.58,8.39,7.56,9.16,4.54.88,9.19-1.46,10.83-5.54.35-.88.56-1.78.56-2.73,0-2.9,0-5.81.02-8.71q0-1.35,1.3-1.35c2.07,0,4.13-.01,6.2,0,4.59.04,8.1,3.25,8.16,7.82.11,8.68.04,17.36.05,26.04,0,.77-.26.94-1,.7-2.58-.83-2.59-.81-2.59-3.58,0-2.26,0-4.52,0-6.78,0-1.28,0-1.29-1.29-1.29-12.07,0-24.14,0-36.21,0-.26,0-.52,0-.77,0Z"/>
        <path class="cls-2" d="M103.52,122.85c-11.7-.04-20.99-9.52-20.94-21.35.05-11.37,9.62-20.79,21.08-20.74,11.54.05,21.03,9.58,20.99,21.07-.04,11.6-9.55,21.06-21.13,21.01ZM103.56,85.83c-8.95.02-16.06,7.16-16.03,16.08.03,8.64,7.26,15.94,15.83,15.97,9.06.04,16.27-7.17,16.23-16.21-.04-8.82-7.17-15.86-16.03-15.84Z"/>
        <path class="cls-2" d="M50.12,84.1c-1.68,0-3.35,0-5.03,0-1.47,0-2.01-.53-2.01-1.96,0-2.84-.01-5.68,0-8.52,0-1.39.56-1.96,1.93-1.97,3.48-.02,6.97-.02,10.45,0,1.31,0,1.94.56,1.96,1.87.05,2.9.05,5.81,0,8.71-.02,1.29-.67,1.85-1.98,1.86-1.77.02-3.55,0-5.32,0Z"/>
        <path class="cls-2" d="M72.86,71.65c1.71,0,3.42-.01,5.13,0,1.44.01,1.98.57,1.99,2.01,0,2.81,0,5.61,0,8.42,0,1.44-.55,2.01-1.98,2.01-3.45.01-6.91.01-10.36,0-1.35,0-1.91-.56-1.92-1.86-.01-2.9-.01-5.81,0-8.71,0-1.31.57-1.85,1.92-1.87,1.74-.02,3.48,0,5.23,0Z"/>
        <path class="cls-2" d="M50.19,91.55c1.8,0,3.61-.01,5.41,0,1.19,0,1.72.4,1.77,1.57.14,3.06.14,6.12,0,9.18-.05,1.12-.65,1.58-1.79,1.59-3.58.01-7.15.01-10.73,0-1.21,0-1.78-.57-1.78-1.79-.02-2.93-.02-5.87,0-8.8,0-1.2.59-1.76,1.8-1.77,1.77-.01,3.54,0,5.32,0,0,0,0,0,0,.01Z"/>
        <path class="cls-2" d="M59.07,42.53c0,2.32,0,4.64,0,6.96,0,1.78-1.32,3.2-3.15,3.44-2.23.3-4.06-.72-4.52-2.54-.11-.43-.14-.89-.14-1.34,0-4.32,0-8.63,0-12.95,0-1.88.68-2.97,2.21-3.59,1.64-.66,3.63-.29,4.76.88.59.61.86,1.34.85,2.19-.02,2.32,0,4.64,0,6.96Z"/>
        <path class="cls-2" d="M92.94,42.73c0,2.23.01,4.45,0,6.68-.01,2.1-1.59,3.53-3.87,3.54-2.29.01-3.92-1.39-3.94-3.49-.03-4.61-.02-9.22,0-13.84.01-2.12,1.91-3.66,4.16-3.46,2.41.22,3.65,1.56,3.65,3.98,0,2.19,0,4.39,0,6.58Z"/>
        <path class="cls-2" d="M65.71,97.68c0-1.45-.01-2.9,0-4.36.02-1.25.52-1.76,1.77-1.77,2.74-.02,5.49,0,8.23-.02.7,0,.75.25.56.81-1.2,3.42-1.68,6.95-1.54,10.56.03.77-.28,1.01-1.02,1-2.06-.03-4.13,0-6.2-.01-1.28,0-1.8-.55-1.81-1.85-.01-1.45,0-2.9,0-4.36Z"/>
        <path class="cls-2" d="M95.5,71.65c1.71,0,3.42,0,5.13,0,.53,0,1.04.06,1.45.43.19.17.41.37.34.65-.08.32-.39.31-.64.31-1.1.02-2.18.17-3.27.35-3.28.56-6.34,1.71-9.23,3.34-.24.14-.49.43-.78.26-.34-.19-.2-.57-.2-.88,0-.93-.02-1.87.04-2.8.07-1.09.65-1.64,1.75-1.66,1.81-.03,3.61,0,5.42,0Z"/>
        <path class="cls-2" d="M106.66,106.38c-1.93,0-3.87-.03-5.8.02-.86.02-1.22-.23-1.21-1.14.03-4.12,0-8.25.02-12.37,0-1.37.35-1.68,1.74-1.69q2.77-.02,2.77,2.72c0,2.32.03,4.64-.01,6.96-.01.77.27,1.01,1.01.99,2.38-.03,4.77-.02,7.15,0,1.43,0,1.71.29,1.72,1.68,0,.45,0,.9,0,1.35-.02,1.16-.32,1.48-1.51,1.49-1.97.02-3.93,0-5.9,0Z"/>
      </g>
    </g>
  </g>
</svg>