<?xml version="1.0" encoding="UTF-8"?>
<svg id="Layer_2" data-name="Layer 2" xmlns="http://www.w3.org/2000/svg" viewBox="0 0 155 155">
  <defs>
    <style>
      .cls-1 {
        fill: none;
        stroke: #0067fc;
        stroke-miterlimit: 10;
        stroke-width: 5px;
      }

      .cls-2 {
        fill: #0067fc;
        stroke-width: 0px;
      }
    </style>
  </defs>
  <g id="Layer_1-2" data-name="Layer 1">
    <g>
      <circle class="cls-1" cx="77.5" cy="77.5" r="75"/>
      <g>
        <path class="cls-2" d="M92.94,29.49h5.22c1.13.78,2.55,1.56,2.77,2.9.74,4.45,3.83,4.49,7.23,4.28,1.61-.1,3.23-.03,4.84-.01,5.93.05,7.79,1.88,7.8,7.82.02,15.28.05,30.55-.02,45.83-.01,2.93.5,5.47,2.09,8.07,4.43,7.25,2.95,16.35-3.23,22.13-6.02,5.64-15.64,6.96-21.86,1.6-4.81-4.15-9.74-4.66-15.35-4.38-1.86.09-3.73.03-5.59-.02-1.55-.04-3.23-.22-3.12-2.28.1-1.78,1.66-1.94,3.08-1.96,3.6-.04,7.2-.02,10.81-.05,1.14-.01,2.38-.04,2.3-1.68-.06-1.3-.4-2.56-1.93-2.8-1.09-.17-2.23-.13-3.34-.14-13.91,0-27.82-.03-41.73,0-2.61,0-4.7-.25-4.68-3.68.06-13.66.04-27.32.01-40.99,0-2.48,1.05-3.63,3.58-3.63,22.11.02,44.22.03,66.32-.01,2.72,0,3.77,1.23,3.74,3.86-.07,5.46-.01,10.93,0,16.39,0,2.36.02,4.72.04,7.08.01,2.05,1.48,2.98,3.11,3.07,2.28.13,1.44-1.9,1.45-3.03.07-9.07.05-18.13.04-27.2,0-4.72-.09-4.82-4.83-4.82-20.49,0-40.99,0-61.48-.01-1.24,0-2.49-.02-3.72-.13-1.09-.1-1.91-.7-1.98-1.86-.09-1.37.8-2.04,2.04-2.18,1.11-.13,2.23-.12,3.35-.12,13.91,0,27.82,0,41.73,0,7.08,0,14.16,0,21.24,0,1.52,0,2.99.02,3.56-1.89,1.75-5.82-.33-8.7-6.39-8.7-1.37,0-2.74.1-4.1-.02-2.49-.22-3.9.72-4.58,3.24-.77,2.84-2.91,4.25-5.88,4.17-2.84-.08-4.78-1.67-5.41-4.3-.59-2.45-1.84-3.15-4.19-3.12-7.2.1-14.41.09-21.61,0-2.32-.03-3.62.6-4.22,3.07-.68,2.79-2.75,4.39-5.76,4.34-2.81-.04-4.85-1.45-5.52-4.13-.7-2.79-2.38-3.46-4.93-3.28-1.85.13-3.73.12-5.59,0-3.32-.2-4.7,1.2-4.69,4.59.07,21.11.07,42.23,0,63.34-.01,3.38,1.37,4.66,4.69,4.6,6.83-.12,13.66-.05,20.49-.01,1.57,0,3.66-.28,3.75,1.99.09,2.6-2.17,2.25-3.84,2.26-7.2.04-14.41-.08-21.61.07-3.13.07-5.58-.86-7.46-3.32V39.93c1.81-2.53,4.28-3.5,7.35-3.29,1.96.13,3.94-.12,5.89.05,3.18.28,5.52-.33,6.19-4.01.27-1.48,1.68-2.36,2.93-3.19h5.22c1.11,1.16,2.59,2.18,2.82,3.82.44,3.2,2.48,3.42,5.07,3.38,6.55-.1,13.1-.13,19.65.01,2.89.06,5.07-.3,5.58-3.73.22-1.51,1.68-2.39,2.67-3.48ZM107.99,94.01c-6.93-.45-13.34,5.44-13.89,12.77-.52,6.9,5.31,13.33,12.67,13.97,7.02.61,13.69-5.52,14.09-12.94.37-6.96-5.57-13.33-12.87-13.81ZM51.79,69.94c.02-4.82-.24-4.94-4.53-5.18-3.44-.19-4.98.82-4.8,4.55.24,5.16.34,5.56,4.55,5.58,4.32.02,4.76-.44,4.78-4.96ZM65.84,69.74c0-4.72-.2-4.93-4.68-4.92-4.35.01-4.54.23-4.53,5.08,0,4.58.42,5.02,4.69,5.01,4.18-.01,4.52-.41,4.52-5.16ZM84.26,69.82c0,4.68.37,5.08,4.6,5.08,4.23,0,4.61-.42,4.61-5.09,0-4.79-.18-4.99-4.62-4.99-4.41,0-4.6.21-4.59,5ZM107.56,69.88c0-4.86-.16-5.05-4.54-5.06-4.44,0-4.72.29-4.72,4.94,0,4.7.38,5.13,4.6,5.14,4.28.02,4.66-.39,4.66-5.02ZM42.54,83.98c-.02,5.43.15,5.63,4.46,5.65,4.48.02,4.79-.3,4.79-4.93,0-4.72-.27-4.82-4.71-5.06-3.67-.2-5.13,1.21-4.55,4.35ZM65.84,83.98c.58-3.13-.88-4.54-4.55-4.35-4.44.23-4.67.29-4.66,5.07,0,4.68.26,4.95,4.75,4.93,4.32-.02,4.48-.22,4.46-5.65ZM84.26,84.66c0,4.74.24,4.78,4.69,5.03,3.77.22,4.71-1.43,4.58-4.84-.19-4.92-.22-5.14-4.57-5.15-4.47-.02-4.69.22-4.69,4.96ZM107.56,84.75c0-4.84-.19-5.06-4.6-5.06-4.38,0-4.55.32-4.7,5.05-.11,3.29.62,5.17,4.5,4.95,4.53-.26,4.8-.3,4.8-4.94ZM42.53,99.51c0,4.77.2,4.99,4.62,4.98,4.38,0,4.65-.3,4.64-5.01,0-4.61-.43-5.07-4.67-5.07-4.23,0-4.59.4-4.59,5.1ZM56.63,99.53c0,4.73.23,4.98,4.64,4.97,4.37,0,4.58-.24,4.57-5.04,0-4.65-.38-5.06-4.63-5.05-4.21,0-4.58.42-4.58,5.11ZM79.51,69.62c-.02-4.4-.44-4.61-4.56-4.86-3.99-.25-4.42,1.92-4.43,5.06,0,3.17.52,5.31,4.43,5.12,4.01-.2,4.57-.67,4.55-5.32ZM79.51,85.14c0-4.93-.44-5.24-4.34-5.5-3.7-.25-4.74,1.42-4.64,4.81.15,4.69.45,5,4.58,5.22,3.84.21,4.77-1.71,4.4-4.54ZM79.46,99.73c.3-3.16-.15-5.5-4.17-5.35-4.07.15-4.61.67-4.74,5.17-.09,3.2.53,5.1,4.45,5.06,3.73-.04,4.94-1.54,4.46-4.88ZM84.26,99.67c.29,1.49-.79,3.71,1.59,4.62,1.15.43,2.77.58,3.44-.53,1.44-2.4,2.58-5,3.69-7.59.33-.77-.39-1.29-1.15-1.59-4.34-1.74-7.56.33-7.56,5.09Z"/>
        <path class="cls-2" d="M107.51,113.27c-2.08-.03-6.39-4.15-6.26-5.73.17-1.96,1.71-2.87,3.09-1.74,2.81,2.28,4.35.69,6.21-1.18,1.31-1.32,2.84-3.7,4.88-1.73,2.12,2.03-.3,3.58-1.62,4.84-2.1,2.01-3.68,4.71-6.31,5.55Z"/>
      </g>
    </g>
  </g>
</svg>