<?xml version="1.0" encoding="UTF-8"?>
<svg id="Layer_2" data-name="Layer 2" xmlns="http://www.w3.org/2000/svg" xmlns:xlink="http://www.w3.org/1999/xlink" viewBox="0 0 150 150">
  <defs>
    <style>
      .cls-1 {
        fill: none;
      }

      .cls-1, .cls-2 {
        stroke-width: 0px;
      }

      .cls-2 {
        fill: #0067fc;
      }

      .cls-3 {
        clip-path: url(#clippath);
      }
    </style>
    <clipPath id="clippath">
      <circle class="cls-1" cx="75" cy="75" r="75"/>
    </clipPath>
  </defs>
  <g id="Layer_1-2" data-name="Layer 1">
    <g class="cls-3">
      <g>
        <path class="cls-2" d="M124.1,92.4c.07,3.66-1.18,6.87-3.39,9.73-2.22,2.86-4.3,5.82-6.35,8.79-1.72,2.49-3.41,4.99-5.12,7.49-.54.8-1.17.82-1.74.02-1.39-1.96-2.76-3.93-4.13-5.9-2.66-3.82-5.33-7.65-7.99-11.47-2.3-3.29-3.13-6.99-2.56-10.98.51-3.62,2.1-6.71,4.75-9.21,2.65-2.49,5.8-3.95,9.45-4.26,4.4-.38,8.28.94,11.63,3.77,2.96,2.51,4.72,5.71,5.31,9.55.05.35.12.71.13,1.07.02.47,0,.93,0,1.4ZM108.35,100.39c4.43.01,8.05-3.55,8.06-7.94.01-4.39-3.55-7.98-7.85-8.06-4.22-.09-8.19,3.27-8.17,8.02.02,4.8,3.93,8.01,7.96,7.98Z"/>
        <path class="cls-2" d="M69.96,33.25c0,3.97-1.31,7.24-3.59,10.15-2.3,2.93-4.42,6-6.54,9.06-1.64,2.37-3.25,4.77-4.87,7.15-.42.62-1.09.64-1.54.03-1.68-2.28-3.27-4.63-4.89-6.97-2.41-3.47-4.81-6.94-7.25-10.39-1.7-2.41-2.62-5.1-2.79-8.06-.44-7.83,5.01-15.01,13.14-16.38,5.03-.84,9.47.59,13.25,4,2.83,2.56,4.45,5.77,4.94,9.55.09.69.17,1.39.14,1.86ZM62.18,33.5c0-4.48-3.5-8.02-7.94-8.03-4.47,0-8.04,3.53-8.05,7.98,0,4.44,3.57,8.01,8.03,8.01,4.42,0,7.95-3.54,7.96-7.96Z"/>
        <path class="cls-2" d="M80.92,90.4c-.84,0-1.68,0-2.52,0-.3,0-.48-.1-.63-.37-1.16-2.2-3.03-3.31-5.46-3.57-.69-.07-1.37-.08-2.05-.07-.35,0-.51-.11-.51-.48,0-1.56,0-3.12,0-4.68,0-.28.06-.49.41-.49,3.18-.06,6.22.4,8.9,2.26,2.43,1.69,3.98,4,4.73,6.85.13.48.09.53-.43.53-.81,0-1.62,0-2.43,0Z"/>
        <path class="cls-2" d="M102.58,128.39c-1.89,0-3.77,0-5.66,0-.63,0-.64,0-.64-.61,0-1.5.01-2.99,0-4.49,0-.43.14-.57.57-.56,2.12.01,4.24.01,6.36,0,1.62,0,3.24-.05,4.86-.06,1.25,0,1.83.58,1.83,1.83,0,.73,0,1.47,0,2.2,0,1.13-.58,1.7-1.7,1.7-1.87,0-3.74,0-5.61,0h0Z"/>
        <path class="cls-2" d="M37.22,83.63c0,.76-.02,1.53,0,2.29.01.41-.13.57-.54.54-3.98-.22-7.09-1.95-9.2-5.37-.9-1.47-1.39-3.08-1.59-4.79-.04-.39.09-.5.45-.5,1.57,0,3.15,0,4.72,0,.33,0,.49.1.57.45.61,2.64,2.25,4.13,4.95,4.5.48.07.66.24.63.74-.04.71-.01,1.43-.01,2.15Z"/>
        <path class="cls-2" d="M42.92,105.54c0,.81,0,1.62,0,2.43,0,.25-.05.44-.33.54-2.53.96-3.78,2.92-4.23,5.48-.07.41-.22.55-.63.54-1.53-.02-3.05-.02-4.58,0-.39,0-.52-.12-.49-.51.32-3.94,2.04-7.1,5.26-9.43,1.32-.96,2.78-1.59,4.37-1.91.55-.11.61-.07.61.47,0,.79,0,1.59,0,2.38Z"/>
        <path class="cls-2" d="M40.03,66.03c0,.78-.01,1.56,0,2.34.01.38-.12.53-.51.52-.73-.02-1.46,0-2.2,0-1.51,0-2.9.37-4.04,1.43-.18.17-.39.18-.61.18-1.85,0-3.71,0-5.56,0-.5,0-.53-.04-.34-.51,1.3-3.22,3.65-5.28,6.96-6.27,1.92-.58,3.9-.57,5.88-.54.3,0,.41.14.41.43-.01.81,0,1.62,0,2.43Z"/>
        <path class="cls-2" d="M75.18,104.51c0-.84,0-1.68,0-2.53,0-.31.11-.51.37-.7,1.76-1.26,2.7-3.01,2.98-5.14.04-.32.15-.46.49-.46,1.59.01,3.18,0,4.77,0,.34,0,.47.11.45.47-.14,2.8-1.11,5.29-2.85,7.47-1.46,1.83-3.31,3.1-5.54,3.82-.64.21-.67.19-.67-.51,0-.81,0-1.62,0-2.43Z"/>
        <path class="cls-2" d="M36.47,119.84c.86,0,1.71,0,2.57,0,.29,0,.5.08.68.31,1.28,1.61,2.99,2.33,5.01,2.41q1.01.04,1.01,1.06c0,1.42,0,2.84,0,4.25,0,.39-.13.52-.52.51-5.37-.06-9.79-3.11-11.68-7.85-.26-.65-.24-.68.45-.68.83,0,1.65,0,2.48,0Z"/>
        <path class="cls-2" d="M56.44,128.38c-1.59,0-3.18,0-4.77,0-.58,0-.63-.04-.63-.6,0-1.5,0-2.99,0-4.49,0-.42.13-.57.57-.57,3.09.02,6.17.02,9.26.03.05,0,.09,0,.14,0q.82.04.82.86c0,1.4-.01,2.81,0,4.21,0,.44-.16.57-.57.56-1.61-.02-3.21,0-4.82,0Z"/>
        <path class="cls-2" d="M49.64,63.17c1.15,0,2.31,0,3.46,0,1.33,0,1.88.55,1.89,1.87,0,.72,0,1.43,0,2.15-.01,1.04-.59,1.62-1.63,1.62-1.82,0-3.65,0-5.47,0-.64,0-1.28.03-1.91.07-.4.02-.59-.1-.58-.55.02-1.53.03-3.05,0-4.58,0-.47.17-.59.6-.58,1.22.02,2.43,0,3.65,0Z"/>
        <path class="cls-2" d="M86.26,128.39c-1.37,0-2.74,0-4.11,0-.39,0-.56-.12-.55-.53.02-1.51.02-3.02,0-4.53,0-.38.13-.55.5-.56.16,0,.31-.02.47-.02,2.62,0,5.23,0,7.85-.02.38,0,.52.12.52.51-.02,1.54-.02,3.08,0,4.62,0,.43-.17.53-.56.52-1.37-.02-2.74,0-4.11,0Z"/>
        <path class="cls-2" d="M71.72,122.82c1.34,0,2.68.02,4.02,0,.44,0,.56.16.56.57-.01,1.48-.02,2.96,0,4.44,0,.43-.15.57-.57.56-2.66-.01-5.33-.01-7.99,0-.43,0-.62-.12-.61-.58.02-1.48.02-2.96,0-4.44,0-.43.16-.56.58-.55,1.34.02,2.68,0,4.02,0Z"/>
        <path class="cls-2" d="M60.28,86.39c-1.23,0-2.46,0-3.69,0-.38,0-.53-.11-.52-.51.02-1.54.02-3.09,0-4.63,0-.4.16-.51.53-.51,2.45,0,4.89,0,7.34,0,.38,0,.52.13.52.52-.02,1.54-.02,3.09,0,4.63,0,.39-.15.51-.52.51-1.22-.02-2.43,0-3.65,0h0Z"/>
        <path class="cls-2" d="M65.63,108.09c-1.2,0-2.4-.01-3.6,0-.39,0-.56-.1-.55-.53.02-1.54.02-3.08,0-4.63,0-.42.15-.53.55-.52,2.43.01,4.86.02,7.29,0,.43,0,.56.14.56.56-.02,1.51-.02,3.02,0,4.53,0,.47-.17.58-.6.57-1.21-.02-2.43,0-3.65,0h0Z"/>
        <path class="cls-2" d="M46.63,86.4c-1.18,0-2.37-.01-3.55,0-.4,0-.56-.11-.56-.53.02-1.53.01-3.05,0-4.58,0-.41.16-.54.56-.54,2.37,0,4.74,0,7.11-.01.38,0,.52.13.51.52-.02,1.54-.02,3.09,0,4.63,0,.39-.13.52-.52.51-1.18-.02-2.37,0-3.55,0h0Z"/>
        <path class="cls-2" d="M52.2,108.09c-1.14,0-2.28-.01-3.41,0-.43,0-.57-.15-.57-.57.02-1.51.02-3.02,0-4.54,0-.41.12-.58.56-.57,2.29.02,4.58.02,6.87,0,.41,0,.55.14.54.54-.01,1.53-.02,3.06,0,4.58,0,.44-.16.56-.58.55-1.14-.02-2.28,0-3.41,0Z"/>
      </g>
    </g>
  </g>
</svg>