<?xml version="1.0" encoding="UTF-8"?>
<svg id="Layer_2" data-name="Layer 2" xmlns="http://www.w3.org/2000/svg" xmlns:xlink="http://www.w3.org/1999/xlink" viewBox="0 0 150 150">
  <defs>
    <style>
      .cls-1 {
        fill: none;
      }

      .cls-1, .cls-2 {
        stroke-width: 0px;
      }

      .cls-2 {
        fill: #0067fc;
      }

      .cls-3 {
        clip-path: url(#clippath);
      }
    </style>
    <clipPath id="clippath">
      <circle class="cls-1" cx="75" cy="75" r="75"/>
    </clipPath>
  </defs>
  <g id="Layer_1-2" data-name="Layer 1">
    <g class="cls-3">
      <g>
        <path class="cls-2" d="M75.04,16.11c9.99,0,19.97,0,29.96,0,7.33,0,13,5.52,13.19,12.85.17,6.69-5.77,12.87-12.48,12.91-6.12.04-12.23,0-18.35,0-1.3,0-2.99,1.2-3.44,2.39-.16.41,0,.54.36.56.42.02.83.03,1.25.03,8.16,0,16.31-.03,24.47.02,3.25.02,6.38.62,9.08,2.61,3.93,2.9,6.16,6.74,6.17,11.67.04,16.23.04,32.45,0,48.68-.02,7.82-6.13,14.06-13.95,14.22-5.16.1-10.32.07-15.48,0-1.26-.02-1.94.44-2.57,1.48-3.38,5.57-8.28,9.07-14.74,10.08-8.69,1.36-16.66-2.09-21.44-9.63-.89-1.4-1.77-1.99-3.45-1.94-4.66.12-9.32-.09-13.98.07-8.38.28-15.02-6.65-14.93-14.97.18-15.64.18-31.29,0-46.93-.09-8.49,5.89-15.38,15.38-15.35,8.11.02,16.23,0,24.34,0,.37,0,.75,0,1.12,0,.68-.01.82-.26.41-.83-.98-1.35-2-2.25-3.96-2.19-5.82.17-11.65.07-17.47.06-9.04-.02-15.27-9.66-11.57-17.92,2.34-5.21,6.43-7.8,12.11-7.83,9.99-.04,19.97-.01,29.96-.01h0ZM53.98,49.61h0c-4.87,0-9.73.03-14.6-.02-2.12-.02-3.98.65-5.77,1.73-.91.55-.82.89-.02,1.48,4.2,3.13,8.37,6.3,12.55,9.46,6.57,4.96,13.14,9.92,19.71,14.87,5.44,4.1,13.03,4.1,18.27.1,5.71-4.37,11.47-8.68,17.2-13.02,4.97-3.76,9.95-7.52,14.92-11.3,1.1-.83,1.08-.96-.08-1.74-1.68-1.12-3.56-1.56-5.56-1.56-9.07,0-18.14.1-27.21-.06-2.69-.05-4.67.44-6.14,2.88-1,1.66-3.05,1.6-4.38.16-.56-.61-1.13-1.24-1.58-1.93-.55-.83-1.25-1.07-2.21-1.07-5.03.03-10.07.02-15.1.02ZM120.63,83.53c0-7.82,0-15.64,0-23.46,0-.96-.1-1.91-.26-2.85-.16-.98-.53-1.18-1.39-.53-6.52,4.96-13.05,9.89-19.59,14.82-4.65,3.5-9.19,7.15-14.01,10.41-.96.65-.97.9-.08,1.61,8.48,6.7,16.93,13.44,25.39,20.17,2.77,2.2,5.54,4.39,8.29,6.61.8.65,1.2.55,1.38-.48.15-.9.27-1.8.27-2.72-.01-7.86,0-15.72,0-23.58ZM29.4,83.54h0c0,7.86,0,15.72,0,23.58,0,.79.08,1.58.21,2.35.26,1.55.43,1.61,1.62.66,10.97-8.72,21.93-17.43,32.9-26.15,1.57-1.25,1.52-1.17-.05-2.35-6.83-5.09-13.63-10.23-20.44-15.36-4.25-3.2-8.48-6.42-12.71-9.66-.77-.59-1.09-.32-1.25.5-.19.94-.31,1.88-.31,2.84.01,7.86,0,15.72,0,23.58ZM45.8,117.45h0c2.41,0,4.83-.03,7.24,0,.93.01,1.27-.25,1.06-1.25-.44-2.09-.39-4.2-.13-6.33,1.38-11.3,12.03-19.67,23.41-18.35,12.09,1.4,20.51,12.49,18.59,24.54-.17,1.1.08,1.4,1.15,1.39,4.66-.04,9.32.02,13.98-.03,1.9-.02,3.68-.58,5.27-1.67.8-.55.86-.92.05-1.56-4.91-3.85-9.78-7.74-14.66-11.61-7.23-5.74-14.46-11.48-21.67-17.24-.77-.62-1.54-.86-2.53-.68-1.65.3-3.32.32-4.96.01-1.14-.21-1.98.12-2.85.82-6.61,5.31-13.24,10.6-19.88,15.88-5.44,4.32-10.89,8.62-16.36,12.89-.77.6-.71.96.06,1.44,1.69,1.06,3.49,1.75,5.51,1.75,2.25,0,4.49,0,6.74,0ZM62.48,112.33c0-5.62,3.68-10.92,9.81-12.61,6.42-1.78,13.82.96,14.66,9.03.29,2.81-.06,5.49-1.83,7.82-.8,1.05-2.35,1.71-3.15,1.3-1.24-.63-1.17-1.82-1.03-2.94.35-2.68.74-5.35,1.14-8.02.22-1.5.13-1.72-1.37-2.07-1.7-.39-3.42-.55-5.19-.33-5.53.68-9.69,6.06-8.89,11.6.48,3.32,3.04,5.19,6.22,4.51,1.66-.35,2.95-1.31,3.98-2.63.54-.69.83-.8,1.17.18.62,1.78,1.86,2.62,3.73,2.48,2.42-.18,4.5-1.13,6-3.13,3.24-4.34,3.06-11.66-.52-15.84-3.97-4.64-9.17-5.72-14.85-4.38-7.46,1.76-12.31,7.6-12.98,15.24-.37,4.22.54,8.1,3.44,11.37,4.64,5.23,12.1,5.55,17.98,3.41,1.04-.38.86-1.01.62-1.78-.3-.94-.92-.64-1.5-.41-2.22.87-4.53,1.11-6.87.91-3.37-.3-6.26-1.55-8.31-4.4-1.73-2.41-2.31-5.12-2.26-9.27ZM78.71,24.45c-.79-.01-1.25.38-1.52,1-.26.61-.11,1.19.41,1.57.73.54,1.51,1.02,2.29,1.51.55.34.61.62,0,.97-.75.44-1.52.87-2.2,1.41-.6.48-.84,1.16-.39,1.89.46.74,1.16.9,1.96.61.27-.1.52-.27.77-.41,2.51-1.43,2.27-1.38,2.27,1.24,0,.21,0,.42.01.62.04.97.54,1.62,1.5,1.67,1.01.05,1.47-.69,1.59-1.59.09-.7.05-1.41.05-2.12,0-.71.27-.92.92-.55.65.37,1.29.76,1.97,1.08.83.4,1.59.19,2.07-.57.52-.82.16-1.53-.55-2.05-.46-.35-.99-.61-1.49-.9-1.25-.72-1.26-.85-.07-1.57.57-.35,1.17-.66,1.68-1.07.59-.48.89-1.13.44-1.88-.44-.73-1.1-1.04-1.91-.7-.61.25-1.18.6-1.75.94-1.1.65-1.27.57-1.3-.67-.02-.62.04-1.26-.06-1.87-.14-.89-.62-1.62-1.63-1.56-.97.06-1.44.74-1.47,1.7-.01.58,0,1.17-.01,1.75-.03,1.18-.19,1.27-1.21.71-.8-.43-1.52-1.03-2.39-1.16ZM61.06,24.45c-.72.05-1.26.35-1.55.96-.32.66-.06,1.25.45,1.67.44.37.98.62,1.45.96.42.31,1.16.39,1.14,1.01-.02.55-.72.61-1.12.88-.42.28-.88.49-1.27.78-.72.53-1.03,1.22-.5,2.05.5.78,1.21.98,2.05.57.45-.22.87-.49,1.3-.74,1.47-.84,1.54-.8,1.56.85,0,.54-.04,1.09.07,1.62.17.84.63,1.51,1.58,1.47,1-.04,1.46-.69,1.49-1.66.02-.67.03-1.33.02-2-.01-.89.35-1.01,1.06-.57.53.32,1.1.59,1.65.89.87.47,1.71.55,2.28-.41.57-.97.02-1.68-.75-2.22-.57-.41-1.23-.7-1.84-1.06-.56-.33-.55-.67.02-1,.61-.35,1.24-.69,1.82-1.09.78-.54,1.33-1.23.77-2.21-.55-.96-1.4-.87-2.29-.48-.82.37-1.72,1.43-2.38,1.07-.84-.45-.24-1.74-.34-2.67-.1-.96-.53-1.63-1.49-1.69-1-.06-1.49.66-1.63,1.56-.1.65-.07,1.33-.05,1.99.02.94-.3,1.1-1.11.63-.78-.46-1.5-1.06-2.41-1.18ZM47.04,33.92c-.01.25-.04.5-.04.75,0,1.14.6,1.92,1.53,1.89,1.12-.04,1.45-.83,1.51-1.78.04-.58.03-1.16.02-1.75-.03-.93.25-1.29,1.15-.7.52.34,1.08.63,1.62.93.85.47,1.65.4,2.17-.45.56-.91.2-1.67-.66-2.22-.6-.38-1.19-.76-1.81-1.1-.67-.37-.63-.67.01-1.03.62-.34,1.23-.7,1.82-1.09.85-.55,1.22-1.33.68-2.23-.51-.86-1.35-.87-2.19-.42-.59.31-1.18.62-1.75.97-.7.42-1,.18-1.03-.57-.03-.71,0-1.42-.05-2.12-.08-.95-.57-1.61-1.57-1.57-.95.03-1.36.69-1.39,1.59-.02.62,0,1.25-.02,1.87-.06,1.16-.27,1.28-1.24.72-.54-.31-1.07-.63-1.62-.93-.86-.46-1.62-.33-2.16.52-.58.92-.12,1.61.61,2.13.64.46,1.36.8,2.04,1.2.52.3.53.59,0,.9-.72.42-1.47.79-2.13,1.28-.67.5-1.14,1.16-.57,2.03.54.83,1.28,1.01,2.16.57.52-.26,1.02-.56,1.53-.84,1.22-.69,1.36-.61,1.39.81,0,.21,0,.42,0,.62ZM94.79,32.09c0,1.07,1.07,1.75,2.14,1.31.61-.25,1.17-.63,1.75-.96,1.11-.62,1.26-.55,1.3.68.02.62-.02,1.25.04,1.87.09.93.53,1.63,1.57,1.57.94-.06,1.37-.7,1.39-1.61.02-.58,0-1.16.02-1.75.04-1.26.22-1.37,1.29-.82.48.25.93.55,1.41.8,1.1.57,1.92.43,2.38-.43.53-.99.03-1.67-.78-2.19-.56-.36-1.13-.7-1.72-1.01-.84-.43-.7-.77.04-1.15.66-.35,1.33-.7,1.93-1.15.7-.52,1.04-1.24.5-2.06-.5-.76-1.24-.95-2.07-.53-.67.34-1.31.73-1.96,1.1-.7.39-1,.15-1.01-.61,0-.67,0-1.33-.02-2-.04-.93-.43-1.68-1.45-1.7-1.1-.03-1.48.76-1.53,1.74-.03.62-.03,1.25-.02,1.87,0,.81-.28,1.1-1.06.65-.65-.37-1.29-.76-1.96-1.09-.78-.38-1.52-.22-1.96.52-.46.78-.25,1.53.45,2.11.25.21.59.31.86.51.56.41,1.6.56,1.63,1.2.03.7-1.01.83-1.59,1.19-.75.47-1.55.87-1.55,1.93Z"/>
        <path class="cls-2" d="M70.75,114.24c-.04-3.78,2.63-6.69,5.98-6.56.84.03,1.24.3,1.1,1.19-.23,1.47-.38,2.96-.65,4.43-.18,1.04-.72,1.94-1.38,2.76-1.01,1.25-2.19,1.68-3.37,1.25-1.07-.39-1.68-1.48-1.69-3.06Z"/>
      </g>
    </g>
  </g>
</svg>