<?xml version="1.0" encoding="UTF-8"?>
<svg id="Layer_2" data-name="Layer 2" xmlns="http://www.w3.org/2000/svg" viewBox="0 0 155 155">
  <defs>
    <style>
      .cls-1 {
        fill: none;
        stroke: #0067fc;
        stroke-miterlimit: 10;
        stroke-width: 5px;
      }

      .cls-2 {
        fill: #f4c500;
      }

      .cls-2, .cls-3, .cls-4, .cls-5, .cls-6 {
        stroke-width: 0px;
      }

      .cls-3 {
        fill: #00ff2a;
      }

      .cls-4 {
        fill: #0067fc;
      }

      .cls-5 {
        fill: #f90000;
      }

      .cls-6 {
        fill: #ff0049;
      }
    </style>
  </defs>
  <g id="Layer_1-2" data-name="Layer 1">
    <g>
      <circle class="cls-1" cx="77.5" cy="77.5" r="75"/>
      <g>
        <g>
          <g>
            <path class="cls-4" d="M118.73,34.3h-26.17c-2.52.8-4.1,2.5-4.82,5.03v51.51c.71,2.53,2.3,4.22,4.82,5.02h26.17c2.52-.79,4.1-2.5,4.82-5.02v-51.51c-.72-2.53-2.31-4.22-4.82-5.03ZM89.45,45.53c0-1.47.04-1.5,1.44-1.5,9.84-.01,19.67-.01,29.51,0,1.38,0,1.43.04,1.43,1.4v37.04c0,1.36-.07,1.43-1.41,1.44-.91.01-1.82-.01-2.72,0-.63.01-.94-.12-.63-.85.9-2.15.52-4.4.35-6.61-.09-1.26-.79-1.82-2.04-2.01-.46-.07-.77-.24-.98-.65-.11-.21-.27-.52-.45-.55-1.46-.25-2.42-1.47-3.76-1.89-.64-.21-.84-.48-.83-1.08.01-.77.02-1.54-.18-2.29-.34-1.28-1.37-2.14-2.53-2.1-1.18.04-2.2.93-2.41,2.24-.34,2-.09,4.04-.17,6.06-.02.54.27,1.3-.2,1.55-.41.23-.8-.52-1.23-.78-.3-.18-.57-.42-.88-.56-1-.46-1.9-.28-2.39.35-.32.38-.49.91-.46,1.56.02.61.2,1.16.46,1.68.17.35.38.68.61,1.01.89,1.29,1.81,2.56,2.69,3.86.19.27.59.53.38.89-.17.3-.58.17-.88.17h-2.8c-.74-.01-1.48-.01-2.22-.01-2.13,0-4.26.01-6.39.03-1.01.01-1.33-.37-1.32-1.35.03-6.21.01-12.42.01-18.63v-18.42ZM105.4,68.96c.02-1.1.5-1.72,1.27-1.72.78-.01,1.28.61,1.3,1.71.03,1.63.01,3.28.02,4.92.01.47-.06,1.11.6,1.15.77.04.67-.65.73-1.15.02-.17,0-.35.01-.52.02-.32.01-.67.45-.7.35-.02.59.17.74.48.26.49.16,1.02.17,1.54,0,.35-.02.7-.02,1.05,0,.42.09.8.6.81.43,0,.58-.32.62-.71.04-.38.08-.76.13-1.14.04-.28.1-.58.45-.63.36-.05.58.19.73.48.25.49.21,1.02.2,1.54-.01.39-.08.77-.07,1.15.01.36.13.71.58.74.44.02.62-.27.67-.66.04-.31.03-.62.05-.94.03-.29.12-.56.44-.64.31-.09.55.07.73.3.11.13.24.29.25.45.14,2.17.69,4.36-.37,6.47-.34.67-.79.98-1.56.97-2.76-.03-5.51-.02-8.27-.01-.56,0-1.01-.13-1.35-.63-1.22-1.78-2.47-3.55-3.69-5.34-.33-.48-.62-1.02-.64-1.63-.02-.75.49-1.14,1.07-.69,1.11.87,2.65,1.38,2.87,3.09.05.37.28.68.71.59.46-.1.55-.5.55-.9.01-1.61,0-3.21,0-4.82h.02c0-1.54-.02-3.07.01-4.61ZM121.82,89.8c-.1,2.42-1.92,4.35-4.35,4.36-6.03.04-12.07.05-18.1.03-.74,0-1.49-.01-2.23-.01-1.11,0-2.22-.01-3.33-.02-2.43-.01-4.25-1.94-4.34-4.36-.03-.98.02-1.96-.03-2.93-.04-.92.33-1.23,1.23-1.22,2.16.01,4.32.02,6.48.02h2.22c1.71-.01,3.41-.01,5.12-.01h15.92c1.37.01,1.42.06,1.43,1.41,0,.91.01,1.82-.02,2.73ZM121.83,41.44c-.1.7-.52.83-1.09.83h-5.34c-3.27.01-6.55,0-9.82,0-4.85,0-9.69.01-14.54,0-1.53,0-1.61-.09-1.59-1.58.04-2.8,1.84-4.69,4.64-4.7,7.7-.04,15.4-.04,23.11,0,3.01.01,5.02,2.47,4.63,5.45Z"/>
            <path class="cls-4" d="M105.77,89.31c.97,0,1.95,0,2.92,0,.59,0,1.2.1,1.23.82.04.72-.56.91-1.15.92-2.05.02-4.1.03-6.15,0-.59,0-1.16-.21-1.12-.95.04-.67.58-.79,1.14-.79,1.04,0,2.08,0,3.13,0Z"/>
            <path class="cls-4" d="M105.76,37.82c.65.11,1.13.49,1.12,1.28,0,.78-.47,1.21-1.23,1.27-.71.06-1.29-.6-1.26-1.34.03-.7.59-1.23,1.37-1.21Z"/>
            <path class="cls-4" d="M100.37,39.12c.05-.76.45-1.25,1.22-1.28.78-.03,1.25.44,1.28,1.22.03.79-.44,1.27-1.2,1.3-.77.03-1.2-.45-1.3-1.24Z"/>
            <path class="cls-4" d="M109.61,37.81c.75.08,1.23.46,1.29,1.23.05.71-.58,1.38-1.28,1.33-.75-.06-1.21-.5-1.22-1.27,0-.79.48-1.17,1.21-1.29Z"/>
          </g>
          <g>
            <polygon class="cls-6" points="114.17 64.38 112.31 66.22 105.71 59.62 103.85 57.78 99.36 53.28 97.26 51.18 98.57 49.84 99.1 49.31 114.17 64.38"/>
            <polygon class="cls-6" points="114.17 51.18 107.57 57.78 105.71 59.62 99.1 66.22 97.26 64.38 103.85 57.78 105.71 55.92 112.31 49.31 114.17 51.18"/>
          </g>
        </g>
        <g>
          <path class="cls-4" d="M87.74,58.53c-4.58,0-9.15,0-13.73,0-5.82,0-11.63,0-17.44,0-.38,0-.76.01-1.13.08-.58.11-.91.52-.9,1.1,0,.62.39,1,.99,1.1.32.05.66.03.99.03h32.93v-2.31h-1.71ZM97.13,95.86c.01,6.63,0,13.27,0,19.91,0,.25.01.51,0,.77-.06,1.24-.72,1.91-1.95,1.97-.28.02-.56.01-.85.01h-58.12c-1.95,0-2.53-.58-2.53-2.52v-54.1c0-1.05,0-1.06,1.05-1.06h15.33c1.16,0,1.7-.35,1.73-1.1.02-.8-.54-1.21-1.72-1.21-5.1,0-10.21,0-15.32,0-1.07,0-1.07-.01-1.07-1.05-.01-1.58-.01-3.16,0-4.73.01-1.52.69-2.2,2.22-2.2h53.54v-2.23h-53.91c-2.43,0-4.08,1.66-4.08,4.08v64.27c0,2.01.91,3.21,3.02,4.03h61.87c2.26-.88,3.02-2.01,3.02-4.45v-22.05c-.74,0-1.49-.01-2.23-.01.01.56.01,1.12,0,1.68ZM74.01,58.53c-5.82,0-11.63,0-17.44,0-.38,0-.76.01-1.13.08-.58.11-.91.52-.9,1.1,0,.62.39,1,.99,1.1.32.05.66.03.99.03h32.93v-2.31h-1.71c-4.58,0-9.15,0-13.73,0ZM87.74,58.53c-4.58,0-9.15,0-13.73,0-5.82,0-11.63,0-17.44,0-.38,0-.76.01-1.13.08-.58.11-.91.52-.9,1.1,0,.62.39,1,.99,1.1.32.05.66.03.99.03h32.93v-2.31h-1.71Z"/>
          <path class="cls-4" d="M64.71,113.25c-5.13,0-10.26,0-15.39,0-2.16,0-3.14-.99-3.15-3.16,0-.45,0-.89,0-1.34,0-2.21.98-3.2,3.18-3.2,6.99,0,13.98,0,20.97,0,3.25,0,6.49,0,9.74,0,2.24,0,3.19.95,3.2,3.16,0,.49,0,.99,0,1.48,0,2.07-.99,3.05-3.09,3.05-2.52,0-5.04,0-7.55,0-2.64,0-5.27,0-7.91,0ZM64.78,107.87c-4.82,0-9.65,0-14.47,0-2.04,0-1.8-.21-1.81,1.81,0,1.23,0,1.23,1.26,1.23,9.74,0,19.48,0,29.22,0,2.19,0,1.94.3,1.95-1.95,0-1.06-.02-1.09-1.13-1.09-5.01,0-10.02,0-15.04,0Z"/>
          <path class="cls-4" d="M65.23,102.52c-5.15,0-10.31-.04-15.46.02-1.72.02-3.25-1-3.07-3.07.05-.63,0-1.27,0-1.9.01-1.56.91-2.56,2.47-2.72.26-.03.52-.02.78-.02,10.19,0,20.37,0,30.56,0,.45,0,.9,0,1.33.13,1.01.31,1.66.97,1.84,2.02.17,1,.14,2.02.05,3.03-.15,1.6-1.16,2.5-2.77,2.51-3.34.01-6.68,0-10.02,0-1.91,0-3.81,0-5.72,0ZM65.27,100.19c4.78,0,9.55,0,14.33,0,2.12,0,1.84.19,1.86-1.84,0-1.21,0-1.21-1.21-1.21-9.81,0-19.63,0-29.44,0-2.1,0-1.86-.22-1.87,1.9,0,1.11.03,1.14,1.16,1.14,5.06,0,10.12,0,15.18,0Z"/>
          <path class="cls-4" d="M69.58,53.41c3.08,0,6.16,0,9.24,0,.26,0,.52-.01.77.03.61.09,1,.46,1.02,1.08.03.62-.33,1.02-.93,1.15-.25.05-.51.07-.77.07-6.26,0-12.51,0-18.77,0-.28,0-.57-.02-.84-.09-.54-.13-.85-.51-.86-1.06,0-.59.33-.97.9-1.11.27-.07.56-.05.84-.05,3.13,0,6.26,0,9.39,0Z"/>
          <path class="cls-3" d="M51.24,54.24c.02.62-.46,1.12-1.08,1.15-.62.03-1.14-.43-1.18-1.05-.04-.64.47-1.18,1.11-1.19.61-.01,1.13.49,1.15,1.09Z"/>
          <path class="cls-5" d="M41,54.25c0,.61-.5,1.09-1.13,1.1-.63,0-1.14-.46-1.16-1.07-.02-.62.52-1.15,1.17-1.14.62.01,1.12.51,1.12,1.12Z"/>
          <path class="cls-2" d="M46.1,54.23c0,.64-.46,1.11-1.1,1.12-.66,0-1.12-.44-1.13-1.09,0-.64.46-1.12,1.1-1.13.64,0,1.12.46,1.13,1.1Z"/>
          <g>
            <path class="cls-3" d="M77.88,77.83c0,2.15-.39,3.85-1.13,5.47-.71,1.54-1.68,2.88-2.93,4.02-1.86,1.71-4.04,2.77-6.54,3.17-.65.1-1.3.16-1.95.16-2.26,0-4.39-.54-6.34-1.69-2.26-1.33-3.96-3.18-5.08-5.56-.21-.44-.37-.89-.51-1.35-.05-.16-.04-.17.13-.17.28,0,.57-.02.85,0,.3.01.48.16.6.41.18.39.37.78.58,1.16.62,1.1,1.4,2.07,2.34,2.91.98.87,2.07,1.58,3.3,2.07.96.38,1.95.62,2.98.72,1.7.16,3.36-.07,4.96-.65,1.34-.49,2.54-1.2,3.61-2.14,1.07-.94,1.93-2.06,2.56-3.34.54-1.12.87-2.3,1.03-3.53.09-.73.12-1.47.07-2.2-.08-1.23-.36-2.43-.85-3.56-.59-1.38-1.42-2.6-2.5-3.63-1.7-1.63-3.72-2.65-6.06-3.03-1.94-.31-3.82-.1-5.65.61-1.58.61-2.95,1.54-4.12,2.77-.86.91-1.55,1.95-2.07,3.09-.06.13-.12.26-.21.38-.19.29-.46.41-.8.37-.21-.02-.41-.03-.62-.02-.15,0-.16-.01-.12-.16.27-.96.68-1.85,1.21-2.69,1.12-1.77,2.58-3.18,4.39-4.24,1.42-.83,2.95-1.34,4.58-1.56.57-.08,1.14-.12,1.71-.12,3,0,5.67.93,7.97,2.85,2.14,1.78,3.53,4.04,4.22,6.73.26,1.03.4,2.07.39,2.76Z"/>
            <path class="cls-3" d="M65.31,84.7c-1.42,0-2.83,0-4.25,0-.35,0-.69-.05-1.02-.19-.65-.28-.99-.79-1.09-1.47-.08-.53-.08-1.06.01-1.59.1-.54.39-.9.93-1.07,1.1-.37,2.2-.74,3.31-1.08.25-.08.49-.09.73-.03.43.11.85.2,1.29.21.51.01,1.01-.05,1.49-.21.25-.09.5-.08.74,0,1.04.33,2.07.67,3.09,1.04.61.22,1.04.63,1.1,1.29.05.55.08,1.11-.05,1.66-.2.8-.81,1.33-1.63,1.42-.37.04-.75.02-1.12.02-1.18,0-2.36,0-3.53,0h0Z"/>
            <path class="cls-3" d="M65.39,78.67c-2.1-.01-3.7-1.59-3.69-3.66,0-2.01,1.62-3.61,3.66-3.58,1.93.03,3.54,1.55,3.54,3.6,0,2.38-2.02,3.67-3.51,3.63Z"/>
            <path class="cls-3" d="M53.63,78.63c-1.5,0-3,0-4.5,0q-.19,0-.19-.19c0-.36,0-.72,0-1.08,0-.14.05-.17.18-.17,1.11,0,2.23,0,3.34,0,1.73,0,3.46,0,5.19,0,.04,0,.07,0,.11,0,.05,0,.11.01.14-.05.03-.07-.03-.1-.06-.14-.44-.45-.89-.89-1.33-1.33-.11-.11-.21-.21-.29-.34-.19-.3-.16-.65.09-.89.25-.25.63-.28.92-.08.06.04.11.08.16.13.81.81,1.63,1.62,2.43,2.43.32.32.62.67.92,1.01.06.07.07.12,0,.19-.96,1.02-1.9,2.05-2.87,3.06-.15.15-.3.3-.45.45-.14.14-.31.24-.51.26-.31.04-.55-.09-.71-.35-.15-.24-.13-.49.02-.73.08-.13.19-.25.31-.36.59-.55,1.13-1.14,1.7-1.71.03-.03.08-.05.06-.09-.02-.04-.07-.02-.11-.02-1.51,0-3.02,0-4.54,0Z"/>
          </g>
        </g>
      </g>
    </g>
  </g>
</svg>