<?xml version="1.0" encoding="UTF-8"?>
<svg id="Layer_2" data-name="Layer 2" xmlns="http://www.w3.org/2000/svg" xmlns:xlink="http://www.w3.org/1999/xlink" viewBox="0 0 150 150">
  <defs>
    <style>
      .cls-1 {
        fill: none;
      }

      .cls-1, .cls-2 {
        stroke-width: 0px;
      }

      .cls-2 {
        fill: #0067fc;
      }

      .cls-3 {
        clip-path: url(#clippath);
      }
    </style>
    <clipPath id="clippath">
      <circle class="cls-1" cx="75" cy="75" r="75"/>
    </clipPath>
  </defs>
  <g id="Layer_1-2" data-name="Layer 1">
    <g class="cls-3">
      <g>
        <path class="cls-2" d="M23.57,115.33V48.21c.33-.58.83-.96,1.43-1.24,1.97-.94,3.93-1.91,5.91-2.84.64-.3.92-.62.75-1.4-.41-1.83-.43-3.7-.2-5.56,1.55-12.95,16.39-19.93,27.4-12.89,6.17,3.95,9.27,10.99,7.99,18.3-.15.84.04,1.28.84,1.62,1.45.62,2.86,1.32,4.26,2.04.69.36,1.28.35,1.99,0,6.99-3.4,14.01-6.76,20.99-10.17,1.18-.58,2.2-.6,3.38-.02,7.37,3.59,14.74,7.16,22.15,10.67,1.41.67,1.97,1.56,1.97,3.13-.04,19.13-.03,38.25-.03,57.38,0,2.38.02,4.76,0,7.14-.02,1.68-1.38,2.59-2.92,1.91-1.91-.85-3.78-1.77-5.64-2.72-1.08-.55-1.42-1.7-.91-2.7.49-.98,1.61-1.37,2.72-.91.62.26,1.23.55,1.82.88.71.39.95.22.95-.59-.02-5.75-.02-11.51,0-17.26,0-.59-.19-.95-.73-1.21-6.05-2.91-12.1-5.84-18.14-8.77-.61-.29-.87-.24-.87.51.01,5.82.01,11.64,0,17.45,0,.61.25.94.78,1.18.93.43,1.86.88,2.77,1.35,1.2.63,1.6,1.74,1.07,2.81-.51,1.02-1.62,1.37-2.81.85-.94-.41-1.88-.84-2.78-1.34-.76-.42-1.4-.35-2.16.02-6.9,3.37-13.83,6.68-20.72,10.07-1.31.65-2.42.64-3.72,0-6.89-3.39-13.82-6.7-20.73-10.07-.77-.37-1.39-.39-2.16-.01-7.08,3.44-14.18,6.85-21.27,10.26-1.6.77-2.24.6-3.35-.73ZM86.87,58.72c0,4.27-.02,8.55.01,12.82.01,1.38-.51,2.29-1.8,2.87-3.43,1.55-6.85,3.11-10.21,4.78-1.43.71-2.59.61-3.97-.15-5.56-3.09-11.19-6.07-16.77-9.11-.64-.35-.95-.26-1.26.39-.52,1.07-1.1,2.11-1.7,3.14-.99,1.7-2.85,1.69-3.82,0-.67-1.17-1.32-2.35-1.94-3.55-.31-.6-.63-.76-1.29-.48-5.24,2.29-10.49,4.56-15.75,6.81-.67.29-.89.7-.88,1.41.04,1.99.01,3.99.01,5.98,0,1.37,0,1.36,1.23.83,6.37-2.75,12.75-5.48,19.12-8.25,1.08-.47,1.99-.41,3.01.15,3.48,1.95,6.96,3.88,10.49,5.73,1.35.71,1.85,1.66,1.84,3.16-.05,7.04-.01,14.08-.04,21.12,0,.82.25,1.28,1.01,1.63,1.93.87,3.82,1.84,5.73,2.75.99.48,1.05.44,1.05-.69,0-6.2.03-12.41-.02-18.61-.01-1.38.51-2.19,1.74-2.78,7.36-3.53,14.71-7.08,22.02-10.7,1.38-.68,2.52-.7,3.9-.02,6.22,3.08,12.48,6.07,18.73,9.1,1.03.5,1.07.47,1.08-.65,0-1.54-.05-3.09.02-4.63.04-.94-.3-1.44-1.14-1.85-7.03-3.4-14.03-6.86-21.06-10.27-1.12-.54-1.67-1.34-1.66-2.57,0-.42,0-.84,0-1.25,0-7.91,0-15.81,0-23.72,0-1.15-.12-1.22-1.14-.73-1.83.88-3.63,1.79-5.48,2.63-.79.35-1.08.83-1.08,1.7.04,4.34.02,8.68.02,13.02ZM63.06,39.41c0-10.32-10.85-16.99-20.07-12.34-6.81,3.44-9.58,11.76-6.03,18.51,3.86,7.33,7.84,14.6,11.77,21.9.13.24.19.62.51.65.3.03.35-.33.47-.55,3.98-7.38,7.95-14.76,11.92-22.14,1.01-1.88,1.44-3.9,1.43-6.02ZM118.39,63.1c0-3.92-.02-7.84.01-11.76,0-.74-.23-1.17-.91-1.5-6-2.87-11.98-5.76-17.96-8.66-.72-.35-.87-.15-.87.57.01,7.87.02,15.74,0,23.61,0,.68.25,1.04.85,1.33,5.98,2.9,11.95,5.83,17.92,8.75.92.45.96.43.96-.59,0-3.92,0-7.84,0-11.76ZM82.73,58.82c0-3.76,0-7.52,0-11.27,0-.67-.1-.99-.86-.61-2.04,1.02-4.09,2.01-6.16,2.98-.58.27-.8.66-.78,1.29.03.96.03,1.93,0,2.89-.03,1.21-.84,2.05-1.96,2.07-1.15.02-2-.84-2.03-2.1-.02-.96-.03-1.93,0-2.89.02-.58-.17-.97-.71-1.23-1.45-.68-2.9-1.38-4.33-2.1-.56-.28-.86-.15-1.14.39-3.03,5.66-6.07,11.32-9.12,16.97-.26.49-.26.79.28,1.08,4.75,2.55,9.5,5.12,14.24,7.7.58.32.8.2.79-.48-.02-1.51-.02-3.02,0-4.53.02-1.32.78-2.14,1.95-2.16,1.22-.02,2.03.81,2.04,2.17.02,1.51,0,3.02,0,4.53,0,1,.09,1.06.95.66,1.95-.91,3.89-1.84,5.85-2.72.72-.32.99-.76.99-1.55-.03-3.69-.02-7.39-.02-11.08ZM27.51,100.24c0,3.34.01,6.68,0,10.02,0,.76.21.9.9.57,6.01-2.91,12.03-5.82,18.05-8.7.57-.27.79-.64.79-1.27-.02-6.33-.02-12.66,0-18.99,0-.74-.18-.89-.88-.59-5.98,2.6-11.96,5.18-17.96,7.74-.66.28-.91.67-.9,1.39.03,3.28.01,6.55.01,9.83ZM74.95,101.55c0,2.89.02,5.78-.01,8.67,0,.84.25.92.95.58,5.92-2.88,11.85-5.75,17.78-8.6.65-.31.88-.74.88-1.43-.01-5.72-.01-11.44,0-17.16,0-.81-.23-.94-.96-.59-5.89,2.88-11.78,5.74-17.68,8.58-.7.34-1,.74-.98,1.55.05,2.79.02,5.59.02,8.38ZM27.51,61.12c0,3.28,0,6.56,0,9.83,0,1.11.09,1.17,1.07.74,4.51-1.95,9.02-3.91,13.54-5.83.67-.28.8-.56.44-1.22-2.95-5.45-5.89-10.91-8.81-16.38-.31-.58-.63-.71-1.22-.41-1.37.7-2.76,1.37-4.17,2.01-.65.29-.89.71-.88,1.42.03,3.28.01,6.56.01,9.83ZM51.34,91.68c0,3.02.01,6.04-.01,9.06,0,.74.26,1.18.94,1.49,1.95.9,3.89,1.85,5.81,2.81.75.38.95.15.95-.62-.01-6.01-.02-12.02,0-18.02,0-.66-.24-1.06-.83-1.37-1.9-1.01-3.78-2.06-5.67-3.09-1.07-.58-1.19-.52-1.2.68,0,3.02,0,6.04,0,9.06Z"/>
        <path class="cls-2" d="M108,106.77c1.15,0,2.05.89,2.03,2-.02,1.13-.93,2.01-2.06,1.99-1.09-.02-1.95-.88-1.97-1.97-.02-1.13.86-2.02,2-2.02Z"/>
        <path class="cls-2" d="M49.3,31.1c4.64.06,8.32,3.8,8.27,8.39-.05,4.62-3.85,8.26-8.56,8.2-4.43-.06-8.17-3.93-8.1-8.39.07-4.54,3.87-8.26,8.39-8.2ZM49.25,43.57c2.41,0,4.19-1.8,4.17-4.21-.01-2.31-1.86-4.18-4.14-4.2-2.32-.01-4.23,1.88-4.24,4.21-.01,2.37,1.82,4.2,4.21,4.19Z"/>
        <path class="cls-2" d="M72.97,59.28c1.14,0,1.99.9,1.97,2.05-.02,1.09-.88,1.95-1.97,1.97-1.13.02-2.02-.87-2.02-2.01,0-1.15.87-2.01,2.01-2.01Z"/>
      </g>
    </g>
  </g>
</svg>