<?xml version="1.0" encoding="UTF-8"?>
<svg id="Layer_2" data-name="Layer 2" xmlns="http://www.w3.org/2000/svg" xmlns:xlink="http://www.w3.org/1999/xlink" viewBox="0 0 155 155">
  <defs>
    <style>
      .cls-1 {
        stroke: #0067fc;
        stroke-miterlimit: 10;
        stroke-width: 5px;
      }

      .cls-1, .cls-2 {
        fill: none;
      }

      .cls-2, .cls-3 {
        stroke-width: 0px;
      }

      .cls-3 {
        fill: #0067fc;
      }

      .cls-4 {
        clip-path: url(#clippath);
      }
    </style>
    <clipPath id="clippath">
      <circle class="cls-2" cx="77.5" cy="77.5" r="75"/>
    </clipPath>
  </defs>
  <g id="Layer_1-2" data-name="Layer 1">
    <g>
      <g class="cls-4">
        <g>
          <path class="cls-3" d="M97.05,31.07c2.79,1.17,5.27,2.66,6.71,5.51,2.12,4.18,1.35,9.05-2.06,12.37-.66.64-1.38,1.22-2.24,1.97,1.64.8,3.13,1.48,4.58,2.24,2.41,1.26,4.4,3.04,6.07,5.17.82,1.05,1.33,2.22,0,3.21-1.28.95-2.29.26-3.16-.79-2.66-3.24-5.97-5.43-10.15-6.16-5.67-1-10.18,1.28-14.07,5.1-2.47,2.42-5.7,2.5-8.1.03-7.36-7.59-17.6-7.09-24.34,1.18-.46.56-.84,1.2-1.58,1.43-.85.27-1.58.03-2.13-.65-.65-.8-.45-1.63.05-2.41,1.98-3.07,4.77-5.2,7.99-6.81,1.02-.51,2.08-.94,3.33-1.51-2.39-1.66-4.19-3.56-5.03-6.22-1.61-5.06.66-10.45,5.43-12.79.58-.29,1.17-.56,1.75-.85,1.88,0,3.77,0,5.65,0,.65.32,1.3.63,1.94.96,4.54,2.31,6.76,7.65,5.28,12.52-.83,2.74-2.67,4.69-5.21,6.48,4.18,1.51,7.68,3.47,10.35,6.66.57.68,1.02.1,1.42-.32,1.1-1.15,2.24-2.25,3.54-3.19,1.86-1.36,4.01-2.18,6.29-3.25-.79-.65-1.35-1.08-1.88-1.55-2.31-2.1-3.63-4.67-3.59-7.84.07-5.43,3.06-8.67,7.93-10.46h5.21ZM62.87,47.98c3.67.02,6.63-2.8,6.65-6.34.03-3.74-2.81-6.6-6.58-6.64-3.69-.04-6.53,2.69-6.62,6.34-.09,3.75,2.74,6.62,6.54,6.64ZM94.34,35.01c-3.74.02-6.41,2.69-6.43,6.42-.02,3.83,2.71,6.59,6.52,6.56,3.72-.03,6.43-2.73,6.45-6.43.03-3.81-2.73-6.57-6.54-6.55Z"/>
          <path class="cls-3" d="M97.49,115.8c-1.76-2.43-1.02-5.31-1.32-7.97-.94-8.5-6.08-15.23-13.75-17.46-9.18-2.67-19.26,2.76-22.3,12.01-1.11,3.39-1.46,6.91-1.6,10.45-.04,1.12-.13,2.16-1.01,2.97h-2.17c-1.61-2.77-.68-5.72-.29-8.49,1.59-11.2,5.72-16.06,17.67-21.21-4.4-2.45-6.95-6.03-6.91-10.98.03-3.39,1.47-6.27,4.04-8.58,4.64-4.17,12.15-3.82,16.24.82,5.28,5.99,4.07,12.41-3.66,18.86,3.4,1.21,6.62,2.63,9.39,4.91,5.4,4.43,7.6,10.39,8.35,17.08.17,1.51.25,3.03.35,4.54.08,1.23-.29,2.28-1.29,3.06h-1.74ZM77.54,67.58c-4.42-.02-7.77,3.25-7.79,7.61-.02,4.44,3.35,7.84,7.82,7.89,4.24.05,7.69-3.45,7.67-7.78-.03-4.39-3.33-7.7-7.69-7.72Z"/>
          <path class="cls-3" d="M21.44,108.41c.37-1.77.68-3.54,1.12-5.29,1.98-7.93,7.04-13.1,14.52-16.05.66-.26,1.34-.48,2.41-.87-4.84-2.85-7.37-6.72-6.9-12.2.28-3.22,1.82-5.75,4.22-7.8,4.94-4.22,12.45-3.39,16.64,1.8,4.52,5.61,2.98,12.53-4.23,18.18,1.53.63,2.97,1.16,4.36,1.82.84.4,1.67.89,2.37,1.49.72.61.93,1.48.37,2.34-.54.83-1.32,1.12-2.25.75-.6-.24-1.17-.56-1.75-.86-9.62-4.9-21.47-.22-25.18,9.96-1.25,3.44-1.75,7-1.75,10.65,0,1.34-.13,2.62-1.34,3.48-2.23.49-2.97-.36-2.65-2.61.22-1.56.04-3.18.04-4.77ZM44.29,67.58c-4.45-.01-7.89,3.36-7.89,7.75,0,4.1,3.65,7.73,7.8,7.75,4.26.02,7.91-3.62,7.89-7.87-.02-4.26-3.45-7.61-7.8-7.63Z"/>
          <path class="cls-3" d="M130.95,115.8c-1.13-.81-1.36-1.98-1.34-3.26.03-2.91-.34-5.77-1.02-8.6-2.79-11.7-16.48-18.12-26.66-11.85-1.21.74-2.49,1.17-3.33-.43-.77-1.48.31-2.25,1.4-2.94,1.72-1.07,3.67-1.66,5.87-2.56-4.36-2.86-7.07-6.47-6.7-11.69.22-3.17,1.58-5.87,4.01-7.92,5.08-4.29,12.63-3.57,16.66,1.53,4.55,5.75,3.08,12.57-3.89,17.9.17.74.88.66,1.36.83,9.26,3.38,14.4,10.05,15.85,19.71.1.64.26,1.27.39,1.9,0,1.59-.18,3.21.04,4.77.32,2.25-.42,3.1-2.65,2.61ZM110.84,67.58c-4.45-.03-7.92,3.33-7.96,7.7-.03,4.1,3.57,7.74,7.75,7.81,4.23.07,8.02-3.64,7.97-7.81-.06-4.32-3.43-7.67-7.76-7.71Z"/>
        </g>
      </g>
      <circle class="cls-1" cx="77.5" cy="77.5" r="75"/>
    </g>
  </g>
</svg>