<?xml version="1.0" encoding="UTF-8"?>
<svg id="Layer_2" data-name="Layer 2" xmlns="http://www.w3.org/2000/svg" viewBox="0 0 155 155">
  <defs>
    <style>
      .cls-1 {
        fill: none;
        stroke: #0067fc;
        stroke-miterlimit: 10;
        stroke-width: 5px;
      }

      .cls-2 {
        fill: #0067fc;
        stroke-width: 0px;
      }
    </style>
  </defs>
  <g id="Layer_1-2" data-name="Layer 1">
    <g>
      <circle class="cls-1" cx="77.5" cy="77.5" r="75"/>
      <g>
        <path class="cls-2" d="M114.09,62.04c-.15,10.35-4.36,19.68-9.16,28.77-6.97,13.19-15.76,25.16-25.22,36.65-2.17,2.64-2.29,2.67-4.43.01-12.33-15.26-23.88-31.01-31.06-49.5-4.91-12.64-4.73-24.9,3.09-36.45,8.46-12.49,23.95-18.49,38.58-15.01,14.71,3.49,25.89,15.71,27.94,30.59.21,1.55.17,3.13.26,4.94ZM77.5,36.55c-14.41.02-25.63,11.23-25.63,25.61,0,14.28,11.37,25.67,25.64,25.69,14.22.02,25.65-11.44,25.64-25.7,0-14.36-11.3-25.62-25.65-25.6Z"/>
        <polyline class="cls-1" points="59.67 61.83 71.13 73.29 95.33 49.1"/>
      </g>
    </g>
  </g>
</svg>