<?xml version="1.0" encoding="UTF-8"?>
<svg id="Layer_2" data-name="Layer 2" xmlns="http://www.w3.org/2000/svg" viewBox="0 0 155 155">
  <defs>
    <style>
      .cls-1 {
        fill: none;
        stroke: #0067fc;
        stroke-miterlimit: 10;
        stroke-width: 5px;
      }

      .cls-2 {
        fill: #0067fc;
        stroke-width: 0px;
      }
    </style>
  </defs>
  <g id="Layer_1-2" data-name="Layer 1">
    <g>
      <circle class="cls-1" cx="77.5" cy="77.5" r="75"/>
      <g>
        <g>
          <path class="cls-2" d="M117.16,40.37c-.52-1.89-2.28-3-4.69-3h-47.65c-6.09,0-12.18,0-18.27.02-.13,0-.26,0-.36-.02h-13.26c-2.8.2-4.37,1.72-4.37,4.23,0,22.15,0,44.3,0,66.45,0,2.68,1.86,4.23,5.05,4.23h65.47c-.61-.61-1.17-1.26-1.7-1.96h-63.51c-2.28,0-3-.62-3-2.56,0-19.84,0-39.68-.03-59.52,0-.83.2-1.09,1.25-1.09,13.62.04,27.24.03,40.87.03s27.24,0,40.86-.03c.93,0,1.15.2,1.15.98-.02,10.33-.02,20.67-.02,31v1.95c.78.12,1.55.29,2.29.52,0-.67,0-1.34,0-2.01.02-12.61.02-25.2,0-37.81,0-.47.04-.96-.09-1.41ZM114.3,45.35c-.28-.02-.56,0-.85,0h-40.55c-13.59,0-27.18,0-40.76.02-.99,0-1.38-.18-1.29-1.06.1-.92.02-1.84.02-2.76,0-1.53.83-2.22,2.63-2.22h79c1.65,0,2.44.66,2.45,2.06.02,1.13,0,2.26,0,3.38,0,.42-.15.61-.66.58Z"/>
          <path class="cls-2" d="M66.23,104.07c-.23-.04-.47-.04-.71-.04-9.17,0-18.33,0-27.5,0-.27,0-.54,0-.8.05-.47.09-.71.42-.74.88-.03.46.18.79.62.98.32.13.64.09.97.09,4.57,0,9.14,0,13.7,0s9.08,0,13.61,0c.32,0,.66,0,.96-.09.49-.14.7-.52.65-1.03-.05-.47-.32-.76-.78-.84Z"/>
          <path class="cls-2" d="M38.2,56.66c1.45,0,2.9,0,4.35,0,.34,0,.61-.18.61-.99,0-.81-.28-.99-.61-.99-2.9,0-5.81,0-8.71,0-.33,0-.6.16-.63.96-.03.67.2,1.02.64,1.02,1.45,0,2.9,0,4.35,0Z"/>
          <path class="cls-2" d="M37.23,98.99c.26.06.53.07.79.07,5.04,0,10.07,0,15.11,0,.26,0,.54-.02.79-.08.46-.11.71-.45.72-.9.01-.49-.25-.86-.74-.97-.26-.06-.53-.06-.79-.06-2.52,0-5.04,0-7.56,0-2.49,0-4.98,0-7.47,0-.27,0-.54,0-.8.04-.5.1-.78.42-.8.93-.01.5.23.86.74.97Z"/>
          <path class="cls-2" d="M33.84,53.03c.79,0,1.58,0,2.36,0s1.6,0,2.41,0c.43,0,.67-.39.64-1.04-.04-.8-.3-.95-.63-.95-1.59.01-3.18.01-4.77,0-.33,0-.6.12-.64.94-.03.67.2,1.04.63,1.05Z"/>
          <path class="cls-2" d="M99.73,43.67c.76.02,1.44-.62,1.44-1.37,0-.72-.61-1.35-1.35-1.37-.77-.03-1.44.61-1.44,1.37,0,.72.62,1.35,1.35,1.38Z"/>
          <path class="cls-2" d="M105.57,43.66c.73-.02,1.34-.65,1.33-1.38-.01-.78-.66-1.38-1.44-1.36-.74.03-1.33.65-1.33,1.38,0,.78.65,1.38,1.44,1.35Z"/>
          <path class="cls-2" d="M111.26,43.67c.76,0,1.33-.57,1.34-1.34.02-.79-.59-1.41-1.37-1.4-.75,0-1.33.59-1.35,1.34-.02.8.57,1.41,1.37,1.4Z"/>
          <rect class="cls-2" x="33.54" y="58.3" width="24.05" height="13.28"/>
          <rect class="cls-2" x="60.75" y="58.3" width="24.05" height="13.28"/>
          <rect class="cls-2" x="87.95" y="58.3" width="24.05" height="13.28"/>
          <rect class="cls-2" x="33.7" y="74.83" width="24.05" height="13.28"/>
          <rect class="cls-2" x="60.91" y="74.83" width="24.05" height="13.28"/>
        </g>
        <g>
          <path class="cls-2" d="M123.88,108.2c0-.08,0-.15-.01-.23-.56-4.18-2.84-7.09-6.61-8.89-.35-.17-.6-.14-.92.09-2.68,1.95-5.77,1.95-8.46,0-.32-.23-.57-.27-.93-.09-3.82,1.9-6.2,4.84-6.6,9.19-.07.75-.07.77.69.77,3.68,0,7.36,0,11.04,0,3.66,0,7.32,0,10.98,0,.85,0,.87-.01.83-.84Z"/>
          <path class="cls-2" d="M114.57,99.15c3.34-1.56,5.2-5.86,4.04-9.37-1.05-3.21-4.23-5.03-7.77-4.47-3.28.52-5.6,3.29-5.6,6.99.09,2.07.93,4.11,2.69,5.73,1.85,1.7,4.48,2.13,6.63,1.13Z"/>
        </g>
        <path class="cls-2" d="M117.24,79.6c-.75-.2-1.5-.35-2.29-.45-.93-.13-1.89-.2-2.86-.2-11.23,0-20.34,9.11-20.34,20.34,0,4.07,1.2,7.87,3.27,11.06.44.69.92,1.33,1.43,1.96,3.73,4.47,9.35,7.33,15.63,7.33,11.24,0,20.35-9.11,20.35-20.35,0-9.45-6.46-17.4-15.2-19.68ZM112.1,117.68c-5.08,0-9.68-2.06-13.02-5.39-.61-.61-1.17-1.26-1.7-1.96-2.31-3.08-3.69-6.91-3.69-11.06,0-10.17,8.25-18.41,18.41-18.41.97,0,1.92.07,2.86.22.78.12,1.55.29,2.29.52,7.67,2.22,13.27,9.29,13.27,17.67,0,10.17-8.25,18.41-18.42,18.41Z"/>
      </g>
    </g>
  </g>
</svg>