<?xml version="1.0" encoding="UTF-8"?>
<svg id="Layer_2" data-name="Layer 2" xmlns="http://www.w3.org/2000/svg" xmlns:xlink="http://www.w3.org/1999/xlink" viewBox="0 0 155 155">
  <defs>
    <style>
      .cls-1 {
        stroke: #0067fc;
        stroke-miterlimit: 10;
        stroke-width: 5px;
      }

      .cls-1, .cls-2 {
        fill: none;
      }

      .cls-2, .cls-3 {
        stroke-width: 0px;
      }

      .cls-3 {
        fill: #0067fc;
      }

      .cls-4 {
        clip-path: url(#clippath);
      }
    </style>
    <clipPath id="clippath">
      <circle class="cls-2" cx="77.5" cy="77.5" r="75"/>
    </clipPath>
  </defs>
  <g id="Layer_1-2" data-name="Layer 1">
    <g>
      <circle class="cls-1" cx="77.5" cy="77.5" r="75"/>
      <g class="cls-4">
        <g>
          <path class="cls-3" d="M119.73,126.9H35.27c-2.88-1.12-4.12-2.76-4.12-5.5,0-29.24,0-58.49,0-87.73,0-3.32,2.25-5.57,5.57-5.57,27.19,0,54.37,0,81.56,0,.48,0,.97.02,1.43.13,2.59.63,4.14,2.71,4.14,5.53,0,29.02,0,58.04,0,87.06,0,3.33-1.05,4.87-4.12,6.08ZM77.46,123.93c13.18,0,26.35,0,39.53,0,.39,0,.77.01,1.16,0,1.68-.09,2.58-1,2.66-2.69.02-.35,0-.71,0-1.06,0-24.42,0-48.84,0-73.27q0-1.7-1.66-1.7c-17.93,0-35.86,0-53.79,0-.45,0-.91.03-1.35-.04-.82-.14-1.35-.66-1.36-1.5,0-.79.44-1.35,1.24-1.5.5-.1,1.02-.11,1.53-.11,7.94,0,15.87,0,23.81,0,10.09,0,20.18,0,30.27,0,1.25,0,1.31-.06,1.31-1.31,0-2.15,0-4.31,0-6.46,0-2.21-.9-3.13-3.09-3.13-26.83,0-53.66,0-80.5,0-2.09,0-3.02.93-3.03,3-.01,2.15,0,4.31,0,6.46,0,1.43.01,1.44,1.46,1.44,6.97,0,13.95,0,20.92,0,1.6,0,2.38.57,2.34,1.65-.03,1.03-.78,1.51-2.36,1.51-6.97,0-13.95,0-20.92,0q-1.44,0-1.45,1.44c0,24.61,0,49.23,0,73.84,0,2.65.8,3.44,3.46,3.44,13.27,0,26.54,0,39.81,0Z"/>
          <path class="cls-3" d="M76.54,116.73c-7,0-14,0-21.01,0-2.94,0-4.29-1.35-4.3-4.31,0-.61,0-1.22,0-1.83.01-3.02,1.34-4.37,4.34-4.37,9.54,0,19.08,0,28.62,0,4.43,0,8.87,0,13.3,0,3.05,0,4.36,1.3,4.36,4.32,0,.67,0,1.35,0,2.02,0,2.82-1.36,4.17-4.21,4.17-3.44,0-6.87,0-10.31,0-3.6,0-7.19,0-10.79,0ZM76.64,109.4c-6.58,0-13.17,0-19.75,0-2.78,0-2.45-.29-2.47,2.48,0,1.67,0,1.68,1.73,1.68,13.3,0,26.59,0,39.89,0,2.99,0,2.65.41,2.67-2.66,0-1.45-.03-1.48-1.54-1.48-6.84,0-13.68,0-20.52,0Z"/>
          <path class="cls-3" d="M77.25,102.09c-7.03,0-14.07-.06-21.1.03-2.34.03-4.43-1.37-4.19-4.19.07-.86,0-1.73.01-2.6.02-2.13,1.25-3.49,3.37-3.72.35-.04.71-.03,1.06-.03,13.91,0,27.81,0,41.72,0,.61,0,1.22,0,1.81.18,1.37.43,2.26,1.33,2.51,2.76.24,1.37.19,2.76.07,4.13-.2,2.18-1.58,3.42-3.77,3.43-4.56.02-9.12,0-13.68,0-2.6,0-5.2,0-7.8,0ZM77.31,98.92c6.52,0,13.04,0,19.56,0,2.89,0,2.52.26,2.54-2.51.01-1.65,0-1.65-1.65-1.65-13.4,0-26.79,0-40.19,0-2.86,0-2.54-.31-2.56,2.6,0,1.52.04,1.56,1.58,1.56,6.91,0,13.81,0,20.72,0Z"/>
          <path class="cls-3" d="M83.2,35.05c4.21,0,8.41,0,12.62,0,.35,0,.71-.02,1.06.04.83.13,1.36.63,1.4,1.47.04.85-.44,1.39-1.27,1.57-.34.07-.7.09-1.05.09-8.54,0-17.08,0-25.62,0-.38,0-.77-.03-1.14-.12-.74-.18-1.16-.69-1.17-1.45,0-.81.45-1.33,1.22-1.52.37-.09.76-.07,1.15-.07,4.27,0,8.54,0,12.81,0Z"/>
          <path class="cls-3" d="M58.16,36.18c.02.84-.63,1.53-1.48,1.57-.85.04-1.56-.59-1.6-1.43-.05-.87.64-1.61,1.52-1.63.83-.02,1.54.66,1.56,1.49Z"/>
          <path class="cls-3" d="M44.19,36.2c0,.83-.69,1.49-1.54,1.5-.86,0-1.55-.63-1.58-1.47-.02-.85.71-1.57,1.6-1.56.84.01,1.53.7,1.52,1.53Z"/>
          <path class="cls-3" d="M51.15,36.17c.01.87-.62,1.52-1.5,1.53-.9,0-1.53-.61-1.54-1.48,0-.88.63-1.53,1.5-1.54.87-.01,1.53.63,1.54,1.5Z"/>
          <g>
            <path class="cls-3" d="M94.53,68.39c0,2.94-.53,5.26-1.55,7.46-.97,2.1-2.3,3.93-4,5.49-2.54,2.34-5.52,3.78-8.93,4.33-.88.14-1.77.22-2.67.21-3.09,0-5.99-.73-8.66-2.31-3.08-1.82-5.41-4.35-6.93-7.59-.28-.6-.51-1.22-.69-1.85-.06-.21-.05-.23.18-.23.39,0,.77-.03,1.16,0,.41.02.66.22.81.56.25.54.5,1.07.79,1.59.85,1.5,1.9,2.83,3.19,3.97,1.34,1.19,2.83,2.16,4.5,2.83,1.31.53,2.66.85,4.06.98,2.33.22,4.58-.09,6.77-.89,1.82-.67,3.47-1.63,4.93-2.92,1.47-1.29,2.64-2.81,3.49-4.56.74-1.53,1.19-3.14,1.4-4.82.13-1,.17-2,.1-3-.12-1.69-.5-3.31-1.16-4.87-.8-1.88-1.93-3.54-3.41-4.96-2.33-2.23-5.08-3.61-8.27-4.13-2.64-.43-5.22-.14-7.71.83-2.16.84-4.03,2.11-5.62,3.79-1.18,1.25-2.11,2.66-2.83,4.22-.08.18-.17.36-.28.52-.26.39-.63.56-1.1.51-.28-.03-.56-.04-.85-.03-.2,0-.21-.02-.16-.21.36-1.31.93-2.53,1.66-3.68,1.52-2.42,3.52-4.34,5.99-5.78,1.94-1.13,4.03-1.83,6.25-2.14.78-.11,1.56-.17,2.34-.16,4.09,0,7.74,1.27,10.88,3.9,2.92,2.43,4.82,5.52,5.76,9.19.36,1.4.54,2.83.53,3.77Z"/>
            <path class="cls-3" d="M77.37,77.77c-1.93,0-3.87,0-5.8,0-.48,0-.95-.07-1.39-.25-.89-.38-1.35-1.08-1.49-2.01-.11-.72-.12-1.45.02-2.17.13-.73.54-1.22,1.27-1.47,1.5-.5,3-1.01,4.51-1.48.34-.1.66-.12,1-.04.58.14,1.16.27,1.76.28.7.01,1.38-.07,2.04-.29.34-.12.68-.11,1.01,0,1.41.45,2.82.92,4.22,1.42.84.3,1.42.85,1.51,1.77.07.75.11,1.51-.07,2.26-.27,1.1-1.1,1.81-2.23,1.94-.51.06-1.02.03-1.53.03-1.61,0-3.22,0-4.82,0h0Z"/>
            <path class="cls-3" d="M77.47,69.53c-2.87-.02-5.05-2.17-5.03-4.99.01-2.75,2.22-4.92,4.99-4.89,2.63.04,4.84,2.12,4.84,4.91,0,3.25-2.75,5.01-4.8,4.96Z"/>
            <path class="cls-3" d="M61.42,69.48c-2.05,0-4.09,0-6.14,0q-.26,0-.26-.26c0-.49,0-.99,0-1.48,0-.2.06-.23.24-.23,1.52,0,3.04,0,4.57,0,2.36,0,4.72,0,7.08,0,.05,0,.1,0,.15,0,.07,0,.16.02.19-.07.04-.09-.04-.14-.09-.19-.6-.61-1.21-1.21-1.81-1.82-.14-.14-.29-.29-.4-.46-.26-.41-.22-.89.12-1.22.34-.34.86-.38,1.25-.11.08.05.15.11.21.18,1.11,1.11,2.22,2.21,3.32,3.32.44.44.84.92,1.26,1.37.09.09.09.16,0,.26-1.31,1.39-2.59,2.8-3.92,4.17-.2.21-.41.41-.62.61-.2.19-.42.33-.69.36-.42.06-.75-.12-.97-.47-.21-.33-.17-.67.03-.99.12-.18.26-.34.42-.49.8-.75,1.55-1.55,2.32-2.33.04-.04.11-.07.08-.13-.03-.05-.1-.03-.15-.03-2.06,0-4.13,0-6.19,0Z"/>
          </g>
        </g>
      </g>
    </g>
  </g>
</svg>