<svg xmlns="http://www.w3.org/2000/svg" viewBox="0 0 20 20"><defs><style>.cls-1,.cls-2,.cls-3,.cls-4{fill:#0067fc;}.cls-2{opacity:0.2;}.cls-3{opacity:0.5;}.cls-4{opacity:0.8;}</style></defs><g id="Layer_2" data-name="Layer 2"><g id="Layer_1-2" data-name="Layer 1"><path class="cls-1" d="M14.53,0,16.1,3.16,12.74,4.22,13.25,3a7.63,7.63,0,0,0-8.1,1.22L3.9,2.8A9.41,9.41,0,0,1,8.72.57,9.57,9.57,0,0,1,14,1.25Z"/><path class="cls-2" d="M16.84,16.08l-1.06-3.36,1.2.51a7.66,7.66,0,0,0-1.22-8.09l1.43-1.25A9.54,9.54,0,0,1,18.75,14l1.25.54Z"/><path class="cls-3" d="M6,18.75,5.46,20,3.9,16.84l3.36-1.06L6.75,17a7.6,7.6,0,0,0,8.09-1.22L16.1,17.2a9.4,9.4,0,0,1-4.83,2.23A9.55,9.55,0,0,1,6,18.75Z"/><path class="cls-4" d="M0,5.45,3.16,3.88,4.22,7.24,3,6.73a7.62,7.62,0,0,0,1.22,8.1L2.8,16.09A9.62,9.62,0,0,1,1.25,6Z"/></g></g></svg>