<svg xmlns="http://www.w3.org/2000/svg" xmlns:xlink="http://www.w3.org/1999/xlink" viewBox="0 0 20 20"><defs><style>.cls-1{fill:none;}.cls-2{clip-path:url(#clip-path);}.cls-3{fill:#0067fc;}</style><clipPath id="clip-path" transform="translate(0 0)"><rect class="cls-1" width="20" height="20"/></clipPath></defs><g id="Layer_2" data-name="Layer 2"><g id="Layer_1-2" data-name="Layer 1"><g class="cls-2"><path class="cls-3" d="M11,13.51a7.35,7.35,0,0,1,2.06-.58c.35-.06.72-.08,1.08-.13l.17,0A2.7,2.7,0,0,1,13,11.63a3.77,3.77,0,0,1-.28-3.58,1.52,1.52,0,0,0,.14-.63V0H0V18.7H9.56v-.21c0-.88,0-1.76,0-2.63A2.34,2.34,0,0,1,11,13.51Zm-3.6,3H1.92a1,1,0,0,1-.24,0,.3.3,0,0,1-.25-.34.31.31,0,0,1,.31-.3h5.7a.35.35,0,0,1,.37.32A.35.35,0,0,1,7.44,16.56Zm.1-2a.82.82,0,0,1-.22,0H1.92a.78.78,0,0,1-.22,0,.32.32,0,0,1-.27-.33.32.32,0,0,1,.29-.31h5.8a.32.32,0,0,1,.29.31A.33.33,0,0,1,7.54,14.58ZM1.66,12l.23,0H7.34a.75.75,0,0,1,.21,0,.32.32,0,0,1,.26.33.31.31,0,0,1-.29.31H1.7a.33.33,0,0,1,0-.63ZM8.51,4.38c-.43,0-.85,0-1.27,0a1.4,1.4,0,0,0-1,.67c-.25.36-.48.73-.71,1.1a.2.2,0,0,0,0,.17c.26.4.52.81.8,1.2a1.39,1.39,0,0,0,1.23.59h1l0-.06c-.17-.16-.34-.3-.5-.46s-.2-.36-.05-.51.34-.14.52,0c.35.35.7.69,1,1a.35.35,0,0,1,0,.56l-1,1c-.18.17-.37.19-.52,0s-.13-.34.05-.52l.44-.44,0,0-.15,0H7.51a2.08,2.08,0,0,1-1.77-.85c-.21-.27-.39-.57-.58-.86L5,6.86c-.15.23-.28.45-.42.65a5.3,5.3,0,0,1-.51.64,1.87,1.87,0,0,1-1.42.62H1.83c-.25,0-.4-.12-.4-.33s.14-.33.4-.33h.74a1.36,1.36,0,0,0,1.16-.54c.3-.4.57-.84.84-1.26a.14.14,0,0,0,0-.14c-.3-.44-.58-.9-.9-1.32a1.27,1.27,0,0,0-1.07-.48h-.8A.34.34,0,0,1,1.43,4a.33.33,0,0,1,.37-.33A8.8,8.8,0,0,1,3,3.73a2.07,2.07,0,0,1,1.46.95c.21.3.4.61.61.93.16-.24.29-.47.45-.68a5.79,5.79,0,0,1,.59-.72A1.87,1.87,0,0,1,7.4,3.7H8.54l-.1-.13L8,3.11a.33.33,0,0,1,.46-.47c.4.39.8.79,1.19,1.19a.31.31,0,0,1,0,.44c-.37.38-.75.76-1.13,1.13A.31.31,0,0,1,8,5.4a.32.32,0,0,1,0-.47c.17-.18.35-.34.52-.51Z" transform="translate(0 0)"/><path class="cls-3" d="M18.62,14a2.06,2.06,0,0,0-.35-.12,11.63,11.63,0,0,0-5.56-.19,4.63,4.63,0,0,0-1.76.65,1.53,1.53,0,0,0-.72,1.37c0,1.36,0,2.72,0,4.08V20h1.7V16.85a1,1,0,0,1,0-.24.29.29,0,0,1,.31-.25.28.28,0,0,1,.32.25.93.93,0,0,1,0,.23V20h5v-.23c0-1,0-2,0-2.94a.86.86,0,0,1,0-.23.29.29,0,0,1,.34-.23.3.3,0,0,1,.3.28,1.47,1.47,0,0,1,0,.21V20H20V15.35A2,2,0,0,0,18.62,14Z" transform="translate(0 0)"/><path class="cls-3" d="M16.57,11.38a3.37,3.37,0,0,0,.56-1.94c0-.07,0-.2,0-.33a1.77,1.77,0,0,0-1.43-1.67,3.64,3.64,0,0,0-.81-.05,1.71,1.71,0,0,0-1.68,1.35,3.2,3.2,0,0,0,.51,2.7A1.65,1.65,0,0,0,16.57,11.38Z" transform="translate(0 0)"/></g></g></g></svg>