<svg xmlns="http://www.w3.org/2000/svg" viewBox="0 0 20 20"><defs><style>.cls-1,.cls-2,.cls-3,.cls-4{fill:#0067fc;}.cls-2{opacity:0.2;}.cls-3{opacity:0.5;}.cls-4{opacity:0.8;}</style></defs><g id="Layer_2" data-name="Layer 2"><g id="Layer_1-2" data-name="Layer 1"><path class="cls-1" d="M14.53,0,16.1,3.16,12.74,4.22,13.25,3a7.63,7.63,0,0,0-8.1,1.22L3.9,2.8A9.41,9.41,0,0,1,8.72.57,9.57,9.57,0,0,1,14,1.25Z"/><path class="cls-2" d="M16.84,16.08l-1.06-3.36,1.2.51a7.66,7.66,0,0,0-1.22-8.09l1.43-1.25A9.54,9.54,0,0,1,18.75,14l1.25.54Z"/><path class="cls-3" d="M6,18.75,5.46,20,3.9,16.84l3.36-1.06L6.75,17a7.6,7.6,0,0,0,8.09-1.22L16.1,17.2a9.4,9.4,0,0,1-4.83,2.23A9.55,9.55,0,0,1,6,18.75Z"/><path class="cls-4" d="M0,5.45,3.16,3.88,4.22,7.24,3,6.73a7.62,7.62,0,0,0,1.22,8.1L2.8,16.09A9.62,9.62,0,0,1,1.25,6Z"/><path class="cls-1" d="M11,11.82a1.75,1.75,0,0,0-.4,0c-.17,0-.41.08-.46.19s0,.38.25.54a1.35,1.35,0,0,1,.51.67.9.9,0,0,1-.68,1.13,1,1,0,0,1-1.12-.52,1,1,0,0,1,.4-1.28c.05,0,.14,0,.16-.08A1,1,0,0,0,9.83,12c0-.07-.2-.18-.31-.19a10.46,10.46,0,0,0-1.12,0,.83.83,0,0,0-.38.1c-.35.2-.35.41,0,.64A1,1,0,0,1,8.1,14.2.93.93,0,0,1,6.76,14,1,1,0,0,1,7,12.64c.24-.2.42-.47.67-.65a2.33,2.33,0,0,1,.85-.42,5.71,5.71,0,0,1,.93,0c.15,0,.41-.06.42-.13a2.59,2.59,0,0,0-.07-.67c0-.06-.14-.09-.16-.15-.16-.56-.43-.76-1-.43-.25.15-.71-.42-.56-.7.24-.48.1-.71-.38-.87-.11,0-.2-.32-.2-.47s.13-.41.25-.45c.46-.16.53-.39.34-.82a.7.7,0,0,1,.17-.53A.58.58,0,0,1,8.7,6.2c.39.14.64.12.82-.31a.67.67,0,0,1,.5-.3.63.63,0,0,1,.45.32c.21.44.3.47.79.32a.58.58,0,0,1,.52.13.57.57,0,0,1,.14.52c-.16.41-.1.63.32.81a.67.67,0,0,1,.28.5.58.58,0,0,1-.29.47c-.46.15-.45.41-.31.79a.58.58,0,0,1-.12.5c-.1.12-.36.25-.47.2-.5-.24-.78-.11-.93.42-.06.21-.21.4-.26.61s.06.38.34.37.66,0,1,0a1.09,1.09,0,0,1,1,.61,1.32,1.32,0,0,0,.4.38,1,1,0,0,1,.53,1.08,1.06,1.06,0,0,1-.93.79,1.07,1.07,0,0,1-1-.73A1,1,0,0,1,12,12.57c.11-.08.29-.24.26-.29a.62.62,0,0,0-.34-.37,4.15,4.15,0,0,0-.87-.12ZM9.17,9.7c.17.17.35.37.54.55s.19.2.29.21a.47.47,0,0,0,.29-.2c.28-.5.45-.58,1-.42a.4.4,0,0,0,.34-.06.42.42,0,0,0,0-.35.69.69,0,0,1,.39-1c.11-.06.25-.19.26-.29s-.15-.23-.26-.29a.7.7,0,0,1-.4-1,.48.48,0,0,0-.05-.35c0-.06-.21-.08-.3-.06-.65.15-.72.12-1.07-.45A.42.42,0,0,0,10,5.86.38.38,0,0,0,9.71,6c-.31.55-.44.61-1,.46a.43.43,0,0,0-.34.07.36.36,0,0,0,0,.31c.17.57.09.75-.42,1a.45.45,0,0,0-.22.27c0,.08.1.21.19.26.57.34.61.43.44,1.05a.43.43,0,0,0,.08.35c0,.06.21.05.31,0A3.28,3.28,0,0,0,9.17,9.7Zm1.57,3.73a.72.72,0,0,0-.74-.72.71.71,0,0,0-.75.7.74.74,0,0,0,.74.73A.73.73,0,0,0,10.74,13.43Zm-2.49,0a.66.66,0,0,0-.74-.7.66.66,0,0,0-.69.7.69.69,0,0,0,.72.73A.68.68,0,0,0,8.25,13.41Zm4.22-.7a.66.66,0,0,0-.73.7.72.72,0,0,0,1.43,0A.67.67,0,0,0,12.47,12.71Z"/><path class="cls-1" d="M8.87,8.16a1.13,1.13,0,1,1,2.25,0,1.13,1.13,0,1,1-2.25,0ZM10,9.05a.91.91,0,0,0,.92-.89.92.92,0,1,0-.92.89Z"/></g></g></svg>