<svg xmlns="http://www.w3.org/2000/svg" xmlns:xlink="http://www.w3.org/1999/xlink" viewBox="0 0 14.61 19.69"><defs><style>.cls-1{fill:none;}.cls-2{clip-path:url(#clip-path);}.cls-3{fill:#0067fc;}</style><clipPath id="clip-path" transform="translate(-2.69 -0.16)"><rect class="cls-1" width="20" height="20"/></clipPath></defs><g id="Layer_2" data-name="Layer 2"><g id="Layer_1-2" data-name="Layer 1"><g class="cls-2"><path class="cls-3" d="M17.31,9.35c0-2.53,0-5.06,0-7.58A1.44,1.44,0,0,0,15.71.16c-3.09,0-6.17,0-9.26,0a1,1,0,0,0-.8.33c-.85.87-1.72,1.74-2.59,2.59a1.09,1.09,0,0,0-.37.86c0,1.81.05,3.63.06,5.44,0,.84,0,1.67,0,2.51,0,2.11,0,4.21,0,6.32a1.46,1.46,0,0,0,1.64,1.63H15.73a1.36,1.36,0,0,0,1.35-.7,2.11,2.11,0,0,0,.21-.93C17.31,15.26,17.31,12.3,17.31,9.35ZM3.63,3.83c-.18,0-.37,0-.33-.25s.22-.23.34-.24c.53,0,1.07,0,1.6,0s.64-.1.64-.65V1.11c0-.2,0-.39.27-.36a.46.46,0,0,1,.22.35c0,.59,0,1.18,0,1.78a.91.91,0,0,1-1,1H3.63ZM8.41,15h-3a.46.46,0,1,1,0-.91h3a.46.46,0,0,1,0,.91ZM11,12.3a.46.46,0,0,1-.45.46H5.41A.46.46,0,0,1,5,12.3H5a.45.45,0,0,1,.46-.45h5.15a.45.45,0,0,1,.45.45Zm4,3c0,.55,0,1.1,0,1.64a1.25,1.25,0,0,1-1.23,1.3A1.23,1.23,0,0,1,12.5,17c0-1.06,0-2.12,0-3.18a.79.79,0,1,1,1.57,0v2.62a.53.53,0,0,1,0,.13v0a.25.25,0,0,1-.24.25h0a.25.25,0,0,1-.25-.25V14a.49.49,0,0,0,0-.21v-.09a.29.29,0,1,0-.57,0V15c0,.71,0,1.42,0,2.13a.7.7,0,0,0,.72.64.72.72,0,0,0,.72-.68c0-1.19,0-2.39,0-3.59a1.11,1.11,0,0,0-1.23-1,1.15,1.15,0,0,0-1.1,1.15c0,.88,0,1.76,0,2.65,0,.09,0,.2,0,.27s-.17.23-.25.23a.33.33,0,0,1-.23-.24c0-1-.06-2.1,0-3.14A1.62,1.62,0,0,1,13.42,12,1.68,1.68,0,0,1,15,13.6c0,.58,0,1.16,0,1.74Zm-.35-5H5.41A.45.45,0,0,1,5,9.93a.46.46,0,0,1,.46-.46h9.2a.46.46,0,0,1,.45.46A.45.45,0,0,1,14.61,10.38Zm0-2.37H5.41A.46.46,0,0,1,5,7.55a.45.45,0,0,1,.46-.45h9.2a.45.45,0,0,1,.45.45A.46.46,0,0,1,14.61,8Zm0-2.38H5.41A.45.45,0,0,1,5,5.18a.46.46,0,0,1,.46-.46h9.2a.46.46,0,0,1,.45.46A.45.45,0,0,1,14.61,5.63Z" transform="translate(-2.69 -0.16)"/></g></g></g></svg>