<svg xmlns="http://www.w3.org/2000/svg" xmlns:xlink="http://www.w3.org/1999/xlink" viewBox="0 0 18.95 19.87"><defs><style>.cls-1{fill:none;}.cls-2{clip-path:url(#clip-path);}.cls-3{fill:#0067fc;}</style><clipPath id="clip-path" transform="translate(-0.52 -0.07)"><rect class="cls-1" width="20" height="20"/></clipPath></defs><g id="Layer_2" data-name="Layer 2"><g id="Layer_1-2" data-name="Layer 1"><g class="cls-2"><polygon class="cls-3" points="5.06 0 0 5.06 5.06 5.06 5.06 0"/><path class="cls-3" d="M11.15,14.1a4.54,4.54,0,0,1,4.54-4.54V.07H6V5.53H.52v14.4H15.69V18.64A4.54,4.54,0,0,1,11.15,14.1Zm2-4.74H3.4a.29.29,0,1,1,0-.57h9.71a.29.29,0,1,1,0,.57ZM3.26,13.55c-.11,0-.2-.13-.2-.29s.09-.29.2-.29H9.91c.11,0,.2.13.2.29s-.09.29-.2.29Zm6.59,1.81c0,.16,0,.29-.13.29H6.9c-.07,0-.12-.13-.12-.29s0-.28.12-.28H9.72C9.8,15.08,9.85,15.2,9.85,15.36Zm-3.47,0a.29.29,0,0,1-.29.29H5.47a.28.28,0,0,1-.28-.29.27.27,0,0,1,.28-.28h.62A.28.28,0,0,1,6.38,15.36Zm-1.6,0a.29.29,0,0,1-.29.29H3.4a.29.29,0,0,1-.29-.29.28.28,0,0,1,.29-.28H4.49A.28.28,0,0,1,4.78,15.36ZM3.11,11.17a.29.29,0,0,1,.29-.29H8.58a.29.29,0,0,1,0,.58H3.4A.29.29,0,0,1,3.11,11.17ZM11,7a.29.29,0,0,1,.29-.29h1.78a.29.29,0,1,1,0,.58H11.28A.29.29,0,0,1,11,7ZM7.1,4.6h6a.29.29,0,1,1,0,.58h-6a.29.29,0,0,1,0-.58ZM3.17,6.76a.27.27,0,0,1,.23-.08h6.77a.29.29,0,0,1,0,.58H3.4a.31.31,0,0,1-.3-.11A.28.28,0,0,1,3.17,6.76Zm7.5,11H3.28a.28.28,0,0,1-.21-.21.29.29,0,0,1,.21-.37h7.39a.32.32,0,0,1,.21.21A.3.3,0,0,1,10.67,17.73Z" transform="translate(-0.52 -0.07)"/><path class="cls-3" d="M15.69,10.29a3.79,3.79,0,1,0,3.79,3.79A3.79,3.79,0,0,0,15.69,10.29ZM15,16,13.4,14.35l.89-.9.74.8,2.07-2.08L18,13Z" transform="translate(-0.52 -0.07)"/></g></g></g></svg>