<svg xmlns="http://www.w3.org/2000/svg" xmlns:xlink="http://www.w3.org/1999/xlink" viewBox="0 0 19.34 19.34"><defs><style>.cls-1{fill:none;}.cls-2{clip-path:url(#clip-path);}.cls-3{fill:#0067fc;}</style><clipPath id="clip-path" transform="translate(-0.33 -0.33)"><rect class="cls-1" width="20" height="20"/></clipPath></defs><g id="Layer_2" data-name="Layer 2"><g id="Layer_1-2" data-name="Layer 1"><g class="cls-2"><path class="cls-3" d="M18.38,2.61H16.12v-1a1.29,1.29,0,1,0-2.57,0h0v1H11.29v-1a1.29,1.29,0,1,0-2.58,0h0v1H6.45v-1a1.29,1.29,0,1,0-2.57,0h0v1H1.62A1.29,1.29,0,0,0,.33,3.9V18.38a1.29,1.29,0,0,0,1.29,1.29H18.38a1.29,1.29,0,0,0,1.29-1.29V3.9A1.29,1.29,0,0,0,18.38,2.61ZM17.09,17.09H2.91V7.68H17.09Z" transform="translate(-0.33 -0.33)"/><path class="cls-3" d="M12.74,11.86h2.9a.32.32,0,0,0,.32-.32V9.19a.32.32,0,0,0-.32-.32h-2.9a.32.32,0,0,0-.32.32v2.35A.32.32,0,0,0,12.74,11.86Zm.32-2.34h2.26v1.7H13.06Z" transform="translate(-0.33 -0.33)"/><rect class="cls-3" x="7.9" y="8.54" width="3.55" height="2.99" rx="0.32"/><rect class="cls-3" x="3.71" y="8.5" width="3.55" height="2.99" rx="0.32"/><rect class="cls-3" x="7.9" y="12.48" width="3.55" height="2.99" rx="0.32"/><rect class="cls-3" x="12.09" y="12.53" width="3.55" height="2.99" rx="0.32"/><rect class="cls-3" x="3.71" y="12.44" width="3.55" height="2.99" rx="0.32"/></g></g></g></svg>