<svg xmlns="http://www.w3.org/2000/svg" xmlns:xlink="http://www.w3.org/1999/xlink" viewBox="0 0 19.78 10.23"><defs><style>.cls-1{fill:none;}.cls-2{clip-path:url(#clip-path);}.cls-3{fill:#0067fc;}</style><clipPath id="clip-path" transform="translate(-0.11 -4.89)"><rect class="cls-1" width="20" height="20"/></clipPath></defs><g id="Layer_2" data-name="Layer 2"><g id="Layer_1-2" data-name="Layer 1"><g class="cls-2"><path class="cls-3" d="M6.88,12.05a1.53,1.53,0,1,0,1.54,1.53A1.53,1.53,0,0,0,6.88,12.05Zm0,2.12a.59.59,0,0,1-.58-.59A.58.58,0,0,1,6.88,13a.59.59,0,0,1,.59.58A.6.6,0,0,1,6.88,14.17Z" transform="translate(-0.11 -4.89)"/><path class="cls-3" d="M3.2,6.63H.51a.4.4,0,0,0,0,.8H3.2v.4H1.56a.4.4,0,1,0,0,.8H3.2v.44H2.32a.4.4,0,0,0-.4.4h0a.4.4,0,0,0,.4.41H3.2v2.89a.54.54,0,0,0,.54.54h1a.13.13,0,0,0,.13-.1,2,2,0,0,1,2-1.68,2,2,0,0,1,2,1.69.12.12,0,0,0,.12.1h1.57V4.89H3.2Z" transform="translate(-0.11 -4.89)"/><path class="cls-3" d="M19.77,12.22h-.32V10.66a.89.89,0,0,0-.9-.89H16.38a.15.15,0,0,1-.09,0L13.81,7.06a.66.66,0,0,0-.43-.19H11.07v6.44h3.77a.12.12,0,0,0,.13-.1,2,2,0,0,1,4,0,.14.14,0,0,0,.13.1h.21a.57.57,0,0,0,.57-.57v-.41A.11.11,0,0,0,19.77,12.22ZM15.1,9.77H11.88a.13.13,0,0,1-.13-.13v-2a.13.13,0,0,1,.13-.12h1.43a.13.13,0,0,1,.09,0l1.8,2A.14.14,0,0,1,15.1,9.77Z" transform="translate(-0.11 -4.89)"/><path class="cls-3" d="M17,12.05a1.53,1.53,0,1,0,1.53,1.53A1.53,1.53,0,0,0,17,12.05Zm0,2.12a.6.6,0,0,1-.59-.59A.59.59,0,0,1,17,13a.58.58,0,0,1,.58.58A.59.59,0,0,1,17,14.17Z" transform="translate(-0.11 -4.89)"/></g></g></g></svg>