<svg xmlns="http://www.w3.org/2000/svg" xmlns:xlink="http://www.w3.org/1999/xlink" viewBox="0 0 20 19.23"><defs><style>.cls-1{fill:none;}.cls-2{clip-path:url(#clip-path);}.cls-3{fill:#0067fc;}</style><clipPath id="clip-path" transform="translate(0 -0.38)"><rect class="cls-1" width="20" height="20"/></clipPath></defs><g id="Layer_2" data-name="Layer 2"><g id="Layer_1-2" data-name="Layer 1"><g class="cls-2"><path class="cls-3" d="M10,12.68h0a1,1,0,0,0,1-1v-.46H9v.46A1,1,0,0,0,10,12.68Z" transform="translate(0 -0.38)"/><path class="cls-3" d="M18.58,11.26H11.21v.56A1.21,1.21,0,0,1,10,13h0a1.21,1.21,0,0,1-1.21-1.21v-.56H1.42A2,2,0,0,1,0,10.64v7.44a1.55,1.55,0,0,0,1.54,1.54H18.46A1.55,1.55,0,0,0,20,18.08V10.64A2,2,0,0,1,18.58,11.26Z" transform="translate(0 -0.38)"/><path class="cls-3" d="M10,9a1,1,0,0,0-1,1v.5H11V10A1,1,0,0,0,10,9Z" transform="translate(0 -0.38)"/><path class="cls-3" d="M18.46,4.23H14.55a4.61,4.61,0,0,0-9.1,0H1.54A1.54,1.54,0,0,0,0,5.77V9.41a1.52,1.52,0,0,0,1.35,1.05H8.79v-.6a1.21,1.21,0,1,1,2.42,0v.6h7.5A1.47,1.47,0,0,0,20,9.53V5.77A1.54,1.54,0,0,0,18.46,4.23ZM6.92,8.08a.77.77,0,0,1-1.54,0V6.54a.77.77,0,0,1,1.54,0ZM7,4.23a3.08,3.08,0,0,1,6,0Zm7.59,3.85a.77.77,0,1,1-1.53,0V6.54a.77.77,0,1,1,1.53,0Z" transform="translate(0 -0.38)"/></g></g></g></svg>