<svg xmlns="http://www.w3.org/2000/svg" viewBox="0 0 20 20"><defs><style>.cls-1{fill:#0067fc;}</style></defs><g id="Layer_2" data-name="Layer 2"><g id="Layer_1-2" data-name="Layer 1"><path class="cls-1" d="M5.46,9a1,1,0,1,0,1,1A1,1,0,0,0,5.46,9Z"/><path class="cls-1" d="M5.46,13.8h0a1,1,0,0,0-.94,1,1,1,0,1,0,1-1Z"/><path class="cls-1" d="M5.5,4.3h0a.93.93,0,0,0-.91.94h0a1,1,0,1,0,1-1Z"/><path class="cls-1" d="M0,0V20H20V0ZM5.46,16.66a1.91,1.91,0,0,1-1.86-1.9v0a1.9,1.9,0,1,1,1.86,1.94Zm0-4.76A1.9,1.9,0,0,1,3.6,10v0A1.91,1.91,0,0,1,5.55,8.1a1.9,1.9,0,0,1-.09,3.8Zm0-4.76a1.9,1.9,0,0,1,0-3.8h0a1.9,1.9,0,1,1,0,3.8Zm10.9,8.1H8.55v-1H16.4Zm0-4.76H8.55v-1H16.4Zm0-4.75H8.55v-1H16.4Z"/></g></g></svg>