<svg xmlns="http://www.w3.org/2000/svg" xmlns:xlink="http://www.w3.org/1999/xlink" viewBox="0 0 16.23 19.58"><defs><style>.cls-1{fill:none;}.cls-2{clip-path:url(#clip-path);}.cls-3{fill:#0067fc;}</style><clipPath id="clip-path" transform="translate(-1.89 -0.21)"><rect class="cls-1" width="20" height="20"/></clipPath></defs><g id="Layer_2" data-name="Layer 2"><g id="Layer_1-2" data-name="Layer 1"><g class="cls-2"><path class="cls-3" d="M15.74,2.59A8.11,8.11,0,0,0,4.26,14.06L10,19.79l5.74-5.73A8.11,8.11,0,0,0,15.74,2.59Zm-3.51,8a3.15,3.15,0,0,1-4.47,0,3.1,3.1,0,0,1-.93-2.23,3.16,3.16,0,0,1,.93-2.24,3.17,3.17,0,0,1,4.47,0A3.15,3.15,0,0,1,12.23,10.55Z" transform="translate(-1.89 -0.21)"/></g></g></g></svg>