<svg xmlns="http://www.w3.org/2000/svg" xmlns:xlink="http://www.w3.org/1999/xlink" viewBox="0 0 15.75 19.72"><defs><style>.cls-1{fill:none;}.cls-2{clip-path:url(#clip-path);}.cls-3{fill:#0067fc;}</style><clipPath id="clip-path" transform="translate(-2.13 -0.14)"><rect class="cls-1" width="20" height="20"/></clipPath></defs><g id="Layer_2" data-name="Layer 2"><g id="Layer_1-2" data-name="Layer 1"><g class="cls-2"><path class="cls-3" d="M17.11,14.11s-.1,0-.23-.2a3.88,3.88,0,0,1-.55-1.14,14.2,14.2,0,0,1-.59-4.27V7.79a5.75,5.75,0,0,0-3.41-5.25,1.24,1.24,0,0,0-.09-.33C11.72,1,10.92.14,10,.14S8.28,1,7.76,2.21a1.24,1.24,0,0,0-.09.33A5.75,5.75,0,0,0,4.26,7.79V8.5a14.2,14.2,0,0,1-.59,4.27,3.88,3.88,0,0,1-.55,1.14c-.13.16-.21.2-.23.2a.78.78,0,0,0-.76.78v.16a.76.76,0,0,0,.77.77H17.1a.76.76,0,0,0,.77-.77v-.16A.78.78,0,0,0,17.11,14.11Zm-14.22,0h0Z" transform="translate(-2.13 -0.14)"/><path class="cls-3" d="M12.13,17.15H7.87a.77.77,0,0,0-.62,1.23A3.44,3.44,0,0,0,10,19.86a3.44,3.44,0,0,0,2.75-1.48.77.77,0,0,0-.62-1.23Z" transform="translate(-2.13 -0.14)"/></g></g></g></svg>