<svg xmlns="http://www.w3.org/2000/svg" xmlns:xlink="http://www.w3.org/1999/xlink" viewBox="0 0 15.06 19.73"><defs><style>.cls-1{fill:none;}.cls-2{clip-path:url(#clip-path);}.cls-3{fill:#0067fc;}</style><clipPath id="clip-path" transform="translate(-2.47 -0.13)"><rect class="cls-1" width="20" height="20"/></clipPath></defs><g id="Layer_2" data-name="Layer 2"><g id="Layer_1-2" data-name="Layer 1"><g class="cls-2"><polygon class="cls-3" points="5.02 0 0 5.02 5.02 5.02 5.02 0"/><path class="cls-3" d="M7.89.13V5.56H2.47V19.87H17.53V.13ZM15,9.37H5.32a.29.29,0,0,1,0-.58H15a.29.29,0,1,1,0,.58ZM5.18,13.52c-.1,0-.19-.13-.19-.29s.09-.28.19-.28H11.8c.1,0,.19.13.19.28s-.09.29-.19.29Zm6.56,1.81c0,.15-.06.28-.14.28H8.81c-.07,0-.13-.13-.13-.28s.06-.29.13-.29H11.6C11.68,15,11.74,15.17,11.74,15.33Zm-3.46,0a.29.29,0,0,1-.28.28H7.39a.29.29,0,1,1,0-.57H8A.29.29,0,0,1,8.28,15.33Zm-1.59,0a.28.28,0,0,1-.28.28H5.32a.29.29,0,0,1,0-.57H6.41A.28.28,0,0,1,6.69,15.33ZM5,11.16a.28.28,0,0,1,.28-.28h5.15a.28.28,0,0,1,.29.28.29.29,0,0,1-.29.29H5.32A.29.29,0,0,1,5,11.16ZM12.86,7a.29.29,0,0,1,.29-.29h1.77a.29.29,0,0,1,0,.58H13.15A.29.29,0,0,1,12.86,7ZM9,4.64h5.92a.29.29,0,0,1,.29.29.28.28,0,0,1-.29.28H9a.29.29,0,0,1,0-.57ZM5.1,6.78a.35.35,0,0,1,.22-.08h6.73a.29.29,0,1,1,0,.58H5.32A.3.3,0,0,1,5,7.17.28.28,0,0,1,5.1,6.78Zm7.44,10.89H5.2A.28.28,0,0,1,5,17.46a.3.3,0,0,1,.21-.36h7.34a.31.31,0,0,1,.22.21A.3.3,0,0,1,12.54,17.67Z" transform="translate(-2.47 -0.13)"/></g></g></g></svg>