<svg xmlns="http://www.w3.org/2000/svg" viewBox="0 0 20 20"><defs><style>.cls-1{fill:#0067fc;}</style></defs><g id="Layer_2" data-name="Layer 2"><g id="Layer_1-2" data-name="Layer 1"><g id="Layer_2-2" data-name="Layer 2"><g id="Layer_1-2-2" data-name="Layer 1-2"><path class="cls-1" d="M10,0A10,10,0,1,0,20,10,10,10,0,0,0,10,0Zm0,18.45A8.45,8.45,0,1,1,18.45,10,8.45,8.45,0,0,1,10,18.45Z"/><path class="cls-1" d="M10,3.12A6.88,6.88,0,1,0,16.88,10h0A6.88,6.88,0,0,0,10,3.12Zm0,12.69A5.81,5.81,0,1,1,15.81,10h0A5.81,5.81,0,0,1,10,15.81Z"/><path class="cls-1" d="M10,5.58A4.42,4.42,0,1,0,14.42,10,4.42,4.42,0,0,0,10,5.58Zm0,8.16A3.74,3.74,0,1,1,13.74,10h0A3.76,3.76,0,0,1,10,13.74Z"/></g></g></g></g></svg>