<svg xmlns="http://www.w3.org/2000/svg" xmlns:xlink="http://www.w3.org/1999/xlink" viewBox="0 0 17.58 20"><defs><style>.cls-1{fill:none;}.cls-2{clip-path:url(#clip-path);}.cls-3{fill:#0067fc;}</style><clipPath id="clip-path" transform="translate(-1.21)"><rect class="cls-1" width="20" height="20"/></clipPath></defs><g id="Layer_2" data-name="Layer 2"><g id="Layer_1-2" data-name="Layer 1"><g class="cls-2"><path class="cls-3" d="M16.87,8.61c-1.13,1.94-2.23,3.89-3.4,5.8a3.47,3.47,0,0,0-.29,1.81c.52-.35,1.06-.53,1.37-1.09,1-1.89,2.15-3.75,3.23-5.61L18.09,9,17,8.38C17,8.48,16.91,8.54,16.87,8.61Z" transform="translate(-1.21)"/><path class="cls-3" d="M17.72,7.25,17.31,8l1.06.61.42-.72Z" transform="translate(-1.21)"/><path class="cls-3" d="M12.72,17.08c0-1.2-.12-2.23.52-3.28,1.23-2,2.42-4.06,3.61-6.11V0H1.21V20H16.85V12.16c-.56,1-1.12,2-1.67,2.94S13.66,16.44,12.72,17.08Zm1.44-5.83H3.57v-1H14.16Zm0-4.79H3.57v-1H14.16ZM3.57,3h8.07V4H3.57Zm0,4.77h8.07v1H3.57ZM4.51,17a1,1,0,1,1,1-1A1,1,0,0,1,4.51,17Zm3.21,0a1,1,0,1,1,1-1A1,1,0,0,1,7.72,17Zm4-3.78c0,.1,0,.19,0,.32H3.57v-1h8.1Z" transform="translate(-1.21)"/></g></g></g></svg>