<svg xmlns="http://www.w3.org/2000/svg" xmlns:xlink="http://www.w3.org/1999/xlink" viewBox="0 0 19.08 20"><defs><style>.cls-1{fill:none;}.cls-2{clip-path:url(#clip-path);}.cls-3{fill:#010002;}</style><clipPath id="clip-path" transform="translate(-0.46)"><rect class="cls-1" width="20" height="20"/></clipPath></defs><g id="Layer_2" data-name="Layer 2"><g id="Layer_1-2" data-name="Layer 1"><g class="cls-2"><polygon class="cls-3" points="5.09 0 0 5.09 5.09 5.09 5.09 0"/><path class="cls-3" d="M11.16,14.12a4.58,4.58,0,0,1,4.57-4.57V0H6V5.5H.46V20H15.73V18.69A4.57,4.57,0,0,1,11.16,14.12Zm2-4.76H3.35a.29.29,0,1,1,0-.58h9.78a.29.29,0,1,1,0,.58ZM3.21,13.57c-.11,0-.2-.13-.2-.29s.09-.29.2-.29h6.7c.11,0,.2.13.2.29s-.09.29-.2.29ZM9.85,15.4c0,.16-.06.29-.14.29H6.88c-.07,0-.13-.13-.13-.29s.06-.29.13-.29H9.71C9.79,15.11,9.85,15.24,9.85,15.4Zm-3.5,0a.29.29,0,0,1-.29.29H5.44a.29.29,0,0,1,0-.58h.62A.29.29,0,0,1,6.35,15.4Zm-1.61,0a.29.29,0,0,1-.29.29H3.35a.29.29,0,0,1,0-.58h1.1A.29.29,0,0,1,4.74,15.4ZM3.06,11.18a.29.29,0,0,1,.29-.29H8.57a.29.29,0,0,1,0,.58H3.35A.29.29,0,0,1,3.06,11.18ZM11,7a.29.29,0,0,1,.29-.29h1.8a.29.29,0,1,1,0,.58h-1.8A.29.29,0,0,1,11,7ZM7.08,4.57h6a.29.29,0,1,1,0,.58h-6a.29.29,0,0,1,0-.58Zm-4,2.17a.3.3,0,0,1,.23-.08h6.82a.29.29,0,0,1,0,.58H3.35a.27.27,0,0,1-.29-.11A.28.28,0,0,1,3.12,6.74Zm7.55,11H3.23A.32.32,0,0,1,3,17.57a.3.3,0,0,1,.21-.37h7.44a.3.3,0,0,1,0,.58Z" transform="translate(-0.46)"/><path class="cls-3" d="M15.73,10.3a3.81,3.81,0,1,0,3.81,3.81A3.8,3.8,0,0,0,15.73,10.3Zm.14,5.56v.6h-.32v-.57a1.7,1.7,0,0,1-.87-.26l.14-.38a1.64,1.64,0,0,0,.8.25h.07a.56.56,0,0,0,.58-.56c0-.32-.19-.52-.61-.69-.59-.2-.95-.49-.95-1a.94.94,0,0,1,.86-.93v-.57h.36v.55a1.49,1.49,0,0,1,.74.2l-.14.38a1.42,1.42,0,0,0-.72-.2c-.45,0-.57.21-.57.5s.17.44.67.65.89.54.86,1.05A1,1,0,0,1,15.87,15.86Z" transform="translate(-0.46)"/></g></g></g></svg>