<svg xmlns="http://www.w3.org/2000/svg" fill="#FFF" xmlns:xlink="http://www.w3.org/1999/xlink" viewBox="0 0 20 13.56"><defs><style>.cls-1{fill:none;}.cls-2{clip-path:url(#clip-path);}.cls-3{fill:#010002;}</style><clipPath id="clip-path" transform="translate(0 -3.22)"><rect class="cls-1" width="20" height="20"/></clipPath></defs><g id="Layer_2" data-name="Layer 2"><g id="Layer_1-2" data-name="Layer 1"><g class="cls-2"><path class="cls-3" d="M12.64,10.42a4.28,4.28,0,0,1-5.28,0,6.89,6.89,0,0,0-4.24,6.36H16.88A6.89,6.89,0,0,0,12.64,10.42Z" transform="translate(0 -3.22)"/><circle class="cls-3" cx="10" cy="3.79" r="3.79"/><path class="cls-3" d="M18.08,7.2a2,2,0,0,1-1.2.41,2,2,0,0,1-1.19-.41,3.11,3.11,0,0,0-1.92,2.88H20A3.11,3.11,0,0,0,18.08,7.2Z" transform="translate(0 -3.22)"/><circle class="cls-3" cx="16.88" cy="2.43" r="1.71"/><path class="cls-3" d="M4.31,7.2a2,2,0,0,1-1.19.41,2,2,0,0,1-1.2-.41A3.11,3.11,0,0,0,0,10.08H6.23A3.11,3.11,0,0,0,4.31,7.2Z" transform="translate(0 -3.22)"/><circle class="cls-3" cx="3.12" cy="2.43" r="1.71"/></g></g></g></svg>