<svg xmlns="http://www.w3.org/2000/svg " fill="#fff" viewBox="0 0 20 14.22"><defs><style>.cls-1{fill:#0067fc;}</style></defs><g id="Layer_2" data-name="Layer 2"><g id="Layer_1-2" data-name="Layer 1"><path class="cls-1" d="M10,14.22H1.13C.33,14.22,0,13.9,0,13.1c0-4,0-8,0-12A1,1,0,0,1,1.15,0H19a.92.92,0,0,1,1.05,1V13.22a.91.91,0,0,1-1,1Zm0-.42h8.91c.56,0,.71-.14.71-.71V1.2c0-.65-.12-.77-.77-.77H1.16C.55.43.42.56.42,1.16V13.09c0,.57.14.71.71.71Z"/><path class="cls-1" d="M8.32,2.33a9,9,0,0,1-.71.58.45.45,0,0,1-.34,0A3.14,3.14,0,0,0,3.13,4.32a4.86,4.86,0,0,0-.36,1.37c-.07.36-.19.56-.46.6s-.6-.19-.59-.59a4,4,0,0,1,2.2-3.6,4.06,4.06,0,0,1,4.27.13A.91.91,0,0,1,8.32,2.33Z"/><path class="cls-1" d="M9.24,2.48,6.55,6.15a.79.79,0,0,1-.75.41.66.66,0,0,1-.59-.46.69.69,0,0,1,.22-.8L7,4,9.82,1.68Z"/><path class="cls-1" d="M5.73,9.54H3.27c-.19,0-.38,0-.37-.26S3.09,9,3.28,9h5c.19,0,.37.05.36.29s-.2.23-.37.23Z"/><path class="cls-1" d="M5.73,11.12H3.27c-.19,0-.38,0-.37-.25s.19-.26.38-.26h5c.19,0,.37.05.36.28s-.2.23-.37.23Z"/><path class="cls-1" d="M5.73,12.71H3.27c-.19,0-.38,0-.37-.26s.19-.26.38-.26h5c.19,0,.37.05.36.29s-.2.23-.37.23Z"/><path class="cls-1" d="M9.27,3.2a4.14,4.14,0,0,1,.88,2.62.51.51,0,0,1-1,0,3.39,3.39,0,0,0-.44-1.62A.26.26,0,0,1,8.7,4C8.88,3.72,9.06,3.47,9.27,3.2Z"/><path class="cls-1" d="M2.45,10.89a.49.49,0,0,1-.51.46.49.49,0,0,1,0-1A.5.5,0,0,1,2.45,10.89Z"/><path class="cls-1" d="M2.45,12.44a.49.49,0,0,1-.47.5.48.48,0,0,1-.5-.47.49.49,0,0,1,1,0Z"/><path class="cls-1" d="M2.45,9.28A.48.48,0,0,1,2,9.76a.47.47,0,0,1-.48-.48A.47.47,0,0,1,2,8.8.49.49,0,0,1,2.45,9.28Z"/><rect class="cls-1" x="12.67" y="1.8" width="5.95" height="0.54" rx="0.27"/><rect class="cls-1" x="12.67" y="3.12" width="5.95" height="0.54" rx="0.27"/><rect class="cls-1" x="12.67" y="4.45" width="5.95" height="0.54" rx="0.27"/><rect class="cls-1" x="12.67" y="5.77" width="5.95" height="0.54" rx="0.27"/><rect class="cls-1" x="16.97" y="8.64" width="1.19" height="4.06"/><rect class="cls-1" x="15.01" y="11.43" width="1.19" height="1.27"/><rect class="cls-1" x="13.06" y="9.28" width="1.19" height="3.42"/><rect class="cls-1" x="11.11" y="10.81" width="1.19" height="1.88"/><rect class="cls-1" x="10.42" y="12.52" width="8.43" height="0.45"/></g></g></svg>