
<svg xmlns="http://www.w3.org/2000/svg" fill="#FFF" xmlns:xlink="http://www.w3.org/1999/xlink" viewBox="0 0 19.97 14.2"><defs><style>.cls-1{fill:none;}.cls-2{clip-path:url(#clip-path);}</style><clipPath id="clip-path" transform="translate(-0.02 -2.9)"><rect class="cls-1" width="20" height="20"/></clipPath></defs><g id="Layer_2" data-name="Layer 2"><g id="Layer_1-2" data-name="Layer 1"><g class="cls-2"><path d="M10,17.1H1.14C.34,17.1,0,16.78,0,16,0,12,0,8,0,4A1,1,0,0,1,1.16,2.9c5.93,0,11.85,0,17.78,0a.91.91,0,0,1,1,1V16.1a.91.91,0,0,1-1,1Zm0-.42h8.89c.57,0,.72-.14.72-.7V4.09c0-.64-.12-.76-.77-.76H1.18c-.61,0-.75.13-.75.73V16c0,.57.14.71.71.71Z" transform="translate(-0.02 -2.9)"/><path d="M8.33,5.23c-.25.2-.47.41-.72.58a.39.39,0,0,1-.33,0A3.15,3.15,0,0,0,3.14,7.21a4.92,4.92,0,0,0-.36,1.38c-.07.35-.19.56-.46.59a.5.5,0,0,1-.58-.58A4,4,0,0,1,3.93,5a4,4,0,0,1,4.26.13Z" transform="translate(-0.02 -2.9)"/><path d="M9.24,5.38,6.56,9a.79.79,0,0,1-.75.41A.66.66,0,0,1,5.22,9a.68.68,0,0,1,.21-.79L7,6.89l2.8-2.31Z" transform="translate(-0.02 -2.9)"/><path d="M5.74,12.43H3.28c-.19,0-.38,0-.37-.26s.2-.26.38-.26h5c.2,0,.37.05.36.29s-.2.23-.37.23Z" transform="translate(-0.02 -2.9)"/><path d="M5.74,14H3.28c-.19,0-.38,0-.37-.26s.2-.26.38-.26h5c.2,0,.37,0,.36.29s-.2.23-.37.23Z" transform="translate(-0.02 -2.9)"/><path d="M5.74,15.59H3.28c-.19,0-.38,0-.37-.25s.2-.26.38-.26h5c.2,0,.37,0,.36.28s-.2.23-.37.23Z" transform="translate(-0.02 -2.9)"/><path d="M9.27,6.1a4.14,4.14,0,0,1,.88,2.61.48.48,0,0,1-.53.48.49.49,0,0,1-.49-.49A3.53,3.53,0,0,0,8.7,7.08a.26.26,0,0,1,0-.21C8.88,6.61,9.07,6.37,9.27,6.1Z" transform="translate(-0.02 -2.9)"/><path d="M2.46,13.77a.49.49,0,0,1-.51.46.46.46,0,0,1-.45-.5.47.47,0,0,1,.5-.46A.49.49,0,0,1,2.46,13.77Z" transform="translate(-0.02 -2.9)"/><path d="M2.46,15.32a.48.48,0,0,1-.47.5.49.49,0,0,1-.5-.47.5.5,0,0,1,.47-.5A.5.5,0,0,1,2.46,15.32Z" transform="translate(-0.02 -2.9)"/><path d="M2.46,12.17a.48.48,0,0,1-.49.47.48.48,0,0,1,0-1A.48.48,0,0,1,2.46,12.17Z" transform="translate(-0.02 -2.9)"/><rect x="12.65" y="1.79" width="5.94" height="0.54" rx="0.25"/><rect x="12.65" y="3.12" width="5.94" height="0.54" rx="0.25"/><rect x="12.65" y="4.44" width="5.94" height="0.54" rx="0.25"/><rect x="12.65" y="5.76" width="5.94" height="0.54" rx="0.25"/><rect x="16.94" y="8.62" width="1.18" height="4.05"/><rect x="14.99" y="11.41" width="1.18" height="1.27"/><rect x="13.04" y="9.26" width="1.18" height="3.41"/><rect x="11.09" y="10.8" width="1.18" height="1.88"/><rect x="10.4" y="12.51" width="8.42" height="0.45"/></g></g></g></svg>
