<svg xmlns="http://www.w3.org/2000/svg" xmlns:xlink="http://www.w3.org/1999/xlink" viewBox="0 0 14.97 19.6"><defs><style>.cls-1{fill:none;}.cls-2{clip-path:url(#clip-path);}.cls-3{fill:#010002;}</style><clipPath id="clip-path" transform="translate(-2.52 -0.2)"><rect class="cls-1" width="20" height="20"/></clipPath></defs><g id="Layer_2" data-name="Layer 2"><g id="Layer_1-2" data-name="Layer 1"><g class="cls-2"><polygon class="cls-3" points="4.99 0 0 4.99 4.99 4.99 4.99 0"/><path class="cls-3" d="M7.91.2V5.59H2.52V19.8h15V.2Zm7,9.17H5.35a.29.29,0,0,1,0-.57h9.59a.29.29,0,0,1,0,.57ZM5.22,13.5c-.11,0-.2-.13-.2-.29s.09-.28.2-.28h6.56c.11,0,.2.13.2.28s-.09.29-.2.29Zm6.5,1.79c0,.16-.05.29-.13.29H8.81c-.07,0-.12-.13-.12-.29s.05-.28.12-.28h2.78C11.67,15,11.72,15.13,11.72,15.29Zm-3.43,0a.28.28,0,0,1-.28.29H7.4a.28.28,0,0,1-.28-.29A.27.27,0,0,1,7.4,15H8A.27.27,0,0,1,8.29,15.29Zm-1.57,0a.29.29,0,0,1-.29.29H5.35a.29.29,0,0,1-.28-.29A.28.28,0,0,1,5.35,15H6.43A.28.28,0,0,1,6.72,15.29ZM5.07,11.16a.29.29,0,0,1,.28-.29h5.12a.29.29,0,0,1,0,.57H5.35A.29.29,0,0,1,5.07,11.16ZM12.84,7a.29.29,0,0,1,.29-.29h1.76a.29.29,0,0,1,.29.29.28.28,0,0,1-.29.28H13.13A.28.28,0,0,1,12.84,7ZM9,4.68h5.88a.28.28,0,1,1,0,.56H9a.28.28,0,0,1,0-.56ZM5.13,6.8a.35.35,0,0,1,.22-.08H12a.28.28,0,0,1,.28.29.27.27,0,0,1-.28.28H5.35a.27.27,0,0,1-.29-.1A.28.28,0,0,1,5.13,6.8Zm7.4,10.82H5.24a.26.26,0,0,1-.21-.2.29.29,0,0,1,.21-.36h7.29a.28.28,0,0,1,.21.21A.29.29,0,0,1,12.53,17.62Z" transform="translate(-2.52 -0.2)"/></g></g></g></svg>