
<svg xmlns="http://www.w3.org/2000/svg" fill="#fff" xmlns:xlink="http://www.w3.org/1999/xlink" viewBox="0 0 20 17.81"><defs><style>.cls-1{fill:none;}.cls-2{clip-path:url(#clip-path);}</style><clipPath id="clip-path" transform="translate(0 -1.09)"><rect class="cls-1" width="20" height="20"/></clipPath></defs><g id="Layer_2" data-name="Layer 2"><g id="Layer_1-2" data-name="Layer 1"><g class="cls-2"><path d="M16.67,7.08l3.11,2.84c.37.35.26.62-.24.62H17.21v7.4a1,1,0,0,1-.94,1h-4V13.72a1,1,0,0,0-1-1H8.73a1,1,0,0,0-1,1v5.19h-4a1,1,0,0,1-1-1v-7.4H.46c-.5,0-.61-.27-.24-.62L9.29,1.68a1.09,1.09,0,0,1,1.42,0l2.06,1.85V2.06a1,1,0,0,1,1-1h2a1,1,0,0,1,.93,1v5Z" transform="translate(0 -1.09)"/></g></g></g></svg>

