<svg xmlns="http://www.w3.org/2000/svg" xmlns:xlink="http://www.w3.org/1999/xlink" viewBox="0 0 20 14.78"><defs><style>.cls-1{fill:none;}.cls-2{clip-path:url(#clip-path);}</style><clipPath id="clip-path" transform="translate(0 -2.61)"><rect class="cls-1" width="20" height="20"/></clipPath></defs><g id="Layer_2" data-name="Layer 2"><g id="Layer_1-2" data-name="Layer 1"><g class="cls-2"><g id="Layer_2-2" data-name="Layer 2"><g id="Layer_1-2-2" data-name="Layer 1-2"><path d="M19.68,2.94a1.1,1.1,0,0,0-1.56,0h0L14.27,6.77l-4.9,4.9L6.31,14.73,5,13.45,3.88,12.29l-2-2a1.09,1.09,0,0,0-1.54,0v0a1.11,1.11,0,0,0,0,1.57h0l2,2L3.48,15l2,2h0v.05a1.12,1.12,0,0,0,1.57,0l3.84-3.84,4.9-4.9,3.85-3.85A1.1,1.1,0,0,0,19.68,2.94Z" transform="translate(0 -2.61)"/></g></g></g></g></g></svg>