<svg xmlns="http://www.w3.org/2000/svg" xmlns:xlink="http://www.w3.org/1999/xlink" viewBox="0 0 13.71 20"><defs><style>.cls-1{fill:none;}.cls-2{clip-path:url(#clip-path);}</style><clipPath id="clip-path" transform="translate(-3.14)"><rect class="cls-1" width="20" height="20"/></clipPath></defs><g id="Layer_2" data-name="Layer 2"><g id="Layer_1-2" data-name="Layer 1"><g class="cls-2"><path d="M15.58,14.34a1.69,1.69,0,0,0-1.63,0,2.06,2.06,0,0,0-1.23,1.89h4.14A2.07,2.07,0,0,0,15.58,14.34Z" transform="translate(-3.14)"/><circle cx="11.64" cy="12.92" r="1.08"/><path d="M11.76,14.37a3.57,3.57,0,0,1,3.52-3.56v-9H12.13V0H6.3V1.82H3.14V20H7.56V16.72h3.3V20h4.42V17.93A3.57,3.57,0,0,1,11.76,14.37Zm.71-10.44h1.31V6.05H12.47Zm0,4.28h1.31v2.12H12.47ZM6,14.6H4.65V12.49H6Zm0-4.27H4.65V8.21H6ZM6,6.05H4.65V3.93H6ZM8.56,14.6H7.26V12.49h1.3Zm0-4.27H7.26V8.21h1.3Zm0-4.28H7.26V3.93h1.3Zm2.61,8.55H9.87V12.49h1.3Zm0-4.27H9.87V8.21h1.3Zm0-4.28H9.87V3.93h1.3Z" transform="translate(-3.14)"/></g></g></g></svg>