<svg xmlns="http://www.w3.org/2000/svg" xmlns:xlink="http://www.w3.org/1999/xlink" viewBox="0 0 16.01 20.01"><defs><style>.cls-1{fill:none;}.cls-2{clip-path:url(#clip-path);}</style><clipPath id="clip-path" transform="translate(-1.99 0.01)"><rect class="cls-1" width="20" height="20"/></clipPath></defs><g id="Layer_2" data-name="Layer 2"><g id="Layer_1-2" data-name="Layer 1"><g class="cls-2"><path d="M17.21,11.7a.85.85,0,0,0-.35.08.65.65,0,0,0-.16-.21V0H2V13.71l5,5h6.79v.58a.72.72,0,0,0,.69.71H17a.71.71,0,0,0,.72-.71V18.24a.63.63,0,0,0-.2-.47.06.06,0,0,0,0-.06,2.5,2.5,0,0,1,.29-.95,2.3,2.3,0,0,0,.25-.82V12.49A.81.81,0,0,0,17.21,11.7ZM13.68,1.89a.87.87,0,1,1-.86.87A.86.86,0,0,1,13.68,1.89Zm0,2.11a.86.86,0,0,1,0,1.72.86.86,0,1,1,0-1.72Zm0,2.11a.86.86,0,0,1,0,1.72.86.86,0,1,1,0-1.72ZM3.88,2.74a.55.55,0,0,1,.54-.55h7a.55.55,0,0,1,.54.55v0a.54.54,0,0,1-.54.54h-7a.54.54,0,0,1-.54-.54Zm0,2.11a.54.54,0,0,1,.54-.54h7a.54.54,0,0,1,.54.54v0a.54.54,0,0,1-.54.54h-7a.54.54,0,0,1-.54-.54Zm0,2.1a.54.54,0,0,1,.54-.54h7A.54.54,0,0,1,12,7V7a.54.54,0,0,1-.54.54h-7A.54.54,0,0,1,3.88,7Zm0,2.43a.54.54,0,0,1,.54-.54h7a.54.54,0,0,1,.54.54v0a.54.54,0,0,1-.54.54h-7a.54.54,0,0,1-.54-.54Zm2.78,8.14L3.17,14H6.66ZM4.42,12.05a.54.54,0,0,1-.54-.54v0a.54.54,0,0,1,.54-.54h7a.54.54,0,0,1,.54.54v0a.54.54,0,0,1-.54.54ZM17.3,19.3a.36.36,0,0,1-.36.36H14.48a.37.37,0,0,1-.35-.36V18.24a.35.35,0,0,1,.35-.35h2.46a.35.35,0,0,1,.36.35ZM17.65,16a2,2,0,0,1-.23.68,3.13,3.13,0,0,0-.3.94H14.3a2.7,2.7,0,0,0-1.12-1.95,3.31,3.31,0,0,0-1.78-.73.46.46,0,0,1,0-.91,4.94,4.94,0,0,1,1.77.51.17.17,0,0,0,.17,0,.19.19,0,0,0,.09-.15V9.49a.44.44,0,0,1,.44-.44.44.44,0,0,1,.44.44h0V12a.17.17,0,0,0,.17.17.18.18,0,0,0,.18-.18.44.44,0,0,1,.46-.42.44.44,0,0,1,.39.28.16.16,0,0,0,.14.11.16.16,0,0,0,.16-.06.47.47,0,0,1,.34-.17.44.44,0,0,1,.44.39.19.19,0,0,0,.12.15.17.17,0,0,0,.18,0,.45.45,0,0,1,.77.3Z" transform="translate(-1.99 0.01)"/></g></g></g></svg>