<svg xmlns="http://www.w3.org/2000/svg" xmlns:xlink="http://www.w3.org/1999/xlink" viewBox="0 0 20 13.19"><defs><style>.cls-1{fill:none;}.cls-2{clip-path:url(#clip-path);}</style><clipPath id="clip-path" transform="translate(0 -3.4)"><rect class="cls-1" width="20" height="20"/></clipPath></defs><g id="Layer_2" data-name="Layer 2"><g id="Layer_1-2" data-name="Layer 1"><g class="cls-2"><path d="M0,3.4V16.6H20V3.4ZM17.67,14.6a.66.66,0,0,1-.91.06l-4.58-3.84L10.42,12.3a.66.66,0,0,1-.84,0L7.82,10.82,3.24,14.66a.66.66,0,0,1-.91-.06l0,0a.59.59,0,0,1,.09-.84L6.84,10,2.4,6.26h0a.6.6,0,0,1,0-.85.66.66,0,0,1,.91-.06L10,11l6.76-5.65a.66.66,0,0,1,.91.06l0,0a.59.59,0,0,1-.09.84L13.16,10l4.44,3.74h0A.6.6,0,0,1,17.67,14.6Z" transform="translate(0 -3.4)"/></g></g></g></svg>