<svg xmlns="http://www.w3.org/2000/svg" viewBox="0 0 145.4 145.4"><defs><style>.cls-1{fill:#0067fc;}</style></defs><g id="Layer_2" data-name="Layer 2"><g id="Layer_1-2" data-name="Layer 1"><g id="Group_80" data-name="Group 80"><path id="Path_56" data-name="Path 56" class="cls-1" d="M72.7,145.4a72.7,72.7,0,1,1,72.7-72.7A72.7,72.7,0,0,1,72.7,145.4ZM72.7,4a68.7,68.7,0,1,0,68.7,68.7A68.7,68.7,0,0,0,72.7,4Z"/></g><path class="cls-1" d="M73.85,71.49a1.3,1.3,0,0,1-.85-.36l-8.55-7.95A1.19,1.19,0,0,1,66,61.37l7.72,7.11L98.67,43.42a1.19,1.19,0,0,1,1.69,1.68L74.57,71A.75.75,0,0,1,73.85,71.49Z"/><path class="cls-1" d="M73.24,108.49a38.2,38.2,0,1,1,38.2-38.2,39,39,0,0,1-2.17,12.89,1.24,1.24,0,0,1-1.56.73,1.27,1.27,0,0,1-.73-1.57,37.1,37.1,0,0,0,2-12,35.79,35.79,0,1,0-35.79,35.79,36.33,36.33,0,0,0,12.42-2.17,1.22,1.22,0,0,1,.84,2.29A37.83,37.83,0,0,1,73.24,108.49Z"/><path class="cls-1" d="M94.33,103.67a1.71,1.71,0,0,1-.72-.24,1.11,1.11,0,0,1,0-1.45l11.81-11.69a1,1,0,0,1,1.44,1.45L95.05,103.43A1.71,1.71,0,0,1,94.33,103.67Z"/><path class="cls-1" d="M106.26,103.79a1.71,1.71,0,0,1-.72-.24L93.49,91.62a1.11,1.11,0,0,1,0-1.45,1.09,1.09,0,0,1,1.44,0l12,11.93a1.08,1.08,0,0,1,0,1.45A1.71,1.71,0,0,1,106.26,103.79Z"/><path class="cls-1" d="M99.75,113.31A16.51,16.51,0,1,1,116.26,96.8,16.53,16.53,0,0,1,99.75,113.31Zm0-30.61a14.1,14.1,0,1,0,14.1,14.1A14.27,14.27,0,0,0,99.75,82.7Z"/></g></g></svg>