<svg xmlns="http://www.w3.org/2000/svg" viewBox="0 0 145.4 145.4"><defs><style>.cls-1{fill:#0067fc;}</style></defs><g id="Layer_2" data-name="Layer 2"><g id="Layer_1-2" data-name="Layer 1"><path class="cls-1" d="M86.58,111.6H58.68a1.55,1.55,0,0,1-1.54-1.54V77.4A10.5,10.5,0,0,1,67.65,66.88h10A10.5,10.5,0,0,1,88.12,77.4v32.66A1.55,1.55,0,0,1,86.58,111.6Z"/><path class="cls-1" d="M100.73,75.57H92.32v34.06h11.92c2,0,3.5-1.26,3.5-2.66V81C107.74,78,104.52,75.57,100.73,75.57Z"/><path class="cls-1" d="M44.67,75.57h8.41v34.06H41.16c-2,0-3.5-1.26-3.5-2.66V81C37.66,78,40.74,75.57,44.67,75.57Z"/><circle class="cls-1" cx="72.7" cy="46.42" r="12.62"/><circle class="cls-1" cx="97.37" cy="55.67" r="9.25"/><circle class="cls-1" cx="47.89" cy="55.67" r="9.25"/><g id="Group_80" data-name="Group 80"><path id="Path_56" data-name="Path 56" class="cls-1" d="M72.7,145.4a72.7,72.7,0,1,1,72.7-72.7A72.7,72.7,0,0,1,72.7,145.4ZM72.7,4a68.7,68.7,0,1,0,68.7,68.7A68.7,68.7,0,0,0,72.7,4Z"/></g></g></g></svg>