<svg xmlns="http://www.w3.org/2000/svg" viewBox="0 0 145.4 145.4"><defs><style>.cls-1{fill:#0067fc;}</style></defs><g id="Layer_2" data-name="Layer 2"><g id="Layer_1-2" data-name="Layer 1"><g id="Group_80" data-name="Group 80"><path id="Path_56" data-name="Path 56" class="cls-1" d="M72.7,145.4a72.7,72.7,0,1,1,72.7-72.7A72.7,72.7,0,0,1,72.7,145.4ZM72.7,4a68.7,68.7,0,1,0,68.7,68.7A68.7,68.7,0,0,0,72.7,4Z"/></g><path class="cls-1" d="M64.53,78.6H46.47a5.25,5.25,0,0,1-5.26-5.26v-26a5.25,5.25,0,0,1,5.26-5.26h18.2a5.25,5.25,0,0,1,5.26,5.26v26A5.29,5.29,0,0,1,64.53,78.6Z"/><path class="cls-1" d="M99.78,68.93H80.16a4.49,4.49,0,0,1-4.55-4.55V46.61a4.49,4.49,0,0,1,4.55-4.54H99.78a4.49,4.49,0,0,1,4.55,4.54V64.38A4.58,4.58,0,0,1,99.78,68.93Z"/><path class="cls-1" d="M66.09,103.33H44.91a3.82,3.82,0,0,1-3.84-3.83V88.12a3.82,3.82,0,0,1,3.84-3.83H66.09a3.82,3.82,0,0,1,3.84,3.83V99.5A3.82,3.82,0,0,1,66.09,103.33Z"/><path class="cls-1" d="M99.64,103.33H80.31a4.74,4.74,0,0,1-4.7-4.69V79.31a4.74,4.74,0,0,1,4.7-4.69H99.64a4.73,4.73,0,0,1,4.69,4.69V98.64A4.73,4.73,0,0,1,99.64,103.33Z"/></g></g></svg>