<svg xmlns="http://www.w3.org/2000/svg" viewBox="0 0 145.4 145.4"><defs><style>.cls-1{fill:#ff7271;}</style></defs><g id="Layer_2" data-name="Layer 2"><g id="Layer_1-2" data-name="Layer 1"><g id="Group_80" data-name="Group 80"><path id="Path_56" data-name="Path 56" class="cls-1" d="M72.7,145.4a72.7,72.7,0,1,1,72.7-72.7A72.7,72.7,0,0,1,72.7,145.4ZM72.7,4a68.7,68.7,0,1,0,68.7,68.7A68.7,68.7,0,0,0,72.7,4Z"/></g><path class="cls-1" d="M76.77,86.47a28.42,28.42,0,0,1,8.06-2.27c1.41-.23,2.84-.34,4.26-.51.16,0,.33-.06.67-.13a10.62,10.62,0,0,1-5.17-4.46c-2.63-4.49-3.24-9.19-1.12-14A5.9,5.9,0,0,0,84,62.59Q84,48,84,33.5H33.5v73.3H71V106c0-3.44.11-6.89,0-10.33C70.78,91.19,73,88.34,76.77,86.47ZM62.66,98.41H41a3.4,3.4,0,0,1-.91-.06,1.22,1.22,0,0,1-1-1.36,1.23,1.23,0,0,1,1.19-1.17c.23,0,.46,0,.69,0H51.63c3.68,0,7.35,0,11,0a1.32,1.32,0,0,1,1.46,1.25A1.36,1.36,0,0,1,62.66,98.41ZM63,90.67a4.68,4.68,0,0,1-.84,0H41a4.68,4.68,0,0,1-.84,0,1.25,1.25,0,0,1-1.06-1.3,1.24,1.24,0,0,1,1.13-1.23,5.91,5.91,0,0,1,.84,0h21a5.91,5.91,0,0,1,.84,0,1.27,1.27,0,0,1,1.15,1.23A1.29,1.29,0,0,1,63,90.67ZM40,80.49a3.36,3.36,0,0,1,.9-.09q10.68,0,21.35,0a3.91,3.91,0,0,1,.84.06A1.28,1.28,0,0,1,63,83c-.41,0-.82,0-1.23,0H41.08a5.55,5.55,0,0,1-.91,0A1.28,1.28,0,0,1,40,80.49ZM66.84,50.65c-1.66,0-3.32-.08-5,0a5.48,5.48,0,0,0-4.11,2.64c-1,1.39-1.88,2.85-2.79,4.29a.79.79,0,0,0,0,.67c1,1.58,2,3.19,3.14,4.71a5.43,5.43,0,0,0,4.82,2.31c1.32-.05,2.64,0,4,0L67,65c-.65-.6-1.32-1.17-2-1.79s-.78-1.43-.22-2,1.35-.53,2.08.18c1.35,1.35,2.71,2.7,4,4.06a1.34,1.34,0,0,1,0,2.19q-2,2.07-4.11,4.11c-.7.7-1.45.75-2,.17s-.51-1.31.18-2,1.15-1.16,1.73-1.74l.14-.2a3.58,3.58,0,0,0-.59-.08c-1.12,0-2.24,0-3.36,0a8.1,8.1,0,0,1-7-3.34c-.83-1.06-1.53-2.23-2.28-3.35l-.55-.84c-.57.9-1.07,1.76-1.65,2.56a24.12,24.12,0,0,1-2,2.52A7.56,7.56,0,0,1,44,67.9H40.66c-1,0-1.55-.51-1.55-1.32s.56-1.28,1.55-1.29,1.94,0,2.91,0a5.22,5.22,0,0,0,4.53-2.12c1.2-1.58,2.24-3.28,3.33-5a.62.62,0,0,0,0-.53c-1.16-1.74-2.26-3.53-3.53-5.18a4.89,4.89,0,0,0-4.17-1.89c-1,0-2.09,0-3.14,0s-1.48-.5-1.49-1.28A1.29,1.29,0,0,1,40.56,48a37.64,37.64,0,0,1,4.51.09,8.15,8.15,0,0,1,5.71,3.75c.83,1.16,1.57,2.38,2.41,3.64.6-.94,1.12-1.85,1.74-2.68A23.3,23.3,0,0,1,57.27,50a7.18,7.18,0,0,1,5.22-2c1.45,0,2.9,0,4.49,0-.19-.24-.29-.4-.41-.53-.59-.6-1.22-1.17-1.77-1.8a1.23,1.23,0,0,1,0-1.73,1.24,1.24,0,0,1,1.73-.1c1.58,1.52,3.13,3.08,4.66,4.65a1.22,1.22,0,0,1-.1,1.73Q69,52.49,66.7,54.68a1.29,1.29,0,1,1-1.81-1.85c.67-.7,1.38-1.35,2.07-2Z"/><path class="cls-1" d="M106.5,88.32c-.45-.17-.91-.33-1.38-.46a46.07,46.07,0,0,0-21.8-.73,18.22,18.22,0,0,0-6.91,2.55A6.09,6.09,0,0,0,73.58,95c.06,5.34,0,10.67,0,16v.82h6.67V99.54a4.64,4.64,0,0,1,.06-.91,1.28,1.28,0,0,1,2.5,0,4.64,4.64,0,0,1,.06.91v12.33h19.7V111q0-5.78,0-11.56a3,3,0,0,1,.09-.9,1.28,1.28,0,0,1,2.49.21,5.9,5.9,0,0,1,0,.84V111.9h6.69V93.68C111.16,90.82,109.06,89.34,106.5,88.32Z"/><path class="cls-1" d="M98.47,78.1a13.16,13.16,0,0,0,2.17-7.58c0-.3,0-.82-.08-1.32A6.9,6.9,0,0,0,95,62.66a12.6,12.6,0,0,0-3.19-.19,6.69,6.69,0,0,0-6.57,5.31,12.43,12.43,0,0,0,2,10.56C90.32,82.65,95.47,82.5,98.47,78.1Z"/></g></g></svg>