<?xml version="1.0" encoding="UTF-8"?>
<svg id="Layer_2" data-name="Layer 2" xmlns="http://www.w3.org/2000/svg" viewBox="0 0 150 150">
  <defs>
    <style>
      .cls-1 {
        fill: #0067fc;
      }
    </style>
  </defs>
  <g id="Layer_1-2" data-name="Layer 1">
    <g>
      <g id="Group_80" data-name="Group 80">
        <path id="Path_56" data-name="Path 56" class="cls-1" d="m75,150C33.58,150,0,116.42,0,75S33.58,0,75,0s75,33.58,75,75c-.04,41.41-33.59,74.96-75,75Zm0-145.87C35.86,4.13,4.13,35.86,4.13,75s31.73,70.87,70.87,70.87,70.87-31.73,70.87-70.87c-.03-39.13-31.74-70.84-70.87-70.87Z"/>
      </g>
      <path class="cls-1" d="m105.87,46.5v61.73h-56.98c-2.62-.15-4.63-2.4-4.48-5.02.14-2.41,2.07-4.34,4.48-4.48h52.23v-61.72h-52.23c-5.24,0-9.5,4.25-9.5,9.49v56.97c0,5.25,4.25,9.5,9.5,9.5h61.72V46.5h-4.74Zm-58.97,4.69c0-1.71,1.39-3.09,3.09-3.09h39.9c1.71,0,3.09,1.39,3.09,3.09h0c0,1.71-1.39,3.09-3.09,3.09h-39.9c-1.71,0-3.09-1.39-3.09-3.09h0Zm3.09,10.87h39.9c1.71,0,3.09,1.39,3.09,3.09s-1.39,3.09-3.09,3.09h-39.9c-1.71,0-3.09-1.39-3.09-3.09s1.39-3.09,3.09-3.09Z"/>
    </g>
  </g>
</svg>