<svg xmlns="http://www.w3.org/2000/svg" viewBox="0 0 145.4 145.4"><defs><style>.cls-1{fill:#0067fc;}</style></defs><g id="Layer_2" data-name="Layer 2"><g id="Layer_1-2" data-name="Layer 1"><g id="Group_80" data-name="Group 80"><path id="Path_56" data-name="Path 56" class="cls-1" d="M72.7,145.4a72.7,72.7,0,1,1,72.7-72.7A72.7,72.7,0,0,1,72.7,145.4ZM72.7,4a68.7,68.7,0,1,0,68.7,68.7A68.7,68.7,0,0,0,72.7,4Z"/></g><path class="cls-1" d="M89.8,112.3h-42a6.34,6.34,0,0,1-6.3-6.3V47.6a6.34,6.34,0,0,1,6.3-6.3H97.6a6.34,6.34,0,0,1,6.3,6.3V96.8a1.9,1.9,0,0,1-.5,1.3L91.3,111.6A1.93,1.93,0,0,1,89.8,112.3Zm-42.1-67a2.33,2.33,0,0,0-2.3,2.3v58.5a2.33,2.33,0,0,0,2.3,2.3H88.8L99.7,96.1V47.6a2.33,2.33,0,0,0-2.3-2.3Z"/><path class="cls-1" d="M88.8,111.9a2,2,0,0,1-2-2v-8.8a6.34,6.34,0,0,1,6.3-6.3h8.8a2,2,0,0,1,0,4H93.1a2.33,2.33,0,0,0-2.3,2.3v8.8A2,2,0,0,1,88.8,111.9Z"/><rect class="cls-1" x="51.8" y="60.2" width="8.6" height="8.6"/><rect class="cls-1" x="63.5" y="60.2" width="8.6" height="8.6"/><rect class="cls-1" x="75.1" y="60.2" width="8.6" height="8.6"/><rect class="cls-1" x="86.7" y="60.2" width="8.6" height="8.6"/><rect class="cls-1" x="51.8" y="71.3" width="8.6" height="8.6"/><rect class="cls-1" x="75.1" y="71.3" width="8.6" height="8.6"/><rect class="cls-1" x="86.7" y="71.3" width="8.6" height="8.6"/><rect class="cls-1" x="51.8" y="82.9" width="8.6" height="8.6"/><rect class="cls-1" x="63.5" y="82.9" width="8.6" height="8.6"/><path class="cls-1" d="M89.8,50.1a2,2,0,0,1-2-2v-13a2,2,0,0,1,4,0v13A2,2,0,0,1,89.8,50.1Z"/><path class="cls-1" d="M56.1,50.1a2,2,0,0,1-2-2v-13a2,2,0,0,1,4,0v13A2,2,0,0,1,56.1,50.1Z"/><path class="cls-1" d="M101.8,54.8H44.3a2,2,0,0,1,0-4h57.5a2,2,0,0,1,0,4Z"/><path class="cls-1" d="M66.5,79.4a.91.91,0,0,1-.7-.3L63.5,77a1,1,0,0,1,1.3-1.5l1.5,1.4,4.3-4.8a1,1,0,0,1,1.5,1.3l-4.9,5.7a.78.78,0,0,1-.7.3Z"/></g></g></svg>