<svg xmlns="http://www.w3.org/2000/svg" viewBox="0 0 145.4 145.4"><defs><style>.cls-1{fill:#0067fc;}.cls-2{fill:#0067fb;}</style></defs><g id="Layer_2" data-name="Layer 2"><g id="Layer_1-2" data-name="Layer 1"><g id="Group_80" data-name="Group 80"><path id="Path_56" data-name="Path 56" class="cls-1" d="M72.7,145.4a72.7,72.7,0,1,1,72.7-72.7A72.7,72.7,0,0,1,72.7,145.4ZM72.7,4a68.7,68.7,0,1,0,68.7,68.7A68.7,68.7,0,0,0,72.7,4Z"/></g><path class="cls-2" d="M55.94,110.43H44.34a2.13,2.13,0,0,1-2.13-2.13V68.71a2.13,2.13,0,0,1,2.13-2.13h11.6a2.14,2.14,0,0,1,2.13,2.13V108.3A2.14,2.14,0,0,1,55.94,110.43Zm-9.48-4.26h7.35V70.84H46.46Z"/><path class="cls-2" d="M76.8,110.43H65.2a2.14,2.14,0,0,1-2.13-2.13V53.06a2.14,2.14,0,0,1,2.13-2.13H76.8a2.14,2.14,0,0,1,2.13,2.13V108.3A2.14,2.14,0,0,1,76.8,110.43Zm-9.47-4.26h7.34v-51H67.33Z"/><path class="cls-2" d="M98.72,110.43H87.12A2.14,2.14,0,0,1,85,108.3V37.1A2.14,2.14,0,0,1,87.12,35h11.6a2.14,2.14,0,0,1,2.13,2.13v71.2A2.14,2.14,0,0,1,98.72,110.43Zm-9.47-4.26h7.34V39.23H89.25Z"/><path class="cls-2" d="M112.88,110.43H32.52a2.13,2.13,0,0,1,0-4.26h80.36a2.13,2.13,0,1,1,0,4.26Z"/></g></g></svg>