<svg xmlns="http://www.w3.org/2000/svg" viewBox="0 0 145.4 145.4"><defs><style>.cls-1{fill:#0067fc;}</style></defs><g id="Layer_2" data-name="Layer 2"><g id="Layer_1-2" data-name="Layer 1"><g id="Group_80" data-name="Group 80"><path id="Path_56" data-name="Path 56" class="cls-1" d="M72.7,145.4a72.7,72.7,0,1,1,72.7-72.7A72.7,72.7,0,0,1,72.7,145.4ZM72.7,4a68.7,68.7,0,1,0,68.7,68.7A68.7,68.7,0,0,0,72.7,4Z"/></g><path class="cls-1" d="M98.72,70.14q0-14.85,0-29.71c0-4.09-2.2-6.29-6.24-6.3-12.1,0-24.19,0-36.29,0A4,4,0,0,0,53,35.41c-3.35,3.42-6.73,6.82-10.17,10.15a4.25,4.25,0,0,0-1.42,3.37q.18,10.67.21,21.34c0,3.28-.17,6.56-.19,9.84q0,12.39,0,24.78c0,4.18,2.24,6.39,6.45,6.39q11.09,0,22.18,0c7.49,0,15,0,22.46,0,2.27,0,4.21-.69,5.28-2.75a8.32,8.32,0,0,0,.84-3.65C98.73,93.31,98.72,81.72,98.72,70.14ZM45.09,48.52c-.7,0-1.44-.16-1.28-1a1.74,1.74,0,0,1,1.32-.95c2.09-.1,4.19,0,6.29,0s2.51-.39,2.51-2.58,0-4.1,0-6.15c0-.75.15-1.53,1-1.38.38.07.87.87.89,1.35.09,2.32.06,4.65,0,7a3.6,3.6,0,0,1-3.82,3.74H48.65C47.47,48.52,46.28,48.51,45.09,48.52ZM63.83,92.45H52.06a1.78,1.78,0,0,1,0-3.56H63.83a1.78,1.78,0,0,1,0,3.56ZM74.05,81.72a1.79,1.79,0,0,1-1.79,1.79H52.06a1.79,1.79,0,0,1-1.78-1.79h0a1.78,1.78,0,0,1,1.78-1.78h20.2a1.79,1.79,0,0,1,1.79,1.78ZM89.53,93.64c0,2.15,0,4.29,0,6.44a4.9,4.9,0,0,1-4.83,5.07,4.84,4.84,0,0,1-4.81-5.06c0-4.15,0-8.3,0-12.45A3.08,3.08,0,1,1,86,87.57c0,3.42,0,6.85,0,10.27a4.07,4.07,0,0,1,0,.5v.17a1,1,0,0,1-1,1h0a1,1,0,0,1-1-1V95.74c0-.3,0-.6,0-.9a.13.13,0,0,0,0-.06V88.33a2.38,2.38,0,0,0,0-.8v-.38a1.12,1.12,0,1,0-2.23,0v5.19c0,2.79,0,5.58,0,8.37a2.7,2.7,0,0,0,2.8,2.47,2.81,2.81,0,0,0,2.84-2.63c.06-4.69.13-9.4,0-14.09a4.37,4.37,0,0,0-4.83-4,4.47,4.47,0,0,0-4.29,4.47c-.06,3.47,0,6.94,0,10.4,0,.37.11.8,0,1.08s-.65.9-1,.89a1.31,1.31,0,0,1-.9-.94c0-4.1-.22-8.22.08-12.31.25-3.43,3.47-5.75,7-5.56a6.56,6.56,0,0,1,6,6.33c.08,2.28,0,4.56,0,6.84ZM88.14,74.2H52.06a1.79,1.79,0,0,1,0-3.57H88.14a1.79,1.79,0,0,1,0,3.57Zm0-9.31H52.06a1.79,1.79,0,0,1,0-3.57H88.14a1.79,1.79,0,0,1,0,3.57Zm0-9.31H52.06a1.79,1.79,0,0,1,0-3.57H88.14a1.79,1.79,0,0,1,0,3.57Z"/></g></g></svg>