<svg xmlns="http://www.w3.org/2000/svg" viewBox="0 0 145.4 145.4"><defs><style>.cls-1{fill:#0067fc;}</style></defs><g id="Layer_2" data-name="Layer 2"><g id="Layer_1-2" data-name="Layer 1"><g id="Group_80" data-name="Group 80"><path id="Path_56" data-name="Path 56" class="cls-1" d="M72.7,145.4a72.7,72.7,0,1,1,72.7-72.7A72.7,72.7,0,0,1,72.7,145.4ZM72.7,4a68.7,68.7,0,1,0,68.7,68.7A68.7,68.7,0,0,0,72.7,4Z"/></g><path class="cls-1" d="M97.6,116H47.7a5.55,5.55,0,0,1-5.5-5.5V35a5.55,5.55,0,0,1,5.5-5.5h42a1.78,1.78,0,0,1,1,.4l12.1,13.5a1.14,1.14,0,0,1,.3.8v66.3A5.48,5.48,0,0,1,97.6,116ZM47.7,32a3,3,0,0,0-3,3v75.5a3,3,0,0,0,3,3H97.6a3,3,0,0,0,3-3V44.65L89.3,32Z"/><path class="cls-1" d="M101.8,45.45H93A5.55,5.55,0,0,1,87.5,40v-8.8a1.3,1.3,0,1,1,2.6,0V40a3,3,0,0,0,3,3h8.8a1.25,1.25,0,1,1-.1,2.5Z"/><path class="cls-1" d="M89.25,65.15H56.15a1.32,1.32,0,0,1-1.3-1.3v-8.2a1.32,1.32,0,0,1,1.3-1.3h33.1a1.32,1.32,0,0,1,1.3,1.3v8.2A1.32,1.32,0,0,1,89.25,65.15Zm-31.8-2.5H88v-5.6H57.45Z"/><path class="cls-1" d="M89.25,79.85H56.15a1.32,1.32,0,0,1-1.3-1.3v-8.2a1.32,1.32,0,0,1,1.3-1.3h33.1a1.32,1.32,0,0,1,1.3,1.3v8.2A1.32,1.32,0,0,1,89.25,79.85Zm-31.8-2.5H88v-5.6H57.45Z"/><path class="cls-1" d="M89.25,94.55H56.15a1.32,1.32,0,0,1-1.3-1.3v-8.2a1.32,1.32,0,0,1,1.3-1.3h33.1a1.32,1.32,0,0,1,1.3,1.3v8.2A1.32,1.32,0,0,1,89.25,94.55Zm-31.8-2.5H88v-5.6H57.45Z"/></g></g></svg>