<svg xmlns="http://www.w3.org/2000/svg" viewBox="0 0 145.4 145.4"><defs><style>.cls-1{fill:#52cf52;}</style></defs><g id="Layer_2" data-name="Layer 2"><g id="Layer_1-2" data-name="Layer 1"><g id="Group_80" data-name="Group 80"><path id="Path_56" data-name="Path 56" class="cls-1" d="M72.7,145.4a72.7,72.7,0,1,1,72.7-72.7A72.7,72.7,0,0,1,72.7,145.4ZM72.7,4a68.7,68.7,0,1,0,68.7,68.7A68.7,68.7,0,0,0,72.7,4Z"/></g><polygon class="cls-1" points="55.37 33.75 35.54 53.58 55.37 53.58 55.37 33.75"/><path class="cls-1" d="M77.22,88.76A17.78,17.78,0,0,1,95,71V33.75H57V55.17H35.54v56.48H95v-5.09A17.79,17.79,0,0,1,77.22,88.76ZM84.91,70.2H46.81a1.13,1.13,0,0,1,0-2.26h38.1a1.13,1.13,0,1,1,0,2.26ZM46.27,86.6c-.43,0-.78-.51-.78-1.13s.35-1.13.78-1.13H72.36c.43,0,.78.51.78,1.13s-.35,1.13-.78,1.13Zm25.86,7.13c0,.62-.23,1.13-.54,1.13h-11c-.27,0-.5-.51-.5-1.13s.23-1.13.5-1.13h11C71.9,92.6,72.13,93.1,72.13,93.73Zm-13.63,0a1.14,1.14,0,0,1-1.13,1.13H55a1.13,1.13,0,0,1,0-2.26h2.42A1.13,1.13,0,0,1,58.5,93.73Zm-6.27,0a1.14,1.14,0,0,1-1.13,1.13H46.81a1.13,1.13,0,0,1,0-2.26H51.1A1.13,1.13,0,0,1,52.23,93.73ZM45.69,77.29a1.13,1.13,0,0,1,1.12-1.13H67.15a1.13,1.13,0,0,1,0,2.26H46.81A1.13,1.13,0,0,1,45.69,77.29ZM76.57,60.82a1.13,1.13,0,0,1,1.13-1.13h7a1.13,1.13,0,1,1,0,2.25h-7A1.13,1.13,0,0,1,76.57,60.82ZM61.34,51.55H84.71a1.13,1.13,0,1,1,0,2.25H61.34a1.13,1.13,0,1,1,0-2.25ZM45.92,60a1.18,1.18,0,0,1,.89-.31H73.38a1.13,1.13,0,1,1,0,2.25H46.81A1.08,1.08,0,0,1,45.92,60Zm29.4,43h-29a1.17,1.17,0,0,1,0-2.26h29a1.13,1.13,0,0,1,.83.83A1.16,1.16,0,0,1,75.32,103Z"/><path class="cls-1" d="M95,73.85A14.85,14.85,0,1,0,109.86,88.7,14.84,14.84,0,0,0,95,73.85ZM92.46,96.19,86,89.77l3.48-3.53c.9,1,1.9,2,2.93,3.13l8.11-8.17L104,84.62Z"/></g></g></svg>