<svg xmlns="http://www.w3.org/2000/svg" viewBox="0 0 145.4 145.4"><defs><style>.cls-1{fill:#FFF;}</style></defs><g id="Layer_2" data-name="Layer 2"><g id="Layer_1-2" data-name="Layer 1"><g id="Group_80" data-name="Group 80"><path id="Path_56" data-name="Path 56" class="cls-1" d="M72.7,145.4a72.7,72.7,0,1,1,72.7-72.7A72.7,72.7,0,0,1,72.7,145.4ZM72.7,4a68.7,68.7,0,1,0,68.7,68.7A68.7,68.7,0,0,0,72.7,4Z"/></g><path class="cls-1" d="M94.93,105.58H50.23a1.44,1.44,0,0,1-1.42-1.42V90.32a1.44,1.44,0,0,1,1.42-1.42h44.7a1.44,1.44,0,0,1,1.42,1.42v13.84A1.31,1.31,0,0,1,94.93,105.58Zm-43.28-3H93.39V91.74H51.65Z"/><path class="cls-1" d="M94.93,81.1H50.23a1.44,1.44,0,0,1-1.42-1.42v-14a1.44,1.44,0,0,1,1.42-1.42h44.7a1.44,1.44,0,0,1,1.42,1.42V79.56A1.4,1.4,0,0,1,94.93,81.1Zm-43.28-3H93.39V67.26H51.65Z"/><path class="cls-1" d="M94.93,56.62H50.23a1.44,1.44,0,0,1-1.42-1.42v-14a1.44,1.44,0,0,1,1.42-1.42h44.7a1.44,1.44,0,0,1,1.42,1.42V55.08A1.4,1.4,0,0,1,94.93,56.62Zm-43.28-3H93.39V42.78H51.65Z"/><path class="cls-1" d="M38.17,79.91a1.43,1.43,0,0,1-1.07-.47,1.5,1.5,0,0,1,0-2.13L42,72.46,37.22,68a1.51,1.51,0,1,1,2.13-2.13L45,71.52a1.5,1.5,0,0,1,0,2.13l-5.8,5.79A1.26,1.26,0,0,1,38.17,79.91Z"/><path class="cls-1" d="M43.49,97.89H30.72a1.44,1.44,0,0,1-1.42-1.42V72.7a1.44,1.44,0,0,1,1.42-1.42H44.08A1.44,1.44,0,0,1,45.5,72.7a1.53,1.53,0,0,1-1.42,1.42H32.26V94.93H43.61A1.44,1.44,0,0,1,45,96.35,1.66,1.66,0,0,1,43.49,97.89Z"/><path class="cls-1" d="M107.11,56.14a1.41,1.41,0,0,1-1.06-.47l-5.8-5.79a1.5,1.5,0,0,1,0-2.13l5.68-5.68a1.51,1.51,0,0,1,2.13,2.13l-4.61,4.61,4.85,4.85a1.5,1.5,0,0,1,0,2.13A2.27,2.27,0,0,1,107.11,56.14Z"/><path class="cls-1" d="M114.68,74.12H101.91a1.44,1.44,0,0,1-1.42-1.42,1.53,1.53,0,0,1,1.42-1.42h11.35V50.35H101.44A1.44,1.44,0,0,1,100,48.93a1.53,1.53,0,0,1,1.42-1.42h13.24a1.44,1.44,0,0,1,1.42,1.42V72.7A1.53,1.53,0,0,1,114.68,74.12Z"/><path class="cls-1" d="M87.84,74.12H72.58a1.44,1.44,0,0,1-1.42-1.42,1.53,1.53,0,0,1,1.42-1.42H87.84a1.44,1.44,0,0,1,1.42,1.42A1.53,1.53,0,0,1,87.84,74.12Z"/><path class="cls-1" d="M72.58,98.72H57.33a1.44,1.44,0,0,1-1.42-1.42,1.53,1.53,0,0,1,1.42-1.42H72.58a1.42,1.42,0,0,1,0,2.84Z"/><path class="cls-1" d="M66.08,74.12H57.33a1.44,1.44,0,0,1-1.42-1.42,1.53,1.53,0,0,1,1.42-1.42h8.75a1.42,1.42,0,0,1,0,2.84Z"/><path class="cls-1" d="M87.84,49.64H72.58a1.44,1.44,0,0,1-1.42-1.42,1.53,1.53,0,0,1,1.42-1.42H87.84a1.44,1.44,0,0,1,1.42,1.42A1.53,1.53,0,0,1,87.84,49.64Z"/><path class="cls-1" d="M66.08,49.64H57.33a1.44,1.44,0,0,1-1.42-1.42,1.53,1.53,0,0,1,1.42-1.42h8.75a1.42,1.42,0,0,1,0,2.84Z"/><path class="cls-1" d="M84.05,100.61a1.45,1.45,0,0,1-1.06-.47l-1.89-1.9a1.5,1.5,0,0,1,2.12-2.13l.83.83,2.6-2.6a1.51,1.51,0,0,1,2.13,2.13l-3.66,3.67A1.17,1.17,0,0,1,84.05,100.61Z"/></g></g></svg>